G04 #@! TF.GenerationSoftware,KiCad,Pcbnew,6.0.0-unknown-da645c5~86~ubuntu18.04.1*
G04 #@! TF.CreationDate,2019-07-09T16:21:19-04:00*
G04 #@! TF.ProjectId,Femtosat,46656d74-6f73-4617-942e-6b696361645f,rev?*
G04 #@! TF.SameCoordinates,Original*
G04 #@! TF.FileFunction,Legend,Bot*
G04 #@! TF.FilePolarity,Positive*
%FSLAX46Y46*%
G04 Gerber Fmt 4.6, Leading zero omitted, Abs format (unit mm)*
G04 Created by KiCad (PCBNEW 6.0.0-unknown-da645c5~86~ubuntu18.04.1) date 2019-07-09 16:21:19*
%MOMM*%
%LPD*%
G04 APERTURE LIST*
%ADD10C,0.150000*%
%ADD11C,0.120000*%
G04 APERTURE END LIST*
D10*
X102271428Y-44419047D02*
X102271428Y-45180952D01*
X102271428Y-42419047D02*
X102271428Y-43180952D01*
X102652380Y-42800000D02*
X101890476Y-42800000D01*
D11*
X156565000Y-60250000D02*
X156565000Y-59610000D01*
X156565000Y-57450000D02*
X156565000Y-58090000D01*
X156565000Y-59610000D02*
X155935000Y-59610000D01*
X159285000Y-60200000D02*
X159285000Y-57500000D01*
X98450000Y-59850000D02*
X98450000Y-57450000D01*
X101550000Y-57450000D02*
X101550000Y-60400000D01*
X109221267Y-65440000D02*
X108878733Y-65440000D01*
X109221267Y-66460000D02*
X108878733Y-66460000D01*
X114278733Y-66410000D02*
X114621267Y-66410000D01*
X114278733Y-65390000D02*
X114621267Y-65390000D01*
D10*
X144850000Y-49850000D02*
X143850000Y-50850000D01*
X139850000Y-50850000D02*
X143850000Y-50850000D01*
X144850000Y-49850000D02*
X144850000Y-46550000D01*
X144850000Y-46550000D02*
X139830480Y-46550000D01*
X139850000Y-46550000D02*
X139850000Y-50850000D01*
D11*
X85380000Y-46990000D02*
X85380000Y-54610000D01*
X84680000Y-54610000D02*
X89380000Y-54610000D01*
X84680000Y-46990000D02*
X84680000Y-54610000D01*
X89380000Y-46990000D02*
X84680000Y-46990000D01*
X89380000Y-54610000D02*
X89380000Y-46990000D01*
X94140000Y-41940000D02*
X92925000Y-41940000D01*
X98100000Y-42000000D02*
X100360000Y-42000000D01*
X98100000Y-42500000D02*
X100360000Y-42500000D01*
X96500000Y-45100000D02*
X96500000Y-46100000D01*
X98100000Y-45100000D02*
X96500000Y-45100000D01*
X98100000Y-46100000D02*
X98100000Y-45100000D01*
X96500000Y-46100000D02*
X98100000Y-46100000D01*
X96500000Y-42500000D02*
X96500000Y-41500000D01*
X98100000Y-42500000D02*
X96500000Y-42500000D01*
X98100000Y-41500000D02*
X98100000Y-42500000D01*
X96500000Y-41500000D02*
X98100000Y-41500000D01*
X94140000Y-46860000D02*
X94140000Y-45940000D01*
X94140000Y-40740000D02*
X94140000Y-41660000D01*
X96000000Y-44300000D02*
X100360000Y-44300000D01*
X96000000Y-43300000D02*
X96000000Y-44300000D01*
X100360000Y-43300000D02*
X96000000Y-43300000D01*
X94140000Y-45940000D02*
X94140000Y-45660000D01*
X92540000Y-45940000D02*
X94140000Y-45940000D01*
X92540000Y-46860000D02*
X92540000Y-45940000D01*
X100360000Y-46860000D02*
X92540000Y-46860000D01*
X100360000Y-40740000D02*
X100360000Y-46860000D01*
X92540000Y-40740000D02*
X100360000Y-40740000D01*
X92540000Y-41660000D02*
X92540000Y-40740000D01*
X94140000Y-41660000D02*
X92540000Y-41660000D01*
X94140000Y-41940000D02*
X94140000Y-41660000D01*
X148321267Y-61910000D02*
X147978733Y-61910000D01*
X148321267Y-60890000D02*
X147978733Y-60890000D01*
X148321267Y-63460000D02*
X147978733Y-63460000D01*
X148321267Y-62440000D02*
X147978733Y-62440000D01*
D10*
X157066666Y-58616666D02*
X157566666Y-58616666D01*
X157666666Y-58583333D01*
X157733333Y-58516666D01*
X157766666Y-58416666D01*
X157766666Y-58350000D01*
X157066666Y-58883333D02*
X157066666Y-59316666D01*
X157333333Y-59083333D01*
X157333333Y-59183333D01*
X157366666Y-59250000D01*
X157400000Y-59283333D01*
X157466666Y-59316666D01*
X157633333Y-59316666D01*
X157700000Y-59283333D01*
X157733333Y-59250000D01*
X157766666Y-59183333D01*
X157766666Y-58983333D01*
X157733333Y-58916666D01*
X157700000Y-58883333D01*
X102832380Y-57891904D02*
X101832380Y-57891904D01*
X101832380Y-58130000D01*
X101880000Y-58272857D01*
X101975238Y-58368095D01*
X102070476Y-58415714D01*
X102260952Y-58463333D01*
X102403809Y-58463333D01*
X102594285Y-58415714D01*
X102689523Y-58368095D01*
X102784761Y-58272857D01*
X102832380Y-58130000D01*
X102832380Y-57891904D01*
X102832380Y-59415714D02*
X102832380Y-58844285D01*
X102832380Y-59130000D02*
X101832380Y-59130000D01*
X101975238Y-59034761D01*
X102070476Y-58939523D01*
X102118095Y-58844285D01*
X109216666Y-65052380D02*
X109550000Y-64576190D01*
X109788095Y-65052380D02*
X109788095Y-64052380D01*
X109407142Y-64052380D01*
X109311904Y-64100000D01*
X109264285Y-64147619D01*
X109216666Y-64242857D01*
X109216666Y-64385714D01*
X109264285Y-64480952D01*
X109311904Y-64528571D01*
X109407142Y-64576190D01*
X109788095Y-64576190D01*
X108835714Y-64147619D02*
X108788095Y-64100000D01*
X108692857Y-64052380D01*
X108454761Y-64052380D01*
X108359523Y-64100000D01*
X108311904Y-64147619D01*
X108264285Y-64242857D01*
X108264285Y-64338095D01*
X108311904Y-64480952D01*
X108883333Y-65052380D01*
X108264285Y-65052380D01*
X114616666Y-67782380D02*
X114950000Y-67306190D01*
X115188095Y-67782380D02*
X115188095Y-66782380D01*
X114807142Y-66782380D01*
X114711904Y-66830000D01*
X114664285Y-66877619D01*
X114616666Y-66972857D01*
X114616666Y-67115714D01*
X114664285Y-67210952D01*
X114711904Y-67258571D01*
X114807142Y-67306190D01*
X115188095Y-67306190D01*
X113664285Y-67782380D02*
X114235714Y-67782380D01*
X113950000Y-67782380D02*
X113950000Y-66782380D01*
X114045238Y-66925238D01*
X114140476Y-67020476D01*
X114235714Y-67068095D01*
X136473620Y-50085555D02*
X137283144Y-50085555D01*
X137378382Y-50133174D01*
X137426001Y-50180793D01*
X137473620Y-50276031D01*
X137473620Y-50466507D01*
X137426001Y-50561745D01*
X137378382Y-50609364D01*
X137283144Y-50656983D01*
X136473620Y-50656983D01*
X136473620Y-51037936D02*
X136473620Y-51656983D01*
X136854573Y-51323650D01*
X136854573Y-51466507D01*
X136902192Y-51561745D01*
X136949811Y-51609364D01*
X137045049Y-51656983D01*
X137283144Y-51656983D01*
X137378382Y-51609364D01*
X137426001Y-51561745D01*
X137473620Y-51466507D01*
X137473620Y-51180793D01*
X137426001Y-51085555D01*
X137378382Y-51037936D01*
X86852380Y-50038095D02*
X87661904Y-50038095D01*
X87757142Y-50085714D01*
X87804761Y-50133333D01*
X87852380Y-50228571D01*
X87852380Y-50419047D01*
X87804761Y-50514285D01*
X87757142Y-50561904D01*
X87661904Y-50609523D01*
X86852380Y-50609523D01*
X86947619Y-51038095D02*
X86900000Y-51085714D01*
X86852380Y-51180952D01*
X86852380Y-51419047D01*
X86900000Y-51514285D01*
X86947619Y-51561904D01*
X87042857Y-51609523D01*
X87138095Y-51609523D01*
X87280952Y-51561904D01*
X87852380Y-50990476D01*
X87852380Y-51609523D01*
X91802380Y-43466666D02*
X92516666Y-43466666D01*
X92659523Y-43419047D01*
X92754761Y-43323809D01*
X92802380Y-43180952D01*
X92802380Y-43085714D01*
X92135714Y-44371428D02*
X92802380Y-44371428D01*
X91754761Y-44133333D02*
X92469047Y-43895238D01*
X92469047Y-44514285D01*
X150807142Y-60947619D02*
X150854761Y-60900000D01*
X150902380Y-60757142D01*
X150902380Y-60661904D01*
X150854761Y-60519047D01*
X150759523Y-60423809D01*
X150664285Y-60376190D01*
X150473809Y-60328571D01*
X150330952Y-60328571D01*
X150140476Y-60376190D01*
X150045238Y-60423809D01*
X149950000Y-60519047D01*
X149902380Y-60661904D01*
X149902380Y-60757142D01*
X149950000Y-60900000D01*
X149997619Y-60947619D01*
X150235714Y-61233333D02*
X150235714Y-61614285D01*
X149902380Y-61376190D02*
X150759523Y-61376190D01*
X150854761Y-61423809D01*
X150902380Y-61519047D01*
X150902380Y-61614285D01*
X149997619Y-61900000D02*
X149950000Y-61947619D01*
X149902380Y-62042857D01*
X149902380Y-62280952D01*
X149950000Y-62376190D01*
X149997619Y-62423809D01*
X150092857Y-62471428D01*
X150188095Y-62471428D01*
X150330952Y-62423809D01*
X150902380Y-61852380D01*
X150902380Y-62471428D01*
X148602380Y-64707142D02*
X148650000Y-64754761D01*
X148792857Y-64802380D01*
X148888095Y-64802380D01*
X149030952Y-64754761D01*
X149126190Y-64659523D01*
X149173809Y-64564285D01*
X149221428Y-64373809D01*
X149221428Y-64230952D01*
X149173809Y-64040476D01*
X149126190Y-63945238D01*
X149030952Y-63850000D01*
X148888095Y-63802380D01*
X148792857Y-63802380D01*
X148650000Y-63850000D01*
X148602380Y-63897619D01*
X148316666Y-64135714D02*
X147935714Y-64135714D01*
X148173809Y-63802380D02*
X148173809Y-64659523D01*
X148126190Y-64754761D01*
X148030952Y-64802380D01*
X147935714Y-64802380D01*
X147078571Y-64802380D02*
X147650000Y-64802380D01*
X147364285Y-64802380D02*
X147364285Y-63802380D01*
X147459523Y-63945238D01*
X147554761Y-64040476D01*
X147650000Y-64088095D01*
M02*
