G04 #@! TF.GenerationSoftware,KiCad,Pcbnew,6.0.0-unknown-da645c5~86~ubuntu18.04.1*
G04 #@! TF.CreationDate,2019-07-12T17:15:13-04:00*
G04 #@! TF.ProjectId,Femtosat,46656d74-6f73-4617-942e-6b696361645f,rev?*
G04 #@! TF.SameCoordinates,Original*
G04 #@! TF.FileFunction,Soldermask,Bot*
G04 #@! TF.FilePolarity,Negative*
%FSLAX46Y46*%
G04 Gerber Fmt 4.6, Leading zero omitted, Abs format (unit mm)*
G04 Created by KiCad (PCBNEW 6.0.0-unknown-da645c5~86~ubuntu18.04.1) date 2019-07-12 17:15:13*
%MOMM*%
%LPD*%
G04 APERTURE LIST*
%ADD10C,0.100000*%
G04 APERTURE END LIST*
D10*
G36*
X97099902Y-67699283D02*
G01*
X97144637Y-67699595D01*
X97188460Y-67708590D01*
X97238360Y-67713835D01*
X97280132Y-67727408D01*
X97317723Y-67735124D01*
X97364851Y-67754935D01*
X97418488Y-67772363D01*
X97451099Y-67791191D01*
X97480614Y-67803598D01*
X97528301Y-67835763D01*
X97582511Y-67867061D01*
X97605826Y-67888054D01*
X97627101Y-67902404D01*
X97672183Y-67947802D01*
X97723261Y-67993793D01*
X97738003Y-68014083D01*
X97751608Y-68027784D01*
X97790643Y-68086537D01*
X97834586Y-68147019D01*
X97842221Y-68164168D01*
X97849388Y-68174955D01*
X97878865Y-68246472D01*
X97911621Y-68320042D01*
X97914211Y-68332225D01*
X97916724Y-68338323D01*
X97933292Y-68421997D01*
X97950999Y-68505301D01*
X97950999Y-68694699D01*
X97948115Y-68708269D01*
X97948030Y-68714331D01*
X97929342Y-68796585D01*
X97911621Y-68879958D01*
X97909129Y-68885555D01*
X97909078Y-68885780D01*
X97837210Y-69047197D01*
X97837078Y-69047385D01*
X97834586Y-69052981D01*
X97784480Y-69121946D01*
X97735357Y-69191582D01*
X97730585Y-69196126D01*
X97723261Y-69206207D01*
X97663396Y-69260110D01*
X97607396Y-69313438D01*
X97596464Y-69320376D01*
X97582511Y-69332939D01*
X97517764Y-69370321D01*
X97458211Y-69408114D01*
X97440209Y-69415097D01*
X97418488Y-69427637D01*
X97353115Y-69448878D01*
X97293468Y-69472014D01*
X97268200Y-69476469D01*
X97238360Y-69486165D01*
X97176095Y-69492709D01*
X97119460Y-69502695D01*
X97087459Y-69502025D01*
X97050000Y-69505962D01*
X96993902Y-69500066D01*
X96942799Y-69498996D01*
X96905323Y-69490756D01*
X96861640Y-69486165D01*
X96813917Y-69470659D01*
X96770225Y-69461052D01*
X96729230Y-69443142D01*
X96681512Y-69427637D01*
X96643473Y-69405675D01*
X96608310Y-69390313D01*
X96566337Y-69361141D01*
X96517489Y-69332939D01*
X96489504Y-69307741D01*
X96463215Y-69289470D01*
X96423257Y-69248092D01*
X96376739Y-69206207D01*
X96358296Y-69180823D01*
X96340473Y-69162366D01*
X96305821Y-69108597D01*
X96265414Y-69052981D01*
X96255212Y-69030066D01*
X96244754Y-69013839D01*
X96218789Y-68948261D01*
X96188379Y-68879958D01*
X96184476Y-68861596D01*
X96179707Y-68849551D01*
X96165740Y-68773448D01*
X96149001Y-68694699D01*
X96149001Y-68682246D01*
X96147811Y-68675762D01*
X96149001Y-68590535D01*
X96149001Y-68505301D01*
X96150275Y-68499308D01*
X96150278Y-68499077D01*
X96187015Y-68326246D01*
X96187105Y-68326036D01*
X96188379Y-68320042D01*
X96223042Y-68242188D01*
X96256622Y-68163839D01*
X96260348Y-68158397D01*
X96265414Y-68147019D01*
X96312746Y-68081872D01*
X96356452Y-68018041D01*
X96365706Y-68008979D01*
X96376739Y-67993793D01*
X96432297Y-67943769D01*
X96482693Y-67894417D01*
X96498848Y-67883846D01*
X96517489Y-67867061D01*
X96577026Y-67832687D01*
X96630551Y-67797662D01*
X96654340Y-67788050D01*
X96681512Y-67772363D01*
X96741045Y-67753019D01*
X96794376Y-67731472D01*
X96825820Y-67725474D01*
X96861640Y-67713835D01*
X96917744Y-67707938D01*
X96967945Y-67698362D01*
X97006312Y-67698630D01*
X97050000Y-67694038D01*
X97099902Y-67699283D01*
X97099902Y-67699283D01*
G37*
G36*
X103599902Y-67699283D02*
G01*
X103644637Y-67699595D01*
X103688460Y-67708590D01*
X103738360Y-67713835D01*
X103780132Y-67727408D01*
X103817723Y-67735124D01*
X103864851Y-67754935D01*
X103918488Y-67772363D01*
X103951099Y-67791191D01*
X103980614Y-67803598D01*
X104028301Y-67835763D01*
X104082511Y-67867061D01*
X104105826Y-67888054D01*
X104127101Y-67902404D01*
X104172183Y-67947802D01*
X104223261Y-67993793D01*
X104238003Y-68014083D01*
X104251608Y-68027784D01*
X104290643Y-68086537D01*
X104334586Y-68147019D01*
X104342221Y-68164168D01*
X104349388Y-68174955D01*
X104378865Y-68246472D01*
X104411621Y-68320042D01*
X104414211Y-68332225D01*
X104416724Y-68338323D01*
X104433292Y-68421997D01*
X104450999Y-68505301D01*
X104450999Y-68694699D01*
X104448115Y-68708269D01*
X104448030Y-68714331D01*
X104429342Y-68796585D01*
X104411621Y-68879958D01*
X104409129Y-68885555D01*
X104409078Y-68885780D01*
X104337210Y-69047197D01*
X104337078Y-69047385D01*
X104334586Y-69052981D01*
X104284480Y-69121946D01*
X104235357Y-69191582D01*
X104230585Y-69196126D01*
X104223261Y-69206207D01*
X104163396Y-69260110D01*
X104107396Y-69313438D01*
X104096464Y-69320376D01*
X104082511Y-69332939D01*
X104017764Y-69370321D01*
X103958211Y-69408114D01*
X103940209Y-69415097D01*
X103918488Y-69427637D01*
X103853115Y-69448878D01*
X103793468Y-69472014D01*
X103768200Y-69476469D01*
X103738360Y-69486165D01*
X103676095Y-69492709D01*
X103619460Y-69502695D01*
X103587459Y-69502025D01*
X103550000Y-69505962D01*
X103493902Y-69500066D01*
X103442799Y-69498996D01*
X103405323Y-69490756D01*
X103361640Y-69486165D01*
X103313917Y-69470659D01*
X103270225Y-69461052D01*
X103229230Y-69443142D01*
X103181512Y-69427637D01*
X103143473Y-69405675D01*
X103108310Y-69390313D01*
X103066337Y-69361141D01*
X103017489Y-69332939D01*
X102989504Y-69307741D01*
X102963215Y-69289470D01*
X102923257Y-69248092D01*
X102876739Y-69206207D01*
X102858296Y-69180823D01*
X102840473Y-69162366D01*
X102805821Y-69108597D01*
X102765414Y-69052981D01*
X102755212Y-69030066D01*
X102744754Y-69013839D01*
X102718789Y-68948261D01*
X102688379Y-68879958D01*
X102684476Y-68861596D01*
X102679707Y-68849551D01*
X102665740Y-68773448D01*
X102649001Y-68694699D01*
X102649001Y-68682246D01*
X102647811Y-68675762D01*
X102649001Y-68590535D01*
X102649001Y-68505301D01*
X102650275Y-68499308D01*
X102650278Y-68499077D01*
X102687015Y-68326246D01*
X102687105Y-68326036D01*
X102688379Y-68320042D01*
X102723042Y-68242188D01*
X102756622Y-68163839D01*
X102760348Y-68158397D01*
X102765414Y-68147019D01*
X102812746Y-68081872D01*
X102856452Y-68018041D01*
X102865706Y-68008979D01*
X102876739Y-67993793D01*
X102932297Y-67943769D01*
X102982693Y-67894417D01*
X102998848Y-67883846D01*
X103017489Y-67867061D01*
X103077026Y-67832687D01*
X103130551Y-67797662D01*
X103154340Y-67788050D01*
X103181512Y-67772363D01*
X103241045Y-67753019D01*
X103294376Y-67731472D01*
X103325820Y-67725474D01*
X103361640Y-67713835D01*
X103417744Y-67707938D01*
X103467945Y-67698362D01*
X103506312Y-67698630D01*
X103550000Y-67694038D01*
X103599902Y-67699283D01*
X103599902Y-67699283D01*
G37*
G36*
X108619899Y-67701959D02*
G01*
X108636769Y-67713231D01*
X108648041Y-67730101D01*
X108654448Y-67762312D01*
X108654448Y-69437688D01*
X108651999Y-69450000D01*
X108648041Y-69469899D01*
X108636769Y-69486769D01*
X108619899Y-69498041D01*
X108600000Y-69501999D01*
X108587688Y-69504448D01*
X106912312Y-69504448D01*
X106880101Y-69498041D01*
X106863231Y-69486769D01*
X106851959Y-69469899D01*
X106845552Y-69437688D01*
X106845552Y-67762312D01*
X106851959Y-67730101D01*
X106863231Y-67713231D01*
X106880101Y-67701959D01*
X106912312Y-67695552D01*
X108587688Y-67695552D01*
X108619899Y-67701959D01*
X108619899Y-67701959D01*
G37*
G36*
X113018360Y-67713835D02*
G01*
X113099397Y-67740166D01*
X113186663Y-67767848D01*
X113189655Y-67769493D01*
X113198488Y-67772363D01*
X113270466Y-67813919D01*
X113341499Y-67852970D01*
X113348986Y-67859253D01*
X113362511Y-67867061D01*
X113420259Y-67919057D01*
X113476857Y-67966549D01*
X113486962Y-67979118D01*
X113503261Y-67993793D01*
X113545454Y-68051867D01*
X113587579Y-68104260D01*
X113597994Y-68124182D01*
X113614586Y-68147019D01*
X113641297Y-68207012D01*
X113669439Y-68260843D01*
X113677582Y-68288510D01*
X113691621Y-68320042D01*
X113703992Y-68378241D01*
X113719328Y-68430349D01*
X113722518Y-68465401D01*
X113730999Y-68505301D01*
X113730999Y-68558592D01*
X113735343Y-68606324D01*
X113730999Y-68647653D01*
X113730999Y-68694699D01*
X113721217Y-68740721D01*
X113716873Y-68782047D01*
X113702702Y-68827827D01*
X113691621Y-68879958D01*
X113675028Y-68917226D01*
X113664622Y-68950843D01*
X113638789Y-68998620D01*
X113614586Y-69052981D01*
X113594298Y-69080905D01*
X113580580Y-69106276D01*
X113541859Y-69153082D01*
X113503261Y-69206207D01*
X113482284Y-69225095D01*
X113467952Y-69242419D01*
X113415845Y-69284917D01*
X113362511Y-69332939D01*
X113343524Y-69343901D01*
X113331025Y-69354095D01*
X113265780Y-69388786D01*
X113198488Y-69427637D01*
X113183636Y-69432463D01*
X113175003Y-69437053D01*
X113097430Y-69460473D01*
X113018360Y-69486165D01*
X113009114Y-69487137D01*
X113005851Y-69488122D01*
X112914710Y-69497059D01*
X112877211Y-69501000D01*
X112782789Y-69501000D01*
X112641640Y-69486165D01*
X112560603Y-69459834D01*
X112473337Y-69432152D01*
X112470345Y-69430507D01*
X112461512Y-69427637D01*
X112389534Y-69386081D01*
X112318501Y-69347030D01*
X112311014Y-69340747D01*
X112297489Y-69332939D01*
X112239741Y-69280943D01*
X112183143Y-69233451D01*
X112173038Y-69220882D01*
X112156739Y-69206207D01*
X112114546Y-69148133D01*
X112072421Y-69095740D01*
X112062006Y-69075818D01*
X112045414Y-69052981D01*
X112018703Y-68992988D01*
X111990561Y-68939157D01*
X111982418Y-68911490D01*
X111968379Y-68879958D01*
X111956008Y-68821759D01*
X111940672Y-68769651D01*
X111937482Y-68734599D01*
X111929001Y-68694699D01*
X111929001Y-68641408D01*
X111924657Y-68593676D01*
X111929001Y-68552347D01*
X111929001Y-68505301D01*
X111938783Y-68459279D01*
X111943127Y-68417953D01*
X111957298Y-68372173D01*
X111968379Y-68320042D01*
X111984972Y-68282774D01*
X111995378Y-68249157D01*
X112021211Y-68201380D01*
X112045414Y-68147019D01*
X112065702Y-68119095D01*
X112079420Y-68093724D01*
X112118141Y-68046918D01*
X112156739Y-67993793D01*
X112177716Y-67974905D01*
X112192048Y-67957581D01*
X112244155Y-67915083D01*
X112297489Y-67867061D01*
X112316476Y-67856099D01*
X112328975Y-67845905D01*
X112394220Y-67811214D01*
X112461512Y-67772363D01*
X112476364Y-67767537D01*
X112484997Y-67762947D01*
X112562570Y-67739527D01*
X112641640Y-67713835D01*
X112650886Y-67712863D01*
X112654149Y-67711878D01*
X112745290Y-67702941D01*
X112782789Y-67699000D01*
X112877211Y-67699000D01*
X113018360Y-67713835D01*
X113018360Y-67713835D01*
G37*
G36*
X118098360Y-67713835D02*
G01*
X118179397Y-67740166D01*
X118266663Y-67767848D01*
X118269655Y-67769493D01*
X118278488Y-67772363D01*
X118350466Y-67813919D01*
X118421499Y-67852970D01*
X118428986Y-67859253D01*
X118442511Y-67867061D01*
X118500259Y-67919057D01*
X118556857Y-67966549D01*
X118566962Y-67979118D01*
X118583261Y-67993793D01*
X118625454Y-68051867D01*
X118667579Y-68104260D01*
X118677994Y-68124182D01*
X118694586Y-68147019D01*
X118721297Y-68207012D01*
X118749439Y-68260843D01*
X118757582Y-68288510D01*
X118771621Y-68320042D01*
X118783992Y-68378241D01*
X118799328Y-68430349D01*
X118802518Y-68465401D01*
X118810999Y-68505301D01*
X118810999Y-68558592D01*
X118815343Y-68606324D01*
X118810999Y-68647653D01*
X118810999Y-68694699D01*
X118801217Y-68740721D01*
X118796873Y-68782047D01*
X118782702Y-68827827D01*
X118771621Y-68879958D01*
X118755028Y-68917226D01*
X118744622Y-68950843D01*
X118718789Y-68998620D01*
X118694586Y-69052981D01*
X118674298Y-69080905D01*
X118660580Y-69106276D01*
X118621859Y-69153082D01*
X118583261Y-69206207D01*
X118562284Y-69225095D01*
X118547952Y-69242419D01*
X118495845Y-69284917D01*
X118442511Y-69332939D01*
X118423524Y-69343901D01*
X118411025Y-69354095D01*
X118345780Y-69388786D01*
X118278488Y-69427637D01*
X118263636Y-69432463D01*
X118255003Y-69437053D01*
X118177430Y-69460473D01*
X118098360Y-69486165D01*
X118089114Y-69487137D01*
X118085851Y-69488122D01*
X117994710Y-69497059D01*
X117957211Y-69501000D01*
X117862789Y-69501000D01*
X117721640Y-69486165D01*
X117640603Y-69459834D01*
X117553337Y-69432152D01*
X117550345Y-69430507D01*
X117541512Y-69427637D01*
X117469534Y-69386081D01*
X117398501Y-69347030D01*
X117391014Y-69340747D01*
X117377489Y-69332939D01*
X117319741Y-69280943D01*
X117263143Y-69233451D01*
X117253038Y-69220882D01*
X117236739Y-69206207D01*
X117194546Y-69148133D01*
X117152421Y-69095740D01*
X117142006Y-69075818D01*
X117125414Y-69052981D01*
X117098703Y-68992988D01*
X117070561Y-68939157D01*
X117062418Y-68911490D01*
X117048379Y-68879958D01*
X117036008Y-68821759D01*
X117020672Y-68769651D01*
X117017482Y-68734599D01*
X117009001Y-68694699D01*
X117009001Y-68641408D01*
X117004657Y-68593676D01*
X117009001Y-68552347D01*
X117009001Y-68505301D01*
X117018783Y-68459279D01*
X117023127Y-68417953D01*
X117037298Y-68372173D01*
X117048379Y-68320042D01*
X117064972Y-68282774D01*
X117075378Y-68249157D01*
X117101211Y-68201380D01*
X117125414Y-68147019D01*
X117145702Y-68119095D01*
X117159420Y-68093724D01*
X117198141Y-68046918D01*
X117236739Y-67993793D01*
X117257716Y-67974905D01*
X117272048Y-67957581D01*
X117324155Y-67915083D01*
X117377489Y-67867061D01*
X117396476Y-67856099D01*
X117408975Y-67845905D01*
X117474220Y-67811214D01*
X117541512Y-67772363D01*
X117556364Y-67767537D01*
X117564997Y-67762947D01*
X117642570Y-67739527D01*
X117721640Y-67713835D01*
X117730886Y-67712863D01*
X117734149Y-67711878D01*
X117825290Y-67702941D01*
X117862789Y-67699000D01*
X117957211Y-67699000D01*
X118098360Y-67713835D01*
X118098360Y-67713835D01*
G37*
G36*
X115558360Y-67713835D02*
G01*
X115639397Y-67740166D01*
X115726663Y-67767848D01*
X115729655Y-67769493D01*
X115738488Y-67772363D01*
X115810466Y-67813919D01*
X115881499Y-67852970D01*
X115888986Y-67859253D01*
X115902511Y-67867061D01*
X115960259Y-67919057D01*
X116016857Y-67966549D01*
X116026962Y-67979118D01*
X116043261Y-67993793D01*
X116085454Y-68051867D01*
X116127579Y-68104260D01*
X116137994Y-68124182D01*
X116154586Y-68147019D01*
X116181297Y-68207012D01*
X116209439Y-68260843D01*
X116217582Y-68288510D01*
X116231621Y-68320042D01*
X116243992Y-68378241D01*
X116259328Y-68430349D01*
X116262518Y-68465401D01*
X116270999Y-68505301D01*
X116270999Y-68558592D01*
X116275343Y-68606324D01*
X116270999Y-68647653D01*
X116270999Y-68694699D01*
X116261217Y-68740721D01*
X116256873Y-68782047D01*
X116242702Y-68827827D01*
X116231621Y-68879958D01*
X116215028Y-68917226D01*
X116204622Y-68950843D01*
X116178789Y-68998620D01*
X116154586Y-69052981D01*
X116134298Y-69080905D01*
X116120580Y-69106276D01*
X116081859Y-69153082D01*
X116043261Y-69206207D01*
X116022284Y-69225095D01*
X116007952Y-69242419D01*
X115955845Y-69284917D01*
X115902511Y-69332939D01*
X115883524Y-69343901D01*
X115871025Y-69354095D01*
X115805780Y-69388786D01*
X115738488Y-69427637D01*
X115723636Y-69432463D01*
X115715003Y-69437053D01*
X115637430Y-69460473D01*
X115558360Y-69486165D01*
X115549114Y-69487137D01*
X115545851Y-69488122D01*
X115454710Y-69497059D01*
X115417211Y-69501000D01*
X115322789Y-69501000D01*
X115181640Y-69486165D01*
X115100603Y-69459834D01*
X115013337Y-69432152D01*
X115010345Y-69430507D01*
X115001512Y-69427637D01*
X114929534Y-69386081D01*
X114858501Y-69347030D01*
X114851014Y-69340747D01*
X114837489Y-69332939D01*
X114779741Y-69280943D01*
X114723143Y-69233451D01*
X114713038Y-69220882D01*
X114696739Y-69206207D01*
X114654546Y-69148133D01*
X114612421Y-69095740D01*
X114602006Y-69075818D01*
X114585414Y-69052981D01*
X114558703Y-68992988D01*
X114530561Y-68939157D01*
X114522418Y-68911490D01*
X114508379Y-68879958D01*
X114496008Y-68821759D01*
X114480672Y-68769651D01*
X114477482Y-68734599D01*
X114469001Y-68694699D01*
X114469001Y-68641408D01*
X114464657Y-68593676D01*
X114469001Y-68552347D01*
X114469001Y-68505301D01*
X114478783Y-68459279D01*
X114483127Y-68417953D01*
X114497298Y-68372173D01*
X114508379Y-68320042D01*
X114524972Y-68282774D01*
X114535378Y-68249157D01*
X114561211Y-68201380D01*
X114585414Y-68147019D01*
X114605702Y-68119095D01*
X114619420Y-68093724D01*
X114658141Y-68046918D01*
X114696739Y-67993793D01*
X114717716Y-67974905D01*
X114732048Y-67957581D01*
X114784155Y-67915083D01*
X114837489Y-67867061D01*
X114856476Y-67856099D01*
X114868975Y-67845905D01*
X114934220Y-67811214D01*
X115001512Y-67772363D01*
X115016364Y-67767537D01*
X115024997Y-67762947D01*
X115102570Y-67739527D01*
X115181640Y-67713835D01*
X115190886Y-67712863D01*
X115194149Y-67711878D01*
X115285290Y-67702941D01*
X115322789Y-67699000D01*
X115417211Y-67699000D01*
X115558360Y-67713835D01*
X115558360Y-67713835D01*
G37*
G36*
X110478360Y-67713835D02*
G01*
X110559397Y-67740166D01*
X110646663Y-67767848D01*
X110649655Y-67769493D01*
X110658488Y-67772363D01*
X110730466Y-67813919D01*
X110801499Y-67852970D01*
X110808986Y-67859253D01*
X110822511Y-67867061D01*
X110880259Y-67919057D01*
X110936857Y-67966549D01*
X110946962Y-67979118D01*
X110963261Y-67993793D01*
X111005454Y-68051867D01*
X111047579Y-68104260D01*
X111057994Y-68124182D01*
X111074586Y-68147019D01*
X111101297Y-68207012D01*
X111129439Y-68260843D01*
X111137582Y-68288510D01*
X111151621Y-68320042D01*
X111163992Y-68378241D01*
X111179328Y-68430349D01*
X111182518Y-68465401D01*
X111190999Y-68505301D01*
X111190999Y-68558592D01*
X111195343Y-68606324D01*
X111190999Y-68647653D01*
X111190999Y-68694699D01*
X111181217Y-68740721D01*
X111176873Y-68782047D01*
X111162702Y-68827827D01*
X111151621Y-68879958D01*
X111135028Y-68917226D01*
X111124622Y-68950843D01*
X111098789Y-68998620D01*
X111074586Y-69052981D01*
X111054298Y-69080905D01*
X111040580Y-69106276D01*
X111001859Y-69153082D01*
X110963261Y-69206207D01*
X110942284Y-69225095D01*
X110927952Y-69242419D01*
X110875845Y-69284917D01*
X110822511Y-69332939D01*
X110803524Y-69343901D01*
X110791025Y-69354095D01*
X110725780Y-69388786D01*
X110658488Y-69427637D01*
X110643636Y-69432463D01*
X110635003Y-69437053D01*
X110557430Y-69460473D01*
X110478360Y-69486165D01*
X110469114Y-69487137D01*
X110465851Y-69488122D01*
X110374710Y-69497059D01*
X110337211Y-69501000D01*
X110242789Y-69501000D01*
X110101640Y-69486165D01*
X110020603Y-69459834D01*
X109933337Y-69432152D01*
X109930345Y-69430507D01*
X109921512Y-69427637D01*
X109849534Y-69386081D01*
X109778501Y-69347030D01*
X109771014Y-69340747D01*
X109757489Y-69332939D01*
X109699741Y-69280943D01*
X109643143Y-69233451D01*
X109633038Y-69220882D01*
X109616739Y-69206207D01*
X109574546Y-69148133D01*
X109532421Y-69095740D01*
X109522006Y-69075818D01*
X109505414Y-69052981D01*
X109478703Y-68992988D01*
X109450561Y-68939157D01*
X109442418Y-68911490D01*
X109428379Y-68879958D01*
X109416008Y-68821759D01*
X109400672Y-68769651D01*
X109397482Y-68734599D01*
X109389001Y-68694699D01*
X109389001Y-68641408D01*
X109384657Y-68593676D01*
X109389001Y-68552347D01*
X109389001Y-68505301D01*
X109398783Y-68459279D01*
X109403127Y-68417953D01*
X109417298Y-68372173D01*
X109428379Y-68320042D01*
X109444972Y-68282774D01*
X109455378Y-68249157D01*
X109481211Y-68201380D01*
X109505414Y-68147019D01*
X109525702Y-68119095D01*
X109539420Y-68093724D01*
X109578141Y-68046918D01*
X109616739Y-67993793D01*
X109637716Y-67974905D01*
X109652048Y-67957581D01*
X109704155Y-67915083D01*
X109757489Y-67867061D01*
X109776476Y-67856099D01*
X109788975Y-67845905D01*
X109854220Y-67811214D01*
X109921512Y-67772363D01*
X109936364Y-67767537D01*
X109944997Y-67762947D01*
X110022570Y-67739527D01*
X110101640Y-67713835D01*
X110110886Y-67712863D01*
X110114149Y-67711878D01*
X110205290Y-67702941D01*
X110242789Y-67699000D01*
X110337211Y-67699000D01*
X110478360Y-67713835D01*
X110478360Y-67713835D01*
G37*
G36*
X166601864Y-63877535D02*
G01*
X166656487Y-63876581D01*
X166760543Y-63887518D01*
X166865357Y-63894112D01*
X166916983Y-63903960D01*
X166966836Y-63909200D01*
X167073308Y-63933781D01*
X167180662Y-63954260D01*
X167226442Y-63969135D01*
X167270897Y-63979398D01*
X167377958Y-64018365D01*
X167485942Y-64053451D01*
X167525504Y-64072067D01*
X167564146Y-64086132D01*
X167669869Y-64140001D01*
X167776383Y-64190122D01*
X167809555Y-64211174D01*
X167842194Y-64227804D01*
X167944555Y-64296848D01*
X168047404Y-64362118D01*
X168074261Y-64384336D01*
X168100901Y-64402305D01*
X168197757Y-64486500D01*
X168294732Y-64566725D01*
X168315562Y-64588907D01*
X168336422Y-64607040D01*
X168425665Y-64706155D01*
X168514465Y-64800717D01*
X168529741Y-64821743D01*
X168545229Y-64838944D01*
X168624764Y-64952531D01*
X168703138Y-65060404D01*
X168713516Y-65079281D01*
X168724222Y-65094571D01*
X168791989Y-65222023D01*
X168857777Y-65341690D01*
X168864075Y-65357598D01*
X168870725Y-65370104D01*
X168924764Y-65510879D01*
X168975941Y-65640139D01*
X168979091Y-65652406D01*
X168982560Y-65661444D01*
X169021111Y-65816066D01*
X169055768Y-65951045D01*
X169056798Y-65959199D01*
X169058054Y-65964236D01*
X169079511Y-66138992D01*
X169095999Y-66269505D01*
X169095999Y-66590495D01*
X169085345Y-66674834D01*
X169084137Y-66720948D01*
X169067851Y-66813311D01*
X169055768Y-66908955D01*
X169040501Y-66968415D01*
X169030232Y-67026654D01*
X169000992Y-67122294D01*
X168975941Y-67219861D01*
X168954966Y-67272837D01*
X168938995Y-67325077D01*
X168896441Y-67420656D01*
X168857777Y-67518310D01*
X168832458Y-67564365D01*
X168812068Y-67610162D01*
X168755781Y-67703839D01*
X168703138Y-67799596D01*
X168674849Y-67838533D01*
X168651343Y-67877653D01*
X168581181Y-67967456D01*
X168514465Y-68059283D01*
X168484542Y-68091148D01*
X168459225Y-68123552D01*
X168375327Y-68207450D01*
X168294732Y-68293275D01*
X168264454Y-68318323D01*
X168238552Y-68344225D01*
X168141253Y-68420244D01*
X168047404Y-68497882D01*
X168017981Y-68516554D01*
X167992653Y-68536343D01*
X167882621Y-68602457D01*
X167776383Y-68669878D01*
X167748856Y-68682831D01*
X167725162Y-68697068D01*
X167603322Y-68751314D01*
X167485942Y-68806549D01*
X167461220Y-68814582D01*
X167440077Y-68823995D01*
X167307511Y-68864524D01*
X167180662Y-68905740D01*
X167159492Y-68909778D01*
X167141654Y-68915232D01*
X166999551Y-68940289D01*
X166865357Y-68965888D01*
X166848281Y-68966962D01*
X166834332Y-68969422D01*
X166683751Y-68977314D01*
X166545000Y-68986043D01*
X166532359Y-68985248D01*
X166522698Y-68985754D01*
X166363827Y-68974645D01*
X166224643Y-68965888D01*
X166216565Y-68964347D01*
X166211387Y-68963985D01*
X166038581Y-68930394D01*
X165909338Y-68905740D01*
X165905753Y-68904575D01*
X165905068Y-68904442D01*
X165608274Y-68808008D01*
X165607644Y-68807714D01*
X165604058Y-68806549D01*
X165484856Y-68750457D01*
X165325454Y-68676126D01*
X165321061Y-68673381D01*
X165313617Y-68669878D01*
X165195860Y-68595147D01*
X165060808Y-68510757D01*
X165053288Y-68504667D01*
X165042596Y-68497882D01*
X164935514Y-68409297D01*
X164818298Y-68314377D01*
X164808455Y-68304184D01*
X164795268Y-68293275D01*
X164701744Y-68193682D01*
X164601514Y-68089891D01*
X164590287Y-68074992D01*
X164575535Y-68059283D01*
X164497157Y-67951405D01*
X164413711Y-67840668D01*
X164402134Y-67820617D01*
X164386862Y-67799596D01*
X164324377Y-67685937D01*
X164257680Y-67570414D01*
X164246880Y-67544971D01*
X164232223Y-67518310D01*
X164185899Y-67401308D01*
X164135750Y-67283165D01*
X164126892Y-67252273D01*
X164114059Y-67219861D01*
X164083765Y-67101873D01*
X164049731Y-66983184D01*
X164044000Y-66946998D01*
X164034232Y-66908955D01*
X164019483Y-66792202D01*
X164000915Y-66674970D01*
X163999480Y-66633863D01*
X163994001Y-66590495D01*
X163994001Y-66476960D01*
X163990025Y-66363091D01*
X163994001Y-66317644D01*
X163994001Y-66269505D01*
X164007698Y-66161081D01*
X164017222Y-66052221D01*
X164027646Y-66003182D01*
X164034232Y-65951045D01*
X164060346Y-65849338D01*
X164082102Y-65746983D01*
X164099891Y-65695320D01*
X164114059Y-65640139D01*
X164151136Y-65546493D01*
X164183702Y-65451914D01*
X164209629Y-65398755D01*
X164232223Y-65341690D01*
X164278659Y-65257224D01*
X164320499Y-65171439D01*
X164355173Y-65118046D01*
X164386862Y-65060404D01*
X164440969Y-64985932D01*
X164490459Y-64909724D01*
X164534277Y-64857504D01*
X164575535Y-64800717D01*
X164635587Y-64736768D01*
X164691051Y-64670669D01*
X164744201Y-64621105D01*
X164795268Y-64566725D01*
X164859499Y-64513589D01*
X164919281Y-64457841D01*
X164981746Y-64412458D01*
X165042596Y-64362118D01*
X165109274Y-64319803D01*
X165171739Y-64274419D01*
X165243232Y-64234790D01*
X165313617Y-64190122D01*
X165381119Y-64158358D01*
X165444683Y-64123124D01*
X165524683Y-64090802D01*
X165604058Y-64053451D01*
X165670822Y-64031758D01*
X165734014Y-64006227D01*
X165821764Y-63982714D01*
X165909338Y-63954260D01*
X165973970Y-63941931D01*
X166035443Y-63925459D01*
X166129923Y-63912181D01*
X166224643Y-63894112D01*
X166285926Y-63890256D01*
X166344475Y-63882028D01*
X166444458Y-63880283D01*
X166545000Y-63873957D01*
X166601864Y-63877535D01*
X166601864Y-63877535D01*
G37*
G36*
X89121864Y-63877535D02*
G01*
X89176487Y-63876581D01*
X89280543Y-63887518D01*
X89385357Y-63894112D01*
X89436983Y-63903960D01*
X89486836Y-63909200D01*
X89593308Y-63933781D01*
X89700662Y-63954260D01*
X89746442Y-63969135D01*
X89790897Y-63979398D01*
X89897958Y-64018365D01*
X90005942Y-64053451D01*
X90045504Y-64072067D01*
X90084146Y-64086132D01*
X90189869Y-64140001D01*
X90296383Y-64190122D01*
X90329555Y-64211174D01*
X90362194Y-64227804D01*
X90464555Y-64296848D01*
X90567404Y-64362118D01*
X90594261Y-64384336D01*
X90620901Y-64402305D01*
X90717757Y-64486500D01*
X90814732Y-64566725D01*
X90835562Y-64588907D01*
X90856422Y-64607040D01*
X90945665Y-64706155D01*
X91034465Y-64800717D01*
X91049741Y-64821743D01*
X91065229Y-64838944D01*
X91144764Y-64952531D01*
X91223138Y-65060404D01*
X91233516Y-65079281D01*
X91244222Y-65094571D01*
X91311989Y-65222023D01*
X91377777Y-65341690D01*
X91384075Y-65357598D01*
X91390725Y-65370104D01*
X91444764Y-65510879D01*
X91495941Y-65640139D01*
X91499091Y-65652406D01*
X91502560Y-65661444D01*
X91541111Y-65816066D01*
X91575768Y-65951045D01*
X91576798Y-65959199D01*
X91578054Y-65964236D01*
X91599511Y-66138992D01*
X91615999Y-66269505D01*
X91615999Y-66590495D01*
X91605345Y-66674834D01*
X91604137Y-66720948D01*
X91587851Y-66813311D01*
X91575768Y-66908955D01*
X91560501Y-66968415D01*
X91550232Y-67026654D01*
X91520992Y-67122294D01*
X91495941Y-67219861D01*
X91474966Y-67272837D01*
X91458995Y-67325077D01*
X91416441Y-67420656D01*
X91377777Y-67518310D01*
X91352458Y-67564365D01*
X91332068Y-67610162D01*
X91275781Y-67703839D01*
X91223138Y-67799596D01*
X91194849Y-67838533D01*
X91171343Y-67877653D01*
X91101181Y-67967456D01*
X91034465Y-68059283D01*
X91004542Y-68091148D01*
X90979225Y-68123552D01*
X90895327Y-68207450D01*
X90814732Y-68293275D01*
X90784454Y-68318323D01*
X90758552Y-68344225D01*
X90661253Y-68420244D01*
X90567404Y-68497882D01*
X90537981Y-68516554D01*
X90512653Y-68536343D01*
X90402621Y-68602457D01*
X90296383Y-68669878D01*
X90268856Y-68682831D01*
X90245162Y-68697068D01*
X90123322Y-68751314D01*
X90005942Y-68806549D01*
X89981220Y-68814582D01*
X89960077Y-68823995D01*
X89827511Y-68864524D01*
X89700662Y-68905740D01*
X89679492Y-68909778D01*
X89661654Y-68915232D01*
X89519551Y-68940289D01*
X89385357Y-68965888D01*
X89368281Y-68966962D01*
X89354332Y-68969422D01*
X89203751Y-68977314D01*
X89065000Y-68986043D01*
X89052359Y-68985248D01*
X89042698Y-68985754D01*
X88883827Y-68974645D01*
X88744643Y-68965888D01*
X88736565Y-68964347D01*
X88731387Y-68963985D01*
X88558581Y-68930394D01*
X88429338Y-68905740D01*
X88425753Y-68904575D01*
X88425068Y-68904442D01*
X88128274Y-68808008D01*
X88127644Y-68807714D01*
X88124058Y-68806549D01*
X88004856Y-68750457D01*
X87845454Y-68676126D01*
X87841061Y-68673381D01*
X87833617Y-68669878D01*
X87715860Y-68595147D01*
X87580808Y-68510757D01*
X87573288Y-68504667D01*
X87562596Y-68497882D01*
X87455514Y-68409297D01*
X87338298Y-68314377D01*
X87328455Y-68304184D01*
X87315268Y-68293275D01*
X87221744Y-68193682D01*
X87121514Y-68089891D01*
X87110287Y-68074992D01*
X87095535Y-68059283D01*
X87017157Y-67951405D01*
X86933711Y-67840668D01*
X86922134Y-67820617D01*
X86906862Y-67799596D01*
X86844377Y-67685937D01*
X86777680Y-67570414D01*
X86766880Y-67544971D01*
X86752223Y-67518310D01*
X86705899Y-67401308D01*
X86655750Y-67283165D01*
X86646892Y-67252273D01*
X86634059Y-67219861D01*
X86603765Y-67101873D01*
X86569731Y-66983184D01*
X86564000Y-66946998D01*
X86554232Y-66908955D01*
X86539483Y-66792202D01*
X86520915Y-66674970D01*
X86519480Y-66633863D01*
X86514001Y-66590495D01*
X86514001Y-66476960D01*
X86510025Y-66363091D01*
X86514001Y-66317644D01*
X86514001Y-66269505D01*
X86527698Y-66161081D01*
X86537222Y-66052221D01*
X86547646Y-66003182D01*
X86554232Y-65951045D01*
X86580346Y-65849338D01*
X86602102Y-65746983D01*
X86619891Y-65695320D01*
X86634059Y-65640139D01*
X86671136Y-65546493D01*
X86703702Y-65451914D01*
X86729629Y-65398755D01*
X86752223Y-65341690D01*
X86798659Y-65257224D01*
X86840499Y-65171439D01*
X86875173Y-65118046D01*
X86906862Y-65060404D01*
X86960969Y-64985932D01*
X87010459Y-64909724D01*
X87054277Y-64857504D01*
X87095535Y-64800717D01*
X87155587Y-64736768D01*
X87211051Y-64670669D01*
X87264201Y-64621105D01*
X87315268Y-64566725D01*
X87379499Y-64513589D01*
X87439281Y-64457841D01*
X87501746Y-64412458D01*
X87562596Y-64362118D01*
X87629274Y-64319803D01*
X87691739Y-64274419D01*
X87763232Y-64234790D01*
X87833617Y-64190122D01*
X87901119Y-64158358D01*
X87964683Y-64123124D01*
X88044683Y-64090802D01*
X88124058Y-64053451D01*
X88190822Y-64031758D01*
X88254014Y-64006227D01*
X88341764Y-63982714D01*
X88429338Y-63954260D01*
X88493970Y-63941931D01*
X88555443Y-63925459D01*
X88649923Y-63912181D01*
X88744643Y-63894112D01*
X88805926Y-63890256D01*
X88864475Y-63882028D01*
X88964458Y-63880283D01*
X89065000Y-63873957D01*
X89121864Y-63877535D01*
X89121864Y-63877535D01*
G37*
G36*
X108457980Y-65423117D02*
G01*
X108458386Y-65423117D01*
X108460637Y-65423538D01*
X108549801Y-65437660D01*
X108557691Y-65441680D01*
X108564409Y-65442936D01*
X108584176Y-65455175D01*
X108631229Y-65479150D01*
X108644776Y-65492697D01*
X108656114Y-65499717D01*
X108669432Y-65517353D01*
X108695850Y-65543771D01*
X108709267Y-65570103D01*
X108721114Y-65585791D01*
X108724418Y-65599838D01*
X108737340Y-65625199D01*
X108751686Y-65715777D01*
X108751883Y-65716614D01*
X108751883Y-65717020D01*
X108753194Y-65725297D01*
X108753194Y-66174703D01*
X108751883Y-66182980D01*
X108751883Y-66183386D01*
X108751462Y-66185637D01*
X108737340Y-66274801D01*
X108733320Y-66282691D01*
X108732064Y-66289409D01*
X108719825Y-66309176D01*
X108695850Y-66356229D01*
X108682303Y-66369776D01*
X108675283Y-66381114D01*
X108657647Y-66394432D01*
X108631229Y-66420850D01*
X108604897Y-66434267D01*
X108589209Y-66446114D01*
X108575162Y-66449418D01*
X108549801Y-66462340D01*
X108459223Y-66476686D01*
X108458386Y-66476883D01*
X108457980Y-66476883D01*
X108449703Y-66478194D01*
X107900297Y-66478194D01*
X107892020Y-66476883D01*
X107891614Y-66476883D01*
X107889363Y-66476462D01*
X107800199Y-66462340D01*
X107792309Y-66458320D01*
X107785591Y-66457064D01*
X107765824Y-66444825D01*
X107718771Y-66420850D01*
X107705224Y-66407303D01*
X107693886Y-66400283D01*
X107680568Y-66382647D01*
X107654150Y-66356229D01*
X107640733Y-66329897D01*
X107628886Y-66314209D01*
X107625582Y-66300162D01*
X107612660Y-66274801D01*
X107598314Y-66184223D01*
X107598117Y-66183386D01*
X107598117Y-66182980D01*
X107596806Y-66174703D01*
X107596806Y-65725297D01*
X107598117Y-65717020D01*
X107598117Y-65716614D01*
X107598538Y-65714363D01*
X107612660Y-65625199D01*
X107616680Y-65617309D01*
X107617936Y-65610591D01*
X107630175Y-65590824D01*
X107654150Y-65543771D01*
X107667697Y-65530224D01*
X107674717Y-65518886D01*
X107692353Y-65505568D01*
X107718771Y-65479150D01*
X107745103Y-65465733D01*
X107760791Y-65453886D01*
X107774838Y-65450582D01*
X107800199Y-65437660D01*
X107890777Y-65423314D01*
X107891614Y-65423117D01*
X107892020Y-65423117D01*
X107900297Y-65421806D01*
X108449703Y-65421806D01*
X108457980Y-65423117D01*
X108457980Y-65423117D01*
G37*
G36*
X110207980Y-65423117D02*
G01*
X110208386Y-65423117D01*
X110210637Y-65423538D01*
X110299801Y-65437660D01*
X110307691Y-65441680D01*
X110314409Y-65442936D01*
X110334176Y-65455175D01*
X110381229Y-65479150D01*
X110394776Y-65492697D01*
X110406114Y-65499717D01*
X110419432Y-65517353D01*
X110445850Y-65543771D01*
X110459267Y-65570103D01*
X110471114Y-65585791D01*
X110474418Y-65599838D01*
X110487340Y-65625199D01*
X110501686Y-65715777D01*
X110501883Y-65716614D01*
X110501883Y-65717020D01*
X110503194Y-65725297D01*
X110503194Y-66174703D01*
X110501883Y-66182980D01*
X110501883Y-66183386D01*
X110501462Y-66185637D01*
X110487340Y-66274801D01*
X110483320Y-66282691D01*
X110482064Y-66289409D01*
X110469825Y-66309176D01*
X110445850Y-66356229D01*
X110432303Y-66369776D01*
X110425283Y-66381114D01*
X110407647Y-66394432D01*
X110381229Y-66420850D01*
X110354897Y-66434267D01*
X110339209Y-66446114D01*
X110325162Y-66449418D01*
X110299801Y-66462340D01*
X110209223Y-66476686D01*
X110208386Y-66476883D01*
X110207980Y-66476883D01*
X110199703Y-66478194D01*
X109650297Y-66478194D01*
X109642020Y-66476883D01*
X109641614Y-66476883D01*
X109639363Y-66476462D01*
X109550199Y-66462340D01*
X109542309Y-66458320D01*
X109535591Y-66457064D01*
X109515824Y-66444825D01*
X109468771Y-66420850D01*
X109455224Y-66407303D01*
X109443886Y-66400283D01*
X109430568Y-66382647D01*
X109404150Y-66356229D01*
X109390733Y-66329897D01*
X109378886Y-66314209D01*
X109375582Y-66300162D01*
X109362660Y-66274801D01*
X109348314Y-66184223D01*
X109348117Y-66183386D01*
X109348117Y-66182980D01*
X109346806Y-66174703D01*
X109346806Y-65725297D01*
X109348117Y-65717020D01*
X109348117Y-65716614D01*
X109348538Y-65714363D01*
X109362660Y-65625199D01*
X109366680Y-65617309D01*
X109367936Y-65610591D01*
X109380175Y-65590824D01*
X109404150Y-65543771D01*
X109417697Y-65530224D01*
X109424717Y-65518886D01*
X109442353Y-65505568D01*
X109468771Y-65479150D01*
X109495103Y-65465733D01*
X109510791Y-65453886D01*
X109524838Y-65450582D01*
X109550199Y-65437660D01*
X109640777Y-65423314D01*
X109641614Y-65423117D01*
X109642020Y-65423117D01*
X109650297Y-65421806D01*
X110199703Y-65421806D01*
X110207980Y-65423117D01*
X110207980Y-65423117D01*
G37*
G36*
X115607980Y-65373117D02*
G01*
X115608386Y-65373117D01*
X115610637Y-65373538D01*
X115699801Y-65387660D01*
X115707691Y-65391680D01*
X115714409Y-65392936D01*
X115734176Y-65405175D01*
X115781229Y-65429150D01*
X115794776Y-65442697D01*
X115806114Y-65449717D01*
X115819432Y-65467353D01*
X115845850Y-65493771D01*
X115859267Y-65520103D01*
X115871114Y-65535791D01*
X115874418Y-65549838D01*
X115887340Y-65575199D01*
X115901686Y-65665777D01*
X115901883Y-65666614D01*
X115901883Y-65667020D01*
X115903194Y-65675297D01*
X115903194Y-66124703D01*
X115901883Y-66132980D01*
X115901883Y-66133386D01*
X115901462Y-66135637D01*
X115887340Y-66224801D01*
X115883320Y-66232691D01*
X115882064Y-66239409D01*
X115869825Y-66259176D01*
X115845850Y-66306229D01*
X115832303Y-66319776D01*
X115825283Y-66331114D01*
X115807647Y-66344432D01*
X115781229Y-66370850D01*
X115754897Y-66384267D01*
X115739209Y-66396114D01*
X115725162Y-66399418D01*
X115699801Y-66412340D01*
X115609223Y-66426686D01*
X115608386Y-66426883D01*
X115607980Y-66426883D01*
X115599703Y-66428194D01*
X115050297Y-66428194D01*
X115042020Y-66426883D01*
X115041614Y-66426883D01*
X115039363Y-66426462D01*
X114950199Y-66412340D01*
X114942309Y-66408320D01*
X114935591Y-66407064D01*
X114915824Y-66394825D01*
X114868771Y-66370850D01*
X114855224Y-66357303D01*
X114843886Y-66350283D01*
X114830568Y-66332647D01*
X114804150Y-66306229D01*
X114790733Y-66279897D01*
X114778886Y-66264209D01*
X114775582Y-66250162D01*
X114762660Y-66224801D01*
X114748314Y-66134223D01*
X114748117Y-66133386D01*
X114748117Y-66132980D01*
X114746806Y-66124703D01*
X114746806Y-65675297D01*
X114748117Y-65667020D01*
X114748117Y-65666614D01*
X114748538Y-65664363D01*
X114762660Y-65575199D01*
X114766680Y-65567309D01*
X114767936Y-65560591D01*
X114780175Y-65540824D01*
X114804150Y-65493771D01*
X114817697Y-65480224D01*
X114824717Y-65468886D01*
X114842353Y-65455568D01*
X114868771Y-65429150D01*
X114895103Y-65415733D01*
X114910791Y-65403886D01*
X114924838Y-65400582D01*
X114950199Y-65387660D01*
X115040777Y-65373314D01*
X115041614Y-65373117D01*
X115042020Y-65373117D01*
X115050297Y-65371806D01*
X115599703Y-65371806D01*
X115607980Y-65373117D01*
X115607980Y-65373117D01*
G37*
G36*
X113857980Y-65373117D02*
G01*
X113858386Y-65373117D01*
X113860637Y-65373538D01*
X113949801Y-65387660D01*
X113957691Y-65391680D01*
X113964409Y-65392936D01*
X113984176Y-65405175D01*
X114031229Y-65429150D01*
X114044776Y-65442697D01*
X114056114Y-65449717D01*
X114069432Y-65467353D01*
X114095850Y-65493771D01*
X114109267Y-65520103D01*
X114121114Y-65535791D01*
X114124418Y-65549838D01*
X114137340Y-65575199D01*
X114151686Y-65665777D01*
X114151883Y-65666614D01*
X114151883Y-65667020D01*
X114153194Y-65675297D01*
X114153194Y-66124703D01*
X114151883Y-66132980D01*
X114151883Y-66133386D01*
X114151462Y-66135637D01*
X114137340Y-66224801D01*
X114133320Y-66232691D01*
X114132064Y-66239409D01*
X114119825Y-66259176D01*
X114095850Y-66306229D01*
X114082303Y-66319776D01*
X114075283Y-66331114D01*
X114057647Y-66344432D01*
X114031229Y-66370850D01*
X114004897Y-66384267D01*
X113989209Y-66396114D01*
X113975162Y-66399418D01*
X113949801Y-66412340D01*
X113859223Y-66426686D01*
X113858386Y-66426883D01*
X113857980Y-66426883D01*
X113849703Y-66428194D01*
X113300297Y-66428194D01*
X113292020Y-66426883D01*
X113291614Y-66426883D01*
X113289363Y-66426462D01*
X113200199Y-66412340D01*
X113192309Y-66408320D01*
X113185591Y-66407064D01*
X113165824Y-66394825D01*
X113118771Y-66370850D01*
X113105224Y-66357303D01*
X113093886Y-66350283D01*
X113080568Y-66332647D01*
X113054150Y-66306229D01*
X113040733Y-66279897D01*
X113028886Y-66264209D01*
X113025582Y-66250162D01*
X113012660Y-66224801D01*
X112998314Y-66134223D01*
X112998117Y-66133386D01*
X112998117Y-66132980D01*
X112996806Y-66124703D01*
X112996806Y-65675297D01*
X112998117Y-65667020D01*
X112998117Y-65666614D01*
X112998538Y-65664363D01*
X113012660Y-65575199D01*
X113016680Y-65567309D01*
X113017936Y-65560591D01*
X113030175Y-65540824D01*
X113054150Y-65493771D01*
X113067697Y-65480224D01*
X113074717Y-65468886D01*
X113092353Y-65455568D01*
X113118771Y-65429150D01*
X113145103Y-65415733D01*
X113160791Y-65403886D01*
X113174838Y-65400582D01*
X113200199Y-65387660D01*
X113290777Y-65373314D01*
X113291614Y-65373117D01*
X113292020Y-65373117D01*
X113300297Y-65371806D01*
X113849703Y-65371806D01*
X113857980Y-65373117D01*
X113857980Y-65373117D01*
G37*
G36*
X97099902Y-63199283D02*
G01*
X97144637Y-63199595D01*
X97188460Y-63208590D01*
X97238360Y-63213835D01*
X97280132Y-63227408D01*
X97317723Y-63235124D01*
X97364851Y-63254935D01*
X97418488Y-63272363D01*
X97451099Y-63291191D01*
X97480614Y-63303598D01*
X97528301Y-63335763D01*
X97582511Y-63367061D01*
X97605826Y-63388054D01*
X97627101Y-63402404D01*
X97672183Y-63447802D01*
X97723261Y-63493793D01*
X97738003Y-63514083D01*
X97751608Y-63527784D01*
X97790643Y-63586537D01*
X97834586Y-63647019D01*
X97842221Y-63664168D01*
X97849388Y-63674955D01*
X97878865Y-63746472D01*
X97911621Y-63820042D01*
X97914211Y-63832225D01*
X97916724Y-63838323D01*
X97933292Y-63921997D01*
X97950999Y-64005301D01*
X97950999Y-64194699D01*
X97948115Y-64208269D01*
X97948030Y-64214331D01*
X97929342Y-64296585D01*
X97911621Y-64379958D01*
X97909129Y-64385555D01*
X97909078Y-64385780D01*
X97837210Y-64547197D01*
X97837078Y-64547385D01*
X97834586Y-64552981D01*
X97784480Y-64621946D01*
X97735357Y-64691582D01*
X97730585Y-64696126D01*
X97723261Y-64706207D01*
X97663396Y-64760110D01*
X97607396Y-64813438D01*
X97596464Y-64820376D01*
X97582511Y-64832939D01*
X97517764Y-64870321D01*
X97458211Y-64908114D01*
X97440209Y-64915097D01*
X97418488Y-64927637D01*
X97353115Y-64948878D01*
X97293468Y-64972014D01*
X97268200Y-64976469D01*
X97238360Y-64986165D01*
X97176095Y-64992709D01*
X97119460Y-65002695D01*
X97087459Y-65002025D01*
X97050000Y-65005962D01*
X96993902Y-65000066D01*
X96942799Y-64998996D01*
X96905323Y-64990756D01*
X96861640Y-64986165D01*
X96813917Y-64970659D01*
X96770225Y-64961052D01*
X96729230Y-64943142D01*
X96681512Y-64927637D01*
X96643473Y-64905675D01*
X96608310Y-64890313D01*
X96566337Y-64861141D01*
X96517489Y-64832939D01*
X96489504Y-64807741D01*
X96463215Y-64789470D01*
X96423257Y-64748092D01*
X96376739Y-64706207D01*
X96358296Y-64680823D01*
X96340473Y-64662366D01*
X96305821Y-64608597D01*
X96265414Y-64552981D01*
X96255212Y-64530066D01*
X96244754Y-64513839D01*
X96218789Y-64448261D01*
X96188379Y-64379958D01*
X96184476Y-64361596D01*
X96179707Y-64349551D01*
X96165740Y-64273448D01*
X96149001Y-64194699D01*
X96149001Y-64182246D01*
X96147811Y-64175762D01*
X96149001Y-64090535D01*
X96149001Y-64005301D01*
X96150275Y-63999308D01*
X96150278Y-63999077D01*
X96187015Y-63826246D01*
X96187105Y-63826036D01*
X96188379Y-63820042D01*
X96223042Y-63742188D01*
X96256622Y-63663839D01*
X96260348Y-63658397D01*
X96265414Y-63647019D01*
X96312746Y-63581872D01*
X96356452Y-63518041D01*
X96365706Y-63508979D01*
X96376739Y-63493793D01*
X96432297Y-63443769D01*
X96482693Y-63394417D01*
X96498848Y-63383846D01*
X96517489Y-63367061D01*
X96577026Y-63332687D01*
X96630551Y-63297662D01*
X96654340Y-63288050D01*
X96681512Y-63272363D01*
X96741045Y-63253019D01*
X96794376Y-63231472D01*
X96825820Y-63225474D01*
X96861640Y-63213835D01*
X96917744Y-63207938D01*
X96967945Y-63198362D01*
X97006312Y-63198630D01*
X97050000Y-63194038D01*
X97099902Y-63199283D01*
X97099902Y-63199283D01*
G37*
G36*
X103599902Y-63199283D02*
G01*
X103644637Y-63199595D01*
X103688460Y-63208590D01*
X103738360Y-63213835D01*
X103780132Y-63227408D01*
X103817723Y-63235124D01*
X103864851Y-63254935D01*
X103918488Y-63272363D01*
X103951099Y-63291191D01*
X103980614Y-63303598D01*
X104028301Y-63335763D01*
X104082511Y-63367061D01*
X104105826Y-63388054D01*
X104127101Y-63402404D01*
X104172183Y-63447802D01*
X104223261Y-63493793D01*
X104238003Y-63514083D01*
X104251608Y-63527784D01*
X104290643Y-63586537D01*
X104334586Y-63647019D01*
X104342221Y-63664168D01*
X104349388Y-63674955D01*
X104378865Y-63746472D01*
X104411621Y-63820042D01*
X104414211Y-63832225D01*
X104416724Y-63838323D01*
X104433292Y-63921997D01*
X104450999Y-64005301D01*
X104450999Y-64194699D01*
X104448115Y-64208269D01*
X104448030Y-64214331D01*
X104429342Y-64296585D01*
X104411621Y-64379958D01*
X104409129Y-64385555D01*
X104409078Y-64385780D01*
X104337210Y-64547197D01*
X104337078Y-64547385D01*
X104334586Y-64552981D01*
X104284480Y-64621946D01*
X104235357Y-64691582D01*
X104230585Y-64696126D01*
X104223261Y-64706207D01*
X104163396Y-64760110D01*
X104107396Y-64813438D01*
X104096464Y-64820376D01*
X104082511Y-64832939D01*
X104017764Y-64870321D01*
X103958211Y-64908114D01*
X103940209Y-64915097D01*
X103918488Y-64927637D01*
X103853115Y-64948878D01*
X103793468Y-64972014D01*
X103768200Y-64976469D01*
X103738360Y-64986165D01*
X103676095Y-64992709D01*
X103619460Y-65002695D01*
X103587459Y-65002025D01*
X103550000Y-65005962D01*
X103493902Y-65000066D01*
X103442799Y-64998996D01*
X103405323Y-64990756D01*
X103361640Y-64986165D01*
X103313917Y-64970659D01*
X103270225Y-64961052D01*
X103229230Y-64943142D01*
X103181512Y-64927637D01*
X103143473Y-64905675D01*
X103108310Y-64890313D01*
X103066337Y-64861141D01*
X103017489Y-64832939D01*
X102989504Y-64807741D01*
X102963215Y-64789470D01*
X102923257Y-64748092D01*
X102876739Y-64706207D01*
X102858296Y-64680823D01*
X102840473Y-64662366D01*
X102805821Y-64608597D01*
X102765414Y-64552981D01*
X102755212Y-64530066D01*
X102744754Y-64513839D01*
X102718789Y-64448261D01*
X102688379Y-64379958D01*
X102684476Y-64361596D01*
X102679707Y-64349551D01*
X102665740Y-64273448D01*
X102649001Y-64194699D01*
X102649001Y-64182246D01*
X102647811Y-64175762D01*
X102649001Y-64090535D01*
X102649001Y-64005301D01*
X102650275Y-63999308D01*
X102650278Y-63999077D01*
X102687015Y-63826246D01*
X102687105Y-63826036D01*
X102688379Y-63820042D01*
X102723042Y-63742188D01*
X102756622Y-63663839D01*
X102760348Y-63658397D01*
X102765414Y-63647019D01*
X102812746Y-63581872D01*
X102856452Y-63518041D01*
X102865706Y-63508979D01*
X102876739Y-63493793D01*
X102932297Y-63443769D01*
X102982693Y-63394417D01*
X102998848Y-63383846D01*
X103017489Y-63367061D01*
X103077026Y-63332687D01*
X103130551Y-63297662D01*
X103154340Y-63288050D01*
X103181512Y-63272363D01*
X103241045Y-63253019D01*
X103294376Y-63231472D01*
X103325820Y-63225474D01*
X103361640Y-63213835D01*
X103417744Y-63207938D01*
X103467945Y-63198362D01*
X103506312Y-63198630D01*
X103550000Y-63194038D01*
X103599902Y-63199283D01*
X103599902Y-63199283D01*
G37*
G36*
X149307980Y-62423117D02*
G01*
X149308386Y-62423117D01*
X149310637Y-62423538D01*
X149399801Y-62437660D01*
X149407691Y-62441680D01*
X149414409Y-62442936D01*
X149434176Y-62455175D01*
X149481229Y-62479150D01*
X149494776Y-62492697D01*
X149506114Y-62499717D01*
X149519432Y-62517353D01*
X149545850Y-62543771D01*
X149559267Y-62570103D01*
X149571114Y-62585791D01*
X149574418Y-62599838D01*
X149587340Y-62625199D01*
X149601686Y-62715777D01*
X149601883Y-62716614D01*
X149601883Y-62717020D01*
X149603194Y-62725297D01*
X149603194Y-63174703D01*
X149601883Y-63182980D01*
X149601883Y-63183386D01*
X149601462Y-63185637D01*
X149587340Y-63274801D01*
X149583320Y-63282691D01*
X149582064Y-63289409D01*
X149569825Y-63309176D01*
X149545850Y-63356229D01*
X149532303Y-63369776D01*
X149525283Y-63381114D01*
X149507647Y-63394432D01*
X149481229Y-63420850D01*
X149454897Y-63434267D01*
X149439209Y-63446114D01*
X149425162Y-63449418D01*
X149399801Y-63462340D01*
X149309223Y-63476686D01*
X149308386Y-63476883D01*
X149307980Y-63476883D01*
X149299703Y-63478194D01*
X148750297Y-63478194D01*
X148742020Y-63476883D01*
X148741614Y-63476883D01*
X148739363Y-63476462D01*
X148650199Y-63462340D01*
X148642309Y-63458320D01*
X148635591Y-63457064D01*
X148615824Y-63444825D01*
X148568771Y-63420850D01*
X148555224Y-63407303D01*
X148543886Y-63400283D01*
X148530568Y-63382647D01*
X148504150Y-63356229D01*
X148490733Y-63329897D01*
X148478886Y-63314209D01*
X148475582Y-63300162D01*
X148462660Y-63274801D01*
X148448314Y-63184223D01*
X148448117Y-63183386D01*
X148448117Y-63182980D01*
X148446806Y-63174703D01*
X148446806Y-62725297D01*
X148448117Y-62717020D01*
X148448117Y-62716614D01*
X148448538Y-62714363D01*
X148462660Y-62625199D01*
X148466680Y-62617309D01*
X148467936Y-62610591D01*
X148480175Y-62590824D01*
X148504150Y-62543771D01*
X148517697Y-62530224D01*
X148524717Y-62518886D01*
X148542353Y-62505568D01*
X148568771Y-62479150D01*
X148595103Y-62465733D01*
X148610791Y-62453886D01*
X148624838Y-62450582D01*
X148650199Y-62437660D01*
X148740777Y-62423314D01*
X148741614Y-62423117D01*
X148742020Y-62423117D01*
X148750297Y-62421806D01*
X149299703Y-62421806D01*
X149307980Y-62423117D01*
X149307980Y-62423117D01*
G37*
G36*
X147557980Y-62423117D02*
G01*
X147558386Y-62423117D01*
X147560637Y-62423538D01*
X147649801Y-62437660D01*
X147657691Y-62441680D01*
X147664409Y-62442936D01*
X147684176Y-62455175D01*
X147731229Y-62479150D01*
X147744776Y-62492697D01*
X147756114Y-62499717D01*
X147769432Y-62517353D01*
X147795850Y-62543771D01*
X147809267Y-62570103D01*
X147821114Y-62585791D01*
X147824418Y-62599838D01*
X147837340Y-62625199D01*
X147851686Y-62715777D01*
X147851883Y-62716614D01*
X147851883Y-62717020D01*
X147853194Y-62725297D01*
X147853194Y-63174703D01*
X147851883Y-63182980D01*
X147851883Y-63183386D01*
X147851462Y-63185637D01*
X147837340Y-63274801D01*
X147833320Y-63282691D01*
X147832064Y-63289409D01*
X147819825Y-63309176D01*
X147795850Y-63356229D01*
X147782303Y-63369776D01*
X147775283Y-63381114D01*
X147757647Y-63394432D01*
X147731229Y-63420850D01*
X147704897Y-63434267D01*
X147689209Y-63446114D01*
X147675162Y-63449418D01*
X147649801Y-63462340D01*
X147559223Y-63476686D01*
X147558386Y-63476883D01*
X147557980Y-63476883D01*
X147549703Y-63478194D01*
X147000297Y-63478194D01*
X146992020Y-63476883D01*
X146991614Y-63476883D01*
X146989363Y-63476462D01*
X146900199Y-63462340D01*
X146892309Y-63458320D01*
X146885591Y-63457064D01*
X146865824Y-63444825D01*
X146818771Y-63420850D01*
X146805224Y-63407303D01*
X146793886Y-63400283D01*
X146780568Y-63382647D01*
X146754150Y-63356229D01*
X146740733Y-63329897D01*
X146728886Y-63314209D01*
X146725582Y-63300162D01*
X146712660Y-63274801D01*
X146698314Y-63184223D01*
X146698117Y-63183386D01*
X146698117Y-63182980D01*
X146696806Y-63174703D01*
X146696806Y-62725297D01*
X146698117Y-62717020D01*
X146698117Y-62716614D01*
X146698538Y-62714363D01*
X146712660Y-62625199D01*
X146716680Y-62617309D01*
X146717936Y-62610591D01*
X146730175Y-62590824D01*
X146754150Y-62543771D01*
X146767697Y-62530224D01*
X146774717Y-62518886D01*
X146792353Y-62505568D01*
X146818771Y-62479150D01*
X146845103Y-62465733D01*
X146860791Y-62453886D01*
X146874838Y-62450582D01*
X146900199Y-62437660D01*
X146990777Y-62423314D01*
X146991614Y-62423117D01*
X146992020Y-62423117D01*
X147000297Y-62421806D01*
X147549703Y-62421806D01*
X147557980Y-62423117D01*
X147557980Y-62423117D01*
G37*
G36*
X167687976Y-60877826D02*
G01*
X167729766Y-60875782D01*
X167774056Y-60882639D01*
X167824810Y-60885476D01*
X167865163Y-60896743D01*
X167900621Y-60902232D01*
X167948204Y-60919928D01*
X168002898Y-60935199D01*
X168034622Y-60952067D01*
X168062659Y-60962494D01*
X168110757Y-60992549D01*
X168166153Y-61022004D01*
X168188968Y-61041421D01*
X168209271Y-61054108D01*
X168254641Y-61097313D01*
X168306961Y-61141841D01*
X168321463Y-61160947D01*
X168334472Y-61173335D01*
X168373616Y-61229655D01*
X168418751Y-61289118D01*
X168426302Y-61305459D01*
X168433142Y-61315301D01*
X168462508Y-61383817D01*
X168496307Y-61456965D01*
X168498885Y-61468692D01*
X168501247Y-61474202D01*
X168517429Y-61553036D01*
X168536011Y-61637551D01*
X168535345Y-61828388D01*
X168516181Y-61912738D01*
X168499443Y-61991485D01*
X168497041Y-61996982D01*
X168494381Y-62008692D01*
X168460069Y-62081609D01*
X168430227Y-62149915D01*
X168423318Y-62159709D01*
X168415655Y-62175994D01*
X168370114Y-62235130D01*
X168330570Y-62291187D01*
X168317472Y-62303487D01*
X168302840Y-62322487D01*
X168250227Y-62366635D01*
X168204544Y-62409534D01*
X168184147Y-62422082D01*
X168161199Y-62441338D01*
X168105600Y-62470405D01*
X168057293Y-62500123D01*
X168029184Y-62510354D01*
X167997341Y-62527001D01*
X167942534Y-62541892D01*
X167894831Y-62559254D01*
X167859340Y-62564495D01*
X167818911Y-62575479D01*
X167768139Y-62577962D01*
X167723803Y-62584509D01*
X167682027Y-62582174D01*
X167634233Y-62584511D01*
X167589992Y-62577028D01*
X167551189Y-62574859D01*
X167504980Y-62562650D01*
X167451923Y-62553676D01*
X167415839Y-62539097D01*
X167384035Y-62530694D01*
X167335897Y-62506799D01*
X167280488Y-62484412D01*
X167253311Y-62465804D01*
X167229182Y-62453826D01*
X167182128Y-62417063D01*
X167127926Y-62379950D01*
X167109469Y-62360295D01*
X167092950Y-62347389D01*
X167050400Y-62297393D01*
X167001354Y-62245164D01*
X166990608Y-62227138D01*
X166980896Y-62215726D01*
X166946401Y-62152981D01*
X166906678Y-62086344D01*
X166901943Y-62072111D01*
X166897610Y-62064229D01*
X166874692Y-61990192D01*
X166848314Y-61910898D01*
X166847372Y-61901934D01*
X166846486Y-61899072D01*
X166838347Y-61816068D01*
X166828987Y-61727012D01*
X166838967Y-61638044D01*
X166847687Y-61555078D01*
X166848593Y-61552220D01*
X166849598Y-61543265D01*
X166876530Y-61464153D01*
X166899963Y-61390281D01*
X166904350Y-61382432D01*
X166909184Y-61368231D01*
X166949382Y-61301857D01*
X166984304Y-61239371D01*
X166994092Y-61228031D01*
X167004967Y-61210075D01*
X167054385Y-61158181D01*
X167097273Y-61108495D01*
X167113879Y-61095707D01*
X167132477Y-61076177D01*
X167186952Y-61039433D01*
X167234250Y-61003009D01*
X167258458Y-60991202D01*
X167285765Y-60972783D01*
X167341319Y-60950787D01*
X167389633Y-60927223D01*
X167421503Y-60919040D01*
X167457679Y-60904717D01*
X167510795Y-60896114D01*
X167557088Y-60884228D01*
X167595903Y-60882330D01*
X167640199Y-60875155D01*
X167687976Y-60877826D01*
X167687976Y-60877826D01*
G37*
G36*
X165147976Y-60877826D02*
G01*
X165189766Y-60875782D01*
X165234056Y-60882639D01*
X165284810Y-60885476D01*
X165325163Y-60896743D01*
X165360621Y-60902232D01*
X165408204Y-60919928D01*
X165462898Y-60935199D01*
X165494622Y-60952067D01*
X165522659Y-60962494D01*
X165570757Y-60992549D01*
X165626153Y-61022004D01*
X165648968Y-61041421D01*
X165669271Y-61054108D01*
X165714641Y-61097313D01*
X165766961Y-61141841D01*
X165781463Y-61160947D01*
X165794472Y-61173335D01*
X165833616Y-61229655D01*
X165878751Y-61289118D01*
X165886302Y-61305459D01*
X165893142Y-61315301D01*
X165922508Y-61383817D01*
X165956307Y-61456965D01*
X165958885Y-61468692D01*
X165961247Y-61474202D01*
X165977429Y-61553036D01*
X165996011Y-61637551D01*
X165995345Y-61828388D01*
X165976181Y-61912738D01*
X165959443Y-61991485D01*
X165957041Y-61996982D01*
X165954381Y-62008692D01*
X165920069Y-62081609D01*
X165890227Y-62149915D01*
X165883318Y-62159709D01*
X165875655Y-62175994D01*
X165830114Y-62235130D01*
X165790570Y-62291187D01*
X165777472Y-62303487D01*
X165762840Y-62322487D01*
X165710227Y-62366635D01*
X165664544Y-62409534D01*
X165644147Y-62422082D01*
X165621199Y-62441338D01*
X165565600Y-62470405D01*
X165517293Y-62500123D01*
X165489184Y-62510354D01*
X165457341Y-62527001D01*
X165402534Y-62541892D01*
X165354831Y-62559254D01*
X165319340Y-62564495D01*
X165278911Y-62575479D01*
X165228139Y-62577962D01*
X165183803Y-62584509D01*
X165142027Y-62582174D01*
X165094233Y-62584511D01*
X165049992Y-62577028D01*
X165011189Y-62574859D01*
X164964980Y-62562650D01*
X164911923Y-62553676D01*
X164875839Y-62539097D01*
X164844035Y-62530694D01*
X164795897Y-62506799D01*
X164740488Y-62484412D01*
X164713311Y-62465804D01*
X164689182Y-62453826D01*
X164642128Y-62417063D01*
X164587926Y-62379950D01*
X164569469Y-62360295D01*
X164552950Y-62347389D01*
X164510400Y-62297393D01*
X164461354Y-62245164D01*
X164450608Y-62227138D01*
X164440896Y-62215726D01*
X164406401Y-62152981D01*
X164366678Y-62086344D01*
X164361943Y-62072111D01*
X164357610Y-62064229D01*
X164334692Y-61990192D01*
X164308314Y-61910898D01*
X164307372Y-61901934D01*
X164306486Y-61899072D01*
X164298347Y-61816068D01*
X164288987Y-61727012D01*
X164298967Y-61638044D01*
X164307687Y-61555078D01*
X164308593Y-61552220D01*
X164309598Y-61543265D01*
X164336530Y-61464153D01*
X164359963Y-61390281D01*
X164364350Y-61382432D01*
X164369184Y-61368231D01*
X164409382Y-61301857D01*
X164444304Y-61239371D01*
X164454092Y-61228031D01*
X164464967Y-61210075D01*
X164514385Y-61158181D01*
X164557273Y-61108495D01*
X164573879Y-61095707D01*
X164592477Y-61076177D01*
X164646952Y-61039433D01*
X164694250Y-61003009D01*
X164718458Y-60991202D01*
X164745765Y-60972783D01*
X164801319Y-60950787D01*
X164849633Y-60927223D01*
X164881503Y-60919040D01*
X164917679Y-60904717D01*
X164970795Y-60896114D01*
X165017088Y-60884228D01*
X165055903Y-60882330D01*
X165100199Y-60875155D01*
X165147976Y-60877826D01*
X165147976Y-60877826D01*
G37*
G36*
X149307980Y-60873117D02*
G01*
X149308386Y-60873117D01*
X149310637Y-60873538D01*
X149399801Y-60887660D01*
X149407691Y-60891680D01*
X149414409Y-60892936D01*
X149434176Y-60905175D01*
X149481229Y-60929150D01*
X149494776Y-60942697D01*
X149506114Y-60949717D01*
X149519432Y-60967353D01*
X149545850Y-60993771D01*
X149559267Y-61020103D01*
X149571114Y-61035791D01*
X149574418Y-61049838D01*
X149587340Y-61075199D01*
X149601686Y-61165777D01*
X149601883Y-61166614D01*
X149601883Y-61167020D01*
X149603194Y-61175297D01*
X149603194Y-61624703D01*
X149601883Y-61632980D01*
X149601883Y-61633386D01*
X149601462Y-61635637D01*
X149587340Y-61724801D01*
X149583320Y-61732691D01*
X149582064Y-61739409D01*
X149569825Y-61759176D01*
X149545850Y-61806229D01*
X149532303Y-61819776D01*
X149525283Y-61831114D01*
X149507647Y-61844432D01*
X149481229Y-61870850D01*
X149454897Y-61884267D01*
X149439209Y-61896114D01*
X149425162Y-61899418D01*
X149399801Y-61912340D01*
X149309223Y-61926686D01*
X149308386Y-61926883D01*
X149307980Y-61926883D01*
X149299703Y-61928194D01*
X148750297Y-61928194D01*
X148742020Y-61926883D01*
X148741614Y-61926883D01*
X148739363Y-61926462D01*
X148650199Y-61912340D01*
X148642309Y-61908320D01*
X148635591Y-61907064D01*
X148615824Y-61894825D01*
X148568771Y-61870850D01*
X148555224Y-61857303D01*
X148543886Y-61850283D01*
X148530568Y-61832647D01*
X148504150Y-61806229D01*
X148490733Y-61779897D01*
X148478886Y-61764209D01*
X148475582Y-61750162D01*
X148462660Y-61724801D01*
X148448314Y-61634223D01*
X148448117Y-61633386D01*
X148448117Y-61632980D01*
X148446806Y-61624703D01*
X148446806Y-61175297D01*
X148448117Y-61167020D01*
X148448117Y-61166614D01*
X148448538Y-61164363D01*
X148462660Y-61075199D01*
X148466680Y-61067309D01*
X148467936Y-61060591D01*
X148480175Y-61040824D01*
X148504150Y-60993771D01*
X148517697Y-60980224D01*
X148524717Y-60968886D01*
X148542353Y-60955568D01*
X148568771Y-60929150D01*
X148595103Y-60915733D01*
X148610791Y-60903886D01*
X148624838Y-60900582D01*
X148650199Y-60887660D01*
X148740777Y-60873314D01*
X148741614Y-60873117D01*
X148742020Y-60873117D01*
X148750297Y-60871806D01*
X149299703Y-60871806D01*
X149307980Y-60873117D01*
X149307980Y-60873117D01*
G37*
G36*
X147557980Y-60873117D02*
G01*
X147558386Y-60873117D01*
X147560637Y-60873538D01*
X147649801Y-60887660D01*
X147657691Y-60891680D01*
X147664409Y-60892936D01*
X147684176Y-60905175D01*
X147731229Y-60929150D01*
X147744776Y-60942697D01*
X147756114Y-60949717D01*
X147769432Y-60967353D01*
X147795850Y-60993771D01*
X147809267Y-61020103D01*
X147821114Y-61035791D01*
X147824418Y-61049838D01*
X147837340Y-61075199D01*
X147851686Y-61165777D01*
X147851883Y-61166614D01*
X147851883Y-61167020D01*
X147853194Y-61175297D01*
X147853194Y-61624703D01*
X147851883Y-61632980D01*
X147851883Y-61633386D01*
X147851462Y-61635637D01*
X147837340Y-61724801D01*
X147833320Y-61732691D01*
X147832064Y-61739409D01*
X147819825Y-61759176D01*
X147795850Y-61806229D01*
X147782303Y-61819776D01*
X147775283Y-61831114D01*
X147757647Y-61844432D01*
X147731229Y-61870850D01*
X147704897Y-61884267D01*
X147689209Y-61896114D01*
X147675162Y-61899418D01*
X147649801Y-61912340D01*
X147559223Y-61926686D01*
X147558386Y-61926883D01*
X147557980Y-61926883D01*
X147549703Y-61928194D01*
X147000297Y-61928194D01*
X146992020Y-61926883D01*
X146991614Y-61926883D01*
X146989363Y-61926462D01*
X146900199Y-61912340D01*
X146892309Y-61908320D01*
X146885591Y-61907064D01*
X146865824Y-61894825D01*
X146818771Y-61870850D01*
X146805224Y-61857303D01*
X146793886Y-61850283D01*
X146780568Y-61832647D01*
X146754150Y-61806229D01*
X146740733Y-61779897D01*
X146728886Y-61764209D01*
X146725582Y-61750162D01*
X146712660Y-61724801D01*
X146698314Y-61634223D01*
X146698117Y-61633386D01*
X146698117Y-61632980D01*
X146696806Y-61624703D01*
X146696806Y-61175297D01*
X146698117Y-61167020D01*
X146698117Y-61166614D01*
X146698538Y-61164363D01*
X146712660Y-61075199D01*
X146716680Y-61067309D01*
X146717936Y-61060591D01*
X146730175Y-61040824D01*
X146754150Y-60993771D01*
X146767697Y-60980224D01*
X146774717Y-60968886D01*
X146792353Y-60955568D01*
X146818771Y-60929150D01*
X146845103Y-60915733D01*
X146860791Y-60903886D01*
X146874838Y-60900582D01*
X146900199Y-60887660D01*
X146990777Y-60873314D01*
X146991614Y-60873117D01*
X146992020Y-60873117D01*
X147000297Y-60871806D01*
X147549703Y-60871806D01*
X147557980Y-60873117D01*
X147557980Y-60873117D01*
G37*
G36*
X159044899Y-59751959D02*
G01*
X159061769Y-59763231D01*
X159073041Y-59780101D01*
X159079448Y-59812312D01*
X159079448Y-60837688D01*
X159076999Y-60850000D01*
X159073041Y-60869899D01*
X159061769Y-60886769D01*
X159044899Y-60898041D01*
X159025000Y-60901999D01*
X159012688Y-60904448D01*
X156837312Y-60904448D01*
X156805101Y-60898041D01*
X156788231Y-60886769D01*
X156776959Y-60869899D01*
X156770552Y-60837688D01*
X156770552Y-59812312D01*
X156776959Y-59780101D01*
X156788231Y-59763231D01*
X156805101Y-59751959D01*
X156837312Y-59745552D01*
X159012688Y-59745552D01*
X159044899Y-59751959D01*
X159044899Y-59751959D01*
G37*
G36*
X101389899Y-59001959D02*
G01*
X101406769Y-59013231D01*
X101418041Y-59030101D01*
X101424448Y-59062312D01*
X101424448Y-60437688D01*
X101421999Y-60450000D01*
X101418041Y-60469899D01*
X101406769Y-60486769D01*
X101389899Y-60498041D01*
X101370000Y-60501999D01*
X101357688Y-60504448D01*
X100182312Y-60504448D01*
X100150101Y-60498041D01*
X100133231Y-60486769D01*
X100121959Y-60469899D01*
X100115552Y-60437688D01*
X100115552Y-59062312D01*
X100121959Y-59030101D01*
X100133231Y-59013231D01*
X100150101Y-59001959D01*
X100182312Y-58995552D01*
X101357688Y-58995552D01*
X101389899Y-59001959D01*
X101389899Y-59001959D01*
G37*
G36*
X99569899Y-59001959D02*
G01*
X99586769Y-59013231D01*
X99598041Y-59030101D01*
X99604448Y-59062312D01*
X99604448Y-60437688D01*
X99601999Y-60450000D01*
X99598041Y-60469899D01*
X99586769Y-60486769D01*
X99569899Y-60498041D01*
X99550000Y-60501999D01*
X99537688Y-60504448D01*
X98562312Y-60504448D01*
X98530101Y-60498041D01*
X98513231Y-60486769D01*
X98501959Y-60469899D01*
X98495552Y-60437688D01*
X98495552Y-59062312D01*
X98501959Y-59030101D01*
X98513231Y-59013231D01*
X98530101Y-59001959D01*
X98562312Y-58995552D01*
X99537688Y-58995552D01*
X99569899Y-59001959D01*
X99569899Y-59001959D01*
G37*
G36*
X141819899Y-57551959D02*
G01*
X141836769Y-57563231D01*
X141848041Y-57580101D01*
X141854448Y-57612312D01*
X141854448Y-60087688D01*
X141851999Y-60100000D01*
X141848041Y-60119899D01*
X141836769Y-60136769D01*
X141819899Y-60148041D01*
X141800000Y-60151999D01*
X141787688Y-60154448D01*
X140512312Y-60154448D01*
X140480101Y-60148041D01*
X140463231Y-60136769D01*
X140451959Y-60119899D01*
X140445552Y-60087688D01*
X140445552Y-57612312D01*
X140451959Y-57580101D01*
X140463231Y-57563231D01*
X140480101Y-57551959D01*
X140512312Y-57545552D01*
X141787688Y-57545552D01*
X141819899Y-57551959D01*
X141819899Y-57551959D01*
G37*
G36*
X139819899Y-57551959D02*
G01*
X139836769Y-57563231D01*
X139848041Y-57580101D01*
X139854448Y-57612312D01*
X139854448Y-60087688D01*
X139851999Y-60100000D01*
X139848041Y-60119899D01*
X139836769Y-60136769D01*
X139819899Y-60148041D01*
X139800000Y-60151999D01*
X139787688Y-60154448D01*
X138512312Y-60154448D01*
X138480101Y-60148041D01*
X138463231Y-60136769D01*
X138451959Y-60119899D01*
X138445552Y-60087688D01*
X138445552Y-57612312D01*
X138451959Y-57580101D01*
X138463231Y-57563231D01*
X138480101Y-57551959D01*
X138512312Y-57545552D01*
X139787688Y-57545552D01*
X139819899Y-57551959D01*
X139819899Y-57551959D01*
G37*
G36*
X143819899Y-57551959D02*
G01*
X143836769Y-57563231D01*
X143848041Y-57580101D01*
X143854448Y-57612312D01*
X143854448Y-60087688D01*
X143851999Y-60100000D01*
X143848041Y-60119899D01*
X143836769Y-60136769D01*
X143819899Y-60148041D01*
X143800000Y-60151999D01*
X143787688Y-60154448D01*
X142512312Y-60154448D01*
X142480101Y-60148041D01*
X142463231Y-60136769D01*
X142451959Y-60119899D01*
X142445552Y-60087688D01*
X142445552Y-57612312D01*
X142451959Y-57580101D01*
X142463231Y-57563231D01*
X142480101Y-57551959D01*
X142512312Y-57545552D01*
X143787688Y-57545552D01*
X143819899Y-57551959D01*
X143819899Y-57551959D01*
G37*
G36*
X145819899Y-57551959D02*
G01*
X145836769Y-57563231D01*
X145848041Y-57580101D01*
X145854448Y-57612312D01*
X145854448Y-60087688D01*
X145851999Y-60100000D01*
X145848041Y-60119899D01*
X145836769Y-60136769D01*
X145819899Y-60148041D01*
X145800000Y-60151999D01*
X145787688Y-60154448D01*
X144512312Y-60154448D01*
X144480101Y-60148041D01*
X144463231Y-60136769D01*
X144451959Y-60119899D01*
X144445552Y-60087688D01*
X144445552Y-57612312D01*
X144451959Y-57580101D01*
X144463231Y-57563231D01*
X144480101Y-57551959D01*
X144512312Y-57545552D01*
X145787688Y-57545552D01*
X145819899Y-57551959D01*
X145819899Y-57551959D01*
G37*
G36*
X153819899Y-57551959D02*
G01*
X153836769Y-57563231D01*
X153848041Y-57580101D01*
X153854448Y-57612312D01*
X153854448Y-60087688D01*
X153851999Y-60100000D01*
X153848041Y-60119899D01*
X153836769Y-60136769D01*
X153819899Y-60148041D01*
X153800000Y-60151999D01*
X153787688Y-60154448D01*
X152512312Y-60154448D01*
X152480101Y-60148041D01*
X152463231Y-60136769D01*
X152451959Y-60119899D01*
X152445552Y-60087688D01*
X152445552Y-57612312D01*
X152451959Y-57580101D01*
X152463231Y-57563231D01*
X152480101Y-57551959D01*
X152512312Y-57545552D01*
X153787688Y-57545552D01*
X153819899Y-57551959D01*
X153819899Y-57551959D01*
G37*
G36*
X149819899Y-57551959D02*
G01*
X149836769Y-57563231D01*
X149848041Y-57580101D01*
X149854448Y-57612312D01*
X149854448Y-60087688D01*
X149851999Y-60100000D01*
X149848041Y-60119899D01*
X149836769Y-60136769D01*
X149819899Y-60148041D01*
X149800000Y-60151999D01*
X149787688Y-60154448D01*
X148512312Y-60154448D01*
X148480101Y-60148041D01*
X148463231Y-60136769D01*
X148451959Y-60119899D01*
X148445552Y-60087688D01*
X148445552Y-57612312D01*
X148451959Y-57580101D01*
X148463231Y-57563231D01*
X148480101Y-57551959D01*
X148512312Y-57545552D01*
X149787688Y-57545552D01*
X149819899Y-57551959D01*
X149819899Y-57551959D01*
G37*
G36*
X151819899Y-57551959D02*
G01*
X151836769Y-57563231D01*
X151848041Y-57580101D01*
X151854448Y-57612312D01*
X151854448Y-60087688D01*
X151851999Y-60100000D01*
X151848041Y-60119899D01*
X151836769Y-60136769D01*
X151819899Y-60148041D01*
X151800000Y-60151999D01*
X151787688Y-60154448D01*
X150512312Y-60154448D01*
X150480101Y-60148041D01*
X150463231Y-60136769D01*
X150451959Y-60119899D01*
X150445552Y-60087688D01*
X150445552Y-57612312D01*
X150451959Y-57580101D01*
X150463231Y-57563231D01*
X150480101Y-57551959D01*
X150512312Y-57545552D01*
X151787688Y-57545552D01*
X151819899Y-57551959D01*
X151819899Y-57551959D01*
G37*
G36*
X147819899Y-57551959D02*
G01*
X147836769Y-57563231D01*
X147848041Y-57580101D01*
X147854448Y-57612312D01*
X147854448Y-60087688D01*
X147851999Y-60100000D01*
X147848041Y-60119899D01*
X147836769Y-60136769D01*
X147819899Y-60148041D01*
X147800000Y-60151999D01*
X147787688Y-60154448D01*
X146512312Y-60154448D01*
X146480101Y-60148041D01*
X146463231Y-60136769D01*
X146451959Y-60119899D01*
X146445552Y-60087688D01*
X146445552Y-57612312D01*
X146451959Y-57580101D01*
X146463231Y-57563231D01*
X146480101Y-57551959D01*
X146512312Y-57545552D01*
X147787688Y-57545552D01*
X147819899Y-57551959D01*
X147819899Y-57551959D01*
G37*
G36*
X165147976Y-58337826D02*
G01*
X165189766Y-58335782D01*
X165234056Y-58342639D01*
X165284810Y-58345476D01*
X165325163Y-58356743D01*
X165360621Y-58362232D01*
X165408204Y-58379928D01*
X165462898Y-58395199D01*
X165494622Y-58412067D01*
X165522659Y-58422494D01*
X165570757Y-58452549D01*
X165626153Y-58482004D01*
X165648968Y-58501421D01*
X165669271Y-58514108D01*
X165714641Y-58557313D01*
X165766961Y-58601841D01*
X165781463Y-58620947D01*
X165794472Y-58633335D01*
X165833616Y-58689655D01*
X165878751Y-58749118D01*
X165886302Y-58765459D01*
X165893142Y-58775301D01*
X165922508Y-58843817D01*
X165956307Y-58916965D01*
X165958885Y-58928692D01*
X165961247Y-58934202D01*
X165977429Y-59013036D01*
X165996011Y-59097551D01*
X165995345Y-59288388D01*
X165976181Y-59372738D01*
X165959443Y-59451485D01*
X165957041Y-59456982D01*
X165954381Y-59468692D01*
X165920069Y-59541609D01*
X165890227Y-59609915D01*
X165883318Y-59619709D01*
X165875655Y-59635994D01*
X165830114Y-59695130D01*
X165790570Y-59751187D01*
X165777472Y-59763487D01*
X165762840Y-59782487D01*
X165710227Y-59826635D01*
X165664544Y-59869534D01*
X165644147Y-59882082D01*
X165621199Y-59901338D01*
X165565600Y-59930405D01*
X165517293Y-59960123D01*
X165489184Y-59970354D01*
X165457341Y-59987001D01*
X165402534Y-60001892D01*
X165354831Y-60019254D01*
X165319340Y-60024495D01*
X165278911Y-60035479D01*
X165228139Y-60037962D01*
X165183803Y-60044509D01*
X165142027Y-60042174D01*
X165094233Y-60044511D01*
X165049992Y-60037028D01*
X165011189Y-60034859D01*
X164964980Y-60022650D01*
X164911923Y-60013676D01*
X164875839Y-59999097D01*
X164844035Y-59990694D01*
X164795897Y-59966799D01*
X164740488Y-59944412D01*
X164713311Y-59925804D01*
X164689182Y-59913826D01*
X164642128Y-59877063D01*
X164587926Y-59839950D01*
X164569469Y-59820295D01*
X164552950Y-59807389D01*
X164510400Y-59757393D01*
X164461354Y-59705164D01*
X164450608Y-59687138D01*
X164440896Y-59675726D01*
X164406401Y-59612981D01*
X164366678Y-59546344D01*
X164361943Y-59532111D01*
X164357610Y-59524229D01*
X164334692Y-59450192D01*
X164308314Y-59370898D01*
X164307372Y-59361934D01*
X164306486Y-59359072D01*
X164298347Y-59276068D01*
X164288987Y-59187012D01*
X164298967Y-59098044D01*
X164307687Y-59015078D01*
X164308593Y-59012220D01*
X164309598Y-59003265D01*
X164336530Y-58924153D01*
X164359963Y-58850281D01*
X164364350Y-58842432D01*
X164369184Y-58828231D01*
X164409382Y-58761857D01*
X164444304Y-58699371D01*
X164454092Y-58688031D01*
X164464967Y-58670075D01*
X164514385Y-58618181D01*
X164557273Y-58568495D01*
X164573879Y-58555707D01*
X164592477Y-58536177D01*
X164646952Y-58499433D01*
X164694250Y-58463009D01*
X164718458Y-58451202D01*
X164745765Y-58432783D01*
X164801319Y-58410787D01*
X164849633Y-58387223D01*
X164881503Y-58379040D01*
X164917679Y-58364717D01*
X164970795Y-58356114D01*
X165017088Y-58344228D01*
X165055903Y-58342330D01*
X165100199Y-58335155D01*
X165147976Y-58337826D01*
X165147976Y-58337826D01*
G37*
G36*
X167687976Y-58337826D02*
G01*
X167729766Y-58335782D01*
X167774056Y-58342639D01*
X167824810Y-58345476D01*
X167865163Y-58356743D01*
X167900621Y-58362232D01*
X167948204Y-58379928D01*
X168002898Y-58395199D01*
X168034622Y-58412067D01*
X168062659Y-58422494D01*
X168110757Y-58452549D01*
X168166153Y-58482004D01*
X168188968Y-58501421D01*
X168209271Y-58514108D01*
X168254641Y-58557313D01*
X168306961Y-58601841D01*
X168321463Y-58620947D01*
X168334472Y-58633335D01*
X168373616Y-58689655D01*
X168418751Y-58749118D01*
X168426302Y-58765459D01*
X168433142Y-58775301D01*
X168462508Y-58843817D01*
X168496307Y-58916965D01*
X168498885Y-58928692D01*
X168501247Y-58934202D01*
X168517429Y-59013036D01*
X168536011Y-59097551D01*
X168535345Y-59288388D01*
X168516181Y-59372738D01*
X168499443Y-59451485D01*
X168497041Y-59456982D01*
X168494381Y-59468692D01*
X168460069Y-59541609D01*
X168430227Y-59609915D01*
X168423318Y-59619709D01*
X168415655Y-59635994D01*
X168370114Y-59695130D01*
X168330570Y-59751187D01*
X168317472Y-59763487D01*
X168302840Y-59782487D01*
X168250227Y-59826635D01*
X168204544Y-59869534D01*
X168184147Y-59882082D01*
X168161199Y-59901338D01*
X168105600Y-59930405D01*
X168057293Y-59960123D01*
X168029184Y-59970354D01*
X167997341Y-59987001D01*
X167942534Y-60001892D01*
X167894831Y-60019254D01*
X167859340Y-60024495D01*
X167818911Y-60035479D01*
X167768139Y-60037962D01*
X167723803Y-60044509D01*
X167682027Y-60042174D01*
X167634233Y-60044511D01*
X167589992Y-60037028D01*
X167551189Y-60034859D01*
X167504980Y-60022650D01*
X167451923Y-60013676D01*
X167415839Y-59999097D01*
X167384035Y-59990694D01*
X167335897Y-59966799D01*
X167280488Y-59944412D01*
X167253311Y-59925804D01*
X167229182Y-59913826D01*
X167182128Y-59877063D01*
X167127926Y-59839950D01*
X167109469Y-59820295D01*
X167092950Y-59807389D01*
X167050400Y-59757393D01*
X167001354Y-59705164D01*
X166990608Y-59687138D01*
X166980896Y-59675726D01*
X166946401Y-59612981D01*
X166906678Y-59546344D01*
X166901943Y-59532111D01*
X166897610Y-59524229D01*
X166874692Y-59450192D01*
X166848314Y-59370898D01*
X166847372Y-59361934D01*
X166846486Y-59359072D01*
X166838347Y-59276068D01*
X166828987Y-59187012D01*
X166838967Y-59098044D01*
X166847687Y-59015078D01*
X166848593Y-59012220D01*
X166849598Y-59003265D01*
X166876530Y-58924153D01*
X166899963Y-58850281D01*
X166904350Y-58842432D01*
X166909184Y-58828231D01*
X166949382Y-58761857D01*
X166984304Y-58699371D01*
X166994092Y-58688031D01*
X167004967Y-58670075D01*
X167054385Y-58618181D01*
X167097273Y-58568495D01*
X167113879Y-58555707D01*
X167132477Y-58536177D01*
X167186952Y-58499433D01*
X167234250Y-58463009D01*
X167258458Y-58451202D01*
X167285765Y-58432783D01*
X167341319Y-58410787D01*
X167389633Y-58387223D01*
X167421503Y-58379040D01*
X167457679Y-58364717D01*
X167510795Y-58356114D01*
X167557088Y-58344228D01*
X167595903Y-58342330D01*
X167640199Y-58335155D01*
X167687976Y-58337826D01*
X167687976Y-58337826D01*
G37*
G36*
X156944899Y-58301959D02*
G01*
X156961769Y-58313231D01*
X156973041Y-58330101D01*
X156979448Y-58362312D01*
X156979448Y-59337688D01*
X156976999Y-59350000D01*
X156973041Y-59369899D01*
X156961769Y-59386769D01*
X156944899Y-59398041D01*
X156925000Y-59401999D01*
X156912688Y-59404448D01*
X155887312Y-59404448D01*
X155855101Y-59398041D01*
X155838231Y-59386769D01*
X155826959Y-59369899D01*
X155820552Y-59337688D01*
X155820552Y-58362312D01*
X155826959Y-58330101D01*
X155838231Y-58313231D01*
X155855101Y-58301959D01*
X155887312Y-58295552D01*
X156912688Y-58295552D01*
X156944899Y-58301959D01*
X156944899Y-58301959D01*
G37*
G36*
X101469899Y-56801959D02*
G01*
X101486769Y-56813231D01*
X101498041Y-56830101D01*
X101504448Y-56862312D01*
X101504448Y-58237688D01*
X101501999Y-58250000D01*
X101498041Y-58269899D01*
X101486769Y-58286769D01*
X101469899Y-58298041D01*
X101450000Y-58301999D01*
X101437688Y-58304448D01*
X100462312Y-58304448D01*
X100430101Y-58298041D01*
X100413231Y-58286769D01*
X100401959Y-58269899D01*
X100395552Y-58237688D01*
X100395552Y-56862312D01*
X100401959Y-56830101D01*
X100413231Y-56813231D01*
X100430101Y-56801959D01*
X100462312Y-56795552D01*
X101437688Y-56795552D01*
X101469899Y-56801959D01*
X101469899Y-56801959D01*
G37*
G36*
X99569899Y-56801959D02*
G01*
X99586769Y-56813231D01*
X99598041Y-56830101D01*
X99604448Y-56862312D01*
X99604448Y-58237688D01*
X99601999Y-58250000D01*
X99598041Y-58269899D01*
X99586769Y-58286769D01*
X99569899Y-58298041D01*
X99550000Y-58301999D01*
X99537688Y-58304448D01*
X98562312Y-58304448D01*
X98530101Y-58298041D01*
X98513231Y-58286769D01*
X98501959Y-58269899D01*
X98495552Y-58237688D01*
X98495552Y-56862312D01*
X98501959Y-56830101D01*
X98513231Y-56813231D01*
X98530101Y-56801959D01*
X98562312Y-56795552D01*
X99537688Y-56795552D01*
X99569899Y-56801959D01*
X99569899Y-56801959D01*
G37*
G36*
X159044899Y-56801959D02*
G01*
X159061769Y-56813231D01*
X159073041Y-56830101D01*
X159079448Y-56862312D01*
X159079448Y-57887688D01*
X159076999Y-57900000D01*
X159073041Y-57919899D01*
X159061769Y-57936769D01*
X159044899Y-57948041D01*
X159025000Y-57951999D01*
X159012688Y-57954448D01*
X156837312Y-57954448D01*
X156805101Y-57948041D01*
X156788231Y-57936769D01*
X156776959Y-57919899D01*
X156770552Y-57887688D01*
X156770552Y-56862312D01*
X156776959Y-56830101D01*
X156788231Y-56813231D01*
X156805101Y-56801959D01*
X156837312Y-56795552D01*
X159012688Y-56795552D01*
X159044899Y-56801959D01*
X159044899Y-56801959D01*
G37*
G36*
X165147976Y-55797826D02*
G01*
X165189766Y-55795782D01*
X165234056Y-55802639D01*
X165284810Y-55805476D01*
X165325163Y-55816743D01*
X165360621Y-55822232D01*
X165408204Y-55839928D01*
X165462898Y-55855199D01*
X165494622Y-55872067D01*
X165522659Y-55882494D01*
X165570757Y-55912549D01*
X165626153Y-55942004D01*
X165648968Y-55961421D01*
X165669271Y-55974108D01*
X165714641Y-56017313D01*
X165766961Y-56061841D01*
X165781463Y-56080947D01*
X165794472Y-56093335D01*
X165833616Y-56149655D01*
X165878751Y-56209118D01*
X165886302Y-56225459D01*
X165893142Y-56235301D01*
X165922508Y-56303817D01*
X165956307Y-56376965D01*
X165958885Y-56388692D01*
X165961247Y-56394202D01*
X165977429Y-56473036D01*
X165996011Y-56557551D01*
X165995345Y-56748388D01*
X165976181Y-56832738D01*
X165959443Y-56911485D01*
X165957041Y-56916982D01*
X165954381Y-56928692D01*
X165920069Y-57001609D01*
X165890227Y-57069915D01*
X165883318Y-57079709D01*
X165875655Y-57095994D01*
X165830114Y-57155130D01*
X165790570Y-57211187D01*
X165777472Y-57223487D01*
X165762840Y-57242487D01*
X165710227Y-57286635D01*
X165664544Y-57329534D01*
X165644147Y-57342082D01*
X165621199Y-57361338D01*
X165565600Y-57390405D01*
X165517293Y-57420123D01*
X165489184Y-57430354D01*
X165457341Y-57447001D01*
X165402534Y-57461892D01*
X165354831Y-57479254D01*
X165319340Y-57484495D01*
X165278911Y-57495479D01*
X165228139Y-57497962D01*
X165183803Y-57504509D01*
X165142027Y-57502174D01*
X165094233Y-57504511D01*
X165049992Y-57497028D01*
X165011189Y-57494859D01*
X164964980Y-57482650D01*
X164911923Y-57473676D01*
X164875839Y-57459097D01*
X164844035Y-57450694D01*
X164795897Y-57426799D01*
X164740488Y-57404412D01*
X164713311Y-57385804D01*
X164689182Y-57373826D01*
X164642128Y-57337063D01*
X164587926Y-57299950D01*
X164569469Y-57280295D01*
X164552950Y-57267389D01*
X164510400Y-57217393D01*
X164461354Y-57165164D01*
X164450608Y-57147138D01*
X164440896Y-57135726D01*
X164406401Y-57072981D01*
X164366678Y-57006344D01*
X164361943Y-56992111D01*
X164357610Y-56984229D01*
X164334692Y-56910192D01*
X164308314Y-56830898D01*
X164307372Y-56821934D01*
X164306486Y-56819072D01*
X164298347Y-56736068D01*
X164288987Y-56647012D01*
X164298967Y-56558044D01*
X164307687Y-56475078D01*
X164308593Y-56472220D01*
X164309598Y-56463265D01*
X164336530Y-56384153D01*
X164359963Y-56310281D01*
X164364350Y-56302432D01*
X164369184Y-56288231D01*
X164409382Y-56221857D01*
X164444304Y-56159371D01*
X164454092Y-56148031D01*
X164464967Y-56130075D01*
X164514385Y-56078181D01*
X164557273Y-56028495D01*
X164573879Y-56015707D01*
X164592477Y-55996177D01*
X164646952Y-55959433D01*
X164694250Y-55923009D01*
X164718458Y-55911202D01*
X164745765Y-55892783D01*
X164801319Y-55870787D01*
X164849633Y-55847223D01*
X164881503Y-55839040D01*
X164917679Y-55824717D01*
X164970795Y-55816114D01*
X165017088Y-55804228D01*
X165055903Y-55802330D01*
X165100199Y-55795155D01*
X165147976Y-55797826D01*
X165147976Y-55797826D01*
G37*
G36*
X167687976Y-55797826D02*
G01*
X167729766Y-55795782D01*
X167774056Y-55802639D01*
X167824810Y-55805476D01*
X167865163Y-55816743D01*
X167900621Y-55822232D01*
X167948204Y-55839928D01*
X168002898Y-55855199D01*
X168034622Y-55872067D01*
X168062659Y-55882494D01*
X168110757Y-55912549D01*
X168166153Y-55942004D01*
X168188968Y-55961421D01*
X168209271Y-55974108D01*
X168254641Y-56017313D01*
X168306961Y-56061841D01*
X168321463Y-56080947D01*
X168334472Y-56093335D01*
X168373616Y-56149655D01*
X168418751Y-56209118D01*
X168426302Y-56225459D01*
X168433142Y-56235301D01*
X168462508Y-56303817D01*
X168496307Y-56376965D01*
X168498885Y-56388692D01*
X168501247Y-56394202D01*
X168517429Y-56473036D01*
X168536011Y-56557551D01*
X168535345Y-56748388D01*
X168516181Y-56832738D01*
X168499443Y-56911485D01*
X168497041Y-56916982D01*
X168494381Y-56928692D01*
X168460069Y-57001609D01*
X168430227Y-57069915D01*
X168423318Y-57079709D01*
X168415655Y-57095994D01*
X168370114Y-57155130D01*
X168330570Y-57211187D01*
X168317472Y-57223487D01*
X168302840Y-57242487D01*
X168250227Y-57286635D01*
X168204544Y-57329534D01*
X168184147Y-57342082D01*
X168161199Y-57361338D01*
X168105600Y-57390405D01*
X168057293Y-57420123D01*
X168029184Y-57430354D01*
X167997341Y-57447001D01*
X167942534Y-57461892D01*
X167894831Y-57479254D01*
X167859340Y-57484495D01*
X167818911Y-57495479D01*
X167768139Y-57497962D01*
X167723803Y-57504509D01*
X167682027Y-57502174D01*
X167634233Y-57504511D01*
X167589992Y-57497028D01*
X167551189Y-57494859D01*
X167504980Y-57482650D01*
X167451923Y-57473676D01*
X167415839Y-57459097D01*
X167384035Y-57450694D01*
X167335897Y-57426799D01*
X167280488Y-57404412D01*
X167253311Y-57385804D01*
X167229182Y-57373826D01*
X167182128Y-57337063D01*
X167127926Y-57299950D01*
X167109469Y-57280295D01*
X167092950Y-57267389D01*
X167050400Y-57217393D01*
X167001354Y-57165164D01*
X166990608Y-57147138D01*
X166980896Y-57135726D01*
X166946401Y-57072981D01*
X166906678Y-57006344D01*
X166901943Y-56992111D01*
X166897610Y-56984229D01*
X166874692Y-56910192D01*
X166848314Y-56830898D01*
X166847372Y-56821934D01*
X166846486Y-56819072D01*
X166838347Y-56736068D01*
X166828987Y-56647012D01*
X166838967Y-56558044D01*
X166847687Y-56475078D01*
X166848593Y-56472220D01*
X166849598Y-56463265D01*
X166876530Y-56384153D01*
X166899963Y-56310281D01*
X166904350Y-56302432D01*
X166909184Y-56288231D01*
X166949382Y-56221857D01*
X166984304Y-56159371D01*
X166994092Y-56148031D01*
X167004967Y-56130075D01*
X167054385Y-56078181D01*
X167097273Y-56028495D01*
X167113879Y-56015707D01*
X167132477Y-55996177D01*
X167186952Y-55959433D01*
X167234250Y-55923009D01*
X167258458Y-55911202D01*
X167285765Y-55892783D01*
X167341319Y-55870787D01*
X167389633Y-55847223D01*
X167421503Y-55839040D01*
X167457679Y-55824717D01*
X167510795Y-55816114D01*
X167557088Y-55804228D01*
X167595903Y-55802330D01*
X167640199Y-55795155D01*
X167687976Y-55797826D01*
X167687976Y-55797826D01*
G37*
G36*
X167687976Y-53257826D02*
G01*
X167729766Y-53255782D01*
X167774056Y-53262639D01*
X167824810Y-53265476D01*
X167865163Y-53276743D01*
X167900621Y-53282232D01*
X167948204Y-53299928D01*
X168002898Y-53315199D01*
X168034622Y-53332067D01*
X168062659Y-53342494D01*
X168110757Y-53372549D01*
X168166153Y-53402004D01*
X168188968Y-53421421D01*
X168209271Y-53434108D01*
X168254641Y-53477313D01*
X168306961Y-53521841D01*
X168321463Y-53540947D01*
X168334472Y-53553335D01*
X168373616Y-53609655D01*
X168418751Y-53669118D01*
X168426302Y-53685459D01*
X168433142Y-53695301D01*
X168462508Y-53763817D01*
X168496307Y-53836965D01*
X168498885Y-53848692D01*
X168501247Y-53854202D01*
X168517429Y-53933036D01*
X168536011Y-54017551D01*
X168535345Y-54208388D01*
X168516181Y-54292738D01*
X168499443Y-54371485D01*
X168497041Y-54376982D01*
X168494381Y-54388692D01*
X168460069Y-54461609D01*
X168430227Y-54529915D01*
X168423318Y-54539709D01*
X168415655Y-54555994D01*
X168370114Y-54615130D01*
X168330570Y-54671187D01*
X168317472Y-54683487D01*
X168302840Y-54702487D01*
X168250227Y-54746635D01*
X168204544Y-54789534D01*
X168184147Y-54802082D01*
X168161199Y-54821338D01*
X168105600Y-54850405D01*
X168057293Y-54880123D01*
X168029184Y-54890354D01*
X167997341Y-54907001D01*
X167942534Y-54921892D01*
X167894831Y-54939254D01*
X167859340Y-54944495D01*
X167818911Y-54955479D01*
X167768139Y-54957962D01*
X167723803Y-54964509D01*
X167682027Y-54962174D01*
X167634233Y-54964511D01*
X167589992Y-54957028D01*
X167551189Y-54954859D01*
X167504980Y-54942650D01*
X167451923Y-54933676D01*
X167415839Y-54919097D01*
X167384035Y-54910694D01*
X167335897Y-54886799D01*
X167280488Y-54864412D01*
X167253311Y-54845804D01*
X167229182Y-54833826D01*
X167182128Y-54797063D01*
X167127926Y-54759950D01*
X167109469Y-54740295D01*
X167092950Y-54727389D01*
X167050400Y-54677393D01*
X167001354Y-54625164D01*
X166990608Y-54607138D01*
X166980896Y-54595726D01*
X166946401Y-54532981D01*
X166906678Y-54466344D01*
X166901943Y-54452111D01*
X166897610Y-54444229D01*
X166874692Y-54370192D01*
X166848314Y-54290898D01*
X166847372Y-54281934D01*
X166846486Y-54279072D01*
X166838347Y-54196068D01*
X166828987Y-54107012D01*
X166838967Y-54018044D01*
X166847687Y-53935078D01*
X166848593Y-53932220D01*
X166849598Y-53923265D01*
X166876530Y-53844153D01*
X166899963Y-53770281D01*
X166904350Y-53762432D01*
X166909184Y-53748231D01*
X166949382Y-53681857D01*
X166984304Y-53619371D01*
X166994092Y-53608031D01*
X167004967Y-53590075D01*
X167054385Y-53538181D01*
X167097273Y-53488495D01*
X167113879Y-53475707D01*
X167132477Y-53456177D01*
X167186952Y-53419433D01*
X167234250Y-53383009D01*
X167258458Y-53371202D01*
X167285765Y-53352783D01*
X167341319Y-53330787D01*
X167389633Y-53307223D01*
X167421503Y-53299040D01*
X167457679Y-53284717D01*
X167510795Y-53276114D01*
X167557088Y-53264228D01*
X167595903Y-53262330D01*
X167640199Y-53255155D01*
X167687976Y-53257826D01*
X167687976Y-53257826D01*
G37*
G36*
X165147976Y-53257826D02*
G01*
X165189766Y-53255782D01*
X165234056Y-53262639D01*
X165284810Y-53265476D01*
X165325163Y-53276743D01*
X165360621Y-53282232D01*
X165408204Y-53299928D01*
X165462898Y-53315199D01*
X165494622Y-53332067D01*
X165522659Y-53342494D01*
X165570757Y-53372549D01*
X165626153Y-53402004D01*
X165648968Y-53421421D01*
X165669271Y-53434108D01*
X165714641Y-53477313D01*
X165766961Y-53521841D01*
X165781463Y-53540947D01*
X165794472Y-53553335D01*
X165833616Y-53609655D01*
X165878751Y-53669118D01*
X165886302Y-53685459D01*
X165893142Y-53695301D01*
X165922508Y-53763817D01*
X165956307Y-53836965D01*
X165958885Y-53848692D01*
X165961247Y-53854202D01*
X165977429Y-53933036D01*
X165996011Y-54017551D01*
X165995345Y-54208388D01*
X165976181Y-54292738D01*
X165959443Y-54371485D01*
X165957041Y-54376982D01*
X165954381Y-54388692D01*
X165920069Y-54461609D01*
X165890227Y-54529915D01*
X165883318Y-54539709D01*
X165875655Y-54555994D01*
X165830114Y-54615130D01*
X165790570Y-54671187D01*
X165777472Y-54683487D01*
X165762840Y-54702487D01*
X165710227Y-54746635D01*
X165664544Y-54789534D01*
X165644147Y-54802082D01*
X165621199Y-54821338D01*
X165565600Y-54850405D01*
X165517293Y-54880123D01*
X165489184Y-54890354D01*
X165457341Y-54907001D01*
X165402534Y-54921892D01*
X165354831Y-54939254D01*
X165319340Y-54944495D01*
X165278911Y-54955479D01*
X165228139Y-54957962D01*
X165183803Y-54964509D01*
X165142027Y-54962174D01*
X165094233Y-54964511D01*
X165049992Y-54957028D01*
X165011189Y-54954859D01*
X164964980Y-54942650D01*
X164911923Y-54933676D01*
X164875839Y-54919097D01*
X164844035Y-54910694D01*
X164795897Y-54886799D01*
X164740488Y-54864412D01*
X164713311Y-54845804D01*
X164689182Y-54833826D01*
X164642128Y-54797063D01*
X164587926Y-54759950D01*
X164569469Y-54740295D01*
X164552950Y-54727389D01*
X164510400Y-54677393D01*
X164461354Y-54625164D01*
X164450608Y-54607138D01*
X164440896Y-54595726D01*
X164406401Y-54532981D01*
X164366678Y-54466344D01*
X164361943Y-54452111D01*
X164357610Y-54444229D01*
X164334692Y-54370192D01*
X164308314Y-54290898D01*
X164307372Y-54281934D01*
X164306486Y-54279072D01*
X164298347Y-54196068D01*
X164288987Y-54107012D01*
X164298967Y-54018044D01*
X164307687Y-53935078D01*
X164308593Y-53932220D01*
X164309598Y-53923265D01*
X164336530Y-53844153D01*
X164359963Y-53770281D01*
X164364350Y-53762432D01*
X164369184Y-53748231D01*
X164409382Y-53681857D01*
X164444304Y-53619371D01*
X164454092Y-53608031D01*
X164464967Y-53590075D01*
X164514385Y-53538181D01*
X164557273Y-53488495D01*
X164573879Y-53475707D01*
X164592477Y-53456177D01*
X164646952Y-53419433D01*
X164694250Y-53383009D01*
X164718458Y-53371202D01*
X164745765Y-53352783D01*
X164801319Y-53330787D01*
X164849633Y-53307223D01*
X164881503Y-53299040D01*
X164917679Y-53284717D01*
X164970795Y-53276114D01*
X165017088Y-53264228D01*
X165055903Y-53262330D01*
X165100199Y-53255155D01*
X165147976Y-53257826D01*
X165147976Y-53257826D01*
G37*
G36*
X90694971Y-52527249D02*
G01*
X90746871Y-52527611D01*
X90786215Y-52536839D01*
X90819962Y-52540386D01*
X90868296Y-52556091D01*
X90924448Y-52569261D01*
X90955616Y-52584463D01*
X90982500Y-52593198D01*
X91031344Y-52621398D01*
X91088383Y-52649218D01*
X91110933Y-52667348D01*
X91130499Y-52678645D01*
X91176517Y-52720080D01*
X91230531Y-52763508D01*
X91244940Y-52781687D01*
X91257506Y-52793002D01*
X91297093Y-52847489D01*
X91343825Y-52906450D01*
X91351365Y-52922188D01*
X91357956Y-52931259D01*
X91387434Y-52997468D01*
X91422636Y-53070940D01*
X91425231Y-53082363D01*
X91427468Y-53087387D01*
X91443374Y-53162220D01*
X91463045Y-53248802D01*
X91462967Y-53254397D01*
X91462999Y-53254548D01*
X91462999Y-53425452D01*
X91460409Y-53437639D01*
X91460182Y-53453864D01*
X91441465Y-53526760D01*
X91427468Y-53592613D01*
X91420592Y-53608058D01*
X91414822Y-53630529D01*
X91383142Y-53692172D01*
X91357956Y-53748741D01*
X91344675Y-53767020D01*
X91331450Y-53792754D01*
X91290661Y-53841364D01*
X91257506Y-53886998D01*
X91236496Y-53905916D01*
X91214208Y-53932477D01*
X91168271Y-53967345D01*
X91130499Y-54001355D01*
X91101113Y-54018321D01*
X91068925Y-54042753D01*
X91021659Y-54064194D01*
X90982500Y-54086802D01*
X90944852Y-54099035D01*
X90902820Y-54118101D01*
X90857610Y-54127381D01*
X90819962Y-54139614D01*
X90774993Y-54144341D01*
X90724151Y-54154777D01*
X90683750Y-54153931D01*
X90650000Y-54157478D01*
X90599448Y-54152165D01*
X90541795Y-54150957D01*
X90508152Y-54142569D01*
X90480038Y-54139614D01*
X90426402Y-54122186D01*
X90364818Y-54106832D01*
X90338985Y-54093783D01*
X90317500Y-54086802D01*
X90263882Y-54055845D01*
X90202014Y-54024594D01*
X90184138Y-54009806D01*
X90169501Y-54001355D01*
X90119478Y-53956315D01*
X90061476Y-53908331D01*
X90050822Y-53894497D01*
X90042494Y-53886998D01*
X89999898Y-53828369D01*
X89950189Y-53763821D01*
X89945278Y-53753192D01*
X89942044Y-53748741D01*
X89910920Y-53678834D01*
X89873683Y-53598246D01*
X89835761Y-53419837D01*
X89837001Y-53331012D01*
X89837001Y-53254548D01*
X89838143Y-53249173D01*
X89838307Y-53237459D01*
X89857469Y-53158253D01*
X89872532Y-53087387D01*
X89877090Y-53077149D01*
X89881196Y-53060178D01*
X89914660Y-52992766D01*
X89942044Y-52931259D01*
X89951982Y-52917581D01*
X89962295Y-52896805D01*
X90006093Y-52843103D01*
X90042494Y-52793002D01*
X90059286Y-52777883D01*
X90077575Y-52755458D01*
X90127586Y-52716385D01*
X90169501Y-52678645D01*
X90193983Y-52664510D01*
X90221304Y-52643165D01*
X90273480Y-52618613D01*
X90317500Y-52593198D01*
X90349775Y-52582711D01*
X90386340Y-52565505D01*
X90437032Y-52554360D01*
X90480038Y-52540386D01*
X90519408Y-52536248D01*
X90564481Y-52526338D01*
X90610629Y-52526660D01*
X90650000Y-52522522D01*
X90694971Y-52527249D01*
X90694971Y-52527249D01*
G37*
G36*
X167687976Y-50717826D02*
G01*
X167729766Y-50715782D01*
X167774056Y-50722639D01*
X167824810Y-50725476D01*
X167865163Y-50736743D01*
X167900621Y-50742232D01*
X167948204Y-50759928D01*
X168002898Y-50775199D01*
X168034622Y-50792067D01*
X168062659Y-50802494D01*
X168110757Y-50832549D01*
X168166153Y-50862004D01*
X168188968Y-50881421D01*
X168209271Y-50894108D01*
X168254641Y-50937313D01*
X168306961Y-50981841D01*
X168321463Y-51000947D01*
X168334472Y-51013335D01*
X168373616Y-51069655D01*
X168418751Y-51129118D01*
X168426302Y-51145459D01*
X168433142Y-51155301D01*
X168462508Y-51223817D01*
X168496307Y-51296965D01*
X168498885Y-51308692D01*
X168501247Y-51314202D01*
X168517429Y-51393036D01*
X168536011Y-51477551D01*
X168535345Y-51668388D01*
X168516181Y-51752738D01*
X168499443Y-51831485D01*
X168497041Y-51836982D01*
X168494381Y-51848692D01*
X168460069Y-51921609D01*
X168430227Y-51989915D01*
X168423318Y-51999709D01*
X168415655Y-52015994D01*
X168370114Y-52075130D01*
X168330570Y-52131187D01*
X168317472Y-52143487D01*
X168302840Y-52162487D01*
X168250227Y-52206635D01*
X168204544Y-52249534D01*
X168184147Y-52262082D01*
X168161199Y-52281338D01*
X168105600Y-52310405D01*
X168057293Y-52340123D01*
X168029184Y-52350354D01*
X167997341Y-52367001D01*
X167942534Y-52381892D01*
X167894831Y-52399254D01*
X167859340Y-52404495D01*
X167818911Y-52415479D01*
X167768139Y-52417962D01*
X167723803Y-52424509D01*
X167682027Y-52422174D01*
X167634233Y-52424511D01*
X167589992Y-52417028D01*
X167551189Y-52414859D01*
X167504980Y-52402650D01*
X167451923Y-52393676D01*
X167415839Y-52379097D01*
X167384035Y-52370694D01*
X167335897Y-52346799D01*
X167280488Y-52324412D01*
X167253311Y-52305804D01*
X167229182Y-52293826D01*
X167182128Y-52257063D01*
X167127926Y-52219950D01*
X167109469Y-52200295D01*
X167092950Y-52187389D01*
X167050400Y-52137393D01*
X167001354Y-52085164D01*
X166990608Y-52067138D01*
X166980896Y-52055726D01*
X166946401Y-51992981D01*
X166906678Y-51926344D01*
X166901943Y-51912111D01*
X166897610Y-51904229D01*
X166874692Y-51830192D01*
X166848314Y-51750898D01*
X166847372Y-51741934D01*
X166846486Y-51739072D01*
X166838347Y-51656068D01*
X166828987Y-51567012D01*
X166838967Y-51478044D01*
X166847687Y-51395078D01*
X166848593Y-51392220D01*
X166849598Y-51383265D01*
X166876530Y-51304153D01*
X166899963Y-51230281D01*
X166904350Y-51222432D01*
X166909184Y-51208231D01*
X166949382Y-51141857D01*
X166984304Y-51079371D01*
X166994092Y-51068031D01*
X167004967Y-51050075D01*
X167054385Y-50998181D01*
X167097273Y-50948495D01*
X167113879Y-50935707D01*
X167132477Y-50916177D01*
X167186952Y-50879433D01*
X167234250Y-50843009D01*
X167258458Y-50831202D01*
X167285765Y-50812783D01*
X167341319Y-50790787D01*
X167389633Y-50767223D01*
X167421503Y-50759040D01*
X167457679Y-50744717D01*
X167510795Y-50736114D01*
X167557088Y-50724228D01*
X167595903Y-50722330D01*
X167640199Y-50715155D01*
X167687976Y-50717826D01*
X167687976Y-50717826D01*
G37*
G36*
X165147976Y-50717826D02*
G01*
X165189766Y-50715782D01*
X165234056Y-50722639D01*
X165284810Y-50725476D01*
X165325163Y-50736743D01*
X165360621Y-50742232D01*
X165408204Y-50759928D01*
X165462898Y-50775199D01*
X165494622Y-50792067D01*
X165522659Y-50802494D01*
X165570757Y-50832549D01*
X165626153Y-50862004D01*
X165648968Y-50881421D01*
X165669271Y-50894108D01*
X165714641Y-50937313D01*
X165766961Y-50981841D01*
X165781463Y-51000947D01*
X165794472Y-51013335D01*
X165833616Y-51069655D01*
X165878751Y-51129118D01*
X165886302Y-51145459D01*
X165893142Y-51155301D01*
X165922508Y-51223817D01*
X165956307Y-51296965D01*
X165958885Y-51308692D01*
X165961247Y-51314202D01*
X165977429Y-51393036D01*
X165996011Y-51477551D01*
X165995345Y-51668388D01*
X165976181Y-51752738D01*
X165959443Y-51831485D01*
X165957041Y-51836982D01*
X165954381Y-51848692D01*
X165920069Y-51921609D01*
X165890227Y-51989915D01*
X165883318Y-51999709D01*
X165875655Y-52015994D01*
X165830114Y-52075130D01*
X165790570Y-52131187D01*
X165777472Y-52143487D01*
X165762840Y-52162487D01*
X165710227Y-52206635D01*
X165664544Y-52249534D01*
X165644147Y-52262082D01*
X165621199Y-52281338D01*
X165565600Y-52310405D01*
X165517293Y-52340123D01*
X165489184Y-52350354D01*
X165457341Y-52367001D01*
X165402534Y-52381892D01*
X165354831Y-52399254D01*
X165319340Y-52404495D01*
X165278911Y-52415479D01*
X165228139Y-52417962D01*
X165183803Y-52424509D01*
X165142027Y-52422174D01*
X165094233Y-52424511D01*
X165049992Y-52417028D01*
X165011189Y-52414859D01*
X164964980Y-52402650D01*
X164911923Y-52393676D01*
X164875839Y-52379097D01*
X164844035Y-52370694D01*
X164795897Y-52346799D01*
X164740488Y-52324412D01*
X164713311Y-52305804D01*
X164689182Y-52293826D01*
X164642128Y-52257063D01*
X164587926Y-52219950D01*
X164569469Y-52200295D01*
X164552950Y-52187389D01*
X164510400Y-52137393D01*
X164461354Y-52085164D01*
X164450608Y-52067138D01*
X164440896Y-52055726D01*
X164406401Y-51992981D01*
X164366678Y-51926344D01*
X164361943Y-51912111D01*
X164357610Y-51904229D01*
X164334692Y-51830192D01*
X164308314Y-51750898D01*
X164307372Y-51741934D01*
X164306486Y-51739072D01*
X164298347Y-51656068D01*
X164288987Y-51567012D01*
X164298967Y-51478044D01*
X164307687Y-51395078D01*
X164308593Y-51392220D01*
X164309598Y-51383265D01*
X164336530Y-51304153D01*
X164359963Y-51230281D01*
X164364350Y-51222432D01*
X164369184Y-51208231D01*
X164409382Y-51141857D01*
X164444304Y-51079371D01*
X164454092Y-51068031D01*
X164464967Y-51050075D01*
X164514385Y-50998181D01*
X164557273Y-50948495D01*
X164573879Y-50935707D01*
X164592477Y-50916177D01*
X164646952Y-50879433D01*
X164694250Y-50843009D01*
X164718458Y-50831202D01*
X164745765Y-50812783D01*
X164801319Y-50790787D01*
X164849633Y-50767223D01*
X164881503Y-50759040D01*
X164917679Y-50744717D01*
X164970795Y-50736114D01*
X165017088Y-50724228D01*
X165055903Y-50722330D01*
X165100199Y-50715155D01*
X165147976Y-50717826D01*
X165147976Y-50717826D01*
G37*
G36*
X90694971Y-49987249D02*
G01*
X90746871Y-49987611D01*
X90786215Y-49996839D01*
X90819962Y-50000386D01*
X90868296Y-50016091D01*
X90924448Y-50029261D01*
X90955616Y-50044463D01*
X90982500Y-50053198D01*
X91031344Y-50081398D01*
X91088383Y-50109218D01*
X91110933Y-50127348D01*
X91130499Y-50138645D01*
X91176517Y-50180080D01*
X91230531Y-50223508D01*
X91244940Y-50241687D01*
X91257506Y-50253002D01*
X91297093Y-50307489D01*
X91343825Y-50366450D01*
X91351365Y-50382188D01*
X91357956Y-50391259D01*
X91387434Y-50457468D01*
X91422636Y-50530940D01*
X91425231Y-50542363D01*
X91427468Y-50547387D01*
X91443374Y-50622220D01*
X91463045Y-50708802D01*
X91462967Y-50714397D01*
X91462999Y-50714548D01*
X91462999Y-50885452D01*
X91460409Y-50897639D01*
X91460182Y-50913864D01*
X91441465Y-50986760D01*
X91427468Y-51052613D01*
X91420592Y-51068058D01*
X91414822Y-51090529D01*
X91383142Y-51152172D01*
X91357956Y-51208741D01*
X91344675Y-51227020D01*
X91331450Y-51252754D01*
X91290661Y-51301364D01*
X91257506Y-51346998D01*
X91236496Y-51365916D01*
X91214208Y-51392477D01*
X91168271Y-51427345D01*
X91130499Y-51461355D01*
X91101113Y-51478321D01*
X91068925Y-51502753D01*
X91021659Y-51524194D01*
X90982500Y-51546802D01*
X90944852Y-51559035D01*
X90902820Y-51578101D01*
X90857610Y-51587381D01*
X90819962Y-51599614D01*
X90774993Y-51604341D01*
X90724151Y-51614777D01*
X90683750Y-51613931D01*
X90650000Y-51617478D01*
X90599448Y-51612165D01*
X90541795Y-51610957D01*
X90508152Y-51602569D01*
X90480038Y-51599614D01*
X90426402Y-51582186D01*
X90364818Y-51566832D01*
X90338985Y-51553783D01*
X90317500Y-51546802D01*
X90263882Y-51515845D01*
X90202014Y-51484594D01*
X90184138Y-51469806D01*
X90169501Y-51461355D01*
X90119478Y-51416315D01*
X90061476Y-51368331D01*
X90050822Y-51354497D01*
X90042494Y-51346998D01*
X89999898Y-51288369D01*
X89950189Y-51223821D01*
X89945278Y-51213192D01*
X89942044Y-51208741D01*
X89910920Y-51138834D01*
X89873683Y-51058246D01*
X89835761Y-50879837D01*
X89837001Y-50791012D01*
X89837001Y-50714548D01*
X89838143Y-50709173D01*
X89838307Y-50697459D01*
X89857469Y-50618253D01*
X89872532Y-50547387D01*
X89877090Y-50537149D01*
X89881196Y-50520178D01*
X89914660Y-50452766D01*
X89942044Y-50391259D01*
X89951982Y-50377581D01*
X89962295Y-50356805D01*
X90006093Y-50303103D01*
X90042494Y-50253002D01*
X90059286Y-50237883D01*
X90077575Y-50215458D01*
X90127586Y-50176385D01*
X90169501Y-50138645D01*
X90193983Y-50124510D01*
X90221304Y-50103165D01*
X90273480Y-50078613D01*
X90317500Y-50053198D01*
X90349775Y-50042711D01*
X90386340Y-50025505D01*
X90437032Y-50014360D01*
X90480038Y-50000386D01*
X90519408Y-49996248D01*
X90564481Y-49986338D01*
X90610629Y-49986660D01*
X90650000Y-49982522D01*
X90694971Y-49987249D01*
X90694971Y-49987249D01*
G37*
G36*
X165147976Y-48177826D02*
G01*
X165189766Y-48175782D01*
X165234056Y-48182639D01*
X165284810Y-48185476D01*
X165325163Y-48196743D01*
X165360621Y-48202232D01*
X165408204Y-48219928D01*
X165462898Y-48235199D01*
X165494622Y-48252067D01*
X165522659Y-48262494D01*
X165570757Y-48292549D01*
X165626153Y-48322004D01*
X165648968Y-48341421D01*
X165669271Y-48354108D01*
X165714641Y-48397313D01*
X165766961Y-48441841D01*
X165781463Y-48460947D01*
X165794472Y-48473335D01*
X165833616Y-48529655D01*
X165878751Y-48589118D01*
X165886302Y-48605459D01*
X165893142Y-48615301D01*
X165922508Y-48683817D01*
X165956307Y-48756965D01*
X165958885Y-48768692D01*
X165961247Y-48774202D01*
X165977429Y-48853036D01*
X165996011Y-48937551D01*
X165995345Y-49128388D01*
X165976181Y-49212738D01*
X165959443Y-49291485D01*
X165957041Y-49296982D01*
X165954381Y-49308692D01*
X165920069Y-49381609D01*
X165890227Y-49449915D01*
X165883318Y-49459709D01*
X165875655Y-49475994D01*
X165830114Y-49535130D01*
X165790570Y-49591187D01*
X165777472Y-49603487D01*
X165762840Y-49622487D01*
X165710227Y-49666635D01*
X165664544Y-49709534D01*
X165644147Y-49722082D01*
X165621199Y-49741338D01*
X165565600Y-49770405D01*
X165517293Y-49800123D01*
X165489184Y-49810354D01*
X165457341Y-49827001D01*
X165402534Y-49841892D01*
X165354831Y-49859254D01*
X165319340Y-49864495D01*
X165278911Y-49875479D01*
X165228139Y-49877962D01*
X165183803Y-49884509D01*
X165142027Y-49882174D01*
X165094233Y-49884511D01*
X165049992Y-49877028D01*
X165011189Y-49874859D01*
X164964980Y-49862650D01*
X164911923Y-49853676D01*
X164875839Y-49839097D01*
X164844035Y-49830694D01*
X164795897Y-49806799D01*
X164740488Y-49784412D01*
X164713311Y-49765804D01*
X164689182Y-49753826D01*
X164642128Y-49717063D01*
X164587926Y-49679950D01*
X164569469Y-49660295D01*
X164552950Y-49647389D01*
X164510400Y-49597393D01*
X164461354Y-49545164D01*
X164450608Y-49527138D01*
X164440896Y-49515726D01*
X164406401Y-49452981D01*
X164366678Y-49386344D01*
X164361943Y-49372111D01*
X164357610Y-49364229D01*
X164334692Y-49290192D01*
X164308314Y-49210898D01*
X164307372Y-49201934D01*
X164306486Y-49199072D01*
X164298347Y-49116068D01*
X164288987Y-49027012D01*
X164298967Y-48938044D01*
X164307687Y-48855078D01*
X164308593Y-48852220D01*
X164309598Y-48843265D01*
X164336530Y-48764153D01*
X164359963Y-48690281D01*
X164364350Y-48682432D01*
X164369184Y-48668231D01*
X164409382Y-48601857D01*
X164444304Y-48539371D01*
X164454092Y-48528031D01*
X164464967Y-48510075D01*
X164514385Y-48458181D01*
X164557273Y-48408495D01*
X164573879Y-48395707D01*
X164592477Y-48376177D01*
X164646952Y-48339433D01*
X164694250Y-48303009D01*
X164718458Y-48291202D01*
X164745765Y-48272783D01*
X164801319Y-48250787D01*
X164849633Y-48227223D01*
X164881503Y-48219040D01*
X164917679Y-48204717D01*
X164970795Y-48196114D01*
X165017088Y-48184228D01*
X165055903Y-48182330D01*
X165100199Y-48175155D01*
X165147976Y-48177826D01*
X165147976Y-48177826D01*
G37*
G36*
X167687976Y-48177826D02*
G01*
X167729766Y-48175782D01*
X167774056Y-48182639D01*
X167824810Y-48185476D01*
X167865163Y-48196743D01*
X167900621Y-48202232D01*
X167948204Y-48219928D01*
X168002898Y-48235199D01*
X168034622Y-48252067D01*
X168062659Y-48262494D01*
X168110757Y-48292549D01*
X168166153Y-48322004D01*
X168188968Y-48341421D01*
X168209271Y-48354108D01*
X168254641Y-48397313D01*
X168306961Y-48441841D01*
X168321463Y-48460947D01*
X168334472Y-48473335D01*
X168373616Y-48529655D01*
X168418751Y-48589118D01*
X168426302Y-48605459D01*
X168433142Y-48615301D01*
X168462508Y-48683817D01*
X168496307Y-48756965D01*
X168498885Y-48768692D01*
X168501247Y-48774202D01*
X168517429Y-48853036D01*
X168536011Y-48937551D01*
X168535345Y-49128388D01*
X168516181Y-49212738D01*
X168499443Y-49291485D01*
X168497041Y-49296982D01*
X168494381Y-49308692D01*
X168460069Y-49381609D01*
X168430227Y-49449915D01*
X168423318Y-49459709D01*
X168415655Y-49475994D01*
X168370114Y-49535130D01*
X168330570Y-49591187D01*
X168317472Y-49603487D01*
X168302840Y-49622487D01*
X168250227Y-49666635D01*
X168204544Y-49709534D01*
X168184147Y-49722082D01*
X168161199Y-49741338D01*
X168105600Y-49770405D01*
X168057293Y-49800123D01*
X168029184Y-49810354D01*
X167997341Y-49827001D01*
X167942534Y-49841892D01*
X167894831Y-49859254D01*
X167859340Y-49864495D01*
X167818911Y-49875479D01*
X167768139Y-49877962D01*
X167723803Y-49884509D01*
X167682027Y-49882174D01*
X167634233Y-49884511D01*
X167589992Y-49877028D01*
X167551189Y-49874859D01*
X167504980Y-49862650D01*
X167451923Y-49853676D01*
X167415839Y-49839097D01*
X167384035Y-49830694D01*
X167335897Y-49806799D01*
X167280488Y-49784412D01*
X167253311Y-49765804D01*
X167229182Y-49753826D01*
X167182128Y-49717063D01*
X167127926Y-49679950D01*
X167109469Y-49660295D01*
X167092950Y-49647389D01*
X167050400Y-49597393D01*
X167001354Y-49545164D01*
X166990608Y-49527138D01*
X166980896Y-49515726D01*
X166946401Y-49452981D01*
X166906678Y-49386344D01*
X166901943Y-49372111D01*
X166897610Y-49364229D01*
X166874692Y-49290192D01*
X166848314Y-49210898D01*
X166847372Y-49201934D01*
X166846486Y-49199072D01*
X166838347Y-49116068D01*
X166828987Y-49027012D01*
X166838967Y-48938044D01*
X166847687Y-48855078D01*
X166848593Y-48852220D01*
X166849598Y-48843265D01*
X166876530Y-48764153D01*
X166899963Y-48690281D01*
X166904350Y-48682432D01*
X166909184Y-48668231D01*
X166949382Y-48601857D01*
X166984304Y-48539371D01*
X166994092Y-48528031D01*
X167004967Y-48510075D01*
X167054385Y-48458181D01*
X167097273Y-48408495D01*
X167113879Y-48395707D01*
X167132477Y-48376177D01*
X167186952Y-48339433D01*
X167234250Y-48303009D01*
X167258458Y-48291202D01*
X167285765Y-48272783D01*
X167341319Y-48250787D01*
X167389633Y-48227223D01*
X167421503Y-48219040D01*
X167457679Y-48204717D01*
X167510795Y-48196114D01*
X167557088Y-48184228D01*
X167595903Y-48182330D01*
X167640199Y-48175155D01*
X167687976Y-48177826D01*
X167687976Y-48177826D01*
G37*
G36*
X91431899Y-47449959D02*
G01*
X91448769Y-47461231D01*
X91460041Y-47478101D01*
X91466448Y-47510312D01*
X91466448Y-49009688D01*
X91460041Y-49041899D01*
X91448769Y-49058769D01*
X91431899Y-49070041D01*
X91412000Y-49073999D01*
X91399688Y-49076448D01*
X89900312Y-49076448D01*
X89868101Y-49070041D01*
X89851231Y-49058769D01*
X89839959Y-49041899D01*
X89833552Y-49009688D01*
X89833552Y-47510312D01*
X89839959Y-47478101D01*
X89851231Y-47461231D01*
X89868101Y-47449959D01*
X89900312Y-47443552D01*
X91399688Y-47443552D01*
X91431899Y-47449959D01*
X91431899Y-47449959D01*
G37*
G36*
X166601864Y-41647535D02*
G01*
X166656487Y-41646581D01*
X166760543Y-41657518D01*
X166865357Y-41664112D01*
X166916983Y-41673960D01*
X166966836Y-41679200D01*
X167073308Y-41703781D01*
X167180662Y-41724260D01*
X167226442Y-41739135D01*
X167270897Y-41749398D01*
X167377958Y-41788365D01*
X167485942Y-41823451D01*
X167525504Y-41842067D01*
X167564146Y-41856132D01*
X167669869Y-41910001D01*
X167776383Y-41960122D01*
X167809555Y-41981174D01*
X167842194Y-41997804D01*
X167944555Y-42066848D01*
X168047404Y-42132118D01*
X168074261Y-42154336D01*
X168100901Y-42172305D01*
X168197757Y-42256500D01*
X168294732Y-42336725D01*
X168315562Y-42358907D01*
X168336422Y-42377040D01*
X168425665Y-42476155D01*
X168514465Y-42570717D01*
X168529741Y-42591743D01*
X168545229Y-42608944D01*
X168624764Y-42722531D01*
X168703138Y-42830404D01*
X168713516Y-42849281D01*
X168724222Y-42864571D01*
X168791989Y-42992023D01*
X168857777Y-43111690D01*
X168864075Y-43127598D01*
X168870725Y-43140104D01*
X168924764Y-43280879D01*
X168975941Y-43410139D01*
X168979091Y-43422406D01*
X168982560Y-43431444D01*
X169021111Y-43586066D01*
X169055768Y-43721045D01*
X169056798Y-43729199D01*
X169058054Y-43734236D01*
X169079511Y-43908992D01*
X169095999Y-44039505D01*
X169095999Y-44360495D01*
X169085345Y-44444834D01*
X169084137Y-44490948D01*
X169067851Y-44583311D01*
X169055768Y-44678955D01*
X169040501Y-44738415D01*
X169030232Y-44796654D01*
X169000992Y-44892294D01*
X168975941Y-44989861D01*
X168954966Y-45042837D01*
X168938995Y-45095077D01*
X168896441Y-45190656D01*
X168857777Y-45288310D01*
X168832458Y-45334365D01*
X168812068Y-45380162D01*
X168755781Y-45473839D01*
X168703138Y-45569596D01*
X168674849Y-45608533D01*
X168651343Y-45647653D01*
X168581181Y-45737456D01*
X168514465Y-45829283D01*
X168484542Y-45861148D01*
X168459225Y-45893552D01*
X168375327Y-45977450D01*
X168294732Y-46063275D01*
X168264454Y-46088323D01*
X168238552Y-46114225D01*
X168141253Y-46190244D01*
X168047404Y-46267882D01*
X168017981Y-46286554D01*
X167992653Y-46306343D01*
X167882621Y-46372457D01*
X167776383Y-46439878D01*
X167748856Y-46452831D01*
X167725162Y-46467068D01*
X167603322Y-46521314D01*
X167485942Y-46576549D01*
X167461220Y-46584582D01*
X167440077Y-46593995D01*
X167307511Y-46634524D01*
X167180662Y-46675740D01*
X167159492Y-46679778D01*
X167141654Y-46685232D01*
X166999551Y-46710289D01*
X166865357Y-46735888D01*
X166848281Y-46736962D01*
X166834332Y-46739422D01*
X166683751Y-46747314D01*
X166545000Y-46756043D01*
X166532359Y-46755248D01*
X166522698Y-46755754D01*
X166363827Y-46744645D01*
X166224643Y-46735888D01*
X166216565Y-46734347D01*
X166211387Y-46733985D01*
X166038581Y-46700394D01*
X165909338Y-46675740D01*
X165905753Y-46674575D01*
X165905068Y-46674442D01*
X165608274Y-46578008D01*
X165607644Y-46577714D01*
X165604058Y-46576549D01*
X165484856Y-46520457D01*
X165325454Y-46446126D01*
X165321061Y-46443381D01*
X165313617Y-46439878D01*
X165195860Y-46365147D01*
X165060808Y-46280757D01*
X165053288Y-46274667D01*
X165042596Y-46267882D01*
X164935514Y-46179297D01*
X164818298Y-46084377D01*
X164808455Y-46074184D01*
X164795268Y-46063275D01*
X164701744Y-45963682D01*
X164601514Y-45859891D01*
X164590287Y-45844992D01*
X164575535Y-45829283D01*
X164497157Y-45721405D01*
X164413711Y-45610668D01*
X164402134Y-45590617D01*
X164386862Y-45569596D01*
X164324377Y-45455937D01*
X164257680Y-45340414D01*
X164246880Y-45314971D01*
X164232223Y-45288310D01*
X164185899Y-45171308D01*
X164135750Y-45053165D01*
X164126892Y-45022273D01*
X164114059Y-44989861D01*
X164083765Y-44871873D01*
X164049731Y-44753184D01*
X164044000Y-44716998D01*
X164034232Y-44678955D01*
X164019483Y-44562202D01*
X164000915Y-44444970D01*
X163999480Y-44403863D01*
X163994001Y-44360495D01*
X163994001Y-44246960D01*
X163990025Y-44133091D01*
X163994001Y-44087644D01*
X163994001Y-44039505D01*
X164007698Y-43931081D01*
X164017222Y-43822221D01*
X164027646Y-43773182D01*
X164034232Y-43721045D01*
X164060346Y-43619338D01*
X164082102Y-43516983D01*
X164099891Y-43465320D01*
X164114059Y-43410139D01*
X164151136Y-43316493D01*
X164183702Y-43221914D01*
X164209629Y-43168755D01*
X164232223Y-43111690D01*
X164278659Y-43027224D01*
X164320499Y-42941439D01*
X164355173Y-42888046D01*
X164386862Y-42830404D01*
X164440969Y-42755932D01*
X164490459Y-42679724D01*
X164534277Y-42627504D01*
X164575535Y-42570717D01*
X164635587Y-42506768D01*
X164691051Y-42440669D01*
X164744201Y-42391105D01*
X164795268Y-42336725D01*
X164859499Y-42283589D01*
X164919281Y-42227841D01*
X164981746Y-42182458D01*
X165042596Y-42132118D01*
X165109274Y-42089803D01*
X165171739Y-42044419D01*
X165243232Y-42004790D01*
X165313617Y-41960122D01*
X165381119Y-41928358D01*
X165444683Y-41893124D01*
X165524683Y-41860802D01*
X165604058Y-41823451D01*
X165670822Y-41801758D01*
X165734014Y-41776227D01*
X165821764Y-41752714D01*
X165909338Y-41724260D01*
X165973970Y-41711931D01*
X166035443Y-41695459D01*
X166129923Y-41682181D01*
X166224643Y-41664112D01*
X166285926Y-41660256D01*
X166344475Y-41652028D01*
X166444458Y-41650283D01*
X166545000Y-41643957D01*
X166601864Y-41647535D01*
X166601864Y-41647535D01*
G37*
G36*
X89121864Y-41647535D02*
G01*
X89176487Y-41646581D01*
X89280543Y-41657518D01*
X89385357Y-41664112D01*
X89436983Y-41673960D01*
X89486836Y-41679200D01*
X89593308Y-41703781D01*
X89700662Y-41724260D01*
X89746442Y-41739135D01*
X89790897Y-41749398D01*
X89897958Y-41788365D01*
X90005942Y-41823451D01*
X90045504Y-41842067D01*
X90084146Y-41856132D01*
X90189869Y-41910001D01*
X90296383Y-41960122D01*
X90329555Y-41981174D01*
X90362194Y-41997804D01*
X90464555Y-42066848D01*
X90567404Y-42132118D01*
X90594261Y-42154336D01*
X90620901Y-42172305D01*
X90717757Y-42256500D01*
X90814732Y-42336725D01*
X90835562Y-42358907D01*
X90856422Y-42377040D01*
X90945665Y-42476155D01*
X91034465Y-42570717D01*
X91049741Y-42591743D01*
X91065229Y-42608944D01*
X91144764Y-42722531D01*
X91223138Y-42830404D01*
X91233516Y-42849281D01*
X91244222Y-42864571D01*
X91311989Y-42992023D01*
X91377777Y-43111690D01*
X91384075Y-43127598D01*
X91390725Y-43140104D01*
X91444764Y-43280879D01*
X91495941Y-43410139D01*
X91499091Y-43422406D01*
X91502560Y-43431444D01*
X91541111Y-43586066D01*
X91575768Y-43721045D01*
X91576798Y-43729199D01*
X91578054Y-43734236D01*
X91599511Y-43908992D01*
X91615999Y-44039505D01*
X91615999Y-44360495D01*
X91605345Y-44444834D01*
X91604137Y-44490948D01*
X91587851Y-44583311D01*
X91575768Y-44678955D01*
X91560501Y-44738415D01*
X91550232Y-44796654D01*
X91520992Y-44892294D01*
X91495941Y-44989861D01*
X91474966Y-45042837D01*
X91458995Y-45095077D01*
X91416441Y-45190656D01*
X91377777Y-45288310D01*
X91352458Y-45334365D01*
X91332068Y-45380162D01*
X91275781Y-45473839D01*
X91223138Y-45569596D01*
X91194849Y-45608533D01*
X91171343Y-45647653D01*
X91101181Y-45737456D01*
X91034465Y-45829283D01*
X91004542Y-45861148D01*
X90979225Y-45893552D01*
X90895327Y-45977450D01*
X90814732Y-46063275D01*
X90784454Y-46088323D01*
X90758552Y-46114225D01*
X90661253Y-46190244D01*
X90567404Y-46267882D01*
X90537981Y-46286554D01*
X90512653Y-46306343D01*
X90402621Y-46372457D01*
X90296383Y-46439878D01*
X90268856Y-46452831D01*
X90245162Y-46467068D01*
X90123322Y-46521314D01*
X90005942Y-46576549D01*
X89981220Y-46584582D01*
X89960077Y-46593995D01*
X89827511Y-46634524D01*
X89700662Y-46675740D01*
X89679492Y-46679778D01*
X89661654Y-46685232D01*
X89519551Y-46710289D01*
X89385357Y-46735888D01*
X89368281Y-46736962D01*
X89354332Y-46739422D01*
X89203751Y-46747314D01*
X89065000Y-46756043D01*
X89052359Y-46755248D01*
X89042698Y-46755754D01*
X88883827Y-46744645D01*
X88744643Y-46735888D01*
X88736565Y-46734347D01*
X88731387Y-46733985D01*
X88558581Y-46700394D01*
X88429338Y-46675740D01*
X88425753Y-46674575D01*
X88425068Y-46674442D01*
X88128274Y-46578008D01*
X88127644Y-46577714D01*
X88124058Y-46576549D01*
X88004856Y-46520457D01*
X87845454Y-46446126D01*
X87841061Y-46443381D01*
X87833617Y-46439878D01*
X87715860Y-46365147D01*
X87580808Y-46280757D01*
X87573288Y-46274667D01*
X87562596Y-46267882D01*
X87455514Y-46179297D01*
X87338298Y-46084377D01*
X87328455Y-46074184D01*
X87315268Y-46063275D01*
X87221744Y-45963682D01*
X87121514Y-45859891D01*
X87110287Y-45844992D01*
X87095535Y-45829283D01*
X87017157Y-45721405D01*
X86933711Y-45610668D01*
X86922134Y-45590617D01*
X86906862Y-45569596D01*
X86844377Y-45455937D01*
X86777680Y-45340414D01*
X86766880Y-45314971D01*
X86752223Y-45288310D01*
X86705899Y-45171308D01*
X86655750Y-45053165D01*
X86646892Y-45022273D01*
X86634059Y-44989861D01*
X86603765Y-44871873D01*
X86569731Y-44753184D01*
X86564000Y-44716998D01*
X86554232Y-44678955D01*
X86539483Y-44562202D01*
X86520915Y-44444970D01*
X86519480Y-44403863D01*
X86514001Y-44360495D01*
X86514001Y-44246960D01*
X86510025Y-44133091D01*
X86514001Y-44087644D01*
X86514001Y-44039505D01*
X86527698Y-43931081D01*
X86537222Y-43822221D01*
X86547646Y-43773182D01*
X86554232Y-43721045D01*
X86580346Y-43619338D01*
X86602102Y-43516983D01*
X86619891Y-43465320D01*
X86634059Y-43410139D01*
X86671136Y-43316493D01*
X86703702Y-43221914D01*
X86729629Y-43168755D01*
X86752223Y-43111690D01*
X86798659Y-43027224D01*
X86840499Y-42941439D01*
X86875173Y-42888046D01*
X86906862Y-42830404D01*
X86960969Y-42755932D01*
X87010459Y-42679724D01*
X87054277Y-42627504D01*
X87095535Y-42570717D01*
X87155587Y-42506768D01*
X87211051Y-42440669D01*
X87264201Y-42391105D01*
X87315268Y-42336725D01*
X87379499Y-42283589D01*
X87439281Y-42227841D01*
X87501746Y-42182458D01*
X87562596Y-42132118D01*
X87629274Y-42089803D01*
X87691739Y-42044419D01*
X87763232Y-42004790D01*
X87833617Y-41960122D01*
X87901119Y-41928358D01*
X87964683Y-41893124D01*
X88044683Y-41860802D01*
X88124058Y-41823451D01*
X88190822Y-41801758D01*
X88254014Y-41776227D01*
X88341764Y-41752714D01*
X88429338Y-41724260D01*
X88493970Y-41711931D01*
X88555443Y-41695459D01*
X88649923Y-41682181D01*
X88744643Y-41664112D01*
X88805926Y-41660256D01*
X88864475Y-41652028D01*
X88964458Y-41650283D01*
X89065000Y-41643957D01*
X89121864Y-41647535D01*
X89121864Y-41647535D01*
G37*
G36*
X94429463Y-44163394D02*
G01*
X94486602Y-44184191D01*
X94516554Y-44189905D01*
X94544481Y-44205258D01*
X94566293Y-44213197D01*
X94609086Y-44240775D01*
X94660689Y-44269144D01*
X94677276Y-44284720D01*
X94689058Y-44292313D01*
X94731333Y-44335483D01*
X94780591Y-44381739D01*
X94787884Y-44393231D01*
X94791247Y-44396665D01*
X94828768Y-44457654D01*
X94868724Y-44520615D01*
X94891754Y-44591494D01*
X94914844Y-44659321D01*
X94915347Y-44664106D01*
X94919551Y-44677045D01*
X94923793Y-44744466D01*
X94930110Y-44804572D01*
X94928450Y-44818492D01*
X94929879Y-44841202D01*
X94918845Y-44899045D01*
X94912817Y-44949599D01*
X94905030Y-44971467D01*
X94899059Y-45002769D01*
X94877787Y-45047975D01*
X94863823Y-45087189D01*
X94846457Y-45114553D01*
X94829026Y-45151596D01*
X94802930Y-45183140D01*
X94785564Y-45210505D01*
X94756026Y-45239838D01*
X94724182Y-45278330D01*
X94698403Y-45297060D01*
X94681931Y-45313417D01*
X94638757Y-45340395D01*
X94591114Y-45375010D01*
X94569955Y-45383387D01*
X94558070Y-45390814D01*
X94501010Y-45410685D01*
X94438184Y-45435559D01*
X94424683Y-45437265D01*
X94420142Y-45438846D01*
X94348983Y-45446828D01*
X94315956Y-45451000D01*
X93691252Y-45451000D01*
X93570537Y-45436606D01*
X93513398Y-45415809D01*
X93483446Y-45410095D01*
X93455519Y-45394742D01*
X93433707Y-45386803D01*
X93390914Y-45359225D01*
X93339311Y-45330856D01*
X93322724Y-45315280D01*
X93310942Y-45307687D01*
X93268667Y-45264517D01*
X93219409Y-45218261D01*
X93212116Y-45206769D01*
X93208753Y-45203335D01*
X93171232Y-45142346D01*
X93131276Y-45079385D01*
X93108246Y-45008506D01*
X93085156Y-44940679D01*
X93084653Y-44935894D01*
X93080449Y-44922955D01*
X93076207Y-44855534D01*
X93069890Y-44795428D01*
X93071550Y-44781508D01*
X93070121Y-44758798D01*
X93081155Y-44700955D01*
X93087183Y-44650401D01*
X93094970Y-44628533D01*
X93100941Y-44597231D01*
X93122213Y-44552025D01*
X93136177Y-44512811D01*
X93153543Y-44485447D01*
X93170974Y-44448404D01*
X93197070Y-44416860D01*
X93214436Y-44389495D01*
X93243974Y-44360162D01*
X93275818Y-44321670D01*
X93301597Y-44302940D01*
X93318069Y-44286583D01*
X93361243Y-44259605D01*
X93408886Y-44224990D01*
X93430045Y-44216613D01*
X93441930Y-44209186D01*
X93498990Y-44189315D01*
X93561816Y-44164441D01*
X93575317Y-44162735D01*
X93579858Y-44161154D01*
X93651017Y-44153172D01*
X93684044Y-44149000D01*
X94308748Y-44149000D01*
X94429463Y-44163394D01*
X94429463Y-44163394D01*
G37*
G36*
X143819899Y-41551959D02*
G01*
X143836769Y-41563231D01*
X143848041Y-41580101D01*
X143854448Y-41612312D01*
X143854448Y-44087688D01*
X143851999Y-44100000D01*
X143848041Y-44119899D01*
X143836769Y-44136769D01*
X143819899Y-44148041D01*
X143800000Y-44151999D01*
X143787688Y-44154448D01*
X142512312Y-44154448D01*
X142480101Y-44148041D01*
X142463231Y-44136769D01*
X142451959Y-44119899D01*
X142445552Y-44087688D01*
X142445552Y-41612312D01*
X142451959Y-41580101D01*
X142463231Y-41563231D01*
X142480101Y-41551959D01*
X142512312Y-41545552D01*
X143787688Y-41545552D01*
X143819899Y-41551959D01*
X143819899Y-41551959D01*
G37*
G36*
X151819899Y-41551959D02*
G01*
X151836769Y-41563231D01*
X151848041Y-41580101D01*
X151854448Y-41612312D01*
X151854448Y-44087688D01*
X151851999Y-44100000D01*
X151848041Y-44119899D01*
X151836769Y-44136769D01*
X151819899Y-44148041D01*
X151800000Y-44151999D01*
X151787688Y-44154448D01*
X150512312Y-44154448D01*
X150480101Y-44148041D01*
X150463231Y-44136769D01*
X150451959Y-44119899D01*
X150445552Y-44087688D01*
X150445552Y-41612312D01*
X150451959Y-41580101D01*
X150463231Y-41563231D01*
X150480101Y-41551959D01*
X150512312Y-41545552D01*
X151787688Y-41545552D01*
X151819899Y-41551959D01*
X151819899Y-41551959D01*
G37*
G36*
X149819899Y-41551959D02*
G01*
X149836769Y-41563231D01*
X149848041Y-41580101D01*
X149854448Y-41612312D01*
X149854448Y-44087688D01*
X149851999Y-44100000D01*
X149848041Y-44119899D01*
X149836769Y-44136769D01*
X149819899Y-44148041D01*
X149800000Y-44151999D01*
X149787688Y-44154448D01*
X148512312Y-44154448D01*
X148480101Y-44148041D01*
X148463231Y-44136769D01*
X148451959Y-44119899D01*
X148445552Y-44087688D01*
X148445552Y-41612312D01*
X148451959Y-41580101D01*
X148463231Y-41563231D01*
X148480101Y-41551959D01*
X148512312Y-41545552D01*
X149787688Y-41545552D01*
X149819899Y-41551959D01*
X149819899Y-41551959D01*
G37*
G36*
X147819899Y-41551959D02*
G01*
X147836769Y-41563231D01*
X147848041Y-41580101D01*
X147854448Y-41612312D01*
X147854448Y-44087688D01*
X147851999Y-44100000D01*
X147848041Y-44119899D01*
X147836769Y-44136769D01*
X147819899Y-44148041D01*
X147800000Y-44151999D01*
X147787688Y-44154448D01*
X146512312Y-44154448D01*
X146480101Y-44148041D01*
X146463231Y-44136769D01*
X146451959Y-44119899D01*
X146445552Y-44087688D01*
X146445552Y-41612312D01*
X146451959Y-41580101D01*
X146463231Y-41563231D01*
X146480101Y-41551959D01*
X146512312Y-41545552D01*
X147787688Y-41545552D01*
X147819899Y-41551959D01*
X147819899Y-41551959D01*
G37*
G36*
X145819899Y-41551959D02*
G01*
X145836769Y-41563231D01*
X145848041Y-41580101D01*
X145854448Y-41612312D01*
X145854448Y-44087688D01*
X145851999Y-44100000D01*
X145848041Y-44119899D01*
X145836769Y-44136769D01*
X145819899Y-44148041D01*
X145800000Y-44151999D01*
X145787688Y-44154448D01*
X144512312Y-44154448D01*
X144480101Y-44148041D01*
X144463231Y-44136769D01*
X144451959Y-44119899D01*
X144445552Y-44087688D01*
X144445552Y-41612312D01*
X144451959Y-41580101D01*
X144463231Y-41563231D01*
X144480101Y-41551959D01*
X144512312Y-41545552D01*
X145787688Y-41545552D01*
X145819899Y-41551959D01*
X145819899Y-41551959D01*
G37*
G36*
X141819899Y-41551959D02*
G01*
X141836769Y-41563231D01*
X141848041Y-41580101D01*
X141854448Y-41612312D01*
X141854448Y-44087688D01*
X141851999Y-44100000D01*
X141848041Y-44119899D01*
X141836769Y-44136769D01*
X141819899Y-44148041D01*
X141800000Y-44151999D01*
X141787688Y-44154448D01*
X140512312Y-44154448D01*
X140480101Y-44148041D01*
X140463231Y-44136769D01*
X140451959Y-44119899D01*
X140445552Y-44087688D01*
X140445552Y-41612312D01*
X140451959Y-41580101D01*
X140463231Y-41563231D01*
X140480101Y-41551959D01*
X140512312Y-41545552D01*
X141787688Y-41545552D01*
X141819899Y-41551959D01*
X141819899Y-41551959D01*
G37*
G36*
X139819899Y-41551959D02*
G01*
X139836769Y-41563231D01*
X139848041Y-41580101D01*
X139854448Y-41612312D01*
X139854448Y-44087688D01*
X139851999Y-44100000D01*
X139848041Y-44119899D01*
X139836769Y-44136769D01*
X139819899Y-44148041D01*
X139800000Y-44151999D01*
X139787688Y-44154448D01*
X138512312Y-44154448D01*
X138480101Y-44148041D01*
X138463231Y-44136769D01*
X138451959Y-44119899D01*
X138445552Y-44087688D01*
X138445552Y-41612312D01*
X138451959Y-41580101D01*
X138463231Y-41563231D01*
X138480101Y-41551959D01*
X138512312Y-41545552D01*
X139787688Y-41545552D01*
X139819899Y-41551959D01*
X139819899Y-41551959D01*
G37*
G36*
X153819899Y-41551959D02*
G01*
X153836769Y-41563231D01*
X153848041Y-41580101D01*
X153854448Y-41612312D01*
X153854448Y-44087688D01*
X153851999Y-44100000D01*
X153848041Y-44119899D01*
X153836769Y-44136769D01*
X153819899Y-44148041D01*
X153800000Y-44151999D01*
X153787688Y-44154448D01*
X152512312Y-44154448D01*
X152480101Y-44148041D01*
X152463231Y-44136769D01*
X152451959Y-44119899D01*
X152445552Y-44087688D01*
X152445552Y-41612312D01*
X152451959Y-41580101D01*
X152463231Y-41563231D01*
X152480101Y-41551959D01*
X152512312Y-41545552D01*
X153787688Y-41545552D01*
X153819899Y-41551959D01*
X153819899Y-41551959D01*
G37*
G36*
X94711756Y-42161764D02*
G01*
X94723227Y-42167288D01*
X94731287Y-42168795D01*
X94748547Y-42179482D01*
X94793638Y-42201197D01*
X94813738Y-42219847D01*
X94826964Y-42228036D01*
X94837265Y-42241676D01*
X94860264Y-42263016D01*
X94882614Y-42301727D01*
X94894781Y-42317839D01*
X94896751Y-42326213D01*
X94904506Y-42339646D01*
X94923419Y-42439601D01*
X94926883Y-42454330D01*
X94926883Y-42457909D01*
X94928194Y-42464838D01*
X94928194Y-43137517D01*
X94913236Y-43236756D01*
X94907712Y-43248227D01*
X94906205Y-43256287D01*
X94895518Y-43273547D01*
X94873803Y-43318638D01*
X94855153Y-43338738D01*
X94846964Y-43351964D01*
X94833324Y-43362265D01*
X94811984Y-43385264D01*
X94773273Y-43407614D01*
X94757161Y-43419781D01*
X94748787Y-43421751D01*
X94735354Y-43429506D01*
X94635399Y-43448419D01*
X94620670Y-43451883D01*
X94617091Y-43451883D01*
X94610162Y-43453194D01*
X93387483Y-43453194D01*
X93288244Y-43438236D01*
X93276773Y-43432712D01*
X93268713Y-43431205D01*
X93251453Y-43420518D01*
X93206362Y-43398803D01*
X93186262Y-43380153D01*
X93173036Y-43371964D01*
X93162735Y-43358324D01*
X93139736Y-43336984D01*
X93117386Y-43298273D01*
X93105219Y-43282161D01*
X93103249Y-43273787D01*
X93095494Y-43260354D01*
X93076581Y-43160399D01*
X93073117Y-43145670D01*
X93073117Y-43142091D01*
X93071806Y-43135162D01*
X93071806Y-42462483D01*
X93086764Y-42363244D01*
X93092288Y-42351773D01*
X93093795Y-42343713D01*
X93104482Y-42326453D01*
X93126197Y-42281362D01*
X93144847Y-42261262D01*
X93153036Y-42248036D01*
X93166676Y-42237735D01*
X93188016Y-42214736D01*
X93226727Y-42192386D01*
X93242839Y-42180219D01*
X93251213Y-42178249D01*
X93264646Y-42170494D01*
X93364601Y-42151581D01*
X93379330Y-42148117D01*
X93382909Y-42148117D01*
X93389838Y-42146806D01*
X94612517Y-42146806D01*
X94711756Y-42161764D01*
X94711756Y-42161764D01*
G37*
G36*
X116164971Y-41657249D02*
G01*
X116216871Y-41657611D01*
X116256215Y-41666839D01*
X116289962Y-41670386D01*
X116338296Y-41686091D01*
X116394448Y-41699261D01*
X116425616Y-41714463D01*
X116452500Y-41723198D01*
X116501344Y-41751398D01*
X116558383Y-41779218D01*
X116580933Y-41797348D01*
X116600499Y-41808645D01*
X116646517Y-41850080D01*
X116700531Y-41893508D01*
X116714940Y-41911687D01*
X116727506Y-41923002D01*
X116767093Y-41977489D01*
X116813825Y-42036450D01*
X116821365Y-42052188D01*
X116827956Y-42061259D01*
X116857434Y-42127468D01*
X116892636Y-42200940D01*
X116895231Y-42212363D01*
X116897468Y-42217387D01*
X116913374Y-42292220D01*
X116933045Y-42378802D01*
X116932967Y-42384397D01*
X116932999Y-42384548D01*
X116932999Y-42555452D01*
X116930409Y-42567639D01*
X116930182Y-42583864D01*
X116911465Y-42656760D01*
X116897468Y-42722613D01*
X116890592Y-42738058D01*
X116884822Y-42760529D01*
X116853142Y-42822172D01*
X116827956Y-42878741D01*
X116814675Y-42897020D01*
X116801450Y-42922754D01*
X116760661Y-42971364D01*
X116727506Y-43016998D01*
X116706496Y-43035916D01*
X116684208Y-43062477D01*
X116638271Y-43097345D01*
X116600499Y-43131355D01*
X116571113Y-43148321D01*
X116538925Y-43172753D01*
X116491659Y-43194194D01*
X116452500Y-43216802D01*
X116414852Y-43229035D01*
X116372820Y-43248101D01*
X116327610Y-43257381D01*
X116289962Y-43269614D01*
X116244993Y-43274341D01*
X116194151Y-43284777D01*
X116153750Y-43283931D01*
X116120000Y-43287478D01*
X116069448Y-43282165D01*
X116011795Y-43280957D01*
X115978152Y-43272569D01*
X115950038Y-43269614D01*
X115896402Y-43252186D01*
X115834818Y-43236832D01*
X115808985Y-43223783D01*
X115787500Y-43216802D01*
X115733882Y-43185845D01*
X115672014Y-43154594D01*
X115654138Y-43139806D01*
X115639501Y-43131355D01*
X115589478Y-43086315D01*
X115531476Y-43038331D01*
X115520822Y-43024497D01*
X115512494Y-43016998D01*
X115469898Y-42958369D01*
X115420189Y-42893821D01*
X115415278Y-42883192D01*
X115412044Y-42878741D01*
X115380920Y-42808834D01*
X115343683Y-42728246D01*
X115305761Y-42549837D01*
X115307001Y-42461012D01*
X115307001Y-42384548D01*
X115308143Y-42379173D01*
X115308307Y-42367459D01*
X115327469Y-42288253D01*
X115342532Y-42217387D01*
X115347090Y-42207149D01*
X115351196Y-42190178D01*
X115384660Y-42122766D01*
X115412044Y-42061259D01*
X115421982Y-42047581D01*
X115432295Y-42026805D01*
X115476093Y-41973103D01*
X115512494Y-41923002D01*
X115529286Y-41907883D01*
X115547575Y-41885458D01*
X115597586Y-41846385D01*
X115639501Y-41808645D01*
X115663983Y-41794510D01*
X115691304Y-41773165D01*
X115743480Y-41748613D01*
X115787500Y-41723198D01*
X115819775Y-41712711D01*
X115856340Y-41695505D01*
X115907032Y-41684360D01*
X115950038Y-41670386D01*
X115989408Y-41666248D01*
X116034481Y-41656338D01*
X116080629Y-41656660D01*
X116120000Y-41652522D01*
X116164971Y-41657249D01*
X116164971Y-41657249D01*
G37*
G36*
X118704971Y-41657249D02*
G01*
X118756871Y-41657611D01*
X118796215Y-41666839D01*
X118829962Y-41670386D01*
X118878296Y-41686091D01*
X118934448Y-41699261D01*
X118965616Y-41714463D01*
X118992500Y-41723198D01*
X119041344Y-41751398D01*
X119098383Y-41779218D01*
X119120933Y-41797348D01*
X119140499Y-41808645D01*
X119186517Y-41850080D01*
X119240531Y-41893508D01*
X119254940Y-41911687D01*
X119267506Y-41923002D01*
X119307093Y-41977489D01*
X119353825Y-42036450D01*
X119361365Y-42052188D01*
X119367956Y-42061259D01*
X119397434Y-42127468D01*
X119432636Y-42200940D01*
X119435231Y-42212363D01*
X119437468Y-42217387D01*
X119453374Y-42292220D01*
X119473045Y-42378802D01*
X119472967Y-42384397D01*
X119472999Y-42384548D01*
X119472999Y-42555452D01*
X119470409Y-42567639D01*
X119470182Y-42583864D01*
X119451465Y-42656760D01*
X119437468Y-42722613D01*
X119430592Y-42738058D01*
X119424822Y-42760529D01*
X119393142Y-42822172D01*
X119367956Y-42878741D01*
X119354675Y-42897020D01*
X119341450Y-42922754D01*
X119300661Y-42971364D01*
X119267506Y-43016998D01*
X119246496Y-43035916D01*
X119224208Y-43062477D01*
X119178271Y-43097345D01*
X119140499Y-43131355D01*
X119111113Y-43148321D01*
X119078925Y-43172753D01*
X119031659Y-43194194D01*
X118992500Y-43216802D01*
X118954852Y-43229035D01*
X118912820Y-43248101D01*
X118867610Y-43257381D01*
X118829962Y-43269614D01*
X118784993Y-43274341D01*
X118734151Y-43284777D01*
X118693750Y-43283931D01*
X118660000Y-43287478D01*
X118609448Y-43282165D01*
X118551795Y-43280957D01*
X118518152Y-43272569D01*
X118490038Y-43269614D01*
X118436402Y-43252186D01*
X118374818Y-43236832D01*
X118348985Y-43223783D01*
X118327500Y-43216802D01*
X118273882Y-43185845D01*
X118212014Y-43154594D01*
X118194138Y-43139806D01*
X118179501Y-43131355D01*
X118129478Y-43086315D01*
X118071476Y-43038331D01*
X118060822Y-43024497D01*
X118052494Y-43016998D01*
X118009898Y-42958369D01*
X117960189Y-42893821D01*
X117955278Y-42883192D01*
X117952044Y-42878741D01*
X117920920Y-42808834D01*
X117883683Y-42728246D01*
X117845761Y-42549837D01*
X117847001Y-42461012D01*
X117847001Y-42384548D01*
X117848143Y-42379173D01*
X117848307Y-42367459D01*
X117867469Y-42288253D01*
X117882532Y-42217387D01*
X117887090Y-42207149D01*
X117891196Y-42190178D01*
X117924660Y-42122766D01*
X117952044Y-42061259D01*
X117961982Y-42047581D01*
X117972295Y-42026805D01*
X118016093Y-41973103D01*
X118052494Y-41923002D01*
X118069286Y-41907883D01*
X118087575Y-41885458D01*
X118137586Y-41846385D01*
X118179501Y-41808645D01*
X118203983Y-41794510D01*
X118231304Y-41773165D01*
X118283480Y-41748613D01*
X118327500Y-41723198D01*
X118359775Y-41712711D01*
X118396340Y-41695505D01*
X118447032Y-41684360D01*
X118490038Y-41670386D01*
X118529408Y-41666248D01*
X118574481Y-41656338D01*
X118620629Y-41656660D01*
X118660000Y-41652522D01*
X118704971Y-41657249D01*
X118704971Y-41657249D01*
G37*
G36*
X123784971Y-41657249D02*
G01*
X123836871Y-41657611D01*
X123876215Y-41666839D01*
X123909962Y-41670386D01*
X123958296Y-41686091D01*
X124014448Y-41699261D01*
X124045616Y-41714463D01*
X124072500Y-41723198D01*
X124121344Y-41751398D01*
X124178383Y-41779218D01*
X124200933Y-41797348D01*
X124220499Y-41808645D01*
X124266517Y-41850080D01*
X124320531Y-41893508D01*
X124334940Y-41911687D01*
X124347506Y-41923002D01*
X124387093Y-41977489D01*
X124433825Y-42036450D01*
X124441365Y-42052188D01*
X124447956Y-42061259D01*
X124477434Y-42127468D01*
X124512636Y-42200940D01*
X124515231Y-42212363D01*
X124517468Y-42217387D01*
X124533374Y-42292220D01*
X124553045Y-42378802D01*
X124552967Y-42384397D01*
X124552999Y-42384548D01*
X124552999Y-42555452D01*
X124550409Y-42567639D01*
X124550182Y-42583864D01*
X124531465Y-42656760D01*
X124517468Y-42722613D01*
X124510592Y-42738058D01*
X124504822Y-42760529D01*
X124473142Y-42822172D01*
X124447956Y-42878741D01*
X124434675Y-42897020D01*
X124421450Y-42922754D01*
X124380661Y-42971364D01*
X124347506Y-43016998D01*
X124326496Y-43035916D01*
X124304208Y-43062477D01*
X124258271Y-43097345D01*
X124220499Y-43131355D01*
X124191113Y-43148321D01*
X124158925Y-43172753D01*
X124111659Y-43194194D01*
X124072500Y-43216802D01*
X124034852Y-43229035D01*
X123992820Y-43248101D01*
X123947610Y-43257381D01*
X123909962Y-43269614D01*
X123864993Y-43274341D01*
X123814151Y-43284777D01*
X123773750Y-43283931D01*
X123740000Y-43287478D01*
X123689448Y-43282165D01*
X123631795Y-43280957D01*
X123598152Y-43272569D01*
X123570038Y-43269614D01*
X123516402Y-43252186D01*
X123454818Y-43236832D01*
X123428985Y-43223783D01*
X123407500Y-43216802D01*
X123353882Y-43185845D01*
X123292014Y-43154594D01*
X123274138Y-43139806D01*
X123259501Y-43131355D01*
X123209478Y-43086315D01*
X123151476Y-43038331D01*
X123140822Y-43024497D01*
X123132494Y-43016998D01*
X123089898Y-42958369D01*
X123040189Y-42893821D01*
X123035278Y-42883192D01*
X123032044Y-42878741D01*
X123000920Y-42808834D01*
X122963683Y-42728246D01*
X122925761Y-42549837D01*
X122927001Y-42461012D01*
X122927001Y-42384548D01*
X122928143Y-42379173D01*
X122928307Y-42367459D01*
X122947469Y-42288253D01*
X122962532Y-42217387D01*
X122967090Y-42207149D01*
X122971196Y-42190178D01*
X123004660Y-42122766D01*
X123032044Y-42061259D01*
X123041982Y-42047581D01*
X123052295Y-42026805D01*
X123096093Y-41973103D01*
X123132494Y-41923002D01*
X123149286Y-41907883D01*
X123167575Y-41885458D01*
X123217586Y-41846385D01*
X123259501Y-41808645D01*
X123283983Y-41794510D01*
X123311304Y-41773165D01*
X123363480Y-41748613D01*
X123407500Y-41723198D01*
X123439775Y-41712711D01*
X123476340Y-41695505D01*
X123527032Y-41684360D01*
X123570038Y-41670386D01*
X123609408Y-41666248D01*
X123654481Y-41656338D01*
X123700629Y-41656660D01*
X123740000Y-41652522D01*
X123784971Y-41657249D01*
X123784971Y-41657249D01*
G37*
G36*
X121244971Y-41657249D02*
G01*
X121296871Y-41657611D01*
X121336215Y-41666839D01*
X121369962Y-41670386D01*
X121418296Y-41686091D01*
X121474448Y-41699261D01*
X121505616Y-41714463D01*
X121532500Y-41723198D01*
X121581344Y-41751398D01*
X121638383Y-41779218D01*
X121660933Y-41797348D01*
X121680499Y-41808645D01*
X121726517Y-41850080D01*
X121780531Y-41893508D01*
X121794940Y-41911687D01*
X121807506Y-41923002D01*
X121847093Y-41977489D01*
X121893825Y-42036450D01*
X121901365Y-42052188D01*
X121907956Y-42061259D01*
X121937434Y-42127468D01*
X121972636Y-42200940D01*
X121975231Y-42212363D01*
X121977468Y-42217387D01*
X121993374Y-42292220D01*
X122013045Y-42378802D01*
X122012967Y-42384397D01*
X122012999Y-42384548D01*
X122012999Y-42555452D01*
X122010409Y-42567639D01*
X122010182Y-42583864D01*
X121991465Y-42656760D01*
X121977468Y-42722613D01*
X121970592Y-42738058D01*
X121964822Y-42760529D01*
X121933142Y-42822172D01*
X121907956Y-42878741D01*
X121894675Y-42897020D01*
X121881450Y-42922754D01*
X121840661Y-42971364D01*
X121807506Y-43016998D01*
X121786496Y-43035916D01*
X121764208Y-43062477D01*
X121718271Y-43097345D01*
X121680499Y-43131355D01*
X121651113Y-43148321D01*
X121618925Y-43172753D01*
X121571659Y-43194194D01*
X121532500Y-43216802D01*
X121494852Y-43229035D01*
X121452820Y-43248101D01*
X121407610Y-43257381D01*
X121369962Y-43269614D01*
X121324993Y-43274341D01*
X121274151Y-43284777D01*
X121233750Y-43283931D01*
X121200000Y-43287478D01*
X121149448Y-43282165D01*
X121091795Y-43280957D01*
X121058152Y-43272569D01*
X121030038Y-43269614D01*
X120976402Y-43252186D01*
X120914818Y-43236832D01*
X120888985Y-43223783D01*
X120867500Y-43216802D01*
X120813882Y-43185845D01*
X120752014Y-43154594D01*
X120734138Y-43139806D01*
X120719501Y-43131355D01*
X120669478Y-43086315D01*
X120611476Y-43038331D01*
X120600822Y-43024497D01*
X120592494Y-43016998D01*
X120549898Y-42958369D01*
X120500189Y-42893821D01*
X120495278Y-42883192D01*
X120492044Y-42878741D01*
X120460920Y-42808834D01*
X120423683Y-42728246D01*
X120385761Y-42549837D01*
X120387001Y-42461012D01*
X120387001Y-42384548D01*
X120388143Y-42379173D01*
X120388307Y-42367459D01*
X120407469Y-42288253D01*
X120422532Y-42217387D01*
X120427090Y-42207149D01*
X120431196Y-42190178D01*
X120464660Y-42122766D01*
X120492044Y-42061259D01*
X120501982Y-42047581D01*
X120512295Y-42026805D01*
X120556093Y-41973103D01*
X120592494Y-41923002D01*
X120609286Y-41907883D01*
X120627575Y-41885458D01*
X120677586Y-41846385D01*
X120719501Y-41808645D01*
X120743983Y-41794510D01*
X120771304Y-41773165D01*
X120823480Y-41748613D01*
X120867500Y-41723198D01*
X120899775Y-41712711D01*
X120936340Y-41695505D01*
X120987032Y-41684360D01*
X121030038Y-41670386D01*
X121069408Y-41666248D01*
X121114481Y-41656338D01*
X121160629Y-41656660D01*
X121200000Y-41652522D01*
X121244971Y-41657249D01*
X121244971Y-41657249D01*
G37*
G36*
X127061899Y-41659959D02*
G01*
X127078769Y-41671231D01*
X127090041Y-41688101D01*
X127096448Y-41720312D01*
X127096448Y-43219688D01*
X127093999Y-43232000D01*
X127090041Y-43251899D01*
X127078769Y-43268769D01*
X127061899Y-43280041D01*
X127042000Y-43283999D01*
X127029688Y-43286448D01*
X125530312Y-43286448D01*
X125498101Y-43280041D01*
X125481231Y-43268769D01*
X125469959Y-43251899D01*
X125463552Y-43219688D01*
X125463552Y-41720312D01*
X125469959Y-41688101D01*
X125481231Y-41671231D01*
X125498101Y-41659959D01*
X125530312Y-41653552D01*
X127029688Y-41653552D01*
X127061899Y-41659959D01*
X127061899Y-41659959D01*
G37*
M02*
