G04 #@! TF.GenerationSoftware,KiCad,Pcbnew,6.0.0-unknown-da645c5~86~ubuntu18.04.1*
G04 #@! TF.CreationDate,2019-07-09T16:21:19-04:00*
G04 #@! TF.ProjectId,Femtosat,46656d74-6f73-4617-942e-6b696361645f,rev?*
G04 #@! TF.SameCoordinates,Original*
G04 #@! TF.FileFunction,Legend,Top*
G04 #@! TF.FilePolarity,Positive*
%FSLAX46Y46*%
G04 Gerber Fmt 4.6, Leading zero omitted, Abs format (unit mm)*
G04 Created by KiCad (PCBNEW 6.0.0-unknown-da645c5~86~ubuntu18.04.1) date 2019-07-09 16:21:19*
%MOMM*%
%LPD*%
G04 APERTURE LIST*
%ADD10C,0.180000*%
%ADD11C,0.150000*%
%ADD12C,0.120000*%
G04 APERTURE END LIST*
D10*
X86888095Y-39378571D02*
X86554761Y-39378571D01*
X86554761Y-39902380D02*
X86554761Y-38902380D01*
X87030952Y-38902380D01*
X87411904Y-39378571D02*
X87745238Y-39378571D01*
X87888095Y-39902380D02*
X87411904Y-39902380D01*
X87411904Y-38902380D01*
X87888095Y-38902380D01*
X88983333Y-39235714D02*
X89221428Y-39902380D01*
X89459523Y-39235714D01*
X89792857Y-38997619D02*
X89840476Y-38950000D01*
X89935714Y-38902380D01*
X90173809Y-38902380D01*
X90269047Y-38950000D01*
X90316666Y-38997619D01*
X90364285Y-39092857D01*
X90364285Y-39188095D01*
X90316666Y-39330952D01*
X89745238Y-39902380D01*
X90364285Y-39902380D01*
X90792857Y-39807142D02*
X90840476Y-39854761D01*
X90792857Y-39902380D01*
X90745238Y-39854761D01*
X90792857Y-39807142D01*
X90792857Y-39902380D01*
X91459523Y-38902380D02*
X91554761Y-38902380D01*
X91650000Y-38950000D01*
X91697619Y-38997619D01*
X91745238Y-39092857D01*
X91792857Y-39283333D01*
X91792857Y-39521428D01*
X91745238Y-39711904D01*
X91697619Y-39807142D01*
X91650000Y-39854761D01*
X91554761Y-39902380D01*
X91459523Y-39902380D01*
X91364285Y-39854761D01*
X91316666Y-39807142D01*
X91269047Y-39711904D01*
X91221428Y-39521428D01*
X91221428Y-39283333D01*
X91269047Y-39092857D01*
X91316666Y-38997619D01*
X91364285Y-38950000D01*
X91459523Y-38902380D01*
D11*
X163016666Y-49896666D02*
X163016666Y-49463333D01*
X163283333Y-49696666D01*
X163283333Y-49596666D01*
X163316666Y-49530000D01*
X163350000Y-49496666D01*
X163416666Y-49463333D01*
X163583333Y-49463333D01*
X163650000Y-49496666D01*
X163683333Y-49530000D01*
X163716666Y-49596666D01*
X163716666Y-49796666D01*
X163683333Y-49863333D01*
X163650000Y-49896666D01*
X163016666Y-49263333D02*
X163716666Y-49030000D01*
X163016666Y-48796666D01*
X163016666Y-48630000D02*
X163016666Y-48196666D01*
X163283333Y-48430000D01*
X163283333Y-48330000D01*
X163316666Y-48263333D01*
X163350000Y-48230000D01*
X163416666Y-48196666D01*
X163583333Y-48196666D01*
X163650000Y-48230000D01*
X163683333Y-48263333D01*
X163716666Y-48330000D01*
X163716666Y-48530000D01*
X163683333Y-48596666D01*
X163650000Y-48630000D01*
X163050000Y-52103333D02*
X163016666Y-52170000D01*
X163016666Y-52270000D01*
X163050000Y-52370000D01*
X163116666Y-52436666D01*
X163183333Y-52470000D01*
X163316666Y-52503333D01*
X163416666Y-52503333D01*
X163550000Y-52470000D01*
X163616666Y-52436666D01*
X163683333Y-52370000D01*
X163716666Y-52270000D01*
X163716666Y-52203333D01*
X163683333Y-52103333D01*
X163650000Y-52070000D01*
X163416666Y-52070000D01*
X163416666Y-52203333D01*
X163716666Y-51770000D02*
X163016666Y-51770000D01*
X163716666Y-51370000D01*
X163016666Y-51370000D01*
X163716666Y-51036666D02*
X163016666Y-51036666D01*
X163016666Y-50870000D01*
X163050000Y-50770000D01*
X163116666Y-50703333D01*
X163183333Y-50670000D01*
X163316666Y-50636666D01*
X163416666Y-50636666D01*
X163550000Y-50670000D01*
X163616666Y-50703333D01*
X163683333Y-50770000D01*
X163716666Y-50870000D01*
X163716666Y-51036666D01*
X163050000Y-54643333D02*
X163016666Y-54710000D01*
X163016666Y-54810000D01*
X163050000Y-54910000D01*
X163116666Y-54976666D01*
X163183333Y-55010000D01*
X163316666Y-55043333D01*
X163416666Y-55043333D01*
X163550000Y-55010000D01*
X163616666Y-54976666D01*
X163683333Y-54910000D01*
X163716666Y-54810000D01*
X163716666Y-54743333D01*
X163683333Y-54643333D01*
X163650000Y-54610000D01*
X163416666Y-54610000D01*
X163416666Y-54743333D01*
X163716666Y-54310000D02*
X163016666Y-54310000D01*
X163716666Y-53910000D01*
X163016666Y-53910000D01*
X163716666Y-53576666D02*
X163016666Y-53576666D01*
X163016666Y-53410000D01*
X163050000Y-53310000D01*
X163116666Y-53243333D01*
X163183333Y-53210000D01*
X163316666Y-53176666D01*
X163416666Y-53176666D01*
X163550000Y-53210000D01*
X163616666Y-53243333D01*
X163683333Y-53310000D01*
X163716666Y-53410000D01*
X163716666Y-53576666D01*
X163716666Y-59306666D02*
X163383333Y-59540000D01*
X163716666Y-59706666D02*
X163016666Y-59706666D01*
X163016666Y-59440000D01*
X163050000Y-59373333D01*
X163083333Y-59340000D01*
X163150000Y-59306666D01*
X163250000Y-59306666D01*
X163316666Y-59340000D01*
X163350000Y-59373333D01*
X163383333Y-59440000D01*
X163383333Y-59706666D01*
X163016666Y-59073333D02*
X163716666Y-58606666D01*
X163016666Y-58606666D02*
X163716666Y-59073333D01*
X163016666Y-62263333D02*
X163016666Y-61863333D01*
X163716666Y-62063333D02*
X163016666Y-62063333D01*
X163016666Y-61696666D02*
X163716666Y-61230000D01*
X163016666Y-61230000D02*
X163716666Y-61696666D01*
X125646666Y-40966666D02*
X125646666Y-40266666D01*
X125980000Y-40966666D02*
X125980000Y-40266666D01*
X126380000Y-40966666D01*
X126380000Y-40266666D01*
X126613333Y-40266666D02*
X127013333Y-40266666D01*
X126813333Y-40966666D02*
X126813333Y-40266666D01*
X123206666Y-40300000D02*
X123140000Y-40266666D01*
X123040000Y-40266666D01*
X122940000Y-40300000D01*
X122873333Y-40366666D01*
X122840000Y-40433333D01*
X122806666Y-40566666D01*
X122806666Y-40666666D01*
X122840000Y-40800000D01*
X122873333Y-40866666D01*
X122940000Y-40933333D01*
X123040000Y-40966666D01*
X123106666Y-40966666D01*
X123206666Y-40933333D01*
X123240000Y-40900000D01*
X123240000Y-40666666D01*
X123106666Y-40666666D01*
X123540000Y-40966666D02*
X123540000Y-40266666D01*
X123940000Y-40966666D01*
X123940000Y-40266666D01*
X124273333Y-40966666D02*
X124273333Y-40266666D01*
X124440000Y-40266666D01*
X124540000Y-40300000D01*
X124606666Y-40366666D01*
X124640000Y-40433333D01*
X124673333Y-40566666D01*
X124673333Y-40666666D01*
X124640000Y-40800000D01*
X124606666Y-40866666D01*
X124540000Y-40933333D01*
X124440000Y-40966666D01*
X124273333Y-40966666D01*
X120333333Y-40266666D02*
X120766666Y-40266666D01*
X120533333Y-40533333D01*
X120633333Y-40533333D01*
X120700000Y-40566666D01*
X120733333Y-40600000D01*
X120766666Y-40666666D01*
X120766666Y-40833333D01*
X120733333Y-40900000D01*
X120700000Y-40933333D01*
X120633333Y-40966666D01*
X120433333Y-40966666D01*
X120366666Y-40933333D01*
X120333333Y-40900000D01*
X120966666Y-40266666D02*
X121200000Y-40966666D01*
X121433333Y-40266666D01*
X121600000Y-40266666D02*
X122033333Y-40266666D01*
X121800000Y-40533333D01*
X121900000Y-40533333D01*
X121966666Y-40566666D01*
X122000000Y-40600000D01*
X122033333Y-40666666D01*
X122033333Y-40833333D01*
X122000000Y-40900000D01*
X121966666Y-40933333D01*
X121900000Y-40966666D01*
X121700000Y-40966666D01*
X121633333Y-40933333D01*
X121600000Y-40900000D01*
X117810000Y-40933333D02*
X117910000Y-40966666D01*
X118076666Y-40966666D01*
X118143333Y-40933333D01*
X118176666Y-40900000D01*
X118210000Y-40833333D01*
X118210000Y-40766666D01*
X118176666Y-40700000D01*
X118143333Y-40666666D01*
X118076666Y-40633333D01*
X117943333Y-40600000D01*
X117876666Y-40566666D01*
X117843333Y-40533333D01*
X117810000Y-40466666D01*
X117810000Y-40400000D01*
X117843333Y-40333333D01*
X117876666Y-40300000D01*
X117943333Y-40266666D01*
X118110000Y-40266666D01*
X118210000Y-40300000D01*
X118510000Y-40966666D02*
X118510000Y-40266666D01*
X118676666Y-40266666D01*
X118776666Y-40300000D01*
X118843333Y-40366666D01*
X118876666Y-40433333D01*
X118910000Y-40566666D01*
X118910000Y-40666666D01*
X118876666Y-40800000D01*
X118843333Y-40866666D01*
X118776666Y-40933333D01*
X118676666Y-40966666D01*
X118510000Y-40966666D01*
X119176666Y-40766666D02*
X119510000Y-40766666D01*
X119110000Y-40966666D02*
X119343333Y-40266666D01*
X119576666Y-40966666D01*
X115286666Y-40933333D02*
X115386666Y-40966666D01*
X115553333Y-40966666D01*
X115620000Y-40933333D01*
X115653333Y-40900000D01*
X115686666Y-40833333D01*
X115686666Y-40766666D01*
X115653333Y-40700000D01*
X115620000Y-40666666D01*
X115553333Y-40633333D01*
X115420000Y-40600000D01*
X115353333Y-40566666D01*
X115320000Y-40533333D01*
X115286666Y-40466666D01*
X115286666Y-40400000D01*
X115320000Y-40333333D01*
X115353333Y-40300000D01*
X115420000Y-40266666D01*
X115586666Y-40266666D01*
X115686666Y-40300000D01*
X116386666Y-40900000D02*
X116353333Y-40933333D01*
X116253333Y-40966666D01*
X116186666Y-40966666D01*
X116086666Y-40933333D01*
X116020000Y-40866666D01*
X115986666Y-40800000D01*
X115953333Y-40666666D01*
X115953333Y-40566666D01*
X115986666Y-40433333D01*
X116020000Y-40366666D01*
X116086666Y-40300000D01*
X116186666Y-40266666D01*
X116253333Y-40266666D01*
X116353333Y-40300000D01*
X116386666Y-40333333D01*
X117020000Y-40966666D02*
X116686666Y-40966666D01*
X116686666Y-40266666D01*
X116960000Y-71233333D02*
X117060000Y-71266666D01*
X117226666Y-71266666D01*
X117293333Y-71233333D01*
X117326666Y-71200000D01*
X117360000Y-71133333D01*
X117360000Y-71066666D01*
X117326666Y-71000000D01*
X117293333Y-70966666D01*
X117226666Y-70933333D01*
X117093333Y-70900000D01*
X117026666Y-70866666D01*
X116993333Y-70833333D01*
X116960000Y-70766666D01*
X116960000Y-70700000D01*
X116993333Y-70633333D01*
X117026666Y-70600000D01*
X117093333Y-70566666D01*
X117260000Y-70566666D01*
X117360000Y-70600000D01*
X117593333Y-70566666D02*
X117760000Y-71266666D01*
X117893333Y-70766666D01*
X118026666Y-71266666D01*
X118193333Y-70566666D01*
X118460000Y-71266666D02*
X118460000Y-70566666D01*
X118626666Y-70566666D01*
X118726666Y-70600000D01*
X118793333Y-70666666D01*
X118826666Y-70733333D01*
X118860000Y-70866666D01*
X118860000Y-70966666D01*
X118826666Y-71100000D01*
X118793333Y-71166666D01*
X118726666Y-71233333D01*
X118626666Y-71266666D01*
X118460000Y-71266666D01*
X114420000Y-71233333D02*
X114520000Y-71266666D01*
X114686666Y-71266666D01*
X114753333Y-71233333D01*
X114786666Y-71200000D01*
X114820000Y-71133333D01*
X114820000Y-71066666D01*
X114786666Y-71000000D01*
X114753333Y-70966666D01*
X114686666Y-70933333D01*
X114553333Y-70900000D01*
X114486666Y-70866666D01*
X114453333Y-70833333D01*
X114420000Y-70766666D01*
X114420000Y-70700000D01*
X114453333Y-70633333D01*
X114486666Y-70600000D01*
X114553333Y-70566666D01*
X114720000Y-70566666D01*
X114820000Y-70600000D01*
X115053333Y-70566666D02*
X115220000Y-71266666D01*
X115353333Y-70766666D01*
X115486666Y-71266666D01*
X115653333Y-70566666D01*
X116320000Y-71200000D02*
X116286666Y-71233333D01*
X116186666Y-71266666D01*
X116120000Y-71266666D01*
X116020000Y-71233333D01*
X115953333Y-71166666D01*
X115920000Y-71100000D01*
X115886666Y-70966666D01*
X115886666Y-70866666D01*
X115920000Y-70733333D01*
X115953333Y-70666666D01*
X116020000Y-70600000D01*
X116120000Y-70566666D01*
X116186666Y-70566666D01*
X116286666Y-70600000D01*
X116320000Y-70633333D01*
X112296666Y-70600000D02*
X112230000Y-70566666D01*
X112130000Y-70566666D01*
X112030000Y-70600000D01*
X111963333Y-70666666D01*
X111930000Y-70733333D01*
X111896666Y-70866666D01*
X111896666Y-70966666D01*
X111930000Y-71100000D01*
X111963333Y-71166666D01*
X112030000Y-71233333D01*
X112130000Y-71266666D01*
X112196666Y-71266666D01*
X112296666Y-71233333D01*
X112330000Y-71200000D01*
X112330000Y-70966666D01*
X112196666Y-70966666D01*
X112630000Y-71266666D02*
X112630000Y-70566666D01*
X113030000Y-71266666D01*
X113030000Y-70566666D01*
X113363333Y-71266666D02*
X113363333Y-70566666D01*
X113530000Y-70566666D01*
X113630000Y-70600000D01*
X113696666Y-70666666D01*
X113730000Y-70733333D01*
X113763333Y-70866666D01*
X113763333Y-70966666D01*
X113730000Y-71100000D01*
X113696666Y-71166666D01*
X113630000Y-71233333D01*
X113530000Y-71266666D01*
X113363333Y-71266666D01*
X109423333Y-70566666D02*
X109856666Y-70566666D01*
X109623333Y-70833333D01*
X109723333Y-70833333D01*
X109790000Y-70866666D01*
X109823333Y-70900000D01*
X109856666Y-70966666D01*
X109856666Y-71133333D01*
X109823333Y-71200000D01*
X109790000Y-71233333D01*
X109723333Y-71266666D01*
X109523333Y-71266666D01*
X109456666Y-71233333D01*
X109423333Y-71200000D01*
X110056666Y-70566666D02*
X110290000Y-71266666D01*
X110523333Y-70566666D01*
X110690000Y-70566666D02*
X111123333Y-70566666D01*
X110890000Y-70833333D01*
X110990000Y-70833333D01*
X111056666Y-70866666D01*
X111090000Y-70900000D01*
X111123333Y-70966666D01*
X111123333Y-71133333D01*
X111090000Y-71200000D01*
X111056666Y-71233333D01*
X110990000Y-71266666D01*
X110790000Y-71266666D01*
X110723333Y-71233333D01*
X110690000Y-71200000D01*
X107366666Y-71266666D02*
X107133333Y-70933333D01*
X106966666Y-71266666D02*
X106966666Y-70566666D01*
X107233333Y-70566666D01*
X107300000Y-70600000D01*
X107333333Y-70633333D01*
X107366666Y-70700000D01*
X107366666Y-70800000D01*
X107333333Y-70866666D01*
X107300000Y-70900000D01*
X107233333Y-70933333D01*
X106966666Y-70933333D01*
X107633333Y-71233333D02*
X107733333Y-71266666D01*
X107900000Y-71266666D01*
X107966666Y-71233333D01*
X108000000Y-71200000D01*
X108033333Y-71133333D01*
X108033333Y-71066666D01*
X108000000Y-71000000D01*
X107966666Y-70966666D01*
X107900000Y-70933333D01*
X107766666Y-70900000D01*
X107700000Y-70866666D01*
X107666666Y-70833333D01*
X107633333Y-70766666D01*
X107633333Y-70700000D01*
X107666666Y-70633333D01*
X107700000Y-70600000D01*
X107766666Y-70566666D01*
X107933333Y-70566666D01*
X108033333Y-70600000D01*
X108233333Y-70566666D02*
X108633333Y-70566666D01*
X108433333Y-71266666D02*
X108433333Y-70566666D01*
D12*
X85895000Y-38315000D02*
X169715000Y-38315000D01*
X85895000Y-72315000D02*
X169715000Y-72315000D01*
X169715000Y-38315000D02*
X169715000Y-72315000D01*
X85895000Y-72315000D02*
X85895000Y-38315000D01*
X163875000Y-47760000D02*
X168955000Y-47760000D01*
X168955000Y-47760000D02*
X168955000Y-63000000D01*
X168955000Y-63000000D02*
X163875000Y-63000000D01*
X163875000Y-63000000D02*
X163875000Y-47760000D01*
X101714214Y-66350000D02*
G75*
G03X101714214Y-66350000I-1414214J0D01*
G01*
X97330000Y-69470000D02*
X103270000Y-69470000D01*
X97330000Y-63230000D02*
X103270000Y-63230000D01*
X97180000Y-67690000D02*
X97180000Y-65010000D01*
X103420000Y-65010000D02*
X103420000Y-67690000D01*
X85950000Y-55240000D02*
X86210000Y-55240000D01*
X88490000Y-55240000D02*
X90260000Y-55240000D01*
X90260000Y-55240000D02*
X90260000Y-55620000D01*
X90260000Y-62860000D02*
X88490000Y-62860000D01*
X86210000Y-62860000D02*
X85950000Y-62860000D01*
X90260000Y-62860000D02*
X90260000Y-62480000D01*
X115940000Y-64878733D02*
X115940000Y-65221267D01*
X116960000Y-64878733D02*
X116960000Y-65221267D01*
X94570000Y-47050000D02*
X94570000Y-45850000D01*
X94570000Y-45850000D02*
X97270000Y-45850000D01*
X98570000Y-50650000D02*
X94570000Y-50650000D01*
X94570000Y-50650000D02*
X94570000Y-49450000D01*
X135471267Y-52460000D02*
X135128733Y-52460000D01*
X135471267Y-51440000D02*
X135128733Y-51440000D01*
X93471267Y-60610000D02*
X93128733Y-60610000D01*
X93471267Y-59590000D02*
X93128733Y-59590000D01*
X91940000Y-62771267D02*
X91940000Y-62428733D01*
X92960000Y-62771267D02*
X92960000Y-62428733D01*
X93490000Y-62771267D02*
X93490000Y-62428733D01*
X94510000Y-62771267D02*
X94510000Y-62428733D01*
X118250000Y-61425000D02*
X120050000Y-61425000D01*
X120100000Y-59275000D02*
X120100000Y-58175000D01*
X118200000Y-59275000D02*
X118200000Y-58175000D01*
D11*
X136440000Y-41200000D02*
X136440000Y-66600000D01*
X105960000Y-66600000D02*
X136440000Y-66600000D01*
X105960000Y-41200000D02*
X105960000Y-66600000D01*
X136440000Y-41200000D02*
X105960000Y-41200000D01*
X116175000Y-59725000D02*
X117600000Y-59725000D01*
X108925000Y-59950000D02*
X109250000Y-59950000D01*
X108925000Y-52700000D02*
X109250000Y-52700000D01*
X116175000Y-52700000D02*
X115850000Y-52700000D01*
X116175000Y-59950000D02*
X115850000Y-59950000D01*
X116175000Y-52700000D02*
X116175000Y-53025000D01*
X108925000Y-52700000D02*
X108925000Y-53025000D01*
X108925000Y-59950000D02*
X108925000Y-59625000D01*
X116175000Y-59950000D02*
X116175000Y-59725000D01*
D12*
X119888748Y-49260000D02*
X120411252Y-49260000D01*
X119888748Y-47840000D02*
X120411252Y-47840000D01*
D11*
X137100000Y-57450000D02*
X137100000Y-44450000D01*
X151400000Y-57450000D02*
X137100000Y-57450000D01*
X151400000Y-45450000D02*
X151400000Y-57450000D01*
X138350000Y-43150000D02*
X141600000Y-43150000D01*
X141600000Y-43150000D02*
X141600000Y-44050000D01*
X141600000Y-44050000D02*
X150000000Y-44050000D01*
D12*
X106420000Y-69930000D02*
X106420000Y-68600000D01*
X107750000Y-69930000D02*
X106420000Y-69930000D01*
X109020000Y-69930000D02*
X109020000Y-67270000D01*
X109020000Y-67270000D02*
X119240000Y-67270000D01*
X109020000Y-69930000D02*
X119240000Y-69930000D01*
X119240000Y-69930000D02*
X119240000Y-67270000D01*
X155410000Y-44221267D02*
X155410000Y-43878733D01*
X154390000Y-44221267D02*
X154390000Y-43878733D01*
X156960000Y-44221267D02*
X156960000Y-43878733D01*
X155940000Y-44221267D02*
X155940000Y-43878733D01*
X100378733Y-47260000D02*
X100721267Y-47260000D01*
X100378733Y-46240000D02*
X100721267Y-46240000D01*
X100378733Y-48760000D02*
X100721267Y-48760000D01*
X100378733Y-47740000D02*
X100721267Y-47740000D01*
X121978733Y-57610000D02*
X122321267Y-57610000D01*
X121978733Y-56590000D02*
X122321267Y-56590000D01*
X121988733Y-60860000D02*
X122331267Y-60860000D01*
X121988733Y-59840000D02*
X122331267Y-59840000D01*
X114390000Y-64878733D02*
X114390000Y-65221267D01*
X115410000Y-64878733D02*
X115410000Y-65221267D01*
X116021267Y-49590000D02*
X115678733Y-49590000D01*
X116021267Y-50610000D02*
X115678733Y-50610000D01*
X116721267Y-48040000D02*
X116378733Y-48040000D01*
X116721267Y-49060000D02*
X116378733Y-49060000D01*
X100521267Y-61590000D02*
X100178733Y-61590000D01*
X100521267Y-62610000D02*
X100178733Y-62610000D01*
X112321267Y-63890000D02*
X111978733Y-63890000D01*
X112321267Y-64910000D02*
X111978733Y-64910000D01*
D11*
X167438095Y-39052380D02*
X167438095Y-39861904D01*
X167485714Y-39957142D01*
X167533333Y-40004761D01*
X167628571Y-40052380D01*
X167819047Y-40052380D01*
X167914285Y-40004761D01*
X167961904Y-39957142D01*
X168009523Y-39861904D01*
X168009523Y-39052380D01*
X168914285Y-39385714D02*
X168914285Y-40052380D01*
X168676190Y-39004761D02*
X168438095Y-39719047D01*
X169057142Y-39719047D01*
X99263333Y-66663809D02*
X99377619Y-66701904D01*
X99568095Y-66701904D01*
X99644285Y-66663809D01*
X99682380Y-66625714D01*
X99720476Y-66549523D01*
X99720476Y-66473333D01*
X99682380Y-66397142D01*
X99644285Y-66359047D01*
X99568095Y-66320952D01*
X99415714Y-66282857D01*
X99339523Y-66244761D01*
X99301428Y-66206666D01*
X99263333Y-66130476D01*
X99263333Y-66054285D01*
X99301428Y-65978095D01*
X99339523Y-65940000D01*
X99415714Y-65901904D01*
X99606190Y-65901904D01*
X99720476Y-65940000D01*
X99987142Y-65901904D02*
X100177619Y-66701904D01*
X100330000Y-66130476D01*
X100482380Y-66701904D01*
X100672857Y-65901904D01*
X101396666Y-66701904D02*
X100939523Y-66701904D01*
X101168095Y-66701904D02*
X101168095Y-65901904D01*
X101091904Y-66016190D01*
X101015714Y-66092380D01*
X100939523Y-66130476D01*
X91302380Y-59383333D02*
X92016666Y-59383333D01*
X92159523Y-59430952D01*
X92254761Y-59526190D01*
X92302380Y-59669047D01*
X92302380Y-59764285D01*
X92302380Y-58383333D02*
X92302380Y-58954761D01*
X92302380Y-58669047D02*
X91302380Y-58669047D01*
X91445238Y-58764285D01*
X91540476Y-58859523D01*
X91588095Y-58954761D01*
X118237142Y-66145238D02*
X118284761Y-66192857D01*
X118332380Y-66335714D01*
X118332380Y-66430952D01*
X118284761Y-66573809D01*
X118189523Y-66669047D01*
X118094285Y-66716666D01*
X117903809Y-66764285D01*
X117760952Y-66764285D01*
X117570476Y-66716666D01*
X117475238Y-66669047D01*
X117380000Y-66573809D01*
X117332380Y-66430952D01*
X117332380Y-66335714D01*
X117380000Y-66192857D01*
X117427619Y-66145238D01*
X117332380Y-65811904D02*
X117332380Y-65192857D01*
X117713333Y-65526190D01*
X117713333Y-65383333D01*
X117760952Y-65288095D01*
X117808571Y-65240476D01*
X117903809Y-65192857D01*
X118141904Y-65192857D01*
X118237142Y-65240476D01*
X118284761Y-65288095D01*
X118332380Y-65383333D01*
X118332380Y-65669047D01*
X118284761Y-65764285D01*
X118237142Y-65811904D01*
X118332380Y-64335714D02*
X117808571Y-64335714D01*
X117713333Y-64383333D01*
X117665714Y-64478571D01*
X117665714Y-64669047D01*
X117713333Y-64764285D01*
X118284761Y-64335714D02*
X118332380Y-64430952D01*
X118332380Y-64669047D01*
X118284761Y-64764285D01*
X118189523Y-64811904D01*
X118094285Y-64811904D01*
X117999047Y-64764285D01*
X117951428Y-64669047D01*
X117951428Y-64430952D01*
X117903809Y-64335714D01*
X118332380Y-63335714D02*
X118332380Y-63907142D01*
X118332380Y-63621428D02*
X117332380Y-63621428D01*
X117475238Y-63716666D01*
X117570476Y-63811904D01*
X117618095Y-63907142D01*
X95138095Y-50902380D02*
X95138095Y-51711904D01*
X95185714Y-51807142D01*
X95233333Y-51854761D01*
X95328571Y-51902380D01*
X95519047Y-51902380D01*
X95614285Y-51854761D01*
X95661904Y-51807142D01*
X95709523Y-51711904D01*
X95709523Y-50902380D01*
X96709523Y-51902380D02*
X96138095Y-51902380D01*
X96423809Y-51902380D02*
X96423809Y-50902380D01*
X96328571Y-51045238D01*
X96233333Y-51140476D01*
X96138095Y-51188095D01*
X135133333Y-53832380D02*
X134800000Y-53356190D01*
X134561904Y-53832380D02*
X134561904Y-52832380D01*
X134942857Y-52832380D01*
X135038095Y-52880000D01*
X135085714Y-52927619D01*
X135133333Y-53022857D01*
X135133333Y-53165714D01*
X135085714Y-53260952D01*
X135038095Y-53308571D01*
X134942857Y-53356190D01*
X134561904Y-53356190D01*
X136038095Y-52832380D02*
X135561904Y-52832380D01*
X135514285Y-53308571D01*
X135561904Y-53260952D01*
X135657142Y-53213333D01*
X135895238Y-53213333D01*
X135990476Y-53260952D01*
X136038095Y-53308571D01*
X136085714Y-53403809D01*
X136085714Y-53641904D01*
X136038095Y-53737142D01*
X135990476Y-53784761D01*
X135895238Y-53832380D01*
X135657142Y-53832380D01*
X135561904Y-53784761D01*
X135514285Y-53737142D01*
X96102380Y-60266666D02*
X95626190Y-60600000D01*
X96102380Y-60838095D02*
X95102380Y-60838095D01*
X95102380Y-60457142D01*
X95150000Y-60361904D01*
X95197619Y-60314285D01*
X95292857Y-60266666D01*
X95435714Y-60266666D01*
X95530952Y-60314285D01*
X95578571Y-60361904D01*
X95626190Y-60457142D01*
X95626190Y-60838095D01*
X95435714Y-59409523D02*
X96102380Y-59409523D01*
X95054761Y-59647619D02*
X95769047Y-59885714D01*
X95769047Y-59266666D01*
X92283333Y-65352380D02*
X91950000Y-64876190D01*
X91711904Y-65352380D02*
X91711904Y-64352380D01*
X92092857Y-64352380D01*
X92188095Y-64400000D01*
X92235714Y-64447619D01*
X92283333Y-64542857D01*
X92283333Y-64685714D01*
X92235714Y-64780952D01*
X92188095Y-64828571D01*
X92092857Y-64876190D01*
X91711904Y-64876190D01*
X92616666Y-64352380D02*
X93235714Y-64352380D01*
X92902380Y-64733333D01*
X93045238Y-64733333D01*
X93140476Y-64780952D01*
X93188095Y-64828571D01*
X93235714Y-64923809D01*
X93235714Y-65161904D01*
X93188095Y-65257142D01*
X93140476Y-65304761D01*
X93045238Y-65352380D01*
X92759523Y-65352380D01*
X92664285Y-65304761D01*
X92616666Y-65257142D01*
X95707142Y-62766666D02*
X95754761Y-62814285D01*
X95802380Y-62957142D01*
X95802380Y-63052380D01*
X95754761Y-63195238D01*
X95659523Y-63290476D01*
X95564285Y-63338095D01*
X95373809Y-63385714D01*
X95230952Y-63385714D01*
X95040476Y-63338095D01*
X94945238Y-63290476D01*
X94850000Y-63195238D01*
X94802380Y-63052380D01*
X94802380Y-62957142D01*
X94850000Y-62814285D01*
X94897619Y-62766666D01*
X94802380Y-61861904D02*
X94802380Y-62338095D01*
X95278571Y-62385714D01*
X95230952Y-62338095D01*
X95183333Y-62242857D01*
X95183333Y-62004761D01*
X95230952Y-61909523D01*
X95278571Y-61861904D01*
X95373809Y-61814285D01*
X95611904Y-61814285D01*
X95707142Y-61861904D01*
X95754761Y-61909523D01*
X95802380Y-62004761D01*
X95802380Y-62242857D01*
X95754761Y-62338095D01*
X95707142Y-62385714D01*
X119128571Y-59153571D02*
X119557142Y-59153571D01*
X118657142Y-59453571D02*
X119128571Y-59153571D01*
X118657142Y-58853571D01*
X119557142Y-58082142D02*
X119557142Y-58596428D01*
X119557142Y-58339285D02*
X118657142Y-58339285D01*
X118785714Y-58425000D01*
X118871428Y-58510714D01*
X118914285Y-58596428D01*
X137162380Y-54661904D02*
X137971904Y-54661904D01*
X138067142Y-54614285D01*
X138114761Y-54566666D01*
X138162380Y-54471428D01*
X138162380Y-54280952D01*
X138114761Y-54185714D01*
X138067142Y-54138095D01*
X137971904Y-54090476D01*
X137162380Y-54090476D01*
X137162380Y-53138095D02*
X137162380Y-53614285D01*
X137638571Y-53661904D01*
X137590952Y-53614285D01*
X137543333Y-53519047D01*
X137543333Y-53280952D01*
X137590952Y-53185714D01*
X137638571Y-53138095D01*
X137733809Y-53090476D01*
X137971904Y-53090476D01*
X138067142Y-53138095D01*
X138114761Y-53185714D01*
X138162380Y-53280952D01*
X138162380Y-53519047D01*
X138114761Y-53614285D01*
X138067142Y-53661904D01*
X111788095Y-55827380D02*
X111788095Y-56636904D01*
X111835714Y-56732142D01*
X111883333Y-56779761D01*
X111978571Y-56827380D01*
X112169047Y-56827380D01*
X112264285Y-56779761D01*
X112311904Y-56732142D01*
X112359523Y-56636904D01*
X112359523Y-55827380D01*
X113026190Y-55827380D02*
X113121428Y-55827380D01*
X113216666Y-55875000D01*
X113264285Y-55922619D01*
X113311904Y-56017857D01*
X113359523Y-56208333D01*
X113359523Y-56446428D01*
X113311904Y-56636904D01*
X113264285Y-56732142D01*
X113216666Y-56779761D01*
X113121428Y-56827380D01*
X113026190Y-56827380D01*
X112930952Y-56779761D01*
X112883333Y-56732142D01*
X112835714Y-56636904D01*
X112788095Y-56446428D01*
X112788095Y-56208333D01*
X112835714Y-56017857D01*
X112883333Y-55922619D01*
X112930952Y-55875000D01*
X113026190Y-55827380D01*
X119983333Y-47452380D02*
X119507142Y-47452380D01*
X119507142Y-46452380D01*
X120840476Y-47452380D02*
X120269047Y-47452380D01*
X120554761Y-47452380D02*
X120554761Y-46452380D01*
X120459523Y-46595238D01*
X120364285Y-46690476D01*
X120269047Y-46738095D01*
X145764126Y-42763340D02*
X145764126Y-43477626D01*
X145716507Y-43620483D01*
X145621269Y-43715721D01*
X145478412Y-43763340D01*
X145383174Y-43763340D01*
X146716507Y-42763340D02*
X146240317Y-42763340D01*
X146192698Y-43239531D01*
X146240317Y-43191912D01*
X146335555Y-43144293D01*
X146573650Y-43144293D01*
X146668888Y-43191912D01*
X146716507Y-43239531D01*
X146764126Y-43334769D01*
X146764126Y-43572864D01*
X146716507Y-43668102D01*
X146668888Y-43715721D01*
X146573650Y-43763340D01*
X146335555Y-43763340D01*
X146240317Y-43715721D01*
X146192698Y-43668102D01*
X104872380Y-68933333D02*
X105586666Y-68933333D01*
X105729523Y-68980952D01*
X105824761Y-69076190D01*
X105872380Y-69219047D01*
X105872380Y-69314285D01*
X104967619Y-68504761D02*
X104920000Y-68457142D01*
X104872380Y-68361904D01*
X104872380Y-68123809D01*
X104920000Y-68028571D01*
X104967619Y-67980952D01*
X105062857Y-67933333D01*
X105158095Y-67933333D01*
X105300952Y-67980952D01*
X105872380Y-68552380D01*
X105872380Y-67933333D01*
X153876190Y-46757142D02*
X153828571Y-46804761D01*
X153685714Y-46852380D01*
X153590476Y-46852380D01*
X153447619Y-46804761D01*
X153352380Y-46709523D01*
X153304761Y-46614285D01*
X153257142Y-46423809D01*
X153257142Y-46280952D01*
X153304761Y-46090476D01*
X153352380Y-45995238D01*
X153447619Y-45900000D01*
X153590476Y-45852380D01*
X153685714Y-45852380D01*
X153828571Y-45900000D01*
X153876190Y-45947619D01*
X154257142Y-46804761D02*
X154352380Y-46852380D01*
X154542857Y-46852380D01*
X154638095Y-46804761D01*
X154685714Y-46709523D01*
X154685714Y-46661904D01*
X154638095Y-46566666D01*
X154542857Y-46519047D01*
X154400000Y-46519047D01*
X154304761Y-46471428D01*
X154257142Y-46376190D01*
X154257142Y-46328571D01*
X154304761Y-46233333D01*
X154400000Y-46185714D01*
X154542857Y-46185714D01*
X154638095Y-46233333D01*
X155542857Y-46852380D02*
X155542857Y-45852380D01*
X155542857Y-46804761D02*
X155447619Y-46852380D01*
X155257142Y-46852380D01*
X155161904Y-46804761D01*
X155114285Y-46757142D01*
X155066666Y-46661904D01*
X155066666Y-46376190D01*
X155114285Y-46280952D01*
X155161904Y-46233333D01*
X155257142Y-46185714D01*
X155447619Y-46185714D01*
X155542857Y-46233333D01*
X155971428Y-45947619D02*
X156019047Y-45900000D01*
X156114285Y-45852380D01*
X156352380Y-45852380D01*
X156447619Y-45900000D01*
X156495238Y-45947619D01*
X156542857Y-46042857D01*
X156542857Y-46138095D01*
X156495238Y-46280952D01*
X155923809Y-46852380D01*
X156542857Y-46852380D01*
X158157142Y-45073809D02*
X158204761Y-45121428D01*
X158252380Y-45264285D01*
X158252380Y-45359523D01*
X158204761Y-45502380D01*
X158109523Y-45597619D01*
X158014285Y-45645238D01*
X157823809Y-45692857D01*
X157680952Y-45692857D01*
X157490476Y-45645238D01*
X157395238Y-45597619D01*
X157300000Y-45502380D01*
X157252380Y-45359523D01*
X157252380Y-45264285D01*
X157300000Y-45121428D01*
X157347619Y-45073809D01*
X158204761Y-44692857D02*
X158252380Y-44597619D01*
X158252380Y-44407142D01*
X158204761Y-44311904D01*
X158109523Y-44264285D01*
X158061904Y-44264285D01*
X157966666Y-44311904D01*
X157919047Y-44407142D01*
X157919047Y-44550000D01*
X157871428Y-44645238D01*
X157776190Y-44692857D01*
X157728571Y-44692857D01*
X157633333Y-44645238D01*
X157585714Y-44550000D01*
X157585714Y-44407142D01*
X157633333Y-44311904D01*
X158252380Y-43407142D02*
X157252380Y-43407142D01*
X158204761Y-43407142D02*
X158252380Y-43502380D01*
X158252380Y-43692857D01*
X158204761Y-43788095D01*
X158157142Y-43835714D01*
X158061904Y-43883333D01*
X157776190Y-43883333D01*
X157680952Y-43835714D01*
X157633333Y-43788095D01*
X157585714Y-43692857D01*
X157585714Y-43502380D01*
X157633333Y-43407142D01*
X158252380Y-42407142D02*
X158252380Y-42978571D01*
X158252380Y-42692857D02*
X157252380Y-42692857D01*
X157395238Y-42788095D01*
X157490476Y-42883333D01*
X157538095Y-42978571D01*
X103207142Y-47226190D02*
X103254761Y-47273809D01*
X103302380Y-47416666D01*
X103302380Y-47511904D01*
X103254761Y-47654761D01*
X103159523Y-47750000D01*
X103064285Y-47797619D01*
X102873809Y-47845238D01*
X102730952Y-47845238D01*
X102540476Y-47797619D01*
X102445238Y-47750000D01*
X102350000Y-47654761D01*
X102302380Y-47511904D01*
X102302380Y-47416666D01*
X102350000Y-47273809D01*
X102397619Y-47226190D01*
X103302380Y-46797619D02*
X102635714Y-46797619D01*
X102826190Y-46797619D02*
X102730952Y-46750000D01*
X102683333Y-46702380D01*
X102635714Y-46607142D01*
X102635714Y-46511904D01*
X102397619Y-46226190D02*
X102350000Y-46178571D01*
X102302380Y-46083333D01*
X102302380Y-45845238D01*
X102350000Y-45750000D01*
X102397619Y-45702380D01*
X102492857Y-45654761D01*
X102588095Y-45654761D01*
X102730952Y-45702380D01*
X103302380Y-46273809D01*
X103302380Y-45654761D01*
X100073809Y-49957142D02*
X100026190Y-50004761D01*
X99883333Y-50052380D01*
X99788095Y-50052380D01*
X99645238Y-50004761D01*
X99550000Y-49909523D01*
X99502380Y-49814285D01*
X99454761Y-49623809D01*
X99454761Y-49480952D01*
X99502380Y-49290476D01*
X99550000Y-49195238D01*
X99645238Y-49100000D01*
X99788095Y-49052380D01*
X99883333Y-49052380D01*
X100026190Y-49100000D01*
X100073809Y-49147619D01*
X100502380Y-50052380D02*
X100502380Y-49385714D01*
X100502380Y-49576190D02*
X100550000Y-49480952D01*
X100597619Y-49433333D01*
X100692857Y-49385714D01*
X100788095Y-49385714D01*
X101645238Y-50052380D02*
X101073809Y-50052380D01*
X101359523Y-50052380D02*
X101359523Y-49052380D01*
X101264285Y-49195238D01*
X101169047Y-49290476D01*
X101073809Y-49338095D01*
X121554761Y-56027142D02*
X121507142Y-56074761D01*
X121364285Y-56122380D01*
X121269047Y-56122380D01*
X121126190Y-56074761D01*
X121030952Y-55979523D01*
X120983333Y-55884285D01*
X120935714Y-55693809D01*
X120935714Y-55550952D01*
X120983333Y-55360476D01*
X121030952Y-55265238D01*
X121126190Y-55170000D01*
X121269047Y-55122380D01*
X121364285Y-55122380D01*
X121507142Y-55170000D01*
X121554761Y-55217619D01*
X122411904Y-56074761D02*
X122316666Y-56122380D01*
X122126190Y-56122380D01*
X122030952Y-56074761D01*
X121983333Y-56027142D01*
X121935714Y-55931904D01*
X121935714Y-55646190D01*
X121983333Y-55550952D01*
X122030952Y-55503333D01*
X122126190Y-55455714D01*
X122316666Y-55455714D01*
X122411904Y-55503333D01*
X122792857Y-55217619D02*
X122840476Y-55170000D01*
X122935714Y-55122380D01*
X123173809Y-55122380D01*
X123269047Y-55170000D01*
X123316666Y-55217619D01*
X123364285Y-55312857D01*
X123364285Y-55408095D01*
X123316666Y-55550952D01*
X122745238Y-56122380D01*
X123364285Y-56122380D01*
X121564761Y-59277142D02*
X121517142Y-59324761D01*
X121374285Y-59372380D01*
X121279047Y-59372380D01*
X121136190Y-59324761D01*
X121040952Y-59229523D01*
X120993333Y-59134285D01*
X120945714Y-58943809D01*
X120945714Y-58800952D01*
X120993333Y-58610476D01*
X121040952Y-58515238D01*
X121136190Y-58420000D01*
X121279047Y-58372380D01*
X121374285Y-58372380D01*
X121517142Y-58420000D01*
X121564761Y-58467619D01*
X122421904Y-59324761D02*
X122326666Y-59372380D01*
X122136190Y-59372380D01*
X122040952Y-59324761D01*
X121993333Y-59277142D01*
X121945714Y-59181904D01*
X121945714Y-58896190D01*
X121993333Y-58800952D01*
X122040952Y-58753333D01*
X122136190Y-58705714D01*
X122326666Y-58705714D01*
X122421904Y-58753333D01*
X123374285Y-59372380D02*
X122802857Y-59372380D01*
X123088571Y-59372380D02*
X123088571Y-58372380D01*
X122993333Y-58515238D01*
X122898095Y-58610476D01*
X122802857Y-58658095D01*
X113804761Y-63207142D02*
X113757142Y-63254761D01*
X113614285Y-63302380D01*
X113519047Y-63302380D01*
X113376190Y-63254761D01*
X113280952Y-63159523D01*
X113233333Y-63064285D01*
X113185714Y-62873809D01*
X113185714Y-62730952D01*
X113233333Y-62540476D01*
X113280952Y-62445238D01*
X113376190Y-62350000D01*
X113519047Y-62302380D01*
X113614285Y-62302380D01*
X113757142Y-62350000D01*
X113804761Y-62397619D01*
X114138095Y-62302380D02*
X114757142Y-62302380D01*
X114423809Y-62683333D01*
X114566666Y-62683333D01*
X114661904Y-62730952D01*
X114709523Y-62778571D01*
X114757142Y-62873809D01*
X114757142Y-63111904D01*
X114709523Y-63207142D01*
X114661904Y-63254761D01*
X114566666Y-63302380D01*
X114280952Y-63302380D01*
X114185714Y-63254761D01*
X114138095Y-63207142D01*
X115185714Y-63302380D02*
X115185714Y-62302380D01*
X115185714Y-62683333D02*
X115280952Y-62635714D01*
X115471428Y-62635714D01*
X115566666Y-62683333D01*
X115614285Y-62730952D01*
X115661904Y-62826190D01*
X115661904Y-63111904D01*
X115614285Y-63207142D01*
X115566666Y-63254761D01*
X115471428Y-63302380D01*
X115280952Y-63302380D01*
X115185714Y-63254761D01*
X116614285Y-63302380D02*
X116042857Y-63302380D01*
X116328571Y-63302380D02*
X116328571Y-62302380D01*
X116233333Y-62445238D01*
X116138095Y-62540476D01*
X116042857Y-62588095D01*
X118204761Y-50457142D02*
X118157142Y-50504761D01*
X118014285Y-50552380D01*
X117919047Y-50552380D01*
X117776190Y-50504761D01*
X117680952Y-50409523D01*
X117633333Y-50314285D01*
X117585714Y-50123809D01*
X117585714Y-49980952D01*
X117633333Y-49790476D01*
X117680952Y-49695238D01*
X117776190Y-49600000D01*
X117919047Y-49552380D01*
X118014285Y-49552380D01*
X118157142Y-49600000D01*
X118204761Y-49647619D01*
X118585714Y-49647619D02*
X118633333Y-49600000D01*
X118728571Y-49552380D01*
X118966666Y-49552380D01*
X119061904Y-49600000D01*
X119109523Y-49647619D01*
X119157142Y-49742857D01*
X119157142Y-49838095D01*
X119109523Y-49980952D01*
X118538095Y-50552380D01*
X119157142Y-50552380D01*
X119585714Y-50552380D02*
X119585714Y-49552380D01*
X119585714Y-49933333D02*
X119680952Y-49885714D01*
X119871428Y-49885714D01*
X119966666Y-49933333D01*
X120014285Y-49980952D01*
X120061904Y-50076190D01*
X120061904Y-50361904D01*
X120014285Y-50457142D01*
X119966666Y-50504761D01*
X119871428Y-50552380D01*
X119680952Y-50552380D01*
X119585714Y-50504761D01*
X121014285Y-50552380D02*
X120442857Y-50552380D01*
X120728571Y-50552380D02*
X120728571Y-49552380D01*
X120633333Y-49695238D01*
X120538095Y-49790476D01*
X120442857Y-49838095D01*
X115454761Y-47607142D02*
X115407142Y-47654761D01*
X115264285Y-47702380D01*
X115169047Y-47702380D01*
X115026190Y-47654761D01*
X114930952Y-47559523D01*
X114883333Y-47464285D01*
X114835714Y-47273809D01*
X114835714Y-47130952D01*
X114883333Y-46940476D01*
X114930952Y-46845238D01*
X115026190Y-46750000D01*
X115169047Y-46702380D01*
X115264285Y-46702380D01*
X115407142Y-46750000D01*
X115454761Y-46797619D01*
X115835714Y-46797619D02*
X115883333Y-46750000D01*
X115978571Y-46702380D01*
X116216666Y-46702380D01*
X116311904Y-46750000D01*
X116359523Y-46797619D01*
X116407142Y-46892857D01*
X116407142Y-46988095D01*
X116359523Y-47130952D01*
X115788095Y-47702380D01*
X116407142Y-47702380D01*
X117264285Y-47702380D02*
X117264285Y-47178571D01*
X117216666Y-47083333D01*
X117121428Y-47035714D01*
X116930952Y-47035714D01*
X116835714Y-47083333D01*
X117264285Y-47654761D02*
X117169047Y-47702380D01*
X116930952Y-47702380D01*
X116835714Y-47654761D01*
X116788095Y-47559523D01*
X116788095Y-47464285D01*
X116835714Y-47369047D01*
X116930952Y-47321428D01*
X117169047Y-47321428D01*
X117264285Y-47273809D01*
X118264285Y-47702380D02*
X117692857Y-47702380D01*
X117978571Y-47702380D02*
X117978571Y-46702380D01*
X117883333Y-46845238D01*
X117788095Y-46940476D01*
X117692857Y-46988095D01*
X103007142Y-62266666D02*
X103054761Y-62314285D01*
X103102380Y-62457142D01*
X103102380Y-62552380D01*
X103054761Y-62695238D01*
X102959523Y-62790476D01*
X102864285Y-62838095D01*
X102673809Y-62885714D01*
X102530952Y-62885714D01*
X102340476Y-62838095D01*
X102245238Y-62790476D01*
X102150000Y-62695238D01*
X102102380Y-62552380D01*
X102102380Y-62457142D01*
X102150000Y-62314285D01*
X102197619Y-62266666D01*
X102102380Y-61409523D02*
X102102380Y-61600000D01*
X102150000Y-61695238D01*
X102197619Y-61742857D01*
X102340476Y-61838095D01*
X102530952Y-61885714D01*
X102911904Y-61885714D01*
X103007142Y-61838095D01*
X103054761Y-61790476D01*
X103102380Y-61695238D01*
X103102380Y-61504761D01*
X103054761Y-61409523D01*
X103007142Y-61361904D01*
X102911904Y-61314285D01*
X102673809Y-61314285D01*
X102578571Y-61361904D01*
X102530952Y-61409523D01*
X102483333Y-61504761D01*
X102483333Y-61695238D01*
X102530952Y-61790476D01*
X102578571Y-61838095D01*
X102673809Y-61885714D01*
X110357142Y-64566666D02*
X110404761Y-64614285D01*
X110452380Y-64757142D01*
X110452380Y-64852380D01*
X110404761Y-64995238D01*
X110309523Y-65090476D01*
X110214285Y-65138095D01*
X110023809Y-65185714D01*
X109880952Y-65185714D01*
X109690476Y-65138095D01*
X109595238Y-65090476D01*
X109500000Y-64995238D01*
X109452380Y-64852380D01*
X109452380Y-64757142D01*
X109500000Y-64614285D01*
X109547619Y-64566666D01*
X109785714Y-63709523D02*
X110452380Y-63709523D01*
X109404761Y-63947619D02*
X110119047Y-64185714D01*
X110119047Y-63566666D01*
M02*
