G04 #@! TF.GenerationSoftware,KiCad,Pcbnew,5.99.0-unknown-57e35c9~88~ubuntu19.10.1*
G04 #@! TF.CreationDate,2021-09-15T00:48:27-03:00*
G04 #@! TF.ProjectId,Femtosat,46656d74-6f73-4617-942e-6b696361645f,rev?*
G04 #@! TF.SameCoordinates,Original*
G04 #@! TF.FileFunction,Soldermask,Bot*
G04 #@! TF.FilePolarity,Negative*
%FSLAX46Y46*%
G04 Gerber Fmt 4.6, Leading zero omitted, Abs format (unit mm)*
G04 Created by KiCad (PCBNEW 5.99.0-unknown-57e35c9~88~ubuntu19.10.1) date 2021-09-15 00:48:27*
%MOMM*%
%LPD*%
G01*
G04 APERTURE LIST*
%ADD10C,5.102000*%
%ADD11C,1.702000*%
%ADD12C,1.626000*%
%ADD13C,1.802000*%
%ADD14O,1.852000X1.302000*%
G04 APERTURE END LIST*
D10*
X119660000Y-77270000D03*
X70390000Y-32645000D03*
X168190000Y-77270000D03*
X168190000Y-65030000D03*
X90710000Y-32645000D03*
X90710000Y-54870000D03*
X168190000Y-32645000D03*
X168190000Y-54870000D03*
G36*
G01*
X165939000Y-38271000D02*
X165939000Y-36671000D01*
G75*
G02*
X165990000Y-36620000I51000J0D01*
G01*
X167590000Y-36620000D01*
G75*
G02*
X167641000Y-36671000I0J-51000D01*
G01*
X167641000Y-38271000D01*
G75*
G02*
X167590000Y-38322000I-51000J0D01*
G01*
X165990000Y-38322000D01*
G75*
G02*
X165939000Y-38271000I0J51000D01*
G01*
G37*
D11*
X169330000Y-37471000D03*
X166790000Y-40011000D03*
X169330000Y-40011000D03*
X166790000Y-42551000D03*
X169330000Y-42551000D03*
X166790000Y-45091000D03*
X169330000Y-45091000D03*
X166790000Y-47631000D03*
X169330000Y-47631000D03*
X166790000Y-50171000D03*
X169330000Y-50171000D03*
D12*
X86690200Y-80590000D03*
X84150200Y-80590000D03*
X81610200Y-80590000D03*
X79070200Y-80590000D03*
X76530200Y-80590000D03*
X73990200Y-80590000D03*
X71450200Y-80590000D03*
X71450200Y-58510000D03*
X73990200Y-58510000D03*
X76530200Y-58510000D03*
X79070200Y-58510000D03*
X81610200Y-58510000D03*
X84150200Y-58510000D03*
G36*
G01*
X85928200Y-57697000D02*
X87452200Y-57697000D01*
G75*
G02*
X87503200Y-57748000I0J-51000D01*
G01*
X87503200Y-59272000D01*
G75*
G02*
X87452200Y-59323000I-51000J0D01*
G01*
X85928200Y-59323000D01*
G75*
G02*
X85877200Y-59272000I0J51000D01*
G01*
X85877200Y-57748000D01*
G75*
G02*
X85928200Y-57697000I51000J0D01*
G01*
G37*
X129032000Y-59588400D03*
X131572000Y-59588400D03*
X129032000Y-62128400D03*
X131572000Y-62128400D03*
X129032000Y-64668400D03*
X131572000Y-64668400D03*
X129032000Y-67208400D03*
G36*
G01*
X132385000Y-66446400D02*
X132385000Y-67970400D01*
G75*
G02*
X132334000Y-68021400I-51000J0D01*
G01*
X130810000Y-68021400D01*
G75*
G02*
X130759000Y-67970400I0J51000D01*
G01*
X130759000Y-66446400D01*
G75*
G02*
X130810000Y-66395400I51000J0D01*
G01*
X132334000Y-66395400D01*
G75*
G02*
X132385000Y-66446400I0J-51000D01*
G01*
G37*
D11*
X70950000Y-50410000D03*
X70950000Y-52950000D03*
G36*
G01*
X71801000Y-54690000D02*
X71801000Y-56290000D01*
G75*
G02*
X71750000Y-56341000I-51000J0D01*
G01*
X70150000Y-56341000D01*
G75*
G02*
X70099000Y-56290000I0J51000D01*
G01*
X70099000Y-54690000D01*
G75*
G02*
X70150000Y-54639000I51000J0D01*
G01*
X71750000Y-54639000D01*
G75*
G02*
X71801000Y-54690000I0J-51000D01*
G01*
G37*
D13*
X94005400Y-81203800D03*
X94005400Y-74703800D03*
X98505400Y-81203800D03*
X98505400Y-74703800D03*
D14*
X125000000Y-76384400D03*
G36*
G01*
X125654752Y-79035400D02*
X124345248Y-79035400D01*
G75*
G02*
X124074000Y-78764152I0J271248D01*
G01*
X124074000Y-78004648D01*
G75*
G02*
X124345248Y-77733400I271248J0D01*
G01*
X125654752Y-77733400D01*
G75*
G02*
X125926000Y-78004648I0J-271248D01*
G01*
X125926000Y-78764152D01*
G75*
G02*
X125654752Y-79035400I-271248J0D01*
G01*
G37*
M02*
