M48
; DRILL file {KiCad 5.99.0-unknown-57e35c9~88~ubuntu19.10.1} date Wed Sep 15 00:48:24 2021
; FORMAT={-:-/ absolute / metric / decimal}
; #@! TF.CreationDate,2021-09-15T00:48:24-03:00
; #@! TF.GenerationSoftware,Kicad,Pcbnew,5.99.0-unknown-57e35c9~88~ubuntu19.10.1
FMAT,2
METRIC
T1C0.500
T2C0.750
T3C0.762
T4C0.800
T5C0.900
T6C1.000
T7C2.800
%
G90
G05
T1
X69.659Y-78.613
X73.456Y-42.753
X73.469Y-36.893
X74.549Y-54.61
X76.53Y-74.463
X76.708Y-33.426
X76.708Y-46.431
X76.708Y-48.539
X76.733Y-41.91
X79.883Y-41.783
X79.883Y-45.314
X85.547Y-37.363
X86.69Y-74.413
X87.478Y-35.992
X89.129Y-38.811
X89.967Y-41.351
X90.322Y-63.246
X91.618Y-40.081
X93.599Y-50.063
X94.31Y-48.565
X96.545Y-44.018
X96.545Y-70.358
X98.171Y-42.621
X98.234Y-53.023
X98.501Y-70.231
X99.377Y-56.451
X99.403Y-63.221
X99.885Y-53.023
X100.508Y-39.446
X101.829Y-68.224
X101.879Y-47.854
X101.879Y-53.188
X106.223Y-66.675
X106.274Y-48.209
X106.985Y-81.788
X107.01Y-76.962
X108.407Y-55.474
X108.407Y-63.221
X108.687Y-76.911
X108.763Y-82.118
X109.347Y-68.224
X109.499Y-73.177
X109.626Y-44.323
X110.16Y-56.464
X110.16Y-64.618
X110.363Y-46.888
X111.201Y-66.7
X111.201Y-72.796
X112.116Y-40.843
X112.116Y-63.856
X112.979Y-33.223
X113.487Y-50.444
X113.513Y-36.652
X113.716Y-71.425
X114.884Y-33.02
X115.621Y-39.726
X115.646Y-41.554
X115.697Y-65.608
X117.551Y-44.348
X117.919Y-68.529
X118.821Y-39.243
X118.821Y-62.128
X120.548Y-60.858
X120.574Y-38.557
X120.726Y-34.544
X120.752Y-68.529
X121.983Y-40.132
X122.618Y-49.53
X122.733Y-55.855
X122.86Y-38.735
X123.088Y-44.526
X123.241Y-34.011
X123.317Y-72.962
X123.38Y-68.529
X124.917Y-57.633
X126.238Y-37.782
X127.102Y-55.143
X127.127Y-47.816
X128.575Y-41.3
X129.413Y-71.425
X130.073Y-47.625
X130.099Y-55.194
X131.242Y-71.45
X131.623Y-55.169
X132.588Y-37.465
X132.791Y-43.307
X134.874Y-45.11
X134.899Y-34.595
X138.176Y-62.103
X138.557Y-35.56
X138.557Y-50.165
X140.97Y-41.656
X143.383Y-35.535
X143.383Y-46.609
X147.066Y-32.868
X147.066Y-41.656
X147.142Y-54.381
T2
X125.0Y-76.384
X125.0Y-78.384
T3
X129.032Y-59.588
X129.032Y-62.128
X129.032Y-64.668
X129.032Y-67.208
X131.572Y-59.588
X131.572Y-62.128
X131.572Y-64.668
X131.572Y-67.208
X71.45Y-58.51
X71.45Y-80.59
X73.99Y-58.51
X73.99Y-80.59
X76.53Y-58.51
X76.53Y-80.59
X79.07Y-58.51
X79.07Y-80.59
X81.61Y-58.51
X81.61Y-80.59
X84.15Y-58.51
X84.15Y-80.59
X86.69Y-58.51
X86.69Y-80.59
T4
X166.79Y-37.471
X166.79Y-40.011
X166.79Y-42.551
X166.79Y-45.091
X166.79Y-47.631
X166.79Y-50.171
X169.33Y-37.471
X169.33Y-40.011
X169.33Y-42.551
X169.33Y-45.091
X169.33Y-47.631
X169.33Y-50.171
T5
X70.95Y-50.41
X70.95Y-52.95
X70.95Y-55.49
T6
X94.005Y-74.704
X94.005Y-81.204
X98.505Y-74.704
X98.505Y-81.204
T7
X70.39Y-32.645
X90.71Y-32.645
X90.71Y-54.87
X119.66Y-77.27
X168.19Y-32.645
X168.19Y-54.87
X168.19Y-65.03
X168.19Y-77.27
T0
M30
