G04 #@! TF.GenerationSoftware,KiCad,Pcbnew,5.99.0-unknown-57e35c9~88~ubuntu19.10.1*
G04 #@! TF.CreationDate,2022-01-19T00:43:41-03:00*
G04 #@! TF.ProjectId,Femtosat,46656d74-6f73-4617-942e-6b696361645f,rev?*
G04 #@! TF.SameCoordinates,Original*
G04 #@! TF.FileFunction,Soldermask,Top*
G04 #@! TF.FilePolarity,Negative*
%FSLAX46Y46*%
G04 Gerber Fmt 4.6, Leading zero omitted, Abs format (unit mm)*
G04 Created by KiCad (PCBNEW 5.99.0-unknown-57e35c9~88~ubuntu19.10.1) date 2022-01-19 00:43:41*
%MOMM*%
%LPD*%
G01*
G04 APERTURE LIST*
%ADD10C,5.102000*%
%ADD11C,1.702000*%
%ADD12C,1.626000*%
%ADD13C,1.802000*%
%ADD14O,1.852000X1.302000*%
G04 APERTURE END LIST*
G36*
G01*
X169082000Y-69922500D02*
X169082000Y-69396500D01*
G75*
G02*
X169345000Y-69133500I263000J0D01*
G01*
X169971000Y-69133500D01*
G75*
G02*
X170234000Y-69396500I0J-263000D01*
G01*
X170234000Y-69922500D01*
G75*
G02*
X169971000Y-70185500I-263000J0D01*
G01*
X169345000Y-70185500D01*
G75*
G02*
X169082000Y-69922500I0J263000D01*
G01*
G37*
G36*
G01*
X167332000Y-69922500D02*
X167332000Y-69396500D01*
G75*
G02*
X167595000Y-69133500I263000J0D01*
G01*
X168221000Y-69133500D01*
G75*
G02*
X168484000Y-69396500I0J-263000D01*
G01*
X168484000Y-69922500D01*
G75*
G02*
X168221000Y-70185500I-263000J0D01*
G01*
X167595000Y-70185500D01*
G75*
G02*
X167332000Y-69922500I0J263000D01*
G01*
G37*
G36*
G01*
X170150828Y-71927500D02*
X169193172Y-71927500D01*
G75*
G02*
X168921000Y-71655328I0J272172D01*
G01*
X168921000Y-70947672D01*
G75*
G02*
X169193172Y-70675500I272172J0D01*
G01*
X170150828Y-70675500D01*
G75*
G02*
X170423000Y-70947672I0J-272172D01*
G01*
X170423000Y-71655328D01*
G75*
G02*
X170150828Y-71927500I-272172J0D01*
G01*
G37*
G36*
G01*
X170150828Y-73977500D02*
X169193172Y-73977500D01*
G75*
G02*
X168921000Y-73705328I0J272172D01*
G01*
X168921000Y-72997672D01*
G75*
G02*
X169193172Y-72725500I272172J0D01*
G01*
X170150828Y-72725500D01*
G75*
G02*
X170423000Y-72997672I0J-272172D01*
G01*
X170423000Y-73705328D01*
G75*
G02*
X170150828Y-73977500I-272172J0D01*
G01*
G37*
G36*
G01*
X77300500Y-70953500D02*
X77300500Y-71204500D01*
G75*
G02*
X77175000Y-71330000I-125500J0D01*
G01*
X75699000Y-71330000D01*
G75*
G02*
X75573500Y-71204500I0J125500D01*
G01*
X75573500Y-70953500D01*
G75*
G02*
X75699000Y-70828000I125500J0D01*
G01*
X77175000Y-70828000D01*
G75*
G02*
X77300500Y-70953500I0J-125500D01*
G01*
G37*
G36*
G01*
X77300500Y-70303500D02*
X77300500Y-70554500D01*
G75*
G02*
X77175000Y-70680000I-125500J0D01*
G01*
X75699000Y-70680000D01*
G75*
G02*
X75573500Y-70554500I0J125500D01*
G01*
X75573500Y-70303500D01*
G75*
G02*
X75699000Y-70178000I125500J0D01*
G01*
X77175000Y-70178000D01*
G75*
G02*
X77300500Y-70303500I0J-125500D01*
G01*
G37*
G36*
G01*
X77300500Y-69653500D02*
X77300500Y-69904500D01*
G75*
G02*
X77175000Y-70030000I-125500J0D01*
G01*
X75699000Y-70030000D01*
G75*
G02*
X75573500Y-69904500I0J125500D01*
G01*
X75573500Y-69653500D01*
G75*
G02*
X75699000Y-69528000I125500J0D01*
G01*
X77175000Y-69528000D01*
G75*
G02*
X77300500Y-69653500I0J-125500D01*
G01*
G37*
G36*
G01*
X77300500Y-69003500D02*
X77300500Y-69254500D01*
G75*
G02*
X77175000Y-69380000I-125500J0D01*
G01*
X75699000Y-69380000D01*
G75*
G02*
X75573500Y-69254500I0J125500D01*
G01*
X75573500Y-69003500D01*
G75*
G02*
X75699000Y-68878000I125500J0D01*
G01*
X77175000Y-68878000D01*
G75*
G02*
X77300500Y-69003500I0J-125500D01*
G01*
G37*
G36*
G01*
X81525500Y-69003500D02*
X81525500Y-69254500D01*
G75*
G02*
X81400000Y-69380000I-125500J0D01*
G01*
X79924000Y-69380000D01*
G75*
G02*
X79798500Y-69254500I0J125500D01*
G01*
X79798500Y-69003500D01*
G75*
G02*
X79924000Y-68878000I125500J0D01*
G01*
X81400000Y-68878000D01*
G75*
G02*
X81525500Y-69003500I0J-125500D01*
G01*
G37*
G36*
G01*
X81525500Y-69653500D02*
X81525500Y-69904500D01*
G75*
G02*
X81400000Y-70030000I-125500J0D01*
G01*
X79924000Y-70030000D01*
G75*
G02*
X79798500Y-69904500I0J125500D01*
G01*
X79798500Y-69653500D01*
G75*
G02*
X79924000Y-69528000I125500J0D01*
G01*
X81400000Y-69528000D01*
G75*
G02*
X81525500Y-69653500I0J-125500D01*
G01*
G37*
G36*
G01*
X81525500Y-70303500D02*
X81525500Y-70554500D01*
G75*
G02*
X81400000Y-70680000I-125500J0D01*
G01*
X79924000Y-70680000D01*
G75*
G02*
X79798500Y-70554500I0J125500D01*
G01*
X79798500Y-70303500D01*
G75*
G02*
X79924000Y-70178000I125500J0D01*
G01*
X81400000Y-70178000D01*
G75*
G02*
X81525500Y-70303500I0J-125500D01*
G01*
G37*
G36*
G01*
X81525500Y-70953500D02*
X81525500Y-71204500D01*
G75*
G02*
X81400000Y-71330000I-125500J0D01*
G01*
X79924000Y-71330000D01*
G75*
G02*
X79798500Y-71204500I0J125500D01*
G01*
X79798500Y-70953500D01*
G75*
G02*
X79924000Y-70828000I125500J0D01*
G01*
X81400000Y-70828000D01*
G75*
G02*
X81525500Y-70953500I0J-125500D01*
G01*
G37*
G36*
G01*
X74748500Y-69868500D02*
X74222500Y-69868500D01*
G75*
G02*
X73959500Y-69605500I0J263000D01*
G01*
X73959500Y-68979500D01*
G75*
G02*
X74222500Y-68716500I263000J0D01*
G01*
X74748500Y-68716500D01*
G75*
G02*
X75011500Y-68979500I0J-263000D01*
G01*
X75011500Y-69605500D01*
G75*
G02*
X74748500Y-69868500I-263000J0D01*
G01*
G37*
G36*
G01*
X74748500Y-71618500D02*
X74222500Y-71618500D01*
G75*
G02*
X73959500Y-71355500I0J263000D01*
G01*
X73959500Y-70729500D01*
G75*
G02*
X74222500Y-70466500I263000J0D01*
G01*
X74748500Y-70466500D01*
G75*
G02*
X75011500Y-70729500I0J-263000D01*
G01*
X75011500Y-71355500D01*
G75*
G02*
X74748500Y-71618500I-263000J0D01*
G01*
G37*
D10*
X120360000Y-77270000D03*
X72390000Y-32645000D03*
X168190000Y-77270000D03*
X168190000Y-65030000D03*
X90710000Y-32645000D03*
X90710000Y-54870000D03*
X168190000Y-32645000D03*
X168190000Y-54870000D03*
G36*
G01*
X165939000Y-38271000D02*
X165939000Y-36671000D01*
G75*
G02*
X165990000Y-36620000I51000J0D01*
G01*
X167590000Y-36620000D01*
G75*
G02*
X167641000Y-36671000I0J-51000D01*
G01*
X167641000Y-38271000D01*
G75*
G02*
X167590000Y-38322000I-51000J0D01*
G01*
X165990000Y-38322000D01*
G75*
G02*
X165939000Y-38271000I0J51000D01*
G01*
G37*
D11*
X169330000Y-37471000D03*
X166790000Y-40011000D03*
X169330000Y-40011000D03*
X166790000Y-42551000D03*
X169330000Y-42551000D03*
X166790000Y-45091000D03*
X169330000Y-45091000D03*
X166790000Y-47631000D03*
X169330000Y-47631000D03*
X166790000Y-50171000D03*
X169330000Y-50171000D03*
G36*
G01*
X114774000Y-79487459D02*
X114774000Y-76909741D01*
G75*
G02*
X115036141Y-76647600I262141J0D01*
G01*
X116713859Y-76647600D01*
G75*
G02*
X116976000Y-76909741I0J-262141D01*
G01*
X116976000Y-79487459D01*
G75*
G02*
X116713859Y-79749600I-262141J0D01*
G01*
X115036141Y-79749600D01*
G75*
G02*
X114774000Y-79487459I0J262141D01*
G01*
G37*
G36*
G01*
X103424000Y-79487459D02*
X103424000Y-76909741D01*
G75*
G02*
X103686141Y-76647600I262141J0D01*
G01*
X105363859Y-76647600D01*
G75*
G02*
X105626000Y-76909741I0J-262141D01*
G01*
X105626000Y-79487459D01*
G75*
G02*
X105363859Y-79749600I-262141J0D01*
G01*
X103686141Y-79749600D01*
G75*
G02*
X103424000Y-79487459I0J262141D01*
G01*
G37*
G36*
G01*
X112874000Y-75924100D02*
X112874000Y-74673100D01*
G75*
G02*
X113099500Y-74447600I225500J0D01*
G01*
X113550500Y-74447600D01*
G75*
G02*
X113776000Y-74673100I0J-225500D01*
G01*
X113776000Y-75924100D01*
G75*
G02*
X113550500Y-76149600I-225500J0D01*
G01*
X113099500Y-76149600D01*
G75*
G02*
X112874000Y-75924100I0J225500D01*
G01*
G37*
G36*
G01*
X111624000Y-75924100D02*
X111624000Y-74673100D01*
G75*
G02*
X111849500Y-74447600I225500J0D01*
G01*
X112300500Y-74447600D01*
G75*
G02*
X112526000Y-74673100I0J-225500D01*
G01*
X112526000Y-75924100D01*
G75*
G02*
X112300500Y-76149600I-225500J0D01*
G01*
X111849500Y-76149600D01*
G75*
G02*
X111624000Y-75924100I0J225500D01*
G01*
G37*
G36*
G01*
X110374000Y-75924100D02*
X110374000Y-74673100D01*
G75*
G02*
X110599500Y-74447600I225500J0D01*
G01*
X111050500Y-74447600D01*
G75*
G02*
X111276000Y-74673100I0J-225500D01*
G01*
X111276000Y-75924100D01*
G75*
G02*
X111050500Y-76149600I-225500J0D01*
G01*
X110599500Y-76149600D01*
G75*
G02*
X110374000Y-75924100I0J225500D01*
G01*
G37*
G36*
G01*
X109124000Y-75924100D02*
X109124000Y-74673100D01*
G75*
G02*
X109349500Y-74447600I225500J0D01*
G01*
X109800500Y-74447600D01*
G75*
G02*
X110026000Y-74673100I0J-225500D01*
G01*
X110026000Y-75924100D01*
G75*
G02*
X109800500Y-76149600I-225500J0D01*
G01*
X109349500Y-76149600D01*
G75*
G02*
X109124000Y-75924100I0J225500D01*
G01*
G37*
G36*
G01*
X107874000Y-75924100D02*
X107874000Y-74673100D01*
G75*
G02*
X108099500Y-74447600I225500J0D01*
G01*
X108550500Y-74447600D01*
G75*
G02*
X108776000Y-74673100I0J-225500D01*
G01*
X108776000Y-75924100D01*
G75*
G02*
X108550500Y-76149600I-225500J0D01*
G01*
X108099500Y-76149600D01*
G75*
G02*
X107874000Y-75924100I0J225500D01*
G01*
G37*
G36*
G01*
X106624000Y-75924100D02*
X106624000Y-74673100D01*
G75*
G02*
X106849500Y-74447600I225500J0D01*
G01*
X107300500Y-74447600D01*
G75*
G02*
X107526000Y-74673100I0J-225500D01*
G01*
X107526000Y-75924100D01*
G75*
G02*
X107300500Y-76149600I-225500J0D01*
G01*
X106849500Y-76149600D01*
G75*
G02*
X106624000Y-75924100I0J225500D01*
G01*
G37*
D12*
X88620000Y-81230000D03*
X86080000Y-81230000D03*
X83540000Y-81230000D03*
X81000000Y-81230000D03*
X78460000Y-81230000D03*
X75920000Y-81230000D03*
X73380000Y-81230000D03*
X73380000Y-58330000D03*
X75920000Y-58330000D03*
X78460000Y-58330000D03*
X81000000Y-58330000D03*
X83540000Y-58330000D03*
X86080000Y-58330000D03*
G36*
G01*
X87858000Y-57517000D02*
X89382000Y-57517000D01*
G75*
G02*
X89433000Y-57568000I0J-51000D01*
G01*
X89433000Y-59092000D01*
G75*
G02*
X89382000Y-59143000I-51000J0D01*
G01*
X87858000Y-59143000D01*
G75*
G02*
X87807000Y-59092000I0J51000D01*
G01*
X87807000Y-57568000D01*
G75*
G02*
X87858000Y-57517000I51000J0D01*
G01*
G37*
G36*
G01*
X107237100Y-43311700D02*
X105437100Y-43311700D01*
G75*
G02*
X105386100Y-43260700I0J51000D01*
G01*
X105386100Y-41510700D01*
G75*
G02*
X105437100Y-41459700I51000J0D01*
G01*
X107237100Y-41459700D01*
G75*
G02*
X107288100Y-41510700I0J-51000D01*
G01*
X107288100Y-43260700D01*
G75*
G02*
X107237100Y-43311700I-51000J0D01*
G01*
G37*
G36*
G01*
X107237100Y-46561700D02*
X105437100Y-46561700D01*
G75*
G02*
X105386100Y-46510700I0J51000D01*
G01*
X105386100Y-44760700D01*
G75*
G02*
X105437100Y-44709700I51000J0D01*
G01*
X107237100Y-44709700D01*
G75*
G02*
X107288100Y-44760700I0J-51000D01*
G01*
X107288100Y-46510700D01*
G75*
G02*
X107237100Y-46561700I-51000J0D01*
G01*
G37*
G36*
G01*
X101064300Y-45009700D02*
X101614300Y-45009700D01*
G75*
G02*
X101665300Y-45060700I0J-51000D01*
G01*
X101665300Y-46660700D01*
G75*
G02*
X101614300Y-46711700I-51000J0D01*
G01*
X101064300Y-46711700D01*
G75*
G02*
X101013300Y-46660700I0J51000D01*
G01*
X101013300Y-45060700D01*
G75*
G02*
X101064300Y-45009700I51000J0D01*
G01*
G37*
G36*
G01*
X100264300Y-45009700D02*
X100814300Y-45009700D01*
G75*
G02*
X100865300Y-45060700I0J-51000D01*
G01*
X100865300Y-46660700D01*
G75*
G02*
X100814300Y-46711700I-51000J0D01*
G01*
X100264300Y-46711700D01*
G75*
G02*
X100213300Y-46660700I0J51000D01*
G01*
X100213300Y-45060700D01*
G75*
G02*
X100264300Y-45009700I51000J0D01*
G01*
G37*
G36*
G01*
X99464300Y-45009700D02*
X100014300Y-45009700D01*
G75*
G02*
X100065300Y-45060700I0J-51000D01*
G01*
X100065300Y-46660700D01*
G75*
G02*
X100014300Y-46711700I-51000J0D01*
G01*
X99464300Y-46711700D01*
G75*
G02*
X99413300Y-46660700I0J51000D01*
G01*
X99413300Y-45060700D01*
G75*
G02*
X99464300Y-45009700I51000J0D01*
G01*
G37*
G36*
G01*
X98664300Y-45009700D02*
X99214300Y-45009700D01*
G75*
G02*
X99265300Y-45060700I0J-51000D01*
G01*
X99265300Y-46660700D01*
G75*
G02*
X99214300Y-46711700I-51000J0D01*
G01*
X98664300Y-46711700D01*
G75*
G02*
X98613300Y-46660700I0J51000D01*
G01*
X98613300Y-45060700D01*
G75*
G02*
X98664300Y-45009700I51000J0D01*
G01*
G37*
G36*
G01*
X97864300Y-45009700D02*
X98414300Y-45009700D01*
G75*
G02*
X98465300Y-45060700I0J-51000D01*
G01*
X98465300Y-46660700D01*
G75*
G02*
X98414300Y-46711700I-51000J0D01*
G01*
X97864300Y-46711700D01*
G75*
G02*
X97813300Y-46660700I0J51000D01*
G01*
X97813300Y-45060700D01*
G75*
G02*
X97864300Y-45009700I51000J0D01*
G01*
G37*
G36*
G01*
X97064300Y-45009700D02*
X97614300Y-45009700D01*
G75*
G02*
X97665300Y-45060700I0J-51000D01*
G01*
X97665300Y-46660700D01*
G75*
G02*
X97614300Y-46711700I-51000J0D01*
G01*
X97064300Y-46711700D01*
G75*
G02*
X97013300Y-46660700I0J51000D01*
G01*
X97013300Y-45060700D01*
G75*
G02*
X97064300Y-45009700I51000J0D01*
G01*
G37*
G36*
G01*
X96264300Y-45009700D02*
X96814300Y-45009700D01*
G75*
G02*
X96865300Y-45060700I0J-51000D01*
G01*
X96865300Y-46660700D01*
G75*
G02*
X96814300Y-46711700I-51000J0D01*
G01*
X96264300Y-46711700D01*
G75*
G02*
X96213300Y-46660700I0J51000D01*
G01*
X96213300Y-45060700D01*
G75*
G02*
X96264300Y-45009700I51000J0D01*
G01*
G37*
G36*
G01*
X95464300Y-45009700D02*
X96014300Y-45009700D01*
G75*
G02*
X96065300Y-45060700I0J-51000D01*
G01*
X96065300Y-46660700D01*
G75*
G02*
X96014300Y-46711700I-51000J0D01*
G01*
X95464300Y-46711700D01*
G75*
G02*
X95413300Y-46660700I0J51000D01*
G01*
X95413300Y-45060700D01*
G75*
G02*
X95464300Y-45009700I51000J0D01*
G01*
G37*
G36*
G01*
X95140300Y-44135700D02*
X95140300Y-44685700D01*
G75*
G02*
X95089300Y-44736700I-51000J0D01*
G01*
X93489300Y-44736700D01*
G75*
G02*
X93438300Y-44685700I0J51000D01*
G01*
X93438300Y-44135700D01*
G75*
G02*
X93489300Y-44084700I51000J0D01*
G01*
X95089300Y-44084700D01*
G75*
G02*
X95140300Y-44135700I0J-51000D01*
G01*
G37*
G36*
G01*
X95140300Y-43335700D02*
X95140300Y-43885700D01*
G75*
G02*
X95089300Y-43936700I-51000J0D01*
G01*
X93489300Y-43936700D01*
G75*
G02*
X93438300Y-43885700I0J51000D01*
G01*
X93438300Y-43335700D01*
G75*
G02*
X93489300Y-43284700I51000J0D01*
G01*
X95089300Y-43284700D01*
G75*
G02*
X95140300Y-43335700I0J-51000D01*
G01*
G37*
G36*
G01*
X95140300Y-42535700D02*
X95140300Y-43085700D01*
G75*
G02*
X95089300Y-43136700I-51000J0D01*
G01*
X93489300Y-43136700D01*
G75*
G02*
X93438300Y-43085700I0J51000D01*
G01*
X93438300Y-42535700D01*
G75*
G02*
X93489300Y-42484700I51000J0D01*
G01*
X95089300Y-42484700D01*
G75*
G02*
X95140300Y-42535700I0J-51000D01*
G01*
G37*
G36*
G01*
X95140300Y-41735700D02*
X95140300Y-42285700D01*
G75*
G02*
X95089300Y-42336700I-51000J0D01*
G01*
X93489300Y-42336700D01*
G75*
G02*
X93438300Y-42285700I0J51000D01*
G01*
X93438300Y-41735700D01*
G75*
G02*
X93489300Y-41684700I51000J0D01*
G01*
X95089300Y-41684700D01*
G75*
G02*
X95140300Y-41735700I0J-51000D01*
G01*
G37*
G36*
G01*
X95140300Y-40935700D02*
X95140300Y-41485700D01*
G75*
G02*
X95089300Y-41536700I-51000J0D01*
G01*
X93489300Y-41536700D01*
G75*
G02*
X93438300Y-41485700I0J51000D01*
G01*
X93438300Y-40935700D01*
G75*
G02*
X93489300Y-40884700I51000J0D01*
G01*
X95089300Y-40884700D01*
G75*
G02*
X95140300Y-40935700I0J-51000D01*
G01*
G37*
G36*
G01*
X95140300Y-40135700D02*
X95140300Y-40685700D01*
G75*
G02*
X95089300Y-40736700I-51000J0D01*
G01*
X93489300Y-40736700D01*
G75*
G02*
X93438300Y-40685700I0J51000D01*
G01*
X93438300Y-40135700D01*
G75*
G02*
X93489300Y-40084700I51000J0D01*
G01*
X95089300Y-40084700D01*
G75*
G02*
X95140300Y-40135700I0J-51000D01*
G01*
G37*
G36*
G01*
X95140300Y-39335700D02*
X95140300Y-39885700D01*
G75*
G02*
X95089300Y-39936700I-51000J0D01*
G01*
X93489300Y-39936700D01*
G75*
G02*
X93438300Y-39885700I0J51000D01*
G01*
X93438300Y-39335700D01*
G75*
G02*
X93489300Y-39284700I51000J0D01*
G01*
X95089300Y-39284700D01*
G75*
G02*
X95140300Y-39335700I0J-51000D01*
G01*
G37*
G36*
G01*
X95140300Y-38535700D02*
X95140300Y-39085700D01*
G75*
G02*
X95089300Y-39136700I-51000J0D01*
G01*
X93489300Y-39136700D01*
G75*
G02*
X93438300Y-39085700I0J51000D01*
G01*
X93438300Y-38535700D01*
G75*
G02*
X93489300Y-38484700I51000J0D01*
G01*
X95089300Y-38484700D01*
G75*
G02*
X95140300Y-38535700I0J-51000D01*
G01*
G37*
G36*
G01*
X95464300Y-36509700D02*
X96014300Y-36509700D01*
G75*
G02*
X96065300Y-36560700I0J-51000D01*
G01*
X96065300Y-38160700D01*
G75*
G02*
X96014300Y-38211700I-51000J0D01*
G01*
X95464300Y-38211700D01*
G75*
G02*
X95413300Y-38160700I0J51000D01*
G01*
X95413300Y-36560700D01*
G75*
G02*
X95464300Y-36509700I51000J0D01*
G01*
G37*
G36*
G01*
X96264300Y-36509700D02*
X96814300Y-36509700D01*
G75*
G02*
X96865300Y-36560700I0J-51000D01*
G01*
X96865300Y-38160700D01*
G75*
G02*
X96814300Y-38211700I-51000J0D01*
G01*
X96264300Y-38211700D01*
G75*
G02*
X96213300Y-38160700I0J51000D01*
G01*
X96213300Y-36560700D01*
G75*
G02*
X96264300Y-36509700I51000J0D01*
G01*
G37*
G36*
G01*
X97064300Y-36509700D02*
X97614300Y-36509700D01*
G75*
G02*
X97665300Y-36560700I0J-51000D01*
G01*
X97665300Y-38160700D01*
G75*
G02*
X97614300Y-38211700I-51000J0D01*
G01*
X97064300Y-38211700D01*
G75*
G02*
X97013300Y-38160700I0J51000D01*
G01*
X97013300Y-36560700D01*
G75*
G02*
X97064300Y-36509700I51000J0D01*
G01*
G37*
G36*
G01*
X97864300Y-36509700D02*
X98414300Y-36509700D01*
G75*
G02*
X98465300Y-36560700I0J-51000D01*
G01*
X98465300Y-38160700D01*
G75*
G02*
X98414300Y-38211700I-51000J0D01*
G01*
X97864300Y-38211700D01*
G75*
G02*
X97813300Y-38160700I0J51000D01*
G01*
X97813300Y-36560700D01*
G75*
G02*
X97864300Y-36509700I51000J0D01*
G01*
G37*
G36*
G01*
X98664300Y-36509700D02*
X99214300Y-36509700D01*
G75*
G02*
X99265300Y-36560700I0J-51000D01*
G01*
X99265300Y-38160700D01*
G75*
G02*
X99214300Y-38211700I-51000J0D01*
G01*
X98664300Y-38211700D01*
G75*
G02*
X98613300Y-38160700I0J51000D01*
G01*
X98613300Y-36560700D01*
G75*
G02*
X98664300Y-36509700I51000J0D01*
G01*
G37*
G36*
G01*
X99464300Y-36509700D02*
X100014300Y-36509700D01*
G75*
G02*
X100065300Y-36560700I0J-51000D01*
G01*
X100065300Y-38160700D01*
G75*
G02*
X100014300Y-38211700I-51000J0D01*
G01*
X99464300Y-38211700D01*
G75*
G02*
X99413300Y-38160700I0J51000D01*
G01*
X99413300Y-36560700D01*
G75*
G02*
X99464300Y-36509700I51000J0D01*
G01*
G37*
G36*
G01*
X100264300Y-36509700D02*
X100814300Y-36509700D01*
G75*
G02*
X100865300Y-36560700I0J-51000D01*
G01*
X100865300Y-38160700D01*
G75*
G02*
X100814300Y-38211700I-51000J0D01*
G01*
X100264300Y-38211700D01*
G75*
G02*
X100213300Y-38160700I0J51000D01*
G01*
X100213300Y-36560700D01*
G75*
G02*
X100264300Y-36509700I51000J0D01*
G01*
G37*
G36*
G01*
X101064300Y-36509700D02*
X101614300Y-36509700D01*
G75*
G02*
X101665300Y-36560700I0J-51000D01*
G01*
X101665300Y-38160700D01*
G75*
G02*
X101614300Y-38211700I-51000J0D01*
G01*
X101064300Y-38211700D01*
G75*
G02*
X101013300Y-38160700I0J51000D01*
G01*
X101013300Y-36560700D01*
G75*
G02*
X101064300Y-36509700I51000J0D01*
G01*
G37*
G36*
G01*
X103640300Y-38535700D02*
X103640300Y-39085700D01*
G75*
G02*
X103589300Y-39136700I-51000J0D01*
G01*
X101989300Y-39136700D01*
G75*
G02*
X101938300Y-39085700I0J51000D01*
G01*
X101938300Y-38535700D01*
G75*
G02*
X101989300Y-38484700I51000J0D01*
G01*
X103589300Y-38484700D01*
G75*
G02*
X103640300Y-38535700I0J-51000D01*
G01*
G37*
G36*
G01*
X103640300Y-39335700D02*
X103640300Y-39885700D01*
G75*
G02*
X103589300Y-39936700I-51000J0D01*
G01*
X101989300Y-39936700D01*
G75*
G02*
X101938300Y-39885700I0J51000D01*
G01*
X101938300Y-39335700D01*
G75*
G02*
X101989300Y-39284700I51000J0D01*
G01*
X103589300Y-39284700D01*
G75*
G02*
X103640300Y-39335700I0J-51000D01*
G01*
G37*
G36*
G01*
X103640300Y-40135700D02*
X103640300Y-40685700D01*
G75*
G02*
X103589300Y-40736700I-51000J0D01*
G01*
X101989300Y-40736700D01*
G75*
G02*
X101938300Y-40685700I0J51000D01*
G01*
X101938300Y-40135700D01*
G75*
G02*
X101989300Y-40084700I51000J0D01*
G01*
X103589300Y-40084700D01*
G75*
G02*
X103640300Y-40135700I0J-51000D01*
G01*
G37*
G36*
G01*
X103640300Y-40935700D02*
X103640300Y-41485700D01*
G75*
G02*
X103589300Y-41536700I-51000J0D01*
G01*
X101989300Y-41536700D01*
G75*
G02*
X101938300Y-41485700I0J51000D01*
G01*
X101938300Y-40935700D01*
G75*
G02*
X101989300Y-40884700I51000J0D01*
G01*
X103589300Y-40884700D01*
G75*
G02*
X103640300Y-40935700I0J-51000D01*
G01*
G37*
G36*
G01*
X103640300Y-41735700D02*
X103640300Y-42285700D01*
G75*
G02*
X103589300Y-42336700I-51000J0D01*
G01*
X101989300Y-42336700D01*
G75*
G02*
X101938300Y-42285700I0J51000D01*
G01*
X101938300Y-41735700D01*
G75*
G02*
X101989300Y-41684700I51000J0D01*
G01*
X103589300Y-41684700D01*
G75*
G02*
X103640300Y-41735700I0J-51000D01*
G01*
G37*
G36*
G01*
X103640300Y-42535700D02*
X103640300Y-43085700D01*
G75*
G02*
X103589300Y-43136700I-51000J0D01*
G01*
X101989300Y-43136700D01*
G75*
G02*
X101938300Y-43085700I0J51000D01*
G01*
X101938300Y-42535700D01*
G75*
G02*
X101989300Y-42484700I51000J0D01*
G01*
X103589300Y-42484700D01*
G75*
G02*
X103640300Y-42535700I0J-51000D01*
G01*
G37*
G36*
G01*
X103640300Y-43335700D02*
X103640300Y-43885700D01*
G75*
G02*
X103589300Y-43936700I-51000J0D01*
G01*
X101989300Y-43936700D01*
G75*
G02*
X101938300Y-43885700I0J51000D01*
G01*
X101938300Y-43335700D01*
G75*
G02*
X101989300Y-43284700I51000J0D01*
G01*
X103589300Y-43284700D01*
G75*
G02*
X103640300Y-43335700I0J-51000D01*
G01*
G37*
G36*
G01*
X103640300Y-44135700D02*
X103640300Y-44685700D01*
G75*
G02*
X103589300Y-44736700I-51000J0D01*
G01*
X101989300Y-44736700D01*
G75*
G02*
X101938300Y-44685700I0J51000D01*
G01*
X101938300Y-44135700D01*
G75*
G02*
X101989300Y-44084700I51000J0D01*
G01*
X103589300Y-44084700D01*
G75*
G02*
X103640300Y-44135700I0J-51000D01*
G01*
G37*
X129532000Y-59588400D03*
X132072000Y-59588400D03*
X129532000Y-62128400D03*
X132072000Y-62128400D03*
X129532000Y-64668400D03*
X132072000Y-64668400D03*
X129532000Y-67208400D03*
G36*
G01*
X132885000Y-66446400D02*
X132885000Y-67970400D01*
G75*
G02*
X132834000Y-68021400I-51000J0D01*
G01*
X131310000Y-68021400D01*
G75*
G02*
X131259000Y-67970400I0J51000D01*
G01*
X131259000Y-66446400D01*
G75*
G02*
X131310000Y-66395400I51000J0D01*
G01*
X132834000Y-66395400D01*
G75*
G02*
X132885000Y-66446400I0J-51000D01*
G01*
G37*
G36*
G01*
X127612200Y-50733800D02*
X126612200Y-50733800D01*
G75*
G02*
X126561200Y-50682800I0J51000D01*
G01*
X126561200Y-48482800D01*
G75*
G02*
X126612200Y-48431800I51000J0D01*
G01*
X127612200Y-48431800D01*
G75*
G02*
X127663200Y-48482800I0J-51000D01*
G01*
X127663200Y-50682800D01*
G75*
G02*
X127612200Y-50733800I-51000J0D01*
G01*
G37*
G36*
G01*
X130612200Y-50733800D02*
X129612200Y-50733800D01*
G75*
G02*
X129561200Y-50682800I0J51000D01*
G01*
X129561200Y-48482800D01*
G75*
G02*
X129612200Y-48431800I51000J0D01*
G01*
X130612200Y-48431800D01*
G75*
G02*
X130663200Y-48482800I0J-51000D01*
G01*
X130663200Y-50682800D01*
G75*
G02*
X130612200Y-50733800I-51000J0D01*
G01*
G37*
G36*
G01*
X131062200Y-44233800D02*
X127662200Y-44233800D01*
G75*
G02*
X127611200Y-44182800I0J51000D01*
G01*
X127611200Y-42382800D01*
G75*
G02*
X127662200Y-42331800I51000J0D01*
G01*
X131062200Y-42331800D01*
G75*
G02*
X131113200Y-42382800I0J-51000D01*
G01*
X131113200Y-44182800D01*
G75*
G02*
X131062200Y-44233800I-51000J0D01*
G01*
G37*
G36*
G01*
X129112200Y-50733800D02*
X128112200Y-50733800D01*
G75*
G02*
X128061200Y-50682800I0J51000D01*
G01*
X128061200Y-48482800D01*
G75*
G02*
X128112200Y-48431800I51000J0D01*
G01*
X129112200Y-48431800D01*
G75*
G02*
X129163200Y-48482800I0J-51000D01*
G01*
X129163200Y-50682800D01*
G75*
G02*
X129112200Y-50733800I-51000J0D01*
G01*
G37*
G36*
G01*
X132112200Y-50733800D02*
X131112200Y-50733800D01*
G75*
G02*
X131061200Y-50682800I0J51000D01*
G01*
X131061200Y-48482800D01*
G75*
G02*
X131112200Y-48431800I51000J0D01*
G01*
X132112200Y-48431800D01*
G75*
G02*
X132163200Y-48482800I0J-51000D01*
G01*
X132163200Y-50682800D01*
G75*
G02*
X132112200Y-50733800I-51000J0D01*
G01*
G37*
D11*
X73570000Y-50410000D03*
X73570000Y-52950000D03*
G36*
G01*
X74421000Y-54690000D02*
X74421000Y-56290000D01*
G75*
G02*
X74370000Y-56341000I-51000J0D01*
G01*
X72770000Y-56341000D01*
G75*
G02*
X72719000Y-56290000I0J51000D01*
G01*
X72719000Y-54690000D01*
G75*
G02*
X72770000Y-54639000I51000J0D01*
G01*
X74370000Y-54639000D01*
G75*
G02*
X74421000Y-54690000I0J-51000D01*
G01*
G37*
G36*
X104416327Y-52868097D02*
G01*
X104405200Y-52836299D01*
X104405200Y-51103300D01*
X104424402Y-51063427D01*
X104456200Y-51052300D01*
X107581201Y-51052300D01*
X107621074Y-51071502D01*
X107632201Y-51103300D01*
X107632201Y-51468800D01*
X109056200Y-51468801D01*
X109096073Y-51488003D01*
X109107200Y-51519801D01*
X109107200Y-52419800D01*
X109087997Y-52459673D01*
X109056199Y-52470800D01*
X107632200Y-52470799D01*
X107632200Y-52836299D01*
X107612998Y-52876172D01*
X107581200Y-52887299D01*
X104456200Y-52887299D01*
X104416327Y-52868097D01*
G37*
G36*
G01*
X109107200Y-50019800D02*
X109107200Y-50919800D01*
G75*
G02*
X109056200Y-50970800I-51000J0D01*
G01*
X107756200Y-50970800D01*
G75*
G02*
X107705200Y-50919800I0J51000D01*
G01*
X107705200Y-50019800D01*
G75*
G02*
X107756200Y-49968800I51000J0D01*
G01*
X109056200Y-49968800D01*
G75*
G02*
X109107200Y-50019800I0J-51000D01*
G01*
G37*
G36*
G01*
X109107200Y-53019800D02*
X109107200Y-53919800D01*
G75*
G02*
X109056200Y-53970800I-51000J0D01*
G01*
X107756200Y-53970800D01*
G75*
G02*
X107705200Y-53919800I0J51000D01*
G01*
X107705200Y-53019800D01*
G75*
G02*
X107756200Y-52968800I51000J0D01*
G01*
X109056200Y-52968800D01*
G75*
G02*
X109107200Y-53019800I0J-51000D01*
G01*
G37*
D13*
X97000000Y-81203800D03*
X97000000Y-74703800D03*
X101500000Y-81203800D03*
X101500000Y-74703800D03*
G36*
G01*
X126849200Y-52978600D02*
X127375200Y-52978600D01*
G75*
G02*
X127638200Y-53241600I0J-263000D01*
G01*
X127638200Y-53867600D01*
G75*
G02*
X127375200Y-54130600I-263000J0D01*
G01*
X126849200Y-54130600D01*
G75*
G02*
X126586200Y-53867600I0J263000D01*
G01*
X126586200Y-53241600D01*
G75*
G02*
X126849200Y-52978600I263000J0D01*
G01*
G37*
G36*
G01*
X126849200Y-51228600D02*
X127375200Y-51228600D01*
G75*
G02*
X127638200Y-51491600I0J-263000D01*
G01*
X127638200Y-52117600D01*
G75*
G02*
X127375200Y-52380600I-263000J0D01*
G01*
X126849200Y-52380600D01*
G75*
G02*
X126586200Y-52117600I0J263000D01*
G01*
X126586200Y-51491600D01*
G75*
G02*
X126849200Y-51228600I263000J0D01*
G01*
G37*
G36*
G01*
X89681900Y-47019100D02*
X89681900Y-47545100D01*
G75*
G02*
X89418900Y-47808100I-263000J0D01*
G01*
X88792900Y-47808100D01*
G75*
G02*
X88529900Y-47545100I0J263000D01*
G01*
X88529900Y-47019100D01*
G75*
G02*
X88792900Y-46756100I263000J0D01*
G01*
X89418900Y-46756100D01*
G75*
G02*
X89681900Y-47019100I0J-263000D01*
G01*
G37*
G36*
G01*
X91431900Y-47019100D02*
X91431900Y-47545100D01*
G75*
G02*
X91168900Y-47808100I-263000J0D01*
G01*
X90542900Y-47808100D01*
G75*
G02*
X90279900Y-47545100I0J263000D01*
G01*
X90279900Y-47019100D01*
G75*
G02*
X90542900Y-46756100I263000J0D01*
G01*
X91168900Y-46756100D01*
G75*
G02*
X91431900Y-47019100I0J-263000D01*
G01*
G37*
G36*
G01*
X76294700Y-46983100D02*
X75768700Y-46983100D01*
G75*
G02*
X75505700Y-46720100I0J263000D01*
G01*
X75505700Y-46094100D01*
G75*
G02*
X75768700Y-45831100I263000J0D01*
G01*
X76294700Y-45831100D01*
G75*
G02*
X76557700Y-46094100I0J-263000D01*
G01*
X76557700Y-46720100D01*
G75*
G02*
X76294700Y-46983100I-263000J0D01*
G01*
G37*
G36*
G01*
X76294700Y-48733100D02*
X75768700Y-48733100D01*
G75*
G02*
X75505700Y-48470100I0J263000D01*
G01*
X75505700Y-47844100D01*
G75*
G02*
X75768700Y-47581100I263000J0D01*
G01*
X76294700Y-47581100D01*
G75*
G02*
X76557700Y-47844100I0J-263000D01*
G01*
X76557700Y-48470100D01*
G75*
G02*
X76294700Y-48733100I-263000J0D01*
G01*
G37*
G36*
G01*
X107401000Y-72711200D02*
X107401000Y-73237200D01*
G75*
G02*
X107138000Y-73500200I-263000J0D01*
G01*
X106512000Y-73500200D01*
G75*
G02*
X106249000Y-73237200I0J263000D01*
G01*
X106249000Y-72711200D01*
G75*
G02*
X106512000Y-72448200I263000J0D01*
G01*
X107138000Y-72448200D01*
G75*
G02*
X107401000Y-72711200I0J-263000D01*
G01*
G37*
G36*
G01*
X109151000Y-72711200D02*
X109151000Y-73237200D01*
G75*
G02*
X108888000Y-73500200I-263000J0D01*
G01*
X108262000Y-73500200D01*
G75*
G02*
X107999000Y-73237200I0J263000D01*
G01*
X107999000Y-72711200D01*
G75*
G02*
X108262000Y-72448200I263000J0D01*
G01*
X108888000Y-72448200D01*
G75*
G02*
X109151000Y-72711200I0J-263000D01*
G01*
G37*
G36*
G01*
X101527500Y-51035500D02*
X102053500Y-51035500D01*
G75*
G02*
X102316500Y-51298500I0J-263000D01*
G01*
X102316500Y-51924500D01*
G75*
G02*
X102053500Y-52187500I-263000J0D01*
G01*
X101527500Y-52187500D01*
G75*
G02*
X101264500Y-51924500I0J263000D01*
G01*
X101264500Y-51298500D01*
G75*
G02*
X101527500Y-51035500I263000J0D01*
G01*
G37*
G36*
G01*
X101527500Y-49285500D02*
X102053500Y-49285500D01*
G75*
G02*
X102316500Y-49548500I0J-263000D01*
G01*
X102316500Y-50174500D01*
G75*
G02*
X102053500Y-50437500I-263000J0D01*
G01*
X101527500Y-50437500D01*
G75*
G02*
X101264500Y-50174500I0J263000D01*
G01*
X101264500Y-49548500D01*
G75*
G02*
X101527500Y-49285500I263000J0D01*
G01*
G37*
G36*
G01*
X104885428Y-33992600D02*
X103927772Y-33992600D01*
G75*
G02*
X103655600Y-33720428I0J272172D01*
G01*
X103655600Y-33012772D01*
G75*
G02*
X103927772Y-32740600I272172J0D01*
G01*
X104885428Y-32740600D01*
G75*
G02*
X105157600Y-33012772I0J-272172D01*
G01*
X105157600Y-33720428D01*
G75*
G02*
X104885428Y-33992600I-272172J0D01*
G01*
G37*
G36*
G01*
X104885428Y-36042600D02*
X103927772Y-36042600D01*
G75*
G02*
X103655600Y-35770428I0J272172D01*
G01*
X103655600Y-35062772D01*
G75*
G02*
X103927772Y-34790600I272172J0D01*
G01*
X104885428Y-34790600D01*
G75*
G02*
X105157600Y-35062772I0J-272172D01*
G01*
X105157600Y-35770428D01*
G75*
G02*
X104885428Y-36042600I-272172J0D01*
G01*
G37*
D14*
X125000000Y-76384400D03*
G36*
G01*
X125654752Y-79035400D02*
X124345248Y-79035400D01*
G75*
G02*
X124074000Y-78764152I0J271248D01*
G01*
X124074000Y-78004648D01*
G75*
G02*
X124345248Y-77733400I271248J0D01*
G01*
X125654752Y-77733400D01*
G75*
G02*
X125926000Y-78004648I0J-271248D01*
G01*
X125926000Y-78764152D01*
G75*
G02*
X125654752Y-79035400I-271248J0D01*
G01*
G37*
G36*
G01*
X68800000Y-45334700D02*
X70700000Y-45334700D01*
G75*
G02*
X70751000Y-45385700I0J-51000D01*
G01*
X70751000Y-46385700D01*
G75*
G02*
X70700000Y-46436700I-51000J0D01*
G01*
X68800000Y-46436700D01*
G75*
G02*
X68749000Y-46385700I0J51000D01*
G01*
X68749000Y-45385700D01*
G75*
G02*
X68800000Y-45334700I51000J0D01*
G01*
G37*
G36*
G01*
X68800000Y-42234700D02*
X70700000Y-42234700D01*
G75*
G02*
X70751000Y-42285700I0J-51000D01*
G01*
X70751000Y-44085700D01*
G75*
G02*
X70700000Y-44136700I-51000J0D01*
G01*
X68800000Y-44136700D01*
G75*
G02*
X68749000Y-44085700I0J51000D01*
G01*
X68749000Y-42285700D01*
G75*
G02*
X68800000Y-42234700I51000J0D01*
G01*
G37*
G36*
G01*
X69100000Y-46834700D02*
X70400000Y-46834700D01*
G75*
G02*
X70451000Y-46885700I0J-51000D01*
G01*
X70451000Y-48535700D01*
G75*
G02*
X70400000Y-48586700I-51000J0D01*
G01*
X69100000Y-48586700D01*
G75*
G02*
X69049000Y-48535700I0J51000D01*
G01*
X69049000Y-46885700D01*
G75*
G02*
X69100000Y-46834700I51000J0D01*
G01*
G37*
G36*
G01*
X69100000Y-40084700D02*
X70400000Y-40084700D01*
G75*
G02*
X70451000Y-40135700I0J-51000D01*
G01*
X70451000Y-41785700D01*
G75*
G02*
X70400000Y-41836700I-51000J0D01*
G01*
X69100000Y-41836700D01*
G75*
G02*
X69049000Y-41785700I0J51000D01*
G01*
X69049000Y-40135700D01*
G75*
G02*
X69100000Y-40084700I51000J0D01*
G01*
G37*
G36*
G01*
X71550000Y-46059700D02*
X73100000Y-46059700D01*
G75*
G02*
X73151000Y-46110700I0J-51000D01*
G01*
X73151000Y-47535700D01*
G75*
G02*
X73100000Y-47586700I-51000J0D01*
G01*
X71550000Y-47586700D01*
G75*
G02*
X71499000Y-47535700I0J51000D01*
G01*
X71499000Y-46110700D01*
G75*
G02*
X71550000Y-46059700I51000J0D01*
G01*
G37*
G36*
G01*
X71550000Y-41084700D02*
X73100000Y-41084700D01*
G75*
G02*
X73151000Y-41135700I0J-51000D01*
G01*
X73151000Y-42560700D01*
G75*
G02*
X73100000Y-42611700I-51000J0D01*
G01*
X71550000Y-42611700D01*
G75*
G02*
X71499000Y-42560700I0J51000D01*
G01*
X71499000Y-41135700D01*
G75*
G02*
X71550000Y-41084700I51000J0D01*
G01*
G37*
G36*
G01*
X71720000Y-45359700D02*
X73100000Y-45359700D01*
G75*
G02*
X73151000Y-45410700I0J-51000D01*
G01*
X73151000Y-45860700D01*
G75*
G02*
X73100000Y-45911700I-51000J0D01*
G01*
X71720000Y-45911700D01*
G75*
G02*
X71669000Y-45860700I0J51000D01*
G01*
X71669000Y-45410700D01*
G75*
G02*
X71720000Y-45359700I51000J0D01*
G01*
G37*
G36*
G01*
X71720000Y-44709700D02*
X73100000Y-44709700D01*
G75*
G02*
X73151000Y-44760700I0J-51000D01*
G01*
X73151000Y-45210700D01*
G75*
G02*
X73100000Y-45261700I-51000J0D01*
G01*
X71720000Y-45261700D01*
G75*
G02*
X71669000Y-45210700I0J51000D01*
G01*
X71669000Y-44760700D01*
G75*
G02*
X71720000Y-44709700I51000J0D01*
G01*
G37*
G36*
G01*
X71720000Y-44059700D02*
X73100000Y-44059700D01*
G75*
G02*
X73151000Y-44110700I0J-51000D01*
G01*
X73151000Y-44560700D01*
G75*
G02*
X73100000Y-44611700I-51000J0D01*
G01*
X71720000Y-44611700D01*
G75*
G02*
X71669000Y-44560700I0J51000D01*
G01*
X71669000Y-44110700D01*
G75*
G02*
X71720000Y-44059700I51000J0D01*
G01*
G37*
G36*
G01*
X71720000Y-43409700D02*
X73100000Y-43409700D01*
G75*
G02*
X73151000Y-43460700I0J-51000D01*
G01*
X73151000Y-43910700D01*
G75*
G02*
X73100000Y-43961700I-51000J0D01*
G01*
X71720000Y-43961700D01*
G75*
G02*
X71669000Y-43910700I0J51000D01*
G01*
X71669000Y-43460700D01*
G75*
G02*
X71720000Y-43409700I51000J0D01*
G01*
G37*
G36*
G01*
X71720000Y-42759700D02*
X73100000Y-42759700D01*
G75*
G02*
X73151000Y-42810700I0J-51000D01*
G01*
X73151000Y-43260700D01*
G75*
G02*
X73100000Y-43311700I-51000J0D01*
G01*
X71720000Y-43311700D01*
G75*
G02*
X71669000Y-43260700I0J51000D01*
G01*
X71669000Y-42810700D01*
G75*
G02*
X71720000Y-42759700I51000J0D01*
G01*
G37*
G36*
G01*
X81380900Y-37754700D02*
X82780900Y-37754700D01*
G75*
G02*
X82831900Y-37805700I0J-51000D01*
G01*
X82831900Y-38805700D01*
G75*
G02*
X82780900Y-38856700I-51000J0D01*
G01*
X81380900Y-38856700D01*
G75*
G02*
X81329900Y-38805700I0J51000D01*
G01*
X81329900Y-37805700D01*
G75*
G02*
X81380900Y-37754700I51000J0D01*
G01*
G37*
G36*
G01*
X81380900Y-39654700D02*
X82780900Y-39654700D01*
G75*
G02*
X82831900Y-39705700I0J-51000D01*
G01*
X82831900Y-40705700D01*
G75*
G02*
X82780900Y-40756700I-51000J0D01*
G01*
X81380900Y-40756700D01*
G75*
G02*
X81329900Y-40705700I0J51000D01*
G01*
X81329900Y-39705700D01*
G75*
G02*
X81380900Y-39654700I51000J0D01*
G01*
G37*
G36*
G01*
X79180900Y-39654700D02*
X80580900Y-39654700D01*
G75*
G02*
X80631900Y-39705700I0J-51000D01*
G01*
X80631900Y-40705700D01*
G75*
G02*
X80580900Y-40756700I-51000J0D01*
G01*
X79180900Y-40756700D01*
G75*
G02*
X79129900Y-40705700I0J51000D01*
G01*
X79129900Y-39705700D01*
G75*
G02*
X79180900Y-39654700I51000J0D01*
G01*
G37*
G36*
G01*
X79180899Y-37834700D02*
X80580901Y-37834700D01*
G75*
G02*
X80631900Y-37885699I0J-50999D01*
G01*
X80631900Y-39085701D01*
G75*
G02*
X80580901Y-39136700I-50999J0D01*
G01*
X79180899Y-39136700D01*
G75*
G02*
X79129900Y-39085701I0J50999D01*
G01*
X79129900Y-37885699D01*
G75*
G02*
X79180899Y-37834700I50999J0D01*
G01*
G37*
G36*
G01*
X127235500Y-73211800D02*
X127235500Y-72685800D01*
G75*
G02*
X127498500Y-72422800I263000J0D01*
G01*
X128124500Y-72422800D01*
G75*
G02*
X128387500Y-72685800I0J-263000D01*
G01*
X128387500Y-73211800D01*
G75*
G02*
X128124500Y-73474800I-263000J0D01*
G01*
X127498500Y-73474800D01*
G75*
G02*
X127235500Y-73211800I0J263000D01*
G01*
G37*
G36*
G01*
X125485500Y-73211800D02*
X125485500Y-72685800D01*
G75*
G02*
X125748500Y-72422800I263000J0D01*
G01*
X126374500Y-72422800D01*
G75*
G02*
X126637500Y-72685800I0J-263000D01*
G01*
X126637500Y-73211800D01*
G75*
G02*
X126374500Y-73474800I-263000J0D01*
G01*
X125748500Y-73474800D01*
G75*
G02*
X125485500Y-73211800I0J263000D01*
G01*
G37*
G36*
G01*
X130053800Y-72685800D02*
X130053800Y-73211800D01*
G75*
G02*
X129790800Y-73474800I-263000J0D01*
G01*
X129164800Y-73474800D01*
G75*
G02*
X128901800Y-73211800I0J263000D01*
G01*
X128901800Y-72685800D01*
G75*
G02*
X129164800Y-72422800I263000J0D01*
G01*
X129790800Y-72422800D01*
G75*
G02*
X130053800Y-72685800I0J-263000D01*
G01*
G37*
G36*
G01*
X131803800Y-72685800D02*
X131803800Y-73211800D01*
G75*
G02*
X131540800Y-73474800I-263000J0D01*
G01*
X130914800Y-73474800D01*
G75*
G02*
X130651800Y-73211800I0J263000D01*
G01*
X130651800Y-72685800D01*
G75*
G02*
X130914800Y-72422800I263000J0D01*
G01*
X131540800Y-72422800D01*
G75*
G02*
X131803800Y-72685800I0J-263000D01*
G01*
G37*
G36*
G01*
X108362200Y-48301800D02*
X108362200Y-48827800D01*
G75*
G02*
X108099200Y-49090800I-263000J0D01*
G01*
X107473200Y-49090800D01*
G75*
G02*
X107210200Y-48827800I0J263000D01*
G01*
X107210200Y-48301800D01*
G75*
G02*
X107473200Y-48038800I263000J0D01*
G01*
X108099200Y-48038800D01*
G75*
G02*
X108362200Y-48301800I0J-263000D01*
G01*
G37*
G36*
G01*
X110112200Y-48301800D02*
X110112200Y-48827800D01*
G75*
G02*
X109849200Y-49090800I-263000J0D01*
G01*
X109223200Y-49090800D01*
G75*
G02*
X108960200Y-48827800I0J263000D01*
G01*
X108960200Y-48301800D01*
G75*
G02*
X109223200Y-48038800I263000J0D01*
G01*
X109849200Y-48038800D01*
G75*
G02*
X110112200Y-48301800I0J-263000D01*
G01*
G37*
G36*
G01*
X109846000Y-53232600D02*
X110372000Y-53232600D01*
G75*
G02*
X110635000Y-53495600I0J-263000D01*
G01*
X110635000Y-54121600D01*
G75*
G02*
X110372000Y-54384600I-263000J0D01*
G01*
X109846000Y-54384600D01*
G75*
G02*
X109583000Y-54121600I0J263000D01*
G01*
X109583000Y-53495600D01*
G75*
G02*
X109846000Y-53232600I263000J0D01*
G01*
G37*
G36*
G01*
X109846000Y-51482600D02*
X110372000Y-51482600D01*
G75*
G02*
X110635000Y-51745600I0J-263000D01*
G01*
X110635000Y-52371600D01*
G75*
G02*
X110372000Y-52634600I-263000J0D01*
G01*
X109846000Y-52634600D01*
G75*
G02*
X109583000Y-52371600I0J263000D01*
G01*
X109583000Y-51745600D01*
G75*
G02*
X109846000Y-51482600I263000J0D01*
G01*
G37*
G36*
G01*
X108093400Y-42920200D02*
X108619400Y-42920200D01*
G75*
G02*
X108882400Y-43183200I0J-263000D01*
G01*
X108882400Y-43809200D01*
G75*
G02*
X108619400Y-44072200I-263000J0D01*
G01*
X108093400Y-44072200D01*
G75*
G02*
X107830400Y-43809200I0J263000D01*
G01*
X107830400Y-43183200D01*
G75*
G02*
X108093400Y-42920200I263000J0D01*
G01*
G37*
G36*
G01*
X108093400Y-41170200D02*
X108619400Y-41170200D01*
G75*
G02*
X108882400Y-41433200I0J-263000D01*
G01*
X108882400Y-42059200D01*
G75*
G02*
X108619400Y-42322200I-263000J0D01*
G01*
X108093400Y-42322200D01*
G75*
G02*
X107830400Y-42059200I0J263000D01*
G01*
X107830400Y-41433200D01*
G75*
G02*
X108093400Y-41170200I263000J0D01*
G01*
G37*
G36*
G01*
X108093400Y-46323800D02*
X108619400Y-46323800D01*
G75*
G02*
X108882400Y-46586800I0J-263000D01*
G01*
X108882400Y-47212800D01*
G75*
G02*
X108619400Y-47475800I-263000J0D01*
G01*
X108093400Y-47475800D01*
G75*
G02*
X107830400Y-47212800I0J263000D01*
G01*
X107830400Y-46586800D01*
G75*
G02*
X108093400Y-46323800I263000J0D01*
G01*
G37*
G36*
G01*
X108093400Y-44573800D02*
X108619400Y-44573800D01*
G75*
G02*
X108882400Y-44836800I0J-263000D01*
G01*
X108882400Y-45462800D01*
G75*
G02*
X108619400Y-45725800I-263000J0D01*
G01*
X108093400Y-45725800D01*
G75*
G02*
X107830400Y-45462800I0J263000D01*
G01*
X107830400Y-44836800D01*
G75*
G02*
X108093400Y-44573800I263000J0D01*
G01*
G37*
G36*
G01*
X99952700Y-51035500D02*
X100478700Y-51035500D01*
G75*
G02*
X100741700Y-51298500I0J-263000D01*
G01*
X100741700Y-51924500D01*
G75*
G02*
X100478700Y-52187500I-263000J0D01*
G01*
X99952700Y-52187500D01*
G75*
G02*
X99689700Y-51924500I0J263000D01*
G01*
X99689700Y-51298500D01*
G75*
G02*
X99952700Y-51035500I263000J0D01*
G01*
G37*
G36*
G01*
X99952700Y-49285500D02*
X100478700Y-49285500D01*
G75*
G02*
X100741700Y-49548500I0J-263000D01*
G01*
X100741700Y-50174500D01*
G75*
G02*
X100478700Y-50437500I-263000J0D01*
G01*
X99952700Y-50437500D01*
G75*
G02*
X99689700Y-50174500I0J263000D01*
G01*
X99689700Y-49548500D01*
G75*
G02*
X99952700Y-49285500I263000J0D01*
G01*
G37*
G36*
G01*
X98377900Y-51035500D02*
X98903900Y-51035500D01*
G75*
G02*
X99166900Y-51298500I0J-263000D01*
G01*
X99166900Y-51924500D01*
G75*
G02*
X98903900Y-52187500I-263000J0D01*
G01*
X98377900Y-52187500D01*
G75*
G02*
X98114900Y-51924500I0J263000D01*
G01*
X98114900Y-51298500D01*
G75*
G02*
X98377900Y-51035500I263000J0D01*
G01*
G37*
G36*
G01*
X98377900Y-49285500D02*
X98903900Y-49285500D01*
G75*
G02*
X99166900Y-49548500I0J-263000D01*
G01*
X99166900Y-50174500D01*
G75*
G02*
X98903900Y-50437500I-263000J0D01*
G01*
X98377900Y-50437500D01*
G75*
G02*
X98114900Y-50174500I0J263000D01*
G01*
X98114900Y-49548500D01*
G75*
G02*
X98377900Y-49285500I263000J0D01*
G01*
G37*
G36*
G01*
X101440300Y-33201500D02*
X101440300Y-33727500D01*
G75*
G02*
X101177300Y-33990500I-263000J0D01*
G01*
X100551300Y-33990500D01*
G75*
G02*
X100288300Y-33727500I0J263000D01*
G01*
X100288300Y-33201500D01*
G75*
G02*
X100551300Y-32938500I263000J0D01*
G01*
X101177300Y-32938500D01*
G75*
G02*
X101440300Y-33201500I0J-263000D01*
G01*
G37*
G36*
G01*
X103190300Y-33201500D02*
X103190300Y-33727500D01*
G75*
G02*
X102927300Y-33990500I-263000J0D01*
G01*
X102301300Y-33990500D01*
G75*
G02*
X102038300Y-33727500I0J263000D01*
G01*
X102038300Y-33201500D01*
G75*
G02*
X102301300Y-32938500I263000J0D01*
G01*
X102927300Y-32938500D01*
G75*
G02*
X103190300Y-33201500I0J-263000D01*
G01*
G37*
G36*
G01*
X101440300Y-34725500D02*
X101440300Y-35251500D01*
G75*
G02*
X101177300Y-35514500I-263000J0D01*
G01*
X100551300Y-35514500D01*
G75*
G02*
X100288300Y-35251500I0J263000D01*
G01*
X100288300Y-34725500D01*
G75*
G02*
X100551300Y-34462500I263000J0D01*
G01*
X101177300Y-34462500D01*
G75*
G02*
X101440300Y-34725500I0J-263000D01*
G01*
G37*
G36*
G01*
X103190300Y-34725500D02*
X103190300Y-35251500D01*
G75*
G02*
X102927300Y-35514500I-263000J0D01*
G01*
X102301300Y-35514500D01*
G75*
G02*
X102038300Y-35251500I0J263000D01*
G01*
X102038300Y-34725500D01*
G75*
G02*
X102301300Y-34462500I263000J0D01*
G01*
X102927300Y-34462500D01*
G75*
G02*
X103190300Y-34725500I0J-263000D01*
G01*
G37*
G36*
G01*
X74770700Y-46983100D02*
X74244700Y-46983100D01*
G75*
G02*
X73981700Y-46720100I0J263000D01*
G01*
X73981700Y-46094100D01*
G75*
G02*
X74244700Y-45831100I263000J0D01*
G01*
X74770700Y-45831100D01*
G75*
G02*
X75033700Y-46094100I0J-263000D01*
G01*
X75033700Y-46720100D01*
G75*
G02*
X74770700Y-46983100I-263000J0D01*
G01*
G37*
G36*
G01*
X74770700Y-48733100D02*
X74244700Y-48733100D01*
G75*
G02*
X73981700Y-48470100I0J263000D01*
G01*
X73981700Y-47844100D01*
G75*
G02*
X74244700Y-47581100I263000J0D01*
G01*
X74770700Y-47581100D01*
G75*
G02*
X75033700Y-47844100I0J-263000D01*
G01*
X75033700Y-48470100D01*
G75*
G02*
X74770700Y-48733100I-263000J0D01*
G01*
G37*
G36*
G01*
X99599000Y-73084800D02*
X99599000Y-72558800D01*
G75*
G02*
X99862000Y-72295800I263000J0D01*
G01*
X100488000Y-72295800D01*
G75*
G02*
X100751000Y-72558800I0J-263000D01*
G01*
X100751000Y-73084800D01*
G75*
G02*
X100488000Y-73347800I-263000J0D01*
G01*
X99862000Y-73347800D01*
G75*
G02*
X99599000Y-73084800I0J263000D01*
G01*
G37*
G36*
G01*
X97849000Y-73084800D02*
X97849000Y-72558800D01*
G75*
G02*
X98112000Y-72295800I263000J0D01*
G01*
X98738000Y-72295800D01*
G75*
G02*
X99001000Y-72558800I0J-263000D01*
G01*
X99001000Y-73084800D01*
G75*
G02*
X98738000Y-73347800I-263000J0D01*
G01*
X98112000Y-73347800D01*
G75*
G02*
X97849000Y-73084800I0J263000D01*
G01*
G37*
G36*
G01*
X95761700Y-51021500D02*
X96287700Y-51021500D01*
G75*
G02*
X96550700Y-51284500I0J-263000D01*
G01*
X96550700Y-51910500D01*
G75*
G02*
X96287700Y-52173500I-263000J0D01*
G01*
X95761700Y-52173500D01*
G75*
G02*
X95498700Y-51910500I0J263000D01*
G01*
X95498700Y-51284500D01*
G75*
G02*
X95761700Y-51021500I263000J0D01*
G01*
G37*
G36*
G01*
X95761700Y-49271500D02*
X96287700Y-49271500D01*
G75*
G02*
X96550700Y-49534500I0J-263000D01*
G01*
X96550700Y-50160500D01*
G75*
G02*
X96287700Y-50423500I-263000J0D01*
G01*
X95761700Y-50423500D01*
G75*
G02*
X95498700Y-50160500I0J263000D01*
G01*
X95498700Y-49534500D01*
G75*
G02*
X95761700Y-49271500I263000J0D01*
G01*
G37*
G36*
G01*
X129849200Y-52978600D02*
X130375200Y-52978600D01*
G75*
G02*
X130638200Y-53241600I0J-263000D01*
G01*
X130638200Y-53867600D01*
G75*
G02*
X130375200Y-54130600I-263000J0D01*
G01*
X129849200Y-54130600D01*
G75*
G02*
X129586200Y-53867600I0J263000D01*
G01*
X129586200Y-53241600D01*
G75*
G02*
X129849200Y-52978600I263000J0D01*
G01*
G37*
G36*
G01*
X129849200Y-51228600D02*
X130375200Y-51228600D01*
G75*
G02*
X130638200Y-51491600I0J-263000D01*
G01*
X130638200Y-52117600D01*
G75*
G02*
X130375200Y-52380600I-263000J0D01*
G01*
X129849200Y-52380600D01*
G75*
G02*
X129586200Y-52117600I0J263000D01*
G01*
X129586200Y-51491600D01*
G75*
G02*
X129849200Y-51228600I263000J0D01*
G01*
G37*
G36*
G01*
X131349200Y-52978600D02*
X131875200Y-52978600D01*
G75*
G02*
X132138200Y-53241600I0J-263000D01*
G01*
X132138200Y-53867600D01*
G75*
G02*
X131875200Y-54130600I-263000J0D01*
G01*
X131349200Y-54130600D01*
G75*
G02*
X131086200Y-53867600I0J263000D01*
G01*
X131086200Y-53241600D01*
G75*
G02*
X131349200Y-52978600I263000J0D01*
G01*
G37*
G36*
G01*
X131349200Y-51228600D02*
X131875200Y-51228600D01*
G75*
G02*
X132138200Y-51491600I0J-263000D01*
G01*
X132138200Y-52117600D01*
G75*
G02*
X131875200Y-52380600I-263000J0D01*
G01*
X131349200Y-52380600D01*
G75*
G02*
X131086200Y-52117600I0J263000D01*
G01*
X131086200Y-51491600D01*
G75*
G02*
X131349200Y-51228600I263000J0D01*
G01*
G37*
G36*
X81451435Y-70656913D02*
G01*
X81450943Y-70658363D01*
X81414752Y-70699629D01*
X81402338Y-70762039D01*
X81422814Y-70822361D01*
X81448267Y-70847814D01*
X81448785Y-70849746D01*
X81447371Y-70851160D01*
X81445742Y-70850891D01*
X81431506Y-70841379D01*
X81374301Y-70830000D01*
X79949699Y-70830000D01*
X79892494Y-70841379D01*
X79875672Y-70852619D01*
X79873676Y-70852750D01*
X79872565Y-70851087D01*
X79873057Y-70849637D01*
X79909248Y-70808371D01*
X79921662Y-70745961D01*
X79901186Y-70685639D01*
X79875733Y-70660186D01*
X79875215Y-70658254D01*
X79876629Y-70656840D01*
X79878258Y-70657109D01*
X79892494Y-70666621D01*
X79949699Y-70678000D01*
X81374301Y-70678000D01*
X81431506Y-70666621D01*
X81448328Y-70655381D01*
X81450324Y-70655250D01*
X81451435Y-70656913D01*
G37*
G36*
X77226435Y-70656913D02*
G01*
X77225943Y-70658363D01*
X77189752Y-70699629D01*
X77177338Y-70762039D01*
X77197814Y-70822361D01*
X77223267Y-70847814D01*
X77223785Y-70849746D01*
X77222371Y-70851160D01*
X77220742Y-70850891D01*
X77206506Y-70841379D01*
X77149301Y-70830000D01*
X75724699Y-70830000D01*
X75667494Y-70841379D01*
X75650672Y-70852619D01*
X75648676Y-70852750D01*
X75647565Y-70851087D01*
X75648057Y-70849637D01*
X75684248Y-70808371D01*
X75696662Y-70745961D01*
X75676186Y-70685639D01*
X75650733Y-70660186D01*
X75650215Y-70658254D01*
X75651629Y-70656840D01*
X75653258Y-70657109D01*
X75667494Y-70666621D01*
X75724699Y-70678000D01*
X77149301Y-70678000D01*
X77206506Y-70666621D01*
X77223328Y-70655381D01*
X77225324Y-70655250D01*
X77226435Y-70656913D01*
G37*
G36*
X77226435Y-70006913D02*
G01*
X77225943Y-70008363D01*
X77189752Y-70049629D01*
X77177338Y-70112039D01*
X77197814Y-70172361D01*
X77223267Y-70197814D01*
X77223785Y-70199746D01*
X77222371Y-70201160D01*
X77220742Y-70200891D01*
X77206506Y-70191379D01*
X77149301Y-70180000D01*
X75724699Y-70180000D01*
X75667494Y-70191379D01*
X75650672Y-70202619D01*
X75648676Y-70202750D01*
X75647565Y-70201087D01*
X75648057Y-70199637D01*
X75684248Y-70158371D01*
X75696662Y-70095961D01*
X75676186Y-70035639D01*
X75650733Y-70010186D01*
X75650215Y-70008254D01*
X75651629Y-70006840D01*
X75653258Y-70007109D01*
X75667494Y-70016621D01*
X75724699Y-70028000D01*
X77149301Y-70028000D01*
X77206506Y-70016621D01*
X77223328Y-70005381D01*
X77225324Y-70005250D01*
X77226435Y-70006913D01*
G37*
G36*
X81451435Y-70006913D02*
G01*
X81450943Y-70008363D01*
X81414752Y-70049629D01*
X81402338Y-70112039D01*
X81422814Y-70172361D01*
X81448267Y-70197814D01*
X81448785Y-70199746D01*
X81447371Y-70201160D01*
X81445742Y-70200891D01*
X81431506Y-70191379D01*
X81374301Y-70180000D01*
X79949699Y-70180000D01*
X79892494Y-70191379D01*
X79875672Y-70202619D01*
X79873676Y-70202750D01*
X79872565Y-70201087D01*
X79873057Y-70199637D01*
X79909248Y-70158371D01*
X79921662Y-70095961D01*
X79901186Y-70035639D01*
X79875733Y-70010186D01*
X79875215Y-70008254D01*
X79876629Y-70006840D01*
X79878258Y-70007109D01*
X79892494Y-70016621D01*
X79949699Y-70028000D01*
X81374301Y-70028000D01*
X81431506Y-70016621D01*
X81448328Y-70005381D01*
X81450324Y-70005250D01*
X81451435Y-70006913D01*
G37*
G36*
X81451435Y-69356913D02*
G01*
X81450943Y-69358363D01*
X81414752Y-69399629D01*
X81402338Y-69462039D01*
X81422814Y-69522361D01*
X81448267Y-69547814D01*
X81448785Y-69549746D01*
X81447371Y-69551160D01*
X81445742Y-69550891D01*
X81431506Y-69541379D01*
X81374301Y-69530000D01*
X79949699Y-69530000D01*
X79892494Y-69541379D01*
X79875672Y-69552619D01*
X79873676Y-69552750D01*
X79872565Y-69551087D01*
X79873057Y-69549637D01*
X79909248Y-69508371D01*
X79921662Y-69445961D01*
X79901186Y-69385639D01*
X79875733Y-69360186D01*
X79875215Y-69358254D01*
X79876629Y-69356840D01*
X79878258Y-69357109D01*
X79892494Y-69366621D01*
X79949699Y-69378000D01*
X81374301Y-69378000D01*
X81431506Y-69366621D01*
X81448328Y-69355381D01*
X81450324Y-69355250D01*
X81451435Y-69356913D01*
G37*
G36*
X77226435Y-69356913D02*
G01*
X77225943Y-69358363D01*
X77189752Y-69399629D01*
X77177338Y-69462039D01*
X77197814Y-69522361D01*
X77223267Y-69547814D01*
X77223785Y-69549746D01*
X77222371Y-69551160D01*
X77220742Y-69550891D01*
X77206506Y-69541379D01*
X77149301Y-69530000D01*
X75724699Y-69530000D01*
X75667494Y-69541379D01*
X75650672Y-69552619D01*
X75648676Y-69552750D01*
X75647565Y-69551087D01*
X75648057Y-69549637D01*
X75684248Y-69508371D01*
X75696662Y-69445961D01*
X75676186Y-69385639D01*
X75650733Y-69360186D01*
X75650215Y-69358254D01*
X75651629Y-69356840D01*
X75653258Y-69357109D01*
X75667494Y-69366621D01*
X75724699Y-69378000D01*
X77149301Y-69378000D01*
X77206506Y-69366621D01*
X77223328Y-69355381D01*
X77225324Y-69355250D01*
X77226435Y-69356913D01*
G37*
G36*
X98454960Y-45028193D02*
G01*
X98468752Y-45037409D01*
X98469286Y-45036610D01*
X98471080Y-45035725D01*
X98472268Y-45036217D01*
X98484939Y-45047328D01*
X98547350Y-45059738D01*
X98607669Y-45039257D01*
X98608711Y-45038215D01*
X98609014Y-45037966D01*
X98623640Y-45028193D01*
X98625636Y-45028062D01*
X98626747Y-45029725D01*
X98626414Y-45030967D01*
X98619067Y-45041962D01*
X98615300Y-45060899D01*
X98615300Y-46660501D01*
X98619067Y-46679438D01*
X98626414Y-46690433D01*
X98626545Y-46692429D01*
X98624882Y-46693540D01*
X98623640Y-46693207D01*
X98609848Y-46683991D01*
X98609314Y-46684790D01*
X98607520Y-46685675D01*
X98606332Y-46685183D01*
X98593661Y-46674072D01*
X98531250Y-46661662D01*
X98470931Y-46682143D01*
X98469889Y-46683185D01*
X98469586Y-46683434D01*
X98454960Y-46693207D01*
X98452964Y-46693338D01*
X98451853Y-46691675D01*
X98452186Y-46690433D01*
X98459533Y-46679438D01*
X98463300Y-46660501D01*
X98463300Y-45060899D01*
X98459533Y-45041962D01*
X98452186Y-45030967D01*
X98452055Y-45028971D01*
X98453718Y-45027860D01*
X98454960Y-45028193D01*
G37*
G36*
X96854960Y-45028193D02*
G01*
X96868752Y-45037409D01*
X96869286Y-45036610D01*
X96871080Y-45035725D01*
X96872268Y-45036217D01*
X96884939Y-45047328D01*
X96947350Y-45059738D01*
X97007669Y-45039257D01*
X97008711Y-45038215D01*
X97009014Y-45037966D01*
X97023640Y-45028193D01*
X97025636Y-45028062D01*
X97026747Y-45029725D01*
X97026414Y-45030967D01*
X97019067Y-45041962D01*
X97015300Y-45060899D01*
X97015300Y-46660501D01*
X97019067Y-46679438D01*
X97026414Y-46690433D01*
X97026545Y-46692429D01*
X97024882Y-46693540D01*
X97023640Y-46693207D01*
X97009848Y-46683991D01*
X97009314Y-46684790D01*
X97007520Y-46685675D01*
X97006332Y-46685183D01*
X96993661Y-46674072D01*
X96931250Y-46661662D01*
X96870931Y-46682143D01*
X96869889Y-46683185D01*
X96869586Y-46683434D01*
X96854960Y-46693207D01*
X96852964Y-46693338D01*
X96851853Y-46691675D01*
X96852186Y-46690433D01*
X96859533Y-46679438D01*
X96863300Y-46660501D01*
X96863300Y-45060899D01*
X96859533Y-45041962D01*
X96852186Y-45030967D01*
X96852055Y-45028971D01*
X96853718Y-45027860D01*
X96854960Y-45028193D01*
G37*
G36*
X96054960Y-45028193D02*
G01*
X96068752Y-45037409D01*
X96069286Y-45036610D01*
X96071080Y-45035725D01*
X96072268Y-45036217D01*
X96084939Y-45047328D01*
X96147350Y-45059738D01*
X96207669Y-45039257D01*
X96208711Y-45038215D01*
X96209014Y-45037966D01*
X96223640Y-45028193D01*
X96225636Y-45028062D01*
X96226747Y-45029725D01*
X96226414Y-45030967D01*
X96219067Y-45041962D01*
X96215300Y-45060899D01*
X96215300Y-46660501D01*
X96219067Y-46679438D01*
X96226414Y-46690433D01*
X96226545Y-46692429D01*
X96224882Y-46693540D01*
X96223640Y-46693207D01*
X96209848Y-46683991D01*
X96209314Y-46684790D01*
X96207520Y-46685675D01*
X96206332Y-46685183D01*
X96193661Y-46674072D01*
X96131250Y-46661662D01*
X96070931Y-46682143D01*
X96069889Y-46683185D01*
X96069586Y-46683434D01*
X96054960Y-46693207D01*
X96052964Y-46693338D01*
X96051853Y-46691675D01*
X96052186Y-46690433D01*
X96059533Y-46679438D01*
X96063300Y-46660501D01*
X96063300Y-45060899D01*
X96059533Y-45041962D01*
X96052186Y-45030967D01*
X96052055Y-45028971D01*
X96053718Y-45027860D01*
X96054960Y-45028193D01*
G37*
G36*
X97654960Y-45028193D02*
G01*
X97668752Y-45037409D01*
X97669286Y-45036610D01*
X97671080Y-45035725D01*
X97672268Y-45036217D01*
X97684939Y-45047328D01*
X97747350Y-45059738D01*
X97807669Y-45039257D01*
X97808711Y-45038215D01*
X97809014Y-45037966D01*
X97823640Y-45028193D01*
X97825636Y-45028062D01*
X97826747Y-45029725D01*
X97826414Y-45030967D01*
X97819067Y-45041962D01*
X97815300Y-45060899D01*
X97815300Y-46660501D01*
X97819067Y-46679438D01*
X97826414Y-46690433D01*
X97826545Y-46692429D01*
X97824882Y-46693540D01*
X97823640Y-46693207D01*
X97809848Y-46683991D01*
X97809314Y-46684790D01*
X97807520Y-46685675D01*
X97806332Y-46685183D01*
X97793661Y-46674072D01*
X97731250Y-46661662D01*
X97670931Y-46682143D01*
X97669889Y-46683185D01*
X97669586Y-46683434D01*
X97654960Y-46693207D01*
X97652964Y-46693338D01*
X97651853Y-46691675D01*
X97652186Y-46690433D01*
X97659533Y-46679438D01*
X97663300Y-46660501D01*
X97663300Y-45060899D01*
X97659533Y-45041962D01*
X97652186Y-45030967D01*
X97652055Y-45028971D01*
X97653718Y-45027860D01*
X97654960Y-45028193D01*
G37*
G36*
X99254960Y-45028193D02*
G01*
X99268752Y-45037409D01*
X99269286Y-45036610D01*
X99271080Y-45035725D01*
X99272268Y-45036217D01*
X99284939Y-45047328D01*
X99347350Y-45059738D01*
X99407669Y-45039257D01*
X99408711Y-45038215D01*
X99409014Y-45037966D01*
X99423640Y-45028193D01*
X99425636Y-45028062D01*
X99426747Y-45029725D01*
X99426414Y-45030967D01*
X99419067Y-45041962D01*
X99415300Y-45060899D01*
X99415300Y-46660501D01*
X99419067Y-46679438D01*
X99426414Y-46690433D01*
X99426545Y-46692429D01*
X99424882Y-46693540D01*
X99423640Y-46693207D01*
X99409848Y-46683991D01*
X99409314Y-46684790D01*
X99407520Y-46685675D01*
X99406332Y-46685183D01*
X99393661Y-46674072D01*
X99331250Y-46661662D01*
X99270931Y-46682143D01*
X99269889Y-46683185D01*
X99269586Y-46683434D01*
X99254960Y-46693207D01*
X99252964Y-46693338D01*
X99251853Y-46691675D01*
X99252186Y-46690433D01*
X99259533Y-46679438D01*
X99263300Y-46660501D01*
X99263300Y-45060899D01*
X99259533Y-45041962D01*
X99252186Y-45030967D01*
X99252055Y-45028971D01*
X99253718Y-45027860D01*
X99254960Y-45028193D01*
G37*
G36*
X100054960Y-45028193D02*
G01*
X100068752Y-45037409D01*
X100069286Y-45036610D01*
X100071080Y-45035725D01*
X100072268Y-45036217D01*
X100084939Y-45047328D01*
X100147350Y-45059738D01*
X100207669Y-45039257D01*
X100208711Y-45038215D01*
X100209014Y-45037966D01*
X100223640Y-45028193D01*
X100225636Y-45028062D01*
X100226747Y-45029725D01*
X100226414Y-45030967D01*
X100219067Y-45041962D01*
X100215300Y-45060899D01*
X100215300Y-46660501D01*
X100219067Y-46679438D01*
X100226414Y-46690433D01*
X100226545Y-46692429D01*
X100224882Y-46693540D01*
X100223640Y-46693207D01*
X100209848Y-46683991D01*
X100209314Y-46684790D01*
X100207520Y-46685675D01*
X100206332Y-46685183D01*
X100193661Y-46674072D01*
X100131250Y-46661662D01*
X100070931Y-46682143D01*
X100069889Y-46683185D01*
X100069586Y-46683434D01*
X100054960Y-46693207D01*
X100052964Y-46693338D01*
X100051853Y-46691675D01*
X100052186Y-46690433D01*
X100059533Y-46679438D01*
X100063300Y-46660501D01*
X100063300Y-45060899D01*
X100059533Y-45041962D01*
X100052186Y-45030967D01*
X100052055Y-45028971D01*
X100053718Y-45027860D01*
X100054960Y-45028193D01*
G37*
G36*
X100854960Y-45028193D02*
G01*
X100868752Y-45037409D01*
X100869286Y-45036610D01*
X100871080Y-45035725D01*
X100872268Y-45036217D01*
X100884939Y-45047328D01*
X100947350Y-45059738D01*
X101007669Y-45039257D01*
X101008711Y-45038215D01*
X101009014Y-45037966D01*
X101023640Y-45028193D01*
X101025636Y-45028062D01*
X101026747Y-45029725D01*
X101026414Y-45030967D01*
X101019067Y-45041962D01*
X101015300Y-45060899D01*
X101015300Y-46660501D01*
X101019067Y-46679438D01*
X101026414Y-46690433D01*
X101026545Y-46692429D01*
X101024882Y-46693540D01*
X101023640Y-46693207D01*
X101009848Y-46683991D01*
X101009314Y-46684790D01*
X101007520Y-46685675D01*
X101006332Y-46685183D01*
X100993661Y-46674072D01*
X100931250Y-46661662D01*
X100870931Y-46682143D01*
X100869889Y-46683185D01*
X100869586Y-46683434D01*
X100854960Y-46693207D01*
X100852964Y-46693338D01*
X100851853Y-46691675D01*
X100852186Y-46690433D01*
X100859533Y-46679438D01*
X100863300Y-46660501D01*
X100863300Y-45060899D01*
X100859533Y-45041962D01*
X100852186Y-45030967D01*
X100852055Y-45028971D01*
X100853718Y-45027860D01*
X100854960Y-45028193D01*
G37*
G36*
X71678032Y-45884324D02*
G01*
X71685380Y-45895320D01*
X71701262Y-45905933D01*
X71720199Y-45909700D01*
X73099801Y-45909700D01*
X73118738Y-45905933D01*
X73129733Y-45898586D01*
X73131729Y-45898455D01*
X73132840Y-45900118D01*
X73132507Y-45901360D01*
X73123291Y-45915152D01*
X73124090Y-45915686D01*
X73124975Y-45917480D01*
X73124483Y-45918668D01*
X73113372Y-45931339D01*
X73100962Y-45993750D01*
X73121443Y-46054069D01*
X73122485Y-46055111D01*
X73122734Y-46055414D01*
X73132507Y-46070040D01*
X73132638Y-46072036D01*
X73130975Y-46073147D01*
X73129733Y-46072814D01*
X73118738Y-46065467D01*
X73099801Y-46061700D01*
X71562310Y-46061700D01*
X71560578Y-46060700D01*
X71560578Y-46058700D01*
X71561920Y-46057738D01*
X71573018Y-46055530D01*
X71573687Y-46054455D01*
X71623307Y-46041159D01*
X71668299Y-45996167D01*
X71684760Y-45934735D01*
X71675657Y-45904729D01*
X71676111Y-45902781D01*
X71677181Y-45902186D01*
X71677643Y-45902094D01*
X71674407Y-45885825D01*
X71675050Y-45883931D01*
X71677012Y-45883541D01*
X71678032Y-45884324D01*
G37*
G36*
X71701262Y-45255933D02*
G01*
X71720199Y-45259700D01*
X73099801Y-45259700D01*
X73118738Y-45255933D01*
X73133558Y-45246030D01*
X73135554Y-45245899D01*
X73136563Y-45248336D01*
X73118145Y-45302592D01*
X73137162Y-45373564D01*
X73136644Y-45375496D01*
X73134119Y-45375745D01*
X73118738Y-45365467D01*
X73099801Y-45361700D01*
X71720199Y-45361700D01*
X71701262Y-45365467D01*
X71686442Y-45375370D01*
X71684446Y-45375501D01*
X71683437Y-45373064D01*
X71701855Y-45318808D01*
X71682838Y-45247836D01*
X71683356Y-45245904D01*
X71685881Y-45245655D01*
X71701262Y-45255933D01*
G37*
G36*
X71701262Y-44605933D02*
G01*
X71720199Y-44609700D01*
X73099801Y-44609700D01*
X73118738Y-44605933D01*
X73133558Y-44596030D01*
X73135554Y-44595899D01*
X73136563Y-44598336D01*
X73118145Y-44652592D01*
X73137162Y-44723564D01*
X73136644Y-44725496D01*
X73134119Y-44725745D01*
X73118738Y-44715467D01*
X73099801Y-44711700D01*
X71720199Y-44711700D01*
X71701262Y-44715467D01*
X71686442Y-44725370D01*
X71684446Y-44725501D01*
X71683437Y-44723064D01*
X71701855Y-44668808D01*
X71682838Y-44597836D01*
X71683356Y-44595904D01*
X71685881Y-44595655D01*
X71701262Y-44605933D01*
G37*
G36*
X93459567Y-43923586D02*
G01*
X93470562Y-43930933D01*
X93489499Y-43934700D01*
X95089101Y-43934700D01*
X95108038Y-43930933D01*
X95119033Y-43923586D01*
X95121029Y-43923455D01*
X95122140Y-43925118D01*
X95121807Y-43926360D01*
X95112591Y-43940152D01*
X95113390Y-43940686D01*
X95114275Y-43942480D01*
X95113783Y-43943668D01*
X95102672Y-43956339D01*
X95090262Y-44018750D01*
X95110743Y-44079069D01*
X95111785Y-44080111D01*
X95112034Y-44080414D01*
X95121807Y-44095040D01*
X95121938Y-44097036D01*
X95120275Y-44098147D01*
X95119033Y-44097814D01*
X95108038Y-44090467D01*
X95089101Y-44086700D01*
X93489499Y-44086700D01*
X93470562Y-44090467D01*
X93459567Y-44097814D01*
X93457571Y-44097945D01*
X93456460Y-44096282D01*
X93456793Y-44095040D01*
X93466009Y-44081248D01*
X93465210Y-44080714D01*
X93464325Y-44078920D01*
X93464817Y-44077732D01*
X93475928Y-44065061D01*
X93488338Y-44002650D01*
X93467857Y-43942331D01*
X93466815Y-43941289D01*
X93466566Y-43940986D01*
X93456793Y-43926360D01*
X93456662Y-43924364D01*
X93458325Y-43923253D01*
X93459567Y-43923586D01*
G37*
G36*
X101959567Y-43923586D02*
G01*
X101970562Y-43930933D01*
X101989499Y-43934700D01*
X103589101Y-43934700D01*
X103608038Y-43930933D01*
X103619033Y-43923586D01*
X103621029Y-43923455D01*
X103622140Y-43925118D01*
X103621807Y-43926360D01*
X103612591Y-43940152D01*
X103613390Y-43940686D01*
X103614275Y-43942480D01*
X103613783Y-43943668D01*
X103602672Y-43956339D01*
X103590262Y-44018750D01*
X103610743Y-44079069D01*
X103611785Y-44080111D01*
X103612034Y-44080414D01*
X103621807Y-44095040D01*
X103621938Y-44097036D01*
X103620275Y-44098147D01*
X103619033Y-44097814D01*
X103608038Y-44090467D01*
X103589101Y-44086700D01*
X101989499Y-44086700D01*
X101970562Y-44090467D01*
X101959567Y-44097814D01*
X101957571Y-44097945D01*
X101956460Y-44096282D01*
X101956793Y-44095040D01*
X101966009Y-44081248D01*
X101965210Y-44080714D01*
X101964325Y-44078920D01*
X101964817Y-44077732D01*
X101975928Y-44065061D01*
X101988338Y-44002650D01*
X101967857Y-43942331D01*
X101966815Y-43941289D01*
X101966566Y-43940986D01*
X101956793Y-43926360D01*
X101956662Y-43924364D01*
X101958325Y-43923253D01*
X101959567Y-43923586D01*
G37*
G36*
X71701262Y-43955933D02*
G01*
X71720199Y-43959700D01*
X73099801Y-43959700D01*
X73118738Y-43955933D01*
X73133558Y-43946030D01*
X73135554Y-43945899D01*
X73136563Y-43948336D01*
X73118145Y-44002592D01*
X73137162Y-44073564D01*
X73136644Y-44075496D01*
X73134119Y-44075745D01*
X73118738Y-44065467D01*
X73099801Y-44061700D01*
X71720199Y-44061700D01*
X71701262Y-44065467D01*
X71686442Y-44075370D01*
X71684446Y-44075501D01*
X71683437Y-44073064D01*
X71701855Y-44018808D01*
X71682838Y-43947836D01*
X71683356Y-43945904D01*
X71685881Y-43945655D01*
X71701262Y-43955933D01*
G37*
G36*
X71701262Y-43305933D02*
G01*
X71720199Y-43309700D01*
X73099801Y-43309700D01*
X73118738Y-43305933D01*
X73133558Y-43296030D01*
X73135554Y-43295899D01*
X73136563Y-43298336D01*
X73118145Y-43352592D01*
X73137162Y-43423564D01*
X73136644Y-43425496D01*
X73134119Y-43425745D01*
X73118738Y-43415467D01*
X73099801Y-43411700D01*
X71720199Y-43411700D01*
X71701262Y-43415467D01*
X71686442Y-43425370D01*
X71684446Y-43425501D01*
X71683437Y-43423064D01*
X71701855Y-43368808D01*
X71682838Y-43297836D01*
X71683356Y-43295904D01*
X71685881Y-43295655D01*
X71701262Y-43305933D01*
G37*
G36*
X93459567Y-43123586D02*
G01*
X93470562Y-43130933D01*
X93489499Y-43134700D01*
X95089101Y-43134700D01*
X95108038Y-43130933D01*
X95119033Y-43123586D01*
X95121029Y-43123455D01*
X95122140Y-43125118D01*
X95121807Y-43126360D01*
X95112591Y-43140152D01*
X95113390Y-43140686D01*
X95114275Y-43142480D01*
X95113783Y-43143668D01*
X95102672Y-43156339D01*
X95090262Y-43218750D01*
X95110743Y-43279069D01*
X95111785Y-43280111D01*
X95112034Y-43280414D01*
X95121807Y-43295040D01*
X95121938Y-43297036D01*
X95120275Y-43298147D01*
X95119033Y-43297814D01*
X95108038Y-43290467D01*
X95089101Y-43286700D01*
X93489499Y-43286700D01*
X93470562Y-43290467D01*
X93459567Y-43297814D01*
X93457571Y-43297945D01*
X93456460Y-43296282D01*
X93456793Y-43295040D01*
X93466009Y-43281248D01*
X93465210Y-43280714D01*
X93464325Y-43278920D01*
X93464817Y-43277732D01*
X93475928Y-43265061D01*
X93488338Y-43202650D01*
X93467857Y-43142331D01*
X93466815Y-43141289D01*
X93466566Y-43140986D01*
X93456793Y-43126360D01*
X93456662Y-43124364D01*
X93458325Y-43123253D01*
X93459567Y-43123586D01*
G37*
G36*
X101959567Y-43123586D02*
G01*
X101970562Y-43130933D01*
X101989499Y-43134700D01*
X103589101Y-43134700D01*
X103608038Y-43130933D01*
X103619033Y-43123586D01*
X103621029Y-43123455D01*
X103622140Y-43125118D01*
X103621807Y-43126360D01*
X103612591Y-43140152D01*
X103613390Y-43140686D01*
X103614275Y-43142480D01*
X103613783Y-43143668D01*
X103602672Y-43156339D01*
X103590262Y-43218750D01*
X103610743Y-43279069D01*
X103611785Y-43280111D01*
X103612034Y-43280414D01*
X103621807Y-43295040D01*
X103621938Y-43297036D01*
X103620275Y-43298147D01*
X103619033Y-43297814D01*
X103608038Y-43290467D01*
X103589101Y-43286700D01*
X101989499Y-43286700D01*
X101970562Y-43290467D01*
X101959567Y-43297814D01*
X101957571Y-43297945D01*
X101956460Y-43296282D01*
X101956793Y-43295040D01*
X101966009Y-43281248D01*
X101965210Y-43280714D01*
X101964325Y-43278920D01*
X101964817Y-43277732D01*
X101975928Y-43265061D01*
X101988338Y-43202650D01*
X101967857Y-43142331D01*
X101966815Y-43141289D01*
X101966566Y-43140986D01*
X101956793Y-43126360D01*
X101956662Y-43124364D01*
X101958325Y-43123253D01*
X101959567Y-43123586D01*
G37*
G36*
X73132840Y-42600118D02*
G01*
X73132507Y-42601360D01*
X73123291Y-42615152D01*
X73124090Y-42615686D01*
X73124975Y-42617480D01*
X73124483Y-42618668D01*
X73113372Y-42631339D01*
X73100962Y-42693750D01*
X73121443Y-42754069D01*
X73122485Y-42755111D01*
X73122734Y-42755414D01*
X73132507Y-42770040D01*
X73132638Y-42772036D01*
X73130975Y-42773147D01*
X73129733Y-42772814D01*
X73118738Y-42765467D01*
X73099801Y-42761700D01*
X71720199Y-42761700D01*
X71701262Y-42765467D01*
X71685380Y-42776080D01*
X71678032Y-42787076D01*
X71676238Y-42787961D01*
X71674575Y-42786850D01*
X71674407Y-42785575D01*
X71677741Y-42768812D01*
X71676994Y-42768157D01*
X71676994Y-42766871D01*
X71684506Y-42744743D01*
X71672094Y-42682333D01*
X71630162Y-42634516D01*
X71573542Y-42617340D01*
X71572612Y-42615789D01*
X71561920Y-42613662D01*
X71560416Y-42612343D01*
X71560806Y-42610381D01*
X71562310Y-42609700D01*
X73099801Y-42609700D01*
X73118738Y-42605933D01*
X73129733Y-42598586D01*
X73131729Y-42598455D01*
X73132840Y-42600118D01*
G37*
G36*
X93459567Y-42323586D02*
G01*
X93470562Y-42330933D01*
X93489499Y-42334700D01*
X95089101Y-42334700D01*
X95108038Y-42330933D01*
X95119033Y-42323586D01*
X95121029Y-42323455D01*
X95122140Y-42325118D01*
X95121807Y-42326360D01*
X95112591Y-42340152D01*
X95113390Y-42340686D01*
X95114275Y-42342480D01*
X95113783Y-42343668D01*
X95102672Y-42356339D01*
X95090262Y-42418750D01*
X95110743Y-42479069D01*
X95111785Y-42480111D01*
X95112034Y-42480414D01*
X95121807Y-42495040D01*
X95121938Y-42497036D01*
X95120275Y-42498147D01*
X95119033Y-42497814D01*
X95108038Y-42490467D01*
X95089101Y-42486700D01*
X93489499Y-42486700D01*
X93470562Y-42490467D01*
X93459567Y-42497814D01*
X93457571Y-42497945D01*
X93456460Y-42496282D01*
X93456793Y-42495040D01*
X93466009Y-42481248D01*
X93465210Y-42480714D01*
X93464325Y-42478920D01*
X93464817Y-42477732D01*
X93475928Y-42465061D01*
X93488338Y-42402650D01*
X93467857Y-42342331D01*
X93466815Y-42341289D01*
X93466566Y-42340986D01*
X93456793Y-42326360D01*
X93456662Y-42324364D01*
X93458325Y-42323253D01*
X93459567Y-42323586D01*
G37*
G36*
X101959567Y-42323586D02*
G01*
X101970562Y-42330933D01*
X101989499Y-42334700D01*
X103589101Y-42334700D01*
X103608038Y-42330933D01*
X103619033Y-42323586D01*
X103621029Y-42323455D01*
X103622140Y-42325118D01*
X103621807Y-42326360D01*
X103612591Y-42340152D01*
X103613390Y-42340686D01*
X103614275Y-42342480D01*
X103613783Y-42343668D01*
X103602672Y-42356339D01*
X103590262Y-42418750D01*
X103610743Y-42479069D01*
X103611785Y-42480111D01*
X103612034Y-42480414D01*
X103621807Y-42495040D01*
X103621938Y-42497036D01*
X103620275Y-42498147D01*
X103619033Y-42497814D01*
X103608038Y-42490467D01*
X103589101Y-42486700D01*
X101989499Y-42486700D01*
X101970562Y-42490467D01*
X101959567Y-42497814D01*
X101957571Y-42497945D01*
X101956460Y-42496282D01*
X101956793Y-42495040D01*
X101966009Y-42481248D01*
X101965210Y-42480714D01*
X101964325Y-42478920D01*
X101964817Y-42477732D01*
X101975928Y-42465061D01*
X101988338Y-42402650D01*
X101967857Y-42342331D01*
X101966815Y-42341289D01*
X101966566Y-42340986D01*
X101956793Y-42326360D01*
X101956662Y-42324364D01*
X101958325Y-42323253D01*
X101959567Y-42323586D01*
G37*
G36*
X93459567Y-41523586D02*
G01*
X93470562Y-41530933D01*
X93489499Y-41534700D01*
X95089101Y-41534700D01*
X95108038Y-41530933D01*
X95119033Y-41523586D01*
X95121029Y-41523455D01*
X95122140Y-41525118D01*
X95121807Y-41526360D01*
X95112591Y-41540152D01*
X95113390Y-41540686D01*
X95114275Y-41542480D01*
X95113783Y-41543668D01*
X95102672Y-41556339D01*
X95090262Y-41618750D01*
X95110743Y-41679069D01*
X95111785Y-41680111D01*
X95112034Y-41680414D01*
X95121807Y-41695040D01*
X95121938Y-41697036D01*
X95120275Y-41698147D01*
X95119033Y-41697814D01*
X95108038Y-41690467D01*
X95089101Y-41686700D01*
X93489499Y-41686700D01*
X93470562Y-41690467D01*
X93459567Y-41697814D01*
X93457571Y-41697945D01*
X93456460Y-41696282D01*
X93456793Y-41695040D01*
X93466009Y-41681248D01*
X93465210Y-41680714D01*
X93464325Y-41678920D01*
X93464817Y-41677732D01*
X93475928Y-41665061D01*
X93488338Y-41602650D01*
X93467857Y-41542331D01*
X93466815Y-41541289D01*
X93466566Y-41540986D01*
X93456793Y-41526360D01*
X93456662Y-41524364D01*
X93458325Y-41523253D01*
X93459567Y-41523586D01*
G37*
G36*
X101959567Y-41523586D02*
G01*
X101970562Y-41530933D01*
X101989499Y-41534700D01*
X103589101Y-41534700D01*
X103608038Y-41530933D01*
X103619033Y-41523586D01*
X103621029Y-41523455D01*
X103622140Y-41525118D01*
X103621807Y-41526360D01*
X103612591Y-41540152D01*
X103613390Y-41540686D01*
X103614275Y-41542480D01*
X103613783Y-41543668D01*
X103602672Y-41556339D01*
X103590262Y-41618750D01*
X103610743Y-41679069D01*
X103611785Y-41680111D01*
X103612034Y-41680414D01*
X103621807Y-41695040D01*
X103621938Y-41697036D01*
X103620275Y-41698147D01*
X103619033Y-41697814D01*
X103608038Y-41690467D01*
X103589101Y-41686700D01*
X101989499Y-41686700D01*
X101970562Y-41690467D01*
X101959567Y-41697814D01*
X101957571Y-41697945D01*
X101956460Y-41696282D01*
X101956793Y-41695040D01*
X101966009Y-41681248D01*
X101965210Y-41680714D01*
X101964325Y-41678920D01*
X101964817Y-41677732D01*
X101975928Y-41665061D01*
X101988338Y-41602650D01*
X101967857Y-41542331D01*
X101966815Y-41541289D01*
X101966566Y-41540986D01*
X101956793Y-41526360D01*
X101956662Y-41524364D01*
X101958325Y-41523253D01*
X101959567Y-41523586D01*
G37*
G36*
X93459567Y-40723586D02*
G01*
X93470562Y-40730933D01*
X93489499Y-40734700D01*
X95089101Y-40734700D01*
X95108038Y-40730933D01*
X95119033Y-40723586D01*
X95121029Y-40723455D01*
X95122140Y-40725118D01*
X95121807Y-40726360D01*
X95112591Y-40740152D01*
X95113390Y-40740686D01*
X95114275Y-40742480D01*
X95113783Y-40743668D01*
X95102672Y-40756339D01*
X95090262Y-40818750D01*
X95110743Y-40879069D01*
X95111785Y-40880111D01*
X95112034Y-40880414D01*
X95121807Y-40895040D01*
X95121938Y-40897036D01*
X95120275Y-40898147D01*
X95119033Y-40897814D01*
X95108038Y-40890467D01*
X95089101Y-40886700D01*
X93489499Y-40886700D01*
X93470562Y-40890467D01*
X93459567Y-40897814D01*
X93457571Y-40897945D01*
X93456460Y-40896282D01*
X93456793Y-40895040D01*
X93466009Y-40881248D01*
X93465210Y-40880714D01*
X93464325Y-40878920D01*
X93464817Y-40877732D01*
X93475928Y-40865061D01*
X93488338Y-40802650D01*
X93467857Y-40742331D01*
X93466815Y-40741289D01*
X93466566Y-40740986D01*
X93456793Y-40726360D01*
X93456662Y-40724364D01*
X93458325Y-40723253D01*
X93459567Y-40723586D01*
G37*
G36*
X101959567Y-40723586D02*
G01*
X101970562Y-40730933D01*
X101989499Y-40734700D01*
X103589101Y-40734700D01*
X103608038Y-40730933D01*
X103619033Y-40723586D01*
X103621029Y-40723455D01*
X103622140Y-40725118D01*
X103621807Y-40726360D01*
X103612591Y-40740152D01*
X103613390Y-40740686D01*
X103614275Y-40742480D01*
X103613783Y-40743668D01*
X103602672Y-40756339D01*
X103590262Y-40818750D01*
X103610743Y-40879069D01*
X103611785Y-40880111D01*
X103612034Y-40880414D01*
X103621807Y-40895040D01*
X103621938Y-40897036D01*
X103620275Y-40898147D01*
X103619033Y-40897814D01*
X103608038Y-40890467D01*
X103589101Y-40886700D01*
X101989499Y-40886700D01*
X101970562Y-40890467D01*
X101959567Y-40897814D01*
X101957571Y-40897945D01*
X101956460Y-40896282D01*
X101956793Y-40895040D01*
X101966009Y-40881248D01*
X101965210Y-40880714D01*
X101964325Y-40878920D01*
X101964817Y-40877732D01*
X101975928Y-40865061D01*
X101988338Y-40802650D01*
X101967857Y-40742331D01*
X101966815Y-40741289D01*
X101966566Y-40740986D01*
X101956793Y-40726360D01*
X101956662Y-40724364D01*
X101958325Y-40723253D01*
X101959567Y-40723586D01*
G37*
G36*
X93459567Y-39923586D02*
G01*
X93470562Y-39930933D01*
X93489499Y-39934700D01*
X95089101Y-39934700D01*
X95108038Y-39930933D01*
X95119033Y-39923586D01*
X95121029Y-39923455D01*
X95122140Y-39925118D01*
X95121807Y-39926360D01*
X95112591Y-39940152D01*
X95113390Y-39940686D01*
X95114275Y-39942480D01*
X95113783Y-39943668D01*
X95102672Y-39956339D01*
X95090262Y-40018750D01*
X95110743Y-40079069D01*
X95111785Y-40080111D01*
X95112034Y-40080414D01*
X95121807Y-40095040D01*
X95121938Y-40097036D01*
X95120275Y-40098147D01*
X95119033Y-40097814D01*
X95108038Y-40090467D01*
X95089101Y-40086700D01*
X93489499Y-40086700D01*
X93470562Y-40090467D01*
X93459567Y-40097814D01*
X93457571Y-40097945D01*
X93456460Y-40096282D01*
X93456793Y-40095040D01*
X93466009Y-40081248D01*
X93465210Y-40080714D01*
X93464325Y-40078920D01*
X93464817Y-40077732D01*
X93475928Y-40065061D01*
X93488338Y-40002650D01*
X93467857Y-39942331D01*
X93466815Y-39941289D01*
X93466566Y-39940986D01*
X93456793Y-39926360D01*
X93456662Y-39924364D01*
X93458325Y-39923253D01*
X93459567Y-39923586D01*
G37*
G36*
X101959567Y-39923586D02*
G01*
X101970562Y-39930933D01*
X101989499Y-39934700D01*
X103589101Y-39934700D01*
X103608038Y-39930933D01*
X103619033Y-39923586D01*
X103621029Y-39923455D01*
X103622140Y-39925118D01*
X103621807Y-39926360D01*
X103612591Y-39940152D01*
X103613390Y-39940686D01*
X103614275Y-39942480D01*
X103613783Y-39943668D01*
X103602672Y-39956339D01*
X103590262Y-40018750D01*
X103610743Y-40079069D01*
X103611785Y-40080111D01*
X103612034Y-40080414D01*
X103621807Y-40095040D01*
X103621938Y-40097036D01*
X103620275Y-40098147D01*
X103619033Y-40097814D01*
X103608038Y-40090467D01*
X103589101Y-40086700D01*
X101989499Y-40086700D01*
X101970562Y-40090467D01*
X101959567Y-40097814D01*
X101957571Y-40097945D01*
X101956460Y-40096282D01*
X101956793Y-40095040D01*
X101966009Y-40081248D01*
X101965210Y-40080714D01*
X101964325Y-40078920D01*
X101964817Y-40077732D01*
X101975928Y-40065061D01*
X101988338Y-40002650D01*
X101967857Y-39942331D01*
X101966815Y-39941289D01*
X101966566Y-39940986D01*
X101956793Y-39926360D01*
X101956662Y-39924364D01*
X101958325Y-39923253D01*
X101959567Y-39923586D01*
G37*
G36*
X93459567Y-39123586D02*
G01*
X93470562Y-39130933D01*
X93489499Y-39134700D01*
X95089101Y-39134700D01*
X95108038Y-39130933D01*
X95119033Y-39123586D01*
X95121029Y-39123455D01*
X95122140Y-39125118D01*
X95121807Y-39126360D01*
X95112591Y-39140152D01*
X95113390Y-39140686D01*
X95114275Y-39142480D01*
X95113783Y-39143668D01*
X95102672Y-39156339D01*
X95090262Y-39218750D01*
X95110743Y-39279069D01*
X95111785Y-39280111D01*
X95112034Y-39280414D01*
X95121807Y-39295040D01*
X95121938Y-39297036D01*
X95120275Y-39298147D01*
X95119033Y-39297814D01*
X95108038Y-39290467D01*
X95089101Y-39286700D01*
X93489499Y-39286700D01*
X93470562Y-39290467D01*
X93459567Y-39297814D01*
X93457571Y-39297945D01*
X93456460Y-39296282D01*
X93456793Y-39295040D01*
X93466009Y-39281248D01*
X93465210Y-39280714D01*
X93464325Y-39278920D01*
X93464817Y-39277732D01*
X93475928Y-39265061D01*
X93488338Y-39202650D01*
X93467857Y-39142331D01*
X93466815Y-39141289D01*
X93466566Y-39140986D01*
X93456793Y-39126360D01*
X93456662Y-39124364D01*
X93458325Y-39123253D01*
X93459567Y-39123586D01*
G37*
G36*
X101959567Y-39123586D02*
G01*
X101970562Y-39130933D01*
X101989499Y-39134700D01*
X103589101Y-39134700D01*
X103608038Y-39130933D01*
X103619033Y-39123586D01*
X103621029Y-39123455D01*
X103622140Y-39125118D01*
X103621807Y-39126360D01*
X103612591Y-39140152D01*
X103613390Y-39140686D01*
X103614275Y-39142480D01*
X103613783Y-39143668D01*
X103602672Y-39156339D01*
X103590262Y-39218750D01*
X103610743Y-39279069D01*
X103611785Y-39280111D01*
X103612034Y-39280414D01*
X103621807Y-39295040D01*
X103621938Y-39297036D01*
X103620275Y-39298147D01*
X103619033Y-39297814D01*
X103608038Y-39290467D01*
X103589101Y-39286700D01*
X101989499Y-39286700D01*
X101970562Y-39290467D01*
X101959567Y-39297814D01*
X101957571Y-39297945D01*
X101956460Y-39296282D01*
X101956793Y-39295040D01*
X101966009Y-39281248D01*
X101965210Y-39280714D01*
X101964325Y-39278920D01*
X101964817Y-39277732D01*
X101975928Y-39265061D01*
X101988338Y-39202650D01*
X101967857Y-39142331D01*
X101966815Y-39141289D01*
X101966566Y-39140986D01*
X101956793Y-39126360D01*
X101956662Y-39124364D01*
X101958325Y-39123253D01*
X101959567Y-39123586D01*
G37*
G36*
X100054960Y-36528193D02*
G01*
X100068752Y-36537409D01*
X100069286Y-36536610D01*
X100071080Y-36535725D01*
X100072268Y-36536217D01*
X100084939Y-36547328D01*
X100147350Y-36559738D01*
X100207669Y-36539257D01*
X100208711Y-36538215D01*
X100209014Y-36537966D01*
X100223640Y-36528193D01*
X100225636Y-36528062D01*
X100226747Y-36529725D01*
X100226414Y-36530967D01*
X100219067Y-36541962D01*
X100215300Y-36560899D01*
X100215300Y-38160501D01*
X100219067Y-38179438D01*
X100226414Y-38190433D01*
X100226545Y-38192429D01*
X100224882Y-38193540D01*
X100223640Y-38193207D01*
X100209848Y-38183991D01*
X100209314Y-38184790D01*
X100207520Y-38185675D01*
X100206332Y-38185183D01*
X100193661Y-38174072D01*
X100131250Y-38161662D01*
X100070931Y-38182143D01*
X100069889Y-38183185D01*
X100069586Y-38183434D01*
X100054960Y-38193207D01*
X100052964Y-38193338D01*
X100051853Y-38191675D01*
X100052186Y-38190433D01*
X100059533Y-38179438D01*
X100063300Y-38160501D01*
X100063300Y-36560899D01*
X100059533Y-36541962D01*
X100052186Y-36530967D01*
X100052055Y-36528971D01*
X100053718Y-36527860D01*
X100054960Y-36528193D01*
G37*
G36*
X99254960Y-36528193D02*
G01*
X99268752Y-36537409D01*
X99269286Y-36536610D01*
X99271080Y-36535725D01*
X99272268Y-36536217D01*
X99284939Y-36547328D01*
X99347350Y-36559738D01*
X99407669Y-36539257D01*
X99408711Y-36538215D01*
X99409014Y-36537966D01*
X99423640Y-36528193D01*
X99425636Y-36528062D01*
X99426747Y-36529725D01*
X99426414Y-36530967D01*
X99419067Y-36541962D01*
X99415300Y-36560899D01*
X99415300Y-38160501D01*
X99419067Y-38179438D01*
X99426414Y-38190433D01*
X99426545Y-38192429D01*
X99424882Y-38193540D01*
X99423640Y-38193207D01*
X99409848Y-38183991D01*
X99409314Y-38184790D01*
X99407520Y-38185675D01*
X99406332Y-38185183D01*
X99393661Y-38174072D01*
X99331250Y-38161662D01*
X99270931Y-38182143D01*
X99269889Y-38183185D01*
X99269586Y-38183434D01*
X99254960Y-38193207D01*
X99252964Y-38193338D01*
X99251853Y-38191675D01*
X99252186Y-38190433D01*
X99259533Y-38179438D01*
X99263300Y-38160501D01*
X99263300Y-36560899D01*
X99259533Y-36541962D01*
X99252186Y-36530967D01*
X99252055Y-36528971D01*
X99253718Y-36527860D01*
X99254960Y-36528193D01*
G37*
G36*
X100854960Y-36528193D02*
G01*
X100868752Y-36537409D01*
X100869286Y-36536610D01*
X100871080Y-36535725D01*
X100872268Y-36536217D01*
X100884939Y-36547328D01*
X100947350Y-36559738D01*
X101007669Y-36539257D01*
X101008711Y-36538215D01*
X101009014Y-36537966D01*
X101023640Y-36528193D01*
X101025636Y-36528062D01*
X101026747Y-36529725D01*
X101026414Y-36530967D01*
X101019067Y-36541962D01*
X101015300Y-36560899D01*
X101015300Y-38160501D01*
X101019067Y-38179438D01*
X101026414Y-38190433D01*
X101026545Y-38192429D01*
X101024882Y-38193540D01*
X101023640Y-38193207D01*
X101009848Y-38183991D01*
X101009314Y-38184790D01*
X101007520Y-38185675D01*
X101006332Y-38185183D01*
X100993661Y-38174072D01*
X100931250Y-38161662D01*
X100870931Y-38182143D01*
X100869889Y-38183185D01*
X100869586Y-38183434D01*
X100854960Y-38193207D01*
X100852964Y-38193338D01*
X100851853Y-38191675D01*
X100852186Y-38190433D01*
X100859533Y-38179438D01*
X100863300Y-38160501D01*
X100863300Y-36560899D01*
X100859533Y-36541962D01*
X100852186Y-36530967D01*
X100852055Y-36528971D01*
X100853718Y-36527860D01*
X100854960Y-36528193D01*
G37*
G36*
X98454960Y-36528193D02*
G01*
X98468752Y-36537409D01*
X98469286Y-36536610D01*
X98471080Y-36535725D01*
X98472268Y-36536217D01*
X98484939Y-36547328D01*
X98547350Y-36559738D01*
X98607669Y-36539257D01*
X98608711Y-36538215D01*
X98609014Y-36537966D01*
X98623640Y-36528193D01*
X98625636Y-36528062D01*
X98626747Y-36529725D01*
X98626414Y-36530967D01*
X98619067Y-36541962D01*
X98615300Y-36560899D01*
X98615300Y-38160501D01*
X98619067Y-38179438D01*
X98626414Y-38190433D01*
X98626545Y-38192429D01*
X98624882Y-38193540D01*
X98623640Y-38193207D01*
X98609848Y-38183991D01*
X98609314Y-38184790D01*
X98607520Y-38185675D01*
X98606332Y-38185183D01*
X98593661Y-38174072D01*
X98531250Y-38161662D01*
X98470931Y-38182143D01*
X98469889Y-38183185D01*
X98469586Y-38183434D01*
X98454960Y-38193207D01*
X98452964Y-38193338D01*
X98451853Y-38191675D01*
X98452186Y-38190433D01*
X98459533Y-38179438D01*
X98463300Y-38160501D01*
X98463300Y-36560899D01*
X98459533Y-36541962D01*
X98452186Y-36530967D01*
X98452055Y-36528971D01*
X98453718Y-36527860D01*
X98454960Y-36528193D01*
G37*
G36*
X97654960Y-36528193D02*
G01*
X97668752Y-36537409D01*
X97669286Y-36536610D01*
X97671080Y-36535725D01*
X97672268Y-36536217D01*
X97684939Y-36547328D01*
X97747350Y-36559738D01*
X97807669Y-36539257D01*
X97808711Y-36538215D01*
X97809014Y-36537966D01*
X97823640Y-36528193D01*
X97825636Y-36528062D01*
X97826747Y-36529725D01*
X97826414Y-36530967D01*
X97819067Y-36541962D01*
X97815300Y-36560899D01*
X97815300Y-38160501D01*
X97819067Y-38179438D01*
X97826414Y-38190433D01*
X97826545Y-38192429D01*
X97824882Y-38193540D01*
X97823640Y-38193207D01*
X97809848Y-38183991D01*
X97809314Y-38184790D01*
X97807520Y-38185675D01*
X97806332Y-38185183D01*
X97793661Y-38174072D01*
X97731250Y-38161662D01*
X97670931Y-38182143D01*
X97669889Y-38183185D01*
X97669586Y-38183434D01*
X97654960Y-38193207D01*
X97652964Y-38193338D01*
X97651853Y-38191675D01*
X97652186Y-38190433D01*
X97659533Y-38179438D01*
X97663300Y-38160501D01*
X97663300Y-36560899D01*
X97659533Y-36541962D01*
X97652186Y-36530967D01*
X97652055Y-36528971D01*
X97653718Y-36527860D01*
X97654960Y-36528193D01*
G37*
G36*
X96854960Y-36528193D02*
G01*
X96868752Y-36537409D01*
X96869286Y-36536610D01*
X96871080Y-36535725D01*
X96872268Y-36536217D01*
X96884939Y-36547328D01*
X96947350Y-36559738D01*
X97007669Y-36539257D01*
X97008711Y-36538215D01*
X97009014Y-36537966D01*
X97023640Y-36528193D01*
X97025636Y-36528062D01*
X97026747Y-36529725D01*
X97026414Y-36530967D01*
X97019067Y-36541962D01*
X97015300Y-36560899D01*
X97015300Y-38160501D01*
X97019067Y-38179438D01*
X97026414Y-38190433D01*
X97026545Y-38192429D01*
X97024882Y-38193540D01*
X97023640Y-38193207D01*
X97009848Y-38183991D01*
X97009314Y-38184790D01*
X97007520Y-38185675D01*
X97006332Y-38185183D01*
X96993661Y-38174072D01*
X96931250Y-38161662D01*
X96870931Y-38182143D01*
X96869889Y-38183185D01*
X96869586Y-38183434D01*
X96854960Y-38193207D01*
X96852964Y-38193338D01*
X96851853Y-38191675D01*
X96852186Y-38190433D01*
X96859533Y-38179438D01*
X96863300Y-38160501D01*
X96863300Y-36560899D01*
X96859533Y-36541962D01*
X96852186Y-36530967D01*
X96852055Y-36528971D01*
X96853718Y-36527860D01*
X96854960Y-36528193D01*
G37*
G36*
X96054960Y-36528193D02*
G01*
X96068752Y-36537409D01*
X96069286Y-36536610D01*
X96071080Y-36535725D01*
X96072268Y-36536217D01*
X96084939Y-36547328D01*
X96147350Y-36559738D01*
X96207669Y-36539257D01*
X96208711Y-36538215D01*
X96209014Y-36537966D01*
X96223640Y-36528193D01*
X96225636Y-36528062D01*
X96226747Y-36529725D01*
X96226414Y-36530967D01*
X96219067Y-36541962D01*
X96215300Y-36560899D01*
X96215300Y-38160501D01*
X96219067Y-38179438D01*
X96226414Y-38190433D01*
X96226545Y-38192429D01*
X96224882Y-38193540D01*
X96223640Y-38193207D01*
X96209848Y-38183991D01*
X96209314Y-38184790D01*
X96207520Y-38185675D01*
X96206332Y-38185183D01*
X96193661Y-38174072D01*
X96131250Y-38161662D01*
X96070931Y-38182143D01*
X96069889Y-38183185D01*
X96069586Y-38183434D01*
X96054960Y-38193207D01*
X96052964Y-38193338D01*
X96051853Y-38191675D01*
X96052186Y-38190433D01*
X96059533Y-38179438D01*
X96063300Y-38160501D01*
X96063300Y-36560899D01*
X96059533Y-36541962D01*
X96052186Y-36530967D01*
X96052055Y-36528971D01*
X96053718Y-36527860D01*
X96054960Y-36528193D01*
G37*
M02*
