G04 #@! TF.GenerationSoftware,KiCad,Pcbnew,5.99.0-unknown-57e35c9~88~ubuntu19.10.1*
G04 #@! TF.CreationDate,2022-01-19T00:43:40-03:00*
G04 #@! TF.ProjectId,Femtosat,46656d74-6f73-4617-942e-6b696361645f,rev?*
G04 #@! TF.SameCoordinates,Original*
G04 #@! TF.FileFunction,Legend,Top*
G04 #@! TF.FilePolarity,Positive*
%FSLAX46Y46*%
G04 Gerber Fmt 4.6, Leading zero omitted, Abs format (unit mm)*
G04 Created by KiCad (PCBNEW 5.99.0-unknown-57e35c9~88~ubuntu19.10.1) date 2022-01-19 00:43:40*
%MOMM*%
%LPD*%
G01*
G04 APERTURE LIST*
%ADD10C,0.150000*%
%ADD11C,0.120000*%
G04 APERTURE END LIST*
D10*
X112439285Y-83356785D02*
X112482142Y-83228214D01*
X112482142Y-83013928D01*
X112439285Y-82928214D01*
X112396428Y-82885357D01*
X112310714Y-82842500D01*
X112225000Y-82842500D01*
X112139285Y-82885357D01*
X112096428Y-82928214D01*
X112053571Y-83013928D01*
X112010714Y-83185357D01*
X111967857Y-83271071D01*
X111925000Y-83313928D01*
X111839285Y-83356785D01*
X111753571Y-83356785D01*
X111667857Y-83313928D01*
X111625000Y-83271071D01*
X111582142Y-83185357D01*
X111582142Y-82971071D01*
X111625000Y-82842500D01*
X111582142Y-82542500D02*
X112482142Y-82328214D01*
X111839285Y-82156785D01*
X112482142Y-81985357D01*
X111582142Y-81771071D01*
X112482142Y-81428214D02*
X111582142Y-81428214D01*
X111582142Y-81213928D01*
X111625000Y-81085357D01*
X111710714Y-80999642D01*
X111796428Y-80956785D01*
X111967857Y-80913928D01*
X112096428Y-80913928D01*
X112267857Y-80956785D01*
X112353571Y-80999642D01*
X112439285Y-81085357D01*
X112482142Y-81213928D01*
X112482142Y-81428214D01*
X111189285Y-83356785D02*
X111232142Y-83228214D01*
X111232142Y-83013928D01*
X111189285Y-82928214D01*
X111146428Y-82885357D01*
X111060714Y-82842500D01*
X110975000Y-82842500D01*
X110889285Y-82885357D01*
X110846428Y-82928214D01*
X110803571Y-83013928D01*
X110760714Y-83185357D01*
X110717857Y-83271071D01*
X110675000Y-83313928D01*
X110589285Y-83356785D01*
X110503571Y-83356785D01*
X110417857Y-83313928D01*
X110375000Y-83271071D01*
X110332142Y-83185357D01*
X110332142Y-82971071D01*
X110375000Y-82842500D01*
X110332142Y-82542500D02*
X111232142Y-82328214D01*
X110589285Y-82156785D01*
X111232142Y-81985357D01*
X110332142Y-81771071D01*
X111146428Y-80913928D02*
X111189285Y-80956785D01*
X111232142Y-81085357D01*
X111232142Y-81171071D01*
X111189285Y-81299642D01*
X111103571Y-81385357D01*
X111017857Y-81428214D01*
X110846428Y-81471071D01*
X110717857Y-81471071D01*
X110546428Y-81428214D01*
X110460714Y-81385357D01*
X110375000Y-81299642D01*
X110332142Y-81171071D01*
X110332142Y-81085357D01*
X110375000Y-80956785D01*
X110417857Y-80913928D01*
X109125000Y-82799642D02*
X109082142Y-82885357D01*
X109082142Y-83013928D01*
X109125000Y-83142500D01*
X109210714Y-83228214D01*
X109296428Y-83271071D01*
X109467857Y-83313928D01*
X109596428Y-83313928D01*
X109767857Y-83271071D01*
X109853571Y-83228214D01*
X109939285Y-83142500D01*
X109982142Y-83013928D01*
X109982142Y-82928214D01*
X109939285Y-82799642D01*
X109896428Y-82756785D01*
X109596428Y-82756785D01*
X109596428Y-82928214D01*
X109982142Y-82371071D02*
X109082142Y-82371071D01*
X109982142Y-81856785D01*
X109082142Y-81856785D01*
X109982142Y-81428214D02*
X109082142Y-81428214D01*
X109082142Y-81213928D01*
X109125000Y-81085357D01*
X109210714Y-80999642D01*
X109296428Y-80956785D01*
X109467857Y-80913928D01*
X109596428Y-80913928D01*
X109767857Y-80956785D01*
X109853571Y-80999642D01*
X109939285Y-81085357D01*
X109982142Y-81213928D01*
X109982142Y-81428214D01*
X107832142Y-83099642D02*
X107832142Y-82542500D01*
X108175000Y-82842500D01*
X108175000Y-82713928D01*
X108217857Y-82628214D01*
X108260714Y-82585357D01*
X108346428Y-82542500D01*
X108560714Y-82542500D01*
X108646428Y-82585357D01*
X108689285Y-82628214D01*
X108732142Y-82713928D01*
X108732142Y-82971071D01*
X108689285Y-83056785D01*
X108646428Y-83099642D01*
X107832142Y-82285357D02*
X108732142Y-81985357D01*
X107832142Y-81685357D01*
X107832142Y-81471071D02*
X107832142Y-80913928D01*
X108175000Y-81213928D01*
X108175000Y-81085357D01*
X108217857Y-80999642D01*
X108260714Y-80956785D01*
X108346428Y-80913928D01*
X108560714Y-80913928D01*
X108646428Y-80956785D01*
X108689285Y-80999642D01*
X108732142Y-81085357D01*
X108732142Y-81342500D01*
X108689285Y-81428214D01*
X108646428Y-81471071D01*
X107482142Y-82456785D02*
X107053571Y-82756785D01*
X107482142Y-82971071D02*
X106582142Y-82971071D01*
X106582142Y-82628214D01*
X106625000Y-82542500D01*
X106667857Y-82499642D01*
X106753571Y-82456785D01*
X106882142Y-82456785D01*
X106967857Y-82499642D01*
X107010714Y-82542500D01*
X107053571Y-82628214D01*
X107053571Y-82971071D01*
X107439285Y-82113928D02*
X107482142Y-81985357D01*
X107482142Y-81771071D01*
X107439285Y-81685357D01*
X107396428Y-81642500D01*
X107310714Y-81599642D01*
X107225000Y-81599642D01*
X107139285Y-81642500D01*
X107096428Y-81685357D01*
X107053571Y-81771071D01*
X107010714Y-81942500D01*
X106967857Y-82028214D01*
X106925000Y-82071071D01*
X106839285Y-82113928D01*
X106753571Y-82113928D01*
X106667857Y-82071071D01*
X106625000Y-82028214D01*
X106582142Y-81942500D01*
X106582142Y-81728214D01*
X106625000Y-81599642D01*
X106582142Y-81342500D02*
X106582142Y-80828214D01*
X107482142Y-81085357D02*
X106582142Y-81085357D01*
X74792738Y-55392380D02*
X75126071Y-56392380D01*
X75459404Y-55392380D01*
X75792738Y-56392380D02*
X75792738Y-55392380D01*
X76268928Y-56392380D02*
X76268928Y-55392380D01*
X76840357Y-56392380D01*
X76840357Y-55392380D01*
X74792738Y-52852380D02*
X75126071Y-53852380D01*
X75459404Y-52852380D01*
X75792738Y-52852380D02*
X75792738Y-53661904D01*
X75840357Y-53757142D01*
X75887976Y-53804761D01*
X75983214Y-53852380D01*
X76173690Y-53852380D01*
X76268928Y-53804761D01*
X76316547Y-53757142D01*
X76364166Y-53661904D01*
X76364166Y-52852380D01*
X76792738Y-53804761D02*
X76935595Y-53852380D01*
X77173690Y-53852380D01*
X77268928Y-53804761D01*
X77316547Y-53757142D01*
X77364166Y-53661904D01*
X77364166Y-53566666D01*
X77316547Y-53471428D01*
X77268928Y-53423809D01*
X77173690Y-53376190D01*
X76983214Y-53328571D01*
X76887976Y-53280952D01*
X76840357Y-53233333D01*
X76792738Y-53138095D01*
X76792738Y-53042857D01*
X76840357Y-52947619D01*
X76887976Y-52900000D01*
X76983214Y-52852380D01*
X77221309Y-52852380D01*
X77364166Y-52900000D01*
X78126071Y-53328571D02*
X78268928Y-53376190D01*
X78316547Y-53423809D01*
X78364166Y-53519047D01*
X78364166Y-53661904D01*
X78316547Y-53757142D01*
X78268928Y-53804761D01*
X78173690Y-53852380D01*
X77792738Y-53852380D01*
X77792738Y-52852380D01*
X78126071Y-52852380D01*
X78221309Y-52900000D01*
X78268928Y-52947619D01*
X78316547Y-53042857D01*
X78316547Y-53138095D01*
X78268928Y-53233333D01*
X78221309Y-53280952D01*
X78126071Y-53328571D01*
X77792738Y-53328571D01*
X74792738Y-50312380D02*
X75126071Y-51312380D01*
X75459404Y-50312380D01*
X76126071Y-50788571D02*
X76268928Y-50836190D01*
X76316547Y-50883809D01*
X76364166Y-50979047D01*
X76364166Y-51121904D01*
X76316547Y-51217142D01*
X76268928Y-51264761D01*
X76173690Y-51312380D01*
X75792738Y-51312380D01*
X75792738Y-50312380D01*
X76126071Y-50312380D01*
X76221309Y-50360000D01*
X76268928Y-50407619D01*
X76316547Y-50502857D01*
X76316547Y-50598095D01*
X76268928Y-50693333D01*
X76221309Y-50740952D01*
X76126071Y-50788571D01*
X75792738Y-50788571D01*
X76745119Y-51026666D02*
X77221309Y-51026666D01*
X76649880Y-51312380D02*
X76983214Y-50312380D01*
X77316547Y-51312380D01*
X77507023Y-50312380D02*
X78078452Y-50312380D01*
X77792738Y-51312380D02*
X77792738Y-50312380D01*
X163073452Y-49623380D02*
X163644880Y-49623380D01*
X163359166Y-50623380D02*
X163359166Y-49623380D01*
X163882976Y-49623380D02*
X164549642Y-50623380D01*
X164549642Y-49623380D02*
X163882976Y-50623380D01*
X159025833Y-44591000D02*
X158930595Y-44543380D01*
X158787738Y-44543380D01*
X158644880Y-44591000D01*
X158549642Y-44686238D01*
X158502023Y-44781476D01*
X158454404Y-44971952D01*
X158454404Y-45114809D01*
X158502023Y-45305285D01*
X158549642Y-45400523D01*
X158644880Y-45495761D01*
X158787738Y-45543380D01*
X158882976Y-45543380D01*
X159025833Y-45495761D01*
X159073452Y-45448142D01*
X159073452Y-45114809D01*
X158882976Y-45114809D01*
X159502023Y-45543380D02*
X159502023Y-44543380D01*
X159882976Y-44543380D01*
X159978214Y-44591000D01*
X160025833Y-44638619D01*
X160073452Y-44733857D01*
X160073452Y-44876714D01*
X160025833Y-44971952D01*
X159978214Y-45019571D01*
X159882976Y-45067190D01*
X159502023Y-45067190D01*
X160454404Y-45495761D02*
X160597261Y-45543380D01*
X160835357Y-45543380D01*
X160930595Y-45495761D01*
X160978214Y-45448142D01*
X161025833Y-45352904D01*
X161025833Y-45257666D01*
X160978214Y-45162428D01*
X160930595Y-45114809D01*
X160835357Y-45067190D01*
X160644880Y-45019571D01*
X160549642Y-44971952D01*
X160502023Y-44924333D01*
X160454404Y-44829095D01*
X160454404Y-44733857D01*
X160502023Y-44638619D01*
X160549642Y-44591000D01*
X160644880Y-44543380D01*
X160882976Y-44543380D01*
X161025833Y-44591000D01*
X161216309Y-45638619D02*
X161978214Y-45638619D01*
X162787738Y-45543380D02*
X162454404Y-45067190D01*
X162216309Y-45543380D02*
X162216309Y-44543380D01*
X162597261Y-44543380D01*
X162692500Y-44591000D01*
X162740119Y-44638619D01*
X162787738Y-44733857D01*
X162787738Y-44876714D01*
X162740119Y-44971952D01*
X162692500Y-45019571D01*
X162597261Y-45067190D01*
X162216309Y-45067190D01*
X163168690Y-45495761D02*
X163311547Y-45543380D01*
X163549642Y-45543380D01*
X163644880Y-45495761D01*
X163692500Y-45448142D01*
X163740119Y-45352904D01*
X163740119Y-45257666D01*
X163692500Y-45162428D01*
X163644880Y-45114809D01*
X163549642Y-45067190D01*
X163359166Y-45019571D01*
X163263928Y-44971952D01*
X163216309Y-44924333D01*
X163168690Y-44829095D01*
X163168690Y-44733857D01*
X163216309Y-44638619D01*
X163263928Y-44591000D01*
X163359166Y-44543380D01*
X163597261Y-44543380D01*
X163740119Y-44591000D01*
X164025833Y-44543380D02*
X164597261Y-44543380D01*
X164311547Y-45543380D02*
X164311547Y-44543380D01*
X162406785Y-42051000D02*
X162311547Y-42003380D01*
X162168690Y-42003380D01*
X162025833Y-42051000D01*
X161930595Y-42146238D01*
X161882976Y-42241476D01*
X161835357Y-42431952D01*
X161835357Y-42574809D01*
X161882976Y-42765285D01*
X161930595Y-42860523D01*
X162025833Y-42955761D01*
X162168690Y-43003380D01*
X162263928Y-43003380D01*
X162406785Y-42955761D01*
X162454404Y-42908142D01*
X162454404Y-42574809D01*
X162263928Y-42574809D01*
X162882976Y-43003380D02*
X162882976Y-42003380D01*
X163454404Y-43003380D01*
X163454404Y-42003380D01*
X163930595Y-43003380D02*
X163930595Y-42003380D01*
X164168690Y-42003380D01*
X164311547Y-42051000D01*
X164406785Y-42146238D01*
X164454404Y-42241476D01*
X164502023Y-42431952D01*
X164502023Y-42574809D01*
X164454404Y-42765285D01*
X164406785Y-42860523D01*
X164311547Y-42955761D01*
X164168690Y-43003380D01*
X163930595Y-43003380D01*
X162406785Y-39511000D02*
X162311547Y-39463380D01*
X162168690Y-39463380D01*
X162025833Y-39511000D01*
X161930595Y-39606238D01*
X161882976Y-39701476D01*
X161835357Y-39891952D01*
X161835357Y-40034809D01*
X161882976Y-40225285D01*
X161930595Y-40320523D01*
X162025833Y-40415761D01*
X162168690Y-40463380D01*
X162263928Y-40463380D01*
X162406785Y-40415761D01*
X162454404Y-40368142D01*
X162454404Y-40034809D01*
X162263928Y-40034809D01*
X162882976Y-40463380D02*
X162882976Y-39463380D01*
X163454404Y-40463380D01*
X163454404Y-39463380D01*
X163930595Y-40463380D02*
X163930595Y-39463380D01*
X164168690Y-39463380D01*
X164311547Y-39511000D01*
X164406785Y-39606238D01*
X164454404Y-39701476D01*
X164502023Y-39891952D01*
X164502023Y-40034809D01*
X164454404Y-40225285D01*
X164406785Y-40320523D01*
X164311547Y-40415761D01*
X164168690Y-40463380D01*
X163930595Y-40463380D01*
X163597261Y-36923380D02*
X163121071Y-36923380D01*
X163073452Y-37399571D01*
X163121071Y-37351952D01*
X163216309Y-37304333D01*
X163454404Y-37304333D01*
X163549642Y-37351952D01*
X163597261Y-37399571D01*
X163644880Y-37494809D01*
X163644880Y-37732904D01*
X163597261Y-37828142D01*
X163549642Y-37875761D01*
X163454404Y-37923380D01*
X163216309Y-37923380D01*
X163121071Y-37875761D01*
X163073452Y-37828142D01*
X163930595Y-36923380D02*
X164263928Y-37923380D01*
X164597261Y-36923380D01*
X79007619Y-77333452D02*
X79007619Y-77952500D01*
X78626666Y-77619166D01*
X78626666Y-77762023D01*
X78579047Y-77857261D01*
X78531428Y-77904880D01*
X78436190Y-77952500D01*
X78198095Y-77952500D01*
X78102857Y-77904880D01*
X78055238Y-77857261D01*
X78007619Y-77762023D01*
X78007619Y-77476309D01*
X78055238Y-77381071D01*
X78102857Y-77333452D01*
X79007619Y-78238214D02*
X78007619Y-78571547D01*
X79007619Y-78904880D01*
X79007619Y-79142976D02*
X79007619Y-79762023D01*
X78626666Y-79428690D01*
X78626666Y-79571547D01*
X78579047Y-79666785D01*
X78531428Y-79714404D01*
X78436190Y-79762023D01*
X78198095Y-79762023D01*
X78102857Y-79714404D01*
X78055238Y-79666785D01*
X78007619Y-79571547D01*
X78007619Y-79285833D01*
X78055238Y-79190595D01*
X78102857Y-79142976D01*
X84087619Y-77333452D02*
X84087619Y-77952500D01*
X83706666Y-77619166D01*
X83706666Y-77762023D01*
X83659047Y-77857261D01*
X83611428Y-77904880D01*
X83516190Y-77952500D01*
X83278095Y-77952500D01*
X83182857Y-77904880D01*
X83135238Y-77857261D01*
X83087619Y-77762023D01*
X83087619Y-77476309D01*
X83135238Y-77381071D01*
X83182857Y-77333452D01*
X84087619Y-78238214D02*
X83087619Y-78571547D01*
X84087619Y-78904880D01*
X84087619Y-79142976D02*
X84087619Y-79762023D01*
X83706666Y-79428690D01*
X83706666Y-79571547D01*
X83659047Y-79666785D01*
X83611428Y-79714404D01*
X83516190Y-79762023D01*
X83278095Y-79762023D01*
X83182857Y-79714404D01*
X83135238Y-79666785D01*
X83087619Y-79571547D01*
X83087619Y-79285833D01*
X83135238Y-79190595D01*
X83182857Y-79142976D01*
X86627619Y-77333452D02*
X86627619Y-77952500D01*
X86246666Y-77619166D01*
X86246666Y-77762023D01*
X86199047Y-77857261D01*
X86151428Y-77904880D01*
X86056190Y-77952500D01*
X85818095Y-77952500D01*
X85722857Y-77904880D01*
X85675238Y-77857261D01*
X85627619Y-77762023D01*
X85627619Y-77476309D01*
X85675238Y-77381071D01*
X85722857Y-77333452D01*
X86627619Y-78238214D02*
X85627619Y-78571547D01*
X86627619Y-78904880D01*
X86627619Y-79142976D02*
X86627619Y-79762023D01*
X86246666Y-79428690D01*
X86246666Y-79571547D01*
X86199047Y-79666785D01*
X86151428Y-79714404D01*
X86056190Y-79762023D01*
X85818095Y-79762023D01*
X85722857Y-79714404D01*
X85675238Y-79666785D01*
X85627619Y-79571547D01*
X85627619Y-79285833D01*
X85675238Y-79190595D01*
X85722857Y-79142976D01*
X89120000Y-77666785D02*
X89167619Y-77571547D01*
X89167619Y-77428690D01*
X89120000Y-77285833D01*
X89024761Y-77190595D01*
X88929523Y-77142976D01*
X88739047Y-77095357D01*
X88596190Y-77095357D01*
X88405714Y-77142976D01*
X88310476Y-77190595D01*
X88215238Y-77285833D01*
X88167619Y-77428690D01*
X88167619Y-77523928D01*
X88215238Y-77666785D01*
X88262857Y-77714404D01*
X88596190Y-77714404D01*
X88596190Y-77523928D01*
X88167619Y-78142976D02*
X89167619Y-78142976D01*
X88167619Y-78714404D01*
X89167619Y-78714404D01*
X88167619Y-79190595D02*
X89167619Y-79190595D01*
X89167619Y-79428690D01*
X89120000Y-79571547D01*
X89024761Y-79666785D01*
X88929523Y-79714404D01*
X88739047Y-79762023D01*
X88596190Y-79762023D01*
X88405714Y-79714404D01*
X88310476Y-79666785D01*
X88215238Y-79571547D01*
X88167619Y-79428690D01*
X88167619Y-79190595D01*
X73880000Y-60369404D02*
X73927619Y-60274166D01*
X73927619Y-60131309D01*
X73880000Y-59988452D01*
X73784761Y-59893214D01*
X73689523Y-59845595D01*
X73499047Y-59797976D01*
X73356190Y-59797976D01*
X73165714Y-59845595D01*
X73070476Y-59893214D01*
X72975238Y-59988452D01*
X72927619Y-60131309D01*
X72927619Y-60226547D01*
X72975238Y-60369404D01*
X73022857Y-60417023D01*
X73356190Y-60417023D01*
X73356190Y-60226547D01*
X72927619Y-60845595D02*
X73927619Y-60845595D01*
X72927619Y-61417023D01*
X73927619Y-61417023D01*
X72927619Y-61893214D02*
X73927619Y-61893214D01*
X73927619Y-62131309D01*
X73880000Y-62274166D01*
X73784761Y-62369404D01*
X73689523Y-62417023D01*
X73499047Y-62464642D01*
X73356190Y-62464642D01*
X73165714Y-62417023D01*
X73070476Y-62369404D01*
X72975238Y-62274166D01*
X72927619Y-62131309D01*
X72927619Y-61893214D01*
X78007619Y-59845595D02*
X79007619Y-59845595D01*
X78293333Y-60178928D01*
X79007619Y-60512261D01*
X78007619Y-60512261D01*
X78293333Y-60940833D02*
X78293333Y-61417023D01*
X78007619Y-60845595D02*
X79007619Y-61178928D01*
X78007619Y-61512261D01*
X78960000Y-62369404D02*
X79007619Y-62274166D01*
X79007619Y-62131309D01*
X78960000Y-61988452D01*
X78864761Y-61893214D01*
X78769523Y-61845595D01*
X78579047Y-61797976D01*
X78436190Y-61797976D01*
X78245714Y-61845595D01*
X78150476Y-61893214D01*
X78055238Y-61988452D01*
X78007619Y-62131309D01*
X78007619Y-62226547D01*
X78055238Y-62369404D01*
X78102857Y-62417023D01*
X78436190Y-62417023D01*
X78436190Y-62226547D01*
X77912380Y-62607500D02*
X77912380Y-63369404D01*
X78007619Y-64178928D02*
X78483809Y-63845595D01*
X78007619Y-63607500D02*
X79007619Y-63607500D01*
X79007619Y-63988452D01*
X78960000Y-64083690D01*
X78912380Y-64131309D01*
X78817142Y-64178928D01*
X78674285Y-64178928D01*
X78579047Y-64131309D01*
X78531428Y-64083690D01*
X78483809Y-63988452D01*
X78483809Y-63607500D01*
X78007619Y-64607500D02*
X79007619Y-64607500D01*
X79007619Y-64845595D01*
X78960000Y-64988452D01*
X78864761Y-65083690D01*
X78769523Y-65131309D01*
X78579047Y-65178928D01*
X78436190Y-65178928D01*
X78245714Y-65131309D01*
X78150476Y-65083690D01*
X78055238Y-64988452D01*
X78007619Y-64845595D01*
X78007619Y-64607500D01*
X78483809Y-65797976D02*
X78007619Y-65797976D01*
X79007619Y-65464642D02*
X78483809Y-65797976D01*
X79007619Y-66131309D01*
X81500000Y-60369404D02*
X81547619Y-60274166D01*
X81547619Y-60131309D01*
X81500000Y-59988452D01*
X81404761Y-59893214D01*
X81309523Y-59845595D01*
X81119047Y-59797976D01*
X80976190Y-59797976D01*
X80785714Y-59845595D01*
X80690476Y-59893214D01*
X80595238Y-59988452D01*
X80547619Y-60131309D01*
X80547619Y-60226547D01*
X80595238Y-60369404D01*
X80642857Y-60417023D01*
X80976190Y-60417023D01*
X80976190Y-60226547D01*
X80547619Y-60845595D02*
X81547619Y-60845595D01*
X80547619Y-61417023D01*
X81547619Y-61417023D01*
X80547619Y-61893214D02*
X81547619Y-61893214D01*
X81547619Y-62131309D01*
X81500000Y-62274166D01*
X81404761Y-62369404D01*
X81309523Y-62417023D01*
X81119047Y-62464642D01*
X80976190Y-62464642D01*
X80785714Y-62417023D01*
X80690476Y-62369404D01*
X80595238Y-62274166D01*
X80547619Y-62131309D01*
X80547619Y-61893214D01*
X83135238Y-59797976D02*
X83087619Y-59940833D01*
X83087619Y-60178928D01*
X83135238Y-60274166D01*
X83182857Y-60321785D01*
X83278095Y-60369404D01*
X83373333Y-60369404D01*
X83468571Y-60321785D01*
X83516190Y-60274166D01*
X83563809Y-60178928D01*
X83611428Y-59988452D01*
X83659047Y-59893214D01*
X83706666Y-59845595D01*
X83801904Y-59797976D01*
X83897142Y-59797976D01*
X83992380Y-59845595D01*
X84040000Y-59893214D01*
X84087619Y-59988452D01*
X84087619Y-60226547D01*
X84040000Y-60369404D01*
X83087619Y-60797976D02*
X84087619Y-60797976D01*
X84087619Y-61036071D01*
X84040000Y-61178928D01*
X83944761Y-61274166D01*
X83849523Y-61321785D01*
X83659047Y-61369404D01*
X83516190Y-61369404D01*
X83325714Y-61321785D01*
X83230476Y-61274166D01*
X83135238Y-61178928D01*
X83087619Y-61036071D01*
X83087619Y-60797976D01*
X83373333Y-61750357D02*
X83373333Y-62226547D01*
X83087619Y-61655119D02*
X84087619Y-61988452D01*
X83087619Y-62321785D01*
X86580000Y-60369404D02*
X86627619Y-60274166D01*
X86627619Y-60131309D01*
X86580000Y-59988452D01*
X86484761Y-59893214D01*
X86389523Y-59845595D01*
X86199047Y-59797976D01*
X86056190Y-59797976D01*
X85865714Y-59845595D01*
X85770476Y-59893214D01*
X85675238Y-59988452D01*
X85627619Y-60131309D01*
X85627619Y-60226547D01*
X85675238Y-60369404D01*
X85722857Y-60417023D01*
X86056190Y-60417023D01*
X86056190Y-60226547D01*
X85627619Y-60845595D02*
X86627619Y-60845595D01*
X85627619Y-61417023D01*
X86627619Y-61417023D01*
X85627619Y-61893214D02*
X86627619Y-61893214D01*
X86627619Y-62131309D01*
X86580000Y-62274166D01*
X86484761Y-62369404D01*
X86389523Y-62417023D01*
X86199047Y-62464642D01*
X86056190Y-62464642D01*
X85865714Y-62417023D01*
X85770476Y-62369404D01*
X85675238Y-62274166D01*
X85627619Y-62131309D01*
X85627619Y-61893214D01*
X88215238Y-59797976D02*
X88167619Y-59940833D01*
X88167619Y-60178928D01*
X88215238Y-60274166D01*
X88262857Y-60321785D01*
X88358095Y-60369404D01*
X88453333Y-60369404D01*
X88548571Y-60321785D01*
X88596190Y-60274166D01*
X88643809Y-60178928D01*
X88691428Y-59988452D01*
X88739047Y-59893214D01*
X88786666Y-59845595D01*
X88881904Y-59797976D01*
X88977142Y-59797976D01*
X89072380Y-59845595D01*
X89120000Y-59893214D01*
X89167619Y-59988452D01*
X89167619Y-60226547D01*
X89120000Y-60369404D01*
X88262857Y-61369404D02*
X88215238Y-61321785D01*
X88167619Y-61178928D01*
X88167619Y-61083690D01*
X88215238Y-60940833D01*
X88310476Y-60845595D01*
X88405714Y-60797976D01*
X88596190Y-60750357D01*
X88739047Y-60750357D01*
X88929523Y-60797976D01*
X89024761Y-60845595D01*
X89120000Y-60940833D01*
X89167619Y-61083690D01*
X89167619Y-61178928D01*
X89120000Y-61321785D01*
X89072380Y-61369404D01*
X88167619Y-62274166D02*
X88167619Y-61797976D01*
X89167619Y-61797976D01*
X124815452Y-66660780D02*
X125434500Y-66660780D01*
X125101166Y-67041733D01*
X125244023Y-67041733D01*
X125339261Y-67089352D01*
X125386880Y-67136971D01*
X125434500Y-67232209D01*
X125434500Y-67470304D01*
X125386880Y-67565542D01*
X125339261Y-67613161D01*
X125244023Y-67660780D01*
X124958309Y-67660780D01*
X124863071Y-67613161D01*
X124815452Y-67565542D01*
X125720214Y-66660780D02*
X126053547Y-67660780D01*
X126386880Y-66660780D01*
X126624976Y-66660780D02*
X127244023Y-66660780D01*
X126910690Y-67041733D01*
X127053547Y-67041733D01*
X127148785Y-67089352D01*
X127196404Y-67136971D01*
X127244023Y-67232209D01*
X127244023Y-67470304D01*
X127196404Y-67565542D01*
X127148785Y-67613161D01*
X127053547Y-67660780D01*
X126767833Y-67660780D01*
X126672595Y-67613161D01*
X126624976Y-67565542D01*
X121053547Y-64120780D02*
X121624976Y-64120780D01*
X121339261Y-65120780D02*
X121339261Y-64120780D01*
X122529738Y-65120780D02*
X122196404Y-64644590D01*
X121958309Y-65120780D02*
X121958309Y-64120780D01*
X122339261Y-64120780D01*
X122434500Y-64168400D01*
X122482119Y-64216019D01*
X122529738Y-64311257D01*
X122529738Y-64454114D01*
X122482119Y-64549352D01*
X122434500Y-64596971D01*
X122339261Y-64644590D01*
X121958309Y-64644590D01*
X122863071Y-64120780D02*
X123529738Y-65120780D01*
X123529738Y-64120780D02*
X122863071Y-65120780D01*
X123672595Y-65216019D02*
X124434500Y-65216019D01*
X125244023Y-65025542D02*
X125196404Y-65073161D01*
X125053547Y-65120780D01*
X124958309Y-65120780D01*
X124815452Y-65073161D01*
X124720214Y-64977923D01*
X124672595Y-64882685D01*
X124624976Y-64692209D01*
X124624976Y-64549352D01*
X124672595Y-64358876D01*
X124720214Y-64263638D01*
X124815452Y-64168400D01*
X124958309Y-64120780D01*
X125053547Y-64120780D01*
X125196404Y-64168400D01*
X125244023Y-64216019D01*
X125624976Y-65073161D02*
X125767833Y-65120780D01*
X126005928Y-65120780D01*
X126101166Y-65073161D01*
X126148785Y-65025542D01*
X126196404Y-64930304D01*
X126196404Y-64835066D01*
X126148785Y-64739828D01*
X126101166Y-64692209D01*
X126005928Y-64644590D01*
X125815452Y-64596971D01*
X125720214Y-64549352D01*
X125672595Y-64501733D01*
X125624976Y-64406495D01*
X125624976Y-64311257D01*
X125672595Y-64216019D01*
X125720214Y-64168400D01*
X125815452Y-64120780D01*
X126053547Y-64120780D01*
X126196404Y-64168400D01*
X126624976Y-65120780D02*
X126624976Y-64120780D01*
X127196404Y-65120780D01*
X127196404Y-64120780D01*
X124053547Y-62580780D02*
X124053547Y-61580780D01*
X124386880Y-62295066D01*
X124720214Y-61580780D01*
X124720214Y-62580780D01*
X125386880Y-61580780D02*
X125577357Y-61580780D01*
X125672595Y-61628400D01*
X125767833Y-61723638D01*
X125815452Y-61914114D01*
X125815452Y-62247447D01*
X125767833Y-62437923D01*
X125672595Y-62533161D01*
X125577357Y-62580780D01*
X125386880Y-62580780D01*
X125291642Y-62533161D01*
X125196404Y-62437923D01*
X125148785Y-62247447D01*
X125148785Y-61914114D01*
X125196404Y-61723638D01*
X125291642Y-61628400D01*
X125386880Y-61580780D01*
X126196404Y-62533161D02*
X126339261Y-62580780D01*
X126577357Y-62580780D01*
X126672595Y-62533161D01*
X126720214Y-62485542D01*
X126767833Y-62390304D01*
X126767833Y-62295066D01*
X126720214Y-62199828D01*
X126672595Y-62152209D01*
X126577357Y-62104590D01*
X126386880Y-62056971D01*
X126291642Y-62009352D01*
X126244023Y-61961733D01*
X126196404Y-61866495D01*
X126196404Y-61771257D01*
X126244023Y-61676019D01*
X126291642Y-61628400D01*
X126386880Y-61580780D01*
X126624976Y-61580780D01*
X126767833Y-61628400D01*
X127196404Y-62580780D02*
X127196404Y-61580780D01*
X121529738Y-59040780D02*
X122101166Y-59040780D01*
X121815452Y-60040780D02*
X121815452Y-59040780D01*
X123005928Y-60040780D02*
X122672595Y-59564590D01*
X122434500Y-60040780D02*
X122434500Y-59040780D01*
X122815452Y-59040780D01*
X122910690Y-59088400D01*
X122958309Y-59136019D01*
X123005928Y-59231257D01*
X123005928Y-59374114D01*
X122958309Y-59469352D01*
X122910690Y-59516971D01*
X122815452Y-59564590D01*
X122434500Y-59564590D01*
X123339261Y-59040780D02*
X124005928Y-60040780D01*
X124005928Y-59040780D02*
X123339261Y-60040780D01*
X124148785Y-60136019D02*
X124910690Y-60136019D01*
X125148785Y-60040780D02*
X125148785Y-59040780D01*
X126196404Y-60040780D02*
X125863071Y-59564590D01*
X125624976Y-60040780D02*
X125624976Y-59040780D01*
X126005928Y-59040780D01*
X126101166Y-59088400D01*
X126148785Y-59136019D01*
X126196404Y-59231257D01*
X126196404Y-59374114D01*
X126148785Y-59469352D01*
X126101166Y-59516971D01*
X126005928Y-59564590D01*
X125624976Y-59564590D01*
X127291642Y-60136019D02*
X127196404Y-60088400D01*
X127101166Y-59993161D01*
X126958309Y-59850304D01*
X126863071Y-59802685D01*
X126767833Y-59802685D01*
X126815452Y-60040780D02*
X126720214Y-59993161D01*
X126624976Y-59897923D01*
X126577357Y-59707447D01*
X126577357Y-59374114D01*
X126624976Y-59183638D01*
X126720214Y-59088400D01*
X126815452Y-59040780D01*
X127005928Y-59040780D01*
X127101166Y-59088400D01*
X127196404Y-59183638D01*
X127244023Y-59374114D01*
X127244023Y-59707447D01*
X127196404Y-59897923D01*
X127101166Y-59993161D01*
X127005928Y-60040780D01*
X126815452Y-60040780D01*
X134931404Y-66708400D02*
X134836166Y-66660780D01*
X134693309Y-66660780D01*
X134550452Y-66708400D01*
X134455214Y-66803638D01*
X134407595Y-66898876D01*
X134359976Y-67089352D01*
X134359976Y-67232209D01*
X134407595Y-67422685D01*
X134455214Y-67517923D01*
X134550452Y-67613161D01*
X134693309Y-67660780D01*
X134788547Y-67660780D01*
X134931404Y-67613161D01*
X134979023Y-67565542D01*
X134979023Y-67232209D01*
X134788547Y-67232209D01*
X135407595Y-67660780D02*
X135407595Y-66660780D01*
X135979023Y-67660780D01*
X135979023Y-66660780D01*
X136455214Y-67660780D02*
X136455214Y-66660780D01*
X136693309Y-66660780D01*
X136836166Y-66708400D01*
X136931404Y-66803638D01*
X136979023Y-66898876D01*
X137026642Y-67089352D01*
X137026642Y-67232209D01*
X136979023Y-67422685D01*
X136931404Y-67517923D01*
X136836166Y-67613161D01*
X136693309Y-67660780D01*
X136455214Y-67660780D01*
X134264738Y-64120780D02*
X134836166Y-64120780D01*
X134550452Y-65120780D02*
X134550452Y-64120780D01*
X135740928Y-65120780D02*
X135407595Y-64644590D01*
X135169500Y-65120780D02*
X135169500Y-64120780D01*
X135550452Y-64120780D01*
X135645690Y-64168400D01*
X135693309Y-64216019D01*
X135740928Y-64311257D01*
X135740928Y-64454114D01*
X135693309Y-64549352D01*
X135645690Y-64596971D01*
X135550452Y-64644590D01*
X135169500Y-64644590D01*
X136074261Y-64120780D02*
X136740928Y-65120780D01*
X136740928Y-64120780D02*
X136074261Y-65120780D01*
X136883785Y-65216019D02*
X137645690Y-65216019D01*
X138455214Y-65025542D02*
X138407595Y-65073161D01*
X138264738Y-65120780D01*
X138169500Y-65120780D01*
X138026642Y-65073161D01*
X137931404Y-64977923D01*
X137883785Y-64882685D01*
X137836166Y-64692209D01*
X137836166Y-64549352D01*
X137883785Y-64358876D01*
X137931404Y-64263638D01*
X138026642Y-64168400D01*
X138169500Y-64120780D01*
X138264738Y-64120780D01*
X138407595Y-64168400D01*
X138455214Y-64216019D01*
X138883785Y-64596971D02*
X139217119Y-64596971D01*
X139359976Y-65120780D02*
X138883785Y-65120780D01*
X138883785Y-64120780D01*
X139359976Y-64120780D01*
X134359976Y-62533161D02*
X134502833Y-62580780D01*
X134740928Y-62580780D01*
X134836166Y-62533161D01*
X134883785Y-62485542D01*
X134931404Y-62390304D01*
X134931404Y-62295066D01*
X134883785Y-62199828D01*
X134836166Y-62152209D01*
X134740928Y-62104590D01*
X134550452Y-62056971D01*
X134455214Y-62009352D01*
X134407595Y-61961733D01*
X134359976Y-61866495D01*
X134359976Y-61771257D01*
X134407595Y-61676019D01*
X134455214Y-61628400D01*
X134550452Y-61580780D01*
X134788547Y-61580780D01*
X134931404Y-61628400D01*
X135931404Y-62485542D02*
X135883785Y-62533161D01*
X135740928Y-62580780D01*
X135645690Y-62580780D01*
X135502833Y-62533161D01*
X135407595Y-62437923D01*
X135359976Y-62342685D01*
X135312357Y-62152209D01*
X135312357Y-62009352D01*
X135359976Y-61818876D01*
X135407595Y-61723638D01*
X135502833Y-61628400D01*
X135645690Y-61580780D01*
X135740928Y-61580780D01*
X135883785Y-61628400D01*
X135931404Y-61676019D01*
X136359976Y-62580780D02*
X136359976Y-61580780D01*
X136931404Y-62580780D02*
X136502833Y-62009352D01*
X136931404Y-61580780D02*
X136359976Y-62152209D01*
X134407595Y-60040780D02*
X134407595Y-59040780D01*
X134740928Y-59755066D01*
X135074261Y-59040780D01*
X135074261Y-60040780D01*
X135550452Y-60040780D02*
X135550452Y-59040780D01*
X135979023Y-59993161D02*
X136121880Y-60040780D01*
X136359976Y-60040780D01*
X136455214Y-59993161D01*
X136502833Y-59945542D01*
X136550452Y-59850304D01*
X136550452Y-59755066D01*
X136502833Y-59659828D01*
X136455214Y-59612209D01*
X136359976Y-59564590D01*
X136169500Y-59516971D01*
X136074261Y-59469352D01*
X136026642Y-59421733D01*
X135979023Y-59326495D01*
X135979023Y-59231257D01*
X136026642Y-59136019D01*
X136074261Y-59088400D01*
X136169500Y-59040780D01*
X136407595Y-59040780D01*
X136550452Y-59088400D01*
X137169500Y-59040780D02*
X137359976Y-59040780D01*
X137455214Y-59088400D01*
X137550452Y-59183638D01*
X137598071Y-59374114D01*
X137598071Y-59707447D01*
X137550452Y-59897923D01*
X137455214Y-59993161D01*
X137359976Y-60040780D01*
X137169500Y-60040780D01*
X137074261Y-59993161D01*
X136979023Y-59897923D01*
X136931404Y-59707447D01*
X136931404Y-59374114D01*
X136979023Y-59183638D01*
X137074261Y-59088400D01*
X137169500Y-59040780D01*
X168616333Y-68841880D02*
X168283000Y-68365690D01*
X168044904Y-68841880D02*
X168044904Y-67841880D01*
X168425857Y-67841880D01*
X168521095Y-67889500D01*
X168568714Y-67937119D01*
X168616333Y-68032357D01*
X168616333Y-68175214D01*
X168568714Y-68270452D01*
X168521095Y-68318071D01*
X168425857Y-68365690D01*
X168044904Y-68365690D01*
X169521095Y-67841880D02*
X169044904Y-67841880D01*
X168997285Y-68318071D01*
X169044904Y-68270452D01*
X169140142Y-68222833D01*
X169378238Y-68222833D01*
X169473476Y-68270452D01*
X169521095Y-68318071D01*
X169568714Y-68413309D01*
X169568714Y-68651404D01*
X169521095Y-68746642D01*
X169473476Y-68794261D01*
X169378238Y-68841880D01*
X169140142Y-68841880D01*
X169044904Y-68794261D01*
X168997285Y-68746642D01*
X168474380Y-73064595D02*
X167474380Y-73064595D01*
X167474380Y-72826500D01*
X167522000Y-72683642D01*
X167617238Y-72588404D01*
X167712476Y-72540785D01*
X167902952Y-72493166D01*
X168045809Y-72493166D01*
X168236285Y-72540785D01*
X168331523Y-72588404D01*
X168426761Y-72683642D01*
X168474380Y-72826500D01*
X168474380Y-73064595D01*
X167569619Y-72112214D02*
X167522000Y-72064595D01*
X167474380Y-71969357D01*
X167474380Y-71731261D01*
X167522000Y-71636023D01*
X167569619Y-71588404D01*
X167664857Y-71540785D01*
X167760095Y-71540785D01*
X167902952Y-71588404D01*
X168474380Y-72159833D01*
X168474380Y-71540785D01*
X77787595Y-72006380D02*
X77787595Y-72815904D01*
X77835214Y-72911142D01*
X77882833Y-72958761D01*
X77978071Y-73006380D01*
X78168547Y-73006380D01*
X78263785Y-72958761D01*
X78311404Y-72911142D01*
X78359023Y-72815904D01*
X78359023Y-72006380D01*
X78978071Y-72434952D02*
X78882833Y-72387333D01*
X78835214Y-72339714D01*
X78787595Y-72244476D01*
X78787595Y-72196857D01*
X78835214Y-72101619D01*
X78882833Y-72054000D01*
X78978071Y-72006380D01*
X79168547Y-72006380D01*
X79263785Y-72054000D01*
X79311404Y-72101619D01*
X79359023Y-72196857D01*
X79359023Y-72244476D01*
X79311404Y-72339714D01*
X79263785Y-72387333D01*
X79168547Y-72434952D01*
X78978071Y-72434952D01*
X78882833Y-72482571D01*
X78835214Y-72530190D01*
X78787595Y-72625428D01*
X78787595Y-72815904D01*
X78835214Y-72911142D01*
X78882833Y-72958761D01*
X78978071Y-73006380D01*
X79168547Y-73006380D01*
X79263785Y-72958761D01*
X79311404Y-72911142D01*
X79359023Y-72815904D01*
X79359023Y-72625428D01*
X79311404Y-72530190D01*
X79263785Y-72482571D01*
X79168547Y-72434952D01*
X73412642Y-70334166D02*
X73460261Y-70381785D01*
X73507880Y-70524642D01*
X73507880Y-70619880D01*
X73460261Y-70762738D01*
X73365023Y-70857976D01*
X73269785Y-70905595D01*
X73079309Y-70953214D01*
X72936452Y-70953214D01*
X72745976Y-70905595D01*
X72650738Y-70857976D01*
X72555500Y-70762738D01*
X72507880Y-70619880D01*
X72507880Y-70524642D01*
X72555500Y-70381785D01*
X72603119Y-70334166D01*
X72507880Y-70000833D02*
X72507880Y-69381785D01*
X72888833Y-69715119D01*
X72888833Y-69572261D01*
X72936452Y-69477023D01*
X72984071Y-69429404D01*
X73079309Y-69381785D01*
X73317404Y-69381785D01*
X73412642Y-69429404D01*
X73460261Y-69477023D01*
X73507880Y-69572261D01*
X73507880Y-69857976D01*
X73460261Y-69953214D01*
X73412642Y-70000833D01*
X118098095Y-30522380D02*
X118098095Y-31331904D01*
X118145714Y-31427142D01*
X118193333Y-31474761D01*
X118288571Y-31522380D01*
X118479047Y-31522380D01*
X118574285Y-31474761D01*
X118621904Y-31427142D01*
X118669523Y-31331904D01*
X118669523Y-30522380D01*
X119574285Y-30855714D02*
X119574285Y-31522380D01*
X119336190Y-30474761D02*
X119098095Y-31189047D01*
X119717142Y-31189047D01*
X109866666Y-72750980D02*
X109866666Y-73465266D01*
X109819047Y-73608123D01*
X109723809Y-73703361D01*
X109580952Y-73750980D01*
X109485714Y-73750980D01*
X110295238Y-72846219D02*
X110342857Y-72798600D01*
X110438095Y-72750980D01*
X110676190Y-72750980D01*
X110771428Y-72798600D01*
X110819047Y-72846219D01*
X110866666Y-72941457D01*
X110866666Y-73036695D01*
X110819047Y-73179552D01*
X110247619Y-73750980D01*
X110866666Y-73750980D01*
X92977619Y-69018095D02*
X92168095Y-69018095D01*
X92072857Y-69065714D01*
X92025238Y-69113333D01*
X91977619Y-69208571D01*
X91977619Y-69399047D01*
X92025238Y-69494285D01*
X92072857Y-69541904D01*
X92168095Y-69589523D01*
X92977619Y-69589523D01*
X92977619Y-70494285D02*
X92977619Y-70303809D01*
X92930000Y-70208571D01*
X92882380Y-70160952D01*
X92739523Y-70065714D01*
X92549047Y-70018095D01*
X92168095Y-70018095D01*
X92072857Y-70065714D01*
X92025238Y-70113333D01*
X91977619Y-70208571D01*
X91977619Y-70399047D01*
X92025238Y-70494285D01*
X92072857Y-70541904D01*
X92168095Y-70589523D01*
X92406190Y-70589523D01*
X92501428Y-70541904D01*
X92549047Y-70494285D01*
X92596666Y-70399047D01*
X92596666Y-70208571D01*
X92549047Y-70113333D01*
X92501428Y-70065714D01*
X92406190Y-70018095D01*
X104586090Y-44492090D02*
X105062280Y-44492090D01*
X104062280Y-44825423D02*
X104586090Y-44492090D01*
X104062280Y-44158757D01*
X105062280Y-43301614D02*
X105062280Y-43873042D01*
X105062280Y-43587328D02*
X104062280Y-43587328D01*
X104205138Y-43682566D01*
X104300376Y-43777804D01*
X104347995Y-43873042D01*
X91946480Y-42364804D02*
X92756004Y-42364804D01*
X92851242Y-42317185D01*
X92898861Y-42269566D01*
X92946480Y-42174328D01*
X92946480Y-41983852D01*
X92898861Y-41888614D01*
X92851242Y-41840995D01*
X92756004Y-41793376D01*
X91946480Y-41793376D01*
X91946480Y-41412423D02*
X91946480Y-40745757D01*
X92946480Y-41174328D01*
X130040095Y-69660780D02*
X130040095Y-70470304D01*
X130087714Y-70565542D01*
X130135333Y-70613161D01*
X130230571Y-70660780D01*
X130421047Y-70660780D01*
X130516285Y-70613161D01*
X130563904Y-70565542D01*
X130611523Y-70470304D01*
X130611523Y-69660780D01*
X131563904Y-69660780D02*
X131087714Y-69660780D01*
X131040095Y-70136971D01*
X131087714Y-70089352D01*
X131182952Y-70041733D01*
X131421047Y-70041733D01*
X131516285Y-70089352D01*
X131563904Y-70136971D01*
X131611523Y-70232209D01*
X131611523Y-70470304D01*
X131563904Y-70565542D01*
X131516285Y-70613161D01*
X131421047Y-70660780D01*
X131182952Y-70660780D01*
X131087714Y-70613161D01*
X131040095Y-70565542D01*
X133056380Y-47294704D02*
X133865904Y-47294704D01*
X133961142Y-47247085D01*
X134008761Y-47199466D01*
X134056380Y-47104228D01*
X134056380Y-46913752D01*
X134008761Y-46818514D01*
X133961142Y-46770895D01*
X133865904Y-46723276D01*
X133056380Y-46723276D01*
X133056380Y-46342323D02*
X133056380Y-45723276D01*
X133437333Y-46056609D01*
X133437333Y-45913752D01*
X133484952Y-45818514D01*
X133532571Y-45770895D01*
X133627809Y-45723276D01*
X133865904Y-45723276D01*
X133961142Y-45770895D01*
X134008761Y-45818514D01*
X134056380Y-45913752D01*
X134056380Y-46199466D01*
X134008761Y-46294704D01*
X133961142Y-46342323D01*
X70939580Y-53661104D02*
X71749104Y-53661104D01*
X71844342Y-53613485D01*
X71891961Y-53565866D01*
X71939580Y-53470628D01*
X71939580Y-53280152D01*
X71891961Y-53184914D01*
X71844342Y-53137295D01*
X71749104Y-53089676D01*
X70939580Y-53089676D01*
X71034819Y-52661104D02*
X70987200Y-52613485D01*
X70939580Y-52518247D01*
X70939580Y-52280152D01*
X70987200Y-52184914D01*
X71034819Y-52137295D01*
X71130057Y-52089676D01*
X71225295Y-52089676D01*
X71368152Y-52137295D01*
X71939580Y-52708723D01*
X71939580Y-52089676D01*
X105791095Y-53097180D02*
X105791095Y-53906704D01*
X105838714Y-54001942D01*
X105886333Y-54049561D01*
X105981571Y-54097180D01*
X106172047Y-54097180D01*
X106267285Y-54049561D01*
X106314904Y-54001942D01*
X106362523Y-53906704D01*
X106362523Y-53097180D01*
X107362523Y-54097180D02*
X106791095Y-54097180D01*
X107076809Y-54097180D02*
X107076809Y-53097180D01*
X106981571Y-53240038D01*
X106886333Y-53335276D01*
X106791095Y-53382895D01*
X95906161Y-79287133D02*
X95953780Y-79144276D01*
X95953780Y-78906180D01*
X95906161Y-78810942D01*
X95858542Y-78763323D01*
X95763304Y-78715704D01*
X95668066Y-78715704D01*
X95572828Y-78763323D01*
X95525209Y-78810942D01*
X95477590Y-78906180D01*
X95429971Y-79096657D01*
X95382352Y-79191895D01*
X95334733Y-79239514D01*
X95239495Y-79287133D01*
X95144257Y-79287133D01*
X95049019Y-79239514D01*
X95001400Y-79191895D01*
X94953780Y-79096657D01*
X94953780Y-78858561D01*
X95001400Y-78715704D01*
X94953780Y-78382371D02*
X95953780Y-78144276D01*
X95239495Y-77953800D01*
X95953780Y-77763323D01*
X94953780Y-77525228D01*
X95953780Y-76620466D02*
X95953780Y-77191895D01*
X95953780Y-76906180D02*
X94953780Y-76906180D01*
X95096638Y-77001419D01*
X95191876Y-77096657D01*
X95239495Y-77191895D01*
X126934933Y-56687980D02*
X126601600Y-56211790D01*
X126363504Y-56687980D02*
X126363504Y-55687980D01*
X126744457Y-55687980D01*
X126839695Y-55735600D01*
X126887314Y-55783219D01*
X126934933Y-55878457D01*
X126934933Y-56021314D01*
X126887314Y-56116552D01*
X126839695Y-56164171D01*
X126744457Y-56211790D01*
X126363504Y-56211790D01*
X127792076Y-55687980D02*
X127601600Y-55687980D01*
X127506361Y-55735600D01*
X127458742Y-55783219D01*
X127363504Y-55926076D01*
X127315885Y-56116552D01*
X127315885Y-56497504D01*
X127363504Y-56592742D01*
X127411123Y-56640361D01*
X127506361Y-56687980D01*
X127696838Y-56687980D01*
X127792076Y-56640361D01*
X127839695Y-56592742D01*
X127887314Y-56497504D01*
X127887314Y-56259409D01*
X127839695Y-56164171D01*
X127792076Y-56116552D01*
X127696838Y-56068933D01*
X127506361Y-56068933D01*
X127411123Y-56116552D01*
X127363504Y-56164171D01*
X127315885Y-56259409D01*
X89800133Y-49067980D02*
X89466800Y-48591790D01*
X89228704Y-49067980D02*
X89228704Y-48067980D01*
X89609657Y-48067980D01*
X89704895Y-48115600D01*
X89752514Y-48163219D01*
X89800133Y-48258457D01*
X89800133Y-48401314D01*
X89752514Y-48496552D01*
X89704895Y-48544171D01*
X89609657Y-48591790D01*
X89228704Y-48591790D01*
X90657276Y-48401314D02*
X90657276Y-49067980D01*
X90419180Y-48020361D02*
X90181085Y-48734647D01*
X90800133Y-48734647D01*
X77855680Y-47448766D02*
X77379490Y-47782100D01*
X77855680Y-48020195D02*
X76855680Y-48020195D01*
X76855680Y-47639242D01*
X76903300Y-47544004D01*
X76950919Y-47496385D01*
X77046157Y-47448766D01*
X77189014Y-47448766D01*
X77284252Y-47496385D01*
X77331871Y-47544004D01*
X77379490Y-47639242D01*
X77379490Y-48020195D01*
X76855680Y-47115433D02*
X76855680Y-46496385D01*
X77236633Y-46829719D01*
X77236633Y-46686861D01*
X77284252Y-46591623D01*
X77331871Y-46544004D01*
X77427109Y-46496385D01*
X77665204Y-46496385D01*
X77760442Y-46544004D01*
X77808061Y-46591623D01*
X77855680Y-46686861D01*
X77855680Y-46972576D01*
X77808061Y-47067814D01*
X77760442Y-47115433D01*
X105993380Y-73140866D02*
X105517190Y-73474200D01*
X105993380Y-73712295D02*
X104993380Y-73712295D01*
X104993380Y-73331342D01*
X105041000Y-73236104D01*
X105088619Y-73188485D01*
X105183857Y-73140866D01*
X105326714Y-73140866D01*
X105421952Y-73188485D01*
X105469571Y-73236104D01*
X105517190Y-73331342D01*
X105517190Y-73712295D01*
X105088619Y-72759914D02*
X105041000Y-72712295D01*
X104993380Y-72617057D01*
X104993380Y-72378961D01*
X105041000Y-72283723D01*
X105088619Y-72236104D01*
X105183857Y-72188485D01*
X105279095Y-72188485D01*
X105421952Y-72236104D01*
X105993380Y-72807533D01*
X105993380Y-72188485D01*
X103672880Y-50903166D02*
X103196690Y-51236500D01*
X103672880Y-51474595D02*
X102672880Y-51474595D01*
X102672880Y-51093642D01*
X102720500Y-50998404D01*
X102768119Y-50950785D01*
X102863357Y-50903166D01*
X103006214Y-50903166D01*
X103101452Y-50950785D01*
X103149071Y-50998404D01*
X103196690Y-51093642D01*
X103196690Y-51474595D01*
X103672880Y-49950785D02*
X103672880Y-50522214D01*
X103672880Y-50236500D02*
X102672880Y-50236500D01*
X102815738Y-50331738D01*
X102910976Y-50426976D01*
X102958595Y-50522214D01*
X106408380Y-34558266D02*
X106408380Y-35034457D01*
X105408380Y-35034457D01*
X106408380Y-33701123D02*
X106408380Y-34272552D01*
X106408380Y-33986838D02*
X105408380Y-33986838D01*
X105551238Y-34082076D01*
X105646476Y-34177314D01*
X105694095Y-34272552D01*
X123023380Y-77717733D02*
X123737666Y-77717733D01*
X123880523Y-77765352D01*
X123975761Y-77860590D01*
X124023380Y-78003447D01*
X124023380Y-78098685D01*
X123356714Y-76812971D02*
X124023380Y-76812971D01*
X122975761Y-77051066D02*
X123690047Y-77289161D01*
X123690047Y-76670114D01*
X74797619Y-44002366D02*
X74083333Y-44002366D01*
X73940476Y-43954747D01*
X73845238Y-43859509D01*
X73797619Y-43716652D01*
X73797619Y-43621414D01*
X73797619Y-45002366D02*
X73797619Y-44430938D01*
X73797619Y-44716652D02*
X74797619Y-44716652D01*
X74654761Y-44621414D01*
X74559523Y-44526176D01*
X74511904Y-44430938D01*
X80262804Y-37328080D02*
X80262804Y-36328080D01*
X80500900Y-36328080D01*
X80643757Y-36375700D01*
X80738995Y-36470938D01*
X80786614Y-36566176D01*
X80834233Y-36756652D01*
X80834233Y-36899509D01*
X80786614Y-37089985D01*
X80738995Y-37185223D01*
X80643757Y-37280461D01*
X80500900Y-37328080D01*
X80262804Y-37328080D01*
X81786614Y-37328080D02*
X81215185Y-37328080D01*
X81500900Y-37328080D02*
X81500900Y-36328080D01*
X81405661Y-36470938D01*
X81310423Y-36566176D01*
X81215185Y-36613795D01*
X125134642Y-73540880D02*
X125182261Y-73588500D01*
X125229880Y-73731357D01*
X125229880Y-73826595D01*
X125182261Y-73969452D01*
X125087023Y-74064690D01*
X124991785Y-74112309D01*
X124801309Y-74159928D01*
X124658452Y-74159928D01*
X124467976Y-74112309D01*
X124372738Y-74064690D01*
X124277500Y-73969452D01*
X124229880Y-73826595D01*
X124229880Y-73731357D01*
X124277500Y-73588500D01*
X124325119Y-73540880D01*
X124563214Y-73255166D02*
X124563214Y-72874214D01*
X124229880Y-73112309D02*
X125087023Y-73112309D01*
X125182261Y-73064690D01*
X125229880Y-72969452D01*
X125229880Y-72874214D01*
X124325119Y-72588500D02*
X124277500Y-72540880D01*
X124229880Y-72445642D01*
X124229880Y-72207547D01*
X124277500Y-72112309D01*
X124325119Y-72064690D01*
X124420357Y-72017071D01*
X124515595Y-72017071D01*
X124658452Y-72064690D01*
X125229880Y-72636119D01*
X125229880Y-72017071D01*
X132945142Y-73401180D02*
X132992761Y-73448800D01*
X133040380Y-73591657D01*
X133040380Y-73686895D01*
X132992761Y-73829752D01*
X132897523Y-73924990D01*
X132802285Y-73972609D01*
X132611809Y-74020228D01*
X132468952Y-74020228D01*
X132278476Y-73972609D01*
X132183238Y-73924990D01*
X132088000Y-73829752D01*
X132040380Y-73686895D01*
X132040380Y-73591657D01*
X132088000Y-73448800D01*
X132135619Y-73401180D01*
X132373714Y-73115466D02*
X132373714Y-72734514D01*
X132040380Y-72972609D02*
X132897523Y-72972609D01*
X132992761Y-72924990D01*
X133040380Y-72829752D01*
X133040380Y-72734514D01*
X133040380Y-71877371D02*
X133040380Y-72448800D01*
X133040380Y-72163085D02*
X132040380Y-72163085D01*
X132183238Y-72258323D01*
X132278476Y-72353561D01*
X132326095Y-72448800D01*
X111202742Y-49726790D02*
X111250361Y-49774409D01*
X111297980Y-49917266D01*
X111297980Y-50012504D01*
X111250361Y-50155361D01*
X111155123Y-50250600D01*
X111059885Y-50298219D01*
X110869409Y-50345838D01*
X110726552Y-50345838D01*
X110536076Y-50298219D01*
X110440838Y-50250600D01*
X110345600Y-50155361D01*
X110297980Y-50012504D01*
X110297980Y-49917266D01*
X110345600Y-49774409D01*
X110393219Y-49726790D01*
X111297980Y-49298219D02*
X110631314Y-49298219D01*
X110821790Y-49298219D02*
X110726552Y-49250600D01*
X110678933Y-49202980D01*
X110631314Y-49107742D01*
X110631314Y-49012504D01*
X110393219Y-48726790D02*
X110345600Y-48679171D01*
X110297980Y-48583933D01*
X110297980Y-48345838D01*
X110345600Y-48250600D01*
X110393219Y-48202980D01*
X110488457Y-48155361D01*
X110583695Y-48155361D01*
X110726552Y-48202980D01*
X111297980Y-48774409D01*
X111297980Y-48155361D01*
X111736142Y-53409790D02*
X111783761Y-53457409D01*
X111831380Y-53600266D01*
X111831380Y-53695504D01*
X111783761Y-53838361D01*
X111688523Y-53933600D01*
X111593285Y-53981219D01*
X111402809Y-54028838D01*
X111259952Y-54028838D01*
X111069476Y-53981219D01*
X110974238Y-53933600D01*
X110879000Y-53838361D01*
X110831380Y-53695504D01*
X110831380Y-53600266D01*
X110879000Y-53457409D01*
X110926619Y-53409790D01*
X111831380Y-52981219D02*
X111164714Y-52981219D01*
X111355190Y-52981219D02*
X111259952Y-52933600D01*
X111212333Y-52885980D01*
X111164714Y-52790742D01*
X111164714Y-52695504D01*
X111831380Y-51838361D02*
X111831380Y-52409790D01*
X111831380Y-52124076D02*
X110831380Y-52124076D01*
X110974238Y-52219314D01*
X111069476Y-52314552D01*
X111117095Y-52409790D01*
X109978942Y-43216438D02*
X110026561Y-43264057D01*
X110074180Y-43406914D01*
X110074180Y-43502152D01*
X110026561Y-43645009D01*
X109931323Y-43740247D01*
X109836085Y-43787866D01*
X109645609Y-43835485D01*
X109502752Y-43835485D01*
X109312276Y-43787866D01*
X109217038Y-43740247D01*
X109121800Y-43645009D01*
X109074180Y-43502152D01*
X109074180Y-43406914D01*
X109121800Y-43264057D01*
X109169419Y-43216438D01*
X110026561Y-42359295D02*
X110074180Y-42454533D01*
X110074180Y-42645009D01*
X110026561Y-42740247D01*
X109978942Y-42787866D01*
X109883704Y-42835485D01*
X109597990Y-42835485D01*
X109502752Y-42787866D01*
X109455133Y-42740247D01*
X109407514Y-42645009D01*
X109407514Y-42454533D01*
X109455133Y-42359295D01*
X109169419Y-41978342D02*
X109121800Y-41930723D01*
X109074180Y-41835485D01*
X109074180Y-41597390D01*
X109121800Y-41502152D01*
X109169419Y-41454533D01*
X109264657Y-41406914D01*
X109359895Y-41406914D01*
X109502752Y-41454533D01*
X110074180Y-42025961D01*
X110074180Y-41406914D01*
X109952342Y-46620038D02*
X109999961Y-46667657D01*
X110047580Y-46810514D01*
X110047580Y-46905752D01*
X109999961Y-47048609D01*
X109904723Y-47143847D01*
X109809485Y-47191466D01*
X109619009Y-47239085D01*
X109476152Y-47239085D01*
X109285676Y-47191466D01*
X109190438Y-47143847D01*
X109095200Y-47048609D01*
X109047580Y-46905752D01*
X109047580Y-46810514D01*
X109095200Y-46667657D01*
X109142819Y-46620038D01*
X109999961Y-45762895D02*
X110047580Y-45858133D01*
X110047580Y-46048609D01*
X109999961Y-46143847D01*
X109952342Y-46191466D01*
X109857104Y-46239085D01*
X109571390Y-46239085D01*
X109476152Y-46191466D01*
X109428533Y-46143847D01*
X109380914Y-46048609D01*
X109380914Y-45858133D01*
X109428533Y-45762895D01*
X110047580Y-44810514D02*
X110047580Y-45381942D01*
X110047580Y-45096228D02*
X109047580Y-45096228D01*
X109190438Y-45191466D01*
X109285676Y-45286704D01*
X109333295Y-45381942D01*
X99120461Y-48883842D02*
X99072842Y-48931461D01*
X98929985Y-48979080D01*
X98834747Y-48979080D01*
X98691890Y-48931461D01*
X98596652Y-48836223D01*
X98549033Y-48740985D01*
X98501414Y-48550509D01*
X98501414Y-48407652D01*
X98549033Y-48217176D01*
X98596652Y-48121938D01*
X98691890Y-48026700D01*
X98834747Y-47979080D01*
X98929985Y-47979080D01*
X99072842Y-48026700D01*
X99120461Y-48074319D01*
X99453795Y-47979080D02*
X100072842Y-47979080D01*
X99739509Y-48360033D01*
X99882366Y-48360033D01*
X99977604Y-48407652D01*
X100025223Y-48455271D01*
X100072842Y-48550509D01*
X100072842Y-48788604D01*
X100025223Y-48883842D01*
X99977604Y-48931461D01*
X99882366Y-48979080D01*
X99596652Y-48979080D01*
X99501414Y-48931461D01*
X99453795Y-48883842D01*
X100501414Y-48979080D02*
X100501414Y-47979080D01*
X100501414Y-48360033D02*
X100596652Y-48312414D01*
X100787128Y-48312414D01*
X100882366Y-48360033D01*
X100929985Y-48407652D01*
X100977604Y-48502890D01*
X100977604Y-48788604D01*
X100929985Y-48883842D01*
X100882366Y-48931461D01*
X100787128Y-48979080D01*
X100596652Y-48979080D01*
X100501414Y-48931461D01*
X101929985Y-48979080D02*
X101358557Y-48979080D01*
X101644271Y-48979080D02*
X101644271Y-47979080D01*
X101549033Y-48121938D01*
X101453795Y-48217176D01*
X101358557Y-48264795D01*
X97740742Y-51831738D02*
X97788361Y-51879357D01*
X97835980Y-52022214D01*
X97835980Y-52117452D01*
X97788361Y-52260309D01*
X97693123Y-52355547D01*
X97597885Y-52403166D01*
X97407409Y-52450785D01*
X97264552Y-52450785D01*
X97074076Y-52403166D01*
X96978838Y-52355547D01*
X96883600Y-52260309D01*
X96835980Y-52117452D01*
X96835980Y-52022214D01*
X96883600Y-51879357D01*
X96931219Y-51831738D01*
X96835980Y-51498404D02*
X96835980Y-50879357D01*
X97216933Y-51212690D01*
X97216933Y-51069833D01*
X97264552Y-50974595D01*
X97312171Y-50926976D01*
X97407409Y-50879357D01*
X97645504Y-50879357D01*
X97740742Y-50926976D01*
X97788361Y-50974595D01*
X97835980Y-51069833D01*
X97835980Y-51355547D01*
X97788361Y-51450785D01*
X97740742Y-51498404D01*
X97835980Y-50022214D02*
X97312171Y-50022214D01*
X97216933Y-50069833D01*
X97169314Y-50165071D01*
X97169314Y-50355547D01*
X97216933Y-50450785D01*
X97788361Y-50022214D02*
X97835980Y-50117452D01*
X97835980Y-50355547D01*
X97788361Y-50450785D01*
X97693123Y-50498404D01*
X97597885Y-50498404D01*
X97502647Y-50450785D01*
X97455028Y-50355547D01*
X97455028Y-50117452D01*
X97407409Y-50022214D01*
X97835980Y-49022214D02*
X97835980Y-49593642D01*
X97835980Y-49307928D02*
X96835980Y-49307928D01*
X96978838Y-49403166D01*
X97074076Y-49498404D01*
X97121695Y-49593642D01*
X100644061Y-32551642D02*
X100596442Y-32599261D01*
X100453585Y-32646880D01*
X100358347Y-32646880D01*
X100215490Y-32599261D01*
X100120252Y-32504023D01*
X100072633Y-32408785D01*
X100025014Y-32218309D01*
X100025014Y-32075452D01*
X100072633Y-31884976D01*
X100120252Y-31789738D01*
X100215490Y-31694500D01*
X100358347Y-31646880D01*
X100453585Y-31646880D01*
X100596442Y-31694500D01*
X100644061Y-31742119D01*
X101025014Y-31742119D02*
X101072633Y-31694500D01*
X101167871Y-31646880D01*
X101405966Y-31646880D01*
X101501204Y-31694500D01*
X101548823Y-31742119D01*
X101596442Y-31837357D01*
X101596442Y-31932595D01*
X101548823Y-32075452D01*
X100977395Y-32646880D01*
X101596442Y-32646880D01*
X102025014Y-32646880D02*
X102025014Y-31646880D01*
X102025014Y-32027833D02*
X102120252Y-31980214D01*
X102310728Y-31980214D01*
X102405966Y-32027833D01*
X102453585Y-32075452D01*
X102501204Y-32170690D01*
X102501204Y-32456404D01*
X102453585Y-32551642D01*
X102405966Y-32599261D01*
X102310728Y-32646880D01*
X102120252Y-32646880D01*
X102025014Y-32599261D01*
X103453585Y-32646880D02*
X102882157Y-32646880D01*
X103167871Y-32646880D02*
X103167871Y-31646880D01*
X103072633Y-31789738D01*
X102977395Y-31884976D01*
X102882157Y-31932595D01*
X99899642Y-36083738D02*
X99947261Y-36131357D01*
X99994880Y-36274214D01*
X99994880Y-36369452D01*
X99947261Y-36512309D01*
X99852023Y-36607547D01*
X99756785Y-36655166D01*
X99566309Y-36702785D01*
X99423452Y-36702785D01*
X99232976Y-36655166D01*
X99137738Y-36607547D01*
X99042500Y-36512309D01*
X98994880Y-36369452D01*
X98994880Y-36274214D01*
X99042500Y-36131357D01*
X99090119Y-36083738D01*
X99090119Y-35702785D02*
X99042500Y-35655166D01*
X98994880Y-35559928D01*
X98994880Y-35321833D01*
X99042500Y-35226595D01*
X99090119Y-35178976D01*
X99185357Y-35131357D01*
X99280595Y-35131357D01*
X99423452Y-35178976D01*
X99994880Y-35750404D01*
X99994880Y-35131357D01*
X99994880Y-34274214D02*
X99471071Y-34274214D01*
X99375833Y-34321833D01*
X99328214Y-34417071D01*
X99328214Y-34607547D01*
X99375833Y-34702785D01*
X99947261Y-34274214D02*
X99994880Y-34369452D01*
X99994880Y-34607547D01*
X99947261Y-34702785D01*
X99852023Y-34750404D01*
X99756785Y-34750404D01*
X99661547Y-34702785D01*
X99613928Y-34607547D01*
X99613928Y-34369452D01*
X99566309Y-34274214D01*
X99994880Y-33274214D02*
X99994880Y-33845642D01*
X99994880Y-33559928D02*
X98994880Y-33559928D01*
X99137738Y-33655166D01*
X99232976Y-33750404D01*
X99280595Y-33845642D01*
X74341033Y-49874442D02*
X74293414Y-49922061D01*
X74150557Y-49969680D01*
X74055319Y-49969680D01*
X73912461Y-49922061D01*
X73817223Y-49826823D01*
X73769604Y-49731585D01*
X73721985Y-49541109D01*
X73721985Y-49398252D01*
X73769604Y-49207776D01*
X73817223Y-49112538D01*
X73912461Y-49017300D01*
X74055319Y-48969680D01*
X74150557Y-48969680D01*
X74293414Y-49017300D01*
X74341033Y-49064919D01*
X74674366Y-48969680D02*
X75341033Y-48969680D01*
X74912461Y-49969680D01*
X97472742Y-72988466D02*
X97520361Y-73036085D01*
X97567980Y-73178942D01*
X97567980Y-73274180D01*
X97520361Y-73417038D01*
X97425123Y-73512276D01*
X97329885Y-73559895D01*
X97139409Y-73607514D01*
X96996552Y-73607514D01*
X96806076Y-73559895D01*
X96710838Y-73512276D01*
X96615600Y-73417038D01*
X96567980Y-73274180D01*
X96567980Y-73178942D01*
X96615600Y-73036085D01*
X96663219Y-72988466D01*
X96567980Y-72131323D02*
X96567980Y-72321800D01*
X96615600Y-72417038D01*
X96663219Y-72464657D01*
X96806076Y-72559895D01*
X96996552Y-72607514D01*
X97377504Y-72607514D01*
X97472742Y-72559895D01*
X97520361Y-72512276D01*
X97567980Y-72417038D01*
X97567980Y-72226561D01*
X97520361Y-72131323D01*
X97472742Y-72083704D01*
X97377504Y-72036085D01*
X97139409Y-72036085D01*
X97044171Y-72083704D01*
X96996552Y-72131323D01*
X96948933Y-72226561D01*
X96948933Y-72417038D01*
X96996552Y-72512276D01*
X97044171Y-72559895D01*
X97139409Y-72607514D01*
X95137242Y-50889166D02*
X95184861Y-50936785D01*
X95232480Y-51079642D01*
X95232480Y-51174880D01*
X95184861Y-51317738D01*
X95089623Y-51412976D01*
X94994385Y-51460595D01*
X94803909Y-51508214D01*
X94661052Y-51508214D01*
X94470576Y-51460595D01*
X94375338Y-51412976D01*
X94280100Y-51317738D01*
X94232480Y-51174880D01*
X94232480Y-51079642D01*
X94280100Y-50936785D01*
X94327719Y-50889166D01*
X94565814Y-50032023D02*
X95232480Y-50032023D01*
X94184861Y-50270119D02*
X94899147Y-50508214D01*
X94899147Y-49889166D01*
X133300742Y-52846266D02*
X133348361Y-52893885D01*
X133395980Y-53036742D01*
X133395980Y-53131980D01*
X133348361Y-53274838D01*
X133253123Y-53370076D01*
X133157885Y-53417695D01*
X132967409Y-53465314D01*
X132824552Y-53465314D01*
X132634076Y-53417695D01*
X132538838Y-53370076D01*
X132443600Y-53274838D01*
X132395980Y-53131980D01*
X132395980Y-53036742D01*
X132443600Y-52893885D01*
X132491219Y-52846266D01*
X132491219Y-52465314D02*
X132443600Y-52417695D01*
X132395980Y-52322457D01*
X132395980Y-52084361D01*
X132443600Y-51989123D01*
X132491219Y-51941504D01*
X132586457Y-51893885D01*
X132681695Y-51893885D01*
X132824552Y-51941504D01*
X133395980Y-52512933D01*
X133395980Y-51893885D01*
X129211342Y-52846266D02*
X129258961Y-52893885D01*
X129306580Y-53036742D01*
X129306580Y-53131980D01*
X129258961Y-53274838D01*
X129163723Y-53370076D01*
X129068485Y-53417695D01*
X128878009Y-53465314D01*
X128735152Y-53465314D01*
X128544676Y-53417695D01*
X128449438Y-53370076D01*
X128354200Y-53274838D01*
X128306580Y-53131980D01*
X128306580Y-53036742D01*
X128354200Y-52893885D01*
X128401819Y-52846266D01*
X129306580Y-51893885D02*
X129306580Y-52465314D01*
X129306580Y-52179600D02*
X128306580Y-52179600D01*
X128449438Y-52274838D01*
X128544676Y-52370076D01*
X128592295Y-52465314D01*
D11*
X168611733Y-70169500D02*
X168954267Y-70169500D01*
X168611733Y-69149500D02*
X168954267Y-69149500D01*
X170632000Y-74186500D02*
X170632000Y-71326500D01*
X168712000Y-74186500D02*
X170632000Y-74186500D01*
X168712000Y-71326500D02*
X168712000Y-74186500D01*
X78549500Y-71714000D02*
X81474500Y-71714000D01*
X78549500Y-71714000D02*
X77049500Y-71714000D01*
X78549500Y-68494000D02*
X80049500Y-68494000D01*
X78549500Y-68494000D02*
X77049500Y-68494000D01*
X74995500Y-70338767D02*
X74995500Y-69996233D01*
X73975500Y-70338767D02*
X73975500Y-69996233D01*
X165520000Y-51441000D02*
X165520000Y-36201000D01*
X170600000Y-51441000D02*
X165520000Y-51441000D01*
X170600000Y-36201000D02*
X170600000Y-51441000D01*
X165520000Y-36201000D02*
X170600000Y-36201000D01*
X114935000Y-80408600D02*
X114935000Y-79958600D01*
X105465000Y-80408600D02*
X114935000Y-80408600D01*
X105465000Y-79958600D02*
X105465000Y-80408600D01*
X114935000Y-75988600D02*
X113985000Y-75988600D01*
X114935000Y-76438600D02*
X114935000Y-75988600D01*
X106415000Y-75988600D02*
X106415000Y-74498600D01*
X105465000Y-75988600D02*
X106415000Y-75988600D01*
X105465000Y-76438600D02*
X105465000Y-75988600D01*
D10*
X68300000Y-57080000D02*
X68300000Y-82480000D01*
X93700000Y-57080000D02*
X68300000Y-57080000D01*
X93700000Y-82480000D02*
X68300000Y-82480000D01*
X93700000Y-57080000D02*
X93700000Y-82480000D01*
D11*
X105437100Y-46710700D02*
X107237100Y-46710700D01*
X107287100Y-44560700D02*
X107287100Y-43460700D01*
X105387100Y-44560700D02*
X105387100Y-43460700D01*
D10*
X102164300Y-45010700D02*
X103589300Y-45010700D01*
X94914300Y-45235700D02*
X95239300Y-45235700D01*
X94914300Y-37985700D02*
X95239300Y-37985700D01*
X102164300Y-37985700D02*
X101839300Y-37985700D01*
X102164300Y-45235700D02*
X101839300Y-45235700D01*
X102164300Y-37985700D02*
X102164300Y-38310700D01*
X94914300Y-37985700D02*
X94914300Y-38310700D01*
X94914300Y-45235700D02*
X94914300Y-44910700D01*
X102164300Y-45235700D02*
X102164300Y-45010700D01*
D11*
X133342000Y-68732400D02*
X133342000Y-68732400D01*
X133342000Y-58064400D02*
X133342000Y-68732400D01*
X133672000Y-69308400D02*
X133672000Y-69308400D01*
X133672000Y-54898400D02*
X133672000Y-71898400D01*
X92672000Y-54898400D02*
X133672000Y-54898400D01*
X92672000Y-71898400D02*
X92672000Y-54898400D01*
X133672000Y-71898400D02*
X92672000Y-71898400D01*
X133088000Y-65938400D02*
X133088000Y-65938400D01*
X130802000Y-65938400D02*
X133088000Y-65938400D01*
X130802000Y-68224400D02*
X130802000Y-65938400D01*
X133342000Y-58064400D02*
X133342000Y-58064400D01*
X128008000Y-58064400D02*
X133342000Y-58064400D01*
X128008000Y-68732400D02*
X128008000Y-58064400D01*
X133342000Y-68732400D02*
X128008000Y-68732400D01*
X125952200Y-50570300D02*
X125952200Y-44560300D01*
X132772200Y-48320300D02*
X132772200Y-44560300D01*
X125952200Y-44560300D02*
X127212200Y-44560300D01*
X132772200Y-44560300D02*
X131512200Y-44560300D01*
X72300000Y-49140000D02*
X72300000Y-56760000D01*
X72300000Y-56760000D02*
X67600000Y-56760000D01*
X67600000Y-56760000D02*
X67600000Y-49140000D01*
X67600000Y-49140000D02*
X72300000Y-49140000D01*
X68300000Y-56760000D02*
X68300000Y-49140000D01*
X107816200Y-49609800D02*
X107816200Y-49839800D01*
X107816200Y-54329800D02*
X107816200Y-54099800D01*
X107816200Y-54329800D02*
X105096200Y-54329800D01*
X105096200Y-54329800D02*
X105096200Y-53019800D01*
X108956200Y-54099800D02*
X107816200Y-54099800D01*
X105096200Y-49609800D02*
X107816200Y-49609800D01*
X105096200Y-50919800D02*
X105096200Y-49609800D01*
X97910000Y-74833800D02*
X100590000Y-74833800D01*
X100590000Y-81073800D02*
X97910000Y-81073800D01*
X96130000Y-80923800D02*
X96130000Y-74983800D01*
X102370000Y-80923800D02*
X102370000Y-74983800D01*
X100664214Y-77953800D02*
G75*
G03*
X100664214Y-77953800I-1414214J0D01*
G01*
X126602200Y-52508333D02*
X126602200Y-52850867D01*
X127622200Y-52508333D02*
X127622200Y-52850867D01*
X90152167Y-46772100D02*
X89809633Y-46772100D01*
X90152167Y-47792100D02*
X89809633Y-47792100D01*
X76541700Y-47453367D02*
X76541700Y-47110833D01*
X75521700Y-47453367D02*
X75521700Y-47110833D01*
X107871267Y-72464200D02*
X107528733Y-72464200D01*
X107871267Y-73484200D02*
X107528733Y-73484200D01*
X101280500Y-50565233D02*
X101280500Y-50907767D01*
X102300500Y-50565233D02*
X102300500Y-50907767D01*
X105116600Y-34652852D02*
X105116600Y-34130348D01*
X103696600Y-34652852D02*
X103696600Y-34130348D01*
X125140000Y-79244400D02*
X123925000Y-79244400D01*
X129100000Y-79184400D02*
X131360000Y-79184400D01*
X129100000Y-78684400D02*
X131360000Y-78684400D01*
X127500000Y-76084400D02*
X127500000Y-75084400D01*
X129100000Y-76084400D02*
X127500000Y-76084400D01*
X129100000Y-75084400D02*
X129100000Y-76084400D01*
X127500000Y-75084400D02*
X129100000Y-75084400D01*
X127500000Y-78684400D02*
X127500000Y-79684400D01*
X129100000Y-78684400D02*
X127500000Y-78684400D01*
X129100000Y-79684400D02*
X129100000Y-78684400D01*
X127500000Y-79684400D02*
X129100000Y-79684400D01*
X125140000Y-74324400D02*
X125140000Y-75244400D01*
X125140000Y-80444400D02*
X125140000Y-79524400D01*
X127000000Y-76884400D02*
X131360000Y-76884400D01*
X127000000Y-77884400D02*
X127000000Y-76884400D01*
X131360000Y-77884400D02*
X127000000Y-77884400D01*
X125140000Y-75244400D02*
X125140000Y-75524400D01*
X123540000Y-75244400D02*
X125140000Y-75244400D01*
X123540000Y-74324400D02*
X123540000Y-75244400D01*
X131360000Y-74324400D02*
X123540000Y-74324400D01*
X131360000Y-80444400D02*
X131360000Y-74324400D01*
X123540000Y-80444400D02*
X131360000Y-80444400D01*
X123540000Y-79524400D02*
X123540000Y-80444400D01*
X125140000Y-79524400D02*
X123540000Y-79524400D01*
X125140000Y-79244400D02*
X125140000Y-79524400D01*
X68350000Y-40525700D02*
X68610000Y-40525700D01*
X70890000Y-40525700D02*
X72660000Y-40525700D01*
X72660000Y-40525700D02*
X72660000Y-40905700D01*
X72660000Y-48145700D02*
X70890000Y-48145700D01*
X68610000Y-48145700D02*
X68350000Y-48145700D01*
X72660000Y-48145700D02*
X72660000Y-47765700D01*
X82180900Y-37705700D02*
X79230900Y-37705700D01*
X79780900Y-40805700D02*
X82180900Y-40805700D01*
X126765233Y-73458800D02*
X127107767Y-73458800D01*
X126765233Y-72438800D02*
X127107767Y-72438800D01*
X130524067Y-72438800D02*
X130181533Y-72438800D01*
X130524067Y-73458800D02*
X130181533Y-73458800D01*
X108832467Y-48054800D02*
X108489933Y-48054800D01*
X108832467Y-49074800D02*
X108489933Y-49074800D01*
X109599000Y-52762333D02*
X109599000Y-53104867D01*
X110619000Y-52762333D02*
X110619000Y-53104867D01*
X107846400Y-42449933D02*
X107846400Y-42792467D01*
X108866400Y-42449933D02*
X108866400Y-42792467D01*
X107846400Y-45853533D02*
X107846400Y-46196067D01*
X108866400Y-45853533D02*
X108866400Y-46196067D01*
X99705700Y-50565233D02*
X99705700Y-50907767D01*
X100725700Y-50565233D02*
X100725700Y-50907767D01*
X98130900Y-50565233D02*
X98130900Y-50907767D01*
X99150900Y-50565233D02*
X99150900Y-50907767D01*
X101910567Y-32954500D02*
X101568033Y-32954500D01*
X101910567Y-33974500D02*
X101568033Y-33974500D01*
X101910567Y-34478500D02*
X101568033Y-34478500D01*
X101910567Y-35498500D02*
X101568033Y-35498500D01*
X75017700Y-47453367D02*
X75017700Y-47110833D01*
X73997700Y-47453367D02*
X73997700Y-47110833D01*
X99128733Y-73331800D02*
X99471267Y-73331800D01*
X99128733Y-72311800D02*
X99471267Y-72311800D01*
X95514700Y-50551233D02*
X95514700Y-50893767D01*
X96534700Y-50551233D02*
X96534700Y-50893767D01*
X129602200Y-52508333D02*
X129602200Y-52850867D01*
X130622200Y-52508333D02*
X130622200Y-52850867D01*
X131102200Y-52508333D02*
X131102200Y-52850867D01*
X132122200Y-52508333D02*
X132122200Y-52850867D01*
M02*
