G04 #@! TF.GenerationSoftware,KiCad,Pcbnew,5.99.0-unknown-57e35c9~88~ubuntu19.10.1*
G04 #@! TF.CreationDate,2022-01-19T00:43:40-03:00*
G04 #@! TF.ProjectId,Femtosat,46656d74-6f73-4617-942e-6b696361645f,rev?*
G04 #@! TF.SameCoordinates,Original*
G04 #@! TF.FileFunction,Legend,Bot*
G04 #@! TF.FilePolarity,Positive*
%FSLAX46Y46*%
G04 Gerber Fmt 4.6, Leading zero omitted, Abs format (unit mm)*
G04 Created by KiCad (PCBNEW 5.99.0-unknown-57e35c9~88~ubuntu19.10.1) date 2022-01-19 00:43:40*
%MOMM*%
%LPD*%
G01*
G04 APERTURE LIST*
%ADD10C,0.400000*%
%ADD11C,1.000000*%
G04 APERTURE END LIST*
D10*
X105169357Y-36170428D02*
X105255071Y-36256142D01*
X105340785Y-36170428D01*
X105255071Y-36084714D01*
X105169357Y-36170428D01*
X105340785Y-36170428D01*
X105169357Y-37027571D02*
X105255071Y-37113285D01*
X105340785Y-37027571D01*
X105255071Y-36941857D01*
X105169357Y-37027571D01*
X105340785Y-37027571D01*
X105169357Y-37884714D02*
X105255071Y-37970428D01*
X105340785Y-37884714D01*
X105255071Y-37799000D01*
X105169357Y-37884714D01*
X105340785Y-37884714D01*
X104140785Y-38741857D02*
X105940785Y-38741857D01*
X104226500Y-38741857D02*
X104140785Y-38913285D01*
X104140785Y-39256142D01*
X104226500Y-39427571D01*
X104312214Y-39513285D01*
X104483642Y-39599000D01*
X104997928Y-39599000D01*
X105169357Y-39513285D01*
X105255071Y-39427571D01*
X105340785Y-39256142D01*
X105340785Y-38913285D01*
X105255071Y-38741857D01*
X104140785Y-41141857D02*
X105340785Y-41141857D01*
X104140785Y-40370428D02*
X105083642Y-40370428D01*
X105255071Y-40456142D01*
X105340785Y-40627571D01*
X105340785Y-40884714D01*
X105255071Y-41056142D01*
X105169357Y-41141857D01*
X105255071Y-42684714D02*
X105340785Y-42513285D01*
X105340785Y-42170428D01*
X105255071Y-41999000D01*
X105083642Y-41913285D01*
X104397928Y-41913285D01*
X104226500Y-41999000D01*
X104140785Y-42170428D01*
X104140785Y-42513285D01*
X104226500Y-42684714D01*
X104397928Y-42770428D01*
X104569357Y-42770428D01*
X104740785Y-41913285D01*
X105255071Y-43456142D02*
X105340785Y-43627571D01*
X105340785Y-43970428D01*
X105255071Y-44141857D01*
X105083642Y-44227571D01*
X104997928Y-44227571D01*
X104826500Y-44141857D01*
X104740785Y-43970428D01*
X104740785Y-43713285D01*
X104655071Y-43541857D01*
X104483642Y-43456142D01*
X104397928Y-43456142D01*
X104226500Y-43541857D01*
X104140785Y-43713285D01*
X104140785Y-43970428D01*
X104226500Y-44141857D01*
X104140785Y-44741857D02*
X104140785Y-45427571D01*
X103540785Y-44999000D02*
X105083642Y-44999000D01*
X105255071Y-45084714D01*
X105340785Y-45256142D01*
X105340785Y-45427571D01*
X105340785Y-46284714D02*
X105255071Y-46113285D01*
X105169357Y-46027571D01*
X104997928Y-45941857D01*
X104483642Y-45941857D01*
X104312214Y-46027571D01*
X104226500Y-46113285D01*
X104140785Y-46284714D01*
X104140785Y-46541857D01*
X104226500Y-46713285D01*
X104312214Y-46799000D01*
X104483642Y-46884714D01*
X104997928Y-46884714D01*
X105169357Y-46799000D01*
X105255071Y-46713285D01*
X105340785Y-46541857D01*
X105340785Y-46284714D01*
X105255071Y-47570428D02*
X105340785Y-47741857D01*
X105340785Y-48084714D01*
X105255071Y-48256142D01*
X105083642Y-48341857D01*
X104997928Y-48341857D01*
X104826500Y-48256142D01*
X104740785Y-48084714D01*
X104740785Y-47827571D01*
X104655071Y-47656142D01*
X104483642Y-47570428D01*
X104397928Y-47570428D01*
X104226500Y-47656142D01*
X104140785Y-47827571D01*
X104140785Y-48084714D01*
X104226500Y-48256142D01*
X105340785Y-50741857D02*
X105255071Y-50570428D01*
X105083642Y-50484714D01*
X103540785Y-50484714D01*
X105340785Y-51684714D02*
X105255071Y-51513285D01*
X105169357Y-51427571D01*
X104997928Y-51341857D01*
X104483642Y-51341857D01*
X104312214Y-51427571D01*
X104226500Y-51513285D01*
X104140785Y-51684714D01*
X104140785Y-51941857D01*
X104226500Y-52113285D01*
X104312214Y-52199000D01*
X104483642Y-52284714D01*
X104997928Y-52284714D01*
X105169357Y-52199000D01*
X105255071Y-52113285D01*
X105340785Y-51941857D01*
X105340785Y-51684714D01*
X105255071Y-52970428D02*
X105340785Y-53141857D01*
X105340785Y-53484714D01*
X105255071Y-53656142D01*
X105083642Y-53741857D01*
X104997928Y-53741857D01*
X104826500Y-53656142D01*
X104740785Y-53484714D01*
X104740785Y-53227571D01*
X104655071Y-53056142D01*
X104483642Y-52970428D01*
X104397928Y-52970428D01*
X104226500Y-53056142D01*
X104140785Y-53227571D01*
X104140785Y-53484714D01*
X104226500Y-53656142D01*
X105340785Y-56141857D02*
X105255071Y-55970428D01*
X105169357Y-55884714D01*
X104997928Y-55799000D01*
X104483642Y-55799000D01*
X104312214Y-55884714D01*
X104226500Y-55970428D01*
X104140785Y-56141857D01*
X104140785Y-56399000D01*
X104226500Y-56570428D01*
X104312214Y-56656142D01*
X104483642Y-56741857D01*
X104997928Y-56741857D01*
X105169357Y-56656142D01*
X105255071Y-56570428D01*
X105340785Y-56399000D01*
X105340785Y-56141857D01*
X104140785Y-57513285D02*
X105683642Y-57513285D01*
X105855071Y-57427571D01*
X105940785Y-57256142D01*
X105940785Y-57170428D01*
X103540785Y-57513285D02*
X103626500Y-57427571D01*
X103712214Y-57513285D01*
X103626500Y-57599000D01*
X103540785Y-57513285D01*
X103712214Y-57513285D01*
X105340785Y-58627571D02*
X105255071Y-58456142D01*
X105169357Y-58370428D01*
X104997928Y-58284714D01*
X104483642Y-58284714D01*
X104312214Y-58370428D01*
X104226500Y-58456142D01*
X104140785Y-58627571D01*
X104140785Y-58884714D01*
X104226500Y-59056142D01*
X104312214Y-59141857D01*
X104483642Y-59227571D01*
X104997928Y-59227571D01*
X105169357Y-59141857D01*
X105255071Y-59056142D01*
X105340785Y-58884714D01*
X105340785Y-58627571D01*
X105255071Y-59913285D02*
X105340785Y-60084714D01*
X105340785Y-60427571D01*
X105255071Y-60599000D01*
X105083642Y-60684714D01*
X104997928Y-60684714D01*
X104826500Y-60599000D01*
X104740785Y-60427571D01*
X104740785Y-60170428D01*
X104655071Y-59999000D01*
X104483642Y-59913285D01*
X104397928Y-59913285D01*
X104226500Y-59999000D01*
X104140785Y-60170428D01*
X104140785Y-60427571D01*
X104226500Y-60599000D01*
X105255071Y-63513285D02*
X105340785Y-63341857D01*
X105340785Y-62999000D01*
X105255071Y-62827571D01*
X105083642Y-62741857D01*
X104397928Y-62741857D01*
X104226500Y-62827571D01*
X104140785Y-62999000D01*
X104140785Y-63341857D01*
X104226500Y-63513285D01*
X104397928Y-63599000D01*
X104569357Y-63599000D01*
X104740785Y-62741857D01*
X104140785Y-64370428D02*
X105340785Y-64370428D01*
X104312214Y-64370428D02*
X104226500Y-64456142D01*
X104140785Y-64627571D01*
X104140785Y-64884714D01*
X104226500Y-65056142D01*
X104397928Y-65141857D01*
X105340785Y-65141857D01*
X103540785Y-67884714D02*
X104826500Y-67884714D01*
X105083642Y-67799000D01*
X105255071Y-67627571D01*
X105340785Y-67370428D01*
X105340785Y-67199000D01*
X105255071Y-69427571D02*
X105340785Y-69256142D01*
X105340785Y-68913285D01*
X105255071Y-68741857D01*
X105083642Y-68656142D01*
X104397928Y-68656142D01*
X104226500Y-68741857D01*
X104140785Y-68913285D01*
X104140785Y-69256142D01*
X104226500Y-69427571D01*
X104397928Y-69513285D01*
X104569357Y-69513285D01*
X104740785Y-68656142D01*
X105255071Y-70199000D02*
X105340785Y-70370428D01*
X105340785Y-70713285D01*
X105255071Y-70884714D01*
X105083642Y-70970428D01*
X104997928Y-70970428D01*
X104826500Y-70884714D01*
X104740785Y-70713285D01*
X104740785Y-70456142D01*
X104655071Y-70284714D01*
X104483642Y-70199000D01*
X104397928Y-70199000D01*
X104226500Y-70284714D01*
X104140785Y-70456142D01*
X104140785Y-70713285D01*
X104226500Y-70884714D01*
X104140785Y-72513285D02*
X105340785Y-72513285D01*
X104140785Y-71741857D02*
X105083642Y-71741857D01*
X105255071Y-71827571D01*
X105340785Y-71999000D01*
X105340785Y-72256142D01*
X105255071Y-72427571D01*
X105169357Y-72513285D01*
X103455071Y-72341857D02*
X103712214Y-72084714D01*
X105255071Y-73284714D02*
X105340785Y-73456142D01*
X105340785Y-73799000D01*
X105255071Y-73970428D01*
X105083642Y-74056142D01*
X104997928Y-74056142D01*
X104826500Y-73970428D01*
X104740785Y-73799000D01*
X104740785Y-73541857D01*
X104655071Y-73370428D01*
X104483642Y-73284714D01*
X104397928Y-73284714D01*
X104226500Y-73370428D01*
X104140785Y-73541857D01*
X104140785Y-73799000D01*
X104226500Y-73970428D01*
X105255071Y-74913285D02*
X105340785Y-74913285D01*
X105512214Y-74827571D01*
X105597928Y-74741857D01*
X108153071Y-34327571D02*
X108238785Y-34156142D01*
X108238785Y-33813285D01*
X108153071Y-33641857D01*
X107981642Y-33556142D01*
X107295928Y-33556142D01*
X107124500Y-33641857D01*
X107038785Y-33813285D01*
X107038785Y-34156142D01*
X107124500Y-34327571D01*
X107295928Y-34413285D01*
X107467357Y-34413285D01*
X107638785Y-33556142D01*
X108238785Y-35441857D02*
X108153071Y-35270428D01*
X107981642Y-35184714D01*
X106438785Y-35184714D01*
X108238785Y-38270428D02*
X107295928Y-38270428D01*
X107124500Y-38184714D01*
X107038785Y-38013285D01*
X107038785Y-37670428D01*
X107124500Y-37499000D01*
X108153071Y-38270428D02*
X108238785Y-38099000D01*
X108238785Y-37670428D01*
X108153071Y-37499000D01*
X107981642Y-37413285D01*
X107810214Y-37413285D01*
X107638785Y-37499000D01*
X107553071Y-37670428D01*
X107553071Y-38099000D01*
X107467357Y-38270428D01*
X107038785Y-39899000D02*
X108238785Y-39899000D01*
X107038785Y-39127571D02*
X107981642Y-39127571D01*
X108153071Y-39213285D01*
X108238785Y-39384714D01*
X108238785Y-39641857D01*
X108153071Y-39813285D01*
X108067357Y-39899000D01*
X107038785Y-40499000D02*
X107038785Y-41184714D01*
X106438785Y-40756142D02*
X107981642Y-40756142D01*
X108153071Y-40841857D01*
X108238785Y-41013285D01*
X108238785Y-41184714D01*
X108238785Y-42041857D02*
X108153071Y-41870428D01*
X108067357Y-41784714D01*
X107895928Y-41699000D01*
X107381642Y-41699000D01*
X107210214Y-41784714D01*
X107124500Y-41870428D01*
X107038785Y-42041857D01*
X107038785Y-42299000D01*
X107124500Y-42470428D01*
X107210214Y-42556142D01*
X107381642Y-42641857D01*
X107895928Y-42641857D01*
X108067357Y-42556142D01*
X108153071Y-42470428D01*
X108238785Y-42299000D01*
X108238785Y-42041857D01*
X108238785Y-43413285D02*
X107038785Y-43413285D01*
X107381642Y-43413285D02*
X107210214Y-43499000D01*
X107124500Y-43584714D01*
X107038785Y-43756142D01*
X107038785Y-43927571D01*
X107038785Y-45727571D02*
X108238785Y-46156142D01*
X107038785Y-46584714D02*
X108238785Y-46156142D01*
X108667357Y-45984714D01*
X108753071Y-45899000D01*
X108838785Y-45727571D01*
X108153071Y-49413285D02*
X108238785Y-49241857D01*
X108238785Y-48899000D01*
X108153071Y-48727571D01*
X108067357Y-48641857D01*
X107895928Y-48556142D01*
X107381642Y-48556142D01*
X107210214Y-48641857D01*
X107124500Y-48727571D01*
X107038785Y-48899000D01*
X107038785Y-49241857D01*
X107124500Y-49413285D01*
X108238785Y-50441857D02*
X108153071Y-50270428D01*
X108067357Y-50184714D01*
X107895928Y-50098999D01*
X107381642Y-50098999D01*
X107210214Y-50184714D01*
X107124500Y-50270428D01*
X107038785Y-50441857D01*
X107038785Y-50698999D01*
X107124500Y-50870428D01*
X107210214Y-50956142D01*
X107381642Y-51041857D01*
X107895928Y-51041857D01*
X108067357Y-50956142D01*
X108153071Y-50870428D01*
X108238785Y-50698999D01*
X108238785Y-50441857D01*
X107038785Y-51813285D02*
X108238785Y-51813285D01*
X107210214Y-51813285D02*
X107124500Y-51898999D01*
X107038785Y-52070428D01*
X107038785Y-52327571D01*
X107124500Y-52498999D01*
X107295928Y-52584714D01*
X108238785Y-52584714D01*
X108153071Y-53356142D02*
X108238785Y-53527571D01*
X108238785Y-53870428D01*
X108153071Y-54041857D01*
X107981642Y-54127571D01*
X107895928Y-54127571D01*
X107724500Y-54041857D01*
X107638785Y-53870428D01*
X107638785Y-53613285D01*
X107553071Y-53441857D01*
X107381642Y-53356142D01*
X107295928Y-53356142D01*
X107124500Y-53441857D01*
X107038785Y-53613285D01*
X107038785Y-53870428D01*
X107124500Y-54041857D01*
X107038785Y-55670428D02*
X108238785Y-55670428D01*
X107038785Y-54899000D02*
X107981642Y-54899000D01*
X108153071Y-54984714D01*
X108238785Y-55156142D01*
X108238785Y-55413285D01*
X108153071Y-55584714D01*
X108067357Y-55670428D01*
X108238785Y-56527571D02*
X107038785Y-56527571D01*
X107210214Y-56527571D02*
X107124500Y-56613285D01*
X107038785Y-56784714D01*
X107038785Y-57041857D01*
X107124500Y-57213285D01*
X107295928Y-57299000D01*
X108238785Y-57299000D01*
X107295928Y-57299000D02*
X107124500Y-57384714D01*
X107038785Y-57556142D01*
X107038785Y-57813285D01*
X107124500Y-57984714D01*
X107295928Y-58070428D01*
X108238785Y-58070428D01*
X108238785Y-59699000D02*
X107295928Y-59699000D01*
X107124500Y-59613285D01*
X107038785Y-59441857D01*
X107038785Y-59099000D01*
X107124500Y-58927571D01*
X108153071Y-59699000D02*
X108238785Y-59527571D01*
X108238785Y-59099000D01*
X108153071Y-58927571D01*
X107981642Y-58841857D01*
X107810214Y-58841857D01*
X107638785Y-58927571D01*
X107553071Y-59099000D01*
X107553071Y-59527571D01*
X107467357Y-59699000D01*
X108238785Y-61327571D02*
X106438785Y-61327571D01*
X108153071Y-61327571D02*
X108238785Y-61156142D01*
X108238785Y-60813285D01*
X108153071Y-60641857D01*
X108067357Y-60556142D01*
X107895928Y-60470428D01*
X107381642Y-60470428D01*
X107210214Y-60556142D01*
X107124500Y-60641857D01*
X107038785Y-60813285D01*
X107038785Y-61156142D01*
X107124500Y-61327571D01*
X108238785Y-62441857D02*
X108153071Y-62270428D01*
X108067357Y-62184714D01*
X107895928Y-62099000D01*
X107381642Y-62099000D01*
X107210214Y-62184714D01*
X107124500Y-62270428D01*
X107038785Y-62441857D01*
X107038785Y-62699000D01*
X107124500Y-62870428D01*
X107210214Y-62956142D01*
X107381642Y-63041857D01*
X107895928Y-63041857D01*
X108067357Y-62956142D01*
X108153071Y-62870428D01*
X108238785Y-62699000D01*
X108238785Y-62441857D01*
X108238785Y-63813285D02*
X107038785Y-63813285D01*
X107381642Y-63813285D02*
X107210214Y-63899000D01*
X107124500Y-63984714D01*
X107038785Y-64156142D01*
X107038785Y-64327571D01*
X108238785Y-67070428D02*
X106438785Y-67070428D01*
X108153071Y-67070428D02*
X108238785Y-66899000D01*
X108238785Y-66556142D01*
X108153071Y-66384714D01*
X108067357Y-66299000D01*
X107895928Y-66213285D01*
X107381642Y-66213285D01*
X107210214Y-66299000D01*
X107124500Y-66384714D01*
X107038785Y-66556142D01*
X107038785Y-66899000D01*
X107124500Y-67070428D01*
X108153071Y-68613285D02*
X108238785Y-68441857D01*
X108238785Y-68099000D01*
X108153071Y-67927571D01*
X107981642Y-67841857D01*
X107295928Y-67841857D01*
X107124500Y-67927571D01*
X107038785Y-68099000D01*
X107038785Y-68441857D01*
X107124500Y-68613285D01*
X107295928Y-68699000D01*
X107467357Y-68699000D01*
X107638785Y-67841857D01*
X108238785Y-71099000D02*
X108153071Y-70927571D01*
X107981642Y-70841857D01*
X106438785Y-70841857D01*
X108238785Y-72556142D02*
X107295928Y-72556142D01*
X107124500Y-72470428D01*
X107038785Y-72299000D01*
X107038785Y-71956142D01*
X107124500Y-71784714D01*
X108153071Y-72556142D02*
X108238785Y-72384714D01*
X108238785Y-71956142D01*
X108153071Y-71784714D01*
X107981642Y-71699000D01*
X107810214Y-71699000D01*
X107638785Y-71784714D01*
X107553071Y-71956142D01*
X107553071Y-72384714D01*
X107467357Y-72556142D01*
X107038785Y-74527571D02*
X107038785Y-75213285D01*
X108238785Y-74784714D02*
X106695928Y-74784714D01*
X106524500Y-74870428D01*
X106438785Y-75041857D01*
X106438785Y-75213285D01*
X108153071Y-76499000D02*
X108238785Y-76327571D01*
X108238785Y-75984714D01*
X108153071Y-75813285D01*
X107981642Y-75727571D01*
X107295928Y-75727571D01*
X107124500Y-75813285D01*
X107038785Y-75984714D01*
X107038785Y-76327571D01*
X107124500Y-76499000D01*
X107295928Y-76584714D01*
X107467357Y-76584714D01*
X107638785Y-75727571D01*
X108153071Y-77441857D02*
X108238785Y-77441857D01*
X108410214Y-77356142D01*
X108495928Y-77270428D01*
X111051071Y-38013285D02*
X111136785Y-37841857D01*
X111136785Y-37499000D01*
X111051071Y-37327571D01*
X110879642Y-37241857D01*
X110193928Y-37241857D01*
X110022500Y-37327571D01*
X109936785Y-37499000D01*
X109936785Y-37841857D01*
X110022500Y-38013285D01*
X110193928Y-38099000D01*
X110365357Y-38099000D01*
X110536785Y-37241857D01*
X111136785Y-39127571D02*
X111051071Y-38956142D01*
X110879642Y-38870428D01*
X109336785Y-38870428D01*
X111051071Y-41956142D02*
X111136785Y-41784714D01*
X111136785Y-41441857D01*
X111051071Y-41270428D01*
X110965357Y-41184714D01*
X110793928Y-41098999D01*
X110279642Y-41098999D01*
X110108214Y-41184714D01*
X110022500Y-41270428D01*
X109936785Y-41441857D01*
X109936785Y-41784714D01*
X110022500Y-41956142D01*
X109936785Y-43498999D02*
X111136785Y-43498999D01*
X109936785Y-42727571D02*
X110879642Y-42727571D01*
X111051071Y-42813285D01*
X111136785Y-42984714D01*
X111136785Y-43241857D01*
X111051071Y-43413285D01*
X110965357Y-43498999D01*
X111136785Y-45127571D02*
X110193928Y-45127571D01*
X110022500Y-45041857D01*
X109936785Y-44870428D01*
X109936785Y-44527571D01*
X110022500Y-44356142D01*
X111051071Y-45127571D02*
X111136785Y-44956142D01*
X111136785Y-44527571D01*
X111051071Y-44356142D01*
X110879642Y-44270428D01*
X110708214Y-44270428D01*
X110536785Y-44356142D01*
X110451071Y-44527571D01*
X110451071Y-44956142D01*
X110365357Y-45127571D01*
X111136785Y-46241857D02*
X111051071Y-46070428D01*
X110879642Y-45984714D01*
X109336785Y-45984714D01*
X109936785Y-48298999D02*
X111736785Y-48298999D01*
X110022500Y-48298999D02*
X109936785Y-48470428D01*
X109936785Y-48813285D01*
X110022500Y-48984714D01*
X110108214Y-49070428D01*
X110279642Y-49156142D01*
X110793928Y-49156142D01*
X110965357Y-49070428D01*
X111051071Y-48984714D01*
X111136785Y-48813285D01*
X111136785Y-48470428D01*
X111051071Y-48298999D01*
X111136785Y-50184714D02*
X111051071Y-50013285D01*
X110965357Y-49927571D01*
X110793928Y-49841857D01*
X110279642Y-49841857D01*
X110108214Y-49927571D01*
X110022500Y-50013285D01*
X109936785Y-50184714D01*
X109936785Y-50441857D01*
X110022500Y-50613285D01*
X110108214Y-50698999D01*
X110279642Y-50784714D01*
X110793928Y-50784714D01*
X110965357Y-50698999D01*
X111051071Y-50613285D01*
X111136785Y-50441857D01*
X111136785Y-50184714D01*
X111136785Y-51556142D02*
X109936785Y-51556142D01*
X110279642Y-51556142D02*
X110108214Y-51641857D01*
X110022500Y-51727571D01*
X109936785Y-51898999D01*
X109936785Y-52070428D01*
X111051071Y-54727571D02*
X111136785Y-54556142D01*
X111136785Y-54213285D01*
X111051071Y-54041857D01*
X110879642Y-53956142D01*
X110193928Y-53956142D01*
X110022500Y-54041857D01*
X109936785Y-54213285D01*
X109936785Y-54556142D01*
X110022500Y-54727571D01*
X110193928Y-54813285D01*
X110365357Y-54813285D01*
X110536785Y-53956142D01*
X111136785Y-55841857D02*
X111051071Y-55670428D01*
X110879642Y-55584714D01*
X109336785Y-55584714D01*
X109936785Y-58670428D02*
X111393928Y-58670428D01*
X111565357Y-58584714D01*
X111651071Y-58498999D01*
X111736785Y-58327571D01*
X111736785Y-58070428D01*
X111651071Y-57898999D01*
X111051071Y-58670428D02*
X111136785Y-58498999D01*
X111136785Y-58156142D01*
X111051071Y-57984714D01*
X110965357Y-57898999D01*
X110793928Y-57813285D01*
X110279642Y-57813285D01*
X110108214Y-57898999D01*
X110022500Y-57984714D01*
X109936785Y-58156142D01*
X109936785Y-58498999D01*
X110022500Y-58670428D01*
X111136785Y-59784714D02*
X111051071Y-59613285D01*
X110965357Y-59527571D01*
X110793928Y-59441857D01*
X110279642Y-59441857D01*
X110108214Y-59527571D01*
X110022500Y-59613285D01*
X109936785Y-59784714D01*
X109936785Y-60041857D01*
X110022500Y-60213285D01*
X110108214Y-60298999D01*
X110279642Y-60384714D01*
X110793928Y-60384714D01*
X110965357Y-60298999D01*
X111051071Y-60213285D01*
X111136785Y-60041857D01*
X111136785Y-59784714D01*
X109936785Y-60984714D02*
X109936785Y-61927571D01*
X111136785Y-60984714D01*
X111136785Y-61927571D01*
X111136785Y-62870428D02*
X111051071Y-62698999D01*
X110965357Y-62613285D01*
X110793928Y-62527571D01*
X110279642Y-62527571D01*
X110108214Y-62613285D01*
X110022500Y-62698999D01*
X109936785Y-62870428D01*
X109936785Y-63127571D01*
X110022500Y-63298999D01*
X110108214Y-63384714D01*
X110279642Y-63470428D01*
X110793928Y-63470428D01*
X110965357Y-63384714D01*
X111051071Y-63298999D01*
X111136785Y-63127571D01*
X111136785Y-62870428D01*
X109936785Y-65613285D02*
X111736785Y-65613285D01*
X110022500Y-65613285D02*
X109936785Y-65784714D01*
X109936785Y-66127571D01*
X110022500Y-66298999D01*
X110108214Y-66384714D01*
X110279642Y-66470428D01*
X110793928Y-66470428D01*
X110965357Y-66384714D01*
X111051071Y-66298999D01*
X111136785Y-66127571D01*
X111136785Y-65784714D01*
X111051071Y-65613285D01*
X109936785Y-68013285D02*
X111136785Y-68013285D01*
X109936785Y-67241857D02*
X110879642Y-67241857D01*
X111051071Y-67327571D01*
X111136785Y-67498999D01*
X111136785Y-67756142D01*
X111051071Y-67927571D01*
X110965357Y-68013285D01*
X111051071Y-69556142D02*
X111136785Y-69384714D01*
X111136785Y-69041857D01*
X111051071Y-68870428D01*
X110879642Y-68784714D01*
X110193928Y-68784714D01*
X110022500Y-68870428D01*
X109936785Y-69041857D01*
X109936785Y-69384714D01*
X110022500Y-69556142D01*
X110193928Y-69641857D01*
X110365357Y-69641857D01*
X110536785Y-68784714D01*
X111051071Y-70327571D02*
X111136785Y-70498999D01*
X111136785Y-70841857D01*
X111051071Y-71013285D01*
X110879642Y-71098999D01*
X110793928Y-71098999D01*
X110622500Y-71013285D01*
X110536785Y-70841857D01*
X110536785Y-70584714D01*
X110451071Y-70413285D01*
X110279642Y-70327571D01*
X110193928Y-70327571D01*
X110022500Y-70413285D01*
X109936785Y-70584714D01*
X109936785Y-70841857D01*
X110022500Y-71013285D01*
X109936785Y-71613285D02*
X109936785Y-72298999D01*
X109336785Y-71870428D02*
X110879642Y-71870428D01*
X111051071Y-71956142D01*
X111136785Y-72127571D01*
X111136785Y-72298999D01*
X111136785Y-73156142D02*
X111051071Y-72984714D01*
X110965357Y-72898999D01*
X110793928Y-72813285D01*
X110279642Y-72813285D01*
X110108214Y-72898999D01*
X110022500Y-72984714D01*
X109936785Y-73156142D01*
X109936785Y-73413285D01*
X110022500Y-73584714D01*
X110108214Y-73670428D01*
X110279642Y-73756142D01*
X110793928Y-73756142D01*
X110965357Y-73670428D01*
X111051071Y-73584714D01*
X111136785Y-73413285D01*
X111136785Y-73156142D01*
X114034785Y-37027571D02*
X112234785Y-37027571D01*
X113949071Y-37027571D02*
X114034785Y-36856142D01*
X114034785Y-36513285D01*
X113949071Y-36341857D01*
X113863357Y-36256142D01*
X113691928Y-36170428D01*
X113177642Y-36170428D01*
X113006214Y-36256142D01*
X112920500Y-36341857D01*
X112834785Y-36513285D01*
X112834785Y-36856142D01*
X112920500Y-37027571D01*
X113949071Y-38570428D02*
X114034785Y-38398999D01*
X114034785Y-38056142D01*
X113949071Y-37884714D01*
X113777642Y-37798999D01*
X113091928Y-37798999D01*
X112920500Y-37884714D01*
X112834785Y-38056142D01*
X112834785Y-38398999D01*
X112920500Y-38570428D01*
X113091928Y-38656142D01*
X113263357Y-38656142D01*
X113434785Y-37798999D01*
X114034785Y-39684714D02*
X113949071Y-39513285D01*
X113777642Y-39427571D01*
X112234785Y-39427571D01*
X114034785Y-41141857D02*
X113091928Y-41141857D01*
X112920500Y-41056142D01*
X112834785Y-40884714D01*
X112834785Y-40541857D01*
X112920500Y-40370428D01*
X113949071Y-41141857D02*
X114034785Y-40970428D01*
X114034785Y-40541857D01*
X113949071Y-40370428D01*
X113777642Y-40284714D01*
X113606214Y-40284714D01*
X113434785Y-40370428D01*
X113349071Y-40541857D01*
X113349071Y-40970428D01*
X113263357Y-41141857D01*
X112834785Y-41998999D02*
X114034785Y-41998999D01*
X113006214Y-41998999D02*
X112920500Y-42084714D01*
X112834785Y-42256142D01*
X112834785Y-42513285D01*
X112920500Y-42684714D01*
X113091928Y-42770428D01*
X114034785Y-42770428D01*
X112834785Y-43370428D02*
X112834785Y-44056142D01*
X112234785Y-43627571D02*
X113777642Y-43627571D01*
X113949071Y-43713285D01*
X114034785Y-43884714D01*
X114034785Y-44056142D01*
X113949071Y-45341857D02*
X114034785Y-45170428D01*
X114034785Y-44827571D01*
X113949071Y-44656142D01*
X113777642Y-44570428D01*
X113091928Y-44570428D01*
X112920500Y-44656142D01*
X112834785Y-44827571D01*
X112834785Y-45170428D01*
X112920500Y-45341857D01*
X113091928Y-45427571D01*
X113263357Y-45427571D01*
X113434785Y-44570428D01*
X114034785Y-48341857D02*
X112234785Y-48341857D01*
X113949071Y-48341857D02*
X114034785Y-48170428D01*
X114034785Y-47827571D01*
X113949071Y-47656142D01*
X113863357Y-47570428D01*
X113691928Y-47484714D01*
X113177642Y-47484714D01*
X113006214Y-47570428D01*
X112920500Y-47656142D01*
X112834785Y-47827571D01*
X112834785Y-48170428D01*
X112920500Y-48341857D01*
X113949071Y-49884714D02*
X114034785Y-49713285D01*
X114034785Y-49370428D01*
X113949071Y-49198999D01*
X113777642Y-49113285D01*
X113091928Y-49113285D01*
X112920500Y-49198999D01*
X112834785Y-49370428D01*
X112834785Y-49713285D01*
X112920500Y-49884714D01*
X113091928Y-49970428D01*
X113263357Y-49970428D01*
X113434785Y-49113285D01*
X113949071Y-52798999D02*
X114034785Y-52627571D01*
X114034785Y-52284714D01*
X113949071Y-52113285D01*
X113777642Y-52027571D01*
X113091928Y-52027571D01*
X112920500Y-52113285D01*
X112834785Y-52284714D01*
X112834785Y-52627571D01*
X112920500Y-52798999D01*
X113091928Y-52884714D01*
X113263357Y-52884714D01*
X113434785Y-52027571D01*
X112149071Y-52627571D02*
X112406214Y-52370428D01*
X114034785Y-53913285D02*
X113949071Y-53741857D01*
X113777642Y-53656142D01*
X112234785Y-53656142D01*
X113949071Y-55884714D02*
X114034785Y-56056142D01*
X114034785Y-56398999D01*
X113949071Y-56570428D01*
X113777642Y-56656142D01*
X113691928Y-56656142D01*
X113520500Y-56570428D01*
X113434785Y-56398999D01*
X113434785Y-56141857D01*
X113349071Y-55970428D01*
X113177642Y-55884714D01*
X113091928Y-55884714D01*
X112920500Y-55970428D01*
X112834785Y-56141857D01*
X112834785Y-56398999D01*
X112920500Y-56570428D01*
X112834785Y-58198999D02*
X114034785Y-58198999D01*
X112834785Y-57427571D02*
X113777642Y-57427571D01*
X113949071Y-57513285D01*
X114034785Y-57684714D01*
X114034785Y-57941857D01*
X113949071Y-58113285D01*
X113863357Y-58198999D01*
X112834785Y-58798999D02*
X112834785Y-59484714D01*
X114034785Y-59056142D02*
X112491928Y-59056142D01*
X112320500Y-59141857D01*
X112234785Y-59313285D01*
X112234785Y-59484714D01*
X114034785Y-60084714D02*
X112834785Y-60084714D01*
X113177642Y-60084714D02*
X113006214Y-60170428D01*
X112920500Y-60256142D01*
X112834785Y-60427571D01*
X112834785Y-60598999D01*
X114034785Y-61198999D02*
X112834785Y-61198999D01*
X112234785Y-61198999D02*
X112320500Y-61113285D01*
X112406214Y-61198999D01*
X112320500Y-61284714D01*
X112234785Y-61198999D01*
X112406214Y-61198999D01*
X114034785Y-62313285D02*
X113949071Y-62141857D01*
X113863357Y-62056142D01*
X113691928Y-61970428D01*
X113177642Y-61970428D01*
X113006214Y-62056142D01*
X112920500Y-62141857D01*
X112834785Y-62313285D01*
X112834785Y-62570428D01*
X112920500Y-62741857D01*
X113006214Y-62827571D01*
X113177642Y-62913285D01*
X113691928Y-62913285D01*
X113863357Y-62827571D01*
X113949071Y-62741857D01*
X114034785Y-62570428D01*
X114034785Y-62313285D01*
X112149071Y-62656142D02*
X112406214Y-62398999D01*
X114034785Y-65313285D02*
X113949071Y-65141857D01*
X113777642Y-65056142D01*
X112234785Y-65056142D01*
X114034785Y-66770428D02*
X113091928Y-66770428D01*
X112920500Y-66684714D01*
X112834785Y-66513285D01*
X112834785Y-66170428D01*
X112920500Y-65998999D01*
X113949071Y-66770428D02*
X114034785Y-66598999D01*
X114034785Y-66170428D01*
X113949071Y-65998999D01*
X113777642Y-65913285D01*
X113606214Y-65913285D01*
X113434785Y-65998999D01*
X113349071Y-66170428D01*
X113349071Y-66598999D01*
X113263357Y-66770428D01*
X113949071Y-69770428D02*
X114034785Y-69598999D01*
X114034785Y-69256142D01*
X113949071Y-69084714D01*
X113863357Y-68998999D01*
X113691928Y-68913285D01*
X113177642Y-68913285D01*
X113006214Y-68998999D01*
X112920500Y-69084714D01*
X112834785Y-69256142D01*
X112834785Y-69598999D01*
X112920500Y-69770428D01*
X114034785Y-70541857D02*
X112834785Y-70541857D01*
X113177642Y-70541857D02*
X113006214Y-70627571D01*
X112920500Y-70713285D01*
X112834785Y-70884714D01*
X112834785Y-71056142D01*
X112834785Y-72427571D02*
X114034785Y-72427571D01*
X112834785Y-71656142D02*
X113777642Y-71656142D01*
X113949071Y-71741857D01*
X114034785Y-71913285D01*
X114034785Y-72170428D01*
X113949071Y-72341857D01*
X113863357Y-72427571D01*
X112834785Y-73113285D02*
X112834785Y-74056142D01*
X114034785Y-73113285D01*
X114034785Y-74056142D01*
X113949071Y-74827571D02*
X114034785Y-74827571D01*
X114206214Y-74741857D01*
X114291928Y-74656142D01*
X116932785Y-36899000D02*
X115732785Y-36899000D01*
X115904214Y-36899000D02*
X115818500Y-36984714D01*
X115732785Y-37156142D01*
X115732785Y-37413285D01*
X115818500Y-37584714D01*
X115989928Y-37670428D01*
X116932785Y-37670428D01*
X115989928Y-37670428D02*
X115818500Y-37756142D01*
X115732785Y-37927571D01*
X115732785Y-38184714D01*
X115818500Y-38356142D01*
X115989928Y-38441857D01*
X116932785Y-38441857D01*
X116847071Y-39984714D02*
X116932785Y-39813285D01*
X116932785Y-39470428D01*
X116847071Y-39299000D01*
X116675642Y-39213285D01*
X115989928Y-39213285D01*
X115818500Y-39299000D01*
X115732785Y-39470428D01*
X115732785Y-39813285D01*
X115818500Y-39984714D01*
X115989928Y-40070428D01*
X116161357Y-40070428D01*
X116332785Y-39213285D01*
X115732785Y-40841857D02*
X116932785Y-40841857D01*
X115904214Y-40841857D02*
X115818500Y-40927571D01*
X115732785Y-41099000D01*
X115732785Y-41356142D01*
X115818500Y-41527571D01*
X115989928Y-41613285D01*
X116932785Y-41613285D01*
X116932785Y-42727571D02*
X116847071Y-42556142D01*
X116761357Y-42470428D01*
X116589928Y-42384714D01*
X116075642Y-42384714D01*
X115904214Y-42470428D01*
X115818500Y-42556142D01*
X115732785Y-42727571D01*
X115732785Y-42984714D01*
X115818500Y-43156142D01*
X115904214Y-43241857D01*
X116075642Y-43327571D01*
X116589928Y-43327571D01*
X116761357Y-43241857D01*
X116847071Y-43156142D01*
X116932785Y-42984714D01*
X116932785Y-42727571D01*
X116847071Y-44013285D02*
X116932785Y-44184714D01*
X116932785Y-44527571D01*
X116847071Y-44699000D01*
X116675642Y-44784714D01*
X116589928Y-44784714D01*
X116418500Y-44699000D01*
X116332785Y-44527571D01*
X116332785Y-44270428D01*
X116247071Y-44099000D01*
X116075642Y-44013285D01*
X115989928Y-44013285D01*
X115818500Y-44099000D01*
X115732785Y-44270428D01*
X115732785Y-44527571D01*
X115818500Y-44699000D01*
X115732785Y-45556142D02*
X117532785Y-45556142D01*
X115818500Y-45556142D02*
X115732785Y-45727571D01*
X115732785Y-46070428D01*
X115818500Y-46241857D01*
X115904214Y-46327571D01*
X116075642Y-46413285D01*
X116589928Y-46413285D01*
X116761357Y-46327571D01*
X116847071Y-46241857D01*
X116932785Y-46070428D01*
X116932785Y-45727571D01*
X116847071Y-45556142D01*
X116932785Y-47184714D02*
X115732785Y-47184714D01*
X116075642Y-47184714D02*
X115904214Y-47270428D01*
X115818500Y-47356142D01*
X115732785Y-47527571D01*
X115732785Y-47699000D01*
X116847071Y-48984714D02*
X116932785Y-48813285D01*
X116932785Y-48470428D01*
X116847071Y-48299000D01*
X116675642Y-48213285D01*
X115989928Y-48213285D01*
X115818500Y-48299000D01*
X115732785Y-48470428D01*
X115732785Y-48813285D01*
X115818500Y-48984714D01*
X115989928Y-49070428D01*
X116161357Y-49070428D01*
X116332785Y-48213285D01*
X116847071Y-50613285D02*
X116932785Y-50441857D01*
X116932785Y-50099000D01*
X116847071Y-49927571D01*
X116761357Y-49841857D01*
X116589928Y-49756142D01*
X116075642Y-49756142D01*
X115904214Y-49841857D01*
X115818500Y-49927571D01*
X115732785Y-50099000D01*
X115732785Y-50441857D01*
X115818500Y-50613285D01*
X116932785Y-51384714D02*
X115732785Y-51384714D01*
X115132785Y-51384714D02*
X115218500Y-51299000D01*
X115304214Y-51384714D01*
X115218500Y-51470428D01*
X115132785Y-51384714D01*
X115304214Y-51384714D01*
X116932785Y-53013285D02*
X115989928Y-53013285D01*
X115818500Y-52927571D01*
X115732785Y-52756142D01*
X115732785Y-52413285D01*
X115818500Y-52241857D01*
X116847071Y-53013285D02*
X116932785Y-52841857D01*
X116932785Y-52413285D01*
X116847071Y-52241857D01*
X116675642Y-52156142D01*
X116504214Y-52156142D01*
X116332785Y-52241857D01*
X116247071Y-52413285D01*
X116247071Y-52841857D01*
X116161357Y-53013285D01*
X115732785Y-53870428D02*
X116932785Y-53870428D01*
X115904214Y-53870428D02*
X115818500Y-53956142D01*
X115732785Y-54127571D01*
X115732785Y-54384714D01*
X115818500Y-54556142D01*
X115989928Y-54641857D01*
X116932785Y-54641857D01*
X116932785Y-56270428D02*
X115132785Y-56270428D01*
X116847071Y-56270428D02*
X116932785Y-56099000D01*
X116932785Y-55756142D01*
X116847071Y-55584714D01*
X116761357Y-55499000D01*
X116589928Y-55413285D01*
X116075642Y-55413285D01*
X115904214Y-55499000D01*
X115818500Y-55584714D01*
X115732785Y-55756142D01*
X115732785Y-56099000D01*
X115818500Y-56270428D01*
X116932785Y-57384714D02*
X116847071Y-57213285D01*
X116761357Y-57127571D01*
X116589928Y-57041857D01*
X116075642Y-57041857D01*
X115904214Y-57127571D01*
X115818500Y-57213285D01*
X115732785Y-57384714D01*
X115732785Y-57641857D01*
X115818500Y-57813285D01*
X115904214Y-57899000D01*
X116075642Y-57984714D01*
X116589928Y-57984714D01*
X116761357Y-57899000D01*
X116847071Y-57813285D01*
X116932785Y-57641857D01*
X116932785Y-57384714D01*
X116847071Y-60813285D02*
X116932785Y-60641857D01*
X116932785Y-60299000D01*
X116847071Y-60127571D01*
X116675642Y-60041857D01*
X115989928Y-60041857D01*
X115818500Y-60127571D01*
X115732785Y-60299000D01*
X115732785Y-60641857D01*
X115818500Y-60813285D01*
X115989928Y-60899000D01*
X116161357Y-60899000D01*
X116332785Y-60041857D01*
X116932785Y-61927571D02*
X116847071Y-61756142D01*
X116675642Y-61670428D01*
X115132785Y-61670428D01*
X116932785Y-64241857D02*
X116847071Y-64070428D01*
X116761357Y-63984714D01*
X116589928Y-63899000D01*
X116075642Y-63899000D01*
X115904214Y-63984714D01*
X115818500Y-64070428D01*
X115732785Y-64241857D01*
X115732785Y-64499000D01*
X115818500Y-64670428D01*
X115904214Y-64756142D01*
X116075642Y-64841857D01*
X116589928Y-64841857D01*
X116761357Y-64756142D01*
X116847071Y-64670428D01*
X116932785Y-64499000D01*
X116932785Y-64241857D01*
X115732785Y-65613285D02*
X117532785Y-65613285D01*
X115818500Y-65613285D02*
X115732785Y-65784714D01*
X115732785Y-66127571D01*
X115818500Y-66299000D01*
X115904214Y-66384714D01*
X116075642Y-66470428D01*
X116589928Y-66470428D01*
X116761357Y-66384714D01*
X116847071Y-66299000D01*
X116932785Y-66127571D01*
X116932785Y-65784714D01*
X116847071Y-65613285D01*
X116932785Y-67241857D02*
X115732785Y-67241857D01*
X116075642Y-67241857D02*
X115904214Y-67327571D01*
X115818500Y-67413285D01*
X115732785Y-67584714D01*
X115732785Y-67756142D01*
X116932785Y-68613285D02*
X116847071Y-68441857D01*
X116761357Y-68356142D01*
X116589928Y-68270428D01*
X116075642Y-68270428D01*
X115904214Y-68356142D01*
X115818500Y-68441857D01*
X115732785Y-68613285D01*
X115732785Y-68870428D01*
X115818500Y-69041857D01*
X115904214Y-69127571D01*
X116075642Y-69213285D01*
X116589928Y-69213285D01*
X116761357Y-69127571D01*
X116847071Y-69041857D01*
X116932785Y-68870428D01*
X116932785Y-68613285D01*
X116932785Y-69984714D02*
X115132785Y-69984714D01*
X115818500Y-69984714D02*
X115732785Y-70156142D01*
X115732785Y-70499000D01*
X115818500Y-70670428D01*
X115904214Y-70756142D01*
X116075642Y-70841857D01*
X116589928Y-70841857D01*
X116761357Y-70756142D01*
X116847071Y-70670428D01*
X116932785Y-70499000D01*
X116932785Y-70156142D01*
X116847071Y-69984714D01*
X116932785Y-71613285D02*
X115732785Y-71613285D01*
X115132785Y-71613285D02*
X115218500Y-71527571D01*
X115304214Y-71613285D01*
X115218500Y-71699000D01*
X115132785Y-71613285D01*
X115304214Y-71613285D01*
X116932785Y-72727571D02*
X116847071Y-72556142D01*
X116761357Y-72470428D01*
X116589928Y-72384714D01*
X116075642Y-72384714D01*
X115904214Y-72470428D01*
X115818500Y-72556142D01*
X115732785Y-72727571D01*
X115732785Y-72984714D01*
X115818500Y-73156142D01*
X115904214Y-73241857D01*
X116075642Y-73327571D01*
X116589928Y-73327571D01*
X116761357Y-73241857D01*
X116847071Y-73156142D01*
X116932785Y-72984714D01*
X116932785Y-72727571D01*
X116847071Y-74184714D02*
X116932785Y-74184714D01*
X117104214Y-74099000D01*
X117189928Y-74013285D01*
X118630785Y-39770428D02*
X119830785Y-40199000D01*
X118630785Y-40627571D02*
X119830785Y-40199000D01*
X120259357Y-40027571D01*
X120345071Y-39941857D01*
X120430785Y-39770428D01*
X119745071Y-42598999D02*
X119830785Y-42770428D01*
X119830785Y-43113285D01*
X119745071Y-43284714D01*
X119573642Y-43370428D01*
X119487928Y-43370428D01*
X119316500Y-43284714D01*
X119230785Y-43113285D01*
X119230785Y-42856142D01*
X119145071Y-42684714D01*
X118973642Y-42598999D01*
X118887928Y-42598999D01*
X118716500Y-42684714D01*
X118630785Y-42856142D01*
X118630785Y-43113285D01*
X118716500Y-43284714D01*
X119745071Y-44827571D02*
X119830785Y-44656142D01*
X119830785Y-44313285D01*
X119745071Y-44141857D01*
X119573642Y-44056142D01*
X118887928Y-44056142D01*
X118716500Y-44141857D01*
X118630785Y-44313285D01*
X118630785Y-44656142D01*
X118716500Y-44827571D01*
X118887928Y-44913285D01*
X119059357Y-44913285D01*
X119230785Y-44056142D01*
X119745071Y-46970428D02*
X119830785Y-47141857D01*
X119830785Y-47484714D01*
X119745071Y-47656142D01*
X119573642Y-47741857D01*
X119487928Y-47741857D01*
X119316500Y-47656142D01*
X119230785Y-47484714D01*
X119230785Y-47227571D01*
X119145071Y-47056142D01*
X118973642Y-46970428D01*
X118887928Y-46970428D01*
X118716500Y-47056142D01*
X118630785Y-47227571D01*
X118630785Y-47484714D01*
X118716500Y-47656142D01*
X119745071Y-49198999D02*
X119830785Y-49027571D01*
X119830785Y-48684714D01*
X119745071Y-48513285D01*
X119573642Y-48427571D01*
X118887928Y-48427571D01*
X118716500Y-48513285D01*
X118630785Y-48684714D01*
X118630785Y-49027571D01*
X118716500Y-49198999D01*
X118887928Y-49284714D01*
X119059357Y-49284714D01*
X119230785Y-48427571D01*
X118630785Y-50056142D02*
X119830785Y-50056142D01*
X118802214Y-50056142D02*
X118716500Y-50141857D01*
X118630785Y-50313285D01*
X118630785Y-50570428D01*
X118716500Y-50741857D01*
X118887928Y-50827571D01*
X119830785Y-50827571D01*
X118630785Y-51427571D02*
X118630785Y-52113285D01*
X118030785Y-51684714D02*
X119573642Y-51684714D01*
X119745071Y-51770428D01*
X119830785Y-51941857D01*
X119830785Y-52113285D01*
X119830785Y-52970428D02*
X119745071Y-52798999D01*
X119659357Y-52713285D01*
X119487928Y-52627571D01*
X118973642Y-52627571D01*
X118802214Y-52713285D01*
X118716500Y-52798999D01*
X118630785Y-52970428D01*
X118630785Y-53227571D01*
X118716500Y-53398999D01*
X118802214Y-53484714D01*
X118973642Y-53570428D01*
X119487928Y-53570428D01*
X119659357Y-53484714D01*
X119745071Y-53398999D01*
X119830785Y-53227571D01*
X119830785Y-52970428D01*
X117945071Y-53313285D02*
X118202214Y-53056142D01*
X119830785Y-56484714D02*
X118887928Y-56484714D01*
X118716500Y-56398999D01*
X118630785Y-56227571D01*
X118630785Y-55884714D01*
X118716500Y-55713285D01*
X119745071Y-56484714D02*
X119830785Y-56313285D01*
X119830785Y-55884714D01*
X119745071Y-55713285D01*
X119573642Y-55627571D01*
X119402214Y-55627571D01*
X119230785Y-55713285D01*
X119145071Y-55884714D01*
X119145071Y-56313285D01*
X119059357Y-56484714D01*
X119830785Y-58970428D02*
X119745071Y-58798999D01*
X119573642Y-58713285D01*
X118030785Y-58713285D01*
X119830785Y-60427571D02*
X118887928Y-60427571D01*
X118716500Y-60341857D01*
X118630785Y-60170428D01*
X118630785Y-59827571D01*
X118716500Y-59656142D01*
X119745071Y-60427571D02*
X119830785Y-60256142D01*
X119830785Y-59827571D01*
X119745071Y-59656142D01*
X119573642Y-59570428D01*
X119402214Y-59570428D01*
X119230785Y-59656142D01*
X119145071Y-59827571D01*
X119145071Y-60256142D01*
X119059357Y-60427571D01*
X119830785Y-63427571D02*
X118030785Y-63427571D01*
X119745071Y-63427571D02*
X119830785Y-63256142D01*
X119830785Y-62913285D01*
X119745071Y-62741857D01*
X119659357Y-62656142D01*
X119487928Y-62570428D01*
X118973642Y-62570428D01*
X118802214Y-62656142D01*
X118716500Y-62741857D01*
X118630785Y-62913285D01*
X118630785Y-63256142D01*
X118716500Y-63427571D01*
X119830785Y-64284714D02*
X118630785Y-64284714D01*
X118030785Y-64284714D02*
X118116500Y-64198999D01*
X118202214Y-64284714D01*
X118116500Y-64370428D01*
X118030785Y-64284714D01*
X118202214Y-64284714D01*
X119745071Y-65827571D02*
X119830785Y-65656142D01*
X119830785Y-65313285D01*
X119745071Y-65141857D01*
X119573642Y-65056142D01*
X118887928Y-65056142D01*
X118716500Y-65141857D01*
X118630785Y-65313285D01*
X118630785Y-65656142D01*
X118716500Y-65827571D01*
X118887928Y-65913285D01*
X119059357Y-65913285D01*
X119230785Y-65056142D01*
X119745071Y-66598999D02*
X119830785Y-66770428D01*
X119830785Y-67113285D01*
X119745071Y-67284714D01*
X119573642Y-67370428D01*
X119487928Y-67370428D01*
X119316500Y-67284714D01*
X119230785Y-67113285D01*
X119230785Y-66856142D01*
X119145071Y-66684714D01*
X118973642Y-66598999D01*
X118887928Y-66598999D01*
X118716500Y-66684714D01*
X118630785Y-66856142D01*
X118630785Y-67113285D01*
X118716500Y-67284714D01*
X118630785Y-67884714D02*
X118630785Y-68570428D01*
X118030785Y-68141857D02*
X119573642Y-68141857D01*
X119745071Y-68227571D01*
X119830785Y-68398999D01*
X119830785Y-68570428D01*
X119830785Y-69170428D02*
X118630785Y-69170428D01*
X118973642Y-69170428D02*
X118802214Y-69256142D01*
X118716500Y-69341857D01*
X118630785Y-69513285D01*
X118630785Y-69684714D01*
X119830785Y-71056142D02*
X118887928Y-71056142D01*
X118716500Y-70970428D01*
X118630785Y-70798999D01*
X118630785Y-70456142D01*
X118716500Y-70284714D01*
X119745071Y-71056142D02*
X119830785Y-70884714D01*
X119830785Y-70456142D01*
X119745071Y-70284714D01*
X119573642Y-70198999D01*
X119402214Y-70198999D01*
X119230785Y-70284714D01*
X119145071Y-70456142D01*
X119145071Y-70884714D01*
X119059357Y-71056142D01*
X122728785Y-44184714D02*
X120928785Y-44184714D01*
X122643071Y-44184714D02*
X122728785Y-44013285D01*
X122728785Y-43670428D01*
X122643071Y-43499000D01*
X122557357Y-43413285D01*
X122385928Y-43327571D01*
X121871642Y-43327571D01*
X121700214Y-43413285D01*
X121614500Y-43499000D01*
X121528785Y-43670428D01*
X121528785Y-44013285D01*
X121614500Y-44184714D01*
X122643071Y-45727571D02*
X122728785Y-45556142D01*
X122728785Y-45213285D01*
X122643071Y-45041857D01*
X122471642Y-44956142D01*
X121785928Y-44956142D01*
X121614500Y-45041857D01*
X121528785Y-45213285D01*
X121528785Y-45556142D01*
X121614500Y-45727571D01*
X121785928Y-45813285D01*
X121957357Y-45813285D01*
X122128785Y-44956142D01*
X122728785Y-46841857D02*
X122643071Y-46670428D01*
X122471642Y-46584714D01*
X120928785Y-46584714D01*
X121528785Y-48641857D02*
X121528785Y-49327571D01*
X120928785Y-48899000D02*
X122471642Y-48899000D01*
X122643071Y-48984714D01*
X122728785Y-49156142D01*
X122728785Y-49327571D01*
X122728785Y-49927571D02*
X121528785Y-49927571D01*
X121871642Y-49927571D02*
X121700214Y-50013285D01*
X121614500Y-50099000D01*
X121528785Y-50270428D01*
X121528785Y-50441857D01*
X122728785Y-51299000D02*
X122643071Y-51127571D01*
X122557357Y-51041857D01*
X122385928Y-50956142D01*
X121871642Y-50956142D01*
X121700214Y-51041857D01*
X121614500Y-51127571D01*
X121528785Y-51299000D01*
X121528785Y-51556142D01*
X121614500Y-51727571D01*
X121700214Y-51813285D01*
X121871642Y-51899000D01*
X122385928Y-51899000D01*
X122557357Y-51813285D01*
X122643071Y-51727571D01*
X122728785Y-51556142D01*
X122728785Y-51299000D01*
X121528785Y-52670428D02*
X122728785Y-52670428D01*
X121700214Y-52670428D02*
X121614500Y-52756142D01*
X121528785Y-52927571D01*
X121528785Y-53184714D01*
X121614500Y-53356142D01*
X121785928Y-53441857D01*
X122728785Y-53441857D01*
X122728785Y-54556142D02*
X122643071Y-54384714D01*
X122557357Y-54299000D01*
X122385928Y-54213285D01*
X121871642Y-54213285D01*
X121700214Y-54299000D01*
X121614500Y-54384714D01*
X121528785Y-54556142D01*
X121528785Y-54813285D01*
X121614500Y-54984714D01*
X121700214Y-55070428D01*
X121871642Y-55156142D01*
X122385928Y-55156142D01*
X122557357Y-55070428D01*
X122643071Y-54984714D01*
X122728785Y-54813285D01*
X122728785Y-54556142D01*
X122728785Y-58070428D02*
X120928785Y-58070428D01*
X122643071Y-58070428D02*
X122728785Y-57899000D01*
X122728785Y-57556142D01*
X122643071Y-57384714D01*
X122557357Y-57299000D01*
X122385928Y-57213285D01*
X121871642Y-57213285D01*
X121700214Y-57299000D01*
X121614500Y-57384714D01*
X121528785Y-57556142D01*
X121528785Y-57899000D01*
X121614500Y-58070428D01*
X122643071Y-59613285D02*
X122728785Y-59441857D01*
X122728785Y-59099000D01*
X122643071Y-58927571D01*
X122471642Y-58841857D01*
X121785928Y-58841857D01*
X121614500Y-58927571D01*
X121528785Y-59099000D01*
X121528785Y-59441857D01*
X121614500Y-59613285D01*
X121785928Y-59699000D01*
X121957357Y-59699000D01*
X122128785Y-58841857D01*
X122728785Y-61841857D02*
X120928785Y-61841857D01*
X120928785Y-62270428D01*
X121014500Y-62527571D01*
X121185928Y-62699000D01*
X121357357Y-62784714D01*
X121700214Y-62870428D01*
X121957357Y-62870428D01*
X122300214Y-62784714D01*
X122471642Y-62699000D01*
X122643071Y-62527571D01*
X122728785Y-62270428D01*
X122728785Y-61841857D01*
X122728785Y-63641857D02*
X121528785Y-63641857D01*
X120928785Y-63641857D02*
X121014500Y-63556142D01*
X121100214Y-63641857D01*
X121014500Y-63727571D01*
X120928785Y-63641857D01*
X121100214Y-63641857D01*
X122728785Y-64756142D02*
X122643071Y-64584714D01*
X122557357Y-64499000D01*
X122385928Y-64413285D01*
X121871642Y-64413285D01*
X121700214Y-64499000D01*
X121614500Y-64584714D01*
X121528785Y-64756142D01*
X121528785Y-65013285D01*
X121614500Y-65184714D01*
X121700214Y-65270428D01*
X121871642Y-65356142D01*
X122385928Y-65356142D01*
X122557357Y-65270428D01*
X122643071Y-65184714D01*
X122728785Y-65013285D01*
X122728785Y-64756142D01*
X122643071Y-66041857D02*
X122728785Y-66213285D01*
X122728785Y-66556142D01*
X122643071Y-66727571D01*
X122471642Y-66813285D01*
X122385928Y-66813285D01*
X122214500Y-66727571D01*
X122128785Y-66556142D01*
X122128785Y-66299000D01*
X122043071Y-66127571D01*
X121871642Y-66041857D01*
X121785928Y-66041857D01*
X121614500Y-66127571D01*
X121528785Y-66299000D01*
X121528785Y-66556142D01*
X121614500Y-66727571D01*
X122557357Y-67584714D02*
X122643071Y-67670428D01*
X122728785Y-67584714D01*
X122643071Y-67499000D01*
X122557357Y-67584714D01*
X122728785Y-67584714D01*
D11*
X138592857Y-40907142D02*
X138592857Y-39240476D01*
X141211904Y-39240476D02*
X136211904Y-39240476D01*
X136211904Y-41621428D01*
X138592857Y-43526190D02*
X138592857Y-45192857D01*
X141211904Y-45907142D02*
X141211904Y-43526190D01*
X136211904Y-43526190D01*
X136211904Y-45907142D01*
X137878571Y-51383333D02*
X141211904Y-52573809D01*
X137878571Y-53764285D01*
X136211904Y-55192857D02*
X136211904Y-58288095D01*
X138116666Y-56621428D01*
X138116666Y-57335714D01*
X138354761Y-57811904D01*
X138592857Y-58049999D01*
X139069047Y-58288095D01*
X140259523Y-58288095D01*
X140735714Y-58049999D01*
X140973809Y-57811904D01*
X141211904Y-57335714D01*
X141211904Y-55907142D01*
X140973809Y-55430952D01*
X140735714Y-55192857D01*
X140735714Y-60430952D02*
X140973809Y-60669047D01*
X141211904Y-60430952D01*
X140973809Y-60192857D01*
X140735714Y-60430952D01*
X141211904Y-60430952D01*
X136688095Y-62573809D02*
X136450000Y-62811904D01*
X136211904Y-63288095D01*
X136211904Y-64478571D01*
X136450000Y-64954761D01*
X136688095Y-65192857D01*
X137164285Y-65430952D01*
X137640476Y-65430952D01*
X138354761Y-65192857D01*
X141211904Y-62335714D01*
X141211904Y-65430952D01*
X136688095Y-67335714D02*
X136450000Y-67573809D01*
X136211904Y-68049999D01*
X136211904Y-69240476D01*
X136450000Y-69716666D01*
X136688095Y-69954761D01*
X137164285Y-70192857D01*
X137640476Y-70192857D01*
X138354761Y-69954761D01*
X141211904Y-67097619D01*
X141211904Y-70192857D01*
X136211904Y-73288095D02*
X136211904Y-73764285D01*
X136450000Y-74240476D01*
X136688095Y-74478571D01*
X137164285Y-74716666D01*
X138116666Y-74954761D01*
X139307142Y-74954761D01*
X140259523Y-74716666D01*
X140735714Y-74478571D01*
X140973809Y-74240476D01*
X141211904Y-73764285D01*
X141211904Y-73288095D01*
X140973809Y-72811904D01*
X140735714Y-72573809D01*
X140259523Y-72335714D01*
X139307142Y-72097619D01*
X138116666Y-72097619D01*
X137164285Y-72335714D01*
X136688095Y-72573809D01*
X136450000Y-72811904D01*
X136211904Y-73288095D01*
X141211904Y-79716666D02*
X141211904Y-76859523D01*
X141211904Y-78288095D02*
X136211904Y-78288095D01*
X136926190Y-77811904D01*
X137402380Y-77335714D01*
X137640476Y-76859523D01*
G36*
X153201053Y-43518487D02*
G01*
X153236645Y-43606861D01*
X153241854Y-43625428D01*
X153312407Y-43905914D01*
X153332291Y-44078241D01*
X153300741Y-44165041D01*
X153216995Y-44188944D01*
X153129609Y-44174971D01*
X153070278Y-44118389D01*
X153072093Y-44101719D01*
X153134228Y-44047833D01*
X153165234Y-44019229D01*
X153161277Y-43906722D01*
X153128326Y-43824299D01*
X153064264Y-43765611D01*
X153037226Y-43786750D01*
X153042088Y-43889083D01*
X153045126Y-43899718D01*
X153034841Y-43922649D01*
X152971818Y-43836167D01*
X152949547Y-43799455D01*
X152874696Y-43651341D01*
X152885135Y-43574217D01*
X152982084Y-43532025D01*
X153131890Y-43498990D01*
X153201053Y-43518487D01*
G37*
G36*
X153332065Y-43541315D02*
G01*
X153322956Y-43499488D01*
X153426736Y-43459740D01*
X153454263Y-43454283D01*
X153653551Y-43411168D01*
X153881667Y-43357975D01*
X153938535Y-43344429D01*
X154130751Y-43302110D01*
X154252084Y-43280638D01*
X154329276Y-43303812D01*
X154322485Y-43381641D01*
X154226409Y-43469546D01*
X154160264Y-43534091D01*
X154160934Y-43685743D01*
X154206628Y-43773265D01*
X154274802Y-43797749D01*
X154308338Y-43792651D01*
X154340278Y-43867280D01*
X154315768Y-43931076D01*
X154200001Y-43977278D01*
X154138928Y-43967843D01*
X154062912Y-43888270D01*
X154015449Y-43700402D01*
X154009496Y-43665668D01*
X153955093Y-43493468D01*
X153879892Y-43458555D01*
X153863879Y-43466150D01*
X153822404Y-43546402D01*
X153852776Y-43717326D01*
X153895151Y-43880248D01*
X153907486Y-44032007D01*
X153850200Y-44101658D01*
X153713130Y-44118389D01*
X153581941Y-44103416D01*
X153506160Y-44028810D01*
X153459710Y-43853967D01*
X153451069Y-43812360D01*
X153417245Y-43706587D01*
X153576086Y-43706587D01*
X153634723Y-43871444D01*
X153666727Y-43939596D01*
X153691744Y-43944028D01*
X153700319Y-43818528D01*
X153684328Y-43685246D01*
X153634723Y-43624500D01*
X153589871Y-43634709D01*
X153576086Y-43706587D01*
X153417245Y-43706587D01*
X153395048Y-43637173D01*
X153332065Y-43541315D01*
G37*
G36*
X152440215Y-42523083D02*
G01*
X152962615Y-42523083D01*
X152977110Y-42670896D01*
X153022373Y-42864535D01*
X153083657Y-43046973D01*
X153146215Y-43161185D01*
X153187875Y-43197798D01*
X153238403Y-43186340D01*
X153231670Y-43050334D01*
X153167495Y-42792902D01*
X153104480Y-42586951D01*
X153094716Y-42562749D01*
X153302825Y-42562749D01*
X153309726Y-42722712D01*
X153311823Y-42733005D01*
X153366103Y-42918223D01*
X153425717Y-43019424D01*
X153473832Y-43020051D01*
X153493612Y-42903548D01*
X153484161Y-42763497D01*
X153450785Y-42607215D01*
X153411794Y-42530603D01*
X153344994Y-42492042D01*
X153302825Y-42562749D01*
X153094716Y-42562749D01*
X153054410Y-42462830D01*
X153014472Y-42435734D01*
X152971254Y-42484594D01*
X152962615Y-42523083D01*
X152440215Y-42523083D01*
X152443439Y-42463932D01*
X152447810Y-42460590D01*
X152548197Y-42433708D01*
X152612398Y-42426673D01*
X153592247Y-42426673D01*
X153599106Y-42583805D01*
X153634221Y-42750624D01*
X153684481Y-42940816D01*
X153731735Y-43034817D01*
X153786790Y-43060055D01*
X153810412Y-43024525D01*
X153818646Y-42893542D01*
X153804676Y-42713334D01*
X153773033Y-42534445D01*
X153733482Y-42422252D01*
X153931091Y-42422252D01*
X153939974Y-42610186D01*
X153946014Y-42645550D01*
X153984181Y-42815178D01*
X154019761Y-42904168D01*
X154027471Y-42911376D01*
X154087802Y-42914704D01*
X154110500Y-42806040D01*
X154090031Y-42608654D01*
X154086795Y-42592031D01*
X154028970Y-42412924D01*
X153968913Y-42356415D01*
X153931091Y-42422252D01*
X153733482Y-42422252D01*
X153728253Y-42407417D01*
X153702426Y-42371153D01*
X153633377Y-42346650D01*
X153592247Y-42426673D01*
X152612398Y-42426673D01*
X152721197Y-42414751D01*
X152737737Y-42413644D01*
X152920980Y-42387334D01*
X153035971Y-42347207D01*
X153053912Y-42336896D01*
X153191525Y-42294263D01*
X153388748Y-42259546D01*
X153415795Y-42256025D01*
X153664772Y-42212178D01*
X153881667Y-42157928D01*
X153886035Y-42156563D01*
X154048363Y-42124284D01*
X154145811Y-42137694D01*
X154174135Y-42204302D01*
X154211208Y-42377717D01*
X154242932Y-42611412D01*
X154287575Y-43038535D01*
X153608147Y-43195537D01*
X153426471Y-43235791D01*
X153145189Y-43290916D01*
X152928689Y-43324273D01*
X152813062Y-43329769D01*
X152751798Y-43276621D01*
X152660459Y-43129120D01*
X152565472Y-42930806D01*
X152485318Y-42724974D01*
X152468966Y-42665606D01*
X152653474Y-42665606D01*
X152674308Y-42765369D01*
X152753704Y-42967321D01*
X152828819Y-43118847D01*
X152891451Y-43178643D01*
X152911639Y-43108522D01*
X152877031Y-42913842D01*
X152872265Y-42896294D01*
X152805934Y-42735076D01*
X152731898Y-42653281D01*
X152689438Y-42642655D01*
X152653474Y-42665606D01*
X152468966Y-42665606D01*
X152438479Y-42554917D01*
X152440215Y-42523083D01*
G37*
G36*
X151960893Y-41112033D02*
G01*
X151964901Y-41108843D01*
X152063331Y-41074722D01*
X152234064Y-41039583D01*
X152473668Y-41000701D01*
X152631300Y-41536489D01*
X152652053Y-41605074D01*
X152734136Y-41842914D01*
X152807750Y-42009508D01*
X152859049Y-42072278D01*
X152869585Y-42071792D01*
X152915500Y-42039755D01*
X152919950Y-41941734D01*
X152880624Y-41755538D01*
X152795215Y-41458978D01*
X152735504Y-41242376D01*
X152699507Y-41066129D01*
X152699761Y-40984646D01*
X152724718Y-40966161D01*
X152788388Y-40989142D01*
X152853470Y-41127180D01*
X152926979Y-41392878D01*
X152997760Y-41661107D01*
X153068619Y-41849320D01*
X153135536Y-41922585D01*
X153205949Y-41894274D01*
X153223128Y-41866696D01*
X153233168Y-41703343D01*
X153182168Y-41415587D01*
X153142636Y-41224864D01*
X153129855Y-41070312D01*
X153165093Y-41033790D01*
X153211022Y-41090835D01*
X153278019Y-41252646D01*
X153342744Y-41477789D01*
X153377720Y-41623144D01*
X153427441Y-41813422D01*
X153464338Y-41906164D01*
X153501235Y-41927623D01*
X153550956Y-41904053D01*
X153571953Y-41860287D01*
X153570885Y-41695707D01*
X153528454Y-41435191D01*
X153528354Y-41434712D01*
X153484215Y-41188310D01*
X153481332Y-41060262D01*
X153519332Y-41034116D01*
X153549138Y-41060738D01*
X153613691Y-41193455D01*
X153670804Y-41393651D01*
X153705921Y-41531904D01*
X153769681Y-41674593D01*
X153824918Y-41682976D01*
X153861155Y-41561299D01*
X153867915Y-41313805D01*
X153867236Y-41170119D01*
X153882640Y-41006915D01*
X153913292Y-40943389D01*
X153915835Y-40943679D01*
X153959818Y-41014110D01*
X154007034Y-41177743D01*
X154049774Y-41390005D01*
X154080329Y-41606324D01*
X154090990Y-41782127D01*
X154074047Y-41872842D01*
X154064038Y-41880581D01*
X153944828Y-41923638D01*
X153759772Y-41958069D01*
X153723994Y-41962791D01*
X153542210Y-41995662D01*
X153435184Y-42029504D01*
X153430602Y-42032101D01*
X153313831Y-42068933D01*
X153132983Y-42103548D01*
X153118875Y-42105659D01*
X152875220Y-42149738D01*
X152624115Y-42205007D01*
X152499814Y-42233536D01*
X152385808Y-42232699D01*
X152311380Y-42156551D01*
X152229122Y-41977824D01*
X152217349Y-41950071D01*
X152097279Y-41647301D01*
X152008626Y-41387702D01*
X151977010Y-41264961D01*
X152178993Y-41264961D01*
X152192964Y-41402409D01*
X152250797Y-41599639D01*
X152333376Y-41807383D01*
X152421582Y-41976373D01*
X152496296Y-42057339D01*
X152545189Y-42058331D01*
X152571572Y-41985114D01*
X152546044Y-41810798D01*
X152467823Y-41520639D01*
X152420792Y-41378820D01*
X152332793Y-41203018D01*
X152251934Y-41158481D01*
X152182883Y-41249650D01*
X152178993Y-41264961D01*
X151977010Y-41264961D01*
X151960221Y-41199778D01*
X151960893Y-41112033D01*
G37*
G36*
X150539033Y-45369574D02*
G01*
X150579293Y-45421451D01*
X150587207Y-45496089D01*
X150555430Y-45495469D01*
X150499537Y-45409071D01*
X150494514Y-45395685D01*
X150479710Y-45324987D01*
X150539033Y-45369574D01*
G37*
G36*
X155530431Y-44850633D02*
G01*
X155616428Y-44937188D01*
X155706347Y-45001764D01*
X155863277Y-45028593D01*
X156121545Y-45020693D01*
X156532679Y-44990954D01*
X156932668Y-45479860D01*
X157045485Y-45619116D01*
X157188912Y-45807802D01*
X157257567Y-45927073D01*
X157263308Y-46000738D01*
X157217998Y-46052606D01*
X157144956Y-46155473D01*
X157060966Y-46354419D01*
X156978613Y-46609783D01*
X156907606Y-46883903D01*
X156857655Y-47139120D01*
X156838468Y-47337772D01*
X156859754Y-47442198D01*
X156881397Y-47456925D01*
X157031384Y-47493329D01*
X157270792Y-47510282D01*
X157560966Y-47508786D01*
X157863246Y-47489842D01*
X158138974Y-47454452D01*
X158349492Y-47403616D01*
X158399229Y-47385378D01*
X158623546Y-47289560D01*
X158797946Y-47196061D01*
X158829013Y-47176657D01*
X159020514Y-47073719D01*
X159240679Y-46972536D01*
X159310848Y-46944214D01*
X159447946Y-46900576D01*
X159477362Y-46914580D01*
X159410441Y-46977203D01*
X159258532Y-47079423D01*
X159032979Y-47212218D01*
X158745131Y-47366565D01*
X158491258Y-47494066D01*
X158253430Y-47597470D01*
X158043986Y-47657835D01*
X157810971Y-47689364D01*
X157502429Y-47706258D01*
X157212914Y-47712009D01*
X156920700Y-47689694D01*
X156729709Y-47617986D01*
X156630062Y-47480513D01*
X156611878Y-47260903D01*
X156665279Y-46942787D01*
X156780384Y-46509791D01*
X156962712Y-45876030D01*
X156713868Y-45572348D01*
X156618654Y-45458695D01*
X156504552Y-45348232D01*
X156379999Y-45284974D01*
X156201572Y-45249675D01*
X155925849Y-45223090D01*
X155695850Y-45205294D01*
X155493094Y-45204071D01*
X155330820Y-45237635D01*
X155155172Y-45318540D01*
X154912288Y-45459340D01*
X154861934Y-45489009D01*
X154633804Y-45617137D01*
X154455954Y-45707169D01*
X154363328Y-45741167D01*
X154268875Y-45766651D01*
X154101732Y-45894460D01*
X153939207Y-46099374D01*
X153812500Y-46347072D01*
X153766461Y-46471498D01*
X153724620Y-46629403D01*
X153736719Y-46744499D01*
X153801594Y-46872944D01*
X153803353Y-46875930D01*
X153904513Y-47132113D01*
X153874889Y-47357347D01*
X153710706Y-47581038D01*
X153582340Y-47703150D01*
X153475685Y-47774052D01*
X153432022Y-47737192D01*
X153436008Y-47593250D01*
X153485553Y-47444373D01*
X153617084Y-47376676D01*
X153657037Y-47369299D01*
X153760395Y-47304054D01*
X153741289Y-47181565D01*
X153599445Y-46995886D01*
X153577255Y-46971189D01*
X153469232Y-46822983D01*
X153427739Y-46714385D01*
X153427850Y-46712524D01*
X153466011Y-46578237D01*
X153554548Y-46375285D01*
X153672213Y-46143318D01*
X153797758Y-45921985D01*
X153909936Y-45750937D01*
X153987500Y-45669823D01*
X154233265Y-45556633D01*
X154535672Y-45404101D01*
X154830440Y-45244382D01*
X155077307Y-45099368D01*
X155236014Y-44990950D01*
X155326769Y-44918260D01*
X155448445Y-44842265D01*
X155530431Y-44850633D01*
G37*
G36*
X152374418Y-44844798D02*
G01*
X152435278Y-44934685D01*
X152405533Y-44995650D01*
X152300788Y-45024665D01*
X152178277Y-44995444D01*
X152099786Y-44912139D01*
X152119756Y-44851750D01*
X152253010Y-44823944D01*
X152374418Y-44844798D01*
G37*
G36*
X151729723Y-45600055D02*
G01*
X151705303Y-45594796D01*
X151659167Y-45515389D01*
X151673921Y-45466302D01*
X151743834Y-45515389D01*
X151795780Y-45553846D01*
X151951336Y-45600055D01*
X152027769Y-45592454D01*
X152056840Y-45570657D01*
X152223612Y-45570657D01*
X152264338Y-45647749D01*
X152348882Y-45635902D01*
X152419109Y-45542729D01*
X152417613Y-45499968D01*
X152335324Y-45458944D01*
X152280420Y-45473464D01*
X152223612Y-45570657D01*
X152056840Y-45570657D01*
X152118336Y-45524547D01*
X152093318Y-45400272D01*
X151952651Y-45236787D01*
X151899620Y-45187345D01*
X151778210Y-45053796D01*
X151729723Y-44966050D01*
X151739580Y-44921880D01*
X151813818Y-44894371D01*
X151927554Y-44948541D01*
X152040735Y-45070889D01*
X152151487Y-45192930D01*
X152266398Y-45247278D01*
X152315365Y-45260889D01*
X152456113Y-45350887D01*
X152619297Y-45497306D01*
X152796893Y-45652292D01*
X152921667Y-45694841D01*
X152979860Y-45615635D01*
X152967584Y-45415587D01*
X152956420Y-45338645D01*
X152975662Y-45202191D01*
X153070671Y-45184412D01*
X153242513Y-45284799D01*
X153350333Y-45347307D01*
X153502933Y-45388389D01*
X153579548Y-45395181D01*
X153647620Y-45448683D01*
X153636658Y-45575364D01*
X153549327Y-45798800D01*
X153460590Y-45975222D01*
X153388740Y-46047205D01*
X153317882Y-46023936D01*
X153220640Y-45992803D01*
X153047718Y-45998873D01*
X152859764Y-46039004D01*
X152708824Y-46101501D01*
X152646945Y-46174673D01*
X152650785Y-46194512D01*
X152714373Y-46312896D01*
X152831367Y-46469137D01*
X152858446Y-46502125D01*
X152951249Y-46650037D01*
X152929063Y-46717220D01*
X152913764Y-46719256D01*
X152805960Y-46668722D01*
X152676623Y-46543509D01*
X152667576Y-46532467D01*
X152564227Y-46415762D01*
X152519355Y-46403017D01*
X152508371Y-46485798D01*
X152519648Y-46542122D01*
X152606940Y-46699849D01*
X152752778Y-46870055D01*
X152768990Y-46885781D01*
X152923371Y-47042364D01*
X152984110Y-47137812D01*
X152959790Y-47204992D01*
X152858995Y-47276776D01*
X152796950Y-47309583D01*
X152668132Y-47322921D01*
X152488578Y-47258004D01*
X152258889Y-47151346D01*
X152572418Y-47190109D01*
X152701532Y-47205319D01*
X152817610Y-47208860D01*
X152830244Y-47175046D01*
X152762193Y-47092125D01*
X152627567Y-46990609D01*
X152431025Y-46912717D01*
X152247901Y-46875110D01*
X152011945Y-46826770D01*
X151864498Y-46782369D01*
X151807155Y-46724400D01*
X151878810Y-46677619D01*
X152073483Y-46658389D01*
X152151582Y-46657722D01*
X152289194Y-46636683D01*
X152354289Y-46555871D01*
X152391975Y-46375174D01*
X152400200Y-46331665D01*
X152473263Y-46114424D01*
X152573773Y-45955450D01*
X152657978Y-45866143D01*
X152665459Y-45813066D01*
X152571195Y-45774796D01*
X152439650Y-45753437D01*
X152230538Y-45776419D01*
X152052704Y-45850035D01*
X151960486Y-45957983D01*
X151947908Y-45995864D01*
X151832187Y-46112077D01*
X151625949Y-46122291D01*
X151331673Y-46026237D01*
X151058841Y-45873806D01*
X150854579Y-45659943D01*
X150779554Y-45406983D01*
X150754691Y-45291236D01*
X150676370Y-45179801D01*
X150636624Y-45141657D01*
X150554506Y-45005277D01*
X150481544Y-44830485D01*
X150438316Y-44670756D01*
X150445400Y-44579564D01*
X150483993Y-44551123D01*
X150539491Y-44559632D01*
X150639643Y-44625622D01*
X150816610Y-44765175D01*
X150921029Y-44843221D01*
X151065314Y-44928323D01*
X151141886Y-44941410D01*
X151219715Y-44936367D01*
X151322158Y-45018538D01*
X151410139Y-45149912D01*
X151447500Y-45289327D01*
X151444760Y-45353203D01*
X151401277Y-45470903D01*
X151309264Y-45458368D01*
X151174386Y-45315063D01*
X151153550Y-45288056D01*
X151023739Y-45158765D01*
X150916221Y-45106167D01*
X150832424Y-45128011D01*
X150831989Y-45212398D01*
X150948853Y-45348805D01*
X151030156Y-45452046D01*
X151051241Y-45560714D01*
X151069782Y-45607443D01*
X151178063Y-45701566D01*
X151343879Y-45808356D01*
X151525012Y-45903866D01*
X151679242Y-45964144D01*
X151764351Y-45965242D01*
X151789232Y-45916513D01*
X151800567Y-45786924D01*
X151785306Y-45697836D01*
X153149361Y-45697836D01*
X153246667Y-45741167D01*
X153295291Y-45733697D01*
X153352500Y-45674775D01*
X153345216Y-45635698D01*
X153273904Y-45564186D01*
X153185953Y-45578455D01*
X153166797Y-45600423D01*
X153149361Y-45697836D01*
X151785306Y-45697836D01*
X151778539Y-45658328D01*
X151729723Y-45600055D01*
G37*
G36*
X151297309Y-43996359D02*
G01*
X151354101Y-44099340D01*
X151341467Y-44260131D01*
X151319594Y-44312322D01*
X151227840Y-44394821D01*
X151136295Y-44367750D01*
X151094723Y-44235981D01*
X151104635Y-44125273D01*
X151141760Y-44024315D01*
X151199150Y-43984321D01*
X151297309Y-43996359D01*
G37*
G36*
X150060158Y-42790550D02*
G01*
X150053648Y-42679720D01*
X150144322Y-42493291D01*
X150265681Y-42388010D01*
X150407230Y-42371108D01*
X150558843Y-42488193D01*
X150695396Y-42594346D01*
X150953915Y-42661730D01*
X151242415Y-42612641D01*
X151338782Y-42581234D01*
X151470679Y-42586403D01*
X151603298Y-42690606D01*
X151608604Y-42695913D01*
X151708085Y-42806852D01*
X151710922Y-42882652D01*
X151620784Y-42985114D01*
X151543000Y-43072552D01*
X151394937Y-43259408D01*
X151237222Y-43475301D01*
X151100329Y-43655943D01*
X150985351Y-43759683D01*
X150907612Y-43756713D01*
X150839785Y-43726949D01*
X150680865Y-43776067D01*
X150662385Y-43787309D01*
X150534679Y-43826780D01*
X150410753Y-43755565D01*
X150313511Y-43683985D01*
X150152541Y-43599352D01*
X150083061Y-43555726D01*
X150061416Y-43449382D01*
X150062983Y-43379678D01*
X149982011Y-43279373D01*
X149923000Y-43242507D01*
X149902664Y-43183598D01*
X149982268Y-43080877D01*
X150011828Y-43034910D01*
X150248056Y-43034910D01*
X150266979Y-43209483D01*
X150367137Y-43412262D01*
X150532280Y-43513710D01*
X150738376Y-43510228D01*
X150961394Y-43398217D01*
X151177303Y-43174079D01*
X151388190Y-42883667D01*
X150969923Y-42848389D01*
X150784218Y-42825386D01*
X150571195Y-42778839D01*
X150446281Y-42725529D01*
X150394693Y-42688768D01*
X150308733Y-42682966D01*
X150262101Y-42794838D01*
X150248056Y-43034910D01*
X150011828Y-43034910D01*
X150043763Y-42985249D01*
X150060158Y-42790550D01*
G37*
G36*
X150600834Y-41738702D02*
G01*
X150600757Y-41741418D01*
X150554966Y-41849781D01*
X150448034Y-42007401D01*
X150314104Y-42172147D01*
X150187315Y-42301890D01*
X150101808Y-42354500D01*
X150058794Y-42310734D01*
X150036389Y-42178111D01*
X150066356Y-42043763D01*
X150176156Y-42001722D01*
X150273522Y-41971121D01*
X150360194Y-41825333D01*
X150393680Y-41745179D01*
X150479103Y-41661471D01*
X150562985Y-41653973D01*
X150600834Y-41738702D01*
G37*
G36*
X150850182Y-41261873D02*
G01*
X150883056Y-41397836D01*
X150884699Y-41446638D01*
X150932381Y-41587933D01*
X151048535Y-41607793D01*
X151236606Y-41507283D01*
X151374267Y-41417607D01*
X151449311Y-41405166D01*
X151491919Y-41470934D01*
X151496418Y-41554521D01*
X151406096Y-41679977D01*
X151373144Y-41705171D01*
X151315954Y-41788678D01*
X151373090Y-41891244D01*
X151422669Y-41970377D01*
X151410137Y-42056733D01*
X151298248Y-42078750D01*
X151107919Y-42025810D01*
X151104492Y-42024343D01*
X150928852Y-41897113D01*
X150784122Y-41705497D01*
X150698470Y-41498021D01*
X150700065Y-41323208D01*
X150702873Y-41316135D01*
X150777267Y-41229397D01*
X150850182Y-41261873D01*
G37*
G36*
X150134642Y-41171984D02*
G01*
X150165035Y-41272681D01*
X150152599Y-41317295D01*
X150081684Y-41408152D01*
X150003007Y-41405490D01*
X149965834Y-41302046D01*
X149985243Y-41214406D01*
X150076840Y-41155055D01*
X150134642Y-41171984D01*
G37*
G36*
X150473801Y-41096793D02*
G01*
X150530278Y-41190333D01*
X150517985Y-41239689D01*
X150424445Y-41296167D01*
X150375089Y-41283874D01*
X150318612Y-41190333D01*
X150330904Y-41140977D01*
X150424445Y-41084500D01*
X150473801Y-41096793D01*
G37*
G36*
X150516167Y-40745833D02*
G01*
X150587291Y-40839290D01*
X150575151Y-40918970D01*
X150442804Y-40930657D01*
X150341763Y-40891284D01*
X150261242Y-40784639D01*
X150260290Y-40779225D01*
X150289116Y-40682085D01*
X150389483Y-40668660D01*
X150516167Y-40745833D01*
G37*
G36*
X151142943Y-40240641D02*
G01*
X151213721Y-40396583D01*
X151259173Y-40607246D01*
X151276128Y-40870968D01*
X151259835Y-41114799D01*
X151210507Y-41280065D01*
X151191164Y-41306510D01*
X151111776Y-41337748D01*
X151057866Y-41270877D01*
X151064379Y-41139510D01*
X151081820Y-41071609D01*
X151054612Y-41021094D01*
X150926138Y-41040959D01*
X150923053Y-41041728D01*
X150783354Y-41053682D01*
X150741945Y-40987660D01*
X150781857Y-40913519D01*
X150910551Y-40845813D01*
X151043993Y-40783227D01*
X151132472Y-40636720D01*
X151094470Y-40449027D01*
X151055088Y-40362450D01*
X151024167Y-40242472D01*
X151029647Y-40193191D01*
X151073792Y-40166508D01*
X151142943Y-40240641D01*
G37*
G36*
X150830666Y-40222817D02*
G01*
X150856865Y-40338088D01*
X150833667Y-40491833D01*
X150785865Y-40601890D01*
X150701830Y-40701954D01*
X150630773Y-40704371D01*
X150600834Y-40596491D01*
X150586825Y-40508842D01*
X150530278Y-40449500D01*
X150498527Y-40438344D01*
X150459723Y-40345881D01*
X150472501Y-40297635D01*
X150558419Y-40280135D01*
X150607722Y-40288417D01*
X150707494Y-40236496D01*
X150772562Y-40181417D01*
X150830666Y-40222817D01*
G37*
G36*
X150808181Y-39553747D02*
G01*
X150800294Y-39705466D01*
X150770111Y-39763835D01*
X150675926Y-39747464D01*
X150654009Y-39733023D01*
X150610716Y-39666845D01*
X150673347Y-39565196D01*
X150757205Y-39504309D01*
X150808181Y-39553747D01*
G37*
G36*
X150601552Y-39233764D02*
G01*
X150605278Y-39318459D01*
X150507869Y-39378653D01*
X150432349Y-39374019D01*
X150433385Y-39287477D01*
X150466071Y-39231408D01*
X150544263Y-39195921D01*
X150601552Y-39233764D01*
G37*
G36*
X150465173Y-38904368D02*
G01*
X150477325Y-39061649D01*
X150426302Y-39158237D01*
X150327420Y-39149666D01*
X150291562Y-39081463D01*
X150337404Y-38919487D01*
X150421430Y-38735069D01*
X150465173Y-38904368D01*
G37*
G36*
X155647476Y-38581774D02*
G01*
X155776973Y-38729272D01*
X155793710Y-38752786D01*
X155862791Y-38894449D01*
X155829106Y-38988894D01*
X155805068Y-39005489D01*
X155697293Y-38993969D01*
X155582443Y-38905414D01*
X155500745Y-38779577D01*
X155492427Y-38656209D01*
X155557277Y-38560240D01*
X155647476Y-38581774D01*
G37*
G36*
X154960326Y-38120727D02*
G01*
X154961590Y-38201686D01*
X154840184Y-38312702D01*
X154837643Y-38314283D01*
X154714413Y-38359709D01*
X154620464Y-38295101D01*
X154599152Y-38267021D01*
X154590495Y-38191967D01*
X154702641Y-38130156D01*
X154854714Y-38094146D01*
X154960326Y-38120727D01*
G37*
G36*
X155113048Y-37673807D02*
G01*
X155205273Y-37821305D01*
X155286202Y-37976019D01*
X155380150Y-38108567D01*
X155384841Y-38113606D01*
X155453935Y-38236025D01*
X155464093Y-38351905D01*
X155409547Y-38403389D01*
X155345213Y-38376214D01*
X155244328Y-38285222D01*
X155165495Y-38178667D01*
X155153218Y-38107856D01*
X155154710Y-38069718D01*
X155082817Y-37981471D01*
X155026520Y-37915014D01*
X154975278Y-37759750D01*
X154979677Y-37704292D01*
X155029179Y-37632482D01*
X155113048Y-37673807D01*
G37*
G36*
X156424705Y-38023244D02*
G01*
X156357879Y-37872430D01*
X156203859Y-37681049D01*
X155950329Y-37426350D01*
X155815827Y-37309456D01*
X155564131Y-37162397D01*
X155350335Y-37139179D01*
X155184463Y-37242212D01*
X155108148Y-37305568D01*
X155017074Y-37273681D01*
X155014603Y-37271148D01*
X154994082Y-37185228D01*
X155096902Y-37076663D01*
X155166617Y-37013271D01*
X155204112Y-36901775D01*
X155103158Y-36813695D01*
X154864368Y-36749895D01*
X154662952Y-36733313D01*
X154490683Y-36775697D01*
X154282285Y-36894898D01*
X154202326Y-36951444D01*
X154046356Y-37098664D01*
X153987500Y-37220641D01*
X153974093Y-37289970D01*
X153916945Y-37309778D01*
X153868787Y-37259747D01*
X153846127Y-37112331D01*
X153907066Y-36938097D01*
X154040417Y-36784626D01*
X154234445Y-36635760D01*
X154022778Y-36655269D01*
X153924615Y-36660204D01*
X153799776Y-36638138D01*
X153796270Y-36581909D01*
X153907897Y-36505216D01*
X154128457Y-36421758D01*
X154279312Y-36379808D01*
X154616817Y-36328104D01*
X154900128Y-36369725D01*
X155169136Y-36515229D01*
X155463732Y-36775176D01*
X155467342Y-36778780D01*
X155734925Y-37023048D01*
X156054402Y-37282719D01*
X156357404Y-37502175D01*
X156854636Y-37832734D01*
X157196914Y-37659450D01*
X157286460Y-37615571D01*
X157581221Y-37505888D01*
X157817391Y-37497380D01*
X158031406Y-37594992D01*
X158259697Y-37803667D01*
X158403472Y-37946458D01*
X158557356Y-38072593D01*
X158655824Y-38121167D01*
X158684986Y-38129619D01*
X158800802Y-38221119D01*
X158951651Y-38385640D01*
X159109904Y-38588705D01*
X159247933Y-38795840D01*
X159338110Y-38972567D01*
X159387211Y-39058871D01*
X159530620Y-39169334D01*
X159783145Y-39268377D01*
X160189315Y-39454670D01*
X160619660Y-39794757D01*
X161020898Y-40272580D01*
X161392804Y-40887911D01*
X161446260Y-40999756D01*
X161504784Y-41176297D01*
X161503866Y-41277965D01*
X161447103Y-41285563D01*
X161338092Y-41179898D01*
X161200360Y-41039678D01*
X161057524Y-40944872D01*
X160946577Y-40915447D01*
X160901945Y-40968119D01*
X160871070Y-41098040D01*
X160796546Y-41270463D01*
X160722853Y-41448366D01*
X160690713Y-41601545D01*
X160679375Y-41666340D01*
X160605703Y-41710217D01*
X160431311Y-41707379D01*
X160322604Y-41701162D01*
X160201539Y-41724894D01*
X160103754Y-41815349D01*
X159984976Y-42001722D01*
X159870578Y-42175370D01*
X159748525Y-42287965D01*
X159613993Y-42319222D01*
X159591102Y-42320495D01*
X159410894Y-42381393D01*
X159231301Y-42505813D01*
X159215515Y-42520129D01*
X159012509Y-42657659D01*
X158802917Y-42740725D01*
X158802636Y-42740784D01*
X158646905Y-42763580D01*
X158584811Y-42721214D01*
X158573612Y-42584579D01*
X158553578Y-42378966D01*
X158469912Y-42039739D01*
X158340352Y-41695271D01*
X158185895Y-41409212D01*
X158097561Y-41272637D01*
X158023896Y-41110993D01*
X158033660Y-40989178D01*
X158121912Y-40865196D01*
X158142817Y-40840288D01*
X158194450Y-40705029D01*
X158128886Y-40621850D01*
X157965881Y-40621594D01*
X157877112Y-40633538D01*
X157663143Y-40576502D01*
X157494204Y-40413100D01*
X157401430Y-40168335D01*
X157382150Y-40072991D01*
X157301003Y-39911480D01*
X157137365Y-39806373D01*
X157047282Y-39750385D01*
X156867702Y-39565582D01*
X156701168Y-39318422D01*
X156578157Y-39057716D01*
X156529149Y-38832278D01*
X156504664Y-38704077D01*
X156410111Y-38531731D01*
X156369632Y-38483405D01*
X156330267Y-38373391D01*
X156385044Y-38229513D01*
X156387925Y-38222836D01*
X156598056Y-38222836D01*
X156598330Y-38244424D01*
X156620897Y-38415401D01*
X156668612Y-38509222D01*
X156713553Y-38577362D01*
X156739167Y-38727864D01*
X156764905Y-38896147D01*
X156878743Y-39169498D01*
X157052879Y-39424490D01*
X157253541Y-39603625D01*
X157421991Y-39747507D01*
X157587669Y-40041829D01*
X157603153Y-40084462D01*
X157682744Y-40255184D01*
X157780568Y-40335996D01*
X157940163Y-40367070D01*
X158082991Y-40387096D01*
X158265247Y-40462166D01*
X158342420Y-40607240D01*
X158336097Y-40848571D01*
X158323704Y-41000657D01*
X158356112Y-41213034D01*
X158468167Y-41451029D01*
X158519122Y-41549214D01*
X158638415Y-41838312D01*
X158724456Y-42125194D01*
X158761471Y-42272086D01*
X158815232Y-42433050D01*
X158856126Y-42495611D01*
X158921560Y-42459080D01*
X159032492Y-42354202D01*
X159050741Y-42335831D01*
X159219297Y-42223999D01*
X159431012Y-42139943D01*
X159647001Y-42045696D01*
X159809331Y-41858683D01*
X159882704Y-41743077D01*
X160044966Y-41575299D01*
X160218473Y-41470692D01*
X160362368Y-41458798D01*
X160395688Y-41460147D01*
X160496774Y-41367793D01*
X160619760Y-41139860D01*
X160692581Y-40998209D01*
X160808519Y-40830177D01*
X160905580Y-40751215D01*
X160927309Y-40745272D01*
X160987801Y-40711227D01*
X160976950Y-40637885D01*
X160892837Y-40485186D01*
X160675669Y-40194922D01*
X160370168Y-39898603D01*
X160031237Y-39648840D01*
X159706521Y-39485769D01*
X159669359Y-39472458D01*
X159481347Y-39391084D01*
X159334796Y-39286247D01*
X159192519Y-39124948D01*
X159017325Y-38874184D01*
X158889739Y-38693863D01*
X158659577Y-38428792D01*
X158458734Y-38279033D01*
X158419576Y-38259708D01*
X158278060Y-38176063D01*
X158220834Y-38117720D01*
X158218591Y-38108064D01*
X158156169Y-38016850D01*
X158034824Y-37883843D01*
X157892861Y-37762365D01*
X157748298Y-37710550D01*
X157569571Y-37737457D01*
X157313545Y-37840494D01*
X157227779Y-37876304D01*
X156992249Y-37950513D01*
X156802018Y-37980055D01*
X156672355Y-37991982D01*
X156610627Y-38058598D01*
X156598056Y-38222836D01*
X156387925Y-38222836D01*
X156416650Y-38156241D01*
X156424705Y-38023244D01*
G37*
G36*
X153813186Y-36221258D02*
G01*
X153822871Y-36263204D01*
X153812530Y-36271648D01*
X153728797Y-36263204D01*
X153717759Y-36241982D01*
X153775834Y-36216167D01*
X153813186Y-36221258D01*
G37*
G36*
X154003468Y-36146420D02*
G01*
X154058056Y-36176725D01*
X154054809Y-36188043D01*
X153987500Y-36251444D01*
X153960170Y-36262469D01*
X153916945Y-36220331D01*
X153919656Y-36199851D01*
X153987500Y-36145611D01*
X154003468Y-36146420D01*
G37*
G36*
X150341625Y-36804635D02*
G01*
X150352827Y-36798564D01*
X150460918Y-36764410D01*
X150640299Y-36718835D01*
X150745913Y-36694176D01*
X150935296Y-36659907D01*
X151058606Y-36677024D01*
X151141879Y-36766648D01*
X151211153Y-36949903D01*
X151292465Y-37247912D01*
X151326338Y-37378282D01*
X151386982Y-37627939D01*
X151424181Y-37805522D01*
X151430917Y-37879046D01*
X151359235Y-37912334D01*
X151200865Y-37951594D01*
X151014853Y-37982306D01*
X150855999Y-37995722D01*
X150779101Y-37983095D01*
X150739736Y-37901084D01*
X150667435Y-37725515D01*
X150579425Y-37498349D01*
X150489272Y-37256133D01*
X150410543Y-37035411D01*
X150391822Y-36978739D01*
X150617142Y-36978739D01*
X150623897Y-37121658D01*
X150676865Y-37330027D01*
X150782195Y-37594551D01*
X150904137Y-37773294D01*
X151027328Y-37838944D01*
X151134035Y-37818270D01*
X151201796Y-37724881D01*
X151199250Y-37540363D01*
X151129369Y-37247492D01*
X151073556Y-37073530D01*
X151009730Y-36917257D01*
X150966244Y-36860775D01*
X150900260Y-36873618D01*
X150751946Y-36901961D01*
X150697238Y-36914929D01*
X150617142Y-36978739D01*
X150391822Y-36978739D01*
X150356805Y-36872730D01*
X150341625Y-36804635D01*
G37*
G36*
X151278678Y-36710055D02*
G01*
X151255297Y-36708740D01*
X151231913Y-36679553D01*
X151305302Y-36624918D01*
X151446141Y-36561955D01*
X151625108Y-36507785D01*
X151725519Y-36484754D01*
X151953694Y-36442338D01*
X152082996Y-36447087D01*
X152141072Y-36504946D01*
X152155569Y-36621861D01*
X152165839Y-36741335D01*
X152203514Y-36976309D01*
X152258900Y-37238197D01*
X152299521Y-37437200D01*
X152320652Y-37618752D01*
X152309304Y-37706202D01*
X152284535Y-37721381D01*
X152157331Y-37759865D01*
X151977981Y-37791703D01*
X151794030Y-37811218D01*
X151653018Y-37812735D01*
X151602489Y-37790578D01*
X151604940Y-37750971D01*
X151581567Y-37599043D01*
X151529861Y-37385331D01*
X151461770Y-37149704D01*
X151389244Y-36932036D01*
X151338217Y-36806585D01*
X151533287Y-36806585D01*
X151565264Y-36952760D01*
X151635457Y-37205010D01*
X151702097Y-37427493D01*
X151763769Y-37559555D01*
X151839468Y-37615614D01*
X151952957Y-37627278D01*
X152012426Y-37625434D01*
X152108674Y-37597348D01*
X152146954Y-37514316D01*
X152133091Y-37349593D01*
X152072908Y-37076438D01*
X152068883Y-37059843D01*
X152008645Y-36838114D01*
X151947787Y-36723125D01*
X151858277Y-36685226D01*
X151712084Y-36694765D01*
X151602592Y-36708505D01*
X151544178Y-36735496D01*
X151533287Y-36806585D01*
X151338217Y-36806585D01*
X151324230Y-36772196D01*
X151278678Y-36710055D01*
G37*
G36*
X152265062Y-36501459D02*
G01*
X152243051Y-36450948D01*
X152282705Y-36409824D01*
X152409008Y-36363184D01*
X152646945Y-36296123D01*
X152819353Y-36252081D01*
X152958285Y-36242245D01*
X153040716Y-36302945D01*
X153092906Y-36457117D01*
X153141116Y-36727694D01*
X153146984Y-36763529D01*
X153199653Y-37089291D01*
X153224996Y-37304522D01*
X153215917Y-37436012D01*
X153165325Y-37510550D01*
X153066124Y-37554928D01*
X152911222Y-37595934D01*
X152793839Y-37623295D01*
X152626807Y-37647914D01*
X152550161Y-37637684D01*
X152549218Y-37635802D01*
X152523554Y-37540593D01*
X152482801Y-37348242D01*
X152435338Y-37098111D01*
X152433819Y-37089743D01*
X152379734Y-36832399D01*
X152323454Y-36626829D01*
X152314402Y-36605436D01*
X152505834Y-36605436D01*
X152508834Y-36645585D01*
X152532418Y-36800386D01*
X152571344Y-37008531D01*
X152615818Y-37221913D01*
X152656048Y-37392426D01*
X152682239Y-37471962D01*
X152747630Y-37473222D01*
X152892520Y-37444928D01*
X152897845Y-37443589D01*
X153003081Y-37409076D01*
X153052872Y-37349163D01*
X153059457Y-37225697D01*
X153035075Y-37000522D01*
X153011304Y-36834486D01*
X152973488Y-36638634D01*
X152939924Y-36533667D01*
X152846658Y-36485611D01*
X152699887Y-36487376D01*
X152564991Y-36530837D01*
X152505834Y-36605436D01*
X152314402Y-36605436D01*
X152276925Y-36516863D01*
X152265062Y-36501459D01*
G37*
G36*
X149684455Y-34973729D02*
G01*
X149713999Y-34937275D01*
X149848115Y-34877179D01*
X150054028Y-34824248D01*
X150197290Y-34797032D01*
X150390351Y-34761544D01*
X150495995Y-34743769D01*
X150502031Y-34744159D01*
X150537893Y-34782721D01*
X150587185Y-34891895D01*
X150654232Y-35084897D01*
X150743361Y-35374941D01*
X150858899Y-35775242D01*
X151005172Y-36299014D01*
X150997633Y-36374996D01*
X150903742Y-36428927D01*
X150695859Y-36473733D01*
X150580726Y-36492320D01*
X150393399Y-36520265D01*
X150292519Y-36531998D01*
X150252221Y-36477189D01*
X150176202Y-36319283D01*
X150077915Y-36089697D01*
X149969700Y-35820066D01*
X149863904Y-35542020D01*
X149772868Y-35287194D01*
X149717508Y-35114028D01*
X149895278Y-35114028D01*
X149898477Y-35125718D01*
X149935915Y-35235558D01*
X150006535Y-35434530D01*
X150099135Y-35690938D01*
X150143852Y-35812334D01*
X150238067Y-36045228D01*
X150315686Y-36181596D01*
X150395371Y-36248899D01*
X150495786Y-36274599D01*
X150640291Y-36274283D01*
X150749928Y-36236405D01*
X150756491Y-36224573D01*
X150757293Y-36103065D01*
X150720322Y-35888444D01*
X150650800Y-35613528D01*
X150617112Y-35497274D01*
X150541110Y-35261396D01*
X150476362Y-35125091D01*
X150406779Y-35060826D01*
X150316273Y-35041072D01*
X150266489Y-35039631D01*
X150099306Y-35051337D01*
X149956046Y-35079519D01*
X149895278Y-35114028D01*
X149717508Y-35114028D01*
X149708938Y-35087219D01*
X149684455Y-34973729D01*
G37*
G36*
X150778040Y-34760251D02*
G01*
X150766212Y-34695956D01*
X150820591Y-34682060D01*
X150978006Y-34642317D01*
X151200556Y-34586327D01*
X151400561Y-34540432D01*
X151585315Y-34508101D01*
X151676806Y-34505563D01*
X151712896Y-34571977D01*
X151732132Y-34721025D01*
X151740905Y-34815305D01*
X151780518Y-35047639D01*
X151845220Y-35357612D01*
X151927533Y-35710158D01*
X152019973Y-36070212D01*
X152009645Y-36122620D01*
X151898589Y-36191844D01*
X151660974Y-36260167D01*
X151497701Y-36294234D01*
X151323408Y-36320224D01*
X151243049Y-36317456D01*
X151236183Y-36303972D01*
X151196246Y-36189771D01*
X151132156Y-35986910D01*
X151053302Y-35727320D01*
X150969074Y-35442929D01*
X150888861Y-35165668D01*
X150822988Y-34930799D01*
X151019460Y-34930799D01*
X151050226Y-35123727D01*
X151132816Y-35435501D01*
X151159470Y-35526322D01*
X151237363Y-35781943D01*
X151300071Y-35973794D01*
X151335988Y-36065866D01*
X151385762Y-36093491D01*
X151523280Y-36095110D01*
X151674579Y-36058845D01*
X151770335Y-35995869D01*
X151775314Y-35973925D01*
X151768252Y-35836738D01*
X151736353Y-35611543D01*
X151684257Y-35334016D01*
X151658246Y-35215997D01*
X151593180Y-34971123D01*
X151532271Y-34802997D01*
X151485937Y-34742684D01*
X151412020Y-34753921D01*
X151218919Y-34794285D01*
X151048616Y-34839636D01*
X151038861Y-34844980D01*
X151019460Y-34930799D01*
X150822988Y-34930799D01*
X150822053Y-34927465D01*
X150778040Y-34760251D01*
G37*
G36*
X151885034Y-34527508D02*
G01*
X151870834Y-34437942D01*
X151871462Y-34433756D01*
X151943939Y-34394633D01*
X152100139Y-34374689D01*
X152303195Y-34354777D01*
X152505834Y-34311167D01*
X152632262Y-34272472D01*
X152727022Y-34247644D01*
X152729413Y-34247754D01*
X152757540Y-34303229D01*
X152794465Y-34463743D01*
X152841721Y-34738115D01*
X152900844Y-35135166D01*
X152973366Y-35663716D01*
X153017355Y-35993209D01*
X152673400Y-36050102D01*
X152522015Y-36074909D01*
X152335882Y-36099233D01*
X152238322Y-36090822D01*
X152196550Y-36042992D01*
X152177783Y-35949059D01*
X152169271Y-35899707D01*
X152132374Y-35711092D01*
X152077151Y-35444531D01*
X152012002Y-35140974D01*
X151978352Y-34985170D01*
X151930442Y-34756118D01*
X152097113Y-34756118D01*
X152128425Y-34943455D01*
X152189397Y-35241415D01*
X152238237Y-35477019D01*
X152290796Y-35707105D01*
X152337177Y-35838035D01*
X152391682Y-35892391D01*
X152468614Y-35892753D01*
X152582274Y-35861701D01*
X152598517Y-35857006D01*
X152752511Y-35808318D01*
X152826329Y-35777371D01*
X152828176Y-35762779D01*
X152817874Y-35642827D01*
X152789614Y-35430141D01*
X152747602Y-35157833D01*
X152729095Y-35044228D01*
X152688235Y-34792086D01*
X152659552Y-34613161D01*
X152648355Y-34540472D01*
X152590481Y-34529987D01*
X152439076Y-34541573D01*
X152241250Y-34572627D01*
X152202673Y-34580027D01*
X152132083Y-34602186D01*
X152097615Y-34651622D01*
X152097113Y-34756118D01*
X151930442Y-34756118D01*
X151923127Y-34721141D01*
X151885034Y-34527508D01*
G37*
G36*
X148787629Y-32575727D02*
G01*
X148856675Y-32555677D01*
X149026630Y-32513411D01*
X149260278Y-32458226D01*
X149493518Y-32405392D01*
X149688529Y-32363454D01*
X149789445Y-32344619D01*
X149797374Y-32351015D01*
X149844381Y-32450386D01*
X149918711Y-32648465D01*
X150011524Y-32917420D01*
X150113980Y-33229416D01*
X150217239Y-33556619D01*
X150312463Y-33871196D01*
X150390810Y-34145312D01*
X150443443Y-34351134D01*
X150461520Y-34460827D01*
X150461402Y-34461650D01*
X150393790Y-34493106D01*
X150232104Y-34533906D01*
X150020637Y-34575338D01*
X149803678Y-34608691D01*
X149625521Y-34625254D01*
X149615051Y-34622014D01*
X149545330Y-34529552D01*
X149440656Y-34320232D01*
X149307635Y-34008272D01*
X149152872Y-33607889D01*
X149078034Y-33405498D01*
X148959292Y-33079807D01*
X148865925Y-32817728D01*
X148832833Y-32720722D01*
X149064647Y-32720722D01*
X149084083Y-32801873D01*
X149142362Y-32987260D01*
X149231054Y-33251034D01*
X149341729Y-33567347D01*
X149637028Y-34397087D01*
X149913091Y-34360059D01*
X150093176Y-34331525D01*
X150209947Y-34282540D01*
X150233093Y-34188177D01*
X150188558Y-34016033D01*
X150173074Y-33966325D01*
X150108210Y-33754516D01*
X150022522Y-33471570D01*
X149930312Y-33164639D01*
X149886441Y-33025332D01*
X149796802Y-32780943D01*
X149717564Y-32613875D01*
X149661703Y-32553641D01*
X149626382Y-32558585D01*
X149481532Y-32590973D01*
X149301318Y-32639226D01*
X149143331Y-32687347D01*
X149065160Y-32719339D01*
X149064647Y-32720722D01*
X148832833Y-32720722D01*
X148806011Y-32642091D01*
X148787629Y-32575727D01*
G37*
G36*
X150069017Y-32353552D02*
G01*
X150115558Y-32295978D01*
X150254412Y-32241071D01*
X150509147Y-32176690D01*
X150575184Y-32161642D01*
X150855906Y-32100049D01*
X151029669Y-32071383D01*
X151122079Y-32076041D01*
X151158747Y-32114426D01*
X151165278Y-32186936D01*
X151166046Y-32201684D01*
X151187448Y-32343812D01*
X151233819Y-32586872D01*
X151299223Y-32900980D01*
X151377721Y-33256252D01*
X151400358Y-33356494D01*
X151472876Y-33685723D01*
X151529076Y-33953536D01*
X151563764Y-34134584D01*
X151571749Y-34203521D01*
X151508698Y-34229342D01*
X151342892Y-34277166D01*
X151128565Y-34329201D01*
X150911894Y-34375152D01*
X150739053Y-34404724D01*
X150656219Y-34407624D01*
X150628900Y-34374783D01*
X150600834Y-34251564D01*
X150586759Y-34167655D01*
X150539736Y-33971814D01*
X150468621Y-33702114D01*
X150382724Y-33391509D01*
X150291354Y-33072951D01*
X150203822Y-32779394D01*
X150129435Y-32543792D01*
X150111987Y-32495179D01*
X150318612Y-32495179D01*
X150335403Y-32583502D01*
X150383625Y-32780022D01*
X150455692Y-33053898D01*
X150543991Y-33375394D01*
X150769370Y-34180615D01*
X151020241Y-34134567D01*
X151048631Y-34129086D01*
X151224899Y-34082664D01*
X151326403Y-34035190D01*
X151328105Y-34032998D01*
X151332282Y-33937634D01*
X151308158Y-33735475D01*
X151259898Y-33454692D01*
X151191664Y-33123458D01*
X151185341Y-33095086D01*
X151106794Y-32771228D01*
X151031832Y-32509123D01*
X150968465Y-32334316D01*
X150924706Y-32272348D01*
X150924631Y-32272355D01*
X150730149Y-32307564D01*
X150532918Y-32367982D01*
X150380038Y-32436293D01*
X150318612Y-32495179D01*
X150111987Y-32495179D01*
X150077505Y-32399099D01*
X150069017Y-32353552D01*
G37*
G36*
X151334647Y-32079181D02*
G01*
X151382590Y-32017752D01*
X151523643Y-31959947D01*
X151781107Y-31894050D01*
X152075918Y-31828305D01*
X152271211Y-31791528D01*
X152379471Y-31785345D01*
X152426200Y-31808405D01*
X152436900Y-31859361D01*
X152437307Y-31867193D01*
X152451159Y-31987605D01*
X152481653Y-32213442D01*
X152524744Y-32515550D01*
X152576389Y-32864778D01*
X152585011Y-32922328D01*
X152635674Y-33268582D01*
X152677088Y-33565110D01*
X152705181Y-33781997D01*
X152715879Y-33889329D01*
X152685513Y-33948837D01*
X152546510Y-34016292D01*
X152281283Y-34079558D01*
X152192557Y-34096020D01*
X151949932Y-34130912D01*
X151809755Y-34122399D01*
X151745271Y-34064198D01*
X151729723Y-33950024D01*
X151725106Y-33902578D01*
X151695745Y-33728154D01*
X151645558Y-33469523D01*
X151581876Y-33161062D01*
X151512027Y-32837149D01*
X151443342Y-32532159D01*
X151383150Y-32280470D01*
X151358332Y-32188731D01*
X151537380Y-32188731D01*
X151544834Y-32288190D01*
X151563818Y-32366465D01*
X151610449Y-32571689D01*
X151672376Y-32852551D01*
X151741392Y-33172135D01*
X151897588Y-33902825D01*
X152172260Y-33865984D01*
X152224168Y-33858421D01*
X152396943Y-33823567D01*
X152486394Y-33789681D01*
X152487381Y-33788355D01*
X152490864Y-33699401D01*
X152474230Y-33501226D01*
X152440420Y-33221969D01*
X152392372Y-32889772D01*
X152388648Y-32865930D01*
X152332014Y-32538839D01*
X152275509Y-32269622D01*
X152225495Y-32085587D01*
X152188334Y-32014041D01*
X152159092Y-32012423D01*
X152013395Y-32028433D01*
X151811125Y-32066846D01*
X151771282Y-32075875D01*
X151602498Y-32126574D01*
X151537380Y-32188731D01*
X151358332Y-32188731D01*
X151338781Y-32116459D01*
X151334647Y-32079181D01*
G37*
G36*
X161768321Y-79774550D02*
G01*
X161973901Y-79849256D01*
X162284427Y-79977791D01*
X162969141Y-80268443D01*
X163133356Y-80062498D01*
X163156595Y-80033509D01*
X163259933Y-79921243D01*
X163332278Y-79907100D01*
X163418700Y-79977684D01*
X163492504Y-80067034D01*
X163482995Y-80146711D01*
X163379733Y-80269230D01*
X163279907Y-80339708D01*
X163078508Y-80450718D01*
X162810073Y-80584850D01*
X162506667Y-80727451D01*
X162200356Y-80863869D01*
X161923205Y-80979451D01*
X161707279Y-81059546D01*
X161584645Y-81089500D01*
X161556483Y-81075470D01*
X161536737Y-80981536D01*
X161562166Y-80852678D01*
X161625139Y-80752421D01*
X161699578Y-80713556D01*
X161883881Y-80649313D01*
X162119028Y-80586628D01*
X162298649Y-80537626D01*
X162461813Y-80473679D01*
X162524723Y-80420531D01*
X162472097Y-80373234D01*
X162315453Y-80307664D01*
X162091165Y-80242546D01*
X161935870Y-80199956D01*
X161678045Y-80089056D01*
X161553419Y-79956490D01*
X161557100Y-79798188D01*
X161579991Y-79763904D01*
X161644686Y-79747993D01*
X161768321Y-79774550D01*
G37*
G36*
X162295169Y-78807657D02*
G01*
X162329242Y-78808278D01*
X162612993Y-78815421D01*
X162786956Y-78830054D01*
X162879695Y-78861125D01*
X162919772Y-78917585D01*
X162935750Y-79008384D01*
X162958722Y-79197898D01*
X162478113Y-79173560D01*
X162371808Y-79168411D01*
X162157610Y-79164667D01*
X162033291Y-79185173D01*
X161961401Y-79241007D01*
X161904486Y-79343250D01*
X161833693Y-79455371D01*
X161707150Y-79536340D01*
X161583828Y-79490087D01*
X161583850Y-79423767D01*
X161659326Y-79307325D01*
X161724082Y-79230882D01*
X161741457Y-79157216D01*
X161659480Y-79082155D01*
X161582035Y-79008651D01*
X161540092Y-78894484D01*
X161607252Y-78819963D01*
X161631333Y-78815760D01*
X161775369Y-78808065D01*
X162008959Y-78805144D01*
X162295169Y-78807657D01*
G37*
G36*
X159096286Y-78472557D02*
G01*
X159124025Y-78489939D01*
X159267596Y-78558765D01*
X159493533Y-78655082D01*
X159766948Y-78763742D01*
X160360562Y-78991983D01*
X160493481Y-78809515D01*
X160614870Y-78690811D01*
X160728894Y-78666377D01*
X160799750Y-78710608D01*
X160823277Y-78818904D01*
X160736623Y-78957745D01*
X160553175Y-79114067D01*
X160286320Y-79274810D01*
X159949445Y-79426911D01*
X159947176Y-79427797D01*
X159667123Y-79539717D01*
X159406743Y-79648099D01*
X159222133Y-79729595D01*
X159152183Y-79759455D01*
X158981425Y-79790218D01*
X158903602Y-79723739D01*
X158927735Y-79565060D01*
X158993219Y-79475256D01*
X159147479Y-79394221D01*
X159414252Y-79321201D01*
X159600142Y-79272361D01*
X159778165Y-79200855D01*
X159843612Y-79134668D01*
X159837515Y-79099242D01*
X159766276Y-79043389D01*
X159703093Y-79034035D01*
X159531254Y-78993781D01*
X159307665Y-78932549D01*
X159228372Y-78908783D01*
X159039783Y-78837314D01*
X158949532Y-78762466D01*
X158926389Y-78662086D01*
X158935764Y-78556810D01*
X158972814Y-78456038D01*
X158999651Y-78442361D01*
X159096286Y-78472557D01*
G37*
G36*
X159907069Y-77544447D02*
G01*
X160289491Y-77558733D01*
X160320795Y-77596130D01*
X160324769Y-77720472D01*
X160306380Y-77793764D01*
X160247313Y-77851157D01*
X160116349Y-77879528D01*
X159878889Y-77892203D01*
X159687266Y-77898296D01*
X159485084Y-77905290D01*
X159375010Y-77909842D01*
X159310994Y-77956767D01*
X159250194Y-78090889D01*
X159197539Y-78204074D01*
X159066156Y-78267278D01*
X158963434Y-78235808D01*
X158931265Y-78134276D01*
X159009389Y-78000834D01*
X159011148Y-77999060D01*
X159049665Y-77907007D01*
X158975074Y-77788204D01*
X158912402Y-77692978D01*
X158923775Y-77592509D01*
X158926910Y-77589924D01*
X159033840Y-77564539D01*
X159251403Y-77548038D01*
X159551760Y-77541111D01*
X159907069Y-77544447D01*
G37*
G36*
X161657423Y-77356108D02*
G01*
X161770405Y-77188775D01*
X161960535Y-77088665D01*
X162187508Y-77037153D01*
X162489245Y-77061190D01*
X162730413Y-77192911D01*
X162889705Y-77418566D01*
X162945812Y-77724407D01*
X162916357Y-77960905D01*
X162785710Y-78207814D01*
X162553153Y-78357822D01*
X162221376Y-78408389D01*
X162040837Y-78386934D01*
X161795732Y-78263375D01*
X161636024Y-78049297D01*
X161575309Y-77766893D01*
X161597717Y-77624979D01*
X161847953Y-77624979D01*
X161860500Y-77828442D01*
X161901253Y-77919173D01*
X162004341Y-78006708D01*
X162195793Y-78042525D01*
X162233292Y-78044769D01*
X162431477Y-78030632D01*
X162564924Y-77980969D01*
X162621665Y-77909943D01*
X162665052Y-77732025D01*
X162632901Y-77548057D01*
X162529361Y-77423093D01*
X162333919Y-77357657D01*
X162115518Y-77370887D01*
X161943244Y-77466228D01*
X161847953Y-77624979D01*
X161597717Y-77624979D01*
X161627182Y-77438359D01*
X161657423Y-77356108D01*
G37*
G36*
X162286525Y-76081823D02*
G01*
X162591466Y-76097762D01*
X162788077Y-76138885D01*
X162897087Y-76215499D01*
X162939229Y-76337908D01*
X162935231Y-76516419D01*
X162897106Y-76662738D01*
X162817398Y-76747605D01*
X162733013Y-76727265D01*
X162678565Y-76591583D01*
X162654365Y-76514242D01*
X162590287Y-76463707D01*
X162461308Y-76436967D01*
X162242107Y-76428854D01*
X161907362Y-76434200D01*
X161874607Y-76469041D01*
X161854445Y-76592950D01*
X161842732Y-76686211D01*
X161772976Y-76735990D01*
X161606156Y-76725639D01*
X161569062Y-76675253D01*
X161578527Y-76538667D01*
X161590875Y-76482289D01*
X161578461Y-76385520D01*
X161474038Y-76362278D01*
X161373771Y-76337808D01*
X161325278Y-76221167D01*
X161325544Y-76205848D01*
X161340274Y-76147668D01*
X161395742Y-76110835D01*
X161517038Y-76090512D01*
X161729252Y-76081864D01*
X162057472Y-76080055D01*
X162286525Y-76081823D01*
G37*
G36*
X159484062Y-76309099D02*
G01*
X159513735Y-76099819D01*
X159563239Y-75971994D01*
X159566282Y-75968488D01*
X159696854Y-75897672D01*
X159885046Y-75868389D01*
X160020080Y-75884117D01*
X160177660Y-75985930D01*
X160250842Y-76189931D01*
X160244630Y-76504982D01*
X160236787Y-76591104D01*
X160240772Y-76795612D01*
X160279375Y-76910930D01*
X160282517Y-76914106D01*
X160330693Y-77005807D01*
X160258190Y-77064489D01*
X160059081Y-77092079D01*
X159727441Y-77090505D01*
X159670497Y-77088143D01*
X159351204Y-77061795D01*
X159145004Y-77002616D01*
X159027629Y-76889124D01*
X158974810Y-76699840D01*
X158962279Y-76413287D01*
X158965275Y-76201342D01*
X158983752Y-76050805D01*
X159028760Y-75979222D01*
X159111205Y-75952883D01*
X159185215Y-75950123D01*
X159234224Y-75991240D01*
X159252751Y-76110278D01*
X159252316Y-76338734D01*
X159251233Y-76413555D01*
X159259659Y-76621147D01*
X159294263Y-76729254D01*
X159363356Y-76770169D01*
X159384585Y-76773410D01*
X159446061Y-76750864D01*
X159474374Y-76648129D01*
X159477909Y-76515148D01*
X159702500Y-76515148D01*
X159704018Y-76584566D01*
X159734263Y-76739078D01*
X159810080Y-76785611D01*
X159901635Y-76737995D01*
X159986317Y-76601876D01*
X160027755Y-76434929D01*
X160002817Y-76295922D01*
X159895936Y-76174217D01*
X159796546Y-76166783D01*
X159728030Y-76283374D01*
X159702500Y-76515148D01*
X159477909Y-76515148D01*
X159480038Y-76435007D01*
X159484062Y-76309099D01*
G37*
G36*
X159590105Y-74881396D02*
G01*
X159890927Y-74893548D01*
X160085953Y-74930086D01*
X160199814Y-75003282D01*
X160257144Y-75125413D01*
X160282575Y-75308754D01*
X160287099Y-75429935D01*
X160255853Y-75527128D01*
X160161112Y-75550889D01*
X160067546Y-75524875D01*
X159997454Y-75392139D01*
X159995442Y-75378977D01*
X159958000Y-75285423D01*
X159860334Y-75243229D01*
X159662315Y-75233389D01*
X159577704Y-75233240D01*
X159394490Y-75231766D01*
X159296806Y-75229225D01*
X159254246Y-75264118D01*
X159205431Y-75387975D01*
X159176588Y-75466072D01*
X159088672Y-75545456D01*
X159000903Y-75517048D01*
X158960059Y-75381987D01*
X158934816Y-75269218D01*
X158801309Y-75154955D01*
X158742249Y-75129254D01*
X158648252Y-75035813D01*
X158691204Y-74927648D01*
X158727691Y-74915294D01*
X158882351Y-74897445D01*
X159125301Y-74885174D01*
X159423398Y-74880611D01*
X159590105Y-74881396D01*
G37*
G36*
X149281840Y-74845598D02*
G01*
X149425613Y-74847123D01*
X149679026Y-74849821D01*
X150022432Y-74853481D01*
X150436182Y-74857896D01*
X150900628Y-74862855D01*
X150923531Y-74863099D01*
X151526565Y-74869522D01*
X152213780Y-74876815D01*
X152930569Y-74884399D01*
X153622326Y-74891698D01*
X154234445Y-74898132D01*
X154263419Y-74898437D01*
X154792251Y-74904667D01*
X155201070Y-74912009D01*
X155509998Y-74922283D01*
X155739157Y-74937308D01*
X155908669Y-74958902D01*
X156038656Y-74988885D01*
X156149240Y-75029076D01*
X156260543Y-75081293D01*
X156694635Y-75354241D01*
X157114722Y-75750773D01*
X157444382Y-76216628D01*
X157658460Y-76722276D01*
X157666274Y-76767022D01*
X157681425Y-76952661D01*
X157695562Y-77251046D01*
X157708131Y-77643289D01*
X157718578Y-78110505D01*
X157726351Y-78633808D01*
X157730896Y-79194311D01*
X157741718Y-81451511D01*
X156675960Y-81464533D01*
X155610201Y-81477555D01*
X155610239Y-79366444D01*
X155610200Y-79194716D01*
X155609034Y-78619411D01*
X155605651Y-78165648D01*
X155599243Y-77817907D01*
X155589000Y-77560667D01*
X155574114Y-77378408D01*
X155553776Y-77255608D01*
X155527178Y-77176748D01*
X155493510Y-77126306D01*
X155469837Y-77103662D01*
X155423975Y-77076481D01*
X155351937Y-77054353D01*
X155240954Y-77036762D01*
X155078255Y-77023190D01*
X154851070Y-77013123D01*
X154546627Y-77006044D01*
X154152157Y-77001437D01*
X153654887Y-76998786D01*
X153042049Y-76997575D01*
X152300871Y-76997288D01*
X149225000Y-76997298D01*
X149238804Y-75921316D01*
X149241505Y-75716155D01*
X149246390Y-75371450D01*
X149250761Y-75095287D01*
X149254221Y-74911853D01*
X149256376Y-74845333D01*
X149281840Y-74845598D01*
G37*
G36*
X162199759Y-74564600D02*
G01*
X162286112Y-74467993D01*
X162479050Y-74384676D01*
X162682050Y-74416789D01*
X162849522Y-74564349D01*
X162892505Y-74641942D01*
X162935417Y-74827229D01*
X162919968Y-75088279D01*
X162910386Y-75173612D01*
X162908626Y-75380635D01*
X162947471Y-75479972D01*
X162954152Y-75484210D01*
X163004842Y-75554815D01*
X162925312Y-75609266D01*
X162725345Y-75644317D01*
X162414725Y-75656722D01*
X162076428Y-75642304D01*
X161838077Y-75584198D01*
X161695226Y-75463152D01*
X161625743Y-75259940D01*
X161607500Y-74955331D01*
X161613061Y-74769286D01*
X161650018Y-74561957D01*
X161727718Y-74470843D01*
X161853234Y-74482328D01*
X161892168Y-74505961D01*
X161917193Y-74594581D01*
X161881148Y-74773225D01*
X161864714Y-74839645D01*
X161845046Y-75082492D01*
X161901867Y-75244807D01*
X162028874Y-75303944D01*
X162106598Y-75286214D01*
X162135701Y-75204974D01*
X162120863Y-75023211D01*
X162120137Y-74990868D01*
X162350351Y-74990868D01*
X162358289Y-75178484D01*
X162413551Y-75299514D01*
X162481695Y-75332028D01*
X162579268Y-75288625D01*
X162642718Y-75149707D01*
X162653009Y-74943570D01*
X162645364Y-74888640D01*
X162588471Y-74735001D01*
X162505194Y-74677514D01*
X162419966Y-74737757D01*
X162388981Y-74802746D01*
X162350351Y-74990868D01*
X162120137Y-74990868D01*
X162115814Y-74797989D01*
X162199759Y-74564600D01*
G37*
G36*
X162402870Y-73399058D02*
G01*
X162667837Y-73402342D01*
X162829076Y-73414975D01*
X162912351Y-73443284D01*
X162943423Y-73493597D01*
X162948056Y-73572242D01*
X162946844Y-73619524D01*
X162925323Y-73690874D01*
X162853199Y-73731489D01*
X162700319Y-73752809D01*
X162436528Y-73766270D01*
X162376218Y-73768812D01*
X162133107Y-73784529D01*
X161994024Y-73811500D01*
X161927793Y-73859871D01*
X161903236Y-73939784D01*
X161869435Y-74044972D01*
X161756759Y-74134584D01*
X161603908Y-74102280D01*
X161577710Y-74084093D01*
X161551673Y-74016811D01*
X161629725Y-73907257D01*
X161680936Y-73847148D01*
X161712401Y-73762014D01*
X161644558Y-73682644D01*
X161586736Y-73619330D01*
X161536945Y-73496139D01*
X161537351Y-73489553D01*
X161575948Y-73445562D01*
X161692304Y-73417730D01*
X161907471Y-73403157D01*
X162242500Y-73398944D01*
X162402870Y-73399058D01*
G37*
G36*
X159088409Y-73390185D02*
G01*
X159234300Y-73269799D01*
X159393320Y-73216317D01*
X159662553Y-73202805D01*
X159920168Y-73264290D01*
X160124788Y-73388622D01*
X160235040Y-73563653D01*
X160245869Y-73625488D01*
X160258726Y-73832008D01*
X160253701Y-74073263D01*
X160231385Y-74276446D01*
X160183689Y-74399034D01*
X160098037Y-74446134D01*
X160083747Y-74448680D01*
X160009133Y-74442480D01*
X159988377Y-74366578D01*
X160009913Y-74186962D01*
X160024267Y-74002025D01*
X159996394Y-73769620D01*
X159922188Y-73603508D01*
X159812735Y-73540055D01*
X159776618Y-73547273D01*
X159739884Y-73605664D01*
X159732506Y-73746656D01*
X159750636Y-73998667D01*
X159793461Y-74457278D01*
X159533107Y-74457278D01*
X159335871Y-74428709D01*
X159109502Y-74297409D01*
X158968934Y-74083630D01*
X158929115Y-73814035D01*
X158934050Y-73794608D01*
X159208643Y-73794608D01*
X159240393Y-73976554D01*
X159316150Y-74105915D01*
X159355024Y-74135222D01*
X159445693Y-74157185D01*
X159495819Y-74063740D01*
X159514410Y-73842941D01*
X159511885Y-73768409D01*
X159463652Y-73603038D01*
X159371711Y-73534388D01*
X159258088Y-73584653D01*
X159228973Y-73632581D01*
X159208643Y-73794608D01*
X158934050Y-73794608D01*
X159004994Y-73515288D01*
X159088409Y-73390185D01*
G37*
G36*
X161586874Y-72212178D02*
G01*
X161632537Y-71985551D01*
X161749151Y-71810870D01*
X161853931Y-71718344D01*
X162016470Y-71652462D01*
X162258006Y-71635055D01*
X162508888Y-71660491D01*
X162755315Y-71776809D01*
X162900482Y-71990569D01*
X162948056Y-72305333D01*
X162926759Y-72523864D01*
X162812041Y-72774773D01*
X162598064Y-72925386D01*
X162284920Y-72975611D01*
X162049498Y-72952594D01*
X161791520Y-72836807D01*
X161636027Y-72624282D01*
X161593389Y-72371663D01*
X161824665Y-72371663D01*
X161903834Y-72538167D01*
X161913103Y-72546273D01*
X162049168Y-72600604D01*
X162242500Y-72622833D01*
X162248155Y-72622822D01*
X162490491Y-72585504D01*
X162624571Y-72467111D01*
X162665834Y-72254198D01*
X162626435Y-72084071D01*
X162484852Y-71986087D01*
X162299176Y-71929139D01*
X162140964Y-71936605D01*
X161975977Y-72027112D01*
X161852086Y-72181438D01*
X161824665Y-72371663D01*
X161593389Y-72371663D01*
X161583982Y-72315925D01*
X161586874Y-72212178D01*
G37*
G36*
X159709426Y-71537370D02*
G01*
X159994035Y-71542951D01*
X160168918Y-71556127D01*
X160260777Y-71584079D01*
X160296311Y-71633986D01*
X160302223Y-71713027D01*
X160301681Y-71746204D01*
X160283966Y-71822155D01*
X160218029Y-71864063D01*
X160072908Y-71883321D01*
X159817640Y-71891319D01*
X159726380Y-71893811D01*
X159456660Y-71919250D01*
X159298386Y-71980782D01*
X159228917Y-72092889D01*
X159225612Y-72270055D01*
X159234199Y-72330181D01*
X159267464Y-72396231D01*
X159351159Y-72434038D01*
X159515498Y-72454134D01*
X159790695Y-72467051D01*
X159984762Y-72475150D01*
X160182874Y-72491072D01*
X160288239Y-72520462D01*
X160330051Y-72573678D01*
X160337500Y-72661079D01*
X160334114Y-72732483D01*
X160304773Y-72790380D01*
X160220672Y-72820787D01*
X160053027Y-72832545D01*
X159773056Y-72834500D01*
X159503870Y-72830071D01*
X159297891Y-72809952D01*
X159164539Y-72766812D01*
X159067500Y-72693389D01*
X158972398Y-72551424D01*
X158930590Y-72304063D01*
X159002568Y-72047881D01*
X159040148Y-71916487D01*
X158968254Y-71783445D01*
X158911124Y-71696361D01*
X158923988Y-71595287D01*
X158956859Y-71580287D01*
X159110392Y-71555618D01*
X159351930Y-71540114D01*
X159646219Y-71536638D01*
X159709426Y-71537370D01*
G37*
G36*
X161377200Y-70350595D02*
G01*
X161370664Y-70351083D01*
X161155972Y-70328813D01*
X161049567Y-70230415D01*
X161061734Y-70065194D01*
X161105143Y-70035255D01*
X161241112Y-70009770D01*
X161478169Y-69994867D01*
X161826241Y-69990253D01*
X162295255Y-69995632D01*
X162895139Y-70010709D01*
X162917208Y-70047359D01*
X162939444Y-70190648D01*
X162948056Y-70404972D01*
X162944251Y-70551615D01*
X162888752Y-70887190D01*
X162759179Y-71112113D01*
X162545369Y-71238891D01*
X162237160Y-71280034D01*
X162007158Y-71257719D01*
X161772968Y-71145005D01*
X161643301Y-70937533D01*
X161618485Y-70635647D01*
X161620237Y-70613600D01*
X161856045Y-70613600D01*
X161859384Y-70726000D01*
X161955534Y-70859562D01*
X162115657Y-70947484D01*
X162296492Y-70956124D01*
X162518609Y-70875418D01*
X162633949Y-70747746D01*
X162651798Y-70551503D01*
X162639571Y-70459508D01*
X162597786Y-70375976D01*
X162493417Y-70341298D01*
X162287206Y-70331816D01*
X162221470Y-70331671D01*
X162006741Y-70355196D01*
X161916789Y-70415961D01*
X161903924Y-70458472D01*
X161856045Y-70613600D01*
X161620237Y-70613600D01*
X161642778Y-70329778D01*
X161377200Y-70350595D01*
G37*
G36*
X159484062Y-70311877D02*
G01*
X159513735Y-70102597D01*
X159563239Y-69974772D01*
X159658163Y-69911286D01*
X159851134Y-69874835D01*
X160053761Y-69897308D01*
X160197485Y-69978320D01*
X160203471Y-69986037D01*
X160255289Y-70161653D01*
X160247343Y-70464039D01*
X160239281Y-70561481D01*
X160243184Y-70795128D01*
X160286997Y-70921330D01*
X160287623Y-70921957D01*
X160333004Y-71015301D01*
X160245959Y-71072256D01*
X160025091Y-71093176D01*
X159669002Y-71078418D01*
X159555152Y-71069320D01*
X159310839Y-71042657D01*
X159161998Y-71006268D01*
X159074870Y-70948810D01*
X159015697Y-70858944D01*
X158989769Y-70791123D01*
X158950525Y-70575951D01*
X158943362Y-70329778D01*
X158946469Y-70275643D01*
X158969983Y-70084603D01*
X159019389Y-69990216D01*
X159111205Y-69955661D01*
X159185215Y-69952901D01*
X159234224Y-69994017D01*
X159252751Y-70113055D01*
X159252316Y-70341512D01*
X159251233Y-70416332D01*
X159259659Y-70623925D01*
X159294263Y-70732032D01*
X159363356Y-70772947D01*
X159384585Y-70776188D01*
X159446061Y-70753641D01*
X159474374Y-70650907D01*
X159477909Y-70517926D01*
X159702500Y-70517926D01*
X159704018Y-70587344D01*
X159734263Y-70741856D01*
X159810080Y-70788389D01*
X159883903Y-70756619D01*
X159973768Y-70628790D01*
X160025671Y-70453352D01*
X160017043Y-70285181D01*
X159985668Y-70222445D01*
X159873167Y-70154042D01*
X159749537Y-70200426D01*
X159741660Y-70212123D01*
X159713772Y-70331475D01*
X159702500Y-70517926D01*
X159477909Y-70517926D01*
X159480038Y-70437785D01*
X159484062Y-70311877D01*
G37*
G36*
X159396885Y-69069290D02*
G01*
X159474699Y-69070113D01*
X159822310Y-69074980D01*
X160055723Y-69083697D01*
X160197679Y-69100694D01*
X160270920Y-69130403D01*
X160298187Y-69177255D01*
X160302223Y-69245679D01*
X160302119Y-69266589D01*
X160293937Y-69328004D01*
X160256542Y-69369943D01*
X160167561Y-69396871D01*
X160004620Y-69413254D01*
X159745345Y-69423556D01*
X159367362Y-69432242D01*
X158432500Y-69451929D01*
X158432500Y-69285252D01*
X158439019Y-69174593D01*
X158462024Y-69089176D01*
X158465269Y-69087481D01*
X158561425Y-69077562D01*
X158767094Y-69070834D01*
X159054755Y-69067881D01*
X159396885Y-69069290D01*
G37*
G36*
X162120189Y-68701575D02*
G01*
X162200009Y-68496441D01*
X162315532Y-68375211D01*
X162524723Y-68318944D01*
X162710201Y-68358899D01*
X162839848Y-68494101D01*
X162910423Y-68737322D01*
X162928478Y-69101260D01*
X162921949Y-69566076D01*
X162388197Y-69533736D01*
X162334112Y-69530312D01*
X162008860Y-69496082D01*
X161797449Y-69430957D01*
X161676004Y-69313634D01*
X161620647Y-69122808D01*
X161607500Y-68837176D01*
X161610079Y-68645704D01*
X161626444Y-68482850D01*
X161665737Y-68407708D01*
X161736852Y-68389500D01*
X161859032Y-68405594D01*
X161920523Y-68486569D01*
X161882304Y-68655956D01*
X161844210Y-68815895D01*
X161853700Y-69020621D01*
X161921895Y-69175091D01*
X162037274Y-69236167D01*
X162042045Y-69236147D01*
X162124238Y-69216842D01*
X162149025Y-69135710D01*
X162132511Y-68989222D01*
X162341790Y-68989222D01*
X162344329Y-69035955D01*
X162384348Y-69165427D01*
X162489445Y-69200889D01*
X162568407Y-69186335D01*
X162618178Y-69106829D01*
X162630556Y-68924546D01*
X162626919Y-68836690D01*
X162584988Y-68669372D01*
X162506686Y-68614810D01*
X162405296Y-68687011D01*
X162359197Y-68806400D01*
X162341790Y-68989222D01*
X162132511Y-68989222D01*
X162128660Y-68955052D01*
X162120189Y-68701575D01*
G37*
G36*
X159068570Y-67311551D02*
G01*
X159414154Y-67317450D01*
X160337500Y-67339012D01*
X160337500Y-67694691D01*
X159543750Y-67676047D01*
X158750000Y-67657404D01*
X158728466Y-67988894D01*
X158724020Y-68167553D01*
X158751837Y-68303274D01*
X158826251Y-68366171D01*
X158962513Y-68377082D01*
X159115535Y-68285636D01*
X159210100Y-68100971D01*
X159213370Y-68088469D01*
X159303094Y-67953081D01*
X159439793Y-67897671D01*
X159569163Y-67945719D01*
X159580318Y-67965231D01*
X159571138Y-68094454D01*
X159496018Y-68291553D01*
X159435047Y-68400015D01*
X159240178Y-68612392D01*
X159012471Y-68723148D01*
X158780693Y-68722624D01*
X158573612Y-68601167D01*
X158510897Y-68523103D01*
X158462348Y-68397223D01*
X158438714Y-68204258D01*
X158432500Y-67907370D01*
X158432701Y-67842441D01*
X158437658Y-67589257D01*
X158447913Y-67404812D01*
X158461654Y-67325287D01*
X158466329Y-67323171D01*
X158567455Y-67314635D01*
X158777270Y-67310687D01*
X159068570Y-67311551D01*
G37*
G36*
X162004146Y-66816438D02*
G01*
X162912778Y-66830876D01*
X162933449Y-67409600D01*
X162937748Y-67572032D01*
X162930846Y-67852303D01*
X162896134Y-68017356D01*
X162828137Y-68084244D01*
X162721379Y-68070014D01*
X162696815Y-68057654D01*
X162649115Y-67987640D01*
X162634283Y-67842444D01*
X162647382Y-67590045D01*
X162682547Y-67151965D01*
X161898850Y-67178789D01*
X161593418Y-67187357D01*
X161345288Y-67186866D01*
X161192103Y-67172541D01*
X161109110Y-67141785D01*
X161071556Y-67092001D01*
X161055309Y-67029774D01*
X161061736Y-66890194D01*
X161069254Y-66878259D01*
X161148022Y-66843697D01*
X161319388Y-66822711D01*
X161599411Y-66814043D01*
X162004146Y-66816438D01*
G37*
G36*
X149245287Y-71979876D02*
G01*
X149251895Y-71396720D01*
X149260004Y-70931762D01*
X149270850Y-70565888D01*
X149285669Y-70279979D01*
X149305698Y-70054919D01*
X149332170Y-69871592D01*
X149366324Y-69710880D01*
X149409394Y-69553667D01*
X149591163Y-69067492D01*
X149948113Y-68442521D01*
X150414563Y-67885513D01*
X150976366Y-67410013D01*
X151619376Y-67029566D01*
X152329445Y-66757719D01*
X152659577Y-66689037D01*
X153125436Y-66643586D01*
X153629818Y-66635537D01*
X154120160Y-66665455D01*
X154543899Y-66733906D01*
X154980348Y-66869885D01*
X155552764Y-67133980D01*
X156096100Y-67473311D01*
X156558985Y-67859190D01*
X156610077Y-67910868D01*
X156956451Y-68331898D01*
X157262930Y-68821435D01*
X157502900Y-69331755D01*
X157649746Y-69815133D01*
X157650684Y-69819937D01*
X157671119Y-69994599D01*
X157690762Y-70286851D01*
X157708723Y-70674202D01*
X157724109Y-71134158D01*
X157736029Y-71644227D01*
X157743590Y-72181916D01*
X157762223Y-74175164D01*
X156686250Y-74175110D01*
X155610278Y-74175055D01*
X155609589Y-72217139D01*
X155609161Y-71723407D01*
X155607289Y-71249291D01*
X155602693Y-70882499D01*
X155594058Y-70604654D01*
X155580068Y-70397379D01*
X155559409Y-70242297D01*
X155530767Y-70121032D01*
X155492826Y-70015206D01*
X155444272Y-69906444D01*
X155417760Y-69853803D01*
X155279655Y-69638505D01*
X155101658Y-69416706D01*
X154912943Y-69219626D01*
X154742685Y-69078485D01*
X154620060Y-69024500D01*
X154619906Y-69024502D01*
X154594276Y-69095503D01*
X154574858Y-69306020D01*
X154561707Y-69654602D01*
X154554878Y-70139797D01*
X154554426Y-70760153D01*
X154555196Y-71124777D01*
X154554096Y-71570382D01*
X154550810Y-71952875D01*
X154545604Y-72252758D01*
X154538741Y-72450533D01*
X154530486Y-72526699D01*
X154519007Y-72532679D01*
X154400749Y-72550529D01*
X154184342Y-72563158D01*
X153899686Y-72570704D01*
X153576681Y-72573307D01*
X153245226Y-72571104D01*
X152935223Y-72564234D01*
X152676570Y-72552834D01*
X152499169Y-72537043D01*
X152432918Y-72517000D01*
X152432563Y-72469801D01*
X152432392Y-72295989D01*
X152432596Y-72015399D01*
X152433150Y-71648283D01*
X152434029Y-71214890D01*
X152435206Y-70735472D01*
X152433952Y-70133491D01*
X152426474Y-69650963D01*
X152412803Y-69304108D01*
X152393009Y-69094697D01*
X152367163Y-69024500D01*
X152340592Y-69028660D01*
X152202324Y-69109093D01*
X152024250Y-69268306D01*
X151835547Y-69475082D01*
X151665389Y-69698201D01*
X151542951Y-69906444D01*
X151501482Y-69998332D01*
X151461917Y-70103387D01*
X151431862Y-70220917D01*
X151410004Y-70369297D01*
X151395027Y-70566904D01*
X151385616Y-70832115D01*
X151380457Y-71183307D01*
X151378234Y-71638856D01*
X151377634Y-72217139D01*
X151376945Y-74175055D01*
X150300973Y-74175111D01*
X149225000Y-74175167D01*
X149226955Y-73963389D01*
X149244046Y-72111361D01*
X149244739Y-72037935D01*
X149471945Y-72037935D01*
X149471945Y-73963389D01*
X151165278Y-73963389D01*
X151165278Y-72131591D01*
X151165295Y-72058900D01*
X151168029Y-71431532D01*
X151178138Y-70925019D01*
X151199508Y-70521038D01*
X151236024Y-70201264D01*
X151291571Y-69947376D01*
X151370036Y-69741050D01*
X151475304Y-69563963D01*
X151611259Y-69397791D01*
X151781788Y-69224212D01*
X152031692Y-69001877D01*
X152239954Y-68871524D01*
X152401945Y-68846819D01*
X152533677Y-68921311D01*
X152536886Y-68924607D01*
X152572794Y-68979820D01*
X152600110Y-69071522D01*
X152619952Y-69217149D01*
X152633438Y-69434135D01*
X152641687Y-69739914D01*
X152645817Y-70151923D01*
X152646945Y-70687595D01*
X152646945Y-72340611D01*
X154340278Y-72340611D01*
X154340278Y-70655917D01*
X154340618Y-70314865D01*
X154344069Y-69820297D01*
X154353698Y-69443901D01*
X154372471Y-69171081D01*
X154403354Y-68987242D01*
X154449313Y-68877788D01*
X154513315Y-68828123D01*
X154598325Y-68823652D01*
X154707309Y-68849780D01*
X154880831Y-68938936D01*
X155112893Y-69130921D01*
X155345483Y-69383257D01*
X155545961Y-69659928D01*
X155681685Y-69924917D01*
X155718383Y-70030546D01*
X155753330Y-70162062D01*
X155779484Y-70317138D01*
X155798091Y-70515365D01*
X155810395Y-70776332D01*
X155817642Y-71119632D01*
X155821077Y-71564854D01*
X155821945Y-72131591D01*
X155821945Y-73963389D01*
X157515278Y-73963389D01*
X157514441Y-72040750D01*
X157513129Y-71508711D01*
X157507179Y-70966862D01*
X157493985Y-70529393D01*
X157470929Y-70176066D01*
X157435389Y-69886642D01*
X157384746Y-69640884D01*
X157316379Y-69418552D01*
X157227669Y-69199409D01*
X157115995Y-68963217D01*
X157076252Y-68887814D01*
X156836593Y-68534209D01*
X156513353Y-68162072D01*
X156141934Y-67806036D01*
X155757741Y-67500734D01*
X155396176Y-67280800D01*
X155143297Y-67167332D01*
X154808847Y-67038314D01*
X154517046Y-66946174D01*
X154206160Y-66888176D01*
X153755767Y-66850876D01*
X153273967Y-66848728D01*
X152816806Y-66881643D01*
X152440331Y-66949529D01*
X152361425Y-66971496D01*
X151724251Y-67214007D01*
X151146414Y-67563169D01*
X150598718Y-68036209D01*
X150377698Y-68262352D01*
X150131691Y-68539996D01*
X149934256Y-68809669D01*
X149780152Y-69089989D01*
X149664138Y-69399569D01*
X149580971Y-69757026D01*
X149525409Y-70180976D01*
X149492212Y-70690033D01*
X149476138Y-71302814D01*
X149471945Y-72037935D01*
X149244739Y-72037935D01*
X149245287Y-71979876D01*
G37*
G36*
X159058458Y-64157388D02*
G01*
X159225224Y-64013862D01*
X159268953Y-63999361D01*
X159467122Y-63971291D01*
X159699716Y-63973486D01*
X159798024Y-63985103D01*
X160031364Y-64057400D01*
X160175546Y-64201148D01*
X160244527Y-64436849D01*
X160252268Y-64785002D01*
X160231667Y-65249778D01*
X159327190Y-65269561D01*
X158422714Y-65289345D01*
X158445246Y-65093172D01*
X158480593Y-64960456D01*
X158538334Y-64907958D01*
X158646565Y-64924764D01*
X158833335Y-64947218D01*
X158924017Y-64929410D01*
X158949872Y-64856208D01*
X158942160Y-64712478D01*
X158942955Y-64698706D01*
X159221152Y-64698706D01*
X159235925Y-64787672D01*
X159283809Y-64863506D01*
X159397368Y-64900037D01*
X159614306Y-64918326D01*
X159984723Y-64939652D01*
X159984723Y-64703132D01*
X159984668Y-64694568D01*
X159958835Y-64507410D01*
X159900056Y-64381944D01*
X159811667Y-64330604D01*
X159620302Y-64300060D01*
X159420607Y-64323447D01*
X159282708Y-64398844D01*
X159232527Y-64516548D01*
X159221152Y-64698706D01*
X158942955Y-64698706D01*
X158960155Y-64400670D01*
X159058458Y-64157388D01*
G37*
G36*
X162935104Y-63639793D02*
G01*
X162929504Y-63683418D01*
X162904107Y-63765815D01*
X162837352Y-63806865D01*
X162696032Y-63818261D01*
X162446946Y-63811697D01*
X162335843Y-63807788D01*
X162129952Y-63807476D01*
X162012534Y-63832132D01*
X161945698Y-63895327D01*
X161891554Y-64010634D01*
X161854057Y-64117014D01*
X161845514Y-64282755D01*
X161938523Y-64383396D01*
X162144172Y-64426749D01*
X162473553Y-64420625D01*
X162955663Y-64386130D01*
X162934221Y-64565622D01*
X162924788Y-64628958D01*
X162893170Y-64694231D01*
X162813677Y-64726313D01*
X162655266Y-64734394D01*
X162386897Y-64727663D01*
X162362715Y-64726794D01*
X162089845Y-64708138D01*
X161864814Y-64677966D01*
X161734258Y-64642374D01*
X161657225Y-64552516D01*
X161609986Y-64364744D01*
X161617524Y-64140900D01*
X161683633Y-63934079D01*
X161684933Y-63931640D01*
X161719449Y-63801781D01*
X161637576Y-63702476D01*
X161573994Y-63631826D01*
X161565607Y-63531870D01*
X161569970Y-63526327D01*
X161684421Y-63485092D01*
X161926987Y-63459439D01*
X162286629Y-63450611D01*
X162957429Y-63450611D01*
X162935104Y-63639793D01*
G37*
G36*
X159731654Y-62294370D02*
G01*
X160006609Y-62299964D01*
X160175062Y-62313592D01*
X160263094Y-62341940D01*
X160296787Y-62391696D01*
X160302223Y-62469547D01*
X160301472Y-62509105D01*
X160282708Y-62581972D01*
X160215192Y-62620863D01*
X160068142Y-62636404D01*
X159810778Y-62639222D01*
X159713285Y-62639442D01*
X159491840Y-62646343D01*
X159364850Y-62671739D01*
X159297070Y-62727375D01*
X159253255Y-62824994D01*
X159218141Y-62939252D01*
X159210462Y-63096722D01*
X159292626Y-63189283D01*
X159480738Y-63229008D01*
X159790907Y-63227970D01*
X159964489Y-63220451D01*
X160157542Y-63219025D01*
X160258051Y-63239206D01*
X160296212Y-63289995D01*
X160302223Y-63380396D01*
X160301970Y-63406145D01*
X160286941Y-63490579D01*
X160225742Y-63538265D01*
X160086741Y-63562612D01*
X159838305Y-63577026D01*
X159606343Y-63578557D01*
X159356263Y-63560923D01*
X159187637Y-63526605D01*
X159144028Y-63506723D01*
X158993187Y-63353934D01*
X158936780Y-63127254D01*
X158985067Y-62860418D01*
X159003713Y-62807963D01*
X159027909Y-62652837D01*
X158969767Y-62537722D01*
X158919860Y-62461971D01*
X158900301Y-62357000D01*
X158921708Y-62341094D01*
X159058436Y-62313756D01*
X159297938Y-62297005D01*
X159614288Y-62293158D01*
X159731654Y-62294370D01*
G37*
G36*
X161608319Y-62269055D02*
G01*
X161627005Y-62067947D01*
X161685000Y-61937806D01*
X161801528Y-61826015D01*
X161921962Y-61746458D01*
X162093469Y-61698853D01*
X162335963Y-61705210D01*
X162554610Y-61740417D01*
X162758777Y-61838962D01*
X162875403Y-62020187D01*
X162931100Y-62311190D01*
X162937000Y-62377597D01*
X162938847Y-62578854D01*
X162893065Y-62715201D01*
X162783345Y-62845625D01*
X162621502Y-62958261D01*
X162344167Y-63030832D01*
X162050953Y-63005708D01*
X161793404Y-62881046D01*
X161756893Y-62851131D01*
X161661665Y-62740545D01*
X161617984Y-62593076D01*
X161607811Y-62364013D01*
X161819167Y-62364013D01*
X161842964Y-62481728D01*
X161968773Y-62633319D01*
X162168571Y-62713342D01*
X162403471Y-62699470D01*
X162527768Y-62653980D01*
X162617898Y-62560135D01*
X162651964Y-62380617D01*
X162655276Y-62224714D01*
X162607485Y-62123445D01*
X162475575Y-62061096D01*
X162268179Y-62019786D01*
X162036682Y-62051714D01*
X161878034Y-62170599D01*
X161819167Y-62364013D01*
X161607811Y-62364013D01*
X161607500Y-62357000D01*
X161608319Y-62269055D01*
G37*
G36*
X162935104Y-61093858D02*
G01*
X162933622Y-61105902D01*
X162916511Y-61188935D01*
X162871724Y-61239521D01*
X162770902Y-61265665D01*
X162585687Y-61275376D01*
X162287720Y-61276661D01*
X162094417Y-61274312D01*
X161800229Y-61254096D01*
X161623356Y-61208737D01*
X161548569Y-61132884D01*
X161560640Y-61021187D01*
X161566283Y-61008824D01*
X161622203Y-60960006D01*
X161742918Y-60929965D01*
X161953807Y-60914799D01*
X162280250Y-60910611D01*
X162957429Y-60910611D01*
X162935104Y-61093858D01*
G37*
G36*
X161316935Y-60984359D02*
G01*
X161360556Y-61122278D01*
X161338954Y-61236575D01*
X161236870Y-61320554D01*
X161122070Y-61293318D01*
X161054802Y-61175260D01*
X161070572Y-61011230D01*
X161114815Y-60945116D01*
X161218705Y-60919057D01*
X161316935Y-60984359D01*
G37*
G36*
X159474309Y-61170034D02*
G01*
X159482509Y-60939617D01*
X159528449Y-60795753D01*
X159627485Y-60688368D01*
X159786882Y-60583903D01*
X159936834Y-60574637D01*
X160119008Y-60673882D01*
X160189914Y-60730011D01*
X160247433Y-60819681D01*
X160263097Y-60960303D01*
X160247848Y-61196245D01*
X160239097Y-61329915D01*
X160246693Y-61558392D01*
X160288363Y-61679919D01*
X160294448Y-61686156D01*
X160331458Y-61772931D01*
X160242008Y-61825469D01*
X160022402Y-61844673D01*
X159668947Y-61831447D01*
X159546239Y-61822534D01*
X159305791Y-61797833D01*
X159159944Y-61762621D01*
X159075021Y-61705775D01*
X159017348Y-61616167D01*
X158983596Y-61532650D01*
X158937040Y-61300531D01*
X158930532Y-61049529D01*
X158963139Y-60831308D01*
X159033928Y-60697529D01*
X159126289Y-60644161D01*
X159193635Y-60680364D01*
X159229882Y-60830200D01*
X159241721Y-61106849D01*
X159242144Y-61151946D01*
X159255191Y-61371652D01*
X159292604Y-61487427D01*
X159363463Y-61530894D01*
X159389765Y-61534400D01*
X159447717Y-61508529D01*
X159472756Y-61402710D01*
X159473880Y-61275148D01*
X159702500Y-61275148D01*
X159704018Y-61344566D01*
X159734263Y-61499078D01*
X159810080Y-61545611D01*
X159873700Y-61519095D01*
X159967294Y-61396929D01*
X160031282Y-61224866D01*
X160039676Y-61058090D01*
X159989859Y-60974193D01*
X159868219Y-60920173D01*
X159751977Y-60955209D01*
X159743760Y-60967180D01*
X159714379Y-61087949D01*
X159702500Y-61275148D01*
X159473880Y-61275148D01*
X159474659Y-61186680D01*
X159474309Y-61170034D01*
G37*
G36*
X162275788Y-59918178D02*
G01*
X162540269Y-59938642D01*
X162747056Y-59969179D01*
X162859862Y-60008914D01*
X162864489Y-60013034D01*
X162923664Y-60135422D01*
X162948056Y-60319528D01*
X162944264Y-60417652D01*
X162905565Y-60529014D01*
X162806945Y-60557833D01*
X162716387Y-60535047D01*
X162665834Y-60418066D01*
X162664963Y-60400465D01*
X162587439Y-60279477D01*
X162392939Y-60217079D01*
X162093513Y-60217496D01*
X162017642Y-60227175D01*
X161889524Y-60277661D01*
X161854352Y-60381444D01*
X161831142Y-60472573D01*
X161713241Y-60522555D01*
X161608583Y-60488707D01*
X161594296Y-60363805D01*
X161590237Y-60260634D01*
X161510266Y-60205055D01*
X161459888Y-60198646D01*
X161351512Y-60113550D01*
X161345270Y-59972371D01*
X161366735Y-59954565D01*
X161499089Y-59925981D01*
X161718909Y-59910972D01*
X161989905Y-59908663D01*
X162275788Y-59918178D01*
G37*
G36*
X162103354Y-58785306D02*
G01*
X162140937Y-58556999D01*
X162211223Y-58386310D01*
X162308306Y-58291639D01*
X162524723Y-58229500D01*
X162637027Y-58248081D01*
X162810814Y-58366298D01*
X162921830Y-58558788D01*
X162951302Y-58784715D01*
X162880456Y-59003245D01*
X162855962Y-59059703D01*
X162888207Y-59194900D01*
X162904021Y-59214817D01*
X162950867Y-59326455D01*
X162884731Y-59398152D01*
X162697160Y-59433949D01*
X162379702Y-59437884D01*
X162066535Y-59416868D01*
X161831119Y-59355086D01*
X161691514Y-59231988D01*
X161624661Y-59026007D01*
X161607500Y-58715572D01*
X161610179Y-58526175D01*
X161627797Y-58378680D01*
X161672131Y-58314243D01*
X161754813Y-58300055D01*
X161767727Y-58300158D01*
X161852808Y-58319420D01*
X161877345Y-58398841D01*
X161855337Y-58576996D01*
X161843191Y-58704803D01*
X161864910Y-58922665D01*
X161932604Y-59083796D01*
X162033316Y-59146722D01*
X162051522Y-59135692D01*
X162087209Y-59028760D01*
X162099879Y-58864500D01*
X162350499Y-58864500D01*
X162355252Y-58907176D01*
X162372865Y-59058528D01*
X162388702Y-59097871D01*
X162488101Y-59146722D01*
X162521794Y-59138805D01*
X162606669Y-59040679D01*
X162657050Y-58871152D01*
X162654443Y-58681899D01*
X162621373Y-58592529D01*
X162536548Y-58539672D01*
X162441217Y-58580544D01*
X162368246Y-58695402D01*
X162350499Y-58864500D01*
X162099879Y-58864500D01*
X162101389Y-58844921D01*
X162103354Y-58785306D01*
G37*
G36*
X152779281Y-57995760D02*
G01*
X153535114Y-57997952D01*
X157739396Y-58013349D01*
X157739396Y-60090109D01*
X156851761Y-60094666D01*
X155964127Y-60099222D01*
X155944440Y-61757278D01*
X155939203Y-62164234D01*
X155931286Y-62606239D01*
X155920655Y-62944419D01*
X155905400Y-63200195D01*
X155883613Y-63394985D01*
X155853385Y-63550209D01*
X155812808Y-63687286D01*
X155759973Y-63827637D01*
X155465122Y-64385721D01*
X155060720Y-64876746D01*
X154568811Y-65283888D01*
X154009108Y-65596169D01*
X153401328Y-65802614D01*
X152765183Y-65892246D01*
X152120388Y-65854088D01*
X151894773Y-65809863D01*
X151248933Y-65597593D01*
X150672625Y-65276601D01*
X150179897Y-64858051D01*
X149784799Y-64353108D01*
X149501382Y-63772936D01*
X149487069Y-63733265D01*
X149447234Y-63615787D01*
X149415095Y-63498610D01*
X149389781Y-63366023D01*
X149370423Y-63202313D01*
X149356154Y-62991767D01*
X149346104Y-62718673D01*
X149339405Y-62367318D01*
X149335186Y-61921990D01*
X149332581Y-61366976D01*
X149330719Y-60686564D01*
X149330592Y-60632795D01*
X149329327Y-60060688D01*
X151376945Y-60060688D01*
X151377338Y-61385233D01*
X151380705Y-61789973D01*
X151390879Y-62198789D01*
X151406602Y-62550059D01*
X151426602Y-62815932D01*
X151449608Y-62968557D01*
X151494254Y-63085041D01*
X151679836Y-63349705D01*
X151948373Y-63578279D01*
X152260075Y-63733225D01*
X152614827Y-63785224D01*
X153003185Y-63724102D01*
X153368172Y-63553656D01*
X153513985Y-63450662D01*
X153628321Y-63343057D01*
X153712642Y-63213184D01*
X153771674Y-63041237D01*
X153810142Y-62807412D01*
X153832770Y-62491901D01*
X153844286Y-62074901D01*
X153849412Y-61536604D01*
X153857739Y-60099222D01*
X151376945Y-60060688D01*
X149329327Y-60060688D01*
X149329283Y-60040501D01*
X149328240Y-59494886D01*
X149327481Y-59011687D01*
X149327023Y-58606643D01*
X149326886Y-58295494D01*
X149327088Y-58093978D01*
X149327645Y-58017833D01*
X149392522Y-58011923D01*
X149586594Y-58006642D01*
X149897665Y-58002256D01*
X150313485Y-57998822D01*
X150821806Y-57996397D01*
X151410378Y-57995040D01*
X152066953Y-57994808D01*
X152779281Y-57995760D01*
G37*
G36*
X159001969Y-57709844D02*
G01*
X159138880Y-57509090D01*
X159321785Y-57414691D01*
X159597923Y-57377711D01*
X159874834Y-57425782D01*
X160093763Y-57556015D01*
X160130356Y-57594446D01*
X160216111Y-57723168D01*
X160256704Y-57890870D01*
X160266945Y-58148189D01*
X160258340Y-58384015D01*
X160224315Y-58540982D01*
X160158441Y-58608817D01*
X160156031Y-58609718D01*
X160049523Y-58593682D01*
X159994192Y-58484808D01*
X160013137Y-58327778D01*
X160027765Y-58216025D01*
X160006084Y-58038975D01*
X159955140Y-57859564D01*
X159889074Y-57725411D01*
X159822024Y-57684135D01*
X159788795Y-57720849D01*
X159750971Y-57885074D01*
X159737778Y-58164948D01*
X159737778Y-58617555D01*
X159455556Y-58600982D01*
X159286359Y-58576168D01*
X159069465Y-58461991D01*
X158957479Y-58254848D01*
X158951177Y-58064943D01*
X159219208Y-58064943D01*
X159274169Y-58205913D01*
X159378385Y-58264778D01*
X159446671Y-58252246D01*
X159501332Y-58172603D01*
X159519496Y-57988457D01*
X159517850Y-57896134D01*
X159478516Y-57729912D01*
X159397141Y-57682480D01*
X159284658Y-57764272D01*
X159223509Y-57895307D01*
X159219208Y-58064943D01*
X158951177Y-58064943D01*
X158947393Y-57950892D01*
X159001969Y-57709844D01*
G37*
G36*
X162251080Y-57219516D02*
G01*
X162299847Y-57220493D01*
X162591738Y-57228661D01*
X162773643Y-57243542D01*
X162873014Y-57272459D01*
X162917303Y-57322735D01*
X162933960Y-57401693D01*
X162938300Y-57441076D01*
X162930364Y-57514187D01*
X162870795Y-57552101D01*
X162729780Y-57565487D01*
X162477503Y-57565010D01*
X162401179Y-57564223D01*
X162174873Y-57568124D01*
X162042124Y-57592610D01*
X161965025Y-57650159D01*
X161905666Y-57753250D01*
X161834353Y-57865217D01*
X161707230Y-57946294D01*
X161583734Y-57899993D01*
X161579896Y-57824692D01*
X161642040Y-57691558D01*
X161690758Y-57611778D01*
X161706803Y-57526815D01*
X161631387Y-57465354D01*
X161573402Y-57413190D01*
X161552263Y-57303373D01*
X161590862Y-57263271D01*
X161707116Y-57231959D01*
X161919838Y-57218256D01*
X162251080Y-57219516D01*
G37*
G36*
X159650004Y-55989401D02*
G01*
X159759920Y-56004834D01*
X159973433Y-56062360D01*
X160109597Y-56136914D01*
X160131816Y-56163826D01*
X160204675Y-56327756D01*
X160255638Y-56553128D01*
X160279104Y-56791088D01*
X160269470Y-56992782D01*
X160221131Y-57109355D01*
X160191774Y-57130813D01*
X160080103Y-57149057D01*
X160016656Y-57057276D01*
X160022105Y-56879360D01*
X160035720Y-56773577D01*
X159986649Y-56542824D01*
X159835572Y-56383764D01*
X159603680Y-56324500D01*
X159517398Y-56328669D01*
X159322902Y-56396849D01*
X159229108Y-56556780D01*
X159227974Y-56819050D01*
X159233890Y-56867386D01*
X159233866Y-57065126D01*
X159171495Y-57147728D01*
X159038590Y-57128569D01*
X158997992Y-57102590D01*
X158943032Y-56980120D01*
X158926389Y-56745698D01*
X158932072Y-56599536D01*
X158985476Y-56378352D01*
X159115569Y-56181055D01*
X159180844Y-56106192D01*
X159297102Y-56009391D01*
X159433647Y-55977576D01*
X159650004Y-55989401D01*
G37*
G36*
X161607998Y-56052452D02*
G01*
X161650924Y-55773436D01*
X161774680Y-55591838D01*
X161995638Y-55481764D01*
X162174377Y-55445572D01*
X162476035Y-55470287D01*
X162721901Y-55599554D01*
X162887425Y-55817250D01*
X162948056Y-56107253D01*
X162921984Y-56309724D01*
X162791666Y-56561490D01*
X162573560Y-56727888D01*
X162292069Y-56793075D01*
X161971596Y-56741206D01*
X161893745Y-56710300D01*
X161722914Y-56586533D01*
X161633402Y-56392126D01*
X161614513Y-56175952D01*
X161827302Y-56175952D01*
X161930040Y-56354738D01*
X162020085Y-56412610D01*
X162219686Y-56459655D01*
X162429532Y-56450019D01*
X162581167Y-56380944D01*
X162635032Y-56284895D01*
X162665834Y-56112833D01*
X162646364Y-55976656D01*
X162581167Y-55844722D01*
X162580909Y-55844465D01*
X162454144Y-55784842D01*
X162268707Y-55760055D01*
X162166698Y-55768491D01*
X161963496Y-55851459D01*
X161844409Y-55997736D01*
X161827302Y-56175952D01*
X161614513Y-56175952D01*
X161607500Y-56095679D01*
X161607998Y-56052452D01*
G37*
G36*
X162004146Y-54680590D02*
G01*
X162042176Y-54681185D01*
X162402933Y-54687980D01*
X162647847Y-54697900D01*
X162800135Y-54715354D01*
X162883014Y-54744747D01*
X162919702Y-54790486D01*
X162933414Y-54856979D01*
X162954051Y-55019222D01*
X162019063Y-55010195D01*
X161650025Y-55004056D01*
X161355888Y-54989423D01*
X161168289Y-54961842D01*
X161069019Y-54916403D01*
X161039868Y-54848196D01*
X161062629Y-54752311D01*
X161065845Y-54746155D01*
X161139040Y-54710265D01*
X161310354Y-54688095D01*
X161593989Y-54678564D01*
X162004146Y-54680590D01*
G37*
G36*
X159511543Y-54602543D02*
G01*
X159601707Y-54459817D01*
X159762649Y-54366684D01*
X159972396Y-54369874D01*
X160159341Y-54488099D01*
X160221133Y-54577081D01*
X160259764Y-54737346D01*
X160250986Y-54984100D01*
X160242734Y-55114377D01*
X160248778Y-55292531D01*
X160277099Y-55378276D01*
X160301042Y-55401450D01*
X160337500Y-55517275D01*
X160324387Y-55555498D01*
X160245093Y-55593681D01*
X160072949Y-55613362D01*
X159783991Y-55618944D01*
X159742831Y-55618830D01*
X159402209Y-55601057D01*
X159176257Y-55539096D01*
X159042539Y-55413017D01*
X158978622Y-55202891D01*
X158962071Y-54888788D01*
X158965340Y-54672229D01*
X158984550Y-54526727D01*
X159031429Y-54458239D01*
X159117631Y-54432597D01*
X159187397Y-54426724D01*
X159240947Y-54455537D01*
X159251857Y-54557742D01*
X159231424Y-54766482D01*
X159231339Y-54767196D01*
X159221853Y-55060386D01*
X159277482Y-55228859D01*
X159290234Y-55243459D01*
X159395271Y-55301531D01*
X159466635Y-55236888D01*
X159483847Y-55065717D01*
X159479528Y-54919556D01*
X159715239Y-54919556D01*
X159719513Y-55096106D01*
X159763326Y-55241207D01*
X159840971Y-55301444D01*
X159851609Y-55300282D01*
X159939124Y-55225022D01*
X160011022Y-55068321D01*
X160026213Y-55011009D01*
X160038981Y-54844842D01*
X159972324Y-54729641D01*
X159945371Y-54703550D01*
X159861574Y-54660240D01*
X159779820Y-54728850D01*
X159756207Y-54764973D01*
X159715239Y-54919556D01*
X159479528Y-54919556D01*
X159476428Y-54814593D01*
X159511543Y-54602543D01*
G37*
G36*
X161610864Y-53263276D02*
G01*
X161621497Y-53083049D01*
X161636874Y-53002509D01*
X161637959Y-53001733D01*
X161724013Y-52991673D01*
X161921188Y-52985295D01*
X162201373Y-52983124D01*
X162536457Y-52985685D01*
X163406667Y-52998259D01*
X163429678Y-53186822D01*
X163436715Y-53253308D01*
X163423489Y-53333724D01*
X163343089Y-53351769D01*
X163159705Y-53325886D01*
X162866721Y-53276387D01*
X162914773Y-53596821D01*
X162920504Y-53636243D01*
X162934049Y-53833235D01*
X162893525Y-53966084D01*
X162782259Y-54097822D01*
X162664688Y-54195926D01*
X162496310Y-54261247D01*
X162250828Y-54278389D01*
X162146266Y-54274878D01*
X161891843Y-54216077D01*
X161725558Y-54072665D01*
X161634936Y-53828951D01*
X161607805Y-53473251D01*
X161823374Y-53473251D01*
X161847669Y-53676788D01*
X161943964Y-53852498D01*
X162135974Y-53960252D01*
X162387816Y-53959965D01*
X162566916Y-53862251D01*
X162654881Y-53677901D01*
X162632172Y-53436814D01*
X162627803Y-53423807D01*
X162571150Y-53340047D01*
X162453635Y-53300529D01*
X162235531Y-53290611D01*
X162060530Y-53298956D01*
X161888409Y-53353200D01*
X161823374Y-53473251D01*
X161607805Y-53473251D01*
X161607500Y-53469244D01*
X161610864Y-53263276D01*
G37*
G36*
X158947763Y-52864423D02*
G01*
X158973426Y-52773204D01*
X158977360Y-52770625D01*
X159079263Y-52753265D01*
X159290140Y-52739139D01*
X159581769Y-52729642D01*
X159925926Y-52726167D01*
X160831389Y-52726167D01*
X160831389Y-52908622D01*
X160830468Y-52958094D01*
X160806209Y-53045762D01*
X160719502Y-53075338D01*
X160531528Y-53067372D01*
X160231667Y-53043667D01*
X160254819Y-53337865D01*
X160259136Y-53413473D01*
X160228774Y-53690278D01*
X160106618Y-53876601D01*
X159879187Y-53996068D01*
X159618318Y-54049565D01*
X159330780Y-54009680D01*
X159112865Y-53853028D01*
X158974695Y-53587828D01*
X158926389Y-53222300D01*
X158927741Y-53168242D01*
X159208821Y-53168242D01*
X159210940Y-53339157D01*
X159241324Y-53515274D01*
X159293278Y-53629278D01*
X159293883Y-53629877D01*
X159421025Y-53689271D01*
X159606777Y-53713944D01*
X159638534Y-53712999D01*
X159855030Y-53642930D01*
X159984964Y-53482342D01*
X160002943Y-53260310D01*
X159994561Y-53223163D01*
X159945286Y-53136319D01*
X159833142Y-53091021D01*
X159619017Y-53067642D01*
X159494235Y-53061126D01*
X159319261Y-53060549D01*
X159237975Y-53073065D01*
X159208821Y-53168242D01*
X158927741Y-53168242D01*
X158930679Y-53050746D01*
X158947763Y-52864423D01*
G37*
G36*
X161622203Y-51296283D02*
G01*
X161745380Y-51365578D01*
X161911721Y-51493905D01*
X162024738Y-51586290D01*
X162177331Y-51695720D01*
X162265573Y-51738389D01*
X162318113Y-51717658D01*
X162457460Y-51627662D01*
X162636226Y-51490574D01*
X162766524Y-51392916D01*
X162908006Y-51312822D01*
X162979136Y-51308264D01*
X162995883Y-51358864D01*
X162965564Y-51513555D01*
X162860747Y-51679061D01*
X162708995Y-51804725D01*
X162650438Y-51837753D01*
X162542323Y-51931861D01*
X162567625Y-52019197D01*
X162727646Y-52121923D01*
X162854057Y-52224377D01*
X162951684Y-52376433D01*
X162988332Y-52525062D01*
X162943653Y-52623055D01*
X162902919Y-52617896D01*
X162779930Y-52543673D01*
X162617976Y-52410041D01*
X162515324Y-52319760D01*
X162369185Y-52206477D01*
X162285045Y-52162059D01*
X162234700Y-52182508D01*
X162097847Y-52272040D01*
X161920393Y-52408667D01*
X161852823Y-52463751D01*
X161680720Y-52595722D01*
X161585741Y-52641755D01*
X161545175Y-52607063D01*
X161536309Y-52496861D01*
X161537491Y-52477483D01*
X161608494Y-52316181D01*
X161765614Y-52145533D01*
X161995556Y-51952956D01*
X161766250Y-51770003D01*
X161603199Y-51599033D01*
X161535226Y-51428644D01*
X161581521Y-51293998D01*
X161622203Y-51296283D01*
G37*
G36*
X159195639Y-50915971D02*
G01*
X159370051Y-51016315D01*
X159401273Y-51061625D01*
X159468744Y-51266266D01*
X159504459Y-51563120D01*
X159507267Y-51617208D01*
X159523321Y-51828132D01*
X159554843Y-51937630D01*
X159620205Y-51978948D01*
X159737778Y-51985333D01*
X159949445Y-51985333D01*
X159949445Y-51462089D01*
X159949657Y-51421351D01*
X159960935Y-51173114D01*
X159985964Y-50992584D01*
X160020000Y-50916431D01*
X160136240Y-50924636D01*
X160226642Y-51056321D01*
X160268815Y-51315055D01*
X160273231Y-51403590D01*
X160278044Y-51711428D01*
X160254410Y-51923182D01*
X160195319Y-52074295D01*
X160093763Y-52200207D01*
X160075866Y-52217469D01*
X159845377Y-52350256D01*
X159600649Y-52351368D01*
X159371909Y-52219979D01*
X159354748Y-52203412D01*
X159263897Y-52080873D01*
X159220017Y-51917241D01*
X159208612Y-51663083D01*
X159200568Y-51471773D01*
X159151603Y-51274376D01*
X159050996Y-51194025D01*
X158890502Y-51219219D01*
X158832024Y-51260462D01*
X158752284Y-51421823D01*
X158721193Y-51655861D01*
X158741851Y-51921924D01*
X158817353Y-52179361D01*
X158830718Y-52214760D01*
X158815459Y-52285063D01*
X158688338Y-52302833D01*
X158536749Y-52264178D01*
X158460656Y-52123186D01*
X158440655Y-52008456D01*
X158433732Y-51737194D01*
X158464001Y-51449558D01*
X158524409Y-51197738D01*
X158607900Y-51033927D01*
X158739934Y-50943169D01*
X158965084Y-50892063D01*
X159195639Y-50915971D01*
G37*
G36*
X162609519Y-49675294D02*
G01*
X162809862Y-49684377D01*
X162898172Y-49698838D01*
X162907206Y-49714103D01*
X162927264Y-49839593D01*
X162936671Y-50058047D01*
X162933449Y-50333838D01*
X162927049Y-50498499D01*
X162911510Y-50727277D01*
X162885738Y-50856593D01*
X162842325Y-50913988D01*
X162773861Y-50927000D01*
X162704154Y-50915098D01*
X162659116Y-50855444D01*
X162638500Y-50716893D01*
X162632750Y-50468389D01*
X162630556Y-50009778D01*
X162401250Y-49987669D01*
X162171945Y-49965559D01*
X162171945Y-50433548D01*
X162171850Y-50502736D01*
X162166602Y-50723472D01*
X162145647Y-50839870D01*
X162098433Y-50881764D01*
X162014407Y-50878990D01*
X161939203Y-50859828D01*
X161885137Y-50800815D01*
X161861403Y-50670130D01*
X161855657Y-50433111D01*
X161854445Y-50009778D01*
X161625139Y-49987669D01*
X161395834Y-49965559D01*
X161395834Y-50424477D01*
X161387309Y-50688236D01*
X161352727Y-50867148D01*
X161283937Y-50940515D01*
X161172895Y-50926449D01*
X161153257Y-50913751D01*
X161109798Y-50816602D01*
X161085741Y-50615895D01*
X161078334Y-50293196D01*
X161078334Y-49696230D01*
X161960278Y-49676615D01*
X161988732Y-49676005D01*
X162326142Y-49672274D01*
X162609519Y-49675294D01*
G37*
G36*
X152164460Y-49241523D02*
G01*
X152589032Y-49305375D01*
X152950109Y-49406986D01*
X153334006Y-49609372D01*
X153727292Y-49925395D01*
X154070014Y-50310573D01*
X154324638Y-50728812D01*
X154516667Y-51138667D01*
X154539350Y-53060838D01*
X154545107Y-53531615D01*
X154552114Y-54000471D01*
X154560307Y-54358020D01*
X154571105Y-54620752D01*
X154585926Y-54805157D01*
X154606187Y-54927726D01*
X154633308Y-55004947D01*
X154668706Y-55053312D01*
X154713799Y-55089310D01*
X154769870Y-55123171D01*
X155014526Y-55190402D01*
X155268382Y-55165985D01*
X155470826Y-55052841D01*
X155471072Y-55052595D01*
X155508576Y-55010318D01*
X155538812Y-54956704D01*
X155562525Y-54877334D01*
X155580461Y-54757790D01*
X155593363Y-54583651D01*
X155601979Y-54340499D01*
X155607051Y-54013914D01*
X155609327Y-53589477D01*
X155609551Y-53052768D01*
X155608468Y-52389369D01*
X155603340Y-49868667D01*
X157736897Y-49868667D01*
X157729053Y-52479222D01*
X157725755Y-53077772D01*
X157719721Y-53646946D01*
X157711375Y-54163114D01*
X157701123Y-54608654D01*
X157689372Y-54965947D01*
X157676526Y-55217370D01*
X157662994Y-55345304D01*
X157635582Y-55451952D01*
X157425659Y-55947494D01*
X157100655Y-56401872D01*
X156681746Y-56790044D01*
X156190108Y-57086971D01*
X156081626Y-57135806D01*
X155884299Y-57208350D01*
X155681982Y-57250756D01*
X155429358Y-57270752D01*
X155081112Y-57276064D01*
X154847746Y-57274762D01*
X154569279Y-57262450D01*
X154355580Y-57230386D01*
X154160160Y-57170372D01*
X153936533Y-57074212D01*
X153609689Y-56885968D01*
X153212569Y-56561545D01*
X152870459Y-56178295D01*
X152625362Y-55777748D01*
X152604062Y-55730407D01*
X152562365Y-55622899D01*
X152529584Y-55502411D01*
X152504204Y-55350641D01*
X152484709Y-55149285D01*
X152469585Y-54880040D01*
X152457315Y-54524603D01*
X152446385Y-54064671D01*
X152435278Y-53481941D01*
X152427069Y-53018974D01*
X152417042Y-52524718D01*
X152404641Y-52143964D01*
X152386383Y-51861077D01*
X152358783Y-51660423D01*
X152318358Y-51526369D01*
X152261623Y-51443280D01*
X152185093Y-51395522D01*
X152085286Y-51367460D01*
X151958717Y-51343461D01*
X151797508Y-51331836D01*
X151553891Y-51414036D01*
X151378681Y-51528837D01*
X151341667Y-56685611D01*
X150283334Y-56685613D01*
X149225000Y-56685615D01*
X149204826Y-54264919D01*
X149202314Y-53928237D01*
X149199957Y-53225851D01*
X149203651Y-52642735D01*
X149214652Y-52163585D01*
X149234216Y-51773098D01*
X149263599Y-51455969D01*
X149304059Y-51196894D01*
X149356851Y-50980570D01*
X149423231Y-50791693D01*
X149504457Y-50614958D01*
X149800958Y-50170522D01*
X150208547Y-49777016D01*
X150691138Y-49469083D01*
X151217907Y-49270901D01*
X151351589Y-49244910D01*
X151733082Y-49219883D01*
X152164460Y-49241523D01*
G37*
G36*
X149215474Y-40741816D02*
G01*
X149443366Y-39827850D01*
X149794010Y-38969316D01*
X150263290Y-38179720D01*
X150266184Y-38175049D01*
X150276022Y-38120390D01*
X150263529Y-38021582D01*
X150224990Y-37867750D01*
X150156688Y-37648018D01*
X150054909Y-37351508D01*
X149915939Y-36967345D01*
X149736061Y-36484651D01*
X149511560Y-35892550D01*
X149238723Y-35180167D01*
X149081449Y-34770353D01*
X148860288Y-34192184D01*
X148659023Y-33663817D01*
X148482806Y-33198894D01*
X148336785Y-32811056D01*
X148226109Y-32513946D01*
X148217139Y-32489312D01*
X148476635Y-32489312D01*
X148522952Y-32676557D01*
X148562960Y-32768925D01*
X148647092Y-32978425D01*
X148773994Y-33302979D01*
X148944604Y-33745039D01*
X149159860Y-34307054D01*
X149420700Y-34991475D01*
X149728062Y-35800750D01*
X150082884Y-36737331D01*
X150486104Y-37803667D01*
X150509655Y-37865722D01*
X150593794Y-38068871D01*
X150665726Y-38175204D01*
X150754217Y-38214175D01*
X150888030Y-38215239D01*
X150973822Y-38206068D01*
X151198920Y-38170528D01*
X151513414Y-38113619D01*
X151888199Y-38040685D01*
X152294167Y-37957070D01*
X152659441Y-37879191D01*
X152983813Y-37806796D01*
X153204970Y-37750246D01*
X153341952Y-37702691D01*
X153413800Y-37657281D01*
X153439556Y-37607166D01*
X153438260Y-37545498D01*
X153435119Y-37520792D01*
X153414811Y-37366569D01*
X153378582Y-37094398D01*
X153328546Y-36720050D01*
X153266813Y-36259299D01*
X153195497Y-35727918D01*
X153116710Y-35141680D01*
X153032565Y-34516358D01*
X152997518Y-34255726D01*
X152916437Y-33650075D01*
X152842376Y-33093136D01*
X152777322Y-32600096D01*
X152723264Y-32186142D01*
X152682190Y-31866461D01*
X152656087Y-31656239D01*
X152646945Y-31570664D01*
X152641717Y-31536681D01*
X152616018Y-31514203D01*
X152555242Y-31506687D01*
X152444784Y-31516642D01*
X152270040Y-31546579D01*
X152016406Y-31599009D01*
X151669276Y-31676442D01*
X151214046Y-31781390D01*
X150636112Y-31916364D01*
X150227933Y-32011115D01*
X149774286Y-32114380D01*
X149377265Y-32202545D01*
X149057034Y-32271216D01*
X148833753Y-32315995D01*
X148727584Y-32332487D01*
X148551984Y-32372349D01*
X148476635Y-32489312D01*
X148217139Y-32489312D01*
X148155927Y-32321204D01*
X148131389Y-32246474D01*
X148152447Y-32218121D01*
X148260571Y-32194500D01*
X148354121Y-32181129D01*
X148567687Y-32139942D01*
X148877644Y-32075644D01*
X149262780Y-31993018D01*
X149701879Y-31896845D01*
X150173727Y-31791908D01*
X150657111Y-31682989D01*
X151130817Y-31574870D01*
X151573629Y-31472334D01*
X151964334Y-31380162D01*
X152281719Y-31303137D01*
X152504567Y-31246041D01*
X152611667Y-31213655D01*
X152705519Y-31185694D01*
X152798436Y-31196971D01*
X152802106Y-31205898D01*
X152824822Y-31319623D01*
X152861322Y-31546347D01*
X152908805Y-31865213D01*
X152964470Y-32255366D01*
X153025517Y-32695947D01*
X153089145Y-33166100D01*
X153152552Y-33644969D01*
X153212938Y-34111697D01*
X153267501Y-34545426D01*
X153313442Y-34925300D01*
X153347959Y-35230462D01*
X153368250Y-35440055D01*
X153368706Y-35445723D01*
X153390513Y-35581505D01*
X153445259Y-35655580D01*
X153558037Y-35671805D01*
X153753938Y-35634039D01*
X154058056Y-35546143D01*
X154183843Y-35512942D01*
X154574355Y-35446460D01*
X155047462Y-35402472D01*
X155562673Y-35382013D01*
X156079501Y-35386117D01*
X156557456Y-35415817D01*
X156956048Y-35472147D01*
X157767013Y-35690849D01*
X158632036Y-36055402D01*
X159429446Y-36535138D01*
X160149890Y-37121144D01*
X160784014Y-37804508D01*
X161322464Y-38576318D01*
X161755888Y-39427661D01*
X162074933Y-40349626D01*
X162074986Y-40349824D01*
X162144871Y-40713914D01*
X162191244Y-41177078D01*
X162214144Y-41699609D01*
X162213608Y-42241798D01*
X162189677Y-42763936D01*
X162142387Y-43226313D01*
X162071779Y-43589222D01*
X162024770Y-43752981D01*
X161684055Y-44658842D01*
X161231587Y-45493213D01*
X160677166Y-46247115D01*
X160030588Y-46911568D01*
X159301652Y-47477594D01*
X158500155Y-47936211D01*
X157635894Y-48278442D01*
X156718669Y-48495306D01*
X156468149Y-48526465D01*
X155967972Y-48552907D01*
X155419128Y-48547220D01*
X154868593Y-48511693D01*
X154363339Y-48448619D01*
X153950342Y-48360287D01*
X153186054Y-48095555D01*
X152383458Y-47694248D01*
X151641668Y-47177324D01*
X150941058Y-46532864D01*
X150705926Y-46277725D01*
X150126530Y-45521002D01*
X149678935Y-44715876D01*
X149361392Y-43857984D01*
X149172149Y-42942961D01*
X149109457Y-41966444D01*
X149375235Y-41966444D01*
X149375295Y-41999612D01*
X149378371Y-42434136D01*
X149388140Y-42764297D01*
X149408413Y-43024546D01*
X149443003Y-43249335D01*
X149495720Y-43473113D01*
X149570376Y-43730333D01*
X149782997Y-44310997D01*
X150089510Y-44955255D01*
X150448637Y-45568009D01*
X150831181Y-46094516D01*
X150927966Y-46207235D01*
X151436737Y-46701664D01*
X152045054Y-47165238D01*
X152719024Y-47576740D01*
X153424753Y-47914950D01*
X154128345Y-48158649D01*
X154555315Y-48243707D01*
X155092095Y-48297146D01*
X155676916Y-48314451D01*
X156264648Y-48295737D01*
X156810164Y-48241119D01*
X157268334Y-48150710D01*
X158024164Y-47893307D01*
X158856546Y-47477087D01*
X159620004Y-46947386D01*
X160300993Y-46315332D01*
X160885969Y-45592050D01*
X161361385Y-44788667D01*
X161463282Y-44572900D01*
X161780603Y-43700873D01*
X161966351Y-42801452D01*
X162021500Y-41889877D01*
X161947020Y-40981388D01*
X161743884Y-40091226D01*
X161413065Y-39234631D01*
X160955535Y-38426843D01*
X160406578Y-37718095D01*
X159734991Y-37067167D01*
X158979502Y-36522235D01*
X158152990Y-36092519D01*
X157268334Y-35787236D01*
X156914734Y-35714881D01*
X156456448Y-35656104D01*
X155956804Y-35618186D01*
X155460607Y-35603437D01*
X155012663Y-35614167D01*
X154657778Y-35652685D01*
X154540444Y-35675417D01*
X154232763Y-35746924D01*
X153940067Y-35829420D01*
X153693132Y-35912888D01*
X153522732Y-35987312D01*
X153459640Y-36042673D01*
X153463490Y-36085848D01*
X153483215Y-36249232D01*
X153515808Y-36497977D01*
X153556914Y-36798250D01*
X153652882Y-37486167D01*
X153917385Y-37486167D01*
X153952515Y-37486574D01*
X154166424Y-37524463D01*
X154290845Y-37644152D01*
X154358244Y-37874222D01*
X154388527Y-38018454D01*
X154447355Y-38267160D01*
X154525702Y-38582455D01*
X154614957Y-38928964D01*
X154835975Y-39772039D01*
X154554876Y-40058458D01*
X154273777Y-40344876D01*
X154518694Y-42208568D01*
X154582005Y-42693035D01*
X154640935Y-43149427D01*
X154690978Y-43542676D01*
X154729718Y-43853597D01*
X154754735Y-44063004D01*
X154763612Y-44151711D01*
X154713137Y-44185653D01*
X154551708Y-44241216D01*
X154309024Y-44308364D01*
X154015772Y-44380285D01*
X153702639Y-44450169D01*
X153400310Y-44511205D01*
X153139473Y-44556581D01*
X152950814Y-44579486D01*
X152865019Y-44573111D01*
X152864828Y-44572915D01*
X152828731Y-44496865D01*
X152749576Y-44306723D01*
X152634338Y-44020017D01*
X152489989Y-43654274D01*
X152323505Y-43227018D01*
X152141860Y-42755777D01*
X152106189Y-42662671D01*
X151905703Y-42134626D01*
X151752971Y-41721245D01*
X151643572Y-41408525D01*
X151573084Y-41182467D01*
X151549265Y-41080965D01*
X151715520Y-41080965D01*
X151732715Y-41137112D01*
X151795182Y-41312877D01*
X151893860Y-41578242D01*
X152020115Y-41911055D01*
X152165317Y-42289166D01*
X152320830Y-42690423D01*
X152478024Y-43092675D01*
X152628264Y-43473772D01*
X152762919Y-43811561D01*
X152873355Y-44083893D01*
X152950939Y-44268615D01*
X152987039Y-44343577D01*
X153022184Y-44350047D01*
X153169811Y-44338752D01*
X153397818Y-44305703D01*
X153670604Y-44257738D01*
X153952565Y-44201695D01*
X154208101Y-44144412D01*
X154401608Y-44092725D01*
X154497486Y-44053475D01*
X154503319Y-44017823D01*
X154498264Y-43859678D01*
X154477415Y-43594293D01*
X154442635Y-43241615D01*
X154395787Y-42821592D01*
X154338736Y-42354173D01*
X154300913Y-42055483D01*
X154245484Y-41614250D01*
X154198064Y-41232476D01*
X154161129Y-40930289D01*
X154137153Y-40727817D01*
X154128612Y-40645187D01*
X154109544Y-40601652D01*
X154035947Y-40600345D01*
X153972744Y-40670157D01*
X153937760Y-40695169D01*
X153772503Y-40731192D01*
X153481024Y-40760475D01*
X153072492Y-40781883D01*
X152703089Y-40800900D01*
X152259866Y-40844817D01*
X151944848Y-40906724D01*
X151762058Y-40985736D01*
X151715520Y-41080965D01*
X151549265Y-41080965D01*
X151537087Y-41029068D01*
X151531160Y-40934329D01*
X151550881Y-40884248D01*
X151576628Y-40849011D01*
X151585007Y-40760001D01*
X151530055Y-40618329D01*
X151402385Y-40392944D01*
X151280336Y-40195829D01*
X151164556Y-40020175D01*
X151093780Y-39926446D01*
X151065004Y-39887622D01*
X151024167Y-39745163D01*
X151023928Y-39739752D01*
X150987315Y-39616851D01*
X150900501Y-39415125D01*
X150780911Y-39175387D01*
X150683401Y-38979598D01*
X150596911Y-38747083D01*
X150598119Y-38619447D01*
X150604735Y-38511414D01*
X150535941Y-38389601D01*
X150430193Y-38332833D01*
X150392832Y-38365489D01*
X150305313Y-38505242D01*
X150187231Y-38730761D01*
X150050749Y-39015573D01*
X149908027Y-39333206D01*
X149771225Y-39657189D01*
X149652505Y-39961050D01*
X149564027Y-40218316D01*
X149555271Y-40246852D01*
X149484299Y-40492062D01*
X149434603Y-40708545D01*
X149402517Y-40930264D01*
X149384372Y-41191179D01*
X149376500Y-41525252D01*
X149375235Y-41966444D01*
X149109457Y-41966444D01*
X149114450Y-41697708D01*
X149215474Y-40741816D01*
G37*
M02*
