G04 #@! TF.GenerationSoftware,KiCad,Pcbnew,6.0.0-unknown-920f128~86~ubuntu18.04.1*
G04 #@! TF.CreationDate,2019-07-19T16:12:04-04:00*
G04 #@! TF.ProjectId,Femtosat,46656d74-6f73-4617-942e-6b696361645f,rev?*
G04 #@! TF.SameCoordinates,Original*
G04 #@! TF.FileFunction,Copper,L2,Bot*
G04 #@! TF.FilePolarity,Positive*
%FSLAX46Y46*%
G04 Gerber Fmt 4.6, Leading zero omitted, Abs format (unit mm)*
G04 Created by KiCad (PCBNEW 6.0.0-unknown-920f128~86~ubuntu18.04.1) date 2019-07-19 16:12:04*
%MOMM*%
%LPD*%
G04 APERTURE LIST*
%ADD10C,1.600000*%
%ADD11R,1.600000X1.600000*%
%ADD12C,5.000000*%
%ADD13R,2.200000X1.050000*%
%ADD14R,1.050000X1.000000*%
%ADD15C,1.700000*%
%ADD16R,1.000000X1.400000*%
%ADD17R,1.200000X1.400000*%
%ADD18C,0.100000*%
%ADD19C,0.950000*%
%ADD20C,1.524000*%
%ADD21R,1.524000X1.524000*%
%ADD22R,1.300000X2.500000*%
%ADD23O,1.750000X1.200000*%
%ADD24C,1.200000*%
%ADD25O,1.700000X1.700000*%
%ADD26R,1.700000X1.700000*%
%ADD27C,1.400000*%
%ADD28C,1.500000*%
%ADD29C,1.000000*%
%ADD30C,1.300000*%
%ADD31C,0.450000*%
%ADD32C,0.550000*%
%ADD33C,0.800000*%
%ADD34C,1.000000*%
%ADD35C,0.500000*%
%ADD36C,0.254000*%
G04 APERTURE END LIST*
D10*
X90650000Y-53340000D03*
X90650000Y-50800000D03*
D11*
X90650000Y-48260000D03*
D12*
X89065000Y-66430000D03*
X89065000Y-44200000D03*
X166545000Y-66430000D03*
X166545000Y-44200000D03*
D11*
X165145000Y-61600000D03*
D10*
X167685000Y-61600000D03*
X165145000Y-59060000D03*
X167685000Y-59060000D03*
X165145000Y-56520000D03*
X167685000Y-56520000D03*
X165145000Y-53980000D03*
X167685000Y-53980000D03*
X165145000Y-51440000D03*
X167685000Y-51440000D03*
X165145000Y-48900000D03*
X167685000Y-48900000D03*
D13*
X157925000Y-60325000D03*
D14*
X156400000Y-58850000D03*
D13*
X157925000Y-57375000D03*
D15*
X97050000Y-64100000D03*
X103550000Y-64100000D03*
X97050000Y-68600000D03*
X103550000Y-68600000D03*
D16*
X100950000Y-57550000D03*
X99050000Y-57550000D03*
X99050000Y-59750000D03*
D17*
X100770000Y-59750000D03*
D18*
G36*
X108553387Y-65493079D02*
G01*
X108630438Y-65544562D01*
X108681921Y-65621613D01*
X108700000Y-65712500D01*
X108700000Y-66187500D01*
X108681921Y-66278387D01*
X108630438Y-66355438D01*
X108553387Y-66406921D01*
X108462500Y-66425000D01*
X107887500Y-66425000D01*
X107796613Y-66406921D01*
X107719562Y-66355438D01*
X107668079Y-66278387D01*
X107650000Y-66187500D01*
X107650000Y-65712500D01*
X107668079Y-65621613D01*
X107719562Y-65544562D01*
X107796613Y-65493079D01*
X107887500Y-65475000D01*
X108462500Y-65475000D01*
X108553387Y-65493079D01*
X108553387Y-65493079D01*
G37*
D19*
X108175000Y-65950000D03*
D18*
G36*
X110303387Y-65493079D02*
G01*
X110380438Y-65544562D01*
X110431921Y-65621613D01*
X110450000Y-65712500D01*
X110450000Y-66187500D01*
X110431921Y-66278387D01*
X110380438Y-66355438D01*
X110303387Y-66406921D01*
X110212500Y-66425000D01*
X109637500Y-66425000D01*
X109546613Y-66406921D01*
X109469562Y-66355438D01*
X109418079Y-66278387D01*
X109400000Y-66187500D01*
X109400000Y-65712500D01*
X109418079Y-65621613D01*
X109469562Y-65544562D01*
X109546613Y-65493079D01*
X109637500Y-65475000D01*
X110212500Y-65475000D01*
X110303387Y-65493079D01*
X110303387Y-65493079D01*
G37*
D19*
X109925000Y-65950000D03*
D18*
G36*
X115703387Y-65443079D02*
G01*
X115780438Y-65494562D01*
X115831921Y-65571613D01*
X115850000Y-65662500D01*
X115850000Y-66137500D01*
X115831921Y-66228387D01*
X115780438Y-66305438D01*
X115703387Y-66356921D01*
X115612500Y-66375000D01*
X115037500Y-66375000D01*
X114946613Y-66356921D01*
X114869562Y-66305438D01*
X114818079Y-66228387D01*
X114800000Y-66137500D01*
X114800000Y-65662500D01*
X114818079Y-65571613D01*
X114869562Y-65494562D01*
X114946613Y-65443079D01*
X115037500Y-65425000D01*
X115612500Y-65425000D01*
X115703387Y-65443079D01*
X115703387Y-65443079D01*
G37*
D19*
X115325000Y-65900000D03*
D18*
G36*
X113953387Y-65443079D02*
G01*
X114030438Y-65494562D01*
X114081921Y-65571613D01*
X114100000Y-65662500D01*
X114100000Y-66137500D01*
X114081921Y-66228387D01*
X114030438Y-66305438D01*
X113953387Y-66356921D01*
X113862500Y-66375000D01*
X113287500Y-66375000D01*
X113196613Y-66356921D01*
X113119562Y-66305438D01*
X113068079Y-66228387D01*
X113050000Y-66137500D01*
X113050000Y-65662500D01*
X113068079Y-65571613D01*
X113119562Y-65494562D01*
X113196613Y-65443079D01*
X113287500Y-65425000D01*
X113862500Y-65425000D01*
X113953387Y-65443079D01*
X113953387Y-65443079D01*
G37*
D19*
X113575000Y-65900000D03*
D20*
X116120000Y-42470000D03*
X118660000Y-42470000D03*
X121200000Y-42470000D03*
X123740000Y-42470000D03*
D21*
X126280000Y-42470000D03*
D22*
X139150000Y-58850000D03*
X141150000Y-58850000D03*
X143150000Y-58850000D03*
X145150000Y-58850000D03*
X147150000Y-58850000D03*
X149150000Y-58850000D03*
X151150000Y-58850000D03*
X153150000Y-58850000D03*
X153150000Y-42850000D03*
X151150000Y-42850000D03*
X149150000Y-42850000D03*
X147150000Y-42850000D03*
X145150000Y-42850000D03*
X143150000Y-42850000D03*
X141150000Y-42850000D03*
X139150000Y-42850000D03*
D23*
X94000000Y-44800000D03*
D18*
G36*
X94720671Y-42219030D02*
G01*
X94801777Y-42273223D01*
X94855970Y-42354329D01*
X94875000Y-42449999D01*
X94875000Y-43150001D01*
X94855970Y-43245671D01*
X94801777Y-43326777D01*
X94720671Y-43380970D01*
X94625001Y-43400000D01*
X93374999Y-43400000D01*
X93279329Y-43380970D01*
X93198223Y-43326777D01*
X93144030Y-43245671D01*
X93125000Y-43150001D01*
X93125000Y-42449999D01*
X93144030Y-42354329D01*
X93198223Y-42273223D01*
X93279329Y-42219030D01*
X93374999Y-42200000D01*
X94625001Y-42200000D01*
X94720671Y-42219030D01*
X94720671Y-42219030D01*
G37*
D24*
X94000000Y-42800000D03*
D25*
X117910000Y-68600000D03*
X115370000Y-68600000D03*
X112830000Y-68600000D03*
X110290000Y-68600000D03*
D26*
X107750000Y-68600000D03*
D18*
G36*
X147653387Y-60943079D02*
G01*
X147730438Y-60994562D01*
X147781921Y-61071613D01*
X147800000Y-61162500D01*
X147800000Y-61637500D01*
X147781921Y-61728387D01*
X147730438Y-61805438D01*
X147653387Y-61856921D01*
X147562500Y-61875000D01*
X146987500Y-61875000D01*
X146896613Y-61856921D01*
X146819562Y-61805438D01*
X146768079Y-61728387D01*
X146750000Y-61637500D01*
X146750000Y-61162500D01*
X146768079Y-61071613D01*
X146819562Y-60994562D01*
X146896613Y-60943079D01*
X146987500Y-60925000D01*
X147562500Y-60925000D01*
X147653387Y-60943079D01*
X147653387Y-60943079D01*
G37*
D19*
X147275000Y-61400000D03*
D18*
G36*
X149403387Y-60943079D02*
G01*
X149480438Y-60994562D01*
X149531921Y-61071613D01*
X149550000Y-61162500D01*
X149550000Y-61637500D01*
X149531921Y-61728387D01*
X149480438Y-61805438D01*
X149403387Y-61856921D01*
X149312500Y-61875000D01*
X148737500Y-61875000D01*
X148646613Y-61856921D01*
X148569562Y-61805438D01*
X148518079Y-61728387D01*
X148500000Y-61637500D01*
X148500000Y-61162500D01*
X148518079Y-61071613D01*
X148569562Y-60994562D01*
X148646613Y-60943079D01*
X148737500Y-60925000D01*
X149312500Y-60925000D01*
X149403387Y-60943079D01*
X149403387Y-60943079D01*
G37*
D19*
X149025000Y-61400000D03*
D18*
G36*
X147653387Y-62493079D02*
G01*
X147730438Y-62544562D01*
X147781921Y-62621613D01*
X147800000Y-62712500D01*
X147800000Y-63187500D01*
X147781921Y-63278387D01*
X147730438Y-63355438D01*
X147653387Y-63406921D01*
X147562500Y-63425000D01*
X146987500Y-63425000D01*
X146896613Y-63406921D01*
X146819562Y-63355438D01*
X146768079Y-63278387D01*
X146750000Y-63187500D01*
X146750000Y-62712500D01*
X146768079Y-62621613D01*
X146819562Y-62544562D01*
X146896613Y-62493079D01*
X146987500Y-62475000D01*
X147562500Y-62475000D01*
X147653387Y-62493079D01*
X147653387Y-62493079D01*
G37*
D19*
X147275000Y-62950000D03*
D18*
G36*
X149403387Y-62493079D02*
G01*
X149480438Y-62544562D01*
X149531921Y-62621613D01*
X149550000Y-62712500D01*
X149550000Y-63187500D01*
X149531921Y-63278387D01*
X149480438Y-63355438D01*
X149403387Y-63406921D01*
X149312500Y-63425000D01*
X148737500Y-63425000D01*
X148646613Y-63406921D01*
X148569562Y-63355438D01*
X148518079Y-63278387D01*
X148500000Y-63187500D01*
X148500000Y-62712500D01*
X148518079Y-62621613D01*
X148569562Y-62544562D01*
X148646613Y-62493079D01*
X148737500Y-62475000D01*
X149312500Y-62475000D01*
X149403387Y-62493079D01*
X149403387Y-62493079D01*
G37*
D19*
X149025000Y-62950000D03*
D27*
X107350000Y-42925000D03*
X109425000Y-47625000D03*
X99500000Y-64675000D03*
X102950000Y-48050000D03*
X104005851Y-50355851D03*
X102250000Y-50450000D03*
D28*
X92300000Y-46100000D03*
D24*
X95400000Y-61700000D03*
D27*
X104000000Y-62350000D03*
D24*
X97550000Y-60200000D03*
X97550000Y-57250000D03*
D29*
X112850000Y-71425000D03*
D27*
X108600000Y-62200000D03*
X111800000Y-65900000D03*
X119750000Y-65700000D03*
X120550000Y-67650000D03*
X95400000Y-63300003D03*
X97800000Y-51300000D03*
X102950000Y-46750000D03*
X120950000Y-39500000D03*
X150800000Y-61450000D03*
X150850000Y-62950000D03*
X151150000Y-56200000D03*
X153100000Y-40150000D03*
D24*
X123750000Y-39500000D03*
D27*
X143350000Y-44750000D03*
X145600000Y-45000000D03*
X152950000Y-45100000D03*
X135700000Y-43400000D03*
X147750000Y-45100000D03*
X135300000Y-48500000D03*
X135550000Y-53150000D03*
X155100000Y-41450000D03*
X156800000Y-41600000D03*
X114350000Y-48550000D03*
D24*
X115650000Y-47100000D03*
D27*
X115600000Y-62400000D03*
D29*
X111740919Y-63456457D03*
D27*
X117070634Y-63030271D03*
X118150000Y-65100000D03*
X119650000Y-63000000D03*
X145650000Y-61400000D03*
X110175000Y-49562464D03*
X108050000Y-52050000D03*
X105301312Y-55398688D03*
X124550000Y-58650000D03*
X135300000Y-58650000D03*
X121100000Y-58750000D03*
X122750000Y-58750000D03*
X106568250Y-52653676D03*
X146750000Y-40800000D03*
X126000000Y-57450000D03*
X150800000Y-40250000D03*
X117000000Y-52050000D03*
X146725000Y-56400000D03*
X146650000Y-48650000D03*
D30*
X145525000Y-49750000D03*
D24*
X127300000Y-62575000D03*
D27*
X142250000Y-62600000D03*
D24*
X128500000Y-63900000D03*
X129850000Y-65774999D03*
D27*
X108700000Y-50400000D03*
X120400000Y-52100000D03*
X132800000Y-51125000D03*
X136800000Y-39450000D03*
X148650000Y-40250000D03*
X123000000Y-47250000D03*
X124680851Y-47230851D03*
X126300000Y-47200000D03*
D30*
X118650000Y-46799999D03*
D27*
X157900000Y-62050000D03*
X157950000Y-55600000D03*
X155300000Y-61550000D03*
X160650000Y-60400000D03*
X160550000Y-57350000D03*
X155450000Y-56200000D03*
X99950000Y-55750000D03*
X91800000Y-54650000D03*
X157900000Y-67450000D03*
X149050000Y-67550000D03*
X96200000Y-39950000D03*
X102950000Y-40300000D03*
X95400000Y-53600000D03*
X122750000Y-63600000D03*
X130400000Y-43400000D03*
X128100000Y-45550000D03*
X95475000Y-70375000D03*
D29*
X162000000Y-61850000D03*
X163200000Y-62380086D03*
D24*
X165140922Y-63333457D03*
D31*
X109950000Y-47100000D02*
X109425000Y-47625000D01*
X115650000Y-47100000D02*
X109950000Y-47100000D01*
D32*
X104005851Y-50355851D02*
X110261702Y-44100000D01*
X110261702Y-44100000D02*
X117030000Y-44100000D01*
X117030000Y-44100000D02*
X117898001Y-43231999D01*
X117898001Y-43231999D02*
X118660000Y-42470000D01*
X102250000Y-50450000D02*
X110230000Y-42470000D01*
X110230000Y-42470000D02*
X116120000Y-42470000D01*
X104000000Y-63650000D02*
X103550000Y-64100000D01*
X104000000Y-62350000D02*
X104000000Y-63650000D01*
D31*
X99050000Y-59750000D02*
X98000000Y-59750000D01*
X98000000Y-59750000D02*
X97550000Y-60200000D01*
X97850000Y-57550000D02*
X97550000Y-57250000D01*
X99050000Y-57550000D02*
X97850000Y-57550000D01*
X112830000Y-68600000D02*
X112830000Y-71405000D01*
X112830000Y-71405000D02*
X112850000Y-71425000D01*
D32*
X108175000Y-62625000D02*
X108600000Y-62200000D01*
X108175000Y-65950000D02*
X108175000Y-62625000D01*
X103550000Y-68600000D02*
X107750000Y-68600000D01*
X108175000Y-68175000D02*
X107750000Y-68600000D01*
X108175000Y-65950000D02*
X108175000Y-68175000D01*
X103550000Y-68600000D02*
X103550000Y-64100000D01*
X109925000Y-68235000D02*
X110290000Y-68600000D01*
X109925000Y-65950000D02*
X109925000Y-68235000D01*
X113575000Y-65900000D02*
X111800000Y-65900000D01*
X111750000Y-65950000D02*
X111800000Y-65900000D01*
X109925000Y-65950000D02*
X111750000Y-65950000D01*
D31*
X119750000Y-65700000D02*
X119750000Y-66850000D01*
X119750000Y-66850000D02*
X120550000Y-67650000D01*
D32*
X95492189Y-63300003D02*
X95400000Y-63300003D01*
X96017193Y-62774999D02*
X95492189Y-63300003D01*
X98995001Y-62774999D02*
X96017193Y-62774999D01*
X100770000Y-59750000D02*
X100770000Y-61000000D01*
X100770000Y-61000000D02*
X98995001Y-62774999D01*
X121150000Y-42520000D02*
X121200000Y-42470000D01*
D33*
X121200000Y-39750000D02*
X120950000Y-39500000D01*
X121200000Y-42470000D02*
X121200000Y-39750000D01*
X145650000Y-61400000D02*
X147275000Y-61400000D01*
X145150000Y-60900000D02*
X145650000Y-61400000D01*
X145150000Y-58850000D02*
X145150000Y-60900000D01*
X147275000Y-61400000D02*
X147275000Y-62950000D01*
D31*
X149025000Y-61400000D02*
X150750000Y-61400000D01*
X150750000Y-61400000D02*
X150800000Y-61450000D01*
X149025000Y-62950000D02*
X150850000Y-62950000D01*
X151150000Y-58850000D02*
X151150000Y-56200000D01*
X153150000Y-42850000D02*
X153150000Y-40200000D01*
X153150000Y-40200000D02*
X153100000Y-40150000D01*
X123740000Y-42470000D02*
X123740000Y-39510000D01*
X123740000Y-39510000D02*
X123750000Y-39500000D01*
D32*
X143150000Y-42850000D02*
X143150000Y-44550000D01*
X143150000Y-44550000D02*
X143350000Y-44750000D01*
X145150000Y-42850000D02*
X145150000Y-44550000D01*
X145150000Y-44550000D02*
X145600000Y-45000000D01*
D33*
X135300000Y-48500000D02*
X135300000Y-52900000D01*
X135300000Y-52900000D02*
X135550000Y-53150000D01*
D32*
X115325000Y-68555000D02*
X115370000Y-68600000D01*
X115325000Y-65900000D02*
X115325000Y-68555000D01*
X115600000Y-65625000D02*
X115325000Y-65900000D01*
X115600000Y-62400000D02*
X115600000Y-65625000D01*
X118150000Y-68360000D02*
X117910000Y-68600000D01*
X118150000Y-65100000D02*
X118150000Y-68360000D01*
X117070634Y-63030271D02*
X119619729Y-63030271D01*
X119619729Y-63030271D02*
X119650000Y-63000000D01*
X105301312Y-55398688D02*
X121298688Y-55398688D01*
X121298688Y-55398688D02*
X124550000Y-58650000D01*
X147150000Y-41200000D02*
X146750000Y-40800000D01*
X147150000Y-42850000D02*
X147150000Y-41200000D01*
X108050000Y-52050000D02*
X117000000Y-52050000D01*
X121903675Y-53353675D02*
X126000000Y-57450000D01*
X106568250Y-52653676D02*
X107268249Y-53353675D01*
X107268249Y-53353675D02*
X121903675Y-53353675D01*
X141150000Y-52800000D02*
X135300000Y-58650000D01*
X141150000Y-42850000D02*
X141150000Y-52800000D01*
X149574999Y-39024999D02*
X150800000Y-40250000D01*
X144375001Y-39024999D02*
X149574999Y-39024999D01*
X141150000Y-42850000D02*
X141150000Y-42250000D01*
X141150000Y-42250000D02*
X144375001Y-39024999D01*
X145550000Y-58450000D02*
X145150000Y-58850000D01*
X146650000Y-56325000D02*
X146725000Y-56400000D01*
X146650000Y-48650000D02*
X146650000Y-56325000D01*
X145525000Y-58475000D02*
X145150000Y-58850000D01*
X145525000Y-49750000D02*
X145525000Y-58475000D01*
X127300000Y-57010998D02*
X127300000Y-62575000D01*
X120014003Y-49725001D02*
X127300000Y-57010998D01*
X111327486Y-49725001D02*
X120014003Y-49725001D01*
X110175000Y-49562464D02*
X111164949Y-49562464D01*
X111164949Y-49562464D02*
X111327486Y-49725001D01*
X143150000Y-61700000D02*
X143150000Y-58850000D01*
X142250000Y-62600000D02*
X143150000Y-61700000D01*
X165025000Y-61850000D02*
X165145000Y-61730000D01*
X119174999Y-50874999D02*
X120400000Y-52100000D01*
X108700000Y-50400000D02*
X109174999Y-50874999D01*
X109174999Y-50874999D02*
X119174999Y-50874999D01*
X132800000Y-51125000D02*
X132800000Y-43450000D01*
X132800000Y-43450000D02*
X136800000Y-39450000D01*
X149150000Y-40750000D02*
X148650000Y-40250000D01*
X149150000Y-42850000D02*
X149150000Y-40750000D01*
X126280000Y-43970000D02*
X126280000Y-42470000D01*
X123000000Y-47250000D02*
X126280000Y-43970000D01*
X128500000Y-62910051D02*
X128500000Y-63900000D01*
X128500000Y-57150324D02*
X128500000Y-62910051D01*
X124680851Y-53331175D02*
X128500000Y-57150324D01*
X124680851Y-47230851D02*
X124680851Y-53331175D01*
X129850000Y-50750000D02*
X129850000Y-65774999D01*
X126300000Y-47200000D02*
X129850000Y-50750000D01*
X121200000Y-42470000D02*
X121200000Y-44249999D01*
X121200000Y-44249999D02*
X118650000Y-46799999D01*
D31*
X123740000Y-43547630D02*
X123740000Y-42470000D01*
X119412630Y-47875000D02*
X123740000Y-43547630D01*
X116425000Y-47875000D02*
X119412630Y-47875000D01*
X115650000Y-47100000D02*
X116425000Y-47875000D01*
X157925000Y-60325000D02*
X157925000Y-62025000D01*
X157925000Y-62025000D02*
X157900000Y-62050000D01*
X157925000Y-57375000D02*
X157925000Y-55625000D01*
X157925000Y-55625000D02*
X157950000Y-55600000D01*
X157925000Y-60325000D02*
X156525000Y-60325000D01*
X156525000Y-60325000D02*
X155300000Y-61550000D01*
X157925000Y-60325000D02*
X160575000Y-60325000D01*
X160575000Y-60325000D02*
X160650000Y-60400000D01*
X157925000Y-57375000D02*
X160525000Y-57375000D01*
X160525000Y-57375000D02*
X160550000Y-57350000D01*
X157925000Y-57375000D02*
X156625000Y-57375000D01*
X156625000Y-57375000D02*
X155450000Y-56200000D01*
D34*
X156400000Y-58850000D02*
X153150000Y-58850000D01*
D31*
X100950000Y-57550000D02*
X100950000Y-56750000D01*
X100950000Y-56750000D02*
X99950000Y-55750000D01*
D33*
X92499999Y-46299999D02*
X92300000Y-46100000D01*
X92499999Y-53950001D02*
X92499999Y-46299999D01*
X91800000Y-54650000D02*
X92499999Y-53950001D01*
D31*
X157900000Y-62050000D02*
X157900000Y-67450000D01*
X149025000Y-62950000D02*
X149025000Y-67525000D01*
X149025000Y-67525000D02*
X149050000Y-67550000D01*
X102950000Y-46750000D02*
X102950000Y-40300000D01*
X95400000Y-61700000D02*
X95400000Y-53600000D01*
X122750000Y-58750000D02*
X122750000Y-63600000D01*
D32*
X162000000Y-61850000D02*
X162000000Y-50325000D01*
X163425000Y-48900000D02*
X162000000Y-50325000D01*
X165145000Y-48900000D02*
X163425000Y-48900000D01*
D35*
X167685000Y-51440000D02*
X167032002Y-51440000D01*
X165757001Y-52715001D02*
X164234999Y-52715001D01*
X167032002Y-51440000D02*
X165757001Y-52715001D01*
D33*
X92499999Y-67399999D02*
X95475000Y-70375000D01*
X91800000Y-54650000D02*
X92499999Y-55349999D01*
X92499999Y-55349999D02*
X92499999Y-67399999D01*
D32*
X163200000Y-53750000D02*
X164234999Y-52715001D01*
X163200000Y-62349998D02*
X163200000Y-53750000D01*
D33*
X167685000Y-61600000D02*
X165145000Y-61600000D01*
X165145000Y-63337535D02*
X165140922Y-63333457D01*
X165145000Y-61600000D02*
X165145000Y-63337535D01*
D36*
G36*
X164109000Y-57636018D02*
G01*
X164109000Y-57374981D01*
X164963981Y-56520000D01*
X165326019Y-56520000D01*
X166261018Y-57454999D01*
X166415000Y-57188294D01*
X166568982Y-57454999D01*
X167503981Y-56520000D01*
X166568982Y-55585001D01*
X166415000Y-55851706D01*
X166261018Y-55585001D01*
X165326019Y-56520000D01*
X164963981Y-56520000D01*
X164109000Y-55665019D01*
X164109000Y-54976250D01*
X164127136Y-54997864D01*
X164319349Y-55159150D01*
X164476706Y-55250000D01*
X164210001Y-55403982D01*
X165145000Y-56338981D01*
X166079999Y-55403982D01*
X166750001Y-55403982D01*
X167685000Y-56338981D01*
X168619999Y-55403982D01*
X168353294Y-55250000D01*
X168619999Y-55096018D01*
X167685000Y-54161019D01*
X166750001Y-55096018D01*
X167016706Y-55250000D01*
X166750001Y-55403982D01*
X166079999Y-55403982D01*
X165813294Y-55250000D01*
X165970651Y-55159150D01*
X166045888Y-55096018D01*
X166162864Y-54997864D01*
X166324150Y-54805651D01*
X166415000Y-54648294D01*
X166568982Y-54914999D01*
X168619999Y-52863982D01*
X168353294Y-52710000D01*
X168510651Y-52619150D01*
X168702864Y-52457864D01*
X168864150Y-52265651D01*
X168989609Y-52048349D01*
X169075429Y-51812564D01*
X169116001Y-51582469D01*
X169116001Y-53837530D01*
X169075429Y-53607436D01*
X168989609Y-53371651D01*
X168801018Y-53045001D01*
X167866019Y-53980000D01*
X168801018Y-54914999D01*
X168989609Y-54588349D01*
X169075429Y-54352564D01*
X169116001Y-54122470D01*
X169116000Y-56377530D01*
X169075429Y-56147436D01*
X168989609Y-55911651D01*
X168801018Y-55585001D01*
X167866019Y-56520000D01*
X168801018Y-57454999D01*
X168989609Y-57128349D01*
X169075429Y-56892564D01*
X169116000Y-56662471D01*
X169116000Y-58917529D01*
X169075429Y-58687436D01*
X168989609Y-58451651D01*
X168801018Y-58125001D01*
X167866019Y-59060000D01*
X168801018Y-59994999D01*
X168989609Y-59668349D01*
X169075429Y-59432564D01*
X169116000Y-59202471D01*
X169116000Y-61457528D01*
X169075429Y-61227436D01*
X168989609Y-60991651D01*
X168864150Y-60774349D01*
X168702864Y-60582136D01*
X168510651Y-60420850D01*
X168353294Y-60330000D01*
X168619999Y-60176018D01*
X167685000Y-59241019D01*
X166750001Y-60176018D01*
X167016706Y-60330000D01*
X166859349Y-60420850D01*
X166686366Y-60566000D01*
X166528582Y-60566000D01*
X166506205Y-60482489D01*
X166358815Y-60306835D01*
X166165186Y-60195044D01*
X166074685Y-60179086D01*
X166079999Y-60176018D01*
X165145000Y-59241019D01*
X164210001Y-60176018D01*
X164226413Y-60185494D01*
X164109000Y-60216954D01*
X164109000Y-59914981D01*
X164963981Y-59060000D01*
X165326019Y-59060000D01*
X166261018Y-59994999D01*
X166415000Y-59728294D01*
X166568982Y-59994999D01*
X167503981Y-59060000D01*
X166568982Y-58125001D01*
X166415000Y-58391706D01*
X166261018Y-58125001D01*
X165326019Y-59060000D01*
X164963981Y-59060000D01*
X164109000Y-58205019D01*
X164109000Y-57943982D01*
X164210001Y-57943982D01*
X165145000Y-58878981D01*
X166079999Y-57943982D01*
X166750001Y-57943982D01*
X167685000Y-58878981D01*
X168619999Y-57943982D01*
X168353294Y-57790000D01*
X168619999Y-57636018D01*
X167685000Y-56701019D01*
X166750001Y-57636018D01*
X167016706Y-57790000D01*
X166750001Y-57943982D01*
X166079999Y-57943982D01*
X165813294Y-57790000D01*
X166079999Y-57636018D01*
X165145000Y-56701019D01*
X164210001Y-57636018D01*
X164476706Y-57790000D01*
X164210001Y-57943982D01*
X164109000Y-57943982D01*
X164109000Y-57636018D01*
X164109000Y-57636018D01*
G37*
X164109000Y-57636018D02*
X164109000Y-57374981D01*
X164963981Y-56520000D01*
X165326019Y-56520000D01*
X166261018Y-57454999D01*
X166415000Y-57188294D01*
X166568982Y-57454999D01*
X167503981Y-56520000D01*
X166568982Y-55585001D01*
X166415000Y-55851706D01*
X166261018Y-55585001D01*
X165326019Y-56520000D01*
X164963981Y-56520000D01*
X164109000Y-55665019D01*
X164109000Y-54976250D01*
X164127136Y-54997864D01*
X164319349Y-55159150D01*
X164476706Y-55250000D01*
X164210001Y-55403982D01*
X165145000Y-56338981D01*
X166079999Y-55403982D01*
X166750001Y-55403982D01*
X167685000Y-56338981D01*
X168619999Y-55403982D01*
X168353294Y-55250000D01*
X168619999Y-55096018D01*
X167685000Y-54161019D01*
X166750001Y-55096018D01*
X167016706Y-55250000D01*
X166750001Y-55403982D01*
X166079999Y-55403982D01*
X165813294Y-55250000D01*
X165970651Y-55159150D01*
X166045888Y-55096018D01*
X166162864Y-54997864D01*
X166324150Y-54805651D01*
X166415000Y-54648294D01*
X166568982Y-54914999D01*
X168619999Y-52863982D01*
X168353294Y-52710000D01*
X168510651Y-52619150D01*
X168702864Y-52457864D01*
X168864150Y-52265651D01*
X168989609Y-52048349D01*
X169075429Y-51812564D01*
X169116001Y-51582469D01*
X169116001Y-53837530D01*
X169075429Y-53607436D01*
X168989609Y-53371651D01*
X168801018Y-53045001D01*
X167866019Y-53980000D01*
X168801018Y-54914999D01*
X168989609Y-54588349D01*
X169075429Y-54352564D01*
X169116001Y-54122470D01*
X169116000Y-56377530D01*
X169075429Y-56147436D01*
X168989609Y-55911651D01*
X168801018Y-55585001D01*
X167866019Y-56520000D01*
X168801018Y-57454999D01*
X168989609Y-57128349D01*
X169075429Y-56892564D01*
X169116000Y-56662471D01*
X169116000Y-58917529D01*
X169075429Y-58687436D01*
X168989609Y-58451651D01*
X168801018Y-58125001D01*
X167866019Y-59060000D01*
X168801018Y-59994999D01*
X168989609Y-59668349D01*
X169075429Y-59432564D01*
X169116000Y-59202471D01*
X169116000Y-61457528D01*
X169075429Y-61227436D01*
X168989609Y-60991651D01*
X168864150Y-60774349D01*
X168702864Y-60582136D01*
X168510651Y-60420850D01*
X168353294Y-60330000D01*
X168619999Y-60176018D01*
X167685000Y-59241019D01*
X166750001Y-60176018D01*
X167016706Y-60330000D01*
X166859349Y-60420850D01*
X166686366Y-60566000D01*
X166528582Y-60566000D01*
X166506205Y-60482489D01*
X166358815Y-60306835D01*
X166165186Y-60195044D01*
X166074685Y-60179086D01*
X166079999Y-60176018D01*
X165145000Y-59241019D01*
X164210001Y-60176018D01*
X164226413Y-60185494D01*
X164109000Y-60216954D01*
X164109000Y-59914981D01*
X164963981Y-59060000D01*
X165326019Y-59060000D01*
X166261018Y-59994999D01*
X166415000Y-59728294D01*
X166568982Y-59994999D01*
X167503981Y-59060000D01*
X166568982Y-58125001D01*
X166415000Y-58391706D01*
X166261018Y-58125001D01*
X165326019Y-59060000D01*
X164963981Y-59060000D01*
X164109000Y-58205019D01*
X164109000Y-57943982D01*
X164210001Y-57943982D01*
X165145000Y-58878981D01*
X166079999Y-57943982D01*
X166750001Y-57943982D01*
X167685000Y-58878981D01*
X168619999Y-57943982D01*
X168353294Y-57790000D01*
X168619999Y-57636018D01*
X167685000Y-56701019D01*
X166750001Y-57636018D01*
X167016706Y-57790000D01*
X166750001Y-57943982D01*
X166079999Y-57943982D01*
X165813294Y-57790000D01*
X166079999Y-57636018D01*
X165145000Y-56701019D01*
X164210001Y-57636018D01*
X164476706Y-57790000D01*
X164210001Y-57943982D01*
X164109000Y-57943982D01*
X164109000Y-57636018D01*
G36*
X86752167Y-68561813D02*
G01*
X88883981Y-66430000D01*
X86759658Y-64305678D01*
X86594569Y-64492935D01*
X86534000Y-64580083D01*
X86534000Y-64125049D01*
X86941068Y-64125049D01*
X89065000Y-66248981D01*
X91198932Y-64115048D01*
X90815933Y-63824337D01*
X90504842Y-63640358D01*
X90174666Y-63493354D01*
X89829782Y-63385275D01*
X89474762Y-63317550D01*
X89114310Y-63291081D01*
X88753205Y-63306216D01*
X88396233Y-63362755D01*
X88048124Y-63459948D01*
X87713494Y-63596508D01*
X87396778Y-63770624D01*
X87102172Y-63979989D01*
X86941068Y-64125049D01*
X86534000Y-64125049D01*
X86534000Y-46509348D01*
X86936672Y-46509348D01*
X87233086Y-46749379D01*
X87538244Y-46943038D01*
X87863640Y-47100341D01*
X88204958Y-47219201D01*
X88557676Y-47298042D01*
X88917119Y-47335821D01*
X89228691Y-47332559D01*
X89208163Y-47448976D01*
X89208163Y-49076588D01*
X89288795Y-49377512D01*
X89436185Y-49553165D01*
X89629814Y-49664956D01*
X89747132Y-49685642D01*
X89632136Y-49782136D01*
X89470850Y-49974349D01*
X89345391Y-50191651D01*
X89259571Y-50427436D01*
X89216000Y-50674541D01*
X89216000Y-50925459D01*
X89259571Y-51172564D01*
X89345391Y-51408349D01*
X89470850Y-51625651D01*
X89632136Y-51817864D01*
X89824349Y-51979150D01*
X89981706Y-52070000D01*
X89824349Y-52160850D01*
X89632136Y-52322136D01*
X89470850Y-52514349D01*
X89345391Y-52731651D01*
X89259571Y-52967436D01*
X89216000Y-53214541D01*
X89216000Y-53465459D01*
X89259571Y-53712564D01*
X89345391Y-53948349D01*
X89470850Y-54165651D01*
X89632136Y-54357864D01*
X89824349Y-54519150D01*
X90041651Y-54644609D01*
X90277436Y-54730429D01*
X90464220Y-54763364D01*
X90463974Y-54780999D01*
X90526198Y-55073738D01*
X90651730Y-55345417D01*
X90834335Y-55582533D01*
X91064933Y-55773301D01*
X91332065Y-55908238D01*
X91465999Y-55941632D01*
X91466000Y-64415488D01*
X91372977Y-64303043D01*
X89246019Y-66430000D01*
X91369907Y-68553887D01*
X91473368Y-68443705D01*
X91688856Y-68153551D01*
X91725797Y-68089568D01*
X91762543Y-68137456D01*
X91816774Y-68179069D01*
X94139039Y-70501335D01*
X94138974Y-70505998D01*
X94201198Y-70798738D01*
X94326730Y-71070417D01*
X94509335Y-71307533D01*
X94739933Y-71498301D01*
X95007066Y-71633238D01*
X95297454Y-71705640D01*
X95596668Y-71711908D01*
X95889834Y-71651730D01*
X96162383Y-71528097D01*
X96400768Y-71347152D01*
X96593141Y-71117892D01*
X96729941Y-70851707D01*
X96804590Y-70560967D01*
X96809265Y-70226230D01*
X96771331Y-70059262D01*
X96964266Y-70086892D01*
X97216017Y-70080080D01*
X97463022Y-70030948D01*
X97698216Y-69940901D01*
X98019497Y-69750516D01*
X96868981Y-68600000D01*
X97231019Y-68600000D01*
X98201807Y-69570788D01*
X98395393Y-69238840D01*
X98483796Y-69003022D01*
X98531318Y-68755082D01*
X98534240Y-68475974D01*
X98491922Y-68227094D01*
X98408477Y-67989476D01*
X98286187Y-67769314D01*
X98186235Y-67644784D01*
X97231019Y-68600000D01*
X96868981Y-68600000D01*
X95909118Y-67640137D01*
X95756293Y-67862083D01*
X95650457Y-68090609D01*
X95584639Y-68333699D01*
X95560720Y-68584404D01*
X95579384Y-68835554D01*
X95630661Y-69041987D01*
X95604097Y-69041801D01*
X94023739Y-67461443D01*
X96092462Y-67461443D01*
X97050000Y-68418981D01*
X98015969Y-67453012D01*
X97726157Y-67272969D01*
X97492899Y-67178016D01*
X97246977Y-67123721D01*
X96995424Y-67111638D01*
X96745431Y-67142113D01*
X96504147Y-67214272D01*
X96278470Y-67326053D01*
X96092462Y-67461443D01*
X94023739Y-67461443D01*
X93533999Y-66971704D01*
X93533999Y-65237231D01*
X96093788Y-65237231D01*
X96251960Y-65357509D01*
X96475246Y-65473992D01*
X96714966Y-65551190D01*
X96964266Y-65586892D01*
X97216017Y-65580080D01*
X97463022Y-65530948D01*
X97698216Y-65440901D01*
X98019497Y-65250516D01*
X97050000Y-64281019D01*
X96093788Y-65237231D01*
X93533999Y-65237231D01*
X93533999Y-63431002D01*
X94063974Y-63431002D01*
X94126198Y-63723741D01*
X94251730Y-63995420D01*
X94434335Y-64232536D01*
X94664933Y-64423304D01*
X94932066Y-64558241D01*
X95222454Y-64630643D01*
X95521668Y-64636911D01*
X95653208Y-64609909D01*
X95741123Y-64810662D01*
X95906712Y-65062269D01*
X97050000Y-63918980D01*
X98201807Y-65070788D01*
X98395393Y-64738840D01*
X98483796Y-64503022D01*
X98531318Y-64255082D01*
X98533104Y-64084404D01*
X102060720Y-64084404D01*
X102079384Y-64335554D01*
X102140097Y-64579970D01*
X102241123Y-64810662D01*
X102379575Y-65021033D01*
X102551493Y-65205071D01*
X102641001Y-65273134D01*
X102641000Y-67426114D01*
X102574854Y-67474261D01*
X102399120Y-67654656D01*
X102256293Y-67862083D01*
X102150457Y-68090609D01*
X102084639Y-68333699D01*
X102060720Y-68584404D01*
X102079384Y-68835554D01*
X102140097Y-69079970D01*
X102241123Y-69310662D01*
X102379575Y-69521033D01*
X102551493Y-69705071D01*
X102751960Y-69857510D01*
X102975246Y-69973992D01*
X103214966Y-70051190D01*
X103464266Y-70086892D01*
X103716017Y-70080080D01*
X103963022Y-70030948D01*
X104198216Y-69940901D01*
X104414877Y-69812512D01*
X104606807Y-69649455D01*
X104724455Y-69509000D01*
X106269527Y-69509000D01*
X106338795Y-69767512D01*
X106486185Y-69943165D01*
X106679814Y-70054956D01*
X106888976Y-70091837D01*
X108616588Y-70091837D01*
X108917512Y-70011205D01*
X109093165Y-69863815D01*
X109204956Y-69670186D01*
X109213204Y-69623412D01*
X109251669Y-69667739D01*
X109446416Y-69827422D01*
X109665284Y-69952009D01*
X109904831Y-70038960D01*
X110244648Y-70084000D01*
X110353190Y-70084000D01*
X110540942Y-70068069D01*
X110784708Y-70004800D01*
X111014329Y-69901363D01*
X111223240Y-69760716D01*
X111405466Y-69586881D01*
X111555797Y-69384828D01*
X111562436Y-69371770D01*
X111626610Y-69477526D01*
X111791669Y-69667739D01*
X111986416Y-69827422D01*
X112205284Y-69952009D01*
X112444831Y-70038960D01*
X112702000Y-70073047D01*
X112702000Y-67100022D01*
X112335292Y-67195200D01*
X112105671Y-67298637D01*
X111896760Y-67439284D01*
X111714534Y-67613119D01*
X111564203Y-67815172D01*
X111557564Y-67828230D01*
X111493390Y-67722474D01*
X111328331Y-67532261D01*
X111133584Y-67372578D01*
X110914716Y-67247991D01*
X110834000Y-67218693D01*
X110834000Y-66859000D01*
X110866328Y-66859000D01*
X111064933Y-67023301D01*
X111332066Y-67158238D01*
X111622454Y-67230640D01*
X111921668Y-67236908D01*
X112214834Y-67176730D01*
X112487383Y-67053097D01*
X112725768Y-66872152D01*
X112761135Y-66830004D01*
X112813929Y-66875750D01*
X113041888Y-66979854D01*
X113280930Y-67014224D01*
X113873604Y-67014224D01*
X114221931Y-66938450D01*
X114416000Y-66813730D01*
X114416001Y-67459087D01*
X114254534Y-67613119D01*
X114104203Y-67815172D01*
X114097564Y-67828230D01*
X114033390Y-67722474D01*
X113868331Y-67532261D01*
X113673584Y-67372578D01*
X113454716Y-67247991D01*
X113215169Y-67161040D01*
X112958000Y-67126953D01*
X112958000Y-70099978D01*
X113324708Y-70004800D01*
X113554329Y-69901363D01*
X113763240Y-69760716D01*
X113945466Y-69586881D01*
X114095797Y-69384828D01*
X114102436Y-69371770D01*
X114166610Y-69477526D01*
X114331669Y-69667739D01*
X114526416Y-69827422D01*
X114745284Y-69952009D01*
X114984831Y-70038960D01*
X115324648Y-70084000D01*
X115433190Y-70084000D01*
X115620942Y-70068069D01*
X115864708Y-70004800D01*
X116094329Y-69901363D01*
X116303240Y-69760716D01*
X116485466Y-69586881D01*
X116635797Y-69384828D01*
X116642436Y-69371770D01*
X116706610Y-69477526D01*
X116871669Y-69667739D01*
X117066416Y-69827422D01*
X117285284Y-69952009D01*
X117524831Y-70038960D01*
X117864648Y-70084000D01*
X117973190Y-70084000D01*
X118160942Y-70068069D01*
X118404708Y-70004800D01*
X118634329Y-69901363D01*
X118843240Y-69760716D01*
X119025466Y-69586881D01*
X119175797Y-69384828D01*
X119289936Y-69160334D01*
X119364618Y-68919819D01*
X119388537Y-68739348D01*
X164416672Y-68739348D01*
X164713086Y-68979379D01*
X165018244Y-69173038D01*
X165343640Y-69330341D01*
X165684958Y-69449201D01*
X166037676Y-69528042D01*
X166397119Y-69565821D01*
X166758521Y-69562037D01*
X167117093Y-69516738D01*
X167468083Y-69430527D01*
X167806837Y-69304545D01*
X168128867Y-69140463D01*
X168429903Y-68940455D01*
X168670833Y-68736853D01*
X166545000Y-66611019D01*
X164416672Y-68739348D01*
X119388537Y-68739348D01*
X119397708Y-68670159D01*
X119388260Y-68418492D01*
X119336544Y-68172017D01*
X119244039Y-67937778D01*
X119113390Y-67722473D01*
X119059000Y-67659795D01*
X119059000Y-66084880D01*
X119075768Y-66072152D01*
X119268141Y-65842892D01*
X119404941Y-65576707D01*
X119479590Y-65285967D01*
X119484265Y-64951230D01*
X119417763Y-64658519D01*
X119288448Y-64388618D01*
X119185859Y-64259184D01*
X119472454Y-64330640D01*
X119771668Y-64336908D01*
X120064834Y-64276730D01*
X120337383Y-64153097D01*
X120575768Y-63972152D01*
X120768141Y-63742892D01*
X120904941Y-63476707D01*
X120979590Y-63185967D01*
X120984265Y-62851230D01*
X120917763Y-62558519D01*
X120788448Y-62288618D01*
X120602551Y-62054075D01*
X120369312Y-61866547D01*
X120100321Y-61735350D01*
X119808949Y-61667010D01*
X119509678Y-61664920D01*
X119217380Y-61729186D01*
X118946584Y-61856613D01*
X118710748Y-62040868D01*
X118645174Y-62121271D01*
X118052452Y-62121271D01*
X118023185Y-62084346D01*
X117789946Y-61896818D01*
X117520955Y-61765621D01*
X117229583Y-61697281D01*
X116930312Y-61695191D01*
X116759582Y-61732728D01*
X116738448Y-61688618D01*
X116552551Y-61454075D01*
X116319312Y-61266547D01*
X116050321Y-61135350D01*
X115758949Y-61067010D01*
X115459678Y-61064920D01*
X115167380Y-61129186D01*
X114896584Y-61256613D01*
X114660749Y-61440868D01*
X114471595Y-61672793D01*
X114338525Y-61940861D01*
X114268153Y-62231749D01*
X114263974Y-62530999D01*
X114326198Y-62823738D01*
X114451730Y-63095417D01*
X114634335Y-63332533D01*
X114691000Y-63379410D01*
X114691001Y-64858737D01*
X114678070Y-64861550D01*
X114463362Y-64999533D01*
X114446033Y-65019532D01*
X114336071Y-64924250D01*
X114108112Y-64820146D01*
X113869070Y-64785776D01*
X113276396Y-64785776D01*
X112928069Y-64861550D01*
X112763197Y-64967507D01*
X112752551Y-64954075D01*
X112519312Y-64766547D01*
X112250321Y-64635350D01*
X111958949Y-64567010D01*
X111659678Y-64564920D01*
X111367380Y-64629186D01*
X111096584Y-64756613D01*
X110860749Y-64940868D01*
X110779083Y-65041000D01*
X110763105Y-65041000D01*
X110686071Y-64974250D01*
X110458112Y-64870146D01*
X110219070Y-64835776D01*
X109626396Y-64835776D01*
X109278069Y-64911550D01*
X109084000Y-65036270D01*
X109084000Y-63445355D01*
X109287383Y-63353097D01*
X109525768Y-63172152D01*
X109718141Y-62942892D01*
X109854941Y-62676707D01*
X109929590Y-62385967D01*
X109934265Y-62051230D01*
X109867763Y-61758519D01*
X109738448Y-61488618D01*
X109552551Y-61254075D01*
X109319312Y-61066547D01*
X109050321Y-60935350D01*
X108758949Y-60867010D01*
X108459678Y-60864920D01*
X108167380Y-60929186D01*
X107896584Y-61056613D01*
X107660749Y-61240868D01*
X107471595Y-61472793D01*
X107338525Y-61740861D01*
X107268153Y-62031749D01*
X107263974Y-62330998D01*
X107282623Y-62418740D01*
X107257916Y-62653820D01*
X107266001Y-62701623D01*
X107266000Y-65104191D01*
X107149250Y-65238929D01*
X107045146Y-65466888D01*
X107010776Y-65705930D01*
X107010776Y-66198604D01*
X107086550Y-66546931D01*
X107224533Y-66761638D01*
X107266000Y-66797569D01*
X107266001Y-67108163D01*
X106883412Y-67108163D01*
X106582489Y-67188795D01*
X106406835Y-67336185D01*
X106295044Y-67529814D01*
X106266622Y-67691000D01*
X104723333Y-67691000D01*
X104628553Y-67572907D01*
X104459000Y-67422635D01*
X104459000Y-65275026D01*
X104606807Y-65149455D01*
X104768521Y-64956391D01*
X104895393Y-64738840D01*
X104983796Y-64503022D01*
X105031318Y-64255082D01*
X105034240Y-63975974D01*
X104991922Y-63727094D01*
X104909000Y-63490965D01*
X104909000Y-63334880D01*
X104925768Y-63322152D01*
X105118141Y-63092892D01*
X105254941Y-62826707D01*
X105329590Y-62535967D01*
X105334265Y-62201230D01*
X105267763Y-61908519D01*
X105138448Y-61638618D01*
X104952551Y-61404075D01*
X104719312Y-61216547D01*
X104450321Y-61085350D01*
X104158949Y-61017010D01*
X103859678Y-61014920D01*
X103567380Y-61079186D01*
X103296584Y-61206613D01*
X103060749Y-61390868D01*
X102871595Y-61622793D01*
X102738525Y-61890861D01*
X102668153Y-62181749D01*
X102663974Y-62480999D01*
X102726198Y-62773738D01*
X102757443Y-62841358D01*
X102574854Y-62974261D01*
X102399120Y-63154656D01*
X102256293Y-63362083D01*
X102150457Y-63590609D01*
X102084639Y-63833699D01*
X102060720Y-64084404D01*
X98533104Y-64084404D01*
X98534240Y-63975974D01*
X98491922Y-63727094D01*
X98476788Y-63683999D01*
X98974827Y-63683999D01*
X99081349Y-63688464D01*
X99160847Y-63669818D01*
X99241744Y-63658737D01*
X99281575Y-63641502D01*
X99328423Y-63630513D01*
X99371277Y-63602683D01*
X99470310Y-63559828D01*
X99663857Y-63403096D01*
X99691945Y-63363573D01*
X101398469Y-61657050D01*
X101476975Y-61584860D01*
X101520006Y-61515459D01*
X101569371Y-61450422D01*
X101585341Y-61410084D01*
X101610705Y-61369176D01*
X101621331Y-61319188D01*
X101661052Y-61218864D01*
X101682743Y-61012483D01*
X101687512Y-61011205D01*
X101863165Y-60863815D01*
X101974956Y-60670186D01*
X102011837Y-60461024D01*
X102011837Y-59033412D01*
X101931205Y-58732489D01*
X101902331Y-58698079D01*
X101943165Y-58663815D01*
X102054956Y-58470186D01*
X102091837Y-58261024D01*
X102091837Y-56833412D01*
X102011205Y-56532489D01*
X101863815Y-56356835D01*
X101670186Y-56245044D01*
X101645057Y-56240613D01*
X101615823Y-56206686D01*
X101599686Y-56184877D01*
X101580506Y-56165698D01*
X101520485Y-56096040D01*
X101493098Y-56078289D01*
X101280570Y-55865762D01*
X101284265Y-55601230D01*
X101268011Y-55529687D01*
X103965286Y-55529687D01*
X104027510Y-55822426D01*
X104153042Y-56094105D01*
X104335647Y-56331221D01*
X104566245Y-56521989D01*
X104833378Y-56656926D01*
X105123766Y-56729328D01*
X105422980Y-56735596D01*
X105716146Y-56675418D01*
X105988695Y-56551785D01*
X106227080Y-56370840D01*
X106280071Y-56307688D01*
X120922170Y-56307688D01*
X123216473Y-58601993D01*
X123213974Y-58780999D01*
X123276198Y-59073738D01*
X123401730Y-59345417D01*
X123584335Y-59582533D01*
X123814933Y-59773301D01*
X124082066Y-59908238D01*
X124372454Y-59980640D01*
X124671668Y-59986908D01*
X124964834Y-59926730D01*
X125237383Y-59803097D01*
X125475768Y-59622152D01*
X125668141Y-59392892D01*
X125804941Y-59126707D01*
X125879590Y-58835968D01*
X125880346Y-58781853D01*
X126121668Y-58786908D01*
X126391000Y-58731622D01*
X126391001Y-61735213D01*
X126353868Y-61769779D01*
X126194003Y-62009034D01*
X126093467Y-62278647D01*
X126057651Y-62564158D01*
X126088479Y-62850251D01*
X126184295Y-63121579D01*
X126339959Y-63363587D01*
X126547122Y-63563293D01*
X126794672Y-63709984D01*
X127069328Y-63795794D01*
X127267602Y-63809833D01*
X127257651Y-63889158D01*
X127288479Y-64175251D01*
X127384295Y-64446579D01*
X127539959Y-64688587D01*
X127747122Y-64888293D01*
X127994672Y-65034984D01*
X128269328Y-65120794D01*
X128556358Y-65141117D01*
X128817837Y-65098532D01*
X128744003Y-65209033D01*
X128643467Y-65478646D01*
X128607651Y-65764157D01*
X128638479Y-66050250D01*
X128734295Y-66321578D01*
X128889959Y-66563586D01*
X129097122Y-66763292D01*
X129344672Y-66909983D01*
X129619328Y-66995793D01*
X129906358Y-67016116D01*
X130190366Y-66969862D01*
X130456115Y-66859513D01*
X130689350Y-66690989D01*
X130843968Y-66512178D01*
X163406770Y-66512178D01*
X163437013Y-66872332D01*
X163508450Y-67226624D01*
X163620136Y-67570357D01*
X163770589Y-67898975D01*
X163957816Y-68208123D01*
X164232167Y-68561813D01*
X166363981Y-66430000D01*
X164239658Y-64305678D01*
X164074569Y-64492935D01*
X163868301Y-64789717D01*
X163697511Y-65108239D01*
X163564463Y-65444281D01*
X163470920Y-65793388D01*
X163418122Y-66150934D01*
X163406770Y-66512178D01*
X130843968Y-66512178D01*
X130877561Y-66473329D01*
X131010651Y-66218209D01*
X131081606Y-65938828D01*
X131084277Y-65632690D01*
X131018210Y-65352113D01*
X130889592Y-65094709D01*
X130759000Y-64938246D01*
X130759000Y-50770174D01*
X130763465Y-50663652D01*
X130744819Y-50584155D01*
X130733738Y-50503255D01*
X130716502Y-50463427D01*
X130705515Y-50416578D01*
X130677684Y-50373722D01*
X130634829Y-50274691D01*
X130478097Y-50081144D01*
X130438580Y-50053061D01*
X127631544Y-47246026D01*
X127634265Y-47051230D01*
X127567763Y-46758519D01*
X127438448Y-46488618D01*
X127252551Y-46254075D01*
X127019312Y-46066547D01*
X126750321Y-45935350D01*
X126458949Y-45867010D01*
X126159678Y-45864920D01*
X125867380Y-45929186D01*
X125596584Y-46056613D01*
X125471239Y-46154544D01*
X125421204Y-46114315D01*
X126908462Y-44627057D01*
X126986975Y-44554860D01*
X127030008Y-44485456D01*
X127079371Y-44420424D01*
X127095344Y-44380080D01*
X127120705Y-44339176D01*
X127131330Y-44289191D01*
X127171052Y-44188865D01*
X127197084Y-43941180D01*
X127189000Y-43893383D01*
X127189000Y-43838894D01*
X127359512Y-43793205D01*
X127535165Y-43645815D01*
X127646956Y-43452186D01*
X127683837Y-43243024D01*
X127683837Y-41691412D01*
X127603205Y-41390489D01*
X127455815Y-41214835D01*
X127262186Y-41103044D01*
X127053024Y-41066163D01*
X125501412Y-41066163D01*
X125200489Y-41146795D01*
X125024835Y-41294185D01*
X124913044Y-41487814D01*
X124882738Y-41659688D01*
X124826472Y-41564547D01*
X123921019Y-42470000D01*
X124819309Y-43368290D01*
X124882680Y-43272909D01*
X124956795Y-43549512D01*
X125104185Y-43725165D01*
X125189855Y-43774626D01*
X123048245Y-45916237D01*
X122859678Y-45914920D01*
X122567380Y-45979186D01*
X122296584Y-46106613D01*
X122060749Y-46290868D01*
X121871595Y-46522793D01*
X121738525Y-46790861D01*
X121668153Y-47081749D01*
X121663974Y-47380999D01*
X121726198Y-47673738D01*
X121851730Y-47945417D01*
X122034335Y-48182533D01*
X122264933Y-48373301D01*
X122532066Y-48508238D01*
X122822454Y-48580640D01*
X123121668Y-48586908D01*
X123414834Y-48526730D01*
X123687383Y-48403097D01*
X123771851Y-48338982D01*
X123771852Y-52197331D01*
X120671064Y-49096544D01*
X120598864Y-49018026D01*
X120529455Y-48974990D01*
X120464425Y-48925630D01*
X120424087Y-48909658D01*
X120383177Y-48884295D01*
X120333190Y-48873670D01*
X120232867Y-48833949D01*
X119985183Y-48807917D01*
X119937386Y-48816001D01*
X111686124Y-48816001D01*
X111680397Y-48812450D01*
X111615371Y-48763093D01*
X111575033Y-48747121D01*
X111534123Y-48721758D01*
X111484136Y-48711133D01*
X111383813Y-48671412D01*
X111151708Y-48647017D01*
X111127551Y-48616539D01*
X110894312Y-48429011D01*
X110625321Y-48297814D01*
X110333949Y-48229474D01*
X110034678Y-48227384D01*
X109742380Y-48291650D01*
X109471584Y-48419077D01*
X109235749Y-48603332D01*
X109046595Y-48835257D01*
X108923980Y-49082263D01*
X108858949Y-49067010D01*
X108559678Y-49064920D01*
X108267380Y-49129186D01*
X107996584Y-49256613D01*
X107760749Y-49440868D01*
X107571595Y-49672793D01*
X107438525Y-49940861D01*
X107368153Y-50231749D01*
X107363974Y-50530999D01*
X107426198Y-50823738D01*
X107443433Y-50861039D01*
X107346584Y-50906613D01*
X107110749Y-51090868D01*
X106921595Y-51322793D01*
X106902259Y-51361746D01*
X106727199Y-51320686D01*
X106427928Y-51318596D01*
X106135630Y-51382862D01*
X105864834Y-51510289D01*
X105628999Y-51694544D01*
X105439845Y-51926469D01*
X105306775Y-52194537D01*
X105236403Y-52485425D01*
X105232224Y-52784675D01*
X105294448Y-53077414D01*
X105419980Y-53349093D01*
X105602585Y-53586209D01*
X105833183Y-53776977D01*
X106100316Y-53911914D01*
X106390704Y-53984316D01*
X106617566Y-53989068D01*
X106683389Y-54060650D01*
X106752790Y-54103681D01*
X106817826Y-54153046D01*
X106858169Y-54169019D01*
X106899074Y-54194381D01*
X106949061Y-54205006D01*
X107049384Y-54244727D01*
X107297069Y-54270759D01*
X107344866Y-54262675D01*
X121527157Y-54262675D01*
X124580595Y-57316114D01*
X124501077Y-57315559D01*
X121955749Y-54770231D01*
X121883549Y-54691713D01*
X121814140Y-54648677D01*
X121749110Y-54599317D01*
X121708772Y-54583345D01*
X121667862Y-54557982D01*
X121617875Y-54547357D01*
X121517552Y-54507636D01*
X121269868Y-54481604D01*
X121222071Y-54489688D01*
X106283130Y-54489688D01*
X106253863Y-54452763D01*
X106020624Y-54265235D01*
X105751633Y-54134038D01*
X105460261Y-54065698D01*
X105160990Y-54063608D01*
X104868692Y-54127874D01*
X104597896Y-54255301D01*
X104362061Y-54439556D01*
X104172907Y-54671481D01*
X104039837Y-54939549D01*
X103969465Y-55230437D01*
X103965286Y-55529687D01*
X101268011Y-55529687D01*
X101217763Y-55308519D01*
X101088448Y-55038618D01*
X100902551Y-54804075D01*
X100669312Y-54616547D01*
X100400321Y-54485350D01*
X100108949Y-54417010D01*
X99809678Y-54414920D01*
X99517380Y-54479186D01*
X99246584Y-54606613D01*
X99010749Y-54790868D01*
X98821595Y-55022793D01*
X98688525Y-55290861D01*
X98618153Y-55581749D01*
X98613974Y-55880999D01*
X98676198Y-56173738D01*
X98692104Y-56208163D01*
X98533412Y-56208163D01*
X98300744Y-56270506D01*
X98174950Y-56176229D01*
X97911168Y-56061259D01*
X97628010Y-56010056D01*
X97340670Y-56025366D01*
X97064557Y-56106369D01*
X96814485Y-56248718D01*
X96603868Y-56444779D01*
X96444003Y-56684034D01*
X96343467Y-56953647D01*
X96307651Y-57239158D01*
X96338479Y-57525251D01*
X96434295Y-57796579D01*
X96589959Y-58038587D01*
X96797122Y-58238293D01*
X97044672Y-58384984D01*
X97319328Y-58470794D01*
X97606358Y-58491117D01*
X97890366Y-58444863D01*
X97949367Y-58420364D01*
X97988795Y-58567512D01*
X98052589Y-58643539D01*
X97945044Y-58829813D01*
X97934148Y-58891608D01*
X97912365Y-58894728D01*
X97824015Y-58900209D01*
X97791090Y-58912096D01*
X97756432Y-58917059D01*
X97675848Y-58953699D01*
X97648150Y-58963698D01*
X97628009Y-58960056D01*
X97340670Y-58975366D01*
X97064557Y-59056369D01*
X96814485Y-59198718D01*
X96603868Y-59394779D01*
X96444003Y-59634034D01*
X96343467Y-59903647D01*
X96307651Y-60189158D01*
X96338479Y-60475251D01*
X96434295Y-60746579D01*
X96589959Y-60988587D01*
X96797122Y-61188293D01*
X97044672Y-61334984D01*
X97319328Y-61420794D01*
X97606358Y-61441117D01*
X97890366Y-61394863D01*
X98156115Y-61284514D01*
X98389350Y-61115990D01*
X98427267Y-61072140D01*
X98538976Y-61091837D01*
X99392644Y-61091837D01*
X98618483Y-61865999D01*
X96037367Y-61865999D01*
X95930845Y-61861534D01*
X95851348Y-61880179D01*
X95770449Y-61891261D01*
X95730628Y-61908493D01*
X95683770Y-61919484D01*
X95640910Y-61947318D01*
X95582586Y-61972557D01*
X95558949Y-61967013D01*
X95259678Y-61964923D01*
X94967380Y-62029189D01*
X94696584Y-62156616D01*
X94460749Y-62340871D01*
X94271595Y-62572796D01*
X94138525Y-62840864D01*
X94068153Y-63131752D01*
X94063974Y-63431002D01*
X93533999Y-63431002D01*
X93533999Y-55417762D01*
X93542920Y-55349998D01*
X93533999Y-55282234D01*
X93533999Y-55282228D01*
X93507385Y-55080070D01*
X93410096Y-54845197D01*
X93403195Y-54828536D01*
X93287523Y-54677791D01*
X93266199Y-54650000D01*
X93372958Y-54510869D01*
X93403196Y-54471463D01*
X93436493Y-54391076D01*
X93507385Y-54219929D01*
X93533999Y-54017772D01*
X93533999Y-54017766D01*
X93542920Y-53950002D01*
X93533999Y-53882238D01*
X93533999Y-46728165D01*
X93616311Y-46553242D01*
X93682982Y-46259793D01*
X93683770Y-46034000D01*
X93872000Y-46034000D01*
X93872000Y-44928000D01*
X94128000Y-44928000D01*
X94128000Y-46034000D01*
X94333811Y-46034000D01*
X94509405Y-46017247D01*
X94735352Y-45950961D01*
X94944688Y-45843146D01*
X95129860Y-45697692D01*
X95284186Y-45519846D01*
X95402099Y-45316027D01*
X95479344Y-45093585D01*
X95503346Y-44928000D01*
X94128000Y-44928000D01*
X93872000Y-44928000D01*
X93043818Y-44928000D01*
X92817003Y-44807400D01*
X92527375Y-44726536D01*
X92227140Y-44709749D01*
X92155626Y-44721332D01*
X92181921Y-44575190D01*
X92199329Y-44021263D01*
X92157560Y-43660262D01*
X92075029Y-43308389D01*
X91952601Y-42968333D01*
X91791900Y-42644604D01*
X91661340Y-42443558D01*
X92485776Y-42443558D01*
X92485776Y-43160976D01*
X92562691Y-43514549D01*
X92702618Y-43732279D01*
X92885195Y-43890483D01*
X92870140Y-43902308D01*
X92715814Y-44080154D01*
X92597901Y-44283973D01*
X92520656Y-44506415D01*
X92496654Y-44672000D01*
X95513489Y-44672000D01*
X95447075Y-44396422D01*
X95349615Y-44182069D01*
X95213380Y-43990012D01*
X95106157Y-43887369D01*
X95207279Y-43822382D01*
X95373745Y-43630270D01*
X95479343Y-43399042D01*
X95514224Y-43156442D01*
X95514224Y-42439024D01*
X95437309Y-42085451D01*
X95297382Y-41867721D01*
X95105270Y-41701255D01*
X94874042Y-41595657D01*
X94631442Y-41560776D01*
X93364024Y-41560776D01*
X93010451Y-41637691D01*
X92792721Y-41777618D01*
X92626255Y-41969730D01*
X92520657Y-42200958D01*
X92485776Y-42443558D01*
X91661340Y-42443558D01*
X91595056Y-42341489D01*
X91372977Y-42073043D01*
X86936672Y-46509348D01*
X86534000Y-46509348D01*
X86534000Y-46050555D01*
X86752167Y-46331813D01*
X88883981Y-44200000D01*
X86759658Y-42075678D01*
X86594569Y-42262935D01*
X86534000Y-42350083D01*
X86534000Y-41895049D01*
X86941068Y-41895049D01*
X89065000Y-44018981D01*
X91198932Y-41885048D01*
X90815933Y-41594337D01*
X90504842Y-41410358D01*
X90174666Y-41263354D01*
X89829782Y-41155275D01*
X89474762Y-41087550D01*
X89114310Y-41061081D01*
X88753205Y-41076216D01*
X88396233Y-41132755D01*
X88048124Y-41229948D01*
X87713494Y-41366508D01*
X87396778Y-41540624D01*
X87102172Y-41749989D01*
X86941068Y-41895049D01*
X86534000Y-41895049D01*
X86534000Y-38934000D01*
X119741571Y-38934000D01*
X119688525Y-39040861D01*
X119618153Y-39331749D01*
X119613974Y-39630999D01*
X119676198Y-39923738D01*
X119801730Y-40195417D01*
X119984335Y-40432533D01*
X120166001Y-40582820D01*
X120166000Y-41524208D01*
X120163308Y-41526683D01*
X120012645Y-41725173D01*
X119931634Y-41884167D01*
X119925094Y-41866581D01*
X119798244Y-41652089D01*
X119635414Y-41463449D01*
X119441754Y-41306627D01*
X119223384Y-41186576D01*
X118987205Y-41107093D01*
X118740684Y-41070690D01*
X118491612Y-41078517D01*
X118247863Y-41130328D01*
X118017141Y-41224484D01*
X117806739Y-41358009D01*
X117623308Y-41526683D01*
X117472645Y-41725173D01*
X117391634Y-41884167D01*
X117385094Y-41866581D01*
X117258244Y-41652089D01*
X117095414Y-41463449D01*
X116901754Y-41306627D01*
X116683384Y-41186576D01*
X116447205Y-41107093D01*
X116200684Y-41070690D01*
X115951612Y-41078517D01*
X115707863Y-41130328D01*
X115477141Y-41224484D01*
X115266739Y-41358009D01*
X115083308Y-41526683D01*
X115057260Y-41561000D01*
X110250173Y-41561000D01*
X110143651Y-41556535D01*
X110064154Y-41575180D01*
X109983255Y-41586262D01*
X109943427Y-41603498D01*
X109896578Y-41614485D01*
X109853722Y-41642316D01*
X109754691Y-41685171D01*
X109561144Y-41841903D01*
X109533058Y-41881423D01*
X102298245Y-49116237D01*
X102109678Y-49114920D01*
X101817380Y-49179186D01*
X101546584Y-49306613D01*
X101310749Y-49490868D01*
X101121595Y-49722793D01*
X100988525Y-49990861D01*
X100918153Y-50281749D01*
X100913974Y-50580999D01*
X100976198Y-50873738D01*
X101101730Y-51145417D01*
X101284335Y-51382533D01*
X101514933Y-51573301D01*
X101782066Y-51708238D01*
X102072454Y-51780640D01*
X102371668Y-51786908D01*
X102664834Y-51726730D01*
X102937383Y-51603097D01*
X103175768Y-51422152D01*
X103186468Y-51409400D01*
X103270784Y-51479152D01*
X103537917Y-51614089D01*
X103828305Y-51686491D01*
X104127519Y-51692759D01*
X104420685Y-51632581D01*
X104693234Y-51508948D01*
X104931619Y-51328003D01*
X105123992Y-51098743D01*
X105260792Y-50832558D01*
X105335441Y-50541819D01*
X105338699Y-50308522D01*
X110638221Y-45009000D01*
X117009826Y-45009000D01*
X117116348Y-45013465D01*
X117195846Y-44994819D01*
X117276743Y-44983738D01*
X117316574Y-44966503D01*
X117363422Y-44955514D01*
X117406276Y-44927684D01*
X117505309Y-44884829D01*
X117698856Y-44728097D01*
X117726941Y-44688578D01*
X118553468Y-43862052D01*
X118667339Y-43871615D01*
X118915428Y-43848164D01*
X119155442Y-43781150D01*
X119379796Y-43672693D01*
X119581399Y-43526221D01*
X119753878Y-43346362D01*
X119891780Y-43138802D01*
X119930119Y-43050206D01*
X119975291Y-43151664D01*
X120115360Y-43357768D01*
X120289711Y-43535811D01*
X120291001Y-43536728D01*
X120291001Y-43873479D01*
X118648588Y-45515893D01*
X118514937Y-45514960D01*
X118233595Y-45576817D01*
X117972949Y-45699468D01*
X117745953Y-45876817D01*
X117563889Y-46100049D01*
X117435807Y-46358069D01*
X117368072Y-46638054D01*
X117364050Y-46926088D01*
X117423941Y-47207854D01*
X117544769Y-47469351D01*
X117720529Y-47697579D01*
X117942484Y-47881196D01*
X118199605Y-48011077D01*
X118479109Y-48080765D01*
X118767108Y-48086798D01*
X119049286Y-48028876D01*
X119311619Y-47909876D01*
X119541069Y-47735714D01*
X119726232Y-47515046D01*
X119857905Y-47258839D01*
X119929764Y-46978963D01*
X119932217Y-46803300D01*
X121828469Y-44907049D01*
X121906975Y-44834859D01*
X121950006Y-44765458D01*
X121999371Y-44700422D01*
X122015345Y-44660076D01*
X122040705Y-44619175D01*
X122051329Y-44569192D01*
X122091053Y-44468863D01*
X122117084Y-44221178D01*
X122109000Y-44173381D01*
X122109000Y-43546403D01*
X122844616Y-43546403D01*
X123032837Y-43680164D01*
X123258315Y-43786266D01*
X123499019Y-43850762D01*
X123747339Y-43871615D01*
X123995428Y-43848164D01*
X124235442Y-43781150D01*
X124459796Y-43672693D01*
X124634643Y-43545662D01*
X123740000Y-42651019D01*
X122844616Y-43546403D01*
X122109000Y-43546403D01*
X122109000Y-43535229D01*
X122121399Y-43526220D01*
X122293878Y-43346362D01*
X122431780Y-43138802D01*
X122470119Y-43050206D01*
X122515291Y-43151664D01*
X122661773Y-43367208D01*
X123558981Y-42470000D01*
X122665487Y-41576506D01*
X122552645Y-41725175D01*
X122471634Y-41884167D01*
X122465094Y-41866581D01*
X122338244Y-41652089D01*
X122234000Y-41531321D01*
X122234000Y-41388179D01*
X122839198Y-41388179D01*
X123740000Y-42288981D01*
X124651194Y-41377786D01*
X124303384Y-41186576D01*
X124067205Y-41107093D01*
X123820684Y-41070690D01*
X123571612Y-41078517D01*
X123327863Y-41130328D01*
X123097142Y-41224484D01*
X122839198Y-41388179D01*
X122234000Y-41388179D01*
X122234000Y-39863527D01*
X122279590Y-39685967D01*
X122284265Y-39351230D01*
X122217763Y-39058519D01*
X122158103Y-38934000D01*
X135566751Y-38934000D01*
X135538525Y-38990861D01*
X135468153Y-39281749D01*
X135465114Y-39499367D01*
X132171531Y-42792951D01*
X132093026Y-42865139D01*
X132049993Y-42934544D01*
X132000629Y-42999579D01*
X131984656Y-43039922D01*
X131959295Y-43080824D01*
X131948671Y-43130809D01*
X131908948Y-43231136D01*
X131882916Y-43478820D01*
X131891001Y-43526623D01*
X131891000Y-50142233D01*
X131860748Y-50165868D01*
X131671595Y-50397793D01*
X131538525Y-50665861D01*
X131468153Y-50956749D01*
X131463974Y-51255999D01*
X131526198Y-51548738D01*
X131651730Y-51820417D01*
X131834335Y-52057533D01*
X132064933Y-52248301D01*
X132332066Y-52383238D01*
X132622454Y-52455640D01*
X132921668Y-52461908D01*
X133214834Y-52401730D01*
X133487383Y-52278097D01*
X133725768Y-52097152D01*
X133918141Y-51867892D01*
X134054941Y-51601707D01*
X134129590Y-51310967D01*
X134134265Y-50976230D01*
X134067763Y-50683519D01*
X133938448Y-50413618D01*
X133752552Y-50179075D01*
X133709000Y-50144058D01*
X133709000Y-48630999D01*
X133963974Y-48630999D01*
X134026198Y-48923738D01*
X134151730Y-49195417D01*
X134266000Y-49343798D01*
X134266001Y-52783966D01*
X134218153Y-52981749D01*
X134213974Y-53280999D01*
X134276198Y-53573738D01*
X134401730Y-53845417D01*
X134584335Y-54082533D01*
X134814933Y-54273301D01*
X135082066Y-54408238D01*
X135372454Y-54480640D01*
X135671668Y-54486908D01*
X135964834Y-54426730D01*
X136237383Y-54303097D01*
X136475768Y-54122152D01*
X136668141Y-53892892D01*
X136804941Y-53626707D01*
X136879590Y-53335967D01*
X136884265Y-53001230D01*
X136817763Y-52708519D01*
X136688448Y-52438618D01*
X136502552Y-52204075D01*
X136334000Y-52068556D01*
X136334000Y-49343167D01*
X136418141Y-49242892D01*
X136554941Y-48976707D01*
X136629590Y-48685967D01*
X136634265Y-48351230D01*
X136567763Y-48058519D01*
X136438448Y-47788618D01*
X136252551Y-47554075D01*
X136019312Y-47366547D01*
X135750321Y-47235350D01*
X135458949Y-47167010D01*
X135159678Y-47164920D01*
X134867380Y-47229186D01*
X134596584Y-47356613D01*
X134360749Y-47540868D01*
X134171595Y-47772793D01*
X134038525Y-48040861D01*
X133968153Y-48331749D01*
X133963974Y-48630999D01*
X133709000Y-48630999D01*
X133709000Y-43826518D01*
X134557518Y-42978000D01*
X137858163Y-42978000D01*
X137858163Y-44116588D01*
X137938795Y-44417512D01*
X138086185Y-44593165D01*
X138279814Y-44704956D01*
X138488976Y-44741837D01*
X139022000Y-44741837D01*
X139022000Y-42978000D01*
X137858163Y-42978000D01*
X134557518Y-42978000D01*
X135946542Y-41588976D01*
X137858163Y-41588976D01*
X137858163Y-42722000D01*
X139022000Y-42722000D01*
X139022000Y-40958163D01*
X138483412Y-40958163D01*
X138182489Y-41038795D01*
X138006835Y-41186185D01*
X137895044Y-41379814D01*
X137858163Y-41588976D01*
X135946542Y-41588976D01*
X136752162Y-40783357D01*
X136921668Y-40786908D01*
X137214834Y-40726730D01*
X137487383Y-40603097D01*
X137725768Y-40422152D01*
X137918141Y-40192892D01*
X138054941Y-39926707D01*
X138129590Y-39635967D01*
X138134265Y-39301230D01*
X138067763Y-39008519D01*
X138032060Y-38934000D01*
X143180481Y-38934000D01*
X141156319Y-40958163D01*
X140483412Y-40958163D01*
X140182489Y-41038795D01*
X140147221Y-41068388D01*
X140020186Y-40995044D01*
X139811024Y-40958163D01*
X139278000Y-40958163D01*
X139278000Y-44741837D01*
X139816588Y-44741837D01*
X140117512Y-44661205D01*
X140152779Y-44631612D01*
X140241000Y-44682547D01*
X140241001Y-52423479D01*
X135348245Y-57316237D01*
X135159678Y-57314920D01*
X134867380Y-57379186D01*
X134596584Y-57506613D01*
X134360749Y-57690868D01*
X134171595Y-57922793D01*
X134038525Y-58190861D01*
X133968153Y-58481749D01*
X133963974Y-58780999D01*
X134026198Y-59073738D01*
X134151730Y-59345417D01*
X134334335Y-59582533D01*
X134564933Y-59773301D01*
X134832066Y-59908238D01*
X135122454Y-59980640D01*
X135421668Y-59986908D01*
X135714834Y-59926730D01*
X135987383Y-59803097D01*
X136225768Y-59622152D01*
X136418141Y-59392892D01*
X136554941Y-59126707D01*
X136629590Y-58835968D01*
X136632848Y-58602671D01*
X137948781Y-57286738D01*
X137895044Y-57379814D01*
X137858163Y-57588976D01*
X137858163Y-60116588D01*
X137938795Y-60417512D01*
X138086185Y-60593165D01*
X138279814Y-60704956D01*
X138488976Y-60741837D01*
X139816588Y-60741837D01*
X140117512Y-60661205D01*
X140152779Y-60631612D01*
X140279814Y-60704956D01*
X140488976Y-60741837D01*
X141816588Y-60741837D01*
X142117512Y-60661205D01*
X142152779Y-60631612D01*
X142241000Y-60682547D01*
X142241000Y-61265837D01*
X142109678Y-61264920D01*
X141817380Y-61329186D01*
X141546584Y-61456613D01*
X141310749Y-61640868D01*
X141121595Y-61872793D01*
X140988525Y-62140861D01*
X140918153Y-62431749D01*
X140913974Y-62730999D01*
X140976198Y-63023738D01*
X141101730Y-63295417D01*
X141284335Y-63532533D01*
X141514933Y-63723301D01*
X141782066Y-63858238D01*
X142072454Y-63930640D01*
X142371668Y-63936908D01*
X142664834Y-63876730D01*
X142937383Y-63753097D01*
X143175768Y-63572152D01*
X143368141Y-63342892D01*
X143504941Y-63076707D01*
X143579590Y-62785968D01*
X143582848Y-62552671D01*
X143778462Y-62357057D01*
X143856975Y-62284860D01*
X143900008Y-62215456D01*
X143949371Y-62150424D01*
X143965344Y-62110080D01*
X143990705Y-62069176D01*
X144001330Y-62019191D01*
X144041052Y-61918865D01*
X144067084Y-61671180D01*
X144059000Y-61623383D01*
X144059000Y-60676883D01*
X144116001Y-60661610D01*
X144116001Y-60832229D01*
X144107079Y-60900000D01*
X144117079Y-60975959D01*
X144142615Y-61169929D01*
X144170292Y-61236747D01*
X144246803Y-61421461D01*
X144314275Y-61509393D01*
X144313974Y-61530999D01*
X144376198Y-61823738D01*
X144501730Y-62095417D01*
X144684335Y-62332533D01*
X144914933Y-62523301D01*
X145182066Y-62658238D01*
X145472454Y-62730640D01*
X145771668Y-62736908D01*
X146064834Y-62676730D01*
X146118473Y-62652398D01*
X146110776Y-62705930D01*
X146110776Y-63198604D01*
X146186550Y-63546931D01*
X146324533Y-63761638D01*
X146513929Y-63925750D01*
X146741888Y-64029854D01*
X146980930Y-64064224D01*
X147573604Y-64064224D01*
X147921931Y-63988450D01*
X148136638Y-63850467D01*
X148153967Y-63830468D01*
X148263929Y-63925750D01*
X148491888Y-64029854D01*
X148730930Y-64064224D01*
X148897000Y-64064224D01*
X148897000Y-63078000D01*
X149153000Y-63078000D01*
X149153000Y-64064224D01*
X149323604Y-64064224D01*
X149671931Y-63988450D01*
X149886638Y-63850467D01*
X150050750Y-63661071D01*
X150154854Y-63433112D01*
X150205913Y-63078000D01*
X149153000Y-63078000D01*
X148897000Y-63078000D01*
X148897000Y-62822000D01*
X150215459Y-62822000D01*
X150113450Y-62353070D01*
X149997455Y-62172576D01*
X150050750Y-62111071D01*
X150154854Y-61883112D01*
X150205913Y-61528000D01*
X148897000Y-61528000D01*
X148897000Y-61272000D01*
X150215459Y-61272000D01*
X150113450Y-60803070D01*
X150036270Y-60682974D01*
X150117512Y-60661205D01*
X150152779Y-60631612D01*
X150279814Y-60704956D01*
X150488976Y-60741837D01*
X151022000Y-60741837D01*
X151022000Y-56958163D01*
X151278000Y-56958163D01*
X151278000Y-60741837D01*
X151816588Y-60741837D01*
X152117512Y-60661205D01*
X152152779Y-60631612D01*
X152279814Y-60704956D01*
X152488976Y-60741837D01*
X153816588Y-60741837D01*
X154117512Y-60661205D01*
X154293165Y-60513815D01*
X154328276Y-60453000D01*
X156183163Y-60453000D01*
X156183163Y-60866588D01*
X156263795Y-61167512D01*
X156411185Y-61343165D01*
X156604814Y-61454956D01*
X156813976Y-61491837D01*
X157797000Y-61491837D01*
X157797000Y-60453000D01*
X158053000Y-60453000D01*
X158053000Y-61491837D01*
X159041588Y-61491837D01*
X159342512Y-61411205D01*
X159518165Y-61263815D01*
X159629956Y-61070186D01*
X159666837Y-60861024D01*
X159666837Y-60453000D01*
X158053000Y-60453000D01*
X157797000Y-60453000D01*
X156183163Y-60453000D01*
X154328276Y-60453000D01*
X154404956Y-60320186D01*
X154441837Y-60111024D01*
X154441837Y-59984000D01*
X155819529Y-59984000D01*
X155863976Y-59991837D01*
X156183163Y-59991837D01*
X156183163Y-60197000D01*
X157797000Y-60197000D01*
X157797000Y-59158163D01*
X158053000Y-59158163D01*
X158053000Y-60197000D01*
X159666837Y-60197000D01*
X159666837Y-59783412D01*
X159586205Y-59482489D01*
X159438815Y-59306835D01*
X159245186Y-59195044D01*
X159036024Y-59158163D01*
X158053000Y-59158163D01*
X157797000Y-59158163D01*
X157566837Y-59158163D01*
X157566837Y-58541837D01*
X157797000Y-58541837D01*
X157797000Y-57503000D01*
X158053000Y-57503000D01*
X158053000Y-58541837D01*
X159041588Y-58541837D01*
X159342512Y-58461205D01*
X159518165Y-58313815D01*
X159629956Y-58120186D01*
X159666837Y-57911024D01*
X159666837Y-57503000D01*
X158053000Y-57503000D01*
X157797000Y-57503000D01*
X156183163Y-57503000D01*
X156183163Y-57708163D01*
X155858412Y-57708163D01*
X155829163Y-57716000D01*
X154441837Y-57716000D01*
X154441837Y-57583412D01*
X154361205Y-57282489D01*
X154213815Y-57106835D01*
X154020186Y-56995044D01*
X153811024Y-56958163D01*
X152483412Y-56958163D01*
X152182489Y-57038795D01*
X152147221Y-57068388D01*
X152020186Y-56995044D01*
X151811024Y-56958163D01*
X151278000Y-56958163D01*
X151022000Y-56958163D01*
X150483412Y-56958163D01*
X150182489Y-57038795D01*
X150147221Y-57068388D01*
X150020186Y-56995044D01*
X149811024Y-56958163D01*
X148483412Y-56958163D01*
X148182489Y-57038795D01*
X148147221Y-57068388D01*
X148020186Y-56995044D01*
X147927521Y-56978705D01*
X147979941Y-56876707D01*
X147989628Y-56838976D01*
X156183163Y-56838976D01*
X156183163Y-57247000D01*
X157797000Y-57247000D01*
X157797000Y-56208163D01*
X158053000Y-56208163D01*
X158053000Y-57247000D01*
X159666837Y-57247000D01*
X159666837Y-56833412D01*
X159586205Y-56532489D01*
X159438815Y-56356835D01*
X159245186Y-56245044D01*
X159036024Y-56208163D01*
X158053000Y-56208163D01*
X157797000Y-56208163D01*
X156808412Y-56208163D01*
X156507489Y-56288795D01*
X156331835Y-56436185D01*
X156220044Y-56629814D01*
X156183163Y-56838976D01*
X147989628Y-56838976D01*
X148054590Y-56585967D01*
X148059265Y-56251230D01*
X147992763Y-55958519D01*
X147863448Y-55688618D01*
X147677552Y-55454075D01*
X147559000Y-55358757D01*
X147559000Y-49634880D01*
X147575768Y-49622152D01*
X147768141Y-49392892D01*
X147904941Y-49126707D01*
X147979590Y-48835967D01*
X147984265Y-48501230D01*
X147917763Y-48208519D01*
X147788448Y-47938618D01*
X147602551Y-47704075D01*
X147369312Y-47516547D01*
X147100321Y-47385350D01*
X146808949Y-47317010D01*
X146509678Y-47314920D01*
X146217380Y-47379186D01*
X145946584Y-47506613D01*
X145710749Y-47690868D01*
X145521595Y-47922793D01*
X145388525Y-48190861D01*
X145318410Y-48480688D01*
X145108595Y-48526818D01*
X144847949Y-48649469D01*
X144620953Y-48826818D01*
X144438889Y-49050050D01*
X144310807Y-49308070D01*
X144243072Y-49588055D01*
X144239050Y-49876089D01*
X144298941Y-50157855D01*
X144419769Y-50419352D01*
X144595529Y-50647580D01*
X144616000Y-50664515D01*
X144616001Y-56958163D01*
X144483412Y-56958163D01*
X144182489Y-57038795D01*
X144147221Y-57068388D01*
X144020186Y-56995044D01*
X143811024Y-56958163D01*
X142483412Y-56958163D01*
X142182489Y-57038795D01*
X142147221Y-57068388D01*
X142020186Y-56995044D01*
X141811024Y-56958163D01*
X140483412Y-56958163D01*
X140182489Y-57038795D01*
X140147221Y-57068388D01*
X140020186Y-56995044D01*
X139811024Y-56958163D01*
X138483412Y-56958163D01*
X138201934Y-57033585D01*
X141778469Y-53457050D01*
X141856976Y-53384860D01*
X141900008Y-53315455D01*
X141949371Y-53250424D01*
X141965344Y-53210080D01*
X141990705Y-53169176D01*
X142001330Y-53119191D01*
X142041052Y-53018865D01*
X142067084Y-52771180D01*
X142059000Y-52723383D01*
X142059000Y-46509348D01*
X164416672Y-46509348D01*
X164713086Y-46749379D01*
X165018244Y-46943038D01*
X165343640Y-47100341D01*
X165684958Y-47219201D01*
X166037676Y-47298042D01*
X166397119Y-47335821D01*
X166758521Y-47332037D01*
X167117093Y-47286738D01*
X167468083Y-47200527D01*
X167806837Y-47074545D01*
X168128867Y-46910463D01*
X168429903Y-46710455D01*
X168670833Y-46506853D01*
X166545000Y-44381019D01*
X164416672Y-46509348D01*
X142059000Y-46509348D01*
X142059000Y-45092828D01*
X142076198Y-45173738D01*
X142201730Y-45445417D01*
X142384335Y-45682533D01*
X142614933Y-45873301D01*
X142882066Y-46008238D01*
X143172454Y-46080640D01*
X143471668Y-46086908D01*
X143764834Y-46026730D01*
X144037383Y-45903097D01*
X144275768Y-45722152D01*
X144397210Y-45577424D01*
X144451730Y-45695417D01*
X144634335Y-45932533D01*
X144864933Y-46123301D01*
X145132066Y-46258238D01*
X145422454Y-46330640D01*
X145721668Y-46336908D01*
X146014834Y-46276730D01*
X146287383Y-46153097D01*
X146525768Y-45972152D01*
X146718141Y-45742892D01*
X146854941Y-45476707D01*
X146929590Y-45185967D01*
X146934265Y-44851230D01*
X146909412Y-44741837D01*
X147816588Y-44741837D01*
X148117512Y-44661205D01*
X148152779Y-44631612D01*
X148279814Y-44704956D01*
X148488976Y-44741837D01*
X149816588Y-44741837D01*
X150117512Y-44661205D01*
X150152779Y-44631612D01*
X150279814Y-44704956D01*
X150488976Y-44741837D01*
X151816588Y-44741837D01*
X152117512Y-44661205D01*
X152152779Y-44631612D01*
X152279814Y-44704956D01*
X152488976Y-44741837D01*
X153022000Y-44741837D01*
X153022000Y-42978000D01*
X153278000Y-42978000D01*
X153278000Y-44741837D01*
X153816588Y-44741837D01*
X154117512Y-44661205D01*
X154293165Y-44513815D01*
X154404956Y-44320186D01*
X154411657Y-44282178D01*
X163406770Y-44282178D01*
X163437013Y-44642332D01*
X163508450Y-44996624D01*
X163620136Y-45340357D01*
X163770589Y-45668975D01*
X163957816Y-45978123D01*
X164232167Y-46331813D01*
X166363981Y-44200000D01*
X164239658Y-42075678D01*
X164074569Y-42262935D01*
X163868301Y-42559717D01*
X163697511Y-42878239D01*
X163564463Y-43214281D01*
X163470920Y-43563388D01*
X163418122Y-43920934D01*
X163406770Y-44282178D01*
X154411657Y-44282178D01*
X154441837Y-44111024D01*
X154441837Y-42978000D01*
X153278000Y-42978000D01*
X153022000Y-42978000D01*
X153022000Y-40958163D01*
X153278000Y-40958163D01*
X153278000Y-42722000D01*
X154441837Y-42722000D01*
X154441837Y-41895049D01*
X164421068Y-41895049D01*
X166545000Y-44018981D01*
X168678932Y-41885048D01*
X168295933Y-41594337D01*
X167984842Y-41410358D01*
X167654666Y-41263354D01*
X167309782Y-41155275D01*
X166954762Y-41087550D01*
X166594310Y-41061081D01*
X166233205Y-41076216D01*
X165876233Y-41132755D01*
X165528124Y-41229948D01*
X165193494Y-41366508D01*
X164876778Y-41540624D01*
X164582172Y-41749989D01*
X164421068Y-41895049D01*
X154441837Y-41895049D01*
X154441837Y-41583412D01*
X154361205Y-41282489D01*
X154213815Y-41106835D01*
X154020186Y-40995044D01*
X153811024Y-40958163D01*
X153278000Y-40958163D01*
X153022000Y-40958163D01*
X152483412Y-40958163D01*
X152182489Y-41038795D01*
X152147221Y-41068388D01*
X152020186Y-40995044D01*
X151925606Y-40978367D01*
X152054941Y-40726707D01*
X152129590Y-40435967D01*
X152134265Y-40101230D01*
X152067763Y-39808519D01*
X151938448Y-39538618D01*
X151752551Y-39304075D01*
X151519312Y-39116547D01*
X151250321Y-38985350D01*
X151031387Y-38934000D01*
X169116001Y-38934000D01*
X169116001Y-42404539D01*
X169075056Y-42341489D01*
X168852977Y-42073043D01*
X166726019Y-44200000D01*
X168849907Y-46323887D01*
X168953368Y-46213705D01*
X169116001Y-45994720D01*
X169116001Y-48757532D01*
X169075429Y-48527436D01*
X168989609Y-48291651D01*
X168864150Y-48074349D01*
X168702864Y-47882136D01*
X168510651Y-47720850D01*
X168293349Y-47595391D01*
X168057564Y-47509571D01*
X167810459Y-47466000D01*
X167559541Y-47466000D01*
X167312436Y-47509571D01*
X167076651Y-47595391D01*
X166859349Y-47720850D01*
X166667136Y-47882136D01*
X166505850Y-48074349D01*
X166415000Y-48231706D01*
X166324150Y-48074349D01*
X166162864Y-47882136D01*
X165970651Y-47720850D01*
X165753349Y-47595391D01*
X165517564Y-47509571D01*
X165270459Y-47466000D01*
X165019541Y-47466000D01*
X164772436Y-47509571D01*
X164536651Y-47595391D01*
X164319349Y-47720850D01*
X164127136Y-47882136D01*
X164035789Y-47991000D01*
X163445173Y-47991000D01*
X163338651Y-47986535D01*
X163259154Y-48005180D01*
X163178255Y-48016262D01*
X163138427Y-48033498D01*
X163091578Y-48044485D01*
X163048720Y-48072318D01*
X162949691Y-48115171D01*
X162756144Y-48271903D01*
X162728063Y-48311416D01*
X161371519Y-49667962D01*
X161293026Y-49740139D01*
X161249993Y-49809544D01*
X161200629Y-49874579D01*
X161184656Y-49914922D01*
X161159295Y-49955824D01*
X161148671Y-50005809D01*
X161108948Y-50106136D01*
X161082916Y-50353820D01*
X161091001Y-50401623D01*
X161091000Y-61164738D01*
X161065409Y-61193159D01*
X160935708Y-61435051D01*
X160867451Y-61700897D01*
X160864576Y-61975352D01*
X160927252Y-62242570D01*
X161051858Y-62487124D01*
X161231203Y-62694897D01*
X161454931Y-62853893D01*
X161710126Y-62954932D01*
X161982058Y-62992182D01*
X162226039Y-62966538D01*
X162251858Y-63017210D01*
X162431203Y-63224983D01*
X162654931Y-63383979D01*
X162910126Y-63485018D01*
X163182058Y-63522268D01*
X163455024Y-63493577D01*
X163713267Y-63400604D01*
X163904749Y-63273383D01*
X163898573Y-63322615D01*
X163929401Y-63608708D01*
X164025217Y-63880036D01*
X164180881Y-64122044D01*
X164388044Y-64321750D01*
X164635594Y-64468441D01*
X164823017Y-64526997D01*
X166545000Y-66248981D01*
X168678932Y-64115048D01*
X168295933Y-63824337D01*
X167984842Y-63640358D01*
X167654666Y-63493354D01*
X167309782Y-63385275D01*
X166954762Y-63317550D01*
X166594310Y-63291081D01*
X166374247Y-63300305D01*
X166375199Y-63191148D01*
X166311396Y-62920186D01*
X166438165Y-62813815D01*
X166541981Y-62634000D01*
X166686366Y-62634000D01*
X166859349Y-62779150D01*
X167076651Y-62904609D01*
X167312436Y-62990429D01*
X167559541Y-63034000D01*
X167810459Y-63034000D01*
X168057564Y-62990429D01*
X168293349Y-62904609D01*
X168510651Y-62779150D01*
X168702864Y-62617864D01*
X168864150Y-62425651D01*
X168989609Y-62208349D01*
X169075429Y-61972564D01*
X169116000Y-61742472D01*
X169116000Y-64634538D01*
X169075056Y-64571489D01*
X168852977Y-64303043D01*
X166726019Y-66430000D01*
X168849907Y-68553887D01*
X168953368Y-68443705D01*
X169116000Y-68224721D01*
X169116000Y-71716000D01*
X86534000Y-71716000D01*
X86534000Y-68739348D01*
X86936672Y-68739348D01*
X87233086Y-68979379D01*
X87538244Y-69173038D01*
X87863640Y-69330341D01*
X88204958Y-69449201D01*
X88557676Y-69528042D01*
X88917119Y-69565821D01*
X89278521Y-69562037D01*
X89637093Y-69516738D01*
X89988083Y-69430527D01*
X90326837Y-69304545D01*
X90648867Y-69140463D01*
X90949903Y-68940455D01*
X91190833Y-68736853D01*
X89065000Y-66611019D01*
X86936672Y-68739348D01*
X86534000Y-68739348D01*
X86534000Y-68280555D01*
X86752167Y-68561813D01*
X86752167Y-68561813D01*
G37*
X86752167Y-68561813D02*
X88883981Y-66430000D01*
X86759658Y-64305678D01*
X86594569Y-64492935D01*
X86534000Y-64580083D01*
X86534000Y-64125049D01*
X86941068Y-64125049D01*
X89065000Y-66248981D01*
X91198932Y-64115048D01*
X90815933Y-63824337D01*
X90504842Y-63640358D01*
X90174666Y-63493354D01*
X89829782Y-63385275D01*
X89474762Y-63317550D01*
X89114310Y-63291081D01*
X88753205Y-63306216D01*
X88396233Y-63362755D01*
X88048124Y-63459948D01*
X87713494Y-63596508D01*
X87396778Y-63770624D01*
X87102172Y-63979989D01*
X86941068Y-64125049D01*
X86534000Y-64125049D01*
X86534000Y-46509348D01*
X86936672Y-46509348D01*
X87233086Y-46749379D01*
X87538244Y-46943038D01*
X87863640Y-47100341D01*
X88204958Y-47219201D01*
X88557676Y-47298042D01*
X88917119Y-47335821D01*
X89228691Y-47332559D01*
X89208163Y-47448976D01*
X89208163Y-49076588D01*
X89288795Y-49377512D01*
X89436185Y-49553165D01*
X89629814Y-49664956D01*
X89747132Y-49685642D01*
X89632136Y-49782136D01*
X89470850Y-49974349D01*
X89345391Y-50191651D01*
X89259571Y-50427436D01*
X89216000Y-50674541D01*
X89216000Y-50925459D01*
X89259571Y-51172564D01*
X89345391Y-51408349D01*
X89470850Y-51625651D01*
X89632136Y-51817864D01*
X89824349Y-51979150D01*
X89981706Y-52070000D01*
X89824349Y-52160850D01*
X89632136Y-52322136D01*
X89470850Y-52514349D01*
X89345391Y-52731651D01*
X89259571Y-52967436D01*
X89216000Y-53214541D01*
X89216000Y-53465459D01*
X89259571Y-53712564D01*
X89345391Y-53948349D01*
X89470850Y-54165651D01*
X89632136Y-54357864D01*
X89824349Y-54519150D01*
X90041651Y-54644609D01*
X90277436Y-54730429D01*
X90464220Y-54763364D01*
X90463974Y-54780999D01*
X90526198Y-55073738D01*
X90651730Y-55345417D01*
X90834335Y-55582533D01*
X91064933Y-55773301D01*
X91332065Y-55908238D01*
X91465999Y-55941632D01*
X91466000Y-64415488D01*
X91372977Y-64303043D01*
X89246019Y-66430000D01*
X91369907Y-68553887D01*
X91473368Y-68443705D01*
X91688856Y-68153551D01*
X91725797Y-68089568D01*
X91762543Y-68137456D01*
X91816774Y-68179069D01*
X94139039Y-70501335D01*
X94138974Y-70505998D01*
X94201198Y-70798738D01*
X94326730Y-71070417D01*
X94509335Y-71307533D01*
X94739933Y-71498301D01*
X95007066Y-71633238D01*
X95297454Y-71705640D01*
X95596668Y-71711908D01*
X95889834Y-71651730D01*
X96162383Y-71528097D01*
X96400768Y-71347152D01*
X96593141Y-71117892D01*
X96729941Y-70851707D01*
X96804590Y-70560967D01*
X96809265Y-70226230D01*
X96771331Y-70059262D01*
X96964266Y-70086892D01*
X97216017Y-70080080D01*
X97463022Y-70030948D01*
X97698216Y-69940901D01*
X98019497Y-69750516D01*
X96868981Y-68600000D01*
X97231019Y-68600000D01*
X98201807Y-69570788D01*
X98395393Y-69238840D01*
X98483796Y-69003022D01*
X98531318Y-68755082D01*
X98534240Y-68475974D01*
X98491922Y-68227094D01*
X98408477Y-67989476D01*
X98286187Y-67769314D01*
X98186235Y-67644784D01*
X97231019Y-68600000D01*
X96868981Y-68600000D01*
X95909118Y-67640137D01*
X95756293Y-67862083D01*
X95650457Y-68090609D01*
X95584639Y-68333699D01*
X95560720Y-68584404D01*
X95579384Y-68835554D01*
X95630661Y-69041987D01*
X95604097Y-69041801D01*
X94023739Y-67461443D01*
X96092462Y-67461443D01*
X97050000Y-68418981D01*
X98015969Y-67453012D01*
X97726157Y-67272969D01*
X97492899Y-67178016D01*
X97246977Y-67123721D01*
X96995424Y-67111638D01*
X96745431Y-67142113D01*
X96504147Y-67214272D01*
X96278470Y-67326053D01*
X96092462Y-67461443D01*
X94023739Y-67461443D01*
X93533999Y-66971704D01*
X93533999Y-65237231D01*
X96093788Y-65237231D01*
X96251960Y-65357509D01*
X96475246Y-65473992D01*
X96714966Y-65551190D01*
X96964266Y-65586892D01*
X97216017Y-65580080D01*
X97463022Y-65530948D01*
X97698216Y-65440901D01*
X98019497Y-65250516D01*
X97050000Y-64281019D01*
X96093788Y-65237231D01*
X93533999Y-65237231D01*
X93533999Y-63431002D01*
X94063974Y-63431002D01*
X94126198Y-63723741D01*
X94251730Y-63995420D01*
X94434335Y-64232536D01*
X94664933Y-64423304D01*
X94932066Y-64558241D01*
X95222454Y-64630643D01*
X95521668Y-64636911D01*
X95653208Y-64609909D01*
X95741123Y-64810662D01*
X95906712Y-65062269D01*
X97050000Y-63918980D01*
X98201807Y-65070788D01*
X98395393Y-64738840D01*
X98483796Y-64503022D01*
X98531318Y-64255082D01*
X98533104Y-64084404D01*
X102060720Y-64084404D01*
X102079384Y-64335554D01*
X102140097Y-64579970D01*
X102241123Y-64810662D01*
X102379575Y-65021033D01*
X102551493Y-65205071D01*
X102641001Y-65273134D01*
X102641000Y-67426114D01*
X102574854Y-67474261D01*
X102399120Y-67654656D01*
X102256293Y-67862083D01*
X102150457Y-68090609D01*
X102084639Y-68333699D01*
X102060720Y-68584404D01*
X102079384Y-68835554D01*
X102140097Y-69079970D01*
X102241123Y-69310662D01*
X102379575Y-69521033D01*
X102551493Y-69705071D01*
X102751960Y-69857510D01*
X102975246Y-69973992D01*
X103214966Y-70051190D01*
X103464266Y-70086892D01*
X103716017Y-70080080D01*
X103963022Y-70030948D01*
X104198216Y-69940901D01*
X104414877Y-69812512D01*
X104606807Y-69649455D01*
X104724455Y-69509000D01*
X106269527Y-69509000D01*
X106338795Y-69767512D01*
X106486185Y-69943165D01*
X106679814Y-70054956D01*
X106888976Y-70091837D01*
X108616588Y-70091837D01*
X108917512Y-70011205D01*
X109093165Y-69863815D01*
X109204956Y-69670186D01*
X109213204Y-69623412D01*
X109251669Y-69667739D01*
X109446416Y-69827422D01*
X109665284Y-69952009D01*
X109904831Y-70038960D01*
X110244648Y-70084000D01*
X110353190Y-70084000D01*
X110540942Y-70068069D01*
X110784708Y-70004800D01*
X111014329Y-69901363D01*
X111223240Y-69760716D01*
X111405466Y-69586881D01*
X111555797Y-69384828D01*
X111562436Y-69371770D01*
X111626610Y-69477526D01*
X111791669Y-69667739D01*
X111986416Y-69827422D01*
X112205284Y-69952009D01*
X112444831Y-70038960D01*
X112702000Y-70073047D01*
X112702000Y-67100022D01*
X112335292Y-67195200D01*
X112105671Y-67298637D01*
X111896760Y-67439284D01*
X111714534Y-67613119D01*
X111564203Y-67815172D01*
X111557564Y-67828230D01*
X111493390Y-67722474D01*
X111328331Y-67532261D01*
X111133584Y-67372578D01*
X110914716Y-67247991D01*
X110834000Y-67218693D01*
X110834000Y-66859000D01*
X110866328Y-66859000D01*
X111064933Y-67023301D01*
X111332066Y-67158238D01*
X111622454Y-67230640D01*
X111921668Y-67236908D01*
X112214834Y-67176730D01*
X112487383Y-67053097D01*
X112725768Y-66872152D01*
X112761135Y-66830004D01*
X112813929Y-66875750D01*
X113041888Y-66979854D01*
X113280930Y-67014224D01*
X113873604Y-67014224D01*
X114221931Y-66938450D01*
X114416000Y-66813730D01*
X114416001Y-67459087D01*
X114254534Y-67613119D01*
X114104203Y-67815172D01*
X114097564Y-67828230D01*
X114033390Y-67722474D01*
X113868331Y-67532261D01*
X113673584Y-67372578D01*
X113454716Y-67247991D01*
X113215169Y-67161040D01*
X112958000Y-67126953D01*
X112958000Y-70099978D01*
X113324708Y-70004800D01*
X113554329Y-69901363D01*
X113763240Y-69760716D01*
X113945466Y-69586881D01*
X114095797Y-69384828D01*
X114102436Y-69371770D01*
X114166610Y-69477526D01*
X114331669Y-69667739D01*
X114526416Y-69827422D01*
X114745284Y-69952009D01*
X114984831Y-70038960D01*
X115324648Y-70084000D01*
X115433190Y-70084000D01*
X115620942Y-70068069D01*
X115864708Y-70004800D01*
X116094329Y-69901363D01*
X116303240Y-69760716D01*
X116485466Y-69586881D01*
X116635797Y-69384828D01*
X116642436Y-69371770D01*
X116706610Y-69477526D01*
X116871669Y-69667739D01*
X117066416Y-69827422D01*
X117285284Y-69952009D01*
X117524831Y-70038960D01*
X117864648Y-70084000D01*
X117973190Y-70084000D01*
X118160942Y-70068069D01*
X118404708Y-70004800D01*
X118634329Y-69901363D01*
X118843240Y-69760716D01*
X119025466Y-69586881D01*
X119175797Y-69384828D01*
X119289936Y-69160334D01*
X119364618Y-68919819D01*
X119388537Y-68739348D01*
X164416672Y-68739348D01*
X164713086Y-68979379D01*
X165018244Y-69173038D01*
X165343640Y-69330341D01*
X165684958Y-69449201D01*
X166037676Y-69528042D01*
X166397119Y-69565821D01*
X166758521Y-69562037D01*
X167117093Y-69516738D01*
X167468083Y-69430527D01*
X167806837Y-69304545D01*
X168128867Y-69140463D01*
X168429903Y-68940455D01*
X168670833Y-68736853D01*
X166545000Y-66611019D01*
X164416672Y-68739348D01*
X119388537Y-68739348D01*
X119397708Y-68670159D01*
X119388260Y-68418492D01*
X119336544Y-68172017D01*
X119244039Y-67937778D01*
X119113390Y-67722473D01*
X119059000Y-67659795D01*
X119059000Y-66084880D01*
X119075768Y-66072152D01*
X119268141Y-65842892D01*
X119404941Y-65576707D01*
X119479590Y-65285967D01*
X119484265Y-64951230D01*
X119417763Y-64658519D01*
X119288448Y-64388618D01*
X119185859Y-64259184D01*
X119472454Y-64330640D01*
X119771668Y-64336908D01*
X120064834Y-64276730D01*
X120337383Y-64153097D01*
X120575768Y-63972152D01*
X120768141Y-63742892D01*
X120904941Y-63476707D01*
X120979590Y-63185967D01*
X120984265Y-62851230D01*
X120917763Y-62558519D01*
X120788448Y-62288618D01*
X120602551Y-62054075D01*
X120369312Y-61866547D01*
X120100321Y-61735350D01*
X119808949Y-61667010D01*
X119509678Y-61664920D01*
X119217380Y-61729186D01*
X118946584Y-61856613D01*
X118710748Y-62040868D01*
X118645174Y-62121271D01*
X118052452Y-62121271D01*
X118023185Y-62084346D01*
X117789946Y-61896818D01*
X117520955Y-61765621D01*
X117229583Y-61697281D01*
X116930312Y-61695191D01*
X116759582Y-61732728D01*
X116738448Y-61688618D01*
X116552551Y-61454075D01*
X116319312Y-61266547D01*
X116050321Y-61135350D01*
X115758949Y-61067010D01*
X115459678Y-61064920D01*
X115167380Y-61129186D01*
X114896584Y-61256613D01*
X114660749Y-61440868D01*
X114471595Y-61672793D01*
X114338525Y-61940861D01*
X114268153Y-62231749D01*
X114263974Y-62530999D01*
X114326198Y-62823738D01*
X114451730Y-63095417D01*
X114634335Y-63332533D01*
X114691000Y-63379410D01*
X114691001Y-64858737D01*
X114678070Y-64861550D01*
X114463362Y-64999533D01*
X114446033Y-65019532D01*
X114336071Y-64924250D01*
X114108112Y-64820146D01*
X113869070Y-64785776D01*
X113276396Y-64785776D01*
X112928069Y-64861550D01*
X112763197Y-64967507D01*
X112752551Y-64954075D01*
X112519312Y-64766547D01*
X112250321Y-64635350D01*
X111958949Y-64567010D01*
X111659678Y-64564920D01*
X111367380Y-64629186D01*
X111096584Y-64756613D01*
X110860749Y-64940868D01*
X110779083Y-65041000D01*
X110763105Y-65041000D01*
X110686071Y-64974250D01*
X110458112Y-64870146D01*
X110219070Y-64835776D01*
X109626396Y-64835776D01*
X109278069Y-64911550D01*
X109084000Y-65036270D01*
X109084000Y-63445355D01*
X109287383Y-63353097D01*
X109525768Y-63172152D01*
X109718141Y-62942892D01*
X109854941Y-62676707D01*
X109929590Y-62385967D01*
X109934265Y-62051230D01*
X109867763Y-61758519D01*
X109738448Y-61488618D01*
X109552551Y-61254075D01*
X109319312Y-61066547D01*
X109050321Y-60935350D01*
X108758949Y-60867010D01*
X108459678Y-60864920D01*
X108167380Y-60929186D01*
X107896584Y-61056613D01*
X107660749Y-61240868D01*
X107471595Y-61472793D01*
X107338525Y-61740861D01*
X107268153Y-62031749D01*
X107263974Y-62330998D01*
X107282623Y-62418740D01*
X107257916Y-62653820D01*
X107266001Y-62701623D01*
X107266000Y-65104191D01*
X107149250Y-65238929D01*
X107045146Y-65466888D01*
X107010776Y-65705930D01*
X107010776Y-66198604D01*
X107086550Y-66546931D01*
X107224533Y-66761638D01*
X107266000Y-66797569D01*
X107266001Y-67108163D01*
X106883412Y-67108163D01*
X106582489Y-67188795D01*
X106406835Y-67336185D01*
X106295044Y-67529814D01*
X106266622Y-67691000D01*
X104723333Y-67691000D01*
X104628553Y-67572907D01*
X104459000Y-67422635D01*
X104459000Y-65275026D01*
X104606807Y-65149455D01*
X104768521Y-64956391D01*
X104895393Y-64738840D01*
X104983796Y-64503022D01*
X105031318Y-64255082D01*
X105034240Y-63975974D01*
X104991922Y-63727094D01*
X104909000Y-63490965D01*
X104909000Y-63334880D01*
X104925768Y-63322152D01*
X105118141Y-63092892D01*
X105254941Y-62826707D01*
X105329590Y-62535967D01*
X105334265Y-62201230D01*
X105267763Y-61908519D01*
X105138448Y-61638618D01*
X104952551Y-61404075D01*
X104719312Y-61216547D01*
X104450321Y-61085350D01*
X104158949Y-61017010D01*
X103859678Y-61014920D01*
X103567380Y-61079186D01*
X103296584Y-61206613D01*
X103060749Y-61390868D01*
X102871595Y-61622793D01*
X102738525Y-61890861D01*
X102668153Y-62181749D01*
X102663974Y-62480999D01*
X102726198Y-62773738D01*
X102757443Y-62841358D01*
X102574854Y-62974261D01*
X102399120Y-63154656D01*
X102256293Y-63362083D01*
X102150457Y-63590609D01*
X102084639Y-63833699D01*
X102060720Y-64084404D01*
X98533104Y-64084404D01*
X98534240Y-63975974D01*
X98491922Y-63727094D01*
X98476788Y-63683999D01*
X98974827Y-63683999D01*
X99081349Y-63688464D01*
X99160847Y-63669818D01*
X99241744Y-63658737D01*
X99281575Y-63641502D01*
X99328423Y-63630513D01*
X99371277Y-63602683D01*
X99470310Y-63559828D01*
X99663857Y-63403096D01*
X99691945Y-63363573D01*
X101398469Y-61657050D01*
X101476975Y-61584860D01*
X101520006Y-61515459D01*
X101569371Y-61450422D01*
X101585341Y-61410084D01*
X101610705Y-61369176D01*
X101621331Y-61319188D01*
X101661052Y-61218864D01*
X101682743Y-61012483D01*
X101687512Y-61011205D01*
X101863165Y-60863815D01*
X101974956Y-60670186D01*
X102011837Y-60461024D01*
X102011837Y-59033412D01*
X101931205Y-58732489D01*
X101902331Y-58698079D01*
X101943165Y-58663815D01*
X102054956Y-58470186D01*
X102091837Y-58261024D01*
X102091837Y-56833412D01*
X102011205Y-56532489D01*
X101863815Y-56356835D01*
X101670186Y-56245044D01*
X101645057Y-56240613D01*
X101615823Y-56206686D01*
X101599686Y-56184877D01*
X101580506Y-56165698D01*
X101520485Y-56096040D01*
X101493098Y-56078289D01*
X101280570Y-55865762D01*
X101284265Y-55601230D01*
X101268011Y-55529687D01*
X103965286Y-55529687D01*
X104027510Y-55822426D01*
X104153042Y-56094105D01*
X104335647Y-56331221D01*
X104566245Y-56521989D01*
X104833378Y-56656926D01*
X105123766Y-56729328D01*
X105422980Y-56735596D01*
X105716146Y-56675418D01*
X105988695Y-56551785D01*
X106227080Y-56370840D01*
X106280071Y-56307688D01*
X120922170Y-56307688D01*
X123216473Y-58601993D01*
X123213974Y-58780999D01*
X123276198Y-59073738D01*
X123401730Y-59345417D01*
X123584335Y-59582533D01*
X123814933Y-59773301D01*
X124082066Y-59908238D01*
X124372454Y-59980640D01*
X124671668Y-59986908D01*
X124964834Y-59926730D01*
X125237383Y-59803097D01*
X125475768Y-59622152D01*
X125668141Y-59392892D01*
X125804941Y-59126707D01*
X125879590Y-58835968D01*
X125880346Y-58781853D01*
X126121668Y-58786908D01*
X126391000Y-58731622D01*
X126391001Y-61735213D01*
X126353868Y-61769779D01*
X126194003Y-62009034D01*
X126093467Y-62278647D01*
X126057651Y-62564158D01*
X126088479Y-62850251D01*
X126184295Y-63121579D01*
X126339959Y-63363587D01*
X126547122Y-63563293D01*
X126794672Y-63709984D01*
X127069328Y-63795794D01*
X127267602Y-63809833D01*
X127257651Y-63889158D01*
X127288479Y-64175251D01*
X127384295Y-64446579D01*
X127539959Y-64688587D01*
X127747122Y-64888293D01*
X127994672Y-65034984D01*
X128269328Y-65120794D01*
X128556358Y-65141117D01*
X128817837Y-65098532D01*
X128744003Y-65209033D01*
X128643467Y-65478646D01*
X128607651Y-65764157D01*
X128638479Y-66050250D01*
X128734295Y-66321578D01*
X128889959Y-66563586D01*
X129097122Y-66763292D01*
X129344672Y-66909983D01*
X129619328Y-66995793D01*
X129906358Y-67016116D01*
X130190366Y-66969862D01*
X130456115Y-66859513D01*
X130689350Y-66690989D01*
X130843968Y-66512178D01*
X163406770Y-66512178D01*
X163437013Y-66872332D01*
X163508450Y-67226624D01*
X163620136Y-67570357D01*
X163770589Y-67898975D01*
X163957816Y-68208123D01*
X164232167Y-68561813D01*
X166363981Y-66430000D01*
X164239658Y-64305678D01*
X164074569Y-64492935D01*
X163868301Y-64789717D01*
X163697511Y-65108239D01*
X163564463Y-65444281D01*
X163470920Y-65793388D01*
X163418122Y-66150934D01*
X163406770Y-66512178D01*
X130843968Y-66512178D01*
X130877561Y-66473329D01*
X131010651Y-66218209D01*
X131081606Y-65938828D01*
X131084277Y-65632690D01*
X131018210Y-65352113D01*
X130889592Y-65094709D01*
X130759000Y-64938246D01*
X130759000Y-50770174D01*
X130763465Y-50663652D01*
X130744819Y-50584155D01*
X130733738Y-50503255D01*
X130716502Y-50463427D01*
X130705515Y-50416578D01*
X130677684Y-50373722D01*
X130634829Y-50274691D01*
X130478097Y-50081144D01*
X130438580Y-50053061D01*
X127631544Y-47246026D01*
X127634265Y-47051230D01*
X127567763Y-46758519D01*
X127438448Y-46488618D01*
X127252551Y-46254075D01*
X127019312Y-46066547D01*
X126750321Y-45935350D01*
X126458949Y-45867010D01*
X126159678Y-45864920D01*
X125867380Y-45929186D01*
X125596584Y-46056613D01*
X125471239Y-46154544D01*
X125421204Y-46114315D01*
X126908462Y-44627057D01*
X126986975Y-44554860D01*
X127030008Y-44485456D01*
X127079371Y-44420424D01*
X127095344Y-44380080D01*
X127120705Y-44339176D01*
X127131330Y-44289191D01*
X127171052Y-44188865D01*
X127197084Y-43941180D01*
X127189000Y-43893383D01*
X127189000Y-43838894D01*
X127359512Y-43793205D01*
X127535165Y-43645815D01*
X127646956Y-43452186D01*
X127683837Y-43243024D01*
X127683837Y-41691412D01*
X127603205Y-41390489D01*
X127455815Y-41214835D01*
X127262186Y-41103044D01*
X127053024Y-41066163D01*
X125501412Y-41066163D01*
X125200489Y-41146795D01*
X125024835Y-41294185D01*
X124913044Y-41487814D01*
X124882738Y-41659688D01*
X124826472Y-41564547D01*
X123921019Y-42470000D01*
X124819309Y-43368290D01*
X124882680Y-43272909D01*
X124956795Y-43549512D01*
X125104185Y-43725165D01*
X125189855Y-43774626D01*
X123048245Y-45916237D01*
X122859678Y-45914920D01*
X122567380Y-45979186D01*
X122296584Y-46106613D01*
X122060749Y-46290868D01*
X121871595Y-46522793D01*
X121738525Y-46790861D01*
X121668153Y-47081749D01*
X121663974Y-47380999D01*
X121726198Y-47673738D01*
X121851730Y-47945417D01*
X122034335Y-48182533D01*
X122264933Y-48373301D01*
X122532066Y-48508238D01*
X122822454Y-48580640D01*
X123121668Y-48586908D01*
X123414834Y-48526730D01*
X123687383Y-48403097D01*
X123771851Y-48338982D01*
X123771852Y-52197331D01*
X120671064Y-49096544D01*
X120598864Y-49018026D01*
X120529455Y-48974990D01*
X120464425Y-48925630D01*
X120424087Y-48909658D01*
X120383177Y-48884295D01*
X120333190Y-48873670D01*
X120232867Y-48833949D01*
X119985183Y-48807917D01*
X119937386Y-48816001D01*
X111686124Y-48816001D01*
X111680397Y-48812450D01*
X111615371Y-48763093D01*
X111575033Y-48747121D01*
X111534123Y-48721758D01*
X111484136Y-48711133D01*
X111383813Y-48671412D01*
X111151708Y-48647017D01*
X111127551Y-48616539D01*
X110894312Y-48429011D01*
X110625321Y-48297814D01*
X110333949Y-48229474D01*
X110034678Y-48227384D01*
X109742380Y-48291650D01*
X109471584Y-48419077D01*
X109235749Y-48603332D01*
X109046595Y-48835257D01*
X108923980Y-49082263D01*
X108858949Y-49067010D01*
X108559678Y-49064920D01*
X108267380Y-49129186D01*
X107996584Y-49256613D01*
X107760749Y-49440868D01*
X107571595Y-49672793D01*
X107438525Y-49940861D01*
X107368153Y-50231749D01*
X107363974Y-50530999D01*
X107426198Y-50823738D01*
X107443433Y-50861039D01*
X107346584Y-50906613D01*
X107110749Y-51090868D01*
X106921595Y-51322793D01*
X106902259Y-51361746D01*
X106727199Y-51320686D01*
X106427928Y-51318596D01*
X106135630Y-51382862D01*
X105864834Y-51510289D01*
X105628999Y-51694544D01*
X105439845Y-51926469D01*
X105306775Y-52194537D01*
X105236403Y-52485425D01*
X105232224Y-52784675D01*
X105294448Y-53077414D01*
X105419980Y-53349093D01*
X105602585Y-53586209D01*
X105833183Y-53776977D01*
X106100316Y-53911914D01*
X106390704Y-53984316D01*
X106617566Y-53989068D01*
X106683389Y-54060650D01*
X106752790Y-54103681D01*
X106817826Y-54153046D01*
X106858169Y-54169019D01*
X106899074Y-54194381D01*
X106949061Y-54205006D01*
X107049384Y-54244727D01*
X107297069Y-54270759D01*
X107344866Y-54262675D01*
X121527157Y-54262675D01*
X124580595Y-57316114D01*
X124501077Y-57315559D01*
X121955749Y-54770231D01*
X121883549Y-54691713D01*
X121814140Y-54648677D01*
X121749110Y-54599317D01*
X121708772Y-54583345D01*
X121667862Y-54557982D01*
X121617875Y-54547357D01*
X121517552Y-54507636D01*
X121269868Y-54481604D01*
X121222071Y-54489688D01*
X106283130Y-54489688D01*
X106253863Y-54452763D01*
X106020624Y-54265235D01*
X105751633Y-54134038D01*
X105460261Y-54065698D01*
X105160990Y-54063608D01*
X104868692Y-54127874D01*
X104597896Y-54255301D01*
X104362061Y-54439556D01*
X104172907Y-54671481D01*
X104039837Y-54939549D01*
X103969465Y-55230437D01*
X103965286Y-55529687D01*
X101268011Y-55529687D01*
X101217763Y-55308519D01*
X101088448Y-55038618D01*
X100902551Y-54804075D01*
X100669312Y-54616547D01*
X100400321Y-54485350D01*
X100108949Y-54417010D01*
X99809678Y-54414920D01*
X99517380Y-54479186D01*
X99246584Y-54606613D01*
X99010749Y-54790868D01*
X98821595Y-55022793D01*
X98688525Y-55290861D01*
X98618153Y-55581749D01*
X98613974Y-55880999D01*
X98676198Y-56173738D01*
X98692104Y-56208163D01*
X98533412Y-56208163D01*
X98300744Y-56270506D01*
X98174950Y-56176229D01*
X97911168Y-56061259D01*
X97628010Y-56010056D01*
X97340670Y-56025366D01*
X97064557Y-56106369D01*
X96814485Y-56248718D01*
X96603868Y-56444779D01*
X96444003Y-56684034D01*
X96343467Y-56953647D01*
X96307651Y-57239158D01*
X96338479Y-57525251D01*
X96434295Y-57796579D01*
X96589959Y-58038587D01*
X96797122Y-58238293D01*
X97044672Y-58384984D01*
X97319328Y-58470794D01*
X97606358Y-58491117D01*
X97890366Y-58444863D01*
X97949367Y-58420364D01*
X97988795Y-58567512D01*
X98052589Y-58643539D01*
X97945044Y-58829813D01*
X97934148Y-58891608D01*
X97912365Y-58894728D01*
X97824015Y-58900209D01*
X97791090Y-58912096D01*
X97756432Y-58917059D01*
X97675848Y-58953699D01*
X97648150Y-58963698D01*
X97628009Y-58960056D01*
X97340670Y-58975366D01*
X97064557Y-59056369D01*
X96814485Y-59198718D01*
X96603868Y-59394779D01*
X96444003Y-59634034D01*
X96343467Y-59903647D01*
X96307651Y-60189158D01*
X96338479Y-60475251D01*
X96434295Y-60746579D01*
X96589959Y-60988587D01*
X96797122Y-61188293D01*
X97044672Y-61334984D01*
X97319328Y-61420794D01*
X97606358Y-61441117D01*
X97890366Y-61394863D01*
X98156115Y-61284514D01*
X98389350Y-61115990D01*
X98427267Y-61072140D01*
X98538976Y-61091837D01*
X99392644Y-61091837D01*
X98618483Y-61865999D01*
X96037367Y-61865999D01*
X95930845Y-61861534D01*
X95851348Y-61880179D01*
X95770449Y-61891261D01*
X95730628Y-61908493D01*
X95683770Y-61919484D01*
X95640910Y-61947318D01*
X95582586Y-61972557D01*
X95558949Y-61967013D01*
X95259678Y-61964923D01*
X94967380Y-62029189D01*
X94696584Y-62156616D01*
X94460749Y-62340871D01*
X94271595Y-62572796D01*
X94138525Y-62840864D01*
X94068153Y-63131752D01*
X94063974Y-63431002D01*
X93533999Y-63431002D01*
X93533999Y-55417762D01*
X93542920Y-55349998D01*
X93533999Y-55282234D01*
X93533999Y-55282228D01*
X93507385Y-55080070D01*
X93410096Y-54845197D01*
X93403195Y-54828536D01*
X93287523Y-54677791D01*
X93266199Y-54650000D01*
X93372958Y-54510869D01*
X93403196Y-54471463D01*
X93436493Y-54391076D01*
X93507385Y-54219929D01*
X93533999Y-54017772D01*
X93533999Y-54017766D01*
X93542920Y-53950002D01*
X93533999Y-53882238D01*
X93533999Y-46728165D01*
X93616311Y-46553242D01*
X93682982Y-46259793D01*
X93683770Y-46034000D01*
X93872000Y-46034000D01*
X93872000Y-44928000D01*
X94128000Y-44928000D01*
X94128000Y-46034000D01*
X94333811Y-46034000D01*
X94509405Y-46017247D01*
X94735352Y-45950961D01*
X94944688Y-45843146D01*
X95129860Y-45697692D01*
X95284186Y-45519846D01*
X95402099Y-45316027D01*
X95479344Y-45093585D01*
X95503346Y-44928000D01*
X94128000Y-44928000D01*
X93872000Y-44928000D01*
X93043818Y-44928000D01*
X92817003Y-44807400D01*
X92527375Y-44726536D01*
X92227140Y-44709749D01*
X92155626Y-44721332D01*
X92181921Y-44575190D01*
X92199329Y-44021263D01*
X92157560Y-43660262D01*
X92075029Y-43308389D01*
X91952601Y-42968333D01*
X91791900Y-42644604D01*
X91661340Y-42443558D01*
X92485776Y-42443558D01*
X92485776Y-43160976D01*
X92562691Y-43514549D01*
X92702618Y-43732279D01*
X92885195Y-43890483D01*
X92870140Y-43902308D01*
X92715814Y-44080154D01*
X92597901Y-44283973D01*
X92520656Y-44506415D01*
X92496654Y-44672000D01*
X95513489Y-44672000D01*
X95447075Y-44396422D01*
X95349615Y-44182069D01*
X95213380Y-43990012D01*
X95106157Y-43887369D01*
X95207279Y-43822382D01*
X95373745Y-43630270D01*
X95479343Y-43399042D01*
X95514224Y-43156442D01*
X95514224Y-42439024D01*
X95437309Y-42085451D01*
X95297382Y-41867721D01*
X95105270Y-41701255D01*
X94874042Y-41595657D01*
X94631442Y-41560776D01*
X93364024Y-41560776D01*
X93010451Y-41637691D01*
X92792721Y-41777618D01*
X92626255Y-41969730D01*
X92520657Y-42200958D01*
X92485776Y-42443558D01*
X91661340Y-42443558D01*
X91595056Y-42341489D01*
X91372977Y-42073043D01*
X86936672Y-46509348D01*
X86534000Y-46509348D01*
X86534000Y-46050555D01*
X86752167Y-46331813D01*
X88883981Y-44200000D01*
X86759658Y-42075678D01*
X86594569Y-42262935D01*
X86534000Y-42350083D01*
X86534000Y-41895049D01*
X86941068Y-41895049D01*
X89065000Y-44018981D01*
X91198932Y-41885048D01*
X90815933Y-41594337D01*
X90504842Y-41410358D01*
X90174666Y-41263354D01*
X89829782Y-41155275D01*
X89474762Y-41087550D01*
X89114310Y-41061081D01*
X88753205Y-41076216D01*
X88396233Y-41132755D01*
X88048124Y-41229948D01*
X87713494Y-41366508D01*
X87396778Y-41540624D01*
X87102172Y-41749989D01*
X86941068Y-41895049D01*
X86534000Y-41895049D01*
X86534000Y-38934000D01*
X119741571Y-38934000D01*
X119688525Y-39040861D01*
X119618153Y-39331749D01*
X119613974Y-39630999D01*
X119676198Y-39923738D01*
X119801730Y-40195417D01*
X119984335Y-40432533D01*
X120166001Y-40582820D01*
X120166000Y-41524208D01*
X120163308Y-41526683D01*
X120012645Y-41725173D01*
X119931634Y-41884167D01*
X119925094Y-41866581D01*
X119798244Y-41652089D01*
X119635414Y-41463449D01*
X119441754Y-41306627D01*
X119223384Y-41186576D01*
X118987205Y-41107093D01*
X118740684Y-41070690D01*
X118491612Y-41078517D01*
X118247863Y-41130328D01*
X118017141Y-41224484D01*
X117806739Y-41358009D01*
X117623308Y-41526683D01*
X117472645Y-41725173D01*
X117391634Y-41884167D01*
X117385094Y-41866581D01*
X117258244Y-41652089D01*
X117095414Y-41463449D01*
X116901754Y-41306627D01*
X116683384Y-41186576D01*
X116447205Y-41107093D01*
X116200684Y-41070690D01*
X115951612Y-41078517D01*
X115707863Y-41130328D01*
X115477141Y-41224484D01*
X115266739Y-41358009D01*
X115083308Y-41526683D01*
X115057260Y-41561000D01*
X110250173Y-41561000D01*
X110143651Y-41556535D01*
X110064154Y-41575180D01*
X109983255Y-41586262D01*
X109943427Y-41603498D01*
X109896578Y-41614485D01*
X109853722Y-41642316D01*
X109754691Y-41685171D01*
X109561144Y-41841903D01*
X109533058Y-41881423D01*
X102298245Y-49116237D01*
X102109678Y-49114920D01*
X101817380Y-49179186D01*
X101546584Y-49306613D01*
X101310749Y-49490868D01*
X101121595Y-49722793D01*
X100988525Y-49990861D01*
X100918153Y-50281749D01*
X100913974Y-50580999D01*
X100976198Y-50873738D01*
X101101730Y-51145417D01*
X101284335Y-51382533D01*
X101514933Y-51573301D01*
X101782066Y-51708238D01*
X102072454Y-51780640D01*
X102371668Y-51786908D01*
X102664834Y-51726730D01*
X102937383Y-51603097D01*
X103175768Y-51422152D01*
X103186468Y-51409400D01*
X103270784Y-51479152D01*
X103537917Y-51614089D01*
X103828305Y-51686491D01*
X104127519Y-51692759D01*
X104420685Y-51632581D01*
X104693234Y-51508948D01*
X104931619Y-51328003D01*
X105123992Y-51098743D01*
X105260792Y-50832558D01*
X105335441Y-50541819D01*
X105338699Y-50308522D01*
X110638221Y-45009000D01*
X117009826Y-45009000D01*
X117116348Y-45013465D01*
X117195846Y-44994819D01*
X117276743Y-44983738D01*
X117316574Y-44966503D01*
X117363422Y-44955514D01*
X117406276Y-44927684D01*
X117505309Y-44884829D01*
X117698856Y-44728097D01*
X117726941Y-44688578D01*
X118553468Y-43862052D01*
X118667339Y-43871615D01*
X118915428Y-43848164D01*
X119155442Y-43781150D01*
X119379796Y-43672693D01*
X119581399Y-43526221D01*
X119753878Y-43346362D01*
X119891780Y-43138802D01*
X119930119Y-43050206D01*
X119975291Y-43151664D01*
X120115360Y-43357768D01*
X120289711Y-43535811D01*
X120291001Y-43536728D01*
X120291001Y-43873479D01*
X118648588Y-45515893D01*
X118514937Y-45514960D01*
X118233595Y-45576817D01*
X117972949Y-45699468D01*
X117745953Y-45876817D01*
X117563889Y-46100049D01*
X117435807Y-46358069D01*
X117368072Y-46638054D01*
X117364050Y-46926088D01*
X117423941Y-47207854D01*
X117544769Y-47469351D01*
X117720529Y-47697579D01*
X117942484Y-47881196D01*
X118199605Y-48011077D01*
X118479109Y-48080765D01*
X118767108Y-48086798D01*
X119049286Y-48028876D01*
X119311619Y-47909876D01*
X119541069Y-47735714D01*
X119726232Y-47515046D01*
X119857905Y-47258839D01*
X119929764Y-46978963D01*
X119932217Y-46803300D01*
X121828469Y-44907049D01*
X121906975Y-44834859D01*
X121950006Y-44765458D01*
X121999371Y-44700422D01*
X122015345Y-44660076D01*
X122040705Y-44619175D01*
X122051329Y-44569192D01*
X122091053Y-44468863D01*
X122117084Y-44221178D01*
X122109000Y-44173381D01*
X122109000Y-43546403D01*
X122844616Y-43546403D01*
X123032837Y-43680164D01*
X123258315Y-43786266D01*
X123499019Y-43850762D01*
X123747339Y-43871615D01*
X123995428Y-43848164D01*
X124235442Y-43781150D01*
X124459796Y-43672693D01*
X124634643Y-43545662D01*
X123740000Y-42651019D01*
X122844616Y-43546403D01*
X122109000Y-43546403D01*
X122109000Y-43535229D01*
X122121399Y-43526220D01*
X122293878Y-43346362D01*
X122431780Y-43138802D01*
X122470119Y-43050206D01*
X122515291Y-43151664D01*
X122661773Y-43367208D01*
X123558981Y-42470000D01*
X122665487Y-41576506D01*
X122552645Y-41725175D01*
X122471634Y-41884167D01*
X122465094Y-41866581D01*
X122338244Y-41652089D01*
X122234000Y-41531321D01*
X122234000Y-41388179D01*
X122839198Y-41388179D01*
X123740000Y-42288981D01*
X124651194Y-41377786D01*
X124303384Y-41186576D01*
X124067205Y-41107093D01*
X123820684Y-41070690D01*
X123571612Y-41078517D01*
X123327863Y-41130328D01*
X123097142Y-41224484D01*
X122839198Y-41388179D01*
X122234000Y-41388179D01*
X122234000Y-39863527D01*
X122279590Y-39685967D01*
X122284265Y-39351230D01*
X122217763Y-39058519D01*
X122158103Y-38934000D01*
X135566751Y-38934000D01*
X135538525Y-38990861D01*
X135468153Y-39281749D01*
X135465114Y-39499367D01*
X132171531Y-42792951D01*
X132093026Y-42865139D01*
X132049993Y-42934544D01*
X132000629Y-42999579D01*
X131984656Y-43039922D01*
X131959295Y-43080824D01*
X131948671Y-43130809D01*
X131908948Y-43231136D01*
X131882916Y-43478820D01*
X131891001Y-43526623D01*
X131891000Y-50142233D01*
X131860748Y-50165868D01*
X131671595Y-50397793D01*
X131538525Y-50665861D01*
X131468153Y-50956749D01*
X131463974Y-51255999D01*
X131526198Y-51548738D01*
X131651730Y-51820417D01*
X131834335Y-52057533D01*
X132064933Y-52248301D01*
X132332066Y-52383238D01*
X132622454Y-52455640D01*
X132921668Y-52461908D01*
X133214834Y-52401730D01*
X133487383Y-52278097D01*
X133725768Y-52097152D01*
X133918141Y-51867892D01*
X134054941Y-51601707D01*
X134129590Y-51310967D01*
X134134265Y-50976230D01*
X134067763Y-50683519D01*
X133938448Y-50413618D01*
X133752552Y-50179075D01*
X133709000Y-50144058D01*
X133709000Y-48630999D01*
X133963974Y-48630999D01*
X134026198Y-48923738D01*
X134151730Y-49195417D01*
X134266000Y-49343798D01*
X134266001Y-52783966D01*
X134218153Y-52981749D01*
X134213974Y-53280999D01*
X134276198Y-53573738D01*
X134401730Y-53845417D01*
X134584335Y-54082533D01*
X134814933Y-54273301D01*
X135082066Y-54408238D01*
X135372454Y-54480640D01*
X135671668Y-54486908D01*
X135964834Y-54426730D01*
X136237383Y-54303097D01*
X136475768Y-54122152D01*
X136668141Y-53892892D01*
X136804941Y-53626707D01*
X136879590Y-53335967D01*
X136884265Y-53001230D01*
X136817763Y-52708519D01*
X136688448Y-52438618D01*
X136502552Y-52204075D01*
X136334000Y-52068556D01*
X136334000Y-49343167D01*
X136418141Y-49242892D01*
X136554941Y-48976707D01*
X136629590Y-48685967D01*
X136634265Y-48351230D01*
X136567763Y-48058519D01*
X136438448Y-47788618D01*
X136252551Y-47554075D01*
X136019312Y-47366547D01*
X135750321Y-47235350D01*
X135458949Y-47167010D01*
X135159678Y-47164920D01*
X134867380Y-47229186D01*
X134596584Y-47356613D01*
X134360749Y-47540868D01*
X134171595Y-47772793D01*
X134038525Y-48040861D01*
X133968153Y-48331749D01*
X133963974Y-48630999D01*
X133709000Y-48630999D01*
X133709000Y-43826518D01*
X134557518Y-42978000D01*
X137858163Y-42978000D01*
X137858163Y-44116588D01*
X137938795Y-44417512D01*
X138086185Y-44593165D01*
X138279814Y-44704956D01*
X138488976Y-44741837D01*
X139022000Y-44741837D01*
X139022000Y-42978000D01*
X137858163Y-42978000D01*
X134557518Y-42978000D01*
X135946542Y-41588976D01*
X137858163Y-41588976D01*
X137858163Y-42722000D01*
X139022000Y-42722000D01*
X139022000Y-40958163D01*
X138483412Y-40958163D01*
X138182489Y-41038795D01*
X138006835Y-41186185D01*
X137895044Y-41379814D01*
X137858163Y-41588976D01*
X135946542Y-41588976D01*
X136752162Y-40783357D01*
X136921668Y-40786908D01*
X137214834Y-40726730D01*
X137487383Y-40603097D01*
X137725768Y-40422152D01*
X137918141Y-40192892D01*
X138054941Y-39926707D01*
X138129590Y-39635967D01*
X138134265Y-39301230D01*
X138067763Y-39008519D01*
X138032060Y-38934000D01*
X143180481Y-38934000D01*
X141156319Y-40958163D01*
X140483412Y-40958163D01*
X140182489Y-41038795D01*
X140147221Y-41068388D01*
X140020186Y-40995044D01*
X139811024Y-40958163D01*
X139278000Y-40958163D01*
X139278000Y-44741837D01*
X139816588Y-44741837D01*
X140117512Y-44661205D01*
X140152779Y-44631612D01*
X140241000Y-44682547D01*
X140241001Y-52423479D01*
X135348245Y-57316237D01*
X135159678Y-57314920D01*
X134867380Y-57379186D01*
X134596584Y-57506613D01*
X134360749Y-57690868D01*
X134171595Y-57922793D01*
X134038525Y-58190861D01*
X133968153Y-58481749D01*
X133963974Y-58780999D01*
X134026198Y-59073738D01*
X134151730Y-59345417D01*
X134334335Y-59582533D01*
X134564933Y-59773301D01*
X134832066Y-59908238D01*
X135122454Y-59980640D01*
X135421668Y-59986908D01*
X135714834Y-59926730D01*
X135987383Y-59803097D01*
X136225768Y-59622152D01*
X136418141Y-59392892D01*
X136554941Y-59126707D01*
X136629590Y-58835968D01*
X136632848Y-58602671D01*
X137948781Y-57286738D01*
X137895044Y-57379814D01*
X137858163Y-57588976D01*
X137858163Y-60116588D01*
X137938795Y-60417512D01*
X138086185Y-60593165D01*
X138279814Y-60704956D01*
X138488976Y-60741837D01*
X139816588Y-60741837D01*
X140117512Y-60661205D01*
X140152779Y-60631612D01*
X140279814Y-60704956D01*
X140488976Y-60741837D01*
X141816588Y-60741837D01*
X142117512Y-60661205D01*
X142152779Y-60631612D01*
X142241000Y-60682547D01*
X142241000Y-61265837D01*
X142109678Y-61264920D01*
X141817380Y-61329186D01*
X141546584Y-61456613D01*
X141310749Y-61640868D01*
X141121595Y-61872793D01*
X140988525Y-62140861D01*
X140918153Y-62431749D01*
X140913974Y-62730999D01*
X140976198Y-63023738D01*
X141101730Y-63295417D01*
X141284335Y-63532533D01*
X141514933Y-63723301D01*
X141782066Y-63858238D01*
X142072454Y-63930640D01*
X142371668Y-63936908D01*
X142664834Y-63876730D01*
X142937383Y-63753097D01*
X143175768Y-63572152D01*
X143368141Y-63342892D01*
X143504941Y-63076707D01*
X143579590Y-62785968D01*
X143582848Y-62552671D01*
X143778462Y-62357057D01*
X143856975Y-62284860D01*
X143900008Y-62215456D01*
X143949371Y-62150424D01*
X143965344Y-62110080D01*
X143990705Y-62069176D01*
X144001330Y-62019191D01*
X144041052Y-61918865D01*
X144067084Y-61671180D01*
X144059000Y-61623383D01*
X144059000Y-60676883D01*
X144116001Y-60661610D01*
X144116001Y-60832229D01*
X144107079Y-60900000D01*
X144117079Y-60975959D01*
X144142615Y-61169929D01*
X144170292Y-61236747D01*
X144246803Y-61421461D01*
X144314275Y-61509393D01*
X144313974Y-61530999D01*
X144376198Y-61823738D01*
X144501730Y-62095417D01*
X144684335Y-62332533D01*
X144914933Y-62523301D01*
X145182066Y-62658238D01*
X145472454Y-62730640D01*
X145771668Y-62736908D01*
X146064834Y-62676730D01*
X146118473Y-62652398D01*
X146110776Y-62705930D01*
X146110776Y-63198604D01*
X146186550Y-63546931D01*
X146324533Y-63761638D01*
X146513929Y-63925750D01*
X146741888Y-64029854D01*
X146980930Y-64064224D01*
X147573604Y-64064224D01*
X147921931Y-63988450D01*
X148136638Y-63850467D01*
X148153967Y-63830468D01*
X148263929Y-63925750D01*
X148491888Y-64029854D01*
X148730930Y-64064224D01*
X148897000Y-64064224D01*
X148897000Y-63078000D01*
X149153000Y-63078000D01*
X149153000Y-64064224D01*
X149323604Y-64064224D01*
X149671931Y-63988450D01*
X149886638Y-63850467D01*
X150050750Y-63661071D01*
X150154854Y-63433112D01*
X150205913Y-63078000D01*
X149153000Y-63078000D01*
X148897000Y-63078000D01*
X148897000Y-62822000D01*
X150215459Y-62822000D01*
X150113450Y-62353070D01*
X149997455Y-62172576D01*
X150050750Y-62111071D01*
X150154854Y-61883112D01*
X150205913Y-61528000D01*
X148897000Y-61528000D01*
X148897000Y-61272000D01*
X150215459Y-61272000D01*
X150113450Y-60803070D01*
X150036270Y-60682974D01*
X150117512Y-60661205D01*
X150152779Y-60631612D01*
X150279814Y-60704956D01*
X150488976Y-60741837D01*
X151022000Y-60741837D01*
X151022000Y-56958163D01*
X151278000Y-56958163D01*
X151278000Y-60741837D01*
X151816588Y-60741837D01*
X152117512Y-60661205D01*
X152152779Y-60631612D01*
X152279814Y-60704956D01*
X152488976Y-60741837D01*
X153816588Y-60741837D01*
X154117512Y-60661205D01*
X154293165Y-60513815D01*
X154328276Y-60453000D01*
X156183163Y-60453000D01*
X156183163Y-60866588D01*
X156263795Y-61167512D01*
X156411185Y-61343165D01*
X156604814Y-61454956D01*
X156813976Y-61491837D01*
X157797000Y-61491837D01*
X157797000Y-60453000D01*
X158053000Y-60453000D01*
X158053000Y-61491837D01*
X159041588Y-61491837D01*
X159342512Y-61411205D01*
X159518165Y-61263815D01*
X159629956Y-61070186D01*
X159666837Y-60861024D01*
X159666837Y-60453000D01*
X158053000Y-60453000D01*
X157797000Y-60453000D01*
X156183163Y-60453000D01*
X154328276Y-60453000D01*
X154404956Y-60320186D01*
X154441837Y-60111024D01*
X154441837Y-59984000D01*
X155819529Y-59984000D01*
X155863976Y-59991837D01*
X156183163Y-59991837D01*
X156183163Y-60197000D01*
X157797000Y-60197000D01*
X157797000Y-59158163D01*
X158053000Y-59158163D01*
X158053000Y-60197000D01*
X159666837Y-60197000D01*
X159666837Y-59783412D01*
X159586205Y-59482489D01*
X159438815Y-59306835D01*
X159245186Y-59195044D01*
X159036024Y-59158163D01*
X158053000Y-59158163D01*
X157797000Y-59158163D01*
X157566837Y-59158163D01*
X157566837Y-58541837D01*
X157797000Y-58541837D01*
X157797000Y-57503000D01*
X158053000Y-57503000D01*
X158053000Y-58541837D01*
X159041588Y-58541837D01*
X159342512Y-58461205D01*
X159518165Y-58313815D01*
X159629956Y-58120186D01*
X159666837Y-57911024D01*
X159666837Y-57503000D01*
X158053000Y-57503000D01*
X157797000Y-57503000D01*
X156183163Y-57503000D01*
X156183163Y-57708163D01*
X155858412Y-57708163D01*
X155829163Y-57716000D01*
X154441837Y-57716000D01*
X154441837Y-57583412D01*
X154361205Y-57282489D01*
X154213815Y-57106835D01*
X154020186Y-56995044D01*
X153811024Y-56958163D01*
X152483412Y-56958163D01*
X152182489Y-57038795D01*
X152147221Y-57068388D01*
X152020186Y-56995044D01*
X151811024Y-56958163D01*
X151278000Y-56958163D01*
X151022000Y-56958163D01*
X150483412Y-56958163D01*
X150182489Y-57038795D01*
X150147221Y-57068388D01*
X150020186Y-56995044D01*
X149811024Y-56958163D01*
X148483412Y-56958163D01*
X148182489Y-57038795D01*
X148147221Y-57068388D01*
X148020186Y-56995044D01*
X147927521Y-56978705D01*
X147979941Y-56876707D01*
X147989628Y-56838976D01*
X156183163Y-56838976D01*
X156183163Y-57247000D01*
X157797000Y-57247000D01*
X157797000Y-56208163D01*
X158053000Y-56208163D01*
X158053000Y-57247000D01*
X159666837Y-57247000D01*
X159666837Y-56833412D01*
X159586205Y-56532489D01*
X159438815Y-56356835D01*
X159245186Y-56245044D01*
X159036024Y-56208163D01*
X158053000Y-56208163D01*
X157797000Y-56208163D01*
X156808412Y-56208163D01*
X156507489Y-56288795D01*
X156331835Y-56436185D01*
X156220044Y-56629814D01*
X156183163Y-56838976D01*
X147989628Y-56838976D01*
X148054590Y-56585967D01*
X148059265Y-56251230D01*
X147992763Y-55958519D01*
X147863448Y-55688618D01*
X147677552Y-55454075D01*
X147559000Y-55358757D01*
X147559000Y-49634880D01*
X147575768Y-49622152D01*
X147768141Y-49392892D01*
X147904941Y-49126707D01*
X147979590Y-48835967D01*
X147984265Y-48501230D01*
X147917763Y-48208519D01*
X147788448Y-47938618D01*
X147602551Y-47704075D01*
X147369312Y-47516547D01*
X147100321Y-47385350D01*
X146808949Y-47317010D01*
X146509678Y-47314920D01*
X146217380Y-47379186D01*
X145946584Y-47506613D01*
X145710749Y-47690868D01*
X145521595Y-47922793D01*
X145388525Y-48190861D01*
X145318410Y-48480688D01*
X145108595Y-48526818D01*
X144847949Y-48649469D01*
X144620953Y-48826818D01*
X144438889Y-49050050D01*
X144310807Y-49308070D01*
X144243072Y-49588055D01*
X144239050Y-49876089D01*
X144298941Y-50157855D01*
X144419769Y-50419352D01*
X144595529Y-50647580D01*
X144616000Y-50664515D01*
X144616001Y-56958163D01*
X144483412Y-56958163D01*
X144182489Y-57038795D01*
X144147221Y-57068388D01*
X144020186Y-56995044D01*
X143811024Y-56958163D01*
X142483412Y-56958163D01*
X142182489Y-57038795D01*
X142147221Y-57068388D01*
X142020186Y-56995044D01*
X141811024Y-56958163D01*
X140483412Y-56958163D01*
X140182489Y-57038795D01*
X140147221Y-57068388D01*
X140020186Y-56995044D01*
X139811024Y-56958163D01*
X138483412Y-56958163D01*
X138201934Y-57033585D01*
X141778469Y-53457050D01*
X141856976Y-53384860D01*
X141900008Y-53315455D01*
X141949371Y-53250424D01*
X141965344Y-53210080D01*
X141990705Y-53169176D01*
X142001330Y-53119191D01*
X142041052Y-53018865D01*
X142067084Y-52771180D01*
X142059000Y-52723383D01*
X142059000Y-46509348D01*
X164416672Y-46509348D01*
X164713086Y-46749379D01*
X165018244Y-46943038D01*
X165343640Y-47100341D01*
X165684958Y-47219201D01*
X166037676Y-47298042D01*
X166397119Y-47335821D01*
X166758521Y-47332037D01*
X167117093Y-47286738D01*
X167468083Y-47200527D01*
X167806837Y-47074545D01*
X168128867Y-46910463D01*
X168429903Y-46710455D01*
X168670833Y-46506853D01*
X166545000Y-44381019D01*
X164416672Y-46509348D01*
X142059000Y-46509348D01*
X142059000Y-45092828D01*
X142076198Y-45173738D01*
X142201730Y-45445417D01*
X142384335Y-45682533D01*
X142614933Y-45873301D01*
X142882066Y-46008238D01*
X143172454Y-46080640D01*
X143471668Y-46086908D01*
X143764834Y-46026730D01*
X144037383Y-45903097D01*
X144275768Y-45722152D01*
X144397210Y-45577424D01*
X144451730Y-45695417D01*
X144634335Y-45932533D01*
X144864933Y-46123301D01*
X145132066Y-46258238D01*
X145422454Y-46330640D01*
X145721668Y-46336908D01*
X146014834Y-46276730D01*
X146287383Y-46153097D01*
X146525768Y-45972152D01*
X146718141Y-45742892D01*
X146854941Y-45476707D01*
X146929590Y-45185967D01*
X146934265Y-44851230D01*
X146909412Y-44741837D01*
X147816588Y-44741837D01*
X148117512Y-44661205D01*
X148152779Y-44631612D01*
X148279814Y-44704956D01*
X148488976Y-44741837D01*
X149816588Y-44741837D01*
X150117512Y-44661205D01*
X150152779Y-44631612D01*
X150279814Y-44704956D01*
X150488976Y-44741837D01*
X151816588Y-44741837D01*
X152117512Y-44661205D01*
X152152779Y-44631612D01*
X152279814Y-44704956D01*
X152488976Y-44741837D01*
X153022000Y-44741837D01*
X153022000Y-42978000D01*
X153278000Y-42978000D01*
X153278000Y-44741837D01*
X153816588Y-44741837D01*
X154117512Y-44661205D01*
X154293165Y-44513815D01*
X154404956Y-44320186D01*
X154411657Y-44282178D01*
X163406770Y-44282178D01*
X163437013Y-44642332D01*
X163508450Y-44996624D01*
X163620136Y-45340357D01*
X163770589Y-45668975D01*
X163957816Y-45978123D01*
X164232167Y-46331813D01*
X166363981Y-44200000D01*
X164239658Y-42075678D01*
X164074569Y-42262935D01*
X163868301Y-42559717D01*
X163697511Y-42878239D01*
X163564463Y-43214281D01*
X163470920Y-43563388D01*
X163418122Y-43920934D01*
X163406770Y-44282178D01*
X154411657Y-44282178D01*
X154441837Y-44111024D01*
X154441837Y-42978000D01*
X153278000Y-42978000D01*
X153022000Y-42978000D01*
X153022000Y-40958163D01*
X153278000Y-40958163D01*
X153278000Y-42722000D01*
X154441837Y-42722000D01*
X154441837Y-41895049D01*
X164421068Y-41895049D01*
X166545000Y-44018981D01*
X168678932Y-41885048D01*
X168295933Y-41594337D01*
X167984842Y-41410358D01*
X167654666Y-41263354D01*
X167309782Y-41155275D01*
X166954762Y-41087550D01*
X166594310Y-41061081D01*
X166233205Y-41076216D01*
X165876233Y-41132755D01*
X165528124Y-41229948D01*
X165193494Y-41366508D01*
X164876778Y-41540624D01*
X164582172Y-41749989D01*
X164421068Y-41895049D01*
X154441837Y-41895049D01*
X154441837Y-41583412D01*
X154361205Y-41282489D01*
X154213815Y-41106835D01*
X154020186Y-40995044D01*
X153811024Y-40958163D01*
X153278000Y-40958163D01*
X153022000Y-40958163D01*
X152483412Y-40958163D01*
X152182489Y-41038795D01*
X152147221Y-41068388D01*
X152020186Y-40995044D01*
X151925606Y-40978367D01*
X152054941Y-40726707D01*
X152129590Y-40435967D01*
X152134265Y-40101230D01*
X152067763Y-39808519D01*
X151938448Y-39538618D01*
X151752551Y-39304075D01*
X151519312Y-39116547D01*
X151250321Y-38985350D01*
X151031387Y-38934000D01*
X169116001Y-38934000D01*
X169116001Y-42404539D01*
X169075056Y-42341489D01*
X168852977Y-42073043D01*
X166726019Y-44200000D01*
X168849907Y-46323887D01*
X168953368Y-46213705D01*
X169116001Y-45994720D01*
X169116001Y-48757532D01*
X169075429Y-48527436D01*
X168989609Y-48291651D01*
X168864150Y-48074349D01*
X168702864Y-47882136D01*
X168510651Y-47720850D01*
X168293349Y-47595391D01*
X168057564Y-47509571D01*
X167810459Y-47466000D01*
X167559541Y-47466000D01*
X167312436Y-47509571D01*
X167076651Y-47595391D01*
X166859349Y-47720850D01*
X166667136Y-47882136D01*
X166505850Y-48074349D01*
X166415000Y-48231706D01*
X166324150Y-48074349D01*
X166162864Y-47882136D01*
X165970651Y-47720850D01*
X165753349Y-47595391D01*
X165517564Y-47509571D01*
X165270459Y-47466000D01*
X165019541Y-47466000D01*
X164772436Y-47509571D01*
X164536651Y-47595391D01*
X164319349Y-47720850D01*
X164127136Y-47882136D01*
X164035789Y-47991000D01*
X163445173Y-47991000D01*
X163338651Y-47986535D01*
X163259154Y-48005180D01*
X163178255Y-48016262D01*
X163138427Y-48033498D01*
X163091578Y-48044485D01*
X163048720Y-48072318D01*
X162949691Y-48115171D01*
X162756144Y-48271903D01*
X162728063Y-48311416D01*
X161371519Y-49667962D01*
X161293026Y-49740139D01*
X161249993Y-49809544D01*
X161200629Y-49874579D01*
X161184656Y-49914922D01*
X161159295Y-49955824D01*
X161148671Y-50005809D01*
X161108948Y-50106136D01*
X161082916Y-50353820D01*
X161091001Y-50401623D01*
X161091000Y-61164738D01*
X161065409Y-61193159D01*
X160935708Y-61435051D01*
X160867451Y-61700897D01*
X160864576Y-61975352D01*
X160927252Y-62242570D01*
X161051858Y-62487124D01*
X161231203Y-62694897D01*
X161454931Y-62853893D01*
X161710126Y-62954932D01*
X161982058Y-62992182D01*
X162226039Y-62966538D01*
X162251858Y-63017210D01*
X162431203Y-63224983D01*
X162654931Y-63383979D01*
X162910126Y-63485018D01*
X163182058Y-63522268D01*
X163455024Y-63493577D01*
X163713267Y-63400604D01*
X163904749Y-63273383D01*
X163898573Y-63322615D01*
X163929401Y-63608708D01*
X164025217Y-63880036D01*
X164180881Y-64122044D01*
X164388044Y-64321750D01*
X164635594Y-64468441D01*
X164823017Y-64526997D01*
X166545000Y-66248981D01*
X168678932Y-64115048D01*
X168295933Y-63824337D01*
X167984842Y-63640358D01*
X167654666Y-63493354D01*
X167309782Y-63385275D01*
X166954762Y-63317550D01*
X166594310Y-63291081D01*
X166374247Y-63300305D01*
X166375199Y-63191148D01*
X166311396Y-62920186D01*
X166438165Y-62813815D01*
X166541981Y-62634000D01*
X166686366Y-62634000D01*
X166859349Y-62779150D01*
X167076651Y-62904609D01*
X167312436Y-62990429D01*
X167559541Y-63034000D01*
X167810459Y-63034000D01*
X168057564Y-62990429D01*
X168293349Y-62904609D01*
X168510651Y-62779150D01*
X168702864Y-62617864D01*
X168864150Y-62425651D01*
X168989609Y-62208349D01*
X169075429Y-61972564D01*
X169116000Y-61742472D01*
X169116000Y-64634538D01*
X169075056Y-64571489D01*
X168852977Y-64303043D01*
X166726019Y-66430000D01*
X168849907Y-68553887D01*
X168953368Y-68443705D01*
X169116000Y-68224721D01*
X169116000Y-71716000D01*
X86534000Y-71716000D01*
X86534000Y-68739348D01*
X86936672Y-68739348D01*
X87233086Y-68979379D01*
X87538244Y-69173038D01*
X87863640Y-69330341D01*
X88204958Y-69449201D01*
X88557676Y-69528042D01*
X88917119Y-69565821D01*
X89278521Y-69562037D01*
X89637093Y-69516738D01*
X89988083Y-69430527D01*
X90326837Y-69304545D01*
X90648867Y-69140463D01*
X90949903Y-68940455D01*
X91190833Y-68736853D01*
X89065000Y-66611019D01*
X86936672Y-68739348D01*
X86534000Y-68739348D01*
X86534000Y-68280555D01*
X86752167Y-68561813D01*
M02*
