G04 #@! TF.GenerationSoftware,KiCad,Pcbnew,6.0.0-unknown-920f128~86~ubuntu18.04.1*
G04 #@! TF.CreationDate,2019-07-18T19:12:06-04:00*
G04 #@! TF.ProjectId,Femtosat,46656d74-6f73-4617-942e-6b696361645f,rev?*
G04 #@! TF.SameCoordinates,Original*
G04 #@! TF.FileFunction,Copper,L1,Top*
G04 #@! TF.FilePolarity,Positive*
%FSLAX46Y46*%
G04 Gerber Fmt 4.6, Leading zero omitted, Abs format (unit mm)*
G04 Created by KiCad (PCBNEW 6.0.0-unknown-920f128~86~ubuntu18.04.1) date 2019-07-18 19:12:06*
%MOMM*%
%LPD*%
G04 APERTURE LIST*
%ADD10C,5.000000*%
%ADD11R,1.600000X1.600000*%
%ADD12C,1.600000*%
%ADD13C,1.700000*%
%ADD14R,1.900000X1.175000*%
%ADD15R,1.900000X2.375000*%
%ADD16R,2.100000X1.475000*%
%ADD17R,1.380000X0.450000*%
%ADD18C,0.100000*%
%ADD19C,0.950000*%
%ADD20C,1.000000*%
%ADD21R,1.840000X2.200000*%
%ADD22R,1.500000X1.000000*%
%ADD23R,1.800000X1.000000*%
%ADD24C,0.850000*%
%ADD25R,1.800000X1.750000*%
%ADD26C,1.524000*%
%ADD27R,1.524000X1.524000*%
%ADD28R,0.550000X1.600000*%
%ADD29R,1.600000X0.550000*%
%ADD30C,1.150000*%
%ADD31R,1.400000X1.900000*%
%ADD32R,1.800000X1.400000*%
%ADD33R,0.800000X1.500000*%
%ADD34O,1.750000X1.200000*%
%ADD35C,1.200000*%
%ADD36O,1.700000X1.700000*%
%ADD37R,1.700000X1.700000*%
%ADD38C,1.400000*%
%ADD39C,1.300000*%
%ADD40C,1.500000*%
%ADD41C,0.550000*%
%ADD42C,0.800000*%
%ADD43C,0.450000*%
%ADD44C,0.254000*%
G04 APERTURE END LIST*
D10*
X89065000Y-66430000D03*
X89065000Y-44200000D03*
X166545000Y-66430000D03*
X166545000Y-44200000D03*
D11*
X165145000Y-61600000D03*
D12*
X167685000Y-61600000D03*
X165145000Y-59060000D03*
X167685000Y-59060000D03*
X165145000Y-56520000D03*
X167685000Y-56520000D03*
X165145000Y-53980000D03*
X167685000Y-53980000D03*
X165145000Y-51440000D03*
X167685000Y-51440000D03*
X165145000Y-48900000D03*
X167685000Y-48900000D03*
D13*
X97050000Y-64100000D03*
X103550000Y-64100000D03*
X97050000Y-68600000D03*
X103550000Y-68600000D03*
D14*
X87350000Y-59890000D03*
X87350000Y-58210000D03*
D15*
X87350000Y-61960000D03*
X87350000Y-56140000D03*
D16*
X89650000Y-61512500D03*
X89650000Y-56587500D03*
D17*
X90010000Y-60350000D03*
X90010000Y-59700000D03*
X90010000Y-59050000D03*
X90010000Y-58400000D03*
X90010000Y-57750000D03*
D18*
G36*
X116778387Y-65418079D02*
G01*
X116855438Y-65469562D01*
X116906921Y-65546613D01*
X116925000Y-65637500D01*
X116925000Y-66212500D01*
X116906921Y-66303387D01*
X116855438Y-66380438D01*
X116778387Y-66431921D01*
X116687500Y-66450000D01*
X116212500Y-66450000D01*
X116121613Y-66431921D01*
X116044562Y-66380438D01*
X115993079Y-66303387D01*
X115975000Y-66212500D01*
X115975000Y-65637500D01*
X115993079Y-65546613D01*
X116044562Y-65469562D01*
X116121613Y-65418079D01*
X116212500Y-65400000D01*
X116687500Y-65400000D01*
X116778387Y-65418079D01*
X116778387Y-65418079D01*
G37*
D19*
X116450000Y-65925000D03*
D18*
G36*
X116778387Y-63668079D02*
G01*
X116855438Y-63719562D01*
X116906921Y-63796613D01*
X116925000Y-63887500D01*
X116925000Y-64462500D01*
X116906921Y-64553387D01*
X116855438Y-64630438D01*
X116778387Y-64681921D01*
X116687500Y-64700000D01*
X116212500Y-64700000D01*
X116121613Y-64681921D01*
X116044562Y-64630438D01*
X115993079Y-64553387D01*
X115975000Y-64462500D01*
X115975000Y-63887500D01*
X115993079Y-63796613D01*
X116044562Y-63719562D01*
X116121613Y-63668079D01*
X116212500Y-63650000D01*
X116687500Y-63650000D01*
X116778387Y-63668079D01*
X116778387Y-63668079D01*
G37*
D19*
X116450000Y-64175000D03*
D20*
X96426200Y-48250000D03*
D18*
G36*
X95926200Y-47150000D02*
G01*
X96926200Y-47850000D01*
X96926200Y-48650000D01*
X95926200Y-49350000D01*
X95926200Y-47150000D01*
X95926200Y-47150000D01*
G37*
D21*
X95016500Y-48250000D03*
D22*
X97830000Y-46750000D03*
D23*
X97683500Y-48250000D03*
D22*
X97830000Y-49750000D03*
D24*
X93683000Y-48250000D03*
D18*
G36*
X94108000Y-49350000D02*
G01*
X93258000Y-48750000D01*
X93258000Y-47750000D01*
X94108000Y-47150000D01*
X94108000Y-49350000D01*
X94108000Y-49350000D01*
G37*
G36*
X134803387Y-51493079D02*
G01*
X134880438Y-51544562D01*
X134931921Y-51621613D01*
X134950000Y-51712500D01*
X134950000Y-52187500D01*
X134931921Y-52278387D01*
X134880438Y-52355438D01*
X134803387Y-52406921D01*
X134712500Y-52425000D01*
X134137500Y-52425000D01*
X134046613Y-52406921D01*
X133969562Y-52355438D01*
X133918079Y-52278387D01*
X133900000Y-52187500D01*
X133900000Y-51712500D01*
X133918079Y-51621613D01*
X133969562Y-51544562D01*
X134046613Y-51493079D01*
X134137500Y-51475000D01*
X134712500Y-51475000D01*
X134803387Y-51493079D01*
X134803387Y-51493079D01*
G37*
D19*
X134425000Y-51950000D03*
D18*
G36*
X136553387Y-51493079D02*
G01*
X136630438Y-51544562D01*
X136681921Y-51621613D01*
X136700000Y-51712500D01*
X136700000Y-52187500D01*
X136681921Y-52278387D01*
X136630438Y-52355438D01*
X136553387Y-52406921D01*
X136462500Y-52425000D01*
X135887500Y-52425000D01*
X135796613Y-52406921D01*
X135719562Y-52355438D01*
X135668079Y-52278387D01*
X135650000Y-52187500D01*
X135650000Y-51712500D01*
X135668079Y-51621613D01*
X135719562Y-51544562D01*
X135796613Y-51493079D01*
X135887500Y-51475000D01*
X136462500Y-51475000D01*
X136553387Y-51493079D01*
X136553387Y-51493079D01*
G37*
D19*
X136175000Y-51950000D03*
D18*
G36*
X92803387Y-59643079D02*
G01*
X92880438Y-59694562D01*
X92931921Y-59771613D01*
X92950000Y-59862500D01*
X92950000Y-60337500D01*
X92931921Y-60428387D01*
X92880438Y-60505438D01*
X92803387Y-60556921D01*
X92712500Y-60575000D01*
X92137500Y-60575000D01*
X92046613Y-60556921D01*
X91969562Y-60505438D01*
X91918079Y-60428387D01*
X91900000Y-60337500D01*
X91900000Y-59862500D01*
X91918079Y-59771613D01*
X91969562Y-59694562D01*
X92046613Y-59643079D01*
X92137500Y-59625000D01*
X92712500Y-59625000D01*
X92803387Y-59643079D01*
X92803387Y-59643079D01*
G37*
D19*
X92425000Y-60100000D03*
D18*
G36*
X94553387Y-59643079D02*
G01*
X94630438Y-59694562D01*
X94681921Y-59771613D01*
X94700000Y-59862500D01*
X94700000Y-60337500D01*
X94681921Y-60428387D01*
X94630438Y-60505438D01*
X94553387Y-60556921D01*
X94462500Y-60575000D01*
X93887500Y-60575000D01*
X93796613Y-60556921D01*
X93719562Y-60505438D01*
X93668079Y-60428387D01*
X93650000Y-60337500D01*
X93650000Y-59862500D01*
X93668079Y-59771613D01*
X93719562Y-59694562D01*
X93796613Y-59643079D01*
X93887500Y-59625000D01*
X94462500Y-59625000D01*
X94553387Y-59643079D01*
X94553387Y-59643079D01*
G37*
D19*
X94175000Y-60100000D03*
D18*
G36*
X92778387Y-61218079D02*
G01*
X92855438Y-61269562D01*
X92906921Y-61346613D01*
X92925000Y-61437500D01*
X92925000Y-62012500D01*
X92906921Y-62103387D01*
X92855438Y-62180438D01*
X92778387Y-62231921D01*
X92687500Y-62250000D01*
X92212500Y-62250000D01*
X92121613Y-62231921D01*
X92044562Y-62180438D01*
X91993079Y-62103387D01*
X91975000Y-62012500D01*
X91975000Y-61437500D01*
X91993079Y-61346613D01*
X92044562Y-61269562D01*
X92121613Y-61218079D01*
X92212500Y-61200000D01*
X92687500Y-61200000D01*
X92778387Y-61218079D01*
X92778387Y-61218079D01*
G37*
D19*
X92450000Y-61725000D03*
D18*
G36*
X92778387Y-62968079D02*
G01*
X92855438Y-63019562D01*
X92906921Y-63096613D01*
X92925000Y-63187500D01*
X92925000Y-63762500D01*
X92906921Y-63853387D01*
X92855438Y-63930438D01*
X92778387Y-63981921D01*
X92687500Y-64000000D01*
X92212500Y-64000000D01*
X92121613Y-63981921D01*
X92044562Y-63930438D01*
X91993079Y-63853387D01*
X91975000Y-63762500D01*
X91975000Y-63187500D01*
X91993079Y-63096613D01*
X92044562Y-63019562D01*
X92121613Y-62968079D01*
X92212500Y-62950000D01*
X92687500Y-62950000D01*
X92778387Y-62968079D01*
X92778387Y-62968079D01*
G37*
D19*
X92450000Y-63475000D03*
D18*
G36*
X94328387Y-61218079D02*
G01*
X94405438Y-61269562D01*
X94456921Y-61346613D01*
X94475000Y-61437500D01*
X94475000Y-62012500D01*
X94456921Y-62103387D01*
X94405438Y-62180438D01*
X94328387Y-62231921D01*
X94237500Y-62250000D01*
X93762500Y-62250000D01*
X93671613Y-62231921D01*
X93594562Y-62180438D01*
X93543079Y-62103387D01*
X93525000Y-62012500D01*
X93525000Y-61437500D01*
X93543079Y-61346613D01*
X93594562Y-61269562D01*
X93671613Y-61218079D01*
X93762500Y-61200000D01*
X94237500Y-61200000D01*
X94328387Y-61218079D01*
X94328387Y-61218079D01*
G37*
D19*
X94000000Y-61725000D03*
D18*
G36*
X94328387Y-62968079D02*
G01*
X94405438Y-63019562D01*
X94456921Y-63096613D01*
X94475000Y-63187500D01*
X94475000Y-63762500D01*
X94456921Y-63853387D01*
X94405438Y-63930438D01*
X94328387Y-63981921D01*
X94237500Y-64000000D01*
X93762500Y-64000000D01*
X93671613Y-63981921D01*
X93594562Y-63930438D01*
X93543079Y-63853387D01*
X93525000Y-63762500D01*
X93525000Y-63187500D01*
X93543079Y-63096613D01*
X93594562Y-63019562D01*
X93671613Y-62968079D01*
X93762500Y-62950000D01*
X94237500Y-62950000D01*
X94328387Y-62968079D01*
X94328387Y-62968079D01*
G37*
D19*
X94000000Y-63475000D03*
D25*
X119150000Y-57100000D03*
X119150000Y-60350000D03*
D26*
X116120000Y-42470000D03*
X118660000Y-42470000D03*
X121200000Y-42470000D03*
X123740000Y-42470000D03*
D27*
X126280000Y-42470000D03*
D26*
X90650000Y-53340000D03*
X90650000Y-50800000D03*
D27*
X90650000Y-48260000D03*
D28*
X115350000Y-60575000D03*
X114550000Y-60575000D03*
X113750000Y-60575000D03*
X112950000Y-60575000D03*
X112150000Y-60575000D03*
X111350000Y-60575000D03*
X110550000Y-60575000D03*
X109750000Y-60575000D03*
D29*
X108300000Y-59125000D03*
X108300000Y-58325000D03*
X108300000Y-57525000D03*
X108300000Y-56725000D03*
X108300000Y-55925000D03*
X108300000Y-55125000D03*
X108300000Y-54325000D03*
X108300000Y-53525000D03*
D28*
X109750000Y-52075000D03*
X110550000Y-52075000D03*
X111350000Y-52075000D03*
X112150000Y-52075000D03*
X112950000Y-52075000D03*
X113750000Y-52075000D03*
X114550000Y-52075000D03*
X115350000Y-52075000D03*
D29*
X116800000Y-53525000D03*
X116800000Y-54325000D03*
X116800000Y-55125000D03*
X116800000Y-55925000D03*
X116800000Y-56725000D03*
X116800000Y-57525000D03*
X116800000Y-58325000D03*
X116800000Y-59125000D03*
D18*
G36*
X121595671Y-47869030D02*
G01*
X121676777Y-47923223D01*
X121730970Y-48004329D01*
X121750000Y-48099999D01*
X121750000Y-49000001D01*
X121730970Y-49095671D01*
X121676777Y-49176777D01*
X121595671Y-49230970D01*
X121500001Y-49250000D01*
X120849999Y-49250000D01*
X120754329Y-49230970D01*
X120673223Y-49176777D01*
X120619030Y-49095671D01*
X120600000Y-49000001D01*
X120600000Y-48099999D01*
X120619030Y-48004329D01*
X120673223Y-47923223D01*
X120754329Y-47869030D01*
X120849999Y-47850000D01*
X121500001Y-47850000D01*
X121595671Y-47869030D01*
X121595671Y-47869030D01*
G37*
D30*
X121175000Y-48550000D03*
D18*
G36*
X119545671Y-47869030D02*
G01*
X119626777Y-47923223D01*
X119680970Y-48004329D01*
X119700000Y-48099999D01*
X119700000Y-49000001D01*
X119680970Y-49095671D01*
X119626777Y-49176777D01*
X119545671Y-49230970D01*
X119450001Y-49250000D01*
X118799999Y-49250000D01*
X118704329Y-49230970D01*
X118623223Y-49176777D01*
X118569030Y-49095671D01*
X118550000Y-49000001D01*
X118550000Y-48099999D01*
X118569030Y-48004329D01*
X118623223Y-47923223D01*
X118704329Y-47869030D01*
X118799999Y-47850000D01*
X119450001Y-47850000D01*
X119545671Y-47869030D01*
X119545671Y-47869030D01*
G37*
D30*
X119125000Y-48550000D03*
D31*
X150750000Y-44450000D03*
X137600000Y-43450000D03*
D32*
X143450000Y-56650000D03*
X149150000Y-56650000D03*
D33*
X149950000Y-47100000D03*
X148850000Y-47100000D03*
X147750000Y-46900000D03*
X146650000Y-47100000D03*
X145550000Y-46900000D03*
X144450000Y-47100000D03*
X143350000Y-47300000D03*
X142250000Y-47100000D03*
D34*
X94000000Y-44800000D03*
D18*
G36*
X94720671Y-42219030D02*
G01*
X94801777Y-42273223D01*
X94855970Y-42354329D01*
X94875000Y-42449999D01*
X94875000Y-43150001D01*
X94855970Y-43245671D01*
X94801777Y-43326777D01*
X94720671Y-43380970D01*
X94625001Y-43400000D01*
X93374999Y-43400000D01*
X93279329Y-43380970D01*
X93198223Y-43326777D01*
X93144030Y-43245671D01*
X93125000Y-43150001D01*
X93125000Y-42449999D01*
X93144030Y-42354329D01*
X93198223Y-42273223D01*
X93279329Y-42219030D01*
X93374999Y-42200000D01*
X94625001Y-42200000D01*
X94720671Y-42219030D01*
X94720671Y-42219030D01*
G37*
D35*
X94000000Y-42800000D03*
D36*
X117910000Y-68600000D03*
X115370000Y-68600000D03*
X112830000Y-68600000D03*
X110290000Y-68600000D03*
D37*
X107750000Y-68600000D03*
D18*
G36*
X155228387Y-42668079D02*
G01*
X155305438Y-42719562D01*
X155356921Y-42796613D01*
X155375000Y-42887500D01*
X155375000Y-43462500D01*
X155356921Y-43553387D01*
X155305438Y-43630438D01*
X155228387Y-43681921D01*
X155137500Y-43700000D01*
X154662500Y-43700000D01*
X154571613Y-43681921D01*
X154494562Y-43630438D01*
X154443079Y-43553387D01*
X154425000Y-43462500D01*
X154425000Y-42887500D01*
X154443079Y-42796613D01*
X154494562Y-42719562D01*
X154571613Y-42668079D01*
X154662500Y-42650000D01*
X155137500Y-42650000D01*
X155228387Y-42668079D01*
X155228387Y-42668079D01*
G37*
D19*
X154900000Y-43175000D03*
D18*
G36*
X155228387Y-44418079D02*
G01*
X155305438Y-44469562D01*
X155356921Y-44546613D01*
X155375000Y-44637500D01*
X155375000Y-45212500D01*
X155356921Y-45303387D01*
X155305438Y-45380438D01*
X155228387Y-45431921D01*
X155137500Y-45450000D01*
X154662500Y-45450000D01*
X154571613Y-45431921D01*
X154494562Y-45380438D01*
X154443079Y-45303387D01*
X154425000Y-45212500D01*
X154425000Y-44637500D01*
X154443079Y-44546613D01*
X154494562Y-44469562D01*
X154571613Y-44418079D01*
X154662500Y-44400000D01*
X155137500Y-44400000D01*
X155228387Y-44418079D01*
X155228387Y-44418079D01*
G37*
D19*
X154900000Y-44925000D03*
D18*
G36*
X156778387Y-42668079D02*
G01*
X156855438Y-42719562D01*
X156906921Y-42796613D01*
X156925000Y-42887500D01*
X156925000Y-43462500D01*
X156906921Y-43553387D01*
X156855438Y-43630438D01*
X156778387Y-43681921D01*
X156687500Y-43700000D01*
X156212500Y-43700000D01*
X156121613Y-43681921D01*
X156044562Y-43630438D01*
X155993079Y-43553387D01*
X155975000Y-43462500D01*
X155975000Y-42887500D01*
X155993079Y-42796613D01*
X156044562Y-42719562D01*
X156121613Y-42668079D01*
X156212500Y-42650000D01*
X156687500Y-42650000D01*
X156778387Y-42668079D01*
X156778387Y-42668079D01*
G37*
D19*
X156450000Y-43175000D03*
D18*
G36*
X156778387Y-44418079D02*
G01*
X156855438Y-44469562D01*
X156906921Y-44546613D01*
X156925000Y-44637500D01*
X156925000Y-45212500D01*
X156906921Y-45303387D01*
X156855438Y-45380438D01*
X156778387Y-45431921D01*
X156687500Y-45450000D01*
X156212500Y-45450000D01*
X156121613Y-45431921D01*
X156044562Y-45380438D01*
X155993079Y-45303387D01*
X155975000Y-45212500D01*
X155975000Y-44637500D01*
X155993079Y-44546613D01*
X156044562Y-44469562D01*
X156121613Y-44418079D01*
X156212500Y-44400000D01*
X156687500Y-44400000D01*
X156778387Y-44418079D01*
X156778387Y-44418079D01*
G37*
D19*
X156450000Y-44925000D03*
D18*
G36*
X101803387Y-46293079D02*
G01*
X101880438Y-46344562D01*
X101931921Y-46421613D01*
X101950000Y-46512500D01*
X101950000Y-46987500D01*
X101931921Y-47078387D01*
X101880438Y-47155438D01*
X101803387Y-47206921D01*
X101712500Y-47225000D01*
X101137500Y-47225000D01*
X101046613Y-47206921D01*
X100969562Y-47155438D01*
X100918079Y-47078387D01*
X100900000Y-46987500D01*
X100900000Y-46512500D01*
X100918079Y-46421613D01*
X100969562Y-46344562D01*
X101046613Y-46293079D01*
X101137500Y-46275000D01*
X101712500Y-46275000D01*
X101803387Y-46293079D01*
X101803387Y-46293079D01*
G37*
D19*
X101425000Y-46750000D03*
D18*
G36*
X100053387Y-46293079D02*
G01*
X100130438Y-46344562D01*
X100181921Y-46421613D01*
X100200000Y-46512500D01*
X100200000Y-46987500D01*
X100181921Y-47078387D01*
X100130438Y-47155438D01*
X100053387Y-47206921D01*
X99962500Y-47225000D01*
X99387500Y-47225000D01*
X99296613Y-47206921D01*
X99219562Y-47155438D01*
X99168079Y-47078387D01*
X99150000Y-46987500D01*
X99150000Y-46512500D01*
X99168079Y-46421613D01*
X99219562Y-46344562D01*
X99296613Y-46293079D01*
X99387500Y-46275000D01*
X99962500Y-46275000D01*
X100053387Y-46293079D01*
X100053387Y-46293079D01*
G37*
D19*
X99675000Y-46750000D03*
D18*
G36*
X101803387Y-47793079D02*
G01*
X101880438Y-47844562D01*
X101931921Y-47921613D01*
X101950000Y-48012500D01*
X101950000Y-48487500D01*
X101931921Y-48578387D01*
X101880438Y-48655438D01*
X101803387Y-48706921D01*
X101712500Y-48725000D01*
X101137500Y-48725000D01*
X101046613Y-48706921D01*
X100969562Y-48655438D01*
X100918079Y-48578387D01*
X100900000Y-48487500D01*
X100900000Y-48012500D01*
X100918079Y-47921613D01*
X100969562Y-47844562D01*
X101046613Y-47793079D01*
X101137500Y-47775000D01*
X101712500Y-47775000D01*
X101803387Y-47793079D01*
X101803387Y-47793079D01*
G37*
D19*
X101425000Y-48250000D03*
D18*
G36*
X100053387Y-47793079D02*
G01*
X100130438Y-47844562D01*
X100181921Y-47921613D01*
X100200000Y-48012500D01*
X100200000Y-48487500D01*
X100181921Y-48578387D01*
X100130438Y-48655438D01*
X100053387Y-48706921D01*
X99962500Y-48725000D01*
X99387500Y-48725000D01*
X99296613Y-48706921D01*
X99219562Y-48655438D01*
X99168079Y-48578387D01*
X99150000Y-48487500D01*
X99150000Y-48012500D01*
X99168079Y-47921613D01*
X99219562Y-47844562D01*
X99296613Y-47793079D01*
X99387500Y-47775000D01*
X99962500Y-47775000D01*
X100053387Y-47793079D01*
X100053387Y-47793079D01*
G37*
D19*
X99675000Y-48250000D03*
D18*
G36*
X123403387Y-56643079D02*
G01*
X123480438Y-56694562D01*
X123531921Y-56771613D01*
X123550000Y-56862500D01*
X123550000Y-57337500D01*
X123531921Y-57428387D01*
X123480438Y-57505438D01*
X123403387Y-57556921D01*
X123312500Y-57575000D01*
X122737500Y-57575000D01*
X122646613Y-57556921D01*
X122569562Y-57505438D01*
X122518079Y-57428387D01*
X122500000Y-57337500D01*
X122500000Y-56862500D01*
X122518079Y-56771613D01*
X122569562Y-56694562D01*
X122646613Y-56643079D01*
X122737500Y-56625000D01*
X123312500Y-56625000D01*
X123403387Y-56643079D01*
X123403387Y-56643079D01*
G37*
D19*
X123025000Y-57100000D03*
D18*
G36*
X121653387Y-56643079D02*
G01*
X121730438Y-56694562D01*
X121781921Y-56771613D01*
X121800000Y-56862500D01*
X121800000Y-57337500D01*
X121781921Y-57428387D01*
X121730438Y-57505438D01*
X121653387Y-57556921D01*
X121562500Y-57575000D01*
X120987500Y-57575000D01*
X120896613Y-57556921D01*
X120819562Y-57505438D01*
X120768079Y-57428387D01*
X120750000Y-57337500D01*
X120750000Y-56862500D01*
X120768079Y-56771613D01*
X120819562Y-56694562D01*
X120896613Y-56643079D01*
X120987500Y-56625000D01*
X121562500Y-56625000D01*
X121653387Y-56643079D01*
X121653387Y-56643079D01*
G37*
D19*
X121275000Y-57100000D03*
D18*
G36*
X123413387Y-59893079D02*
G01*
X123490438Y-59944562D01*
X123541921Y-60021613D01*
X123560000Y-60112500D01*
X123560000Y-60587500D01*
X123541921Y-60678387D01*
X123490438Y-60755438D01*
X123413387Y-60806921D01*
X123322500Y-60825000D01*
X122747500Y-60825000D01*
X122656613Y-60806921D01*
X122579562Y-60755438D01*
X122528079Y-60678387D01*
X122510000Y-60587500D01*
X122510000Y-60112500D01*
X122528079Y-60021613D01*
X122579562Y-59944562D01*
X122656613Y-59893079D01*
X122747500Y-59875000D01*
X123322500Y-59875000D01*
X123413387Y-59893079D01*
X123413387Y-59893079D01*
G37*
D19*
X123035000Y-60350000D03*
D18*
G36*
X121663387Y-59893079D02*
G01*
X121740438Y-59944562D01*
X121791921Y-60021613D01*
X121810000Y-60112500D01*
X121810000Y-60587500D01*
X121791921Y-60678387D01*
X121740438Y-60755438D01*
X121663387Y-60806921D01*
X121572500Y-60825000D01*
X120997500Y-60825000D01*
X120906613Y-60806921D01*
X120829562Y-60755438D01*
X120778079Y-60678387D01*
X120760000Y-60587500D01*
X120760000Y-60112500D01*
X120778079Y-60021613D01*
X120829562Y-59944562D01*
X120906613Y-59893079D01*
X120997500Y-59875000D01*
X121572500Y-59875000D01*
X121663387Y-59893079D01*
X121663387Y-59893079D01*
G37*
D19*
X121285000Y-60350000D03*
D18*
G36*
X115228387Y-65418079D02*
G01*
X115305438Y-65469562D01*
X115356921Y-65546613D01*
X115375000Y-65637500D01*
X115375000Y-66212500D01*
X115356921Y-66303387D01*
X115305438Y-66380438D01*
X115228387Y-66431921D01*
X115137500Y-66450000D01*
X114662500Y-66450000D01*
X114571613Y-66431921D01*
X114494562Y-66380438D01*
X114443079Y-66303387D01*
X114425000Y-66212500D01*
X114425000Y-65637500D01*
X114443079Y-65546613D01*
X114494562Y-65469562D01*
X114571613Y-65418079D01*
X114662500Y-65400000D01*
X115137500Y-65400000D01*
X115228387Y-65418079D01*
X115228387Y-65418079D01*
G37*
D19*
X114900000Y-65925000D03*
D18*
G36*
X115228387Y-63668079D02*
G01*
X115305438Y-63719562D01*
X115356921Y-63796613D01*
X115375000Y-63887500D01*
X115375000Y-64462500D01*
X115356921Y-64553387D01*
X115305438Y-64630438D01*
X115228387Y-64681921D01*
X115137500Y-64700000D01*
X114662500Y-64700000D01*
X114571613Y-64681921D01*
X114494562Y-64630438D01*
X114443079Y-64553387D01*
X114425000Y-64462500D01*
X114425000Y-63887500D01*
X114443079Y-63796613D01*
X114494562Y-63719562D01*
X114571613Y-63668079D01*
X114662500Y-63650000D01*
X115137500Y-63650000D01*
X115228387Y-63668079D01*
X115228387Y-63668079D01*
G37*
D19*
X114900000Y-64175000D03*
D18*
G36*
X115353387Y-49643079D02*
G01*
X115430438Y-49694562D01*
X115481921Y-49771613D01*
X115500000Y-49862500D01*
X115500000Y-50337500D01*
X115481921Y-50428387D01*
X115430438Y-50505438D01*
X115353387Y-50556921D01*
X115262500Y-50575000D01*
X114687500Y-50575000D01*
X114596613Y-50556921D01*
X114519562Y-50505438D01*
X114468079Y-50428387D01*
X114450000Y-50337500D01*
X114450000Y-49862500D01*
X114468079Y-49771613D01*
X114519562Y-49694562D01*
X114596613Y-49643079D01*
X114687500Y-49625000D01*
X115262500Y-49625000D01*
X115353387Y-49643079D01*
X115353387Y-49643079D01*
G37*
D19*
X114975000Y-50100000D03*
D18*
G36*
X117103387Y-49643079D02*
G01*
X117180438Y-49694562D01*
X117231921Y-49771613D01*
X117250000Y-49862500D01*
X117250000Y-50337500D01*
X117231921Y-50428387D01*
X117180438Y-50505438D01*
X117103387Y-50556921D01*
X117012500Y-50575000D01*
X116437500Y-50575000D01*
X116346613Y-50556921D01*
X116269562Y-50505438D01*
X116218079Y-50428387D01*
X116200000Y-50337500D01*
X116200000Y-49862500D01*
X116218079Y-49771613D01*
X116269562Y-49694562D01*
X116346613Y-49643079D01*
X116437500Y-49625000D01*
X117012500Y-49625000D01*
X117103387Y-49643079D01*
X117103387Y-49643079D01*
G37*
D19*
X116725000Y-50100000D03*
D18*
G36*
X116053387Y-48093079D02*
G01*
X116130438Y-48144562D01*
X116181921Y-48221613D01*
X116200000Y-48312500D01*
X116200000Y-48787500D01*
X116181921Y-48878387D01*
X116130438Y-48955438D01*
X116053387Y-49006921D01*
X115962500Y-49025000D01*
X115387500Y-49025000D01*
X115296613Y-49006921D01*
X115219562Y-48955438D01*
X115168079Y-48878387D01*
X115150000Y-48787500D01*
X115150000Y-48312500D01*
X115168079Y-48221613D01*
X115219562Y-48144562D01*
X115296613Y-48093079D01*
X115387500Y-48075000D01*
X115962500Y-48075000D01*
X116053387Y-48093079D01*
X116053387Y-48093079D01*
G37*
D19*
X115675000Y-48550000D03*
D18*
G36*
X117803387Y-48093079D02*
G01*
X117880438Y-48144562D01*
X117931921Y-48221613D01*
X117950000Y-48312500D01*
X117950000Y-48787500D01*
X117931921Y-48878387D01*
X117880438Y-48955438D01*
X117803387Y-49006921D01*
X117712500Y-49025000D01*
X117137500Y-49025000D01*
X117046613Y-49006921D01*
X116969562Y-48955438D01*
X116918079Y-48878387D01*
X116900000Y-48787500D01*
X116900000Y-48312500D01*
X116918079Y-48221613D01*
X116969562Y-48144562D01*
X117046613Y-48093079D01*
X117137500Y-48075000D01*
X117712500Y-48075000D01*
X117803387Y-48093079D01*
X117803387Y-48093079D01*
G37*
D19*
X117425000Y-48550000D03*
D18*
G36*
X99853387Y-61643079D02*
G01*
X99930438Y-61694562D01*
X99981921Y-61771613D01*
X100000000Y-61862500D01*
X100000000Y-62337500D01*
X99981921Y-62428387D01*
X99930438Y-62505438D01*
X99853387Y-62556921D01*
X99762500Y-62575000D01*
X99187500Y-62575000D01*
X99096613Y-62556921D01*
X99019562Y-62505438D01*
X98968079Y-62428387D01*
X98950000Y-62337500D01*
X98950000Y-61862500D01*
X98968079Y-61771613D01*
X99019562Y-61694562D01*
X99096613Y-61643079D01*
X99187500Y-61625000D01*
X99762500Y-61625000D01*
X99853387Y-61643079D01*
X99853387Y-61643079D01*
G37*
D19*
X99475000Y-62100000D03*
D18*
G36*
X101603387Y-61643079D02*
G01*
X101680438Y-61694562D01*
X101731921Y-61771613D01*
X101750000Y-61862500D01*
X101750000Y-62337500D01*
X101731921Y-62428387D01*
X101680438Y-62505438D01*
X101603387Y-62556921D01*
X101512500Y-62575000D01*
X100937500Y-62575000D01*
X100846613Y-62556921D01*
X100769562Y-62505438D01*
X100718079Y-62428387D01*
X100700000Y-62337500D01*
X100700000Y-61862500D01*
X100718079Y-61771613D01*
X100769562Y-61694562D01*
X100846613Y-61643079D01*
X100937500Y-61625000D01*
X101512500Y-61625000D01*
X101603387Y-61643079D01*
X101603387Y-61643079D01*
G37*
D19*
X101225000Y-62100000D03*
D18*
G36*
X111653387Y-63943079D02*
G01*
X111730438Y-63994562D01*
X111781921Y-64071613D01*
X111800000Y-64162500D01*
X111800000Y-64637500D01*
X111781921Y-64728387D01*
X111730438Y-64805438D01*
X111653387Y-64856921D01*
X111562500Y-64875000D01*
X110987500Y-64875000D01*
X110896613Y-64856921D01*
X110819562Y-64805438D01*
X110768079Y-64728387D01*
X110750000Y-64637500D01*
X110750000Y-64162500D01*
X110768079Y-64071613D01*
X110819562Y-63994562D01*
X110896613Y-63943079D01*
X110987500Y-63925000D01*
X111562500Y-63925000D01*
X111653387Y-63943079D01*
X111653387Y-63943079D01*
G37*
D19*
X111275000Y-64400000D03*
D18*
G36*
X113403387Y-63943079D02*
G01*
X113480438Y-63994562D01*
X113531921Y-64071613D01*
X113550000Y-64162500D01*
X113550000Y-64637500D01*
X113531921Y-64728387D01*
X113480438Y-64805438D01*
X113403387Y-64856921D01*
X113312500Y-64875000D01*
X112737500Y-64875000D01*
X112646613Y-64856921D01*
X112569562Y-64805438D01*
X112518079Y-64728387D01*
X112500000Y-64637500D01*
X112500000Y-64162500D01*
X112518079Y-64071613D01*
X112569562Y-63994562D01*
X112646613Y-63943079D01*
X112737500Y-63925000D01*
X113312500Y-63925000D01*
X113403387Y-63943079D01*
X113403387Y-63943079D01*
G37*
D19*
X113025000Y-64400000D03*
D35*
X165140922Y-63333457D03*
D20*
X163200000Y-62380086D03*
X162000000Y-61850000D03*
D38*
X95475000Y-70375000D03*
X128100000Y-45550000D03*
X130400000Y-43400000D03*
X122750000Y-63600000D03*
X95400000Y-53600000D03*
X102950000Y-40300000D03*
X96200000Y-39950000D03*
X149050000Y-67550000D03*
X157900000Y-67450000D03*
X91800000Y-54650000D03*
X99950000Y-55750000D03*
X155450000Y-56200000D03*
X160550000Y-57350000D03*
X160650000Y-60400000D03*
X155300000Y-61550000D03*
X157950000Y-55600000D03*
X157900000Y-62050000D03*
D39*
X118650000Y-46799999D03*
D38*
X126300000Y-47200000D03*
X124680851Y-47230851D03*
X123000000Y-47250000D03*
X148650000Y-40250000D03*
X136800000Y-39450000D03*
X132800000Y-51125000D03*
X120400000Y-52100000D03*
X108700000Y-50400000D03*
X129850000Y-65774999D03*
X128500000Y-63900000D03*
X142250000Y-62600000D03*
X127300000Y-62575000D03*
D39*
X145525000Y-49750000D03*
D38*
X146650000Y-48650000D03*
X146725000Y-56400000D03*
X117000000Y-52050000D03*
X150800000Y-40250000D03*
X126000000Y-57450000D03*
X146750000Y-40800000D03*
X106568250Y-52653676D03*
X122750000Y-58750000D03*
X121100000Y-58750000D03*
X135300000Y-58650000D03*
X124550000Y-58650000D03*
X105301312Y-55398688D03*
X108050000Y-52050000D03*
X110175000Y-49562464D03*
X145650000Y-61400000D03*
X119650000Y-63000000D03*
X118150000Y-65100000D03*
X117070634Y-63030271D03*
X111740919Y-63456457D03*
X115600000Y-62400000D03*
X115650000Y-47100000D03*
X114350000Y-48550000D03*
X156800000Y-41600000D03*
X155100000Y-41450000D03*
X135550000Y-53150000D03*
X135300000Y-48500000D03*
X147750000Y-45100000D03*
X135700000Y-43400000D03*
X152950000Y-45100000D03*
X145600000Y-45000000D03*
X143350000Y-44750000D03*
X123750000Y-39500000D03*
X153100000Y-40150000D03*
X151150000Y-56200000D03*
X150850000Y-62950000D03*
X150800000Y-61450000D03*
X120950000Y-39500000D03*
X102950000Y-46750000D03*
X97800000Y-51300000D03*
X95400000Y-63300003D03*
X120550000Y-67650000D03*
X119750000Y-65700000D03*
X111800000Y-65900000D03*
X108600000Y-62200000D03*
X112850000Y-71425000D03*
X97550000Y-57250000D03*
X97550000Y-60200000D03*
X104000000Y-62350000D03*
X95400000Y-61700000D03*
D40*
X92300000Y-46100000D03*
D38*
X102250000Y-50450000D03*
X104005851Y-50355851D03*
X102950000Y-48050000D03*
X99500000Y-64675000D03*
X109425000Y-47625000D03*
D41*
X163265679Y-62349998D02*
X163295767Y-62380086D01*
X163200000Y-62349998D02*
X163265679Y-62349998D01*
X159774999Y-65774999D02*
X163200000Y-62349998D01*
X129850000Y-65774999D02*
X159774999Y-65774999D01*
D42*
X95475000Y-70375000D02*
X111975998Y-70375000D01*
X111975998Y-70375000D02*
X112225999Y-70124999D01*
X112225999Y-70124999D02*
X158362451Y-70124999D01*
X158362451Y-70124999D02*
X165145000Y-63342450D01*
D43*
X126820000Y-45550000D02*
X128100000Y-45550000D01*
X123740000Y-42470000D02*
X126820000Y-45550000D01*
X135700000Y-43400000D02*
X130400000Y-43400000D01*
X94275000Y-44800000D02*
X96200000Y-42875000D01*
X94000000Y-44800000D02*
X94275000Y-44800000D01*
X96200000Y-42875000D02*
X96200000Y-39950000D01*
D42*
X90650000Y-53500000D02*
X91800000Y-54650000D01*
X90650000Y-53340000D02*
X90650000Y-53500000D01*
D43*
X90650000Y-50800000D02*
X93000000Y-53150000D01*
X93000000Y-53150000D02*
X93000000Y-55900000D01*
D42*
X95016500Y-48250000D02*
X93683000Y-48250000D01*
X93683000Y-48250000D02*
X90660000Y-48250000D01*
X90660000Y-48250000D02*
X90650000Y-48260000D01*
D43*
X90010000Y-57750000D02*
X91150000Y-57750000D01*
X99800000Y-55900000D02*
X99950000Y-55750000D01*
X91150000Y-57750000D02*
X93000000Y-55900000D01*
X93000000Y-55900000D02*
X99800000Y-55900000D01*
D42*
X94000000Y-42800000D02*
X92300000Y-44500000D01*
X92300000Y-44500000D02*
X92300000Y-46100000D01*
D41*
X118650000Y-46799999D02*
X119424999Y-46799999D01*
X119424999Y-46799999D02*
X121175000Y-48550000D01*
X111350000Y-47539650D02*
X114714671Y-44174979D01*
X111350000Y-52075000D02*
X111350000Y-47539650D01*
X114714671Y-44174979D02*
X123363981Y-44174979D01*
X123363981Y-44174979D02*
X126300000Y-47110998D01*
X126300000Y-47110998D02*
X126300000Y-47200000D01*
X112150000Y-47800324D02*
X115025335Y-44924989D01*
X112150000Y-52075000D02*
X112150000Y-47800324D01*
X115025335Y-44924989D02*
X122374989Y-44924989D01*
X122374989Y-44924989D02*
X124680851Y-47230851D01*
X112950000Y-48060998D02*
X115335999Y-45674999D01*
X112950000Y-52075000D02*
X112950000Y-48060998D01*
X115335999Y-45674999D02*
X121714001Y-45674999D01*
X121714001Y-45674999D02*
X123000000Y-46960998D01*
X123000000Y-46960998D02*
X123000000Y-47250000D01*
X147850000Y-39450000D02*
X148650000Y-40250000D01*
X136800000Y-39450000D02*
X147850000Y-39450000D01*
X121375000Y-51125000D02*
X132800000Y-51125000D01*
X120400000Y-52100000D02*
X121375000Y-51125000D01*
X109750000Y-51450000D02*
X108700000Y-50400000D01*
X109750000Y-52075000D02*
X109750000Y-51450000D01*
X129199999Y-64599999D02*
X159250001Y-64599999D01*
X128500000Y-63900000D02*
X129199999Y-64599999D01*
X159250001Y-64599999D02*
X162000000Y-61850000D01*
X142225000Y-62575000D02*
X142250000Y-62600000D01*
X127300000Y-62575000D02*
X142225000Y-62575000D01*
X145525000Y-49750000D02*
X146174999Y-50399999D01*
X146174999Y-50399999D02*
X149425001Y-50399999D01*
X149425001Y-50399999D02*
X154405188Y-45419812D01*
X154405188Y-45419812D02*
X154900000Y-44925000D01*
X136175000Y-51950000D02*
X143325000Y-51950000D01*
X143325000Y-51950000D02*
X145525000Y-49750000D01*
X145550000Y-48200000D02*
X145474999Y-48275001D01*
X145474999Y-48275001D02*
X145474999Y-49699999D01*
X145550000Y-46900000D02*
X145550000Y-48200000D01*
X145474999Y-49699999D02*
X145525000Y-49750000D01*
X146650000Y-47100000D02*
X146650000Y-48650000D01*
X126000000Y-57450000D02*
X141794998Y-57450000D01*
X141794998Y-57450000D02*
X142169999Y-57825001D01*
X142169999Y-57825001D02*
X145299999Y-57825001D01*
X145299999Y-57825001D02*
X146025001Y-57099999D01*
X146025001Y-57099999D02*
X146725000Y-56400000D01*
X146650000Y-47100000D02*
X146725000Y-47175000D01*
X142650001Y-45449999D02*
X141971673Y-45449999D01*
X119100000Y-49950000D02*
X117000000Y-52050000D01*
X143350000Y-44750000D02*
X142650001Y-45449999D01*
X141971673Y-45449999D02*
X137471672Y-49950000D01*
X137471672Y-49950000D02*
X119100000Y-49950000D01*
X150800000Y-40250000D02*
X149074999Y-41975001D01*
X149074999Y-41975001D02*
X149074999Y-45575001D01*
X149074999Y-45575001D02*
X148850000Y-45800000D01*
X148850000Y-45800000D02*
X148850000Y-47100000D01*
X146625001Y-40675001D02*
X146750000Y-40800000D01*
X137475001Y-40675001D02*
X146625001Y-40675001D01*
X105325001Y-42424999D02*
X107074999Y-40675001D01*
X107074999Y-40675001D02*
X137475001Y-40675001D01*
X106689326Y-55125000D02*
X105325001Y-53760675D01*
X108300000Y-55125000D02*
X106689326Y-55125000D01*
X105325001Y-53760675D02*
X105325001Y-42424999D01*
X106950000Y-54325000D02*
X106568250Y-53943250D01*
X108300000Y-54325000D02*
X106950000Y-54325000D01*
X106568250Y-53943250D02*
X106568250Y-52653676D01*
D43*
X123025000Y-58475000D02*
X122750000Y-58750000D01*
X123025000Y-57100000D02*
X123025000Y-58475000D01*
X121435000Y-58750000D02*
X121100000Y-58750000D01*
X123035000Y-60350000D02*
X121435000Y-58750000D01*
D41*
X124550000Y-58650000D02*
X135300000Y-58650000D01*
X105827624Y-55925000D02*
X105301312Y-55398688D01*
X108300000Y-55925000D02*
X105827624Y-55925000D01*
X108300000Y-52300000D02*
X108050000Y-52050000D01*
X108300000Y-53525000D02*
X108300000Y-52300000D01*
X110550000Y-49937464D02*
X110175000Y-49562464D01*
X110550000Y-52075000D02*
X110550000Y-49937464D01*
D43*
X149150000Y-56650000D02*
X150700000Y-56650000D01*
X150700000Y-56650000D02*
X151150000Y-56200000D01*
D41*
X121250000Y-61400000D02*
X145650000Y-61400000D01*
X119650000Y-63000000D02*
X121250000Y-61400000D01*
X116354365Y-60575000D02*
X118245635Y-62466270D01*
X115350000Y-60575000D02*
X116354365Y-60575000D01*
X118245635Y-62466270D02*
X118245635Y-65004365D01*
X118245635Y-65004365D02*
X118150000Y-65100000D01*
X116450000Y-63650905D02*
X117070634Y-63030271D01*
X116450000Y-64175000D02*
X116450000Y-63650905D01*
D43*
X111275000Y-64400000D02*
X111275000Y-63922376D01*
X111275000Y-63922376D02*
X111740919Y-63456457D01*
X112150000Y-63047376D02*
X111740919Y-63456457D01*
X112150000Y-60575000D02*
X112150000Y-63047376D01*
D41*
X112950000Y-60575000D02*
X112950000Y-64325000D01*
X112950000Y-64325000D02*
X113025000Y-64400000D01*
X111800000Y-65900000D02*
X113204918Y-65900000D01*
X114405188Y-64669812D02*
X114900000Y-64175000D01*
X113204918Y-65900000D02*
X114405188Y-64699730D01*
X114405188Y-64699730D02*
X114405188Y-64669812D01*
D43*
X116450000Y-65925000D02*
X116450000Y-66115002D01*
X116450000Y-66115002D02*
X117359999Y-67025001D01*
X117359999Y-67025001D02*
X118935052Y-67025001D01*
X118935052Y-67025001D02*
X119560051Y-67650000D01*
X119560051Y-67650000D02*
X120550000Y-67650000D01*
D41*
X113750000Y-62350324D02*
X114900000Y-63500324D01*
X114900000Y-63500324D02*
X114900000Y-64175000D01*
X113750000Y-60575000D02*
X113750000Y-62350324D01*
X114900000Y-64175000D02*
X116450000Y-64175000D01*
X114550000Y-60575000D02*
X114550000Y-61925000D01*
X115025000Y-62400000D02*
X115600000Y-62400000D01*
X114550000Y-61925000D02*
X115025000Y-62400000D01*
X111350000Y-60575000D02*
X111350000Y-62185674D01*
X111350000Y-62185674D02*
X110160673Y-63375001D01*
X110160673Y-63375001D02*
X106912003Y-63375001D01*
X106912003Y-63375001D02*
X104612001Y-61074999D01*
X104612001Y-61074999D02*
X98414003Y-61074999D01*
X95539002Y-60100000D02*
X94800000Y-60100000D01*
X98414003Y-61074999D02*
X98114001Y-61375001D01*
X98114001Y-61375001D02*
X96814003Y-61375001D01*
X94800000Y-60100000D02*
X94175000Y-60100000D01*
X96814003Y-61375001D02*
X95539002Y-60100000D01*
D43*
X115675000Y-47125000D02*
X115650000Y-47100000D01*
X115675000Y-48550000D02*
X115675000Y-47125000D01*
X115675000Y-48550000D02*
X114350000Y-48550000D01*
X156450000Y-41950000D02*
X156800000Y-41600000D01*
X156450000Y-43175000D02*
X156450000Y-41950000D01*
X154900000Y-41650000D02*
X155100000Y-41450000D01*
X154900000Y-43175000D02*
X154900000Y-41650000D01*
D42*
X154900000Y-44925000D02*
X156450000Y-44925000D01*
X136175000Y-51950000D02*
X136175000Y-52525000D01*
X136175000Y-52525000D02*
X135550000Y-53150000D01*
X135250000Y-48550000D02*
X135300000Y-48500000D01*
X121175000Y-48550000D02*
X135250000Y-48550000D01*
D41*
X116800000Y-53525000D02*
X132850000Y-53525000D01*
X132850000Y-53525000D02*
X134425000Y-51950000D01*
X134425000Y-51950000D02*
X135375010Y-50999990D01*
X143350000Y-48600000D02*
X143350000Y-47300000D01*
X135375010Y-50999990D02*
X140950010Y-50999990D01*
X140950010Y-50999990D02*
X143350000Y-48600000D01*
X116800000Y-54325000D02*
X142375000Y-54325000D01*
X142375000Y-54325000D02*
X143450000Y-55400000D01*
X143450000Y-55400000D02*
X143450000Y-56650000D01*
D43*
X147750000Y-46900000D02*
X147750000Y-45100000D01*
X135750000Y-43450000D02*
X135700000Y-43400000D01*
X137600000Y-43450000D02*
X135750000Y-43450000D01*
X152300000Y-44450000D02*
X152950000Y-45100000D01*
X150750000Y-44450000D02*
X152300000Y-44450000D01*
D41*
X145600000Y-45000000D02*
X146650000Y-46050000D01*
X146650000Y-46050000D02*
X146650000Y-47100000D01*
X143350000Y-44750000D02*
X144450000Y-45850000D01*
X144450000Y-45850000D02*
X144450000Y-47100000D01*
D42*
X106925000Y-39500000D02*
X120950000Y-39500000D01*
X99675000Y-46750000D02*
X106925000Y-39500000D01*
D43*
X101425000Y-46750000D02*
X102950000Y-46750000D01*
X97830000Y-51270000D02*
X97800000Y-51300000D01*
X97830000Y-49750000D02*
X97830000Y-51270000D01*
X114975000Y-50100000D02*
X114975000Y-49250000D01*
X114975000Y-49250000D02*
X115675000Y-48550000D01*
D41*
X117425000Y-48550000D02*
X119125000Y-48550000D01*
X116725000Y-50100000D02*
X116725000Y-49250000D01*
X116725000Y-49250000D02*
X117425000Y-48550000D01*
D43*
X114550000Y-52075000D02*
X114550000Y-50525000D01*
X114550000Y-50525000D02*
X114975000Y-50100000D01*
D41*
X115350000Y-52075000D02*
X115350000Y-51475000D01*
X115350000Y-51475000D02*
X116725000Y-50100000D01*
X119150000Y-57100000D02*
X121275000Y-57100000D01*
X119150000Y-60350000D02*
X121285000Y-60350000D01*
X116800000Y-58325000D02*
X117925000Y-58325000D01*
X117925000Y-58325000D02*
X119150000Y-57100000D01*
X116800000Y-59125000D02*
X117925000Y-59125000D01*
X117925000Y-59125000D02*
X119150000Y-60350000D01*
X94000000Y-63475000D02*
X95225003Y-63475000D01*
X95225003Y-63475000D02*
X95400000Y-63300003D01*
X110550000Y-61925000D02*
X110275000Y-62200000D01*
X110550000Y-60575000D02*
X110550000Y-61925000D01*
X110275000Y-62200000D02*
X108600000Y-62200000D01*
D43*
X97550000Y-57250000D02*
X97550000Y-58350000D01*
X97550000Y-58350000D02*
X97600000Y-58400000D01*
X96000000Y-58400000D02*
X97600000Y-58400000D01*
X97600000Y-58400000D02*
X107024999Y-58400000D01*
X95950000Y-59050000D02*
X97600000Y-59050000D01*
X97600000Y-59050000D02*
X107024999Y-59050000D01*
X97600000Y-59050000D02*
X97550000Y-59100000D01*
X97550000Y-59100000D02*
X97550000Y-60200000D01*
D41*
X103750000Y-62100000D02*
X104000000Y-62350000D01*
X101225000Y-62100000D02*
X103750000Y-62100000D01*
D43*
X95375000Y-61725000D02*
X95400000Y-61700000D01*
X94000000Y-61725000D02*
X95375000Y-61725000D01*
X92450000Y-61725000D02*
X94000000Y-61725000D01*
X90010000Y-60350000D02*
X91075000Y-60350000D01*
X91075000Y-60350000D02*
X92450000Y-61725000D01*
D41*
X92450000Y-63475000D02*
X91612500Y-63475000D01*
X91612500Y-63475000D02*
X89650000Y-61512500D01*
X89650000Y-61512500D02*
X87797500Y-61512500D01*
X87797500Y-61512500D02*
X87350000Y-61960000D01*
X87350000Y-59890000D02*
X87350000Y-61960000D01*
X87350000Y-58210000D02*
X87350000Y-59890000D01*
X87350000Y-56140000D02*
X87350000Y-58210000D01*
X89650000Y-56587500D02*
X87797500Y-56587500D01*
X87797500Y-56587500D02*
X87350000Y-56140000D01*
X94000000Y-63475000D02*
X92450000Y-63475000D01*
D43*
X90010000Y-59700000D02*
X92025000Y-59700000D01*
X92025000Y-59700000D02*
X92425000Y-60100000D01*
X90010000Y-58400000D02*
X96000000Y-58400000D01*
X90010000Y-59050000D02*
X95950000Y-59050000D01*
D42*
X99675000Y-46750000D02*
X97830000Y-46750000D01*
X97683500Y-48250000D02*
X99675000Y-48250000D01*
X95016500Y-48250000D02*
X97683500Y-48250000D01*
X95006500Y-48260000D02*
X95016500Y-48250000D01*
D43*
X107024999Y-59050000D02*
X107099999Y-59125000D01*
X107024999Y-58400000D02*
X107099999Y-58325000D01*
X107099999Y-59125000D02*
X108300000Y-59125000D01*
X107099999Y-58325000D02*
X108300000Y-58325000D01*
D41*
X102250000Y-55147052D02*
X102250000Y-50450000D01*
X108300000Y-57525000D02*
X104627948Y-57525000D01*
X104627948Y-57525000D02*
X102250000Y-55147052D01*
X104005851Y-55842229D02*
X104005851Y-50355851D01*
X108300000Y-56725000D02*
X104888622Y-56725000D01*
X104888622Y-56725000D02*
X104005851Y-55842229D01*
D43*
X101425000Y-48250000D02*
X102750000Y-48250000D01*
X102750000Y-48250000D02*
X102950000Y-48050000D01*
X99475000Y-62100000D02*
X99475000Y-64650000D01*
X99475000Y-64650000D02*
X99500000Y-64675000D01*
D44*
G36*
X104416001Y-49081779D02*
G01*
X104164800Y-49022861D01*
X103865529Y-49020771D01*
X103573231Y-49085037D01*
X103302435Y-49212464D01*
X103067831Y-49395758D01*
X102969312Y-49316547D01*
X102700321Y-49185350D01*
X102408949Y-49117010D01*
X102316190Y-49116362D01*
X102450750Y-48961071D01*
X102554854Y-48733112D01*
X102605913Y-48378000D01*
X101553000Y-48378000D01*
X101553000Y-49303594D01*
X101546584Y-49306613D01*
X101310749Y-49490868D01*
X101121595Y-49722793D01*
X100988525Y-49990861D01*
X100918153Y-50281749D01*
X100913974Y-50580999D01*
X100976198Y-50873738D01*
X101101730Y-51145417D01*
X101284335Y-51382533D01*
X101341001Y-51429411D01*
X101341000Y-55126877D01*
X101336535Y-55233399D01*
X101355181Y-55312896D01*
X101366262Y-55393796D01*
X101383498Y-55433624D01*
X101394485Y-55480473D01*
X101422316Y-55523329D01*
X101465171Y-55622360D01*
X101621902Y-55815908D01*
X101661426Y-55843996D01*
X103358429Y-57541000D01*
X98852622Y-57541000D01*
X98879590Y-57435967D01*
X98884265Y-57101230D01*
X98817763Y-56808519D01*
X98794038Y-56759000D01*
X99076767Y-56759000D01*
X99214933Y-56873301D01*
X99482066Y-57008238D01*
X99772454Y-57080640D01*
X100071668Y-57086908D01*
X100364834Y-57026730D01*
X100637383Y-56903097D01*
X100875768Y-56722152D01*
X101068141Y-56492892D01*
X101204941Y-56226707D01*
X101279590Y-55935967D01*
X101284265Y-55601230D01*
X101217763Y-55308519D01*
X101088448Y-55038618D01*
X100902551Y-54804075D01*
X100669312Y-54616547D01*
X100400321Y-54485350D01*
X100108949Y-54417010D01*
X99809678Y-54414920D01*
X99517380Y-54479186D01*
X99246584Y-54606613D01*
X99010749Y-54790868D01*
X98821595Y-55022793D01*
X98812557Y-55041000D01*
X93859000Y-55041000D01*
X93859000Y-53246231D01*
X93865027Y-53219597D01*
X93859000Y-53122459D01*
X93859000Y-53088395D01*
X93855272Y-53062365D01*
X93849791Y-52974015D01*
X93837904Y-52941090D01*
X93832941Y-52906432D01*
X93796299Y-52825843D01*
X93766108Y-52742213D01*
X93745792Y-52714757D01*
X93731099Y-52682442D01*
X93665832Y-52606697D01*
X93649687Y-52584877D01*
X93630495Y-52565686D01*
X93570484Y-52496040D01*
X93543098Y-52478289D01*
X92038609Y-50973801D01*
X92046380Y-50677041D01*
X92001956Y-50430147D01*
X91915094Y-50196581D01*
X91788244Y-49982089D01*
X91625414Y-49793449D01*
X91456214Y-49656435D01*
X91729512Y-49583205D01*
X91905165Y-49435815D01*
X91992815Y-49284000D01*
X92901520Y-49284000D01*
X93666727Y-49824145D01*
X93682684Y-49843164D01*
X93876314Y-49954956D01*
X93958144Y-49969385D01*
X93993239Y-49984000D01*
X94041029Y-49984000D01*
X94085476Y-49991837D01*
X95953089Y-49991837D01*
X95996116Y-49980307D01*
X96092736Y-49971868D01*
X96180777Y-49930829D01*
X96254012Y-49911205D01*
X96293584Y-49878000D01*
X96438163Y-49878000D01*
X96438163Y-50266588D01*
X96518795Y-50567512D01*
X96666185Y-50743165D01*
X96859814Y-50854956D01*
X97068976Y-50891837D01*
X97702000Y-50891837D01*
X97702000Y-49878000D01*
X97958000Y-49878000D01*
X97958000Y-50891837D01*
X98596588Y-50891837D01*
X98897512Y-50811205D01*
X99073165Y-50663815D01*
X99184956Y-50470186D01*
X99221837Y-50261024D01*
X99221837Y-49878000D01*
X97958000Y-49878000D01*
X97702000Y-49878000D01*
X96438163Y-49878000D01*
X96293584Y-49878000D01*
X96305861Y-49867699D01*
X96656859Y-49622000D01*
X99221837Y-49622000D01*
X99221837Y-49341349D01*
X99380930Y-49364224D01*
X99973604Y-49364224D01*
X100321931Y-49288450D01*
X100536638Y-49150467D01*
X100553967Y-49130468D01*
X100663929Y-49225750D01*
X100891888Y-49329854D01*
X101130930Y-49364224D01*
X101297000Y-49364224D01*
X101297000Y-48122000D01*
X102615459Y-48122000D01*
X102513450Y-47653070D01*
X102415905Y-47501285D01*
X102450750Y-47461071D01*
X102554854Y-47233112D01*
X102605913Y-46878000D01*
X101297000Y-46878000D01*
X101297000Y-46622000D01*
X102615459Y-46622000D01*
X102513450Y-46153070D01*
X102375467Y-45938362D01*
X102186071Y-45774250D01*
X102135940Y-45751356D01*
X104416002Y-43471294D01*
X104416001Y-49081779D01*
X104416001Y-49081779D01*
G37*
X104416001Y-49081779D02*
X104164800Y-49022861D01*
X103865529Y-49020771D01*
X103573231Y-49085037D01*
X103302435Y-49212464D01*
X103067831Y-49395758D01*
X102969312Y-49316547D01*
X102700321Y-49185350D01*
X102408949Y-49117010D01*
X102316190Y-49116362D01*
X102450750Y-48961071D01*
X102554854Y-48733112D01*
X102605913Y-48378000D01*
X101553000Y-48378000D01*
X101553000Y-49303594D01*
X101546584Y-49306613D01*
X101310749Y-49490868D01*
X101121595Y-49722793D01*
X100988525Y-49990861D01*
X100918153Y-50281749D01*
X100913974Y-50580999D01*
X100976198Y-50873738D01*
X101101730Y-51145417D01*
X101284335Y-51382533D01*
X101341001Y-51429411D01*
X101341000Y-55126877D01*
X101336535Y-55233399D01*
X101355181Y-55312896D01*
X101366262Y-55393796D01*
X101383498Y-55433624D01*
X101394485Y-55480473D01*
X101422316Y-55523329D01*
X101465171Y-55622360D01*
X101621902Y-55815908D01*
X101661426Y-55843996D01*
X103358429Y-57541000D01*
X98852622Y-57541000D01*
X98879590Y-57435967D01*
X98884265Y-57101230D01*
X98817763Y-56808519D01*
X98794038Y-56759000D01*
X99076767Y-56759000D01*
X99214933Y-56873301D01*
X99482066Y-57008238D01*
X99772454Y-57080640D01*
X100071668Y-57086908D01*
X100364834Y-57026730D01*
X100637383Y-56903097D01*
X100875768Y-56722152D01*
X101068141Y-56492892D01*
X101204941Y-56226707D01*
X101279590Y-55935967D01*
X101284265Y-55601230D01*
X101217763Y-55308519D01*
X101088448Y-55038618D01*
X100902551Y-54804075D01*
X100669312Y-54616547D01*
X100400321Y-54485350D01*
X100108949Y-54417010D01*
X99809678Y-54414920D01*
X99517380Y-54479186D01*
X99246584Y-54606613D01*
X99010749Y-54790868D01*
X98821595Y-55022793D01*
X98812557Y-55041000D01*
X93859000Y-55041000D01*
X93859000Y-53246231D01*
X93865027Y-53219597D01*
X93859000Y-53122459D01*
X93859000Y-53088395D01*
X93855272Y-53062365D01*
X93849791Y-52974015D01*
X93837904Y-52941090D01*
X93832941Y-52906432D01*
X93796299Y-52825843D01*
X93766108Y-52742213D01*
X93745792Y-52714757D01*
X93731099Y-52682442D01*
X93665832Y-52606697D01*
X93649687Y-52584877D01*
X93630495Y-52565686D01*
X93570484Y-52496040D01*
X93543098Y-52478289D01*
X92038609Y-50973801D01*
X92046380Y-50677041D01*
X92001956Y-50430147D01*
X91915094Y-50196581D01*
X91788244Y-49982089D01*
X91625414Y-49793449D01*
X91456214Y-49656435D01*
X91729512Y-49583205D01*
X91905165Y-49435815D01*
X91992815Y-49284000D01*
X92901520Y-49284000D01*
X93666727Y-49824145D01*
X93682684Y-49843164D01*
X93876314Y-49954956D01*
X93958144Y-49969385D01*
X93993239Y-49984000D01*
X94041029Y-49984000D01*
X94085476Y-49991837D01*
X95953089Y-49991837D01*
X95996116Y-49980307D01*
X96092736Y-49971868D01*
X96180777Y-49930829D01*
X96254012Y-49911205D01*
X96293584Y-49878000D01*
X96438163Y-49878000D01*
X96438163Y-50266588D01*
X96518795Y-50567512D01*
X96666185Y-50743165D01*
X96859814Y-50854956D01*
X97068976Y-50891837D01*
X97702000Y-50891837D01*
X97702000Y-49878000D01*
X97958000Y-49878000D01*
X97958000Y-50891837D01*
X98596588Y-50891837D01*
X98897512Y-50811205D01*
X99073165Y-50663815D01*
X99184956Y-50470186D01*
X99221837Y-50261024D01*
X99221837Y-49878000D01*
X97958000Y-49878000D01*
X97702000Y-49878000D01*
X96438163Y-49878000D01*
X96293584Y-49878000D01*
X96305861Y-49867699D01*
X96656859Y-49622000D01*
X99221837Y-49622000D01*
X99221837Y-49341349D01*
X99380930Y-49364224D01*
X99973604Y-49364224D01*
X100321931Y-49288450D01*
X100536638Y-49150467D01*
X100553967Y-49130468D01*
X100663929Y-49225750D01*
X100891888Y-49329854D01*
X101130930Y-49364224D01*
X101297000Y-49364224D01*
X101297000Y-48122000D01*
X102615459Y-48122000D01*
X102513450Y-47653070D01*
X102415905Y-47501285D01*
X102450750Y-47461071D01*
X102554854Y-47233112D01*
X102605913Y-46878000D01*
X101297000Y-46878000D01*
X101297000Y-46622000D01*
X102615459Y-46622000D01*
X102513450Y-46153070D01*
X102375467Y-45938362D01*
X102186071Y-45774250D01*
X102135940Y-45751356D01*
X104416002Y-43471294D01*
X104416001Y-49081779D01*
G36*
X114932645Y-41725173D02*
G01*
X114819513Y-41947208D01*
X114747489Y-42185766D01*
X114718847Y-42433310D01*
X114734494Y-42682013D01*
X114793934Y-42924014D01*
X114895291Y-43151664D01*
X114972980Y-43265979D01*
X114734844Y-43265979D01*
X114628322Y-43261514D01*
X114548825Y-43280159D01*
X114467926Y-43291241D01*
X114428098Y-43308477D01*
X114381249Y-43319464D01*
X114338391Y-43347297D01*
X114239362Y-43390150D01*
X114045815Y-43546882D01*
X114017732Y-43586398D01*
X110721531Y-46882601D01*
X110643026Y-46954789D01*
X110599993Y-47024194D01*
X110550629Y-47089229D01*
X110534656Y-47129572D01*
X110509295Y-47170474D01*
X110498671Y-47220459D01*
X110458948Y-47320786D01*
X110432916Y-47568470D01*
X110441001Y-47616273D01*
X110441001Y-48254583D01*
X110333949Y-48229474D01*
X110034678Y-48227384D01*
X109742380Y-48291650D01*
X109471584Y-48419077D01*
X109235749Y-48603332D01*
X109046595Y-48835257D01*
X108923980Y-49082263D01*
X108858949Y-49067010D01*
X108559678Y-49064920D01*
X108267380Y-49129186D01*
X107996584Y-49256613D01*
X107760749Y-49440868D01*
X107571595Y-49672793D01*
X107438525Y-49940861D01*
X107368153Y-50231749D01*
X107363974Y-50530999D01*
X107426198Y-50823738D01*
X107443433Y-50861039D01*
X107346584Y-50906613D01*
X107110749Y-51090868D01*
X106921595Y-51322793D01*
X106902259Y-51361746D01*
X106727199Y-51320686D01*
X106427928Y-51318596D01*
X106234001Y-51361234D01*
X106234001Y-42801517D01*
X107451518Y-41584001D01*
X115039801Y-41584001D01*
X114932645Y-41725173D01*
X114932645Y-41725173D01*
G37*
X114932645Y-41725173D02*
X114819513Y-41947208D01*
X114747489Y-42185766D01*
X114718847Y-42433310D01*
X114734494Y-42682013D01*
X114793934Y-42924014D01*
X114895291Y-43151664D01*
X114972980Y-43265979D01*
X114734844Y-43265979D01*
X114628322Y-43261514D01*
X114548825Y-43280159D01*
X114467926Y-43291241D01*
X114428098Y-43308477D01*
X114381249Y-43319464D01*
X114338391Y-43347297D01*
X114239362Y-43390150D01*
X114045815Y-43546882D01*
X114017732Y-43586398D01*
X110721531Y-46882601D01*
X110643026Y-46954789D01*
X110599993Y-47024194D01*
X110550629Y-47089229D01*
X110534656Y-47129572D01*
X110509295Y-47170474D01*
X110498671Y-47220459D01*
X110458948Y-47320786D01*
X110432916Y-47568470D01*
X110441001Y-47616273D01*
X110441001Y-48254583D01*
X110333949Y-48229474D01*
X110034678Y-48227384D01*
X109742380Y-48291650D01*
X109471584Y-48419077D01*
X109235749Y-48603332D01*
X109046595Y-48835257D01*
X108923980Y-49082263D01*
X108858949Y-49067010D01*
X108559678Y-49064920D01*
X108267380Y-49129186D01*
X107996584Y-49256613D01*
X107760749Y-49440868D01*
X107571595Y-49672793D01*
X107438525Y-49940861D01*
X107368153Y-50231749D01*
X107363974Y-50530999D01*
X107426198Y-50823738D01*
X107443433Y-50861039D01*
X107346584Y-50906613D01*
X107110749Y-51090868D01*
X106921595Y-51322793D01*
X106902259Y-51361746D01*
X106727199Y-51320686D01*
X106427928Y-51318596D01*
X106234001Y-51361234D01*
X106234001Y-42801517D01*
X107451518Y-41584001D01*
X115039801Y-41584001D01*
X114932645Y-41725173D01*
G36*
X135538525Y-38990861D02*
G01*
X135468153Y-39281749D01*
X135463974Y-39580999D01*
X135503298Y-39766001D01*
X122259041Y-39766001D01*
X122279590Y-39685967D01*
X122284265Y-39351230D01*
X122217763Y-39058519D01*
X122158103Y-38934000D01*
X135566751Y-38934000D01*
X135538525Y-38990861D01*
X135538525Y-38990861D01*
G37*
X135538525Y-38990861D02*
X135468153Y-39281749D01*
X135463974Y-39580999D01*
X135503298Y-39766001D01*
X122259041Y-39766001D01*
X122279590Y-39685967D01*
X122284265Y-39351230D01*
X122217763Y-39058519D01*
X122158103Y-38934000D01*
X135566751Y-38934000D01*
X135538525Y-38990861D01*
G36*
X163437013Y-66872332D02*
G01*
X163508450Y-67226624D01*
X163620136Y-67570357D01*
X163770589Y-67898975D01*
X163957816Y-68208123D01*
X164232167Y-68561813D01*
X168678932Y-64115048D01*
X168295933Y-63824337D01*
X167984842Y-63640358D01*
X167654666Y-63493354D01*
X167309782Y-63385275D01*
X166954762Y-63317550D01*
X166594310Y-63291081D01*
X166374247Y-63300305D01*
X166375199Y-63191148D01*
X166311396Y-62920186D01*
X166438165Y-62813815D01*
X166549956Y-62620186D01*
X166570642Y-62502868D01*
X166667136Y-62617864D01*
X166859349Y-62779150D01*
X167076651Y-62904609D01*
X167312436Y-62990429D01*
X167559541Y-63034000D01*
X167810459Y-63034000D01*
X168057564Y-62990429D01*
X168293349Y-62904609D01*
X168510651Y-62779150D01*
X168702864Y-62617864D01*
X168864150Y-62425651D01*
X168989609Y-62208349D01*
X169075429Y-61972564D01*
X169116000Y-61742472D01*
X169116000Y-64634538D01*
X169075056Y-64571489D01*
X168852977Y-64303043D01*
X166726019Y-66430000D01*
X168849907Y-68553887D01*
X168953368Y-68443705D01*
X169116000Y-68224721D01*
X169116000Y-71716000D01*
X86534000Y-71716000D01*
X86534000Y-68739348D01*
X86936672Y-68739348D01*
X87233086Y-68979379D01*
X87538244Y-69173038D01*
X87863640Y-69330341D01*
X88204958Y-69449201D01*
X88557676Y-69528042D01*
X88917119Y-69565821D01*
X89278521Y-69562037D01*
X89637093Y-69516738D01*
X89988083Y-69430527D01*
X90326837Y-69304545D01*
X90648867Y-69140463D01*
X90949903Y-68940455D01*
X91190833Y-68736853D01*
X89065000Y-66611019D01*
X86936672Y-68739348D01*
X86534000Y-68739348D01*
X86534000Y-68280555D01*
X86752167Y-68561813D01*
X88883981Y-66430000D01*
X86759658Y-64305678D01*
X86594569Y-64492935D01*
X86534000Y-64580083D01*
X86534000Y-63789337D01*
X87370446Y-63789337D01*
X87102172Y-63979989D01*
X86941068Y-64125049D01*
X88975905Y-66159885D01*
X91369907Y-68553887D01*
X91473368Y-68443705D01*
X91688856Y-68153551D01*
X91869567Y-67840550D01*
X92013104Y-67508853D01*
X92027418Y-67461443D01*
X96092462Y-67461443D01*
X97050000Y-68418981D01*
X98015969Y-67453012D01*
X97726157Y-67272969D01*
X97492899Y-67178016D01*
X97246977Y-67123721D01*
X96995424Y-67111638D01*
X96745431Y-67142113D01*
X96504147Y-67214272D01*
X96278470Y-67326053D01*
X96092462Y-67461443D01*
X92027418Y-67461443D01*
X92117567Y-67162857D01*
X92181921Y-66805190D01*
X92199329Y-66251263D01*
X92157560Y-65890262D01*
X92075029Y-65538389D01*
X91966606Y-65237231D01*
X96093788Y-65237231D01*
X96251960Y-65357509D01*
X96475246Y-65473992D01*
X96714966Y-65551190D01*
X96964266Y-65586892D01*
X97216017Y-65580080D01*
X97463022Y-65530948D01*
X97698216Y-65440901D01*
X98019497Y-65250516D01*
X97050000Y-64281019D01*
X96093788Y-65237231D01*
X91966606Y-65237231D01*
X91952601Y-65198333D01*
X91791900Y-64874604D01*
X91595056Y-64571489D01*
X91428100Y-64369674D01*
X91609685Y-64388759D01*
X91738929Y-64500750D01*
X91966888Y-64604854D01*
X92205930Y-64639224D01*
X92698604Y-64639224D01*
X93046931Y-64563450D01*
X93227424Y-64447455D01*
X93288929Y-64500750D01*
X93516888Y-64604854D01*
X93755930Y-64639224D01*
X94248604Y-64639224D01*
X94596931Y-64563450D01*
X94748959Y-64465748D01*
X94932066Y-64558241D01*
X95222454Y-64630643D01*
X95521668Y-64636911D01*
X95653208Y-64609909D01*
X95741123Y-64810662D01*
X95906712Y-65062269D01*
X96868981Y-64100000D01*
X97231019Y-64100000D01*
X98201807Y-65070788D01*
X98395393Y-64738840D01*
X98483796Y-64503022D01*
X98531318Y-64255082D01*
X98534240Y-63975974D01*
X98491922Y-63727094D01*
X98408477Y-63489476D01*
X98286187Y-63269314D01*
X98186235Y-63144784D01*
X97231019Y-64100000D01*
X96868981Y-64100000D01*
X98015969Y-62953012D01*
X97726157Y-62772969D01*
X97492899Y-62678016D01*
X97246977Y-62623721D01*
X96995424Y-62611638D01*
X96745431Y-62642113D01*
X96586806Y-62689552D01*
X96538448Y-62588622D01*
X96352551Y-62354078D01*
X96119312Y-62166550D01*
X95850321Y-62035353D01*
X95558949Y-61967013D01*
X95259678Y-61964923D01*
X95114224Y-61996903D01*
X95114224Y-61853000D01*
X93872000Y-61853000D01*
X93872000Y-61597000D01*
X95114224Y-61597000D01*
X95114224Y-61426396D01*
X95038450Y-61078069D01*
X95002626Y-61022325D01*
X95023360Y-61009000D01*
X95162484Y-61009000D01*
X96156953Y-62003470D01*
X96229143Y-62081976D01*
X96298544Y-62125007D01*
X96363581Y-62174372D01*
X96403919Y-62190342D01*
X96444827Y-62215706D01*
X96494815Y-62226332D01*
X96595139Y-62266053D01*
X96842824Y-62292085D01*
X96890621Y-62284001D01*
X98093827Y-62284001D01*
X98200349Y-62288466D01*
X98279847Y-62269820D01*
X98310776Y-62265583D01*
X98310776Y-62348604D01*
X98386550Y-62696931D01*
X98524533Y-62911638D01*
X98713929Y-63075750D01*
X98941888Y-63179854D01*
X99180930Y-63214224D01*
X99347000Y-63214224D01*
X99347000Y-61983999D01*
X99603000Y-61983999D01*
X99603000Y-63214224D01*
X99773604Y-63214224D01*
X100121931Y-63138450D01*
X100336638Y-63000467D01*
X100353967Y-62980468D01*
X100463929Y-63075750D01*
X100691888Y-63179854D01*
X100930930Y-63214224D01*
X101523604Y-63214224D01*
X101871931Y-63138450D01*
X102073360Y-63009000D01*
X102541013Y-63009000D01*
X102399120Y-63154656D01*
X102256293Y-63362083D01*
X102150457Y-63590609D01*
X102084639Y-63833699D01*
X102060720Y-64084404D01*
X102079384Y-64335554D01*
X102140097Y-64579970D01*
X102241123Y-64810662D01*
X102379575Y-65021033D01*
X102551493Y-65205071D01*
X102751960Y-65357510D01*
X102975246Y-65473992D01*
X103214966Y-65551190D01*
X103464266Y-65586892D01*
X103716017Y-65580080D01*
X103963022Y-65530948D01*
X104198216Y-65440901D01*
X104414877Y-65312512D01*
X104606807Y-65149455D01*
X104768521Y-64956391D01*
X104895393Y-64738840D01*
X104983796Y-64503022D01*
X105031318Y-64255082D01*
X105034240Y-63975974D01*
X104991922Y-63727094D01*
X104908477Y-63489476D01*
X104848228Y-63381008D01*
X104925768Y-63322152D01*
X105118141Y-63092892D01*
X105194940Y-62943456D01*
X106254953Y-64003470D01*
X106327143Y-64081976D01*
X106396544Y-64125007D01*
X106461580Y-64174372D01*
X106501923Y-64190345D01*
X106542828Y-64215707D01*
X106592815Y-64226332D01*
X106693138Y-64266053D01*
X106940823Y-64292085D01*
X106988620Y-64284001D01*
X110140499Y-64284001D01*
X110247021Y-64288466D01*
X110317224Y-64272000D01*
X111403000Y-64272000D01*
X111403000Y-64528000D01*
X110084541Y-64528000D01*
X110186550Y-64996930D01*
X110324533Y-65211638D01*
X110513929Y-65375750D01*
X110560328Y-65396939D01*
X110538525Y-65440861D01*
X110468153Y-65731749D01*
X110463974Y-66030999D01*
X110526198Y-66323738D01*
X110651730Y-66595417D01*
X110834335Y-66832533D01*
X111064933Y-67023301D01*
X111332066Y-67158238D01*
X111622454Y-67230640D01*
X111921668Y-67236908D01*
X112214834Y-67176730D01*
X112487383Y-67053097D01*
X112725768Y-66872152D01*
X112778759Y-66809000D01*
X113184744Y-66809000D01*
X113291266Y-66813465D01*
X113370764Y-66794819D01*
X113451661Y-66783738D01*
X113491492Y-66766503D01*
X113538340Y-66755514D01*
X113581194Y-66727684D01*
X113680227Y-66684829D01*
X113855274Y-66543078D01*
X113861550Y-66571930D01*
X113999533Y-66786638D01*
X114188929Y-66950750D01*
X114416888Y-67054854D01*
X114772000Y-67105913D01*
X114772000Y-65797000D01*
X115028000Y-65797000D01*
X115028000Y-67115459D01*
X115496930Y-67013450D01*
X115677424Y-66897455D01*
X115738929Y-66950750D01*
X115966888Y-67054854D01*
X116322000Y-67105913D01*
X116322000Y-65797000D01*
X116578000Y-65797000D01*
X116578000Y-67115459D01*
X117046930Y-67013450D01*
X117261638Y-66875467D01*
X117425750Y-66686071D01*
X117529854Y-66458112D01*
X117553548Y-66293320D01*
X117682066Y-66358238D01*
X117972454Y-66430640D01*
X118271668Y-66436908D01*
X118564834Y-66376730D01*
X118837383Y-66253097D01*
X119075768Y-66072152D01*
X119268141Y-65842892D01*
X119404941Y-65576707D01*
X119479590Y-65285967D01*
X119484265Y-64951230D01*
X119417763Y-64658519D01*
X119288448Y-64388618D01*
X119185860Y-64259184D01*
X119472454Y-64330640D01*
X119771668Y-64336908D01*
X120064834Y-64276730D01*
X120337383Y-64153097D01*
X120575768Y-63972152D01*
X120768141Y-63742892D01*
X120904941Y-63476707D01*
X120979590Y-63185968D01*
X120982848Y-62952671D01*
X121626519Y-62309000D01*
X125991801Y-62309000D01*
X125968153Y-62406749D01*
X125963974Y-62705999D01*
X126026198Y-62998738D01*
X126151730Y-63270417D01*
X126334335Y-63507533D01*
X126564933Y-63698301D01*
X126832066Y-63833238D01*
X127122454Y-63905640D01*
X127165712Y-63906546D01*
X127163974Y-64030998D01*
X127226198Y-64323738D01*
X127351730Y-64595417D01*
X127534335Y-64832533D01*
X127764933Y-65023301D01*
X128032066Y-65158238D01*
X128322454Y-65230640D01*
X128549316Y-65235392D01*
X128600720Y-65291293D01*
X128588525Y-65315860D01*
X128518153Y-65606748D01*
X128513974Y-65905998D01*
X128576198Y-66198737D01*
X128701730Y-66470416D01*
X128884335Y-66707532D01*
X129114933Y-66898300D01*
X129382066Y-67033237D01*
X129672454Y-67105639D01*
X129971668Y-67111907D01*
X130264834Y-67051729D01*
X130537383Y-66928096D01*
X130775768Y-66747151D01*
X130828759Y-66683999D01*
X159754825Y-66683999D01*
X159861347Y-66688464D01*
X159940845Y-66669818D01*
X160021742Y-66658737D01*
X160061573Y-66641502D01*
X160108421Y-66630513D01*
X160151275Y-66602683D01*
X160250308Y-66559828D01*
X160443855Y-66403096D01*
X160471943Y-66363573D01*
X163328658Y-63506859D01*
X163455024Y-63493577D01*
X163574642Y-63450512D01*
X157934156Y-69090999D01*
X119311465Y-69090999D01*
X119364618Y-68919819D01*
X119397708Y-68670159D01*
X119388260Y-68418492D01*
X119336544Y-68172017D01*
X119244039Y-67937778D01*
X119113390Y-67722474D01*
X118948331Y-67532261D01*
X118753584Y-67372578D01*
X118534716Y-67247991D01*
X118295169Y-67161040D01*
X117955352Y-67116000D01*
X117846810Y-67116000D01*
X117659058Y-67131931D01*
X117415292Y-67195200D01*
X117185671Y-67298637D01*
X116976760Y-67439284D01*
X116794534Y-67613119D01*
X116644203Y-67815172D01*
X116637564Y-67828230D01*
X116573390Y-67722474D01*
X116408331Y-67532261D01*
X116213584Y-67372578D01*
X115994716Y-67247991D01*
X115755169Y-67161040D01*
X115415352Y-67116000D01*
X115306810Y-67116000D01*
X115119058Y-67131931D01*
X114875292Y-67195200D01*
X114645671Y-67298637D01*
X114436760Y-67439284D01*
X114254534Y-67613119D01*
X114104203Y-67815172D01*
X114097564Y-67828230D01*
X114033390Y-67722474D01*
X113868331Y-67532261D01*
X113673584Y-67372578D01*
X113454716Y-67247991D01*
X113215169Y-67161040D01*
X112958000Y-67126953D01*
X112958000Y-68728000D01*
X112702000Y-68728000D01*
X112702000Y-67100022D01*
X112335292Y-67195200D01*
X112105671Y-67298637D01*
X111896760Y-67439284D01*
X111714534Y-67613119D01*
X111564203Y-67815172D01*
X111557564Y-67828230D01*
X111493390Y-67722474D01*
X111328331Y-67532261D01*
X111133584Y-67372578D01*
X110914716Y-67247991D01*
X110675169Y-67161040D01*
X110335352Y-67116000D01*
X110226810Y-67116000D01*
X110039058Y-67131931D01*
X109795292Y-67195200D01*
X109565671Y-67298637D01*
X109356760Y-67439284D01*
X109202465Y-67586474D01*
X109161205Y-67432489D01*
X109013815Y-67256835D01*
X108820186Y-67145044D01*
X108611024Y-67108163D01*
X106883412Y-67108163D01*
X106582489Y-67188795D01*
X106406835Y-67336185D01*
X106295044Y-67529814D01*
X106258163Y-67738976D01*
X106258163Y-69341000D01*
X104835815Y-69341000D01*
X104895393Y-69238840D01*
X104983796Y-69003022D01*
X105031318Y-68755082D01*
X105034240Y-68475974D01*
X104991922Y-68227094D01*
X104908477Y-67989476D01*
X104786188Y-67769315D01*
X104628554Y-67572907D01*
X104440080Y-67405866D01*
X104226156Y-67272969D01*
X103992899Y-67178016D01*
X103746977Y-67123721D01*
X103495424Y-67111638D01*
X103245431Y-67142113D01*
X103004147Y-67214272D01*
X102778470Y-67326053D01*
X102574854Y-67474261D01*
X102399120Y-67654656D01*
X102256293Y-67862083D01*
X102150457Y-68090609D01*
X102084639Y-68333699D01*
X102060720Y-68584404D01*
X102079384Y-68835554D01*
X102140097Y-69079970D01*
X102241123Y-69310662D01*
X102261089Y-69341000D01*
X98335815Y-69341000D01*
X98395393Y-69238840D01*
X98483796Y-69003022D01*
X98531318Y-68755082D01*
X98534240Y-68475974D01*
X98491922Y-68227094D01*
X98408477Y-67989476D01*
X98286187Y-67769314D01*
X98186235Y-67644784D01*
X97050000Y-68781020D01*
X95909118Y-67640137D01*
X95756293Y-67862083D01*
X95650457Y-68090609D01*
X95584639Y-68333699D01*
X95560720Y-68584404D01*
X95579384Y-68835554D01*
X95630661Y-69041987D01*
X95334678Y-69039920D01*
X95042380Y-69104186D01*
X94771584Y-69231613D01*
X94535749Y-69415868D01*
X94346595Y-69647793D01*
X94213525Y-69915861D01*
X94143153Y-70206749D01*
X94138974Y-70505999D01*
X94201198Y-70798738D01*
X94326730Y-71070417D01*
X94509335Y-71307533D01*
X94739933Y-71498301D01*
X95007066Y-71633238D01*
X95297454Y-71705640D01*
X95596668Y-71711908D01*
X95889834Y-71651730D01*
X96162383Y-71528097D01*
X96319288Y-71409000D01*
X111908234Y-71409000D01*
X111975998Y-71417921D01*
X112043762Y-71409000D01*
X112043769Y-71409000D01*
X112245927Y-71382386D01*
X112497459Y-71278197D01*
X112652802Y-71158999D01*
X158294687Y-71158999D01*
X158362451Y-71167920D01*
X158430215Y-71158999D01*
X158430222Y-71158999D01*
X158632380Y-71132385D01*
X158883912Y-71028196D01*
X159099908Y-70862456D01*
X159141524Y-70808221D01*
X161210397Y-68739348D01*
X164416672Y-68739348D01*
X164713086Y-68979379D01*
X165018244Y-69173038D01*
X165343640Y-69330341D01*
X165684958Y-69449201D01*
X166037676Y-69528042D01*
X166397119Y-69565821D01*
X166758521Y-69562037D01*
X167117093Y-69516738D01*
X167468083Y-69430527D01*
X167806837Y-69304545D01*
X168128867Y-69140463D01*
X168429903Y-68940455D01*
X168670833Y-68736853D01*
X166545000Y-66611019D01*
X164416672Y-68739348D01*
X161210397Y-68739348D01*
X163409156Y-66540590D01*
X163437013Y-66872332D01*
X163437013Y-66872332D01*
G37*
X163437013Y-66872332D02*
X163508450Y-67226624D01*
X163620136Y-67570357D01*
X163770589Y-67898975D01*
X163957816Y-68208123D01*
X164232167Y-68561813D01*
X168678932Y-64115048D01*
X168295933Y-63824337D01*
X167984842Y-63640358D01*
X167654666Y-63493354D01*
X167309782Y-63385275D01*
X166954762Y-63317550D01*
X166594310Y-63291081D01*
X166374247Y-63300305D01*
X166375199Y-63191148D01*
X166311396Y-62920186D01*
X166438165Y-62813815D01*
X166549956Y-62620186D01*
X166570642Y-62502868D01*
X166667136Y-62617864D01*
X166859349Y-62779150D01*
X167076651Y-62904609D01*
X167312436Y-62990429D01*
X167559541Y-63034000D01*
X167810459Y-63034000D01*
X168057564Y-62990429D01*
X168293349Y-62904609D01*
X168510651Y-62779150D01*
X168702864Y-62617864D01*
X168864150Y-62425651D01*
X168989609Y-62208349D01*
X169075429Y-61972564D01*
X169116000Y-61742472D01*
X169116000Y-64634538D01*
X169075056Y-64571489D01*
X168852977Y-64303043D01*
X166726019Y-66430000D01*
X168849907Y-68553887D01*
X168953368Y-68443705D01*
X169116000Y-68224721D01*
X169116000Y-71716000D01*
X86534000Y-71716000D01*
X86534000Y-68739348D01*
X86936672Y-68739348D01*
X87233086Y-68979379D01*
X87538244Y-69173038D01*
X87863640Y-69330341D01*
X88204958Y-69449201D01*
X88557676Y-69528042D01*
X88917119Y-69565821D01*
X89278521Y-69562037D01*
X89637093Y-69516738D01*
X89988083Y-69430527D01*
X90326837Y-69304545D01*
X90648867Y-69140463D01*
X90949903Y-68940455D01*
X91190833Y-68736853D01*
X89065000Y-66611019D01*
X86936672Y-68739348D01*
X86534000Y-68739348D01*
X86534000Y-68280555D01*
X86752167Y-68561813D01*
X88883981Y-66430000D01*
X86759658Y-64305678D01*
X86594569Y-64492935D01*
X86534000Y-64580083D01*
X86534000Y-63789337D01*
X87370446Y-63789337D01*
X87102172Y-63979989D01*
X86941068Y-64125049D01*
X88975905Y-66159885D01*
X91369907Y-68553887D01*
X91473368Y-68443705D01*
X91688856Y-68153551D01*
X91869567Y-67840550D01*
X92013104Y-67508853D01*
X92027418Y-67461443D01*
X96092462Y-67461443D01*
X97050000Y-68418981D01*
X98015969Y-67453012D01*
X97726157Y-67272969D01*
X97492899Y-67178016D01*
X97246977Y-67123721D01*
X96995424Y-67111638D01*
X96745431Y-67142113D01*
X96504147Y-67214272D01*
X96278470Y-67326053D01*
X96092462Y-67461443D01*
X92027418Y-67461443D01*
X92117567Y-67162857D01*
X92181921Y-66805190D01*
X92199329Y-66251263D01*
X92157560Y-65890262D01*
X92075029Y-65538389D01*
X91966606Y-65237231D01*
X96093788Y-65237231D01*
X96251960Y-65357509D01*
X96475246Y-65473992D01*
X96714966Y-65551190D01*
X96964266Y-65586892D01*
X97216017Y-65580080D01*
X97463022Y-65530948D01*
X97698216Y-65440901D01*
X98019497Y-65250516D01*
X97050000Y-64281019D01*
X96093788Y-65237231D01*
X91966606Y-65237231D01*
X91952601Y-65198333D01*
X91791900Y-64874604D01*
X91595056Y-64571489D01*
X91428100Y-64369674D01*
X91609685Y-64388759D01*
X91738929Y-64500750D01*
X91966888Y-64604854D01*
X92205930Y-64639224D01*
X92698604Y-64639224D01*
X93046931Y-64563450D01*
X93227424Y-64447455D01*
X93288929Y-64500750D01*
X93516888Y-64604854D01*
X93755930Y-64639224D01*
X94248604Y-64639224D01*
X94596931Y-64563450D01*
X94748959Y-64465748D01*
X94932066Y-64558241D01*
X95222454Y-64630643D01*
X95521668Y-64636911D01*
X95653208Y-64609909D01*
X95741123Y-64810662D01*
X95906712Y-65062269D01*
X96868981Y-64100000D01*
X97231019Y-64100000D01*
X98201807Y-65070788D01*
X98395393Y-64738840D01*
X98483796Y-64503022D01*
X98531318Y-64255082D01*
X98534240Y-63975974D01*
X98491922Y-63727094D01*
X98408477Y-63489476D01*
X98286187Y-63269314D01*
X98186235Y-63144784D01*
X97231019Y-64100000D01*
X96868981Y-64100000D01*
X98015969Y-62953012D01*
X97726157Y-62772969D01*
X97492899Y-62678016D01*
X97246977Y-62623721D01*
X96995424Y-62611638D01*
X96745431Y-62642113D01*
X96586806Y-62689552D01*
X96538448Y-62588622D01*
X96352551Y-62354078D01*
X96119312Y-62166550D01*
X95850321Y-62035353D01*
X95558949Y-61967013D01*
X95259678Y-61964923D01*
X95114224Y-61996903D01*
X95114224Y-61853000D01*
X93872000Y-61853000D01*
X93872000Y-61597000D01*
X95114224Y-61597000D01*
X95114224Y-61426396D01*
X95038450Y-61078069D01*
X95002626Y-61022325D01*
X95023360Y-61009000D01*
X95162484Y-61009000D01*
X96156953Y-62003470D01*
X96229143Y-62081976D01*
X96298544Y-62125007D01*
X96363581Y-62174372D01*
X96403919Y-62190342D01*
X96444827Y-62215706D01*
X96494815Y-62226332D01*
X96595139Y-62266053D01*
X96842824Y-62292085D01*
X96890621Y-62284001D01*
X98093827Y-62284001D01*
X98200349Y-62288466D01*
X98279847Y-62269820D01*
X98310776Y-62265583D01*
X98310776Y-62348604D01*
X98386550Y-62696931D01*
X98524533Y-62911638D01*
X98713929Y-63075750D01*
X98941888Y-63179854D01*
X99180930Y-63214224D01*
X99347000Y-63214224D01*
X99347000Y-61983999D01*
X99603000Y-61983999D01*
X99603000Y-63214224D01*
X99773604Y-63214224D01*
X100121931Y-63138450D01*
X100336638Y-63000467D01*
X100353967Y-62980468D01*
X100463929Y-63075750D01*
X100691888Y-63179854D01*
X100930930Y-63214224D01*
X101523604Y-63214224D01*
X101871931Y-63138450D01*
X102073360Y-63009000D01*
X102541013Y-63009000D01*
X102399120Y-63154656D01*
X102256293Y-63362083D01*
X102150457Y-63590609D01*
X102084639Y-63833699D01*
X102060720Y-64084404D01*
X102079384Y-64335554D01*
X102140097Y-64579970D01*
X102241123Y-64810662D01*
X102379575Y-65021033D01*
X102551493Y-65205071D01*
X102751960Y-65357510D01*
X102975246Y-65473992D01*
X103214966Y-65551190D01*
X103464266Y-65586892D01*
X103716017Y-65580080D01*
X103963022Y-65530948D01*
X104198216Y-65440901D01*
X104414877Y-65312512D01*
X104606807Y-65149455D01*
X104768521Y-64956391D01*
X104895393Y-64738840D01*
X104983796Y-64503022D01*
X105031318Y-64255082D01*
X105034240Y-63975974D01*
X104991922Y-63727094D01*
X104908477Y-63489476D01*
X104848228Y-63381008D01*
X104925768Y-63322152D01*
X105118141Y-63092892D01*
X105194940Y-62943456D01*
X106254953Y-64003470D01*
X106327143Y-64081976D01*
X106396544Y-64125007D01*
X106461580Y-64174372D01*
X106501923Y-64190345D01*
X106542828Y-64215707D01*
X106592815Y-64226332D01*
X106693138Y-64266053D01*
X106940823Y-64292085D01*
X106988620Y-64284001D01*
X110140499Y-64284001D01*
X110247021Y-64288466D01*
X110317224Y-64272000D01*
X111403000Y-64272000D01*
X111403000Y-64528000D01*
X110084541Y-64528000D01*
X110186550Y-64996930D01*
X110324533Y-65211638D01*
X110513929Y-65375750D01*
X110560328Y-65396939D01*
X110538525Y-65440861D01*
X110468153Y-65731749D01*
X110463974Y-66030999D01*
X110526198Y-66323738D01*
X110651730Y-66595417D01*
X110834335Y-66832533D01*
X111064933Y-67023301D01*
X111332066Y-67158238D01*
X111622454Y-67230640D01*
X111921668Y-67236908D01*
X112214834Y-67176730D01*
X112487383Y-67053097D01*
X112725768Y-66872152D01*
X112778759Y-66809000D01*
X113184744Y-66809000D01*
X113291266Y-66813465D01*
X113370764Y-66794819D01*
X113451661Y-66783738D01*
X113491492Y-66766503D01*
X113538340Y-66755514D01*
X113581194Y-66727684D01*
X113680227Y-66684829D01*
X113855274Y-66543078D01*
X113861550Y-66571930D01*
X113999533Y-66786638D01*
X114188929Y-66950750D01*
X114416888Y-67054854D01*
X114772000Y-67105913D01*
X114772000Y-65797000D01*
X115028000Y-65797000D01*
X115028000Y-67115459D01*
X115496930Y-67013450D01*
X115677424Y-66897455D01*
X115738929Y-66950750D01*
X115966888Y-67054854D01*
X116322000Y-67105913D01*
X116322000Y-65797000D01*
X116578000Y-65797000D01*
X116578000Y-67115459D01*
X117046930Y-67013450D01*
X117261638Y-66875467D01*
X117425750Y-66686071D01*
X117529854Y-66458112D01*
X117553548Y-66293320D01*
X117682066Y-66358238D01*
X117972454Y-66430640D01*
X118271668Y-66436908D01*
X118564834Y-66376730D01*
X118837383Y-66253097D01*
X119075768Y-66072152D01*
X119268141Y-65842892D01*
X119404941Y-65576707D01*
X119479590Y-65285967D01*
X119484265Y-64951230D01*
X119417763Y-64658519D01*
X119288448Y-64388618D01*
X119185860Y-64259184D01*
X119472454Y-64330640D01*
X119771668Y-64336908D01*
X120064834Y-64276730D01*
X120337383Y-64153097D01*
X120575768Y-63972152D01*
X120768141Y-63742892D01*
X120904941Y-63476707D01*
X120979590Y-63185968D01*
X120982848Y-62952671D01*
X121626519Y-62309000D01*
X125991801Y-62309000D01*
X125968153Y-62406749D01*
X125963974Y-62705999D01*
X126026198Y-62998738D01*
X126151730Y-63270417D01*
X126334335Y-63507533D01*
X126564933Y-63698301D01*
X126832066Y-63833238D01*
X127122454Y-63905640D01*
X127165712Y-63906546D01*
X127163974Y-64030998D01*
X127226198Y-64323738D01*
X127351730Y-64595417D01*
X127534335Y-64832533D01*
X127764933Y-65023301D01*
X128032066Y-65158238D01*
X128322454Y-65230640D01*
X128549316Y-65235392D01*
X128600720Y-65291293D01*
X128588525Y-65315860D01*
X128518153Y-65606748D01*
X128513974Y-65905998D01*
X128576198Y-66198737D01*
X128701730Y-66470416D01*
X128884335Y-66707532D01*
X129114933Y-66898300D01*
X129382066Y-67033237D01*
X129672454Y-67105639D01*
X129971668Y-67111907D01*
X130264834Y-67051729D01*
X130537383Y-66928096D01*
X130775768Y-66747151D01*
X130828759Y-66683999D01*
X159754825Y-66683999D01*
X159861347Y-66688464D01*
X159940845Y-66669818D01*
X160021742Y-66658737D01*
X160061573Y-66641502D01*
X160108421Y-66630513D01*
X160151275Y-66602683D01*
X160250308Y-66559828D01*
X160443855Y-66403096D01*
X160471943Y-66363573D01*
X163328658Y-63506859D01*
X163455024Y-63493577D01*
X163574642Y-63450512D01*
X157934156Y-69090999D01*
X119311465Y-69090999D01*
X119364618Y-68919819D01*
X119397708Y-68670159D01*
X119388260Y-68418492D01*
X119336544Y-68172017D01*
X119244039Y-67937778D01*
X119113390Y-67722474D01*
X118948331Y-67532261D01*
X118753584Y-67372578D01*
X118534716Y-67247991D01*
X118295169Y-67161040D01*
X117955352Y-67116000D01*
X117846810Y-67116000D01*
X117659058Y-67131931D01*
X117415292Y-67195200D01*
X117185671Y-67298637D01*
X116976760Y-67439284D01*
X116794534Y-67613119D01*
X116644203Y-67815172D01*
X116637564Y-67828230D01*
X116573390Y-67722474D01*
X116408331Y-67532261D01*
X116213584Y-67372578D01*
X115994716Y-67247991D01*
X115755169Y-67161040D01*
X115415352Y-67116000D01*
X115306810Y-67116000D01*
X115119058Y-67131931D01*
X114875292Y-67195200D01*
X114645671Y-67298637D01*
X114436760Y-67439284D01*
X114254534Y-67613119D01*
X114104203Y-67815172D01*
X114097564Y-67828230D01*
X114033390Y-67722474D01*
X113868331Y-67532261D01*
X113673584Y-67372578D01*
X113454716Y-67247991D01*
X113215169Y-67161040D01*
X112958000Y-67126953D01*
X112958000Y-68728000D01*
X112702000Y-68728000D01*
X112702000Y-67100022D01*
X112335292Y-67195200D01*
X112105671Y-67298637D01*
X111896760Y-67439284D01*
X111714534Y-67613119D01*
X111564203Y-67815172D01*
X111557564Y-67828230D01*
X111493390Y-67722474D01*
X111328331Y-67532261D01*
X111133584Y-67372578D01*
X110914716Y-67247991D01*
X110675169Y-67161040D01*
X110335352Y-67116000D01*
X110226810Y-67116000D01*
X110039058Y-67131931D01*
X109795292Y-67195200D01*
X109565671Y-67298637D01*
X109356760Y-67439284D01*
X109202465Y-67586474D01*
X109161205Y-67432489D01*
X109013815Y-67256835D01*
X108820186Y-67145044D01*
X108611024Y-67108163D01*
X106883412Y-67108163D01*
X106582489Y-67188795D01*
X106406835Y-67336185D01*
X106295044Y-67529814D01*
X106258163Y-67738976D01*
X106258163Y-69341000D01*
X104835815Y-69341000D01*
X104895393Y-69238840D01*
X104983796Y-69003022D01*
X105031318Y-68755082D01*
X105034240Y-68475974D01*
X104991922Y-68227094D01*
X104908477Y-67989476D01*
X104786188Y-67769315D01*
X104628554Y-67572907D01*
X104440080Y-67405866D01*
X104226156Y-67272969D01*
X103992899Y-67178016D01*
X103746977Y-67123721D01*
X103495424Y-67111638D01*
X103245431Y-67142113D01*
X103004147Y-67214272D01*
X102778470Y-67326053D01*
X102574854Y-67474261D01*
X102399120Y-67654656D01*
X102256293Y-67862083D01*
X102150457Y-68090609D01*
X102084639Y-68333699D01*
X102060720Y-68584404D01*
X102079384Y-68835554D01*
X102140097Y-69079970D01*
X102241123Y-69310662D01*
X102261089Y-69341000D01*
X98335815Y-69341000D01*
X98395393Y-69238840D01*
X98483796Y-69003022D01*
X98531318Y-68755082D01*
X98534240Y-68475974D01*
X98491922Y-68227094D01*
X98408477Y-67989476D01*
X98286187Y-67769314D01*
X98186235Y-67644784D01*
X97050000Y-68781020D01*
X95909118Y-67640137D01*
X95756293Y-67862083D01*
X95650457Y-68090609D01*
X95584639Y-68333699D01*
X95560720Y-68584404D01*
X95579384Y-68835554D01*
X95630661Y-69041987D01*
X95334678Y-69039920D01*
X95042380Y-69104186D01*
X94771584Y-69231613D01*
X94535749Y-69415868D01*
X94346595Y-69647793D01*
X94213525Y-69915861D01*
X94143153Y-70206749D01*
X94138974Y-70505999D01*
X94201198Y-70798738D01*
X94326730Y-71070417D01*
X94509335Y-71307533D01*
X94739933Y-71498301D01*
X95007066Y-71633238D01*
X95297454Y-71705640D01*
X95596668Y-71711908D01*
X95889834Y-71651730D01*
X96162383Y-71528097D01*
X96319288Y-71409000D01*
X111908234Y-71409000D01*
X111975998Y-71417921D01*
X112043762Y-71409000D01*
X112043769Y-71409000D01*
X112245927Y-71382386D01*
X112497459Y-71278197D01*
X112652802Y-71158999D01*
X158294687Y-71158999D01*
X158362451Y-71167920D01*
X158430215Y-71158999D01*
X158430222Y-71158999D01*
X158632380Y-71132385D01*
X158883912Y-71028196D01*
X159099908Y-70862456D01*
X159141524Y-70808221D01*
X161210397Y-68739348D01*
X164416672Y-68739348D01*
X164713086Y-68979379D01*
X165018244Y-69173038D01*
X165343640Y-69330341D01*
X165684958Y-69449201D01*
X166037676Y-69528042D01*
X166397119Y-69565821D01*
X166758521Y-69562037D01*
X167117093Y-69516738D01*
X167468083Y-69430527D01*
X167806837Y-69304545D01*
X168128867Y-69140463D01*
X168429903Y-68940455D01*
X168670833Y-68736853D01*
X166545000Y-66611019D01*
X164416672Y-68739348D01*
X161210397Y-68739348D01*
X163409156Y-66540590D01*
X163437013Y-66872332D01*
G36*
X112041001Y-63428522D02*
G01*
X112036071Y-63424250D01*
X111808112Y-63320146D01*
X111569070Y-63285776D01*
X111535417Y-63285776D01*
X111978481Y-62842713D01*
X112041000Y-62785224D01*
X112041001Y-63428522D01*
X112041001Y-63428522D01*
G37*
X112041001Y-63428522D02*
X112036071Y-63424250D01*
X111808112Y-63320146D01*
X111569070Y-63285776D01*
X111535417Y-63285776D01*
X111978481Y-62842713D01*
X112041000Y-62785224D01*
X112041001Y-63428522D01*
G36*
X166324150Y-54805651D02*
G01*
X166415000Y-54648294D01*
X166568982Y-54914999D01*
X167503981Y-53980000D01*
X166568982Y-53045001D01*
X166415000Y-53311706D01*
X166324150Y-53154349D01*
X166162864Y-52962136D01*
X165970651Y-52800850D01*
X165813294Y-52710000D01*
X165970651Y-52619150D01*
X166162864Y-52457864D01*
X166324150Y-52265651D01*
X166415000Y-52108294D01*
X166505850Y-52265651D01*
X166667136Y-52457864D01*
X166859349Y-52619150D01*
X167016706Y-52710000D01*
X166750001Y-52863982D01*
X167685000Y-53798981D01*
X168619999Y-52863982D01*
X168353294Y-52710000D01*
X168510651Y-52619150D01*
X168702864Y-52457864D01*
X168864150Y-52265651D01*
X168989609Y-52048349D01*
X169075429Y-51812564D01*
X169116001Y-51582469D01*
X169116001Y-53837530D01*
X169075429Y-53607436D01*
X168989609Y-53371651D01*
X168801018Y-53045001D01*
X167866019Y-53980000D01*
X168801018Y-54914999D01*
X168989609Y-54588349D01*
X169075429Y-54352564D01*
X169116001Y-54122470D01*
X169116000Y-56377530D01*
X169075429Y-56147436D01*
X168989609Y-55911651D01*
X168801018Y-55585001D01*
X167866019Y-56520000D01*
X168801018Y-57454999D01*
X168989609Y-57128349D01*
X169075429Y-56892564D01*
X169116000Y-56662471D01*
X169116000Y-58917529D01*
X169075429Y-58687436D01*
X168989609Y-58451651D01*
X168801018Y-58125001D01*
X167866019Y-59060000D01*
X168801018Y-59994999D01*
X168989609Y-59668349D01*
X169075429Y-59432564D01*
X169116000Y-59202471D01*
X169116000Y-61457528D01*
X169075429Y-61227436D01*
X168989609Y-60991651D01*
X168864150Y-60774349D01*
X168702864Y-60582136D01*
X168510651Y-60420850D01*
X168353294Y-60330000D01*
X168619999Y-60176018D01*
X167685000Y-59241019D01*
X166750001Y-60176018D01*
X167016706Y-60330000D01*
X166859349Y-60420850D01*
X166667136Y-60582136D01*
X166565394Y-60703387D01*
X166506205Y-60482489D01*
X166358815Y-60306835D01*
X166165186Y-60195044D01*
X166074685Y-60179086D01*
X166079999Y-60176018D01*
X165145000Y-59241019D01*
X164210001Y-60176018D01*
X164226413Y-60185494D01*
X164027489Y-60238795D01*
X163851835Y-60386185D01*
X163740044Y-60579814D01*
X163703163Y-60788976D01*
X163703163Y-61358502D01*
X163478286Y-61272180D01*
X163205981Y-61237780D01*
X162973663Y-61264660D01*
X162941417Y-61202981D01*
X162759907Y-60997098D01*
X162534526Y-60840455D01*
X162278286Y-60742094D01*
X162005981Y-60707694D01*
X161733330Y-60739241D01*
X161476075Y-60834912D01*
X161249065Y-60989187D01*
X161065409Y-61193159D01*
X160935708Y-61435051D01*
X160868787Y-61695695D01*
X158873483Y-63690999D01*
X143019194Y-63690999D01*
X143175768Y-63572152D01*
X143368141Y-63342892D01*
X143504941Y-63076707D01*
X143579590Y-62785967D01*
X143584265Y-62451230D01*
X143551951Y-62309000D01*
X144666212Y-62309000D01*
X144684335Y-62332533D01*
X144914933Y-62523301D01*
X145182066Y-62658238D01*
X145472454Y-62730640D01*
X145771668Y-62736908D01*
X146064834Y-62676730D01*
X146337383Y-62553097D01*
X146575768Y-62372152D01*
X146768141Y-62142892D01*
X146904941Y-61876707D01*
X146979590Y-61585967D01*
X146984265Y-61251230D01*
X146917763Y-60958519D01*
X146788448Y-60688618D01*
X146602551Y-60454075D01*
X146369312Y-60266547D01*
X146100321Y-60135350D01*
X145808949Y-60067010D01*
X145509678Y-60064920D01*
X145217380Y-60129186D01*
X144946584Y-60256613D01*
X144710749Y-60440868D01*
X144669862Y-60491000D01*
X124214042Y-60491000D01*
X124215911Y-60478000D01*
X122907000Y-60478000D01*
X122907000Y-59235776D01*
X122736396Y-59235776D01*
X122388069Y-59311550D01*
X122173362Y-59449533D01*
X122156033Y-59469532D01*
X122046071Y-59374250D01*
X121818112Y-59270146D01*
X121579070Y-59235776D01*
X120986396Y-59235776D01*
X120651691Y-59308587D01*
X120611205Y-59157489D01*
X120463815Y-58981835D01*
X120270186Y-58870044D01*
X120061024Y-58833163D01*
X118918681Y-58833163D01*
X118810518Y-58725000D01*
X118918681Y-58616837D01*
X120066588Y-58616837D01*
X120367512Y-58536205D01*
X120543165Y-58388815D01*
X120654956Y-58195186D01*
X120663936Y-58144255D01*
X120741888Y-58179854D01*
X120980930Y-58214224D01*
X121573604Y-58214224D01*
X121921931Y-58138450D01*
X122136638Y-58000467D01*
X122153967Y-57980468D01*
X122263929Y-58075750D01*
X122491888Y-58179854D01*
X122730930Y-58214224D01*
X122897000Y-58214224D01*
X122897000Y-55985776D01*
X123153000Y-55985776D01*
X123153000Y-56972000D01*
X124215459Y-56972000D01*
X124113450Y-56503070D01*
X123975467Y-56288362D01*
X123786071Y-56124250D01*
X123558112Y-56020146D01*
X123319070Y-55985776D01*
X123153000Y-55985776D01*
X122897000Y-55985776D01*
X122726396Y-55985776D01*
X122378069Y-56061550D01*
X122163362Y-56199533D01*
X122146033Y-56219532D01*
X122036071Y-56124250D01*
X121808112Y-56020146D01*
X121569070Y-55985776D01*
X120976396Y-55985776D01*
X120651141Y-56056531D01*
X120611205Y-55907489D01*
X120463815Y-55731835D01*
X120270186Y-55620044D01*
X120061024Y-55583163D01*
X118233412Y-55583163D01*
X118228711Y-55584423D01*
X118218187Y-55545148D01*
X118241837Y-55411023D01*
X118241837Y-55234000D01*
X141998482Y-55234000D01*
X142189418Y-55424936D01*
X142056835Y-55536185D01*
X141945044Y-55729814D01*
X141908163Y-55938976D01*
X141908163Y-56547839D01*
X141766178Y-56532916D01*
X141718381Y-56541000D01*
X126981818Y-56541000D01*
X126952551Y-56504075D01*
X126719312Y-56316547D01*
X126450321Y-56185350D01*
X126158949Y-56117010D01*
X125859678Y-56114920D01*
X125567380Y-56179186D01*
X125296584Y-56306613D01*
X125060749Y-56490868D01*
X124871595Y-56722793D01*
X124738525Y-56990861D01*
X124668153Y-57281749D01*
X124667665Y-57316722D01*
X124409678Y-57314920D01*
X124186356Y-57364021D01*
X124205913Y-57228000D01*
X123153000Y-57228000D01*
X123153000Y-58214224D01*
X123282873Y-58214224D01*
X123218153Y-58481749D01*
X123213974Y-58780999D01*
X123276198Y-59073738D01*
X123352635Y-59239164D01*
X123329070Y-59235776D01*
X123163000Y-59235776D01*
X123163000Y-60222000D01*
X124225459Y-60222000D01*
X124161514Y-59928047D01*
X124372454Y-59980640D01*
X124671668Y-59986908D01*
X124964834Y-59926730D01*
X125237383Y-59803097D01*
X125475768Y-59622152D01*
X125528759Y-59559000D01*
X134316212Y-59559000D01*
X134334335Y-59582533D01*
X134564933Y-59773301D01*
X134832066Y-59908238D01*
X135122454Y-59980640D01*
X135421668Y-59986908D01*
X135714834Y-59926730D01*
X135987383Y-59803097D01*
X136225768Y-59622152D01*
X136418141Y-59392892D01*
X136554941Y-59126707D01*
X136604280Y-58934541D01*
X163711000Y-58934541D01*
X163711000Y-59185459D01*
X163754571Y-59432564D01*
X163840391Y-59668349D01*
X164028982Y-59994999D01*
X164963981Y-59060000D01*
X165326019Y-59060000D01*
X166261018Y-59994999D01*
X166415000Y-59728294D01*
X166568982Y-59994999D01*
X167503981Y-59060000D01*
X166568982Y-58125001D01*
X166415000Y-58391706D01*
X166261018Y-58125001D01*
X165326019Y-59060000D01*
X164963981Y-59060000D01*
X164028982Y-58125001D01*
X163840391Y-58451651D01*
X163754571Y-58687436D01*
X163711000Y-58934541D01*
X136604280Y-58934541D01*
X136629590Y-58835967D01*
X136634265Y-58501230D01*
X136601951Y-58359000D01*
X141418479Y-58359000D01*
X141512948Y-58453469D01*
X141585138Y-58531976D01*
X141654543Y-58575010D01*
X141719578Y-58624372D01*
X141759916Y-58640343D01*
X141800823Y-58665706D01*
X141850810Y-58676332D01*
X141951135Y-58716054D01*
X142198820Y-58742085D01*
X142246617Y-58734001D01*
X145279825Y-58734001D01*
X145386347Y-58738466D01*
X145465845Y-58719820D01*
X145546742Y-58708739D01*
X145586573Y-58691504D01*
X145633421Y-58680515D01*
X145676275Y-58652685D01*
X145775308Y-58609830D01*
X145968855Y-58453098D01*
X145996940Y-58413579D01*
X146677162Y-57733357D01*
X146846668Y-57736908D01*
X147139834Y-57676730D01*
X147412383Y-57553097D01*
X147616603Y-57398085D01*
X147688795Y-57667512D01*
X147836185Y-57843165D01*
X148029814Y-57954956D01*
X148238976Y-57991837D01*
X149022000Y-57991837D01*
X149022000Y-56778000D01*
X149278000Y-56778000D01*
X149278000Y-57991837D01*
X150066588Y-57991837D01*
X150245186Y-57943982D01*
X164210001Y-57943982D01*
X165145000Y-58878981D01*
X166079999Y-57943982D01*
X166750001Y-57943982D01*
X167685000Y-58878981D01*
X168619999Y-57943982D01*
X168353294Y-57790000D01*
X168619999Y-57636018D01*
X167685000Y-56701019D01*
X166750001Y-57636018D01*
X167016706Y-57790000D01*
X166750001Y-57943982D01*
X166079999Y-57943982D01*
X165813294Y-57790000D01*
X166079999Y-57636018D01*
X165145000Y-56701019D01*
X164210001Y-57636018D01*
X164476706Y-57790000D01*
X164210001Y-57943982D01*
X150245186Y-57943982D01*
X150367512Y-57911205D01*
X150543165Y-57763815D01*
X150616948Y-57636018D01*
X150654956Y-57570186D01*
X150691837Y-57361024D01*
X150691837Y-56778000D01*
X149278000Y-56778000D01*
X149022000Y-56778000D01*
X149022000Y-55308163D01*
X149278000Y-55308163D01*
X149278000Y-56522000D01*
X150691837Y-56522000D01*
X150691837Y-56394541D01*
X163711000Y-56394541D01*
X163711000Y-56645459D01*
X163754571Y-56892564D01*
X163840391Y-57128349D01*
X164028982Y-57454999D01*
X164963981Y-56520000D01*
X165326019Y-56520000D01*
X166261018Y-57454999D01*
X166415000Y-57188294D01*
X166568982Y-57454999D01*
X167503981Y-56520000D01*
X166568982Y-55585001D01*
X166415000Y-55851706D01*
X166261018Y-55585001D01*
X165326019Y-56520000D01*
X164963981Y-56520000D01*
X164028982Y-55585001D01*
X163840391Y-55911651D01*
X163754571Y-56147436D01*
X163711000Y-56394541D01*
X150691837Y-56394541D01*
X150691837Y-55933412D01*
X150611205Y-55632489D01*
X150463815Y-55456835D01*
X150270186Y-55345044D01*
X150061024Y-55308163D01*
X149278000Y-55308163D01*
X149022000Y-55308163D01*
X148233412Y-55308163D01*
X147932489Y-55388795D01*
X147756835Y-55536185D01*
X147750849Y-55546554D01*
X147677551Y-55454075D01*
X147444312Y-55266547D01*
X147175321Y-55135350D01*
X146883949Y-55067010D01*
X146584678Y-55064920D01*
X146292380Y-55129186D01*
X146021584Y-55256613D01*
X145785749Y-55440868D01*
X145596595Y-55672793D01*
X145463525Y-55940861D01*
X145393153Y-56231749D01*
X145390114Y-56449367D01*
X144991837Y-56847644D01*
X144991837Y-55933412D01*
X144911205Y-55632489D01*
X144763815Y-55456835D01*
X144570186Y-55345044D01*
X144362227Y-55308375D01*
X144344820Y-55234155D01*
X144333738Y-55153256D01*
X144316506Y-55113435D01*
X144305515Y-55066578D01*
X144277683Y-55023720D01*
X144234829Y-54924691D01*
X144078097Y-54731144D01*
X144038580Y-54703061D01*
X143032060Y-53696542D01*
X142959861Y-53618025D01*
X142890452Y-53574989D01*
X142825422Y-53525629D01*
X142785084Y-53509657D01*
X142744174Y-53484294D01*
X142694187Y-53473669D01*
X142593864Y-53433948D01*
X142346180Y-53407916D01*
X142298383Y-53416000D01*
X136859041Y-53416000D01*
X136879590Y-53335967D01*
X136880272Y-53287154D01*
X136912457Y-53262457D01*
X136965055Y-53193911D01*
X137078197Y-53046461D01*
X137111257Y-52966645D01*
X137111258Y-52966645D01*
X137155847Y-52859000D01*
X143304826Y-52859000D01*
X143411348Y-52863465D01*
X143490846Y-52844819D01*
X143571743Y-52833738D01*
X143611574Y-52816503D01*
X143658422Y-52805514D01*
X143701276Y-52777684D01*
X143800309Y-52734829D01*
X143993856Y-52578097D01*
X144021944Y-52538574D01*
X145524704Y-51035814D01*
X145590139Y-51106975D01*
X145659544Y-51150007D01*
X145724575Y-51199370D01*
X145764919Y-51215343D01*
X145805823Y-51240704D01*
X145855808Y-51251329D01*
X145956134Y-51291051D01*
X146203819Y-51317083D01*
X146251616Y-51308999D01*
X149404827Y-51308999D01*
X149511349Y-51313464D01*
X149590847Y-51294818D01*
X149671744Y-51283737D01*
X149711575Y-51266502D01*
X149758423Y-51255513D01*
X149801277Y-51227683D01*
X149900310Y-51184828D01*
X150093857Y-51028096D01*
X150121945Y-50988573D01*
X154601170Y-46509348D01*
X164416672Y-46509348D01*
X164713086Y-46749379D01*
X165018244Y-46943038D01*
X165343640Y-47100341D01*
X165684958Y-47219201D01*
X166037676Y-47298042D01*
X166397119Y-47335821D01*
X166758521Y-47332037D01*
X167117093Y-47286738D01*
X167468083Y-47200527D01*
X167806837Y-47074545D01*
X168128867Y-46910463D01*
X168429903Y-46710455D01*
X168670833Y-46506853D01*
X166545000Y-44381019D01*
X164416672Y-46509348D01*
X154601170Y-46509348D01*
X155021295Y-46089224D01*
X155148604Y-46089224D01*
X155496931Y-46013450D01*
X155581657Y-45959000D01*
X155756993Y-45959000D01*
X155966888Y-46054854D01*
X156205930Y-46089224D01*
X156698604Y-46089224D01*
X157046931Y-46013450D01*
X157261638Y-45875467D01*
X157425750Y-45686071D01*
X157529854Y-45458112D01*
X157564224Y-45219070D01*
X157564224Y-44626396D01*
X157489344Y-44282178D01*
X163406770Y-44282178D01*
X163437013Y-44642332D01*
X163508450Y-44996624D01*
X163620136Y-45340357D01*
X163770589Y-45668975D01*
X163957816Y-45978123D01*
X164232167Y-46331813D01*
X166363981Y-44200000D01*
X164239658Y-42075678D01*
X164074569Y-42262935D01*
X163868301Y-42559717D01*
X163697511Y-42878239D01*
X163564463Y-43214281D01*
X163470920Y-43563388D01*
X163418122Y-43920934D01*
X163406770Y-44282178D01*
X157489344Y-44282178D01*
X157488450Y-44278069D01*
X157350467Y-44063362D01*
X157330468Y-44046033D01*
X157425750Y-43936071D01*
X157529854Y-43708112D01*
X157564224Y-43469070D01*
X157564224Y-43303000D01*
X156322000Y-43303000D01*
X156322000Y-43047000D01*
X156322000Y-41994087D01*
X156578000Y-41994087D01*
X156578000Y-43047000D01*
X157564224Y-43047000D01*
X157564224Y-42876396D01*
X157488450Y-42528069D01*
X157350467Y-42313362D01*
X157161071Y-42149250D01*
X156933112Y-42045146D01*
X156578000Y-41994087D01*
X156322000Y-41994087D01*
X156322000Y-41984541D01*
X155853070Y-42086550D01*
X155672576Y-42202545D01*
X155611071Y-42149250D01*
X155383112Y-42045146D01*
X155028000Y-41994087D01*
X155028000Y-43303000D01*
X153785776Y-43303000D01*
X153785776Y-43473604D01*
X153861550Y-43821931D01*
X153999533Y-44036638D01*
X154019532Y-44053967D01*
X153924250Y-44163929D01*
X153820146Y-44391888D01*
X153785776Y-44630930D01*
X153785776Y-44753704D01*
X150991837Y-47547644D01*
X150991837Y-46333412D01*
X150913710Y-46041837D01*
X151466588Y-46041837D01*
X151767512Y-45961205D01*
X151943165Y-45813815D01*
X152054956Y-45620186D01*
X152091837Y-45411024D01*
X152091837Y-44578000D01*
X150622000Y-44578000D01*
X150622000Y-42858163D01*
X150878000Y-42858163D01*
X150878000Y-44322000D01*
X152091837Y-44322000D01*
X152091837Y-43483412D01*
X152011205Y-43182489D01*
X151863815Y-43006835D01*
X151670186Y-42895044D01*
X151590142Y-42880930D01*
X153785776Y-42880930D01*
X153785776Y-43047000D01*
X154772000Y-43047000D01*
X154772000Y-41984541D01*
X154303070Y-42086550D01*
X154088362Y-42224533D01*
X153924250Y-42413929D01*
X153820146Y-42641888D01*
X153785776Y-42880930D01*
X151590142Y-42880930D01*
X151461024Y-42858163D01*
X150878000Y-42858163D01*
X150622000Y-42858163D01*
X150033412Y-42858163D01*
X149983999Y-42871403D01*
X149983999Y-42351520D01*
X150440470Y-41895049D01*
X164421068Y-41895049D01*
X166545000Y-44018981D01*
X168678932Y-41885048D01*
X168295933Y-41594337D01*
X167984842Y-41410358D01*
X167654666Y-41263354D01*
X167309782Y-41155275D01*
X166954762Y-41087550D01*
X166594310Y-41061081D01*
X166233205Y-41076216D01*
X165876233Y-41132755D01*
X165528124Y-41229948D01*
X165193494Y-41366508D01*
X164876778Y-41540624D01*
X164582172Y-41749989D01*
X164421068Y-41895049D01*
X150440470Y-41895049D01*
X150752162Y-41583357D01*
X150921668Y-41586908D01*
X151214834Y-41526730D01*
X151487383Y-41403097D01*
X151725768Y-41222152D01*
X151918141Y-40992892D01*
X152054941Y-40726707D01*
X152129590Y-40435967D01*
X152134265Y-40101230D01*
X152067763Y-39808519D01*
X151938448Y-39538618D01*
X151752551Y-39304075D01*
X151519312Y-39116547D01*
X151250321Y-38985350D01*
X151031387Y-38934000D01*
X169116001Y-38934000D01*
X169116001Y-42404539D01*
X169075056Y-42341489D01*
X168852977Y-42073043D01*
X166726019Y-44200000D01*
X168849907Y-46323887D01*
X168953368Y-46213705D01*
X169116001Y-45994720D01*
X169116001Y-48757532D01*
X169075429Y-48527436D01*
X168989609Y-48291651D01*
X168864150Y-48074349D01*
X168702864Y-47882136D01*
X168510651Y-47720850D01*
X168293349Y-47595391D01*
X168057564Y-47509571D01*
X167810459Y-47466000D01*
X167559541Y-47466000D01*
X167312436Y-47509571D01*
X167076651Y-47595391D01*
X166859349Y-47720850D01*
X166667136Y-47882136D01*
X166505850Y-48074349D01*
X166415000Y-48231706D01*
X166324150Y-48074349D01*
X166162864Y-47882136D01*
X165970651Y-47720850D01*
X165753349Y-47595391D01*
X165517564Y-47509571D01*
X165270459Y-47466000D01*
X165019541Y-47466000D01*
X164772436Y-47509571D01*
X164536651Y-47595391D01*
X164319349Y-47720850D01*
X164127136Y-47882136D01*
X163965850Y-48074349D01*
X163840391Y-48291651D01*
X163754571Y-48527436D01*
X163711000Y-48774541D01*
X163711000Y-49025459D01*
X163754571Y-49272564D01*
X163840391Y-49508349D01*
X163965850Y-49725651D01*
X164127136Y-49917864D01*
X164319349Y-50079150D01*
X164476706Y-50170000D01*
X164319349Y-50260850D01*
X164127136Y-50422136D01*
X163965850Y-50614349D01*
X163840391Y-50831651D01*
X163754571Y-51067436D01*
X163711000Y-51314541D01*
X163711000Y-51565459D01*
X163754571Y-51812564D01*
X163840391Y-52048349D01*
X163965850Y-52265651D01*
X164127136Y-52457864D01*
X164319349Y-52619150D01*
X164476706Y-52710000D01*
X164319349Y-52800850D01*
X164127136Y-52962136D01*
X163965850Y-53154349D01*
X163840391Y-53371651D01*
X163754571Y-53607436D01*
X163711000Y-53854541D01*
X163711000Y-54105459D01*
X163754571Y-54352564D01*
X163840391Y-54588349D01*
X163965850Y-54805651D01*
X164127136Y-54997864D01*
X164319349Y-55159150D01*
X164476706Y-55250000D01*
X164210001Y-55403982D01*
X165145000Y-56338981D01*
X166079999Y-55403982D01*
X166750001Y-55403982D01*
X167685000Y-56338981D01*
X168619999Y-55403982D01*
X168353294Y-55250000D01*
X168619999Y-55096018D01*
X167685000Y-54161019D01*
X166750001Y-55096018D01*
X167016706Y-55250000D01*
X166750001Y-55403982D01*
X166079999Y-55403982D01*
X165813294Y-55250000D01*
X165970651Y-55159150D01*
X166045888Y-55096018D01*
X166162864Y-54997864D01*
X166324150Y-54805651D01*
X166324150Y-54805651D01*
G37*
X166324150Y-54805651D02*
X166415000Y-54648294D01*
X166568982Y-54914999D01*
X167503981Y-53980000D01*
X166568982Y-53045001D01*
X166415000Y-53311706D01*
X166324150Y-53154349D01*
X166162864Y-52962136D01*
X165970651Y-52800850D01*
X165813294Y-52710000D01*
X165970651Y-52619150D01*
X166162864Y-52457864D01*
X166324150Y-52265651D01*
X166415000Y-52108294D01*
X166505850Y-52265651D01*
X166667136Y-52457864D01*
X166859349Y-52619150D01*
X167016706Y-52710000D01*
X166750001Y-52863982D01*
X167685000Y-53798981D01*
X168619999Y-52863982D01*
X168353294Y-52710000D01*
X168510651Y-52619150D01*
X168702864Y-52457864D01*
X168864150Y-52265651D01*
X168989609Y-52048349D01*
X169075429Y-51812564D01*
X169116001Y-51582469D01*
X169116001Y-53837530D01*
X169075429Y-53607436D01*
X168989609Y-53371651D01*
X168801018Y-53045001D01*
X167866019Y-53980000D01*
X168801018Y-54914999D01*
X168989609Y-54588349D01*
X169075429Y-54352564D01*
X169116001Y-54122470D01*
X169116000Y-56377530D01*
X169075429Y-56147436D01*
X168989609Y-55911651D01*
X168801018Y-55585001D01*
X167866019Y-56520000D01*
X168801018Y-57454999D01*
X168989609Y-57128349D01*
X169075429Y-56892564D01*
X169116000Y-56662471D01*
X169116000Y-58917529D01*
X169075429Y-58687436D01*
X168989609Y-58451651D01*
X168801018Y-58125001D01*
X167866019Y-59060000D01*
X168801018Y-59994999D01*
X168989609Y-59668349D01*
X169075429Y-59432564D01*
X169116000Y-59202471D01*
X169116000Y-61457528D01*
X169075429Y-61227436D01*
X168989609Y-60991651D01*
X168864150Y-60774349D01*
X168702864Y-60582136D01*
X168510651Y-60420850D01*
X168353294Y-60330000D01*
X168619999Y-60176018D01*
X167685000Y-59241019D01*
X166750001Y-60176018D01*
X167016706Y-60330000D01*
X166859349Y-60420850D01*
X166667136Y-60582136D01*
X166565394Y-60703387D01*
X166506205Y-60482489D01*
X166358815Y-60306835D01*
X166165186Y-60195044D01*
X166074685Y-60179086D01*
X166079999Y-60176018D01*
X165145000Y-59241019D01*
X164210001Y-60176018D01*
X164226413Y-60185494D01*
X164027489Y-60238795D01*
X163851835Y-60386185D01*
X163740044Y-60579814D01*
X163703163Y-60788976D01*
X163703163Y-61358502D01*
X163478286Y-61272180D01*
X163205981Y-61237780D01*
X162973663Y-61264660D01*
X162941417Y-61202981D01*
X162759907Y-60997098D01*
X162534526Y-60840455D01*
X162278286Y-60742094D01*
X162005981Y-60707694D01*
X161733330Y-60739241D01*
X161476075Y-60834912D01*
X161249065Y-60989187D01*
X161065409Y-61193159D01*
X160935708Y-61435051D01*
X160868787Y-61695695D01*
X158873483Y-63690999D01*
X143019194Y-63690999D01*
X143175768Y-63572152D01*
X143368141Y-63342892D01*
X143504941Y-63076707D01*
X143579590Y-62785967D01*
X143584265Y-62451230D01*
X143551951Y-62309000D01*
X144666212Y-62309000D01*
X144684335Y-62332533D01*
X144914933Y-62523301D01*
X145182066Y-62658238D01*
X145472454Y-62730640D01*
X145771668Y-62736908D01*
X146064834Y-62676730D01*
X146337383Y-62553097D01*
X146575768Y-62372152D01*
X146768141Y-62142892D01*
X146904941Y-61876707D01*
X146979590Y-61585967D01*
X146984265Y-61251230D01*
X146917763Y-60958519D01*
X146788448Y-60688618D01*
X146602551Y-60454075D01*
X146369312Y-60266547D01*
X146100321Y-60135350D01*
X145808949Y-60067010D01*
X145509678Y-60064920D01*
X145217380Y-60129186D01*
X144946584Y-60256613D01*
X144710749Y-60440868D01*
X144669862Y-60491000D01*
X124214042Y-60491000D01*
X124215911Y-60478000D01*
X122907000Y-60478000D01*
X122907000Y-59235776D01*
X122736396Y-59235776D01*
X122388069Y-59311550D01*
X122173362Y-59449533D01*
X122156033Y-59469532D01*
X122046071Y-59374250D01*
X121818112Y-59270146D01*
X121579070Y-59235776D01*
X120986396Y-59235776D01*
X120651691Y-59308587D01*
X120611205Y-59157489D01*
X120463815Y-58981835D01*
X120270186Y-58870044D01*
X120061024Y-58833163D01*
X118918681Y-58833163D01*
X118810518Y-58725000D01*
X118918681Y-58616837D01*
X120066588Y-58616837D01*
X120367512Y-58536205D01*
X120543165Y-58388815D01*
X120654956Y-58195186D01*
X120663936Y-58144255D01*
X120741888Y-58179854D01*
X120980930Y-58214224D01*
X121573604Y-58214224D01*
X121921931Y-58138450D01*
X122136638Y-58000467D01*
X122153967Y-57980468D01*
X122263929Y-58075750D01*
X122491888Y-58179854D01*
X122730930Y-58214224D01*
X122897000Y-58214224D01*
X122897000Y-55985776D01*
X123153000Y-55985776D01*
X123153000Y-56972000D01*
X124215459Y-56972000D01*
X124113450Y-56503070D01*
X123975467Y-56288362D01*
X123786071Y-56124250D01*
X123558112Y-56020146D01*
X123319070Y-55985776D01*
X123153000Y-55985776D01*
X122897000Y-55985776D01*
X122726396Y-55985776D01*
X122378069Y-56061550D01*
X122163362Y-56199533D01*
X122146033Y-56219532D01*
X122036071Y-56124250D01*
X121808112Y-56020146D01*
X121569070Y-55985776D01*
X120976396Y-55985776D01*
X120651141Y-56056531D01*
X120611205Y-55907489D01*
X120463815Y-55731835D01*
X120270186Y-55620044D01*
X120061024Y-55583163D01*
X118233412Y-55583163D01*
X118228711Y-55584423D01*
X118218187Y-55545148D01*
X118241837Y-55411023D01*
X118241837Y-55234000D01*
X141998482Y-55234000D01*
X142189418Y-55424936D01*
X142056835Y-55536185D01*
X141945044Y-55729814D01*
X141908163Y-55938976D01*
X141908163Y-56547839D01*
X141766178Y-56532916D01*
X141718381Y-56541000D01*
X126981818Y-56541000D01*
X126952551Y-56504075D01*
X126719312Y-56316547D01*
X126450321Y-56185350D01*
X126158949Y-56117010D01*
X125859678Y-56114920D01*
X125567380Y-56179186D01*
X125296584Y-56306613D01*
X125060749Y-56490868D01*
X124871595Y-56722793D01*
X124738525Y-56990861D01*
X124668153Y-57281749D01*
X124667665Y-57316722D01*
X124409678Y-57314920D01*
X124186356Y-57364021D01*
X124205913Y-57228000D01*
X123153000Y-57228000D01*
X123153000Y-58214224D01*
X123282873Y-58214224D01*
X123218153Y-58481749D01*
X123213974Y-58780999D01*
X123276198Y-59073738D01*
X123352635Y-59239164D01*
X123329070Y-59235776D01*
X123163000Y-59235776D01*
X123163000Y-60222000D01*
X124225459Y-60222000D01*
X124161514Y-59928047D01*
X124372454Y-59980640D01*
X124671668Y-59986908D01*
X124964834Y-59926730D01*
X125237383Y-59803097D01*
X125475768Y-59622152D01*
X125528759Y-59559000D01*
X134316212Y-59559000D01*
X134334335Y-59582533D01*
X134564933Y-59773301D01*
X134832066Y-59908238D01*
X135122454Y-59980640D01*
X135421668Y-59986908D01*
X135714834Y-59926730D01*
X135987383Y-59803097D01*
X136225768Y-59622152D01*
X136418141Y-59392892D01*
X136554941Y-59126707D01*
X136604280Y-58934541D01*
X163711000Y-58934541D01*
X163711000Y-59185459D01*
X163754571Y-59432564D01*
X163840391Y-59668349D01*
X164028982Y-59994999D01*
X164963981Y-59060000D01*
X165326019Y-59060000D01*
X166261018Y-59994999D01*
X166415000Y-59728294D01*
X166568982Y-59994999D01*
X167503981Y-59060000D01*
X166568982Y-58125001D01*
X166415000Y-58391706D01*
X166261018Y-58125001D01*
X165326019Y-59060000D01*
X164963981Y-59060000D01*
X164028982Y-58125001D01*
X163840391Y-58451651D01*
X163754571Y-58687436D01*
X163711000Y-58934541D01*
X136604280Y-58934541D01*
X136629590Y-58835967D01*
X136634265Y-58501230D01*
X136601951Y-58359000D01*
X141418479Y-58359000D01*
X141512948Y-58453469D01*
X141585138Y-58531976D01*
X141654543Y-58575010D01*
X141719578Y-58624372D01*
X141759916Y-58640343D01*
X141800823Y-58665706D01*
X141850810Y-58676332D01*
X141951135Y-58716054D01*
X142198820Y-58742085D01*
X142246617Y-58734001D01*
X145279825Y-58734001D01*
X145386347Y-58738466D01*
X145465845Y-58719820D01*
X145546742Y-58708739D01*
X145586573Y-58691504D01*
X145633421Y-58680515D01*
X145676275Y-58652685D01*
X145775308Y-58609830D01*
X145968855Y-58453098D01*
X145996940Y-58413579D01*
X146677162Y-57733357D01*
X146846668Y-57736908D01*
X147139834Y-57676730D01*
X147412383Y-57553097D01*
X147616603Y-57398085D01*
X147688795Y-57667512D01*
X147836185Y-57843165D01*
X148029814Y-57954956D01*
X148238976Y-57991837D01*
X149022000Y-57991837D01*
X149022000Y-56778000D01*
X149278000Y-56778000D01*
X149278000Y-57991837D01*
X150066588Y-57991837D01*
X150245186Y-57943982D01*
X164210001Y-57943982D01*
X165145000Y-58878981D01*
X166079999Y-57943982D01*
X166750001Y-57943982D01*
X167685000Y-58878981D01*
X168619999Y-57943982D01*
X168353294Y-57790000D01*
X168619999Y-57636018D01*
X167685000Y-56701019D01*
X166750001Y-57636018D01*
X167016706Y-57790000D01*
X166750001Y-57943982D01*
X166079999Y-57943982D01*
X165813294Y-57790000D01*
X166079999Y-57636018D01*
X165145000Y-56701019D01*
X164210001Y-57636018D01*
X164476706Y-57790000D01*
X164210001Y-57943982D01*
X150245186Y-57943982D01*
X150367512Y-57911205D01*
X150543165Y-57763815D01*
X150616948Y-57636018D01*
X150654956Y-57570186D01*
X150691837Y-57361024D01*
X150691837Y-56778000D01*
X149278000Y-56778000D01*
X149022000Y-56778000D01*
X149022000Y-55308163D01*
X149278000Y-55308163D01*
X149278000Y-56522000D01*
X150691837Y-56522000D01*
X150691837Y-56394541D01*
X163711000Y-56394541D01*
X163711000Y-56645459D01*
X163754571Y-56892564D01*
X163840391Y-57128349D01*
X164028982Y-57454999D01*
X164963981Y-56520000D01*
X165326019Y-56520000D01*
X166261018Y-57454999D01*
X166415000Y-57188294D01*
X166568982Y-57454999D01*
X167503981Y-56520000D01*
X166568982Y-55585001D01*
X166415000Y-55851706D01*
X166261018Y-55585001D01*
X165326019Y-56520000D01*
X164963981Y-56520000D01*
X164028982Y-55585001D01*
X163840391Y-55911651D01*
X163754571Y-56147436D01*
X163711000Y-56394541D01*
X150691837Y-56394541D01*
X150691837Y-55933412D01*
X150611205Y-55632489D01*
X150463815Y-55456835D01*
X150270186Y-55345044D01*
X150061024Y-55308163D01*
X149278000Y-55308163D01*
X149022000Y-55308163D01*
X148233412Y-55308163D01*
X147932489Y-55388795D01*
X147756835Y-55536185D01*
X147750849Y-55546554D01*
X147677551Y-55454075D01*
X147444312Y-55266547D01*
X147175321Y-55135350D01*
X146883949Y-55067010D01*
X146584678Y-55064920D01*
X146292380Y-55129186D01*
X146021584Y-55256613D01*
X145785749Y-55440868D01*
X145596595Y-55672793D01*
X145463525Y-55940861D01*
X145393153Y-56231749D01*
X145390114Y-56449367D01*
X144991837Y-56847644D01*
X144991837Y-55933412D01*
X144911205Y-55632489D01*
X144763815Y-55456835D01*
X144570186Y-55345044D01*
X144362227Y-55308375D01*
X144344820Y-55234155D01*
X144333738Y-55153256D01*
X144316506Y-55113435D01*
X144305515Y-55066578D01*
X144277683Y-55023720D01*
X144234829Y-54924691D01*
X144078097Y-54731144D01*
X144038580Y-54703061D01*
X143032060Y-53696542D01*
X142959861Y-53618025D01*
X142890452Y-53574989D01*
X142825422Y-53525629D01*
X142785084Y-53509657D01*
X142744174Y-53484294D01*
X142694187Y-53473669D01*
X142593864Y-53433948D01*
X142346180Y-53407916D01*
X142298383Y-53416000D01*
X136859041Y-53416000D01*
X136879590Y-53335967D01*
X136880272Y-53287154D01*
X136912457Y-53262457D01*
X136965055Y-53193911D01*
X137078197Y-53046461D01*
X137111257Y-52966645D01*
X137111258Y-52966645D01*
X137155847Y-52859000D01*
X143304826Y-52859000D01*
X143411348Y-52863465D01*
X143490846Y-52844819D01*
X143571743Y-52833738D01*
X143611574Y-52816503D01*
X143658422Y-52805514D01*
X143701276Y-52777684D01*
X143800309Y-52734829D01*
X143993856Y-52578097D01*
X144021944Y-52538574D01*
X145524704Y-51035814D01*
X145590139Y-51106975D01*
X145659544Y-51150007D01*
X145724575Y-51199370D01*
X145764919Y-51215343D01*
X145805823Y-51240704D01*
X145855808Y-51251329D01*
X145956134Y-51291051D01*
X146203819Y-51317083D01*
X146251616Y-51308999D01*
X149404827Y-51308999D01*
X149511349Y-51313464D01*
X149590847Y-51294818D01*
X149671744Y-51283737D01*
X149711575Y-51266502D01*
X149758423Y-51255513D01*
X149801277Y-51227683D01*
X149900310Y-51184828D01*
X150093857Y-51028096D01*
X150121945Y-50988573D01*
X154601170Y-46509348D01*
X164416672Y-46509348D01*
X164713086Y-46749379D01*
X165018244Y-46943038D01*
X165343640Y-47100341D01*
X165684958Y-47219201D01*
X166037676Y-47298042D01*
X166397119Y-47335821D01*
X166758521Y-47332037D01*
X167117093Y-47286738D01*
X167468083Y-47200527D01*
X167806837Y-47074545D01*
X168128867Y-46910463D01*
X168429903Y-46710455D01*
X168670833Y-46506853D01*
X166545000Y-44381019D01*
X164416672Y-46509348D01*
X154601170Y-46509348D01*
X155021295Y-46089224D01*
X155148604Y-46089224D01*
X155496931Y-46013450D01*
X155581657Y-45959000D01*
X155756993Y-45959000D01*
X155966888Y-46054854D01*
X156205930Y-46089224D01*
X156698604Y-46089224D01*
X157046931Y-46013450D01*
X157261638Y-45875467D01*
X157425750Y-45686071D01*
X157529854Y-45458112D01*
X157564224Y-45219070D01*
X157564224Y-44626396D01*
X157489344Y-44282178D01*
X163406770Y-44282178D01*
X163437013Y-44642332D01*
X163508450Y-44996624D01*
X163620136Y-45340357D01*
X163770589Y-45668975D01*
X163957816Y-45978123D01*
X164232167Y-46331813D01*
X166363981Y-44200000D01*
X164239658Y-42075678D01*
X164074569Y-42262935D01*
X163868301Y-42559717D01*
X163697511Y-42878239D01*
X163564463Y-43214281D01*
X163470920Y-43563388D01*
X163418122Y-43920934D01*
X163406770Y-44282178D01*
X157489344Y-44282178D01*
X157488450Y-44278069D01*
X157350467Y-44063362D01*
X157330468Y-44046033D01*
X157425750Y-43936071D01*
X157529854Y-43708112D01*
X157564224Y-43469070D01*
X157564224Y-43303000D01*
X156322000Y-43303000D01*
X156322000Y-43047000D01*
X156322000Y-41994087D01*
X156578000Y-41994087D01*
X156578000Y-43047000D01*
X157564224Y-43047000D01*
X157564224Y-42876396D01*
X157488450Y-42528069D01*
X157350467Y-42313362D01*
X157161071Y-42149250D01*
X156933112Y-42045146D01*
X156578000Y-41994087D01*
X156322000Y-41994087D01*
X156322000Y-41984541D01*
X155853070Y-42086550D01*
X155672576Y-42202545D01*
X155611071Y-42149250D01*
X155383112Y-42045146D01*
X155028000Y-41994087D01*
X155028000Y-43303000D01*
X153785776Y-43303000D01*
X153785776Y-43473604D01*
X153861550Y-43821931D01*
X153999533Y-44036638D01*
X154019532Y-44053967D01*
X153924250Y-44163929D01*
X153820146Y-44391888D01*
X153785776Y-44630930D01*
X153785776Y-44753704D01*
X150991837Y-47547644D01*
X150991837Y-46333412D01*
X150913710Y-46041837D01*
X151466588Y-46041837D01*
X151767512Y-45961205D01*
X151943165Y-45813815D01*
X152054956Y-45620186D01*
X152091837Y-45411024D01*
X152091837Y-44578000D01*
X150622000Y-44578000D01*
X150622000Y-42858163D01*
X150878000Y-42858163D01*
X150878000Y-44322000D01*
X152091837Y-44322000D01*
X152091837Y-43483412D01*
X152011205Y-43182489D01*
X151863815Y-43006835D01*
X151670186Y-42895044D01*
X151590142Y-42880930D01*
X153785776Y-42880930D01*
X153785776Y-43047000D01*
X154772000Y-43047000D01*
X154772000Y-41984541D01*
X154303070Y-42086550D01*
X154088362Y-42224533D01*
X153924250Y-42413929D01*
X153820146Y-42641888D01*
X153785776Y-42880930D01*
X151590142Y-42880930D01*
X151461024Y-42858163D01*
X150878000Y-42858163D01*
X150622000Y-42858163D01*
X150033412Y-42858163D01*
X149983999Y-42871403D01*
X149983999Y-42351520D01*
X150440470Y-41895049D01*
X164421068Y-41895049D01*
X166545000Y-44018981D01*
X168678932Y-41885048D01*
X168295933Y-41594337D01*
X167984842Y-41410358D01*
X167654666Y-41263354D01*
X167309782Y-41155275D01*
X166954762Y-41087550D01*
X166594310Y-41061081D01*
X166233205Y-41076216D01*
X165876233Y-41132755D01*
X165528124Y-41229948D01*
X165193494Y-41366508D01*
X164876778Y-41540624D01*
X164582172Y-41749989D01*
X164421068Y-41895049D01*
X150440470Y-41895049D01*
X150752162Y-41583357D01*
X150921668Y-41586908D01*
X151214834Y-41526730D01*
X151487383Y-41403097D01*
X151725768Y-41222152D01*
X151918141Y-40992892D01*
X152054941Y-40726707D01*
X152129590Y-40435967D01*
X152134265Y-40101230D01*
X152067763Y-39808519D01*
X151938448Y-39538618D01*
X151752551Y-39304075D01*
X151519312Y-39116547D01*
X151250321Y-38985350D01*
X151031387Y-38934000D01*
X169116001Y-38934000D01*
X169116001Y-42404539D01*
X169075056Y-42341489D01*
X168852977Y-42073043D01*
X166726019Y-44200000D01*
X168849907Y-46323887D01*
X168953368Y-46213705D01*
X169116001Y-45994720D01*
X169116001Y-48757532D01*
X169075429Y-48527436D01*
X168989609Y-48291651D01*
X168864150Y-48074349D01*
X168702864Y-47882136D01*
X168510651Y-47720850D01*
X168293349Y-47595391D01*
X168057564Y-47509571D01*
X167810459Y-47466000D01*
X167559541Y-47466000D01*
X167312436Y-47509571D01*
X167076651Y-47595391D01*
X166859349Y-47720850D01*
X166667136Y-47882136D01*
X166505850Y-48074349D01*
X166415000Y-48231706D01*
X166324150Y-48074349D01*
X166162864Y-47882136D01*
X165970651Y-47720850D01*
X165753349Y-47595391D01*
X165517564Y-47509571D01*
X165270459Y-47466000D01*
X165019541Y-47466000D01*
X164772436Y-47509571D01*
X164536651Y-47595391D01*
X164319349Y-47720850D01*
X164127136Y-47882136D01*
X163965850Y-48074349D01*
X163840391Y-48291651D01*
X163754571Y-48527436D01*
X163711000Y-48774541D01*
X163711000Y-49025459D01*
X163754571Y-49272564D01*
X163840391Y-49508349D01*
X163965850Y-49725651D01*
X164127136Y-49917864D01*
X164319349Y-50079150D01*
X164476706Y-50170000D01*
X164319349Y-50260850D01*
X164127136Y-50422136D01*
X163965850Y-50614349D01*
X163840391Y-50831651D01*
X163754571Y-51067436D01*
X163711000Y-51314541D01*
X163711000Y-51565459D01*
X163754571Y-51812564D01*
X163840391Y-52048349D01*
X163965850Y-52265651D01*
X164127136Y-52457864D01*
X164319349Y-52619150D01*
X164476706Y-52710000D01*
X164319349Y-52800850D01*
X164127136Y-52962136D01*
X163965850Y-53154349D01*
X163840391Y-53371651D01*
X163754571Y-53607436D01*
X163711000Y-53854541D01*
X163711000Y-54105459D01*
X163754571Y-54352564D01*
X163840391Y-54588349D01*
X163965850Y-54805651D01*
X164127136Y-54997864D01*
X164319349Y-55159150D01*
X164476706Y-55250000D01*
X164210001Y-55403982D01*
X165145000Y-56338981D01*
X166079999Y-55403982D01*
X166750001Y-55403982D01*
X167685000Y-56338981D01*
X168619999Y-55403982D01*
X168353294Y-55250000D01*
X168619999Y-55096018D01*
X167685000Y-54161019D01*
X166750001Y-55096018D01*
X167016706Y-55250000D01*
X166750001Y-55403982D01*
X166079999Y-55403982D01*
X165813294Y-55250000D01*
X165970651Y-55159150D01*
X166045888Y-55096018D01*
X166162864Y-54997864D01*
X166324150Y-54805651D01*
G36*
X117381149Y-46583999D02*
G01*
X117368072Y-46638054D01*
X117364050Y-46926088D01*
X117423941Y-47207854D01*
X117529255Y-47435776D01*
X117126396Y-47435776D01*
X116778069Y-47511550D01*
X116563362Y-47649533D01*
X116546033Y-47669532D01*
X116436071Y-47574250D01*
X116208112Y-47470146D01*
X115969070Y-47435776D01*
X115803000Y-47435776D01*
X115803000Y-48678000D01*
X114484541Y-48678000D01*
X114557137Y-49011719D01*
X114328069Y-49061550D01*
X114113362Y-49199533D01*
X113949250Y-49388929D01*
X113859000Y-49586552D01*
X113859000Y-48437516D01*
X113874516Y-48422000D01*
X114494087Y-48422000D01*
X115547000Y-48422000D01*
X115547000Y-47435776D01*
X115376396Y-47435776D01*
X115028069Y-47511550D01*
X114813362Y-47649533D01*
X114649250Y-47838929D01*
X114545146Y-48066888D01*
X114494087Y-48422000D01*
X113874516Y-48422000D01*
X115712518Y-46583999D01*
X117381149Y-46583999D01*
X117381149Y-46583999D01*
G37*
X117381149Y-46583999D02*
X117368072Y-46638054D01*
X117364050Y-46926088D01*
X117423941Y-47207854D01*
X117529255Y-47435776D01*
X117126396Y-47435776D01*
X116778069Y-47511550D01*
X116563362Y-47649533D01*
X116546033Y-47669532D01*
X116436071Y-47574250D01*
X116208112Y-47470146D01*
X115969070Y-47435776D01*
X115803000Y-47435776D01*
X115803000Y-48678000D01*
X114484541Y-48678000D01*
X114557137Y-49011719D01*
X114328069Y-49061550D01*
X114113362Y-49199533D01*
X113949250Y-49388929D01*
X113859000Y-49586552D01*
X113859000Y-48437516D01*
X113874516Y-48422000D01*
X114494087Y-48422000D01*
X115547000Y-48422000D01*
X115547000Y-47435776D01*
X115376396Y-47435776D01*
X115028069Y-47511550D01*
X114813362Y-47649533D01*
X114649250Y-47838929D01*
X114545146Y-48066888D01*
X114494087Y-48422000D01*
X113874516Y-48422000D01*
X115712518Y-46583999D01*
X117381149Y-46583999D01*
G36*
X127655056Y-41584001D02*
G01*
X145669950Y-41584001D01*
X145784335Y-41732533D01*
X146014933Y-41923301D01*
X146282066Y-42058238D01*
X146572454Y-42130640D01*
X146871668Y-42136908D01*
X147164834Y-42076730D01*
X147437383Y-41953097D01*
X147675768Y-41772152D01*
X147868141Y-41542892D01*
X147946979Y-41389488D01*
X148182065Y-41508238D01*
X148273110Y-41530938D01*
X148259655Y-41564922D01*
X148234293Y-41605827D01*
X148223668Y-41655814D01*
X148183947Y-41756137D01*
X148157915Y-42003821D01*
X148165999Y-42051618D01*
X148166000Y-45194014D01*
X148143025Y-45215141D01*
X148099994Y-45284542D01*
X148050629Y-45349578D01*
X148034656Y-45389921D01*
X148009294Y-45430826D01*
X147998669Y-45480813D01*
X147987840Y-45508163D01*
X147878000Y-45508163D01*
X147878000Y-46072733D01*
X147845044Y-46129814D01*
X147808163Y-46338976D01*
X147808163Y-47028000D01*
X147691837Y-47028000D01*
X147691837Y-46333412D01*
X147622000Y-46072777D01*
X147622000Y-45508163D01*
X147380956Y-45508163D01*
X147278097Y-45381144D01*
X147238583Y-45353063D01*
X146931544Y-45046025D01*
X146934265Y-44851230D01*
X146867763Y-44558519D01*
X146738448Y-44288618D01*
X146552551Y-44054075D01*
X146319312Y-43866547D01*
X146050321Y-43735350D01*
X145758949Y-43667010D01*
X145459678Y-43664920D01*
X145167380Y-43729186D01*
X144896584Y-43856613D01*
X144660749Y-44040868D01*
X144552889Y-44173117D01*
X144488448Y-44038618D01*
X144302551Y-43804075D01*
X144069312Y-43616547D01*
X143800321Y-43485350D01*
X143508949Y-43417010D01*
X143209678Y-43414920D01*
X142917380Y-43479186D01*
X142646584Y-43606613D01*
X142410749Y-43790868D01*
X142221595Y-44022793D01*
X142088525Y-44290861D01*
X142028011Y-44540999D01*
X141991846Y-44540999D01*
X141885324Y-44536534D01*
X141805827Y-44555179D01*
X141724928Y-44566261D01*
X141685100Y-44583497D01*
X141638251Y-44594484D01*
X141595393Y-44622317D01*
X141496364Y-44665170D01*
X141302817Y-44821902D01*
X141274734Y-44861418D01*
X137095154Y-49041000D01*
X136521899Y-49041000D01*
X136554941Y-48976707D01*
X136629590Y-48685967D01*
X136634265Y-48351230D01*
X136567763Y-48058519D01*
X136438448Y-47788618D01*
X136252551Y-47554075D01*
X136019312Y-47366547D01*
X135750321Y-47235350D01*
X135458949Y-47167010D01*
X135159678Y-47164920D01*
X134867380Y-47229186D01*
X134596584Y-47356613D01*
X134392578Y-47516000D01*
X127596203Y-47516000D01*
X127629590Y-47385967D01*
X127634265Y-47051230D01*
X127567763Y-46758519D01*
X127438448Y-46488618D01*
X127252551Y-46254075D01*
X127019312Y-46066547D01*
X126750321Y-45935350D01*
X126458950Y-45867010D01*
X126340705Y-45866184D01*
X124249078Y-43774558D01*
X124459796Y-43672693D01*
X124634643Y-43545662D01*
X123558980Y-42470000D01*
X123740000Y-42288980D01*
X124819309Y-43368290D01*
X124882680Y-43272909D01*
X124956795Y-43549512D01*
X125104185Y-43725165D01*
X125297814Y-43836956D01*
X125506976Y-43873837D01*
X127058588Y-43873837D01*
X127359512Y-43793205D01*
X127535165Y-43645815D01*
X127574317Y-43578000D01*
X136258163Y-43578000D01*
X136258163Y-44416588D01*
X136338795Y-44717512D01*
X136486185Y-44893165D01*
X136679814Y-45004956D01*
X136888976Y-45041837D01*
X137472000Y-45041837D01*
X137472000Y-43578000D01*
X137728000Y-43578000D01*
X137728000Y-45041837D01*
X138316588Y-45041837D01*
X138617512Y-44961205D01*
X138793165Y-44813815D01*
X138904956Y-44620186D01*
X138941837Y-44411024D01*
X138941837Y-43578000D01*
X137728000Y-43578000D01*
X137472000Y-43578000D01*
X136258163Y-43578000D01*
X127574317Y-43578000D01*
X127646956Y-43452186D01*
X127683837Y-43243024D01*
X127683837Y-42488976D01*
X136258163Y-42488976D01*
X136258163Y-43322000D01*
X137472000Y-43322000D01*
X137472000Y-41858163D01*
X137728000Y-41858163D01*
X137728000Y-43322000D01*
X138941837Y-43322000D01*
X138941837Y-42483412D01*
X138861205Y-42182489D01*
X138713815Y-42006835D01*
X138520186Y-41895044D01*
X138311024Y-41858163D01*
X137728000Y-41858163D01*
X137472000Y-41858163D01*
X136883412Y-41858163D01*
X136582489Y-41938795D01*
X136406835Y-42086185D01*
X136295044Y-42279814D01*
X136258163Y-42488976D01*
X127683837Y-42488976D01*
X127683837Y-41691412D01*
X127655056Y-41584001D01*
X127655056Y-41584001D01*
G37*
X127655056Y-41584001D02*
X145669950Y-41584001D01*
X145784335Y-41732533D01*
X146014933Y-41923301D01*
X146282066Y-42058238D01*
X146572454Y-42130640D01*
X146871668Y-42136908D01*
X147164834Y-42076730D01*
X147437383Y-41953097D01*
X147675768Y-41772152D01*
X147868141Y-41542892D01*
X147946979Y-41389488D01*
X148182065Y-41508238D01*
X148273110Y-41530938D01*
X148259655Y-41564922D01*
X148234293Y-41605827D01*
X148223668Y-41655814D01*
X148183947Y-41756137D01*
X148157915Y-42003821D01*
X148165999Y-42051618D01*
X148166000Y-45194014D01*
X148143025Y-45215141D01*
X148099994Y-45284542D01*
X148050629Y-45349578D01*
X148034656Y-45389921D01*
X148009294Y-45430826D01*
X147998669Y-45480813D01*
X147987840Y-45508163D01*
X147878000Y-45508163D01*
X147878000Y-46072733D01*
X147845044Y-46129814D01*
X147808163Y-46338976D01*
X147808163Y-47028000D01*
X147691837Y-47028000D01*
X147691837Y-46333412D01*
X147622000Y-46072777D01*
X147622000Y-45508163D01*
X147380956Y-45508163D01*
X147278097Y-45381144D01*
X147238583Y-45353063D01*
X146931544Y-45046025D01*
X146934265Y-44851230D01*
X146867763Y-44558519D01*
X146738448Y-44288618D01*
X146552551Y-44054075D01*
X146319312Y-43866547D01*
X146050321Y-43735350D01*
X145758949Y-43667010D01*
X145459678Y-43664920D01*
X145167380Y-43729186D01*
X144896584Y-43856613D01*
X144660749Y-44040868D01*
X144552889Y-44173117D01*
X144488448Y-44038618D01*
X144302551Y-43804075D01*
X144069312Y-43616547D01*
X143800321Y-43485350D01*
X143508949Y-43417010D01*
X143209678Y-43414920D01*
X142917380Y-43479186D01*
X142646584Y-43606613D01*
X142410749Y-43790868D01*
X142221595Y-44022793D01*
X142088525Y-44290861D01*
X142028011Y-44540999D01*
X141991846Y-44540999D01*
X141885324Y-44536534D01*
X141805827Y-44555179D01*
X141724928Y-44566261D01*
X141685100Y-44583497D01*
X141638251Y-44594484D01*
X141595393Y-44622317D01*
X141496364Y-44665170D01*
X141302817Y-44821902D01*
X141274734Y-44861418D01*
X137095154Y-49041000D01*
X136521899Y-49041000D01*
X136554941Y-48976707D01*
X136629590Y-48685967D01*
X136634265Y-48351230D01*
X136567763Y-48058519D01*
X136438448Y-47788618D01*
X136252551Y-47554075D01*
X136019312Y-47366547D01*
X135750321Y-47235350D01*
X135458949Y-47167010D01*
X135159678Y-47164920D01*
X134867380Y-47229186D01*
X134596584Y-47356613D01*
X134392578Y-47516000D01*
X127596203Y-47516000D01*
X127629590Y-47385967D01*
X127634265Y-47051230D01*
X127567763Y-46758519D01*
X127438448Y-46488618D01*
X127252551Y-46254075D01*
X127019312Y-46066547D01*
X126750321Y-45935350D01*
X126458950Y-45867010D01*
X126340705Y-45866184D01*
X124249078Y-43774558D01*
X124459796Y-43672693D01*
X124634643Y-43545662D01*
X123558980Y-42470000D01*
X123740000Y-42288980D01*
X124819309Y-43368290D01*
X124882680Y-43272909D01*
X124956795Y-43549512D01*
X125104185Y-43725165D01*
X125297814Y-43836956D01*
X125506976Y-43873837D01*
X127058588Y-43873837D01*
X127359512Y-43793205D01*
X127535165Y-43645815D01*
X127574317Y-43578000D01*
X136258163Y-43578000D01*
X136258163Y-44416588D01*
X136338795Y-44717512D01*
X136486185Y-44893165D01*
X136679814Y-45004956D01*
X136888976Y-45041837D01*
X137472000Y-45041837D01*
X137472000Y-43578000D01*
X137728000Y-43578000D01*
X137728000Y-45041837D01*
X138316588Y-45041837D01*
X138617512Y-44961205D01*
X138793165Y-44813815D01*
X138904956Y-44620186D01*
X138941837Y-44411024D01*
X138941837Y-43578000D01*
X137728000Y-43578000D01*
X137472000Y-43578000D01*
X136258163Y-43578000D01*
X127574317Y-43578000D01*
X127646956Y-43452186D01*
X127683837Y-43243024D01*
X127683837Y-42488976D01*
X136258163Y-42488976D01*
X136258163Y-43322000D01*
X137472000Y-43322000D01*
X137472000Y-41858163D01*
X137728000Y-41858163D01*
X137728000Y-43322000D01*
X138941837Y-43322000D01*
X138941837Y-42483412D01*
X138861205Y-42182489D01*
X138713815Y-42006835D01*
X138520186Y-41895044D01*
X138311024Y-41858163D01*
X137728000Y-41858163D01*
X137472000Y-41858163D01*
X136883412Y-41858163D01*
X136582489Y-41938795D01*
X136406835Y-42086185D01*
X136295044Y-42279814D01*
X136258163Y-42488976D01*
X127683837Y-42488976D01*
X127683837Y-41691412D01*
X127655056Y-41584001D01*
G36*
X106028704Y-38934000D02*
G01*
X99313177Y-45649528D01*
X99028070Y-45711550D01*
X99021145Y-45716000D01*
X98923085Y-45716000D01*
X98800186Y-45645044D01*
X98591024Y-45608163D01*
X97063412Y-45608163D01*
X96762489Y-45688795D01*
X96586835Y-45836185D01*
X96475044Y-46029814D01*
X96438163Y-46238976D01*
X96438163Y-46724913D01*
X96363703Y-46672791D01*
X96350316Y-46656836D01*
X96296637Y-46625845D01*
X96282968Y-46616276D01*
X96272694Y-46612022D01*
X96156686Y-46545044D01*
X96077062Y-46531004D01*
X96040832Y-46516000D01*
X95991971Y-46516000D01*
X95947524Y-46508163D01*
X94079911Y-46508163D01*
X94035960Y-46519940D01*
X93939017Y-46528792D01*
X93854665Y-46568518D01*
X93778989Y-46588795D01*
X93720326Y-46638020D01*
X93504843Y-46790125D01*
X93616311Y-46553242D01*
X93682982Y-46259793D01*
X93683770Y-46034000D01*
X93872000Y-46034000D01*
X93872000Y-44928000D01*
X94128000Y-44928000D01*
X94128000Y-46034000D01*
X94333811Y-46034000D01*
X94509405Y-46017247D01*
X94735352Y-45950961D01*
X94944688Y-45843146D01*
X95129860Y-45697692D01*
X95284186Y-45519846D01*
X95402099Y-45316027D01*
X95479344Y-45093585D01*
X95503346Y-44928000D01*
X94128000Y-44928000D01*
X93872000Y-44928000D01*
X93872000Y-44672000D01*
X95513489Y-44672000D01*
X95447075Y-44396422D01*
X95349615Y-44182069D01*
X95213380Y-43990012D01*
X95106157Y-43887369D01*
X95207279Y-43822382D01*
X95373745Y-43630270D01*
X95479343Y-43399042D01*
X95514224Y-43156442D01*
X95514224Y-42439024D01*
X95437309Y-42085451D01*
X95297382Y-41867721D01*
X95105270Y-41701255D01*
X94874042Y-41595657D01*
X94631442Y-41560776D01*
X93364024Y-41560776D01*
X93010451Y-41637691D01*
X92792721Y-41777618D01*
X92626255Y-41969730D01*
X92520657Y-42200958D01*
X92485776Y-42443558D01*
X92485776Y-42851929D01*
X92062928Y-43274777D01*
X91952601Y-42968333D01*
X91791900Y-42644604D01*
X91595056Y-42341489D01*
X91372977Y-42073043D01*
X86936672Y-46509348D01*
X87233086Y-46749379D01*
X87538244Y-46943038D01*
X87863640Y-47100341D01*
X88204958Y-47219201D01*
X88557676Y-47298042D01*
X88917119Y-47335821D01*
X89273474Y-47332090D01*
X89246163Y-47486976D01*
X89246163Y-49038588D01*
X89326795Y-49339512D01*
X89474185Y-49515165D01*
X89667814Y-49626956D01*
X89843992Y-49658021D01*
X89796739Y-49688009D01*
X89613308Y-49856683D01*
X89462645Y-50055173D01*
X89349513Y-50277208D01*
X89277489Y-50515766D01*
X89248847Y-50763310D01*
X89264494Y-51012013D01*
X89323934Y-51254014D01*
X89425291Y-51481664D01*
X89565360Y-51687768D01*
X89739711Y-51865811D01*
X89942837Y-52010164D01*
X90068668Y-52069375D01*
X90007141Y-52094484D01*
X89796739Y-52228009D01*
X89613308Y-52396683D01*
X89462645Y-52595173D01*
X89349513Y-52817208D01*
X89277489Y-53055766D01*
X89248847Y-53303310D01*
X89264494Y-53552013D01*
X89323934Y-53794014D01*
X89425291Y-54021664D01*
X89565360Y-54227768D01*
X89739711Y-54405811D01*
X89942837Y-54550164D01*
X90168315Y-54656266D01*
X90408263Y-54720560D01*
X90464039Y-54776335D01*
X90463974Y-54780998D01*
X90526198Y-55073738D01*
X90588310Y-55208163D01*
X88941837Y-55208163D01*
X88941837Y-54935912D01*
X88861205Y-54634989D01*
X88713815Y-54459335D01*
X88520186Y-54347544D01*
X88311024Y-54310663D01*
X86534000Y-54310663D01*
X86534000Y-46050555D01*
X86752167Y-46331813D01*
X88883981Y-44200000D01*
X86759658Y-42075678D01*
X86594569Y-42262935D01*
X86534000Y-42350083D01*
X86534000Y-41895049D01*
X86941068Y-41895049D01*
X89065000Y-44018981D01*
X91198932Y-41885048D01*
X90815933Y-41594337D01*
X90504842Y-41410358D01*
X90174666Y-41263354D01*
X89829782Y-41155275D01*
X89474762Y-41087550D01*
X89114310Y-41061081D01*
X88753205Y-41076216D01*
X88396233Y-41132755D01*
X88048124Y-41229948D01*
X87713494Y-41366508D01*
X87396778Y-41540624D01*
X87102172Y-41749989D01*
X86941068Y-41895049D01*
X86534000Y-41895049D01*
X86534000Y-38934000D01*
X106028704Y-38934000D01*
X106028704Y-38934000D01*
G37*
X106028704Y-38934000D02*
X99313177Y-45649528D01*
X99028070Y-45711550D01*
X99021145Y-45716000D01*
X98923085Y-45716000D01*
X98800186Y-45645044D01*
X98591024Y-45608163D01*
X97063412Y-45608163D01*
X96762489Y-45688795D01*
X96586835Y-45836185D01*
X96475044Y-46029814D01*
X96438163Y-46238976D01*
X96438163Y-46724913D01*
X96363703Y-46672791D01*
X96350316Y-46656836D01*
X96296637Y-46625845D01*
X96282968Y-46616276D01*
X96272694Y-46612022D01*
X96156686Y-46545044D01*
X96077062Y-46531004D01*
X96040832Y-46516000D01*
X95991971Y-46516000D01*
X95947524Y-46508163D01*
X94079911Y-46508163D01*
X94035960Y-46519940D01*
X93939017Y-46528792D01*
X93854665Y-46568518D01*
X93778989Y-46588795D01*
X93720326Y-46638020D01*
X93504843Y-46790125D01*
X93616311Y-46553242D01*
X93682982Y-46259793D01*
X93683770Y-46034000D01*
X93872000Y-46034000D01*
X93872000Y-44928000D01*
X94128000Y-44928000D01*
X94128000Y-46034000D01*
X94333811Y-46034000D01*
X94509405Y-46017247D01*
X94735352Y-45950961D01*
X94944688Y-45843146D01*
X95129860Y-45697692D01*
X95284186Y-45519846D01*
X95402099Y-45316027D01*
X95479344Y-45093585D01*
X95503346Y-44928000D01*
X94128000Y-44928000D01*
X93872000Y-44928000D01*
X93872000Y-44672000D01*
X95513489Y-44672000D01*
X95447075Y-44396422D01*
X95349615Y-44182069D01*
X95213380Y-43990012D01*
X95106157Y-43887369D01*
X95207279Y-43822382D01*
X95373745Y-43630270D01*
X95479343Y-43399042D01*
X95514224Y-43156442D01*
X95514224Y-42439024D01*
X95437309Y-42085451D01*
X95297382Y-41867721D01*
X95105270Y-41701255D01*
X94874042Y-41595657D01*
X94631442Y-41560776D01*
X93364024Y-41560776D01*
X93010451Y-41637691D01*
X92792721Y-41777618D01*
X92626255Y-41969730D01*
X92520657Y-42200958D01*
X92485776Y-42443558D01*
X92485776Y-42851929D01*
X92062928Y-43274777D01*
X91952601Y-42968333D01*
X91791900Y-42644604D01*
X91595056Y-42341489D01*
X91372977Y-42073043D01*
X86936672Y-46509348D01*
X87233086Y-46749379D01*
X87538244Y-46943038D01*
X87863640Y-47100341D01*
X88204958Y-47219201D01*
X88557676Y-47298042D01*
X88917119Y-47335821D01*
X89273474Y-47332090D01*
X89246163Y-47486976D01*
X89246163Y-49038588D01*
X89326795Y-49339512D01*
X89474185Y-49515165D01*
X89667814Y-49626956D01*
X89843992Y-49658021D01*
X89796739Y-49688009D01*
X89613308Y-49856683D01*
X89462645Y-50055173D01*
X89349513Y-50277208D01*
X89277489Y-50515766D01*
X89248847Y-50763310D01*
X89264494Y-51012013D01*
X89323934Y-51254014D01*
X89425291Y-51481664D01*
X89565360Y-51687768D01*
X89739711Y-51865811D01*
X89942837Y-52010164D01*
X90068668Y-52069375D01*
X90007141Y-52094484D01*
X89796739Y-52228009D01*
X89613308Y-52396683D01*
X89462645Y-52595173D01*
X89349513Y-52817208D01*
X89277489Y-53055766D01*
X89248847Y-53303310D01*
X89264494Y-53552013D01*
X89323934Y-53794014D01*
X89425291Y-54021664D01*
X89565360Y-54227768D01*
X89739711Y-54405811D01*
X89942837Y-54550164D01*
X90168315Y-54656266D01*
X90408263Y-54720560D01*
X90464039Y-54776335D01*
X90463974Y-54780998D01*
X90526198Y-55073738D01*
X90588310Y-55208163D01*
X88941837Y-55208163D01*
X88941837Y-54935912D01*
X88861205Y-54634989D01*
X88713815Y-54459335D01*
X88520186Y-54347544D01*
X88311024Y-54310663D01*
X86534000Y-54310663D01*
X86534000Y-46050555D01*
X86752167Y-46331813D01*
X88883981Y-44200000D01*
X86759658Y-42075678D01*
X86594569Y-42262935D01*
X86534000Y-42350083D01*
X86534000Y-41895049D01*
X86941068Y-41895049D01*
X89065000Y-44018981D01*
X91198932Y-41885048D01*
X90815933Y-41594337D01*
X90504842Y-41410358D01*
X90174666Y-41263354D01*
X89829782Y-41155275D01*
X89474762Y-41087550D01*
X89114310Y-41061081D01*
X88753205Y-41076216D01*
X88396233Y-41132755D01*
X88048124Y-41229948D01*
X87713494Y-41366508D01*
X87396778Y-41540624D01*
X87102172Y-41749989D01*
X86941068Y-41895049D01*
X86534000Y-41895049D01*
X86534000Y-38934000D01*
X106028704Y-38934000D01*
M02*
