M48
; DRILL file {KiCad 6.0.0-unknown-920f128~86~ubuntu18.04.1} date vie 19 jul 2019 16:12:02 -04
; FORMAT={-:-/ absolute / inch / decimal}
; #@! TF.CreationDate,2019-07-19T16:12:02-04:00
; #@! TF.GenerationSoftware,Kicad,Pcbnew,6.0.0-unknown-920f128~86~ubuntu18.04.1
FMAT,2
INCH
T1C0.0157
T2C0.0197
T3C0.0295
T4C0.0300
T5C0.0315
T6C0.0354
T7C0.0394
T8C0.1102
%
G90
G05
T1
X4.3992Y-2.4983
X4.4429Y-2.812
X4.6713Y-1.8425
X5.7293Y-1.9587
X6.378Y-2.435
X6.4252Y-2.4559
T2
X3.6142Y-2.1516
X3.6339Y-1.815
X3.7559Y-2.1102
X3.7559Y-2.4291
X3.7559Y-2.4921
X3.7589Y-2.7707
X3.7874Y-1.5728
X3.8406Y-2.2539
X3.8406Y-2.3701
X3.8504Y-2.0197
X3.9173Y-2.5463
X3.935Y-2.1949
X4.0256Y-1.9862
X4.0531Y-1.5866
X4.0531Y-1.8406
X4.0531Y-1.8917
X4.0945Y-2.4547
X4.0947Y-1.9825
X4.1457Y-2.1811
X4.1956Y-2.073
X4.2264Y-1.69
X4.2539Y-2.0492
X4.2756Y-2.4488
X4.2795Y-1.9843
X4.3081Y-1.875
X4.3376Y-1.9513
X4.4016Y-2.5945
X4.502Y-1.9114
X4.5512Y-2.4567
X4.5531Y-1.8543
X4.6063Y-2.0492
X4.6091Y-2.4815
X4.6516Y-2.563
X4.7106Y-2.4803
X4.7146Y-2.5866
X4.7402Y-2.0512
X4.7461Y-2.6634
X4.7618Y-1.5551
X4.7677Y-2.313
X4.8327Y-2.313
X4.8327Y-2.5039
X4.8425Y-1.8602
X4.872Y-1.5551
X4.9035Y-2.3091
X4.9087Y-1.8595
X4.9606Y-2.2618
X4.9724Y-1.8583
X5.0118Y-2.4636
X5.0433Y-1.7933
X5.0591Y-2.5157
X5.1122Y-2.5896
X5.1339Y-1.7087
X5.2283Y-2.0128
X5.3268Y-1.9094
X5.3268Y-2.3091
X5.3366Y-2.0925
X5.3425Y-1.7087
X5.3858Y-1.5531
X5.6004Y-2.4646
X5.6437Y-1.7618
X5.7323Y-1.7717
X5.7343Y-2.4173
X5.7736Y-1.9154
X5.7766Y-2.2205
X5.7776Y-1.6063
X5.8169Y-1.7756
X5.8524Y-1.5846
X5.8681Y-2.6594
X5.937Y-1.5846
X5.937Y-2.4193
X5.939Y-2.4783
X5.9508Y-2.2126
X6.0217Y-1.7756
X6.0276Y-1.5807
X6.1063Y-1.6319
X6.1142Y-2.4232
X6.1201Y-2.2126
X6.1732Y-1.6378
X6.2165Y-2.4429
X6.2165Y-2.6555
X6.2185Y-2.189
X6.3209Y-2.2579
X6.3248Y-2.378
X6.5016Y-2.4934
T3
X3.7008Y-1.685
X3.7008Y-1.7638
T4
X4.5717Y-1.672
X4.6717Y-1.672
X4.7717Y-1.672
X4.8717Y-1.672
X4.9717Y-1.672
T5
X6.5018Y-1.9252
X6.5018Y-2.0252
X6.5018Y-2.1252
X6.5018Y-2.2252
X6.5018Y-2.3252
X6.5018Y-2.4252
X6.6018Y-1.9252
X6.6018Y-2.0252
X6.6018Y-2.1252
X6.6018Y-2.2252
X6.6018Y-2.3252
X6.6018Y-2.4252
T6
X3.5689Y-1.9
X3.5689Y-2.0
X3.5689Y-2.1
T7
X4.2421Y-2.7008
X4.3421Y-2.7008
X4.4421Y-2.7008
X4.5421Y-2.7008
X4.6421Y-2.7008
X3.8209Y-2.5236
X3.8209Y-2.7008
X4.0768Y-2.5236
X4.0768Y-2.7008
T8
X3.5065Y-1.7402
X3.5065Y-2.6154
X6.5569Y-1.7402
X6.5569Y-2.6154
T0
M30
