G04 #@! TF.GenerationSoftware,KiCad,Pcbnew,5.99.0-unknown-57e35c9~88~ubuntu19.10.1*
G04 #@! TF.CreationDate,2022-01-19T00:43:41-03:00*
G04 #@! TF.ProjectId,Femtosat,46656d74-6f73-4617-942e-6b696361645f,rev?*
G04 #@! TF.SameCoordinates,Original*
G04 #@! TF.FileFunction,Soldermask,Bot*
G04 #@! TF.FilePolarity,Negative*
%FSLAX46Y46*%
G04 Gerber Fmt 4.6, Leading zero omitted, Abs format (unit mm)*
G04 Created by KiCad (PCBNEW 5.99.0-unknown-57e35c9~88~ubuntu19.10.1) date 2022-01-19 00:43:41*
%MOMM*%
%LPD*%
G01*
G04 APERTURE LIST*
%ADD10C,5.102000*%
%ADD11C,1.702000*%
%ADD12C,1.626000*%
%ADD13C,1.802000*%
%ADD14O,1.852000X1.302000*%
G04 APERTURE END LIST*
D10*
X120360000Y-77270000D03*
X72390000Y-32645000D03*
X168190000Y-77270000D03*
X168190000Y-65030000D03*
X90710000Y-32645000D03*
X90710000Y-54870000D03*
X168190000Y-32645000D03*
X168190000Y-54870000D03*
G36*
G01*
X165939000Y-38271000D02*
X165939000Y-36671000D01*
G75*
G02*
X165990000Y-36620000I51000J0D01*
G01*
X167590000Y-36620000D01*
G75*
G02*
X167641000Y-36671000I0J-51000D01*
G01*
X167641000Y-38271000D01*
G75*
G02*
X167590000Y-38322000I-51000J0D01*
G01*
X165990000Y-38322000D01*
G75*
G02*
X165939000Y-38271000I0J51000D01*
G01*
G37*
D11*
X169330000Y-37471000D03*
X166790000Y-40011000D03*
X169330000Y-40011000D03*
X166790000Y-42551000D03*
X169330000Y-42551000D03*
X166790000Y-45091000D03*
X169330000Y-45091000D03*
X166790000Y-47631000D03*
X169330000Y-47631000D03*
X166790000Y-50171000D03*
X169330000Y-50171000D03*
D12*
X88620000Y-81230000D03*
X86080000Y-81230000D03*
X83540000Y-81230000D03*
X81000000Y-81230000D03*
X78460000Y-81230000D03*
X75920000Y-81230000D03*
X73380000Y-81230000D03*
X73380000Y-58330000D03*
X75920000Y-58330000D03*
X78460000Y-58330000D03*
X81000000Y-58330000D03*
X83540000Y-58330000D03*
X86080000Y-58330000D03*
G36*
G01*
X87858000Y-57517000D02*
X89382000Y-57517000D01*
G75*
G02*
X89433000Y-57568000I0J-51000D01*
G01*
X89433000Y-59092000D01*
G75*
G02*
X89382000Y-59143000I-51000J0D01*
G01*
X87858000Y-59143000D01*
G75*
G02*
X87807000Y-59092000I0J51000D01*
G01*
X87807000Y-57568000D01*
G75*
G02*
X87858000Y-57517000I51000J0D01*
G01*
G37*
X129532000Y-59588400D03*
X132072000Y-59588400D03*
X129532000Y-62128400D03*
X132072000Y-62128400D03*
X129532000Y-64668400D03*
X132072000Y-64668400D03*
X129532000Y-67208400D03*
G36*
G01*
X132885000Y-66446400D02*
X132885000Y-67970400D01*
G75*
G02*
X132834000Y-68021400I-51000J0D01*
G01*
X131310000Y-68021400D01*
G75*
G02*
X131259000Y-67970400I0J51000D01*
G01*
X131259000Y-66446400D01*
G75*
G02*
X131310000Y-66395400I51000J0D01*
G01*
X132834000Y-66395400D01*
G75*
G02*
X132885000Y-66446400I0J-51000D01*
G01*
G37*
D11*
X73570000Y-50410000D03*
X73570000Y-52950000D03*
G36*
G01*
X74421000Y-54690000D02*
X74421000Y-56290000D01*
G75*
G02*
X74370000Y-56341000I-51000J0D01*
G01*
X72770000Y-56341000D01*
G75*
G02*
X72719000Y-56290000I0J51000D01*
G01*
X72719000Y-54690000D01*
G75*
G02*
X72770000Y-54639000I51000J0D01*
G01*
X74370000Y-54639000D01*
G75*
G02*
X74421000Y-54690000I0J-51000D01*
G01*
G37*
D13*
X97000000Y-81203800D03*
X97000000Y-74703800D03*
X101500000Y-81203800D03*
X101500000Y-74703800D03*
D14*
X125000000Y-76384400D03*
G36*
G01*
X125654752Y-79035400D02*
X124345248Y-79035400D01*
G75*
G02*
X124074000Y-78764152I0J271248D01*
G01*
X124074000Y-78004648D01*
G75*
G02*
X124345248Y-77733400I271248J0D01*
G01*
X125654752Y-77733400D01*
G75*
G02*
X125926000Y-78004648I0J-271248D01*
G01*
X125926000Y-78764152D01*
G75*
G02*
X125654752Y-79035400I-271248J0D01*
G01*
G37*
M02*
