M48
; DRILL file {KiCad 5.99.0-unknown-57e35c9~88~ubuntu19.10.1} date Wed Jan 19 00:43:38 2022
; FORMAT={-:-/ absolute / metric / decimal}
; #@! TF.CreationDate,2022-01-19T00:43:38-03:00
; #@! TF.GenerationSoftware,Kicad,Pcbnew,5.99.0-unknown-57e35c9~88~ubuntu19.10.1
FMAT,2
METRIC
T1C0.500
T2C0.750
T3C0.762
T4C0.800
T5C0.900
T6C1.000
T7C2.800
%
G90
G05
T1
X69.723Y-38.291
X69.723Y-50.609
X71.501Y-78.613
X74.486Y-67.627
X74.486Y-72.771
X74.676Y-41.91
X76.073Y-36.893
X76.327Y-40.703
X76.454Y-67.627
X77.279Y-42.291
X77.279Y-46.418
X78.232Y-38.481
X78.46Y-76.01
X79.057Y-54.927
X79.883Y-41.783
X79.883Y-45.314
X82.296Y-36.195
X82.303Y-68.0
X83.566Y-71.691
X83.629Y-41.402
X84.582Y-35.877
X84.843Y-38.919
X85.471Y-61.641
X86.296Y-49.593
X88.582Y-69.85
X88.582Y-75.184
X90.106Y-49.974
X90.297Y-42.545
X90.322Y-63.246
X90.361Y-40.069
X92.202Y-40.64
X93.599Y-50.063
X93.789Y-60.261
X94.31Y-48.565
X95.315Y-58.038
X96.545Y-44.018
X96.545Y-70.358
X98.171Y-42.621
X98.234Y-53.023
X98.501Y-70.231
X99.377Y-56.451
X99.403Y-63.221
X99.885Y-53.023
X100.508Y-39.446
X101.829Y-68.224
X101.879Y-47.854
X101.879Y-53.188
X103.632Y-48.069
X106.274Y-48.209
X106.299Y-65.659
X106.985Y-81.788
X107.505Y-78.486
X108.407Y-55.474
X108.763Y-82.118
X109.0Y-63.221
X109.347Y-68.224
X109.537Y-77.597
X109.626Y-44.323
X110.16Y-56.464
X110.16Y-64.618
X110.363Y-46.888
X110.426Y-73.088
X112.075Y-66.675
X112.075Y-72.796
X112.116Y-40.843
X112.116Y-63.856
X113.411Y-34.861
X113.487Y-50.444
X113.716Y-71.425
X114.744Y-33.782
X114.998Y-42.037
X114.998Y-65.031
X117.665Y-41.783
X117.665Y-59.563
X117.729Y-69.278
X120.726Y-34.544
X120.752Y-68.529
X121.983Y-40.132
X122.872Y-56.134
X123.241Y-34.011
X123.317Y-72.962
X123.38Y-68.529
X124.46Y-52.006
X125.349Y-46.101
X127.102Y-55.143
X127.127Y-47.816
X128.27Y-39.624
X128.575Y-41.3
X129.413Y-71.425
X130.073Y-47.625
X130.099Y-55.194
X130.556Y-34.036
X131.242Y-71.45
X131.623Y-55.169
X132.588Y-37.465
X132.791Y-43.307
X134.874Y-45.11
X134.899Y-34.595
X138.176Y-62.103
X138.557Y-34.595
X138.557Y-50.165
X140.779Y-34.608
X140.97Y-41.656
X143.383Y-34.595
X143.383Y-46.609
X145.351Y-40.513
X145.351Y-69.596
X147.066Y-32.868
X147.066Y-41.656
X147.142Y-54.381
X147.828Y-62.103
T2
X125.0Y-76.384
X125.0Y-78.384
T3
X73.38Y-58.33
X73.38Y-81.23
X75.92Y-58.33
X75.92Y-81.23
X78.46Y-58.33
X78.46Y-81.23
X81.0Y-58.33
X81.0Y-81.23
X83.54Y-58.33
X83.54Y-81.23
X86.08Y-58.33
X86.08Y-81.23
X88.62Y-58.33
X88.62Y-81.23
X129.532Y-59.588
X129.532Y-62.128
X129.532Y-64.668
X129.532Y-67.208
X132.072Y-59.588
X132.072Y-62.128
X132.072Y-64.668
X132.072Y-67.208
T4
X166.79Y-37.471
X166.79Y-40.011
X166.79Y-42.551
X166.79Y-45.091
X166.79Y-47.631
X166.79Y-50.171
X169.33Y-37.471
X169.33Y-40.011
X169.33Y-42.551
X169.33Y-45.091
X169.33Y-47.631
X169.33Y-50.171
T5
X73.57Y-50.41
X73.57Y-52.95
X73.57Y-55.49
T6
X97.0Y-74.704
X97.0Y-81.204
X101.5Y-74.704
X101.5Y-81.204
T7
X72.39Y-32.645
X90.71Y-32.645
X90.71Y-54.87
X120.36Y-77.27
X168.19Y-32.645
X168.19Y-54.87
X168.19Y-65.03
X168.19Y-77.27
T0
M30
