G04 #@! TF.GenerationSoftware,KiCad,Pcbnew,5.99.0-unknown-57e35c9~88~ubuntu19.10.1*
G04 #@! TF.CreationDate,2022-01-19T00:43:40-03:00*
G04 #@! TF.ProjectId,Femtosat,46656d74-6f73-4617-942e-6b696361645f,rev?*
G04 #@! TF.SameCoordinates,Original*
G04 #@! TF.FileFunction,Paste,Top*
G04 #@! TF.FilePolarity,Positive*
%FSLAX46Y46*%
G04 Gerber Fmt 4.6, Leading zero omitted, Abs format (unit mm)*
G04 Created by KiCad (PCBNEW 5.99.0-unknown-57e35c9~88~ubuntu19.10.1) date 2022-01-19 00:43:40*
%MOMM*%
%LPD*%
G01*
G04 APERTURE LIST*
%ADD10R,1.800000X1.750000*%
%ADD11R,0.550000X1.600000*%
%ADD12R,1.600000X0.550000*%
%ADD13R,1.000000X2.200000*%
%ADD14R,3.400000X1.800000*%
%ADD15R,1.300000X0.900000*%
%ADD16R,1.900000X1.000000*%
%ADD17R,1.900000X1.800000*%
%ADD18R,1.300000X1.650000*%
%ADD19R,1.550000X1.425000*%
%ADD20R,1.380000X0.450000*%
%ADD21R,1.400000X1.000000*%
%ADD22R,1.400000X1.200000*%
G04 APERTURE END LIST*
G36*
G01*
X169133000Y-69897000D02*
X169133000Y-69422000D01*
G75*
G02*
X169370500Y-69184500I237500J0D01*
G01*
X169945500Y-69184500D01*
G75*
G02*
X170183000Y-69422000I0J-237500D01*
G01*
X170183000Y-69897000D01*
G75*
G02*
X169945500Y-70134500I-237500J0D01*
G01*
X169370500Y-70134500D01*
G75*
G02*
X169133000Y-69897000I0J237500D01*
G01*
G37*
G36*
G01*
X167383000Y-69897000D02*
X167383000Y-69422000D01*
G75*
G02*
X167620500Y-69184500I237500J0D01*
G01*
X168195500Y-69184500D01*
G75*
G02*
X168433000Y-69422000I0J-237500D01*
G01*
X168433000Y-69897000D01*
G75*
G02*
X168195500Y-70134500I-237500J0D01*
G01*
X167620500Y-70134500D01*
G75*
G02*
X167383000Y-69897000I0J237500D01*
G01*
G37*
G36*
G01*
X170122001Y-71876500D02*
X169221999Y-71876500D01*
G75*
G02*
X168972000Y-71626501I0J249999D01*
G01*
X168972000Y-70976499D01*
G75*
G02*
X169221999Y-70726500I249999J0D01*
G01*
X170122001Y-70726500D01*
G75*
G02*
X170372000Y-70976499I0J-249999D01*
G01*
X170372000Y-71626501D01*
G75*
G02*
X170122001Y-71876500I-249999J0D01*
G01*
G37*
G36*
G01*
X170122001Y-73926500D02*
X169221999Y-73926500D01*
G75*
G02*
X168972000Y-73676501I0J249999D01*
G01*
X168972000Y-73026499D01*
G75*
G02*
X169221999Y-72776500I249999J0D01*
G01*
X170122001Y-72776500D01*
G75*
G02*
X170372000Y-73026499I0J-249999D01*
G01*
X170372000Y-73676501D01*
G75*
G02*
X170122001Y-73926500I-249999J0D01*
G01*
G37*
G36*
G01*
X77249500Y-70979000D02*
X77249500Y-71179000D01*
G75*
G02*
X77149500Y-71279000I-100000J0D01*
G01*
X75724500Y-71279000D01*
G75*
G02*
X75624500Y-71179000I0J100000D01*
G01*
X75624500Y-70979000D01*
G75*
G02*
X75724500Y-70879000I100000J0D01*
G01*
X77149500Y-70879000D01*
G75*
G02*
X77249500Y-70979000I0J-100000D01*
G01*
G37*
G36*
G01*
X77249500Y-70329000D02*
X77249500Y-70529000D01*
G75*
G02*
X77149500Y-70629000I-100000J0D01*
G01*
X75724500Y-70629000D01*
G75*
G02*
X75624500Y-70529000I0J100000D01*
G01*
X75624500Y-70329000D01*
G75*
G02*
X75724500Y-70229000I100000J0D01*
G01*
X77149500Y-70229000D01*
G75*
G02*
X77249500Y-70329000I0J-100000D01*
G01*
G37*
G36*
G01*
X77249500Y-69679000D02*
X77249500Y-69879000D01*
G75*
G02*
X77149500Y-69979000I-100000J0D01*
G01*
X75724500Y-69979000D01*
G75*
G02*
X75624500Y-69879000I0J100000D01*
G01*
X75624500Y-69679000D01*
G75*
G02*
X75724500Y-69579000I100000J0D01*
G01*
X77149500Y-69579000D01*
G75*
G02*
X77249500Y-69679000I0J-100000D01*
G01*
G37*
G36*
G01*
X77249500Y-69029000D02*
X77249500Y-69229000D01*
G75*
G02*
X77149500Y-69329000I-100000J0D01*
G01*
X75724500Y-69329000D01*
G75*
G02*
X75624500Y-69229000I0J100000D01*
G01*
X75624500Y-69029000D01*
G75*
G02*
X75724500Y-68929000I100000J0D01*
G01*
X77149500Y-68929000D01*
G75*
G02*
X77249500Y-69029000I0J-100000D01*
G01*
G37*
G36*
G01*
X81474500Y-69029000D02*
X81474500Y-69229000D01*
G75*
G02*
X81374500Y-69329000I-100000J0D01*
G01*
X79949500Y-69329000D01*
G75*
G02*
X79849500Y-69229000I0J100000D01*
G01*
X79849500Y-69029000D01*
G75*
G02*
X79949500Y-68929000I100000J0D01*
G01*
X81374500Y-68929000D01*
G75*
G02*
X81474500Y-69029000I0J-100000D01*
G01*
G37*
G36*
G01*
X81474500Y-69679000D02*
X81474500Y-69879000D01*
G75*
G02*
X81374500Y-69979000I-100000J0D01*
G01*
X79949500Y-69979000D01*
G75*
G02*
X79849500Y-69879000I0J100000D01*
G01*
X79849500Y-69679000D01*
G75*
G02*
X79949500Y-69579000I100000J0D01*
G01*
X81374500Y-69579000D01*
G75*
G02*
X81474500Y-69679000I0J-100000D01*
G01*
G37*
G36*
G01*
X81474500Y-70329000D02*
X81474500Y-70529000D01*
G75*
G02*
X81374500Y-70629000I-100000J0D01*
G01*
X79949500Y-70629000D01*
G75*
G02*
X79849500Y-70529000I0J100000D01*
G01*
X79849500Y-70329000D01*
G75*
G02*
X79949500Y-70229000I100000J0D01*
G01*
X81374500Y-70229000D01*
G75*
G02*
X81474500Y-70329000I0J-100000D01*
G01*
G37*
G36*
G01*
X81474500Y-70979000D02*
X81474500Y-71179000D01*
G75*
G02*
X81374500Y-71279000I-100000J0D01*
G01*
X79949500Y-71279000D01*
G75*
G02*
X79849500Y-71179000I0J100000D01*
G01*
X79849500Y-70979000D01*
G75*
G02*
X79949500Y-70879000I100000J0D01*
G01*
X81374500Y-70879000D01*
G75*
G02*
X81474500Y-70979000I0J-100000D01*
G01*
G37*
G36*
G01*
X74723000Y-69817500D02*
X74248000Y-69817500D01*
G75*
G02*
X74010500Y-69580000I0J237500D01*
G01*
X74010500Y-69005000D01*
G75*
G02*
X74248000Y-68767500I237500J0D01*
G01*
X74723000Y-68767500D01*
G75*
G02*
X74960500Y-69005000I0J-237500D01*
G01*
X74960500Y-69580000D01*
G75*
G02*
X74723000Y-69817500I-237500J0D01*
G01*
G37*
G36*
G01*
X74723000Y-71567500D02*
X74248000Y-71567500D01*
G75*
G02*
X74010500Y-71330000I0J237500D01*
G01*
X74010500Y-70755000D01*
G75*
G02*
X74248000Y-70517500I237500J0D01*
G01*
X74723000Y-70517500D01*
G75*
G02*
X74960500Y-70755000I0J-237500D01*
G01*
X74960500Y-71330000D01*
G75*
G02*
X74723000Y-71567500I-237500J0D01*
G01*
G37*
G36*
G01*
X114825000Y-79448601D02*
X114825000Y-76948599D01*
G75*
G02*
X115074999Y-76698600I249999J0D01*
G01*
X116675001Y-76698600D01*
G75*
G02*
X116925000Y-76948599I0J-249999D01*
G01*
X116925000Y-79448601D01*
G75*
G02*
X116675001Y-79698600I-249999J0D01*
G01*
X115074999Y-79698600D01*
G75*
G02*
X114825000Y-79448601I0J249999D01*
G01*
G37*
G36*
G01*
X103475000Y-79448601D02*
X103475000Y-76948599D01*
G75*
G02*
X103724999Y-76698600I249999J0D01*
G01*
X105325001Y-76698600D01*
G75*
G02*
X105575000Y-76948599I0J-249999D01*
G01*
X105575000Y-79448601D01*
G75*
G02*
X105325001Y-79698600I-249999J0D01*
G01*
X103724999Y-79698600D01*
G75*
G02*
X103475000Y-79448601I0J249999D01*
G01*
G37*
G36*
G01*
X112925000Y-75898600D02*
X112925000Y-74698600D01*
G75*
G02*
X113125000Y-74498600I200000J0D01*
G01*
X113525000Y-74498600D01*
G75*
G02*
X113725000Y-74698600I0J-200000D01*
G01*
X113725000Y-75898600D01*
G75*
G02*
X113525000Y-76098600I-200000J0D01*
G01*
X113125000Y-76098600D01*
G75*
G02*
X112925000Y-75898600I0J200000D01*
G01*
G37*
G36*
G01*
X111675000Y-75898600D02*
X111675000Y-74698600D01*
G75*
G02*
X111875000Y-74498600I200000J0D01*
G01*
X112275000Y-74498600D01*
G75*
G02*
X112475000Y-74698600I0J-200000D01*
G01*
X112475000Y-75898600D01*
G75*
G02*
X112275000Y-76098600I-200000J0D01*
G01*
X111875000Y-76098600D01*
G75*
G02*
X111675000Y-75898600I0J200000D01*
G01*
G37*
G36*
G01*
X110425000Y-75898600D02*
X110425000Y-74698600D01*
G75*
G02*
X110625000Y-74498600I200000J0D01*
G01*
X111025000Y-74498600D01*
G75*
G02*
X111225000Y-74698600I0J-200000D01*
G01*
X111225000Y-75898600D01*
G75*
G02*
X111025000Y-76098600I-200000J0D01*
G01*
X110625000Y-76098600D01*
G75*
G02*
X110425000Y-75898600I0J200000D01*
G01*
G37*
G36*
G01*
X109175000Y-75898600D02*
X109175000Y-74698600D01*
G75*
G02*
X109375000Y-74498600I200000J0D01*
G01*
X109775000Y-74498600D01*
G75*
G02*
X109975000Y-74698600I0J-200000D01*
G01*
X109975000Y-75898600D01*
G75*
G02*
X109775000Y-76098600I-200000J0D01*
G01*
X109375000Y-76098600D01*
G75*
G02*
X109175000Y-75898600I0J200000D01*
G01*
G37*
G36*
G01*
X107925000Y-75898600D02*
X107925000Y-74698600D01*
G75*
G02*
X108125000Y-74498600I200000J0D01*
G01*
X108525000Y-74498600D01*
G75*
G02*
X108725000Y-74698600I0J-200000D01*
G01*
X108725000Y-75898600D01*
G75*
G02*
X108525000Y-76098600I-200000J0D01*
G01*
X108125000Y-76098600D01*
G75*
G02*
X107925000Y-75898600I0J200000D01*
G01*
G37*
G36*
G01*
X106675000Y-75898600D02*
X106675000Y-74698600D01*
G75*
G02*
X106875000Y-74498600I200000J0D01*
G01*
X107275000Y-74498600D01*
G75*
G02*
X107475000Y-74698600I0J-200000D01*
G01*
X107475000Y-75898600D01*
G75*
G02*
X107275000Y-76098600I-200000J0D01*
G01*
X106875000Y-76098600D01*
G75*
G02*
X106675000Y-75898600I0J200000D01*
G01*
G37*
D10*
X106337100Y-42385700D03*
X106337100Y-45635700D03*
D11*
X101339300Y-45860700D03*
X100539300Y-45860700D03*
X99739300Y-45860700D03*
X98939300Y-45860700D03*
X98139300Y-45860700D03*
X97339300Y-45860700D03*
X96539300Y-45860700D03*
X95739300Y-45860700D03*
D12*
X94289300Y-44410700D03*
X94289300Y-43610700D03*
X94289300Y-42810700D03*
X94289300Y-42010700D03*
X94289300Y-41210700D03*
X94289300Y-40410700D03*
X94289300Y-39610700D03*
X94289300Y-38810700D03*
D11*
X95739300Y-37360700D03*
X96539300Y-37360700D03*
X97339300Y-37360700D03*
X98139300Y-37360700D03*
X98939300Y-37360700D03*
X99739300Y-37360700D03*
X100539300Y-37360700D03*
X101339300Y-37360700D03*
D12*
X102789300Y-38810700D03*
X102789300Y-39610700D03*
X102789300Y-40410700D03*
X102789300Y-41210700D03*
X102789300Y-42010700D03*
X102789300Y-42810700D03*
X102789300Y-43610700D03*
X102789300Y-44410700D03*
D13*
X127112200Y-49582800D03*
X130112200Y-49582800D03*
D14*
X129362200Y-43282800D03*
D13*
X128612200Y-49582800D03*
X131612200Y-49582800D03*
G36*
X104456200Y-51103300D02*
G01*
X107581201Y-51103300D01*
X107581200Y-51519800D01*
X109056200Y-51519801D01*
X109056200Y-52419800D01*
X107581200Y-52419799D01*
X107581200Y-52836299D01*
X104456200Y-52836299D01*
X104456200Y-51103300D01*
G37*
D15*
X108406200Y-50469800D03*
X108406200Y-53469800D03*
G36*
G01*
X126874700Y-53029600D02*
X127349700Y-53029600D01*
G75*
G02*
X127587200Y-53267100I0J-237500D01*
G01*
X127587200Y-53842100D01*
G75*
G02*
X127349700Y-54079600I-237500J0D01*
G01*
X126874700Y-54079600D01*
G75*
G02*
X126637200Y-53842100I0J237500D01*
G01*
X126637200Y-53267100D01*
G75*
G02*
X126874700Y-53029600I237500J0D01*
G01*
G37*
G36*
G01*
X126874700Y-51279600D02*
X127349700Y-51279600D01*
G75*
G02*
X127587200Y-51517100I0J-237500D01*
G01*
X127587200Y-52092100D01*
G75*
G02*
X127349700Y-52329600I-237500J0D01*
G01*
X126874700Y-52329600D01*
G75*
G02*
X126637200Y-52092100I0J237500D01*
G01*
X126637200Y-51517100D01*
G75*
G02*
X126874700Y-51279600I237500J0D01*
G01*
G37*
G36*
G01*
X89630900Y-47044600D02*
X89630900Y-47519600D01*
G75*
G02*
X89393400Y-47757100I-237500J0D01*
G01*
X88818400Y-47757100D01*
G75*
G02*
X88580900Y-47519600I0J237500D01*
G01*
X88580900Y-47044600D01*
G75*
G02*
X88818400Y-46807100I237500J0D01*
G01*
X89393400Y-46807100D01*
G75*
G02*
X89630900Y-47044600I0J-237500D01*
G01*
G37*
G36*
G01*
X91380900Y-47044600D02*
X91380900Y-47519600D01*
G75*
G02*
X91143400Y-47757100I-237500J0D01*
G01*
X90568400Y-47757100D01*
G75*
G02*
X90330900Y-47519600I0J237500D01*
G01*
X90330900Y-47044600D01*
G75*
G02*
X90568400Y-46807100I237500J0D01*
G01*
X91143400Y-46807100D01*
G75*
G02*
X91380900Y-47044600I0J-237500D01*
G01*
G37*
G36*
G01*
X76269200Y-46932100D02*
X75794200Y-46932100D01*
G75*
G02*
X75556700Y-46694600I0J237500D01*
G01*
X75556700Y-46119600D01*
G75*
G02*
X75794200Y-45882100I237500J0D01*
G01*
X76269200Y-45882100D01*
G75*
G02*
X76506700Y-46119600I0J-237500D01*
G01*
X76506700Y-46694600D01*
G75*
G02*
X76269200Y-46932100I-237500J0D01*
G01*
G37*
G36*
G01*
X76269200Y-48682100D02*
X75794200Y-48682100D01*
G75*
G02*
X75556700Y-48444600I0J237500D01*
G01*
X75556700Y-47869600D01*
G75*
G02*
X75794200Y-47632100I237500J0D01*
G01*
X76269200Y-47632100D01*
G75*
G02*
X76506700Y-47869600I0J-237500D01*
G01*
X76506700Y-48444600D01*
G75*
G02*
X76269200Y-48682100I-237500J0D01*
G01*
G37*
G36*
G01*
X107350000Y-72736700D02*
X107350000Y-73211700D01*
G75*
G02*
X107112500Y-73449200I-237500J0D01*
G01*
X106537500Y-73449200D01*
G75*
G02*
X106300000Y-73211700I0J237500D01*
G01*
X106300000Y-72736700D01*
G75*
G02*
X106537500Y-72499200I237500J0D01*
G01*
X107112500Y-72499200D01*
G75*
G02*
X107350000Y-72736700I0J-237500D01*
G01*
G37*
G36*
G01*
X109100000Y-72736700D02*
X109100000Y-73211700D01*
G75*
G02*
X108862500Y-73449200I-237500J0D01*
G01*
X108287500Y-73449200D01*
G75*
G02*
X108050000Y-73211700I0J237500D01*
G01*
X108050000Y-72736700D01*
G75*
G02*
X108287500Y-72499200I237500J0D01*
G01*
X108862500Y-72499200D01*
G75*
G02*
X109100000Y-72736700I0J-237500D01*
G01*
G37*
G36*
G01*
X101553000Y-51086500D02*
X102028000Y-51086500D01*
G75*
G02*
X102265500Y-51324000I0J-237500D01*
G01*
X102265500Y-51899000D01*
G75*
G02*
X102028000Y-52136500I-237500J0D01*
G01*
X101553000Y-52136500D01*
G75*
G02*
X101315500Y-51899000I0J237500D01*
G01*
X101315500Y-51324000D01*
G75*
G02*
X101553000Y-51086500I237500J0D01*
G01*
G37*
G36*
G01*
X101553000Y-49336500D02*
X102028000Y-49336500D01*
G75*
G02*
X102265500Y-49574000I0J-237500D01*
G01*
X102265500Y-50149000D01*
G75*
G02*
X102028000Y-50386500I-237500J0D01*
G01*
X101553000Y-50386500D01*
G75*
G02*
X101315500Y-50149000I0J237500D01*
G01*
X101315500Y-49574000D01*
G75*
G02*
X101553000Y-49336500I237500J0D01*
G01*
G37*
G36*
G01*
X104856601Y-33941600D02*
X103956599Y-33941600D01*
G75*
G02*
X103706600Y-33691601I0J249999D01*
G01*
X103706600Y-33041599D01*
G75*
G02*
X103956599Y-32791600I249999J0D01*
G01*
X104856601Y-32791600D01*
G75*
G02*
X105106600Y-33041599I0J-249999D01*
G01*
X105106600Y-33691601D01*
G75*
G02*
X104856601Y-33941600I-249999J0D01*
G01*
G37*
G36*
G01*
X104856601Y-35991600D02*
X103956599Y-35991600D01*
G75*
G02*
X103706600Y-35741601I0J249999D01*
G01*
X103706600Y-35091599D01*
G75*
G02*
X103956599Y-34841600I249999J0D01*
G01*
X104856601Y-34841600D01*
G75*
G02*
X105106600Y-35091599I0J-249999D01*
G01*
X105106600Y-35741601D01*
G75*
G02*
X104856601Y-35991600I-249999J0D01*
G01*
G37*
D16*
X69750000Y-45885700D03*
D17*
X69750000Y-43185700D03*
D18*
X69750000Y-47710700D03*
X69750000Y-40960700D03*
D19*
X72325000Y-46823200D03*
X72325000Y-41848200D03*
D20*
X72410000Y-45635700D03*
X72410000Y-44985700D03*
X72410000Y-44335700D03*
X72410000Y-43685700D03*
X72410000Y-43035700D03*
D21*
X82080900Y-38305700D03*
X82080900Y-40205700D03*
X79880900Y-40205700D03*
D22*
X79880900Y-38485700D03*
G36*
G01*
X127286500Y-73186300D02*
X127286500Y-72711300D01*
G75*
G02*
X127524000Y-72473800I237500J0D01*
G01*
X128099000Y-72473800D01*
G75*
G02*
X128336500Y-72711300I0J-237500D01*
G01*
X128336500Y-73186300D01*
G75*
G02*
X128099000Y-73423800I-237500J0D01*
G01*
X127524000Y-73423800D01*
G75*
G02*
X127286500Y-73186300I0J237500D01*
G01*
G37*
G36*
G01*
X125536500Y-73186300D02*
X125536500Y-72711300D01*
G75*
G02*
X125774000Y-72473800I237500J0D01*
G01*
X126349000Y-72473800D01*
G75*
G02*
X126586500Y-72711300I0J-237500D01*
G01*
X126586500Y-73186300D01*
G75*
G02*
X126349000Y-73423800I-237500J0D01*
G01*
X125774000Y-73423800D01*
G75*
G02*
X125536500Y-73186300I0J237500D01*
G01*
G37*
G36*
G01*
X130002800Y-72711300D02*
X130002800Y-73186300D01*
G75*
G02*
X129765300Y-73423800I-237500J0D01*
G01*
X129190300Y-73423800D01*
G75*
G02*
X128952800Y-73186300I0J237500D01*
G01*
X128952800Y-72711300D01*
G75*
G02*
X129190300Y-72473800I237500J0D01*
G01*
X129765300Y-72473800D01*
G75*
G02*
X130002800Y-72711300I0J-237500D01*
G01*
G37*
G36*
G01*
X131752800Y-72711300D02*
X131752800Y-73186300D01*
G75*
G02*
X131515300Y-73423800I-237500J0D01*
G01*
X130940300Y-73423800D01*
G75*
G02*
X130702800Y-73186300I0J237500D01*
G01*
X130702800Y-72711300D01*
G75*
G02*
X130940300Y-72473800I237500J0D01*
G01*
X131515300Y-72473800D01*
G75*
G02*
X131752800Y-72711300I0J-237500D01*
G01*
G37*
G36*
G01*
X108311200Y-48327300D02*
X108311200Y-48802300D01*
G75*
G02*
X108073700Y-49039800I-237500J0D01*
G01*
X107498700Y-49039800D01*
G75*
G02*
X107261200Y-48802300I0J237500D01*
G01*
X107261200Y-48327300D01*
G75*
G02*
X107498700Y-48089800I237500J0D01*
G01*
X108073700Y-48089800D01*
G75*
G02*
X108311200Y-48327300I0J-237500D01*
G01*
G37*
G36*
G01*
X110061200Y-48327300D02*
X110061200Y-48802300D01*
G75*
G02*
X109823700Y-49039800I-237500J0D01*
G01*
X109248700Y-49039800D01*
G75*
G02*
X109011200Y-48802300I0J237500D01*
G01*
X109011200Y-48327300D01*
G75*
G02*
X109248700Y-48089800I237500J0D01*
G01*
X109823700Y-48089800D01*
G75*
G02*
X110061200Y-48327300I0J-237500D01*
G01*
G37*
G36*
G01*
X109871500Y-53283600D02*
X110346500Y-53283600D01*
G75*
G02*
X110584000Y-53521100I0J-237500D01*
G01*
X110584000Y-54096100D01*
G75*
G02*
X110346500Y-54333600I-237500J0D01*
G01*
X109871500Y-54333600D01*
G75*
G02*
X109634000Y-54096100I0J237500D01*
G01*
X109634000Y-53521100D01*
G75*
G02*
X109871500Y-53283600I237500J0D01*
G01*
G37*
G36*
G01*
X109871500Y-51533600D02*
X110346500Y-51533600D01*
G75*
G02*
X110584000Y-51771100I0J-237500D01*
G01*
X110584000Y-52346100D01*
G75*
G02*
X110346500Y-52583600I-237500J0D01*
G01*
X109871500Y-52583600D01*
G75*
G02*
X109634000Y-52346100I0J237500D01*
G01*
X109634000Y-51771100D01*
G75*
G02*
X109871500Y-51533600I237500J0D01*
G01*
G37*
G36*
G01*
X108118900Y-42971200D02*
X108593900Y-42971200D01*
G75*
G02*
X108831400Y-43208700I0J-237500D01*
G01*
X108831400Y-43783700D01*
G75*
G02*
X108593900Y-44021200I-237500J0D01*
G01*
X108118900Y-44021200D01*
G75*
G02*
X107881400Y-43783700I0J237500D01*
G01*
X107881400Y-43208700D01*
G75*
G02*
X108118900Y-42971200I237500J0D01*
G01*
G37*
G36*
G01*
X108118900Y-41221200D02*
X108593900Y-41221200D01*
G75*
G02*
X108831400Y-41458700I0J-237500D01*
G01*
X108831400Y-42033700D01*
G75*
G02*
X108593900Y-42271200I-237500J0D01*
G01*
X108118900Y-42271200D01*
G75*
G02*
X107881400Y-42033700I0J237500D01*
G01*
X107881400Y-41458700D01*
G75*
G02*
X108118900Y-41221200I237500J0D01*
G01*
G37*
G36*
G01*
X108118900Y-46374800D02*
X108593900Y-46374800D01*
G75*
G02*
X108831400Y-46612300I0J-237500D01*
G01*
X108831400Y-47187300D01*
G75*
G02*
X108593900Y-47424800I-237500J0D01*
G01*
X108118900Y-47424800D01*
G75*
G02*
X107881400Y-47187300I0J237500D01*
G01*
X107881400Y-46612300D01*
G75*
G02*
X108118900Y-46374800I237500J0D01*
G01*
G37*
G36*
G01*
X108118900Y-44624800D02*
X108593900Y-44624800D01*
G75*
G02*
X108831400Y-44862300I0J-237500D01*
G01*
X108831400Y-45437300D01*
G75*
G02*
X108593900Y-45674800I-237500J0D01*
G01*
X108118900Y-45674800D01*
G75*
G02*
X107881400Y-45437300I0J237500D01*
G01*
X107881400Y-44862300D01*
G75*
G02*
X108118900Y-44624800I237500J0D01*
G01*
G37*
G36*
G01*
X99978200Y-51086500D02*
X100453200Y-51086500D01*
G75*
G02*
X100690700Y-51324000I0J-237500D01*
G01*
X100690700Y-51899000D01*
G75*
G02*
X100453200Y-52136500I-237500J0D01*
G01*
X99978200Y-52136500D01*
G75*
G02*
X99740700Y-51899000I0J237500D01*
G01*
X99740700Y-51324000D01*
G75*
G02*
X99978200Y-51086500I237500J0D01*
G01*
G37*
G36*
G01*
X99978200Y-49336500D02*
X100453200Y-49336500D01*
G75*
G02*
X100690700Y-49574000I0J-237500D01*
G01*
X100690700Y-50149000D01*
G75*
G02*
X100453200Y-50386500I-237500J0D01*
G01*
X99978200Y-50386500D01*
G75*
G02*
X99740700Y-50149000I0J237500D01*
G01*
X99740700Y-49574000D01*
G75*
G02*
X99978200Y-49336500I237500J0D01*
G01*
G37*
G36*
G01*
X98403400Y-51086500D02*
X98878400Y-51086500D01*
G75*
G02*
X99115900Y-51324000I0J-237500D01*
G01*
X99115900Y-51899000D01*
G75*
G02*
X98878400Y-52136500I-237500J0D01*
G01*
X98403400Y-52136500D01*
G75*
G02*
X98165900Y-51899000I0J237500D01*
G01*
X98165900Y-51324000D01*
G75*
G02*
X98403400Y-51086500I237500J0D01*
G01*
G37*
G36*
G01*
X98403400Y-49336500D02*
X98878400Y-49336500D01*
G75*
G02*
X99115900Y-49574000I0J-237500D01*
G01*
X99115900Y-50149000D01*
G75*
G02*
X98878400Y-50386500I-237500J0D01*
G01*
X98403400Y-50386500D01*
G75*
G02*
X98165900Y-50149000I0J237500D01*
G01*
X98165900Y-49574000D01*
G75*
G02*
X98403400Y-49336500I237500J0D01*
G01*
G37*
G36*
G01*
X101389300Y-33227000D02*
X101389300Y-33702000D01*
G75*
G02*
X101151800Y-33939500I-237500J0D01*
G01*
X100576800Y-33939500D01*
G75*
G02*
X100339300Y-33702000I0J237500D01*
G01*
X100339300Y-33227000D01*
G75*
G02*
X100576800Y-32989500I237500J0D01*
G01*
X101151800Y-32989500D01*
G75*
G02*
X101389300Y-33227000I0J-237500D01*
G01*
G37*
G36*
G01*
X103139300Y-33227000D02*
X103139300Y-33702000D01*
G75*
G02*
X102901800Y-33939500I-237500J0D01*
G01*
X102326800Y-33939500D01*
G75*
G02*
X102089300Y-33702000I0J237500D01*
G01*
X102089300Y-33227000D01*
G75*
G02*
X102326800Y-32989500I237500J0D01*
G01*
X102901800Y-32989500D01*
G75*
G02*
X103139300Y-33227000I0J-237500D01*
G01*
G37*
G36*
G01*
X101389300Y-34751000D02*
X101389300Y-35226000D01*
G75*
G02*
X101151800Y-35463500I-237500J0D01*
G01*
X100576800Y-35463500D01*
G75*
G02*
X100339300Y-35226000I0J237500D01*
G01*
X100339300Y-34751000D01*
G75*
G02*
X100576800Y-34513500I237500J0D01*
G01*
X101151800Y-34513500D01*
G75*
G02*
X101389300Y-34751000I0J-237500D01*
G01*
G37*
G36*
G01*
X103139300Y-34751000D02*
X103139300Y-35226000D01*
G75*
G02*
X102901800Y-35463500I-237500J0D01*
G01*
X102326800Y-35463500D01*
G75*
G02*
X102089300Y-35226000I0J237500D01*
G01*
X102089300Y-34751000D01*
G75*
G02*
X102326800Y-34513500I237500J0D01*
G01*
X102901800Y-34513500D01*
G75*
G02*
X103139300Y-34751000I0J-237500D01*
G01*
G37*
G36*
G01*
X74745200Y-46932100D02*
X74270200Y-46932100D01*
G75*
G02*
X74032700Y-46694600I0J237500D01*
G01*
X74032700Y-46119600D01*
G75*
G02*
X74270200Y-45882100I237500J0D01*
G01*
X74745200Y-45882100D01*
G75*
G02*
X74982700Y-46119600I0J-237500D01*
G01*
X74982700Y-46694600D01*
G75*
G02*
X74745200Y-46932100I-237500J0D01*
G01*
G37*
G36*
G01*
X74745200Y-48682100D02*
X74270200Y-48682100D01*
G75*
G02*
X74032700Y-48444600I0J237500D01*
G01*
X74032700Y-47869600D01*
G75*
G02*
X74270200Y-47632100I237500J0D01*
G01*
X74745200Y-47632100D01*
G75*
G02*
X74982700Y-47869600I0J-237500D01*
G01*
X74982700Y-48444600D01*
G75*
G02*
X74745200Y-48682100I-237500J0D01*
G01*
G37*
G36*
G01*
X99650000Y-73059300D02*
X99650000Y-72584300D01*
G75*
G02*
X99887500Y-72346800I237500J0D01*
G01*
X100462500Y-72346800D01*
G75*
G02*
X100700000Y-72584300I0J-237500D01*
G01*
X100700000Y-73059300D01*
G75*
G02*
X100462500Y-73296800I-237500J0D01*
G01*
X99887500Y-73296800D01*
G75*
G02*
X99650000Y-73059300I0J237500D01*
G01*
G37*
G36*
G01*
X97900000Y-73059300D02*
X97900000Y-72584300D01*
G75*
G02*
X98137500Y-72346800I237500J0D01*
G01*
X98712500Y-72346800D01*
G75*
G02*
X98950000Y-72584300I0J-237500D01*
G01*
X98950000Y-73059300D01*
G75*
G02*
X98712500Y-73296800I-237500J0D01*
G01*
X98137500Y-73296800D01*
G75*
G02*
X97900000Y-73059300I0J237500D01*
G01*
G37*
G36*
G01*
X95787200Y-51072500D02*
X96262200Y-51072500D01*
G75*
G02*
X96499700Y-51310000I0J-237500D01*
G01*
X96499700Y-51885000D01*
G75*
G02*
X96262200Y-52122500I-237500J0D01*
G01*
X95787200Y-52122500D01*
G75*
G02*
X95549700Y-51885000I0J237500D01*
G01*
X95549700Y-51310000D01*
G75*
G02*
X95787200Y-51072500I237500J0D01*
G01*
G37*
G36*
G01*
X95787200Y-49322500D02*
X96262200Y-49322500D01*
G75*
G02*
X96499700Y-49560000I0J-237500D01*
G01*
X96499700Y-50135000D01*
G75*
G02*
X96262200Y-50372500I-237500J0D01*
G01*
X95787200Y-50372500D01*
G75*
G02*
X95549700Y-50135000I0J237500D01*
G01*
X95549700Y-49560000D01*
G75*
G02*
X95787200Y-49322500I237500J0D01*
G01*
G37*
G36*
G01*
X129874700Y-53029600D02*
X130349700Y-53029600D01*
G75*
G02*
X130587200Y-53267100I0J-237500D01*
G01*
X130587200Y-53842100D01*
G75*
G02*
X130349700Y-54079600I-237500J0D01*
G01*
X129874700Y-54079600D01*
G75*
G02*
X129637200Y-53842100I0J237500D01*
G01*
X129637200Y-53267100D01*
G75*
G02*
X129874700Y-53029600I237500J0D01*
G01*
G37*
G36*
G01*
X129874700Y-51279600D02*
X130349700Y-51279600D01*
G75*
G02*
X130587200Y-51517100I0J-237500D01*
G01*
X130587200Y-52092100D01*
G75*
G02*
X130349700Y-52329600I-237500J0D01*
G01*
X129874700Y-52329600D01*
G75*
G02*
X129637200Y-52092100I0J237500D01*
G01*
X129637200Y-51517100D01*
G75*
G02*
X129874700Y-51279600I237500J0D01*
G01*
G37*
G36*
G01*
X131374700Y-53029600D02*
X131849700Y-53029600D01*
G75*
G02*
X132087200Y-53267100I0J-237500D01*
G01*
X132087200Y-53842100D01*
G75*
G02*
X131849700Y-54079600I-237500J0D01*
G01*
X131374700Y-54079600D01*
G75*
G02*
X131137200Y-53842100I0J237500D01*
G01*
X131137200Y-53267100D01*
G75*
G02*
X131374700Y-53029600I237500J0D01*
G01*
G37*
G36*
G01*
X131374700Y-51279600D02*
X131849700Y-51279600D01*
G75*
G02*
X132087200Y-51517100I0J-237500D01*
G01*
X132087200Y-52092100D01*
G75*
G02*
X131849700Y-52329600I-237500J0D01*
G01*
X131374700Y-52329600D01*
G75*
G02*
X131137200Y-52092100I0J237500D01*
G01*
X131137200Y-51517100D01*
G75*
G02*
X131374700Y-51279600I237500J0D01*
G01*
G37*
M02*
